<svg width="175" height="31" viewBox="0 0 175 31" fill="none" xmlns="http://www.w3.org/2000/svg">
<rect width="175" height="31" rx="8" fill="#5383F6"/>
<path d="M36.77 19.144C35.99 19.144 35.284 18.956 34.652 18.58C34.02 18.2 33.524 17.68 33.164 17.02C32.804 16.36 32.624 15.62 32.624 14.8C32.624 13.98 32.804 13.24 33.164 12.58C33.524 11.92 34.02 11.402 34.652 11.026C35.284 10.646 35.99 10.456 36.77 10.456C37.418 10.456 38.022 10.594 38.582 10.87C39.146 11.146 39.606 11.512 39.962 11.968C40.322 12.424 40.534 12.914 40.598 13.438H39.398C39.322 13.114 39.156 12.808 38.9 12.52C38.648 12.232 38.334 12.002 37.958 11.83C37.586 11.654 37.19 11.566 36.77 11.566C36.218 11.566 35.722 11.704 35.282 11.98C34.842 12.256 34.498 12.64 34.25 13.132C34.002 13.624 33.878 14.18 33.878 14.8C33.878 15.42 34.002 15.976 34.25 16.468C34.498 16.96 34.842 17.344 35.282 17.62C35.722 17.896 36.218 18.034 36.77 18.034C37.19 18.034 37.586 17.948 37.958 17.776C38.334 17.6 38.648 17.368 38.9 17.08C39.156 16.792 39.322 16.488 39.398 16.168H40.598C40.534 16.688 40.322 17.178 39.962 17.638C39.606 18.094 39.146 18.46 38.582 18.736C38.022 19.008 37.418 19.144 36.77 19.144ZM44.8592 19.144C44.2632 19.144 43.7232 19.006 43.2392 18.73C42.7552 18.454 42.3732 18.072 42.0932 17.584C41.8172 17.092 41.6792 16.54 41.6792 15.928C41.6792 15.316 41.8172 14.766 42.0932 14.278C42.3732 13.786 42.7552 13.402 43.2392 13.126C43.7272 12.85 44.2692 12.712 44.8652 12.712C45.4652 12.712 46.0052 12.85 46.4852 13.126C46.9692 13.402 47.3492 13.786 47.6252 14.278C47.9012 14.766 48.0392 15.316 48.0392 15.928C48.0392 16.54 47.9012 17.092 47.6252 17.584C47.3492 18.072 46.9692 18.454 46.4852 18.73C46.0012 19.006 45.4592 19.144 44.8592 19.144ZM42.9032 15.928C42.9032 16.348 42.9892 16.722 43.1612 17.05C43.3332 17.378 43.5692 17.632 43.8692 17.812C44.1692 17.992 44.5032 18.082 44.8712 18.082C45.2392 18.082 45.5712 17.992 45.8672 17.812C46.1672 17.632 46.4012 17.38 46.5692 17.056C46.7372 16.728 46.8212 16.352 46.8212 15.928C46.8212 15.504 46.7352 15.13 46.5632 14.806C46.3952 14.478 46.1612 14.224 45.8612 14.044C45.5652 13.86 45.2332 13.768 44.8652 13.768C44.4972 13.768 44.1632 13.86 43.8632 14.044C43.5672 14.224 43.3332 14.478 43.1612 14.806C42.9892 15.134 42.9032 15.508 42.9032 15.928ZM49.4894 12.856H50.6234V13.846C50.8074 13.482 51.0594 13.202 51.3794 13.006C51.6994 12.81 52.0714 12.712 52.4954 12.712C52.9434 12.712 53.3334 12.82 53.6654 13.036C53.9974 13.248 54.2474 13.546 54.4154 13.93C54.6114 13.542 54.8814 13.242 55.2254 13.03C55.5734 12.818 55.9754 12.712 56.4314 12.712C56.8674 12.712 57.2514 12.812 57.5834 13.012C57.9154 13.208 58.1734 13.488 58.3574 13.852C58.5414 14.216 58.6334 14.64 58.6334 15.124V19H57.4634V15.226C57.4634 14.758 57.3474 14.392 57.1154 14.128C56.8834 13.86 56.5574 13.726 56.1374 13.726C55.8374 13.726 55.5734 13.794 55.3454 13.93C55.1214 14.066 54.9474 14.26 54.8234 14.512C54.7034 14.76 54.6434 15.054 54.6434 15.394V19H53.4854V15.226C53.4854 14.762 53.3674 14.396 53.1314 14.128C52.8994 13.86 52.5754 13.726 52.1594 13.726C51.8554 13.726 51.5914 13.794 51.3674 13.93C51.1434 14.066 50.9694 14.26 50.8454 14.512C50.7254 14.76 50.6654 15.054 50.6654 15.394V19H49.4894V12.856ZM61.5456 12.856V13.882C61.7736 13.51 62.0776 13.222 62.4576 13.018C62.8376 12.814 63.2736 12.712 63.7656 12.712C64.3296 12.712 64.8316 12.848 65.2716 13.12C65.7116 13.388 66.0536 13.766 66.2976 14.254C66.5456 14.742 66.6696 15.3 66.6696 15.928C66.6696 16.556 66.5456 17.114 66.2976 17.602C66.0536 18.09 65.7096 18.47 65.2656 18.742C64.8256 19.01 64.3236 19.144 63.7596 19.144C63.2796 19.144 62.8516 19.046 62.4756 18.85C62.0996 18.65 61.7976 18.37 61.5696 18.01V20.932H60.3996V12.856H61.5456ZM61.5696 15.928C61.5696 16.352 61.6516 16.728 61.8156 17.056C61.9796 17.38 62.2096 17.634 62.5056 17.818C62.8016 17.998 63.1396 18.088 63.5196 18.088C63.8956 18.088 64.2296 17.998 64.5216 17.818C64.8136 17.634 65.0396 17.38 65.1996 17.056C65.3636 16.728 65.4456 16.352 65.4456 15.928C65.4456 15.504 65.3636 15.13 65.1996 14.806C65.0396 14.478 64.8136 14.224 64.5216 14.044C64.2296 13.86 63.8956 13.768 63.5196 13.768C63.1396 13.768 62.8016 13.86 62.5056 14.044C62.2096 14.224 61.9796 14.478 61.8156 14.806C61.6516 15.13 61.5696 15.504 61.5696 15.928ZM70.8045 19.144C70.2085 19.144 69.6685 19.006 69.1845 18.73C68.7005 18.454 68.3185 18.072 68.0385 17.584C67.7625 17.092 67.6245 16.54 67.6245 15.928C67.6245 15.316 67.7625 14.766 68.0385 14.278C68.3185 13.786 68.7005 13.402 69.1845 13.126C69.6725 12.85 70.2145 12.712 70.8105 12.712C71.4105 12.712 71.9505 12.85 72.4305 13.126C72.9145 13.402 73.2945 13.786 73.5705 14.278C73.8465 14.766 73.9845 15.316 73.9845 15.928C73.9845 16.54 73.8465 17.092 73.5705 17.584C73.2945 18.072 72.9145 18.454 72.4305 18.73C71.9465 19.006 71.4045 19.144 70.8045 19.144ZM68.8485 15.928C68.8485 16.348 68.9345 16.722 69.1065 17.05C69.2785 17.378 69.5145 17.632 69.8145 17.812C70.1145 17.992 70.4485 18.082 70.8165 18.082C71.1845 18.082 71.5165 17.992 71.8125 17.812C72.1125 17.632 72.3465 17.38 72.5145 17.056C72.6825 16.728 72.7665 16.352 72.7665 15.928C72.7665 15.504 72.6805 15.13 72.5085 14.806C72.3405 14.478 72.1065 14.224 71.8065 14.044C71.5105 13.86 71.1785 13.768 70.8105 13.768C70.4425 13.768 70.1085 13.86 69.8085 14.044C69.5125 14.224 69.2785 14.478 69.1065 14.806C68.9345 15.134 68.8485 15.508 68.8485 15.928ZM77.5828 19.144C77.0948 19.144 76.6548 19.07 76.2628 18.922C75.8708 18.77 75.5608 18.558 75.3328 18.286C75.1048 18.014 74.9828 17.706 74.9668 17.362H76.1548C76.1708 17.526 76.2408 17.674 76.3648 17.806C76.4888 17.934 76.6548 18.036 76.8628 18.112C77.0748 18.184 77.3108 18.22 77.5708 18.22C77.8268 18.22 78.0528 18.18 78.2488 18.1C78.4488 18.016 78.6028 17.902 78.7108 17.758C78.8228 17.614 78.8788 17.45 78.8788 17.266C78.8788 17.066 78.8208 16.898 78.7048 16.762C78.5928 16.622 78.4348 16.534 78.2308 16.498L76.7068 16.24C76.2268 16.16 75.8508 15.968 75.5788 15.664C75.3108 15.36 75.1768 14.98 75.1768 14.524C75.1768 14.188 75.2748 13.884 75.4708 13.612C75.6668 13.336 75.9408 13.118 76.2928 12.958C76.6488 12.798 77.0528 12.718 77.5048 12.718C77.9568 12.718 78.3628 12.79 78.7228 12.934C79.0868 13.078 79.3728 13.278 79.5808 13.534C79.7928 13.79 79.9068 14.076 79.9228 14.392H78.7348C78.7228 14.248 78.6628 14.12 78.5548 14.008C78.4468 13.892 78.3008 13.802 78.1168 13.738C77.9368 13.67 77.7328 13.636 77.5048 13.636C77.2768 13.636 77.0728 13.674 76.8928 13.75C76.7168 13.822 76.5788 13.924 76.4788 14.056C76.3828 14.184 76.3348 14.33 76.3348 14.494C76.3348 14.682 76.3888 14.838 76.4968 14.962C76.6048 15.082 76.7608 15.16 76.9648 15.196L78.4948 15.442C78.8148 15.494 79.0908 15.604 79.3228 15.772C79.5588 15.936 79.7388 16.144 79.8628 16.396C79.9868 16.644 80.0488 16.916 80.0488 17.212C80.0488 17.58 79.9408 17.912 79.7248 18.208C79.5128 18.5 79.2188 18.73 78.8428 18.898C78.4708 19.062 78.0508 19.144 77.5828 19.144ZM84.1145 19.144C83.5265 19.144 82.9985 19.006 82.5305 18.73C82.0625 18.454 81.6965 18.072 81.4325 17.584C81.1725 17.092 81.0425 16.536 81.0425 15.916C81.0425 15.312 81.1745 14.766 81.4385 14.278C81.7065 13.79 82.0745 13.408 82.5425 13.132C83.0105 12.852 83.5345 12.712 84.1145 12.712C84.7065 12.712 85.2265 12.85 85.6745 13.126C86.1225 13.402 86.4665 13.784 86.7065 14.272C86.9505 14.756 87.0725 15.306 87.0725 15.922V16.228H82.2485C82.2885 16.604 82.3945 16.936 82.5665 17.224C82.7385 17.512 82.9625 17.736 83.2385 17.896C83.5185 18.056 83.8285 18.136 84.1685 18.136C84.5485 18.136 84.8785 18.072 85.1585 17.944C85.4425 17.816 85.6505 17.636 85.7825 17.404H86.9465C86.8785 17.68 86.7245 17.952 86.4845 18.22C86.2445 18.488 85.9205 18.71 85.5125 18.886C85.1085 19.058 84.6425 19.144 84.1145 19.144ZM85.8665 15.346C85.7905 14.842 85.6025 14.444 85.3025 14.152C85.0025 13.856 84.6105 13.708 84.1265 13.708C83.6345 13.708 83.2225 13.856 82.8905 14.152C82.5585 14.444 82.3505 14.842 82.2665 15.346H85.8665ZM91.4068 10.6H92.9488L95.7628 17.032L95.9128 17.476L96.0568 17.032L98.8168 10.6H100.383V19H99.1708V12.664L99.1768 12.436L96.3748 19H95.4208L92.6068 12.472L92.6128 12.664V19H91.4068V10.6ZM107.742 19H106.608V18.046C106.404 18.402 106.134 18.674 105.798 18.862C105.462 19.05 105.072 19.144 104.628 19.144C104.188 19.144 103.798 19.05 103.458 18.862C103.118 18.67 102.852 18.392 102.66 18.028C102.472 17.66 102.378 17.222 102.378 16.714V12.856H103.548V16.564C103.548 17.056 103.674 17.438 103.926 17.71C104.182 17.982 104.532 18.118 104.976 18.118C105.292 18.118 105.57 18.048 105.81 17.908C106.054 17.768 106.242 17.572 106.374 17.32C106.506 17.068 106.572 16.782 106.572 16.462V12.856H107.742V19ZM109.677 10.6H110.847V19H109.677V10.6ZM114.846 19C114.538 19 114.258 18.934 114.006 18.802C113.758 18.67 113.564 18.488 113.424 18.256C113.284 18.02 113.214 17.756 113.214 17.464L113.208 13.882H112.128L112.134 12.856H112.8C112.952 12.856 113.074 12.808 113.166 12.712C113.262 12.616 113.31 12.494 113.31 12.346V11.356H114.384V12.856H115.86V13.882H114.378L114.384 17.35C114.384 17.53 114.442 17.68 114.558 17.8C114.678 17.916 114.828 17.974 115.008 17.974H115.86V19H114.846ZM117.4 12.856H118.576V19H117.4V12.856ZM118.648 10.6V11.836H117.328V10.6H118.648ZM121.651 12.856V13.882C121.879 13.51 122.183 13.222 122.563 13.018C122.943 12.814 123.379 12.712 123.871 12.712C124.435 12.712 124.937 12.848 125.377 13.12C125.817 13.388 126.159 13.766 126.403 14.254C126.651 14.742 126.775 15.3 126.775 15.928C126.775 16.556 126.651 17.114 126.403 17.602C126.159 18.09 125.815 18.47 125.371 18.742C124.931 19.01 124.429 19.144 123.865 19.144C123.385 19.144 122.957 19.046 122.581 18.85C122.205 18.65 121.903 18.37 121.675 18.01V20.932H120.505V12.856H121.651ZM121.675 15.928C121.675 16.352 121.757 16.728 121.921 17.056C122.085 17.38 122.315 17.634 122.611 17.818C122.907 17.998 123.245 18.088 123.625 18.088C124.001 18.088 124.335 17.998 124.627 17.818C124.919 17.634 125.145 17.38 125.305 17.056C125.469 16.728 125.551 16.352 125.551 15.928C125.551 15.504 125.469 15.13 125.305 14.806C125.145 14.478 124.919 14.224 124.627 14.044C124.335 13.86 124.001 13.768 123.625 13.768C123.245 13.768 122.907 13.86 122.611 14.044C122.315 14.224 122.085 14.478 121.921 14.806C121.757 15.13 121.675 15.504 121.675 15.928ZM128.216 10.6H129.386V19H128.216V10.6ZM133.619 12.712C134.099 12.712 134.521 12.8 134.885 12.976C135.253 13.148 135.539 13.4 135.743 13.732C135.947 14.06 136.049 14.45 136.049 14.902V19H134.909V18.046C134.729 18.402 134.473 18.674 134.141 18.862C133.809 19.05 133.417 19.144 132.965 19.144C132.569 19.144 132.213 19.07 131.897 18.922C131.585 18.77 131.339 18.56 131.159 18.292C130.983 18.02 130.895 17.714 130.895 17.374C130.895 17.05 130.979 16.752 131.147 16.48C131.315 16.204 131.547 15.98 131.843 15.808C132.143 15.632 132.479 15.524 132.851 15.484L134.477 15.31C134.605 15.294 134.705 15.242 134.777 15.154C134.853 15.066 134.891 14.938 134.891 14.77C134.887 14.434 134.767 14.166 134.531 13.966C134.295 13.762 133.985 13.66 133.601 13.66C133.349 13.66 133.121 13.704 132.917 13.792C132.713 13.876 132.549 13.992 132.425 14.14C132.301 14.284 132.225 14.442 132.197 14.614H131.033C131.077 14.254 131.215 13.93 131.447 13.642C131.683 13.35 131.989 13.122 132.365 12.958C132.741 12.794 133.159 12.712 133.619 12.712ZM132.095 17.266C132.095 17.454 132.145 17.622 132.245 17.77C132.349 17.918 132.491 18.034 132.671 18.118C132.855 18.198 133.063 18.238 133.295 18.238C133.611 18.238 133.889 18.174 134.129 18.046C134.373 17.918 134.561 17.738 134.693 17.506C134.825 17.27 134.891 17.002 134.891 16.702V16.072L133.079 16.276C132.787 16.308 132.549 16.414 132.365 16.594C132.185 16.774 132.095 16.998 132.095 17.266ZM139.889 19C139.581 19 139.301 18.934 139.049 18.802C138.801 18.67 138.607 18.488 138.467 18.256C138.327 18.02 138.257 17.756 138.257 17.464L138.251 13.882H137.171L137.177 12.856H137.843C137.995 12.856 138.117 12.808 138.209 12.712C138.305 12.616 138.353 12.494 138.353 12.346V11.356H139.427V12.856H140.903V13.882H139.421L139.427 17.35C139.427 17.53 139.485 17.68 139.601 17.8C139.721 17.916 139.871 17.974 140.051 17.974H140.903V19H139.889ZM142.959 13.882H141.873V12.856H142.959V12.1C142.959 11.808 143.027 11.548 143.163 11.32C143.299 11.092 143.489 10.916 143.733 10.792C143.981 10.664 144.265 10.6 144.585 10.6H145.695V11.584H144.741C144.557 11.584 144.409 11.64 144.297 11.752C144.185 11.864 144.129 12.012 144.129 12.196V12.856H145.641V13.882H144.129V19H142.959V13.882ZM149.531 19.144C148.935 19.144 148.395 19.006 147.911 18.73C147.427 18.454 147.045 18.072 146.765 17.584C146.489 17.092 146.351 16.54 146.351 15.928C146.351 15.316 146.489 14.766 146.765 14.278C147.045 13.786 147.427 13.402 147.911 13.126C148.399 12.85 148.941 12.712 149.537 12.712C150.137 12.712 150.677 12.85 151.157 13.126C151.641 13.402 152.021 13.786 152.297 14.278C152.573 14.766 152.711 15.316 152.711 15.928C152.711 16.54 152.573 17.092 152.297 17.584C152.021 18.072 151.641 18.454 151.157 18.73C150.673 19.006 150.131 19.144 149.531 19.144ZM147.575 15.928C147.575 16.348 147.661 16.722 147.833 17.05C148.005 17.378 148.241 17.632 148.541 17.812C148.841 17.992 149.175 18.082 149.543 18.082C149.911 18.082 150.243 17.992 150.539 17.812C150.839 17.632 151.073 17.38 151.241 17.056C151.409 16.728 151.493 16.352 151.493 15.928C151.493 15.504 151.407 15.13 151.235 14.806C151.067 14.478 150.833 14.224 150.533 14.044C150.237 13.86 149.905 13.768 149.537 13.768C149.169 13.768 148.835 13.86 148.535 14.044C148.239 14.224 148.005 14.478 147.833 14.806C147.661 15.134 147.575 15.508 147.575 15.928ZM154.161 12.856H155.331V13.834C155.523 13.502 155.771 13.248 156.075 13.072C156.383 12.892 156.731 12.802 157.119 12.802H157.341V14.008L157.017 14.002C156.677 14.002 156.379 14.066 156.123 14.194C155.871 14.322 155.677 14.506 155.541 14.746C155.405 14.986 155.337 15.268 155.337 15.592V19H154.161V12.856ZM158.521 12.856H159.655V13.846C159.839 13.482 160.091 13.202 160.411 13.006C160.731 12.81 161.103 12.712 161.527 12.712C161.975 12.712 162.365 12.82 162.697 13.036C163.029 13.248 163.279 13.546 163.447 13.93C163.643 13.542 163.913 13.242 164.257 13.03C164.605 12.818 165.007 12.712 165.463 12.712C165.899 12.712 166.283 12.812 166.615 13.012C166.947 13.208 167.205 13.488 167.389 13.852C167.573 14.216 167.665 14.64 167.665 15.124V19H166.495V15.226C166.495 14.758 166.379 14.392 166.147 14.128C165.915 13.86 165.589 13.726 165.169 13.726C164.869 13.726 164.605 13.794 164.377 13.93C164.153 14.066 163.979 14.26 163.855 14.512C163.735 14.76 163.675 15.054 163.675 15.394V19H162.517V15.226C162.517 14.762 162.399 14.396 162.163 14.128C161.931 13.86 161.607 13.726 161.191 13.726C160.887 13.726 160.623 13.794 160.399 13.93C160.175 14.066 160.001 14.26 159.877 14.512C159.757 14.76 159.697 15.054 159.697 15.394V19H158.521V12.856Z" fill="white"/>
<g clip-path="url(#clip0_1_4)">
<path d="M16.4128 3C16.8485 3.00754 17.2762 3.12639 17.6568 3.34627L25.5832 7.92585C25.9025 8.11055 26.1874 8.35711 26.4158 8.64596L26.4236 8.64114L26.5417 8.8184L26.5556 8.83872L26.7031 9.06112L26.6926 9.06758C26.8884 9.4323 26.996 9.83045 27 10.2354V19.5451C27.0042 20.0152 26.8874 20.4783 26.6614 20.8881C26.4353 21.2976 26.1079 21.639 25.712 21.8781L17.8715 26.6103C17.5448 26.8079 17.1819 26.9285 16.8077 26.9675L16.8076 26.9794L16.3061 26.9836L16.3064 26.9709C15.9369 26.9369 15.5776 26.823 15.2527 26.6354L6.92445 21.8231C6.35868 21.4973 6.00648 20.8865 6 20.2192V10.36C6.00467 10.0123 6.06389 9.67666 6.17604 9.36802L6.16669 9.36256L6.38131 8.90387L6.39346 8.91072C6.59317 8.57961 6.86397 8.30496 7.19735 8.10345L15.0379 3.37204C15.4337 3.13283 15.8841 3.00453 16.344 3H16.4128ZM6.61519 9.61948L6.59762 9.67651C6.52779 9.91274 6.49333 10.1679 6.49596 10.4339L6.49595 20.2167C6.50065 20.7003 6.75669 21.1443 7.16805 21.3812L15.4965 26.1936C15.744 26.3365 16.0162 26.4267 16.2968 26.4598L16.3142 26.4615L16.3161 26.0477L16.3178 24.3117L16.3151 22.3413L16.3039 22.3401C16.1318 22.3169 15.9641 22.2666 15.8066 22.1907L15.7481 22.161L15.6962 22.1323L10.6508 19.217C10.4673 19.1111 10.3145 18.9578 10.2075 18.7724C10.1006 18.5872 10.0433 18.3763 10.0411 18.1583L10.0411 12.2326C10.0393 12.0441 10.0625 11.8603 10.1101 11.687L10.1262 11.6316L6.61519 9.61948ZM26.2664 9.32804L22.8047 11.443L22.8123 11.4591C22.8978 11.6478 22.9478 11.8486 22.9572 12.0537L22.9588 12.1098L22.9586 17.749C22.9615 18.0515 22.8864 18.3494 22.741 18.6126C22.5956 18.876 22.385 19.0956 22.1303 19.2493L17.3806 22.1162C17.2163 22.2156 17.0376 22.2845 16.8521 22.3218L16.8114 22.3292L16.8122 22.7302L16.8139 25.0528L16.8106 26.417L16.8101 26.4564L16.8842 26.4456C17.121 26.4062 17.3502 26.326 17.562 26.2069L17.6193 26.1735L25.4599 21.4411C25.7808 21.2473 26.0463 20.9706 26.2295 20.6386C26.4128 20.3065 26.5074 19.9311 26.5038 19.5476L26.5039 10.2379C26.5012 9.95024 26.4303 9.66288 26.2992 9.39271L26.2664 9.32804ZM16.1719 10.2658C16.0969 10.2885 16.0247 10.3206 15.9573 10.3612L12.7735 12.2825C12.6808 12.3383 12.5995 12.4117 12.5338 12.4985C12.5081 12.5325 12.485 12.5682 12.4644 12.6054C12.4541 12.6241 12.4444 12.643 12.4352 12.6625L12.4181 12.7061C12.3784 12.8026 12.3521 12.9058 12.3418 13.0142C12.338 13.0556 12.3362 13.0977 12.3365 13.1401V17.114C12.3378 17.2284 12.3682 17.3406 12.4251 17.4392C12.4819 17.5378 12.5632 17.6193 12.6607 17.6754L16.0428 19.6297C16.1895 19.7145 16.3555 19.7584 16.524 19.757L16.5601 19.7555L16.5603 20.8254L16.5626 21.8462L16.5602 19.7554C16.7172 19.7485 16.8702 19.7022 17.0058 19.6205L20.1897 17.6988C20.3352 17.611 20.4556 17.4855 20.5388 17.335C20.5521 17.3108 20.5639 17.2859 20.5753 17.2606C20.6342 17.129 20.6643 16.9859 20.6631 16.8411L20.6633 13.0597C20.6626 12.9909 20.6535 12.9233 20.6372 12.8577C20.6265 12.8139 20.6123 12.771 20.5953 12.7293C20.5868 12.7085 20.5775 12.688 20.5677 12.6678C20.5559 12.6439 20.543 12.6206 20.5296 12.5978L20.5151 12.5739L20.5001 12.5503C20.4769 12.5156 20.4519 12.4822 20.425 12.4506C20.3437 12.3549 20.2469 12.274 20.139 12.2114L16.9202 10.3518C16.7914 10.2773 16.6475 10.2342 16.4997 10.2259C16.389 10.2197 16.2781 10.2332 16.1719 10.2658ZM16.3488 3.50733C15.976 3.511 15.6109 3.61499 15.2901 3.80893L7.4495 8.54034C7.21089 8.68457 7.01335 8.8757 6.86067 9.1058L6.82653 9.15906L10.3456 11.1747L10.3822 11.1238C10.4886 10.9818 10.618 10.8595 10.7684 10.7612L10.8146 10.7322L15.5645 7.86562C15.819 7.71172 16.1088 7.62914 16.4045 7.62622C16.7002 7.6233 16.9914 7.70011 17.2488 7.84892L22.0509 10.6237C22.2163 10.7193 22.3673 10.841 22.4973 10.9834L22.5296 11.02L25.9844 8.90912L25.9465 8.86492C25.7875 8.68493 25.6007 8.5275 25.3956 8.40122L25.3392 8.36755L17.4129 3.78804C17.088 3.60038 16.7211 3.50353 16.3488 3.50733Z" fill="white"/>
</g>
<defs>
<clipPath id="clip0_1_4">
<rect width="21" height="24" fill="white" transform="translate(6 3)"/>
</clipPath>
</defs>
</svg>
