<svg width="875" height="390" viewBox="0 0 875 390" fill="none" xmlns="http://www.w3.org/2000/svg">
<rect width="875" height="390" fill="white"/>
<path d="M28.6241 56.24C27.4721 56.24 26.4801 56.048 25.6481 55.664C24.8321 55.28 24.2001 54.728 23.7521 54.008C23.3041 53.288 23.0721 52.432 23.0561 51.44H25.2161C25.2161 52.32 25.5121 53.016 26.1041 53.528C26.7121 54.04 27.5521 54.296 28.6241 54.296C29.6321 54.296 30.4161 54.048 30.9761 53.552C31.5521 53.056 31.8401 52.368 31.8401 51.488C31.8401 50.784 31.6481 50.168 31.2641 49.64C30.8961 49.112 30.3601 48.744 29.6561 48.536L27.2801 47.792C26.0801 47.424 25.1521 46.808 24.4961 45.944C23.8561 45.08 23.5361 44.064 23.5361 42.896C23.5361 41.952 23.7441 41.136 24.1601 40.448C24.5921 39.744 25.1921 39.2 25.9601 38.816C26.7281 38.416 27.6321 38.216 28.6721 38.216C30.2081 38.216 31.4401 38.648 32.3681 39.512C33.2961 40.36 33.7681 41.496 33.7841 42.92H31.6241C31.6241 42.056 31.3601 41.384 30.8321 40.904C30.3201 40.408 29.5921 40.16 28.6481 40.16C27.7201 40.16 26.9921 40.384 26.4641 40.832C25.9521 41.28 25.6961 41.904 25.6961 42.704C25.6961 43.424 25.8881 44.048 26.2721 44.576C26.6561 45.104 27.2081 45.48 27.9281 45.704L30.3281 46.472C31.4961 46.84 32.4001 47.464 33.0401 48.344C33.6801 49.224 34.0001 50.256 34.0001 51.44C34.0001 52.4 33.7761 53.24 33.3281 53.96C32.8801 54.68 32.2481 55.24 31.4321 55.64C30.6321 56.04 29.6961 56.24 28.6241 56.24ZM44.3588 56C43.2228 56 42.3348 55.696 41.6948 55.088C41.0708 54.48 40.7588 53.624 40.7588 52.52V44.768H37.0388V42.8H40.7588V39.08H42.9188V42.8H48.1988V44.768H42.9188V52.52C42.9188 53.528 43.3988 54.032 44.3588 54.032H47.9588V56H44.3588ZM56.1574 56.24C54.7654 56.24 53.6694 55.888 52.8694 55.184C52.0694 54.464 51.6694 53.496 51.6694 52.28C51.6694 51.048 52.0694 50.08 52.8694 49.376C53.6694 48.672 54.7494 48.32 56.1094 48.32H60.1894V47C60.1894 46.184 59.9414 45.56 59.4454 45.128C58.9654 44.68 58.2774 44.456 57.3814 44.456C56.5974 44.456 55.9414 44.624 55.4134 44.96C54.8854 45.28 54.5814 45.72 54.5014 46.28H52.3414C52.4854 45.144 53.0214 44.24 53.9494 43.568C54.8774 42.896 56.0374 42.56 57.4294 42.56C58.9494 42.56 60.1494 42.952 61.0294 43.736C61.9094 44.52 62.3494 45.584 62.3494 46.928V56H60.2374V53.48H59.8774L60.2374 53.12C60.2374 54.08 59.8614 54.84 59.1094 55.4C58.3734 55.96 57.3894 56.24 56.1574 56.24ZM56.6854 54.536C57.7094 54.536 58.5494 54.28 59.2054 53.768C59.8614 53.256 60.1894 52.6 60.1894 51.8V49.928H56.1574C55.4374 49.928 54.8694 50.128 54.4534 50.528C54.0374 50.928 53.8294 51.472 53.8294 52.16C53.8294 52.896 54.0774 53.48 54.5734 53.912C55.0854 54.328 55.7894 54.536 56.6854 54.536ZM73.14 56C72.004 56 71.116 55.696 70.476 55.088C69.852 54.48 69.54 53.624 69.54 52.52V44.768H65.82V42.8H69.54V39.08H71.7V42.8H76.98V44.768H71.7V52.52C71.7 53.528 72.18 54.032 73.14 54.032H76.74V56H73.14ZM86.0906 56.24C85.0506 56.24 84.1386 56.032 83.3546 55.616C82.5866 55.2 81.9866 54.616 81.5546 53.864C81.1386 53.096 80.9306 52.208 80.9306 51.2V47.6C80.9306 46.576 81.1386 45.688 81.5546 44.936C81.9866 44.184 82.5866 43.6 83.3546 43.184C84.1386 42.768 85.0506 42.56 86.0906 42.56C87.1306 42.56 88.0346 42.768 88.8026 43.184C89.5866 43.6 90.1866 44.184 90.6026 44.936C91.0346 45.688 91.2506 46.576 91.2506 47.6V49.928H83.0426V51.2C83.0426 52.24 83.3066 53.04 83.8346 53.6C84.3626 54.144 85.1146 54.416 86.0906 54.416C86.9226 54.416 87.5946 54.272 88.1066 53.984C88.6186 53.68 88.9306 53.232 89.0426 52.64H91.2026C91.0586 53.744 90.5146 54.624 89.5706 55.28C88.6426 55.92 87.4826 56.24 86.0906 56.24ZM89.1386 48.488V47.6C89.1386 46.56 88.8746 45.76 88.3466 45.2C87.8346 44.64 87.0826 44.36 86.0906 44.36C85.1146 44.36 84.3626 44.64 83.8346 45.2C83.3066 45.76 83.0426 46.56 83.0426 47.6V48.296H89.3066L89.1386 48.488ZM100.073 56.192C99.1773 56.192 98.3933 56.056 97.7213 55.784C97.0653 55.496 96.5373 55.096 96.1373 54.584C95.7533 54.072 95.5213 53.464 95.4413 52.76H97.6013C97.6973 53.224 97.9533 53.592 98.3693 53.864C98.8013 54.136 99.3693 54.272 100.073 54.272H101.081C101.929 54.272 102.561 54.104 102.977 53.768C103.393 53.416 103.601 52.952 103.601 52.376C103.601 51.816 103.409 51.376 103.025 51.056C102.657 50.72 102.105 50.496 101.369 50.384L99.5933 50.096C98.2973 49.872 97.3293 49.472 96.6893 48.896C96.0653 48.304 95.7533 47.448 95.7533 46.328C95.7533 45.144 96.1293 44.232 96.8813 43.592C97.6333 42.936 98.7613 42.608 100.265 42.608H101.177C102.441 42.608 103.457 42.904 104.225 43.496C104.993 44.088 105.457 44.888 105.617 45.896H103.457C103.361 45.48 103.121 45.152 102.737 44.912C102.353 44.656 101.833 44.528 101.177 44.528H100.265C99.4493 44.528 98.8493 44.68 98.4653 44.984C98.0973 45.288 97.9133 45.744 97.9133 46.352C97.9133 46.896 98.0733 47.296 98.3933 47.552C98.7133 47.808 99.2173 47.992 99.9053 48.104L101.681 48.392C103.105 48.616 104.137 49.032 104.777 49.64C105.433 50.248 105.761 51.128 105.761 52.28C105.761 53.496 105.369 54.456 104.585 55.16C103.817 55.848 102.649 56.192 101.081 56.192H100.073Z" fill="#595959"/>
<path d="M23.7281 203V185.48H33.8081V187.448H25.8641V192.872H32.9681V194.816H25.8641V201.032H33.8081V203H23.7281ZM41.4548 203L37.0388 189.8H39.2467L42.1748 198.68C42.3508 199.208 42.5108 199.72 42.6548 200.216C42.7988 200.696 42.9028 201.072 42.9668 201.344C43.0468 201.072 43.1588 200.696 43.3028 200.216C43.4468 199.72 43.5988 199.208 43.7588 198.68L46.6148 189.8H48.7988L44.3828 203H41.4548ZM57.3094 203.24C56.2694 203.24 55.3574 203.032 54.5734 202.616C53.8054 202.2 53.2054 201.616 52.7734 200.864C52.3574 200.096 52.1494 199.208 52.1494 198.2V194.6C52.1494 193.576 52.3574 192.688 52.7734 191.936C53.2054 191.184 53.8054 190.6 54.5734 190.184C55.3574 189.768 56.2694 189.56 57.3094 189.56C58.3494 189.56 59.2534 189.768 60.0214 190.184C60.8054 190.6 61.4054 191.184 61.8214 191.936C62.2534 192.688 62.4694 193.576 62.4694 194.6V196.928H54.2614V198.2C54.2614 199.24 54.5254 200.04 55.0534 200.6C55.5814 201.144 56.3334 201.416 57.3094 201.416C58.1414 201.416 58.8134 201.272 59.3254 200.984C59.8374 200.68 60.1494 200.232 60.2614 199.64H62.4214C62.2774 200.744 61.7334 201.624 60.7894 202.28C59.8614 202.92 58.7014 203.24 57.3094 203.24ZM60.3574 195.488V194.6C60.3574 193.56 60.0934 192.76 59.5654 192.2C59.0534 191.64 58.3014 191.36 57.3094 191.36C56.3334 191.36 55.5814 191.64 55.0534 192.2C54.5254 192.76 54.2614 193.56 54.2614 194.6V195.296H60.5254L60.3574 195.488ZM66.708 203V189.8H68.868V192.32H69.324L68.868 192.824C68.868 191.784 69.18 190.984 69.804 190.424C70.428 189.848 71.292 189.56 72.396 189.56C73.724 189.56 74.78 189.968 75.564 190.784C76.348 191.6 76.74 192.712 76.74 194.12V203H74.58V194.36C74.58 193.416 74.324 192.696 73.812 192.2C73.316 191.688 72.636 191.432 71.772 191.432C70.876 191.432 70.164 191.704 69.636 192.248C69.124 192.792 68.868 193.576 68.868 194.6V203H66.708ZM87.5306 203C86.3946 203 85.5066 202.696 84.8666 202.088C84.2426 201.48 83.9306 200.624 83.9306 199.52V191.768H80.2106V189.8H83.9306V186.08H86.0906V189.8H91.3706V191.768H86.0906V199.52C86.0906 200.528 86.5706 201.032 87.5306 201.032H91.1306V203H87.5306ZM100.073 203.192C99.1773 203.192 98.3933 203.056 97.7213 202.784C97.0653 202.496 96.5373 202.096 96.1373 201.584C95.7533 201.072 95.5213 200.464 95.4413 199.76H97.6013C97.6973 200.224 97.9533 200.592 98.3693 200.864C98.8013 201.136 99.3693 201.272 100.073 201.272H101.081C101.929 201.272 102.561 201.104 102.977 200.768C103.393 200.416 103.601 199.952 103.601 199.376C103.601 198.816 103.409 198.376 103.025 198.056C102.657 197.72 102.105 197.496 101.369 197.384L99.5933 197.096C98.2973 196.872 97.3293 196.472 96.6893 195.896C96.0653 195.304 95.7533 194.448 95.7533 193.328C95.7533 192.144 96.1293 191.232 96.8813 190.592C97.6333 189.936 98.7613 189.608 100.265 189.608H101.177C102.441 189.608 103.457 189.904 104.225 190.496C104.993 191.088 105.457 191.888 105.617 192.896H103.457C103.361 192.48 103.121 192.152 102.737 191.912C102.353 191.656 101.833 191.528 101.177 191.528H100.265C99.4493 191.528 98.8493 191.68 98.4653 191.984C98.0973 192.288 97.9133 192.744 97.9133 193.352C97.9133 193.896 98.0733 194.296 98.3933 194.552C98.7133 194.808 99.2173 194.992 99.9053 195.104L101.681 195.392C103.105 195.616 104.137 196.032 104.777 196.64C105.433 197.248 105.761 198.128 105.761 199.28C105.761 200.496 105.369 201.456 104.585 202.16C103.817 202.848 102.649 203.192 101.081 203.192H100.073Z" fill="#595959"/>
<rect x="170" y="15" width="120" height="66.0901" rx="12" fill="#F2F2F2"/>
<path d="M191.686 51.4246V50.4406H193.474V43.6486H191.686V42.6646H196.366V43.6486H194.578V50.4406H196.366V51.4246H191.686ZM198.701 51.4246V42.6646H200.141L202.817 50.1646C202.801 49.9646 202.781 49.7206 202.757 49.4326C202.741 49.1366 202.725 48.8286 202.709 48.5086C202.701 48.1806 202.697 47.8726 202.697 47.5846V42.6646H203.741V51.4246H202.301L199.637 43.9246C199.653 44.1166 199.669 44.3606 199.685 44.6566C199.701 44.9446 199.713 45.2526 199.721 45.5806C199.737 45.9006 199.745 46.2086 199.745 46.5046V51.4246H198.701ZM206.076 51.4246V50.4406H207.864V43.6486H206.076V42.6646H210.756V43.6486H208.968V50.4406H210.756V51.4246H206.076ZM215.072 51.4246V43.6366H212.672V42.6526H218.552V43.6366H216.152V51.4246H215.072ZM220.467 51.4246V50.4406H222.255V43.6486H220.467V42.6646H225.147V43.6486H223.359V50.4406H225.147V51.4246H220.467ZM227.002 51.4246L229.282 42.6646H230.734L233.002 51.4246H231.91L231.334 49.0966H228.682L228.106 51.4246H227.002ZM228.898 48.1846H231.106L230.434 45.4846C230.306 44.9726 230.206 44.5446 230.134 44.2006C230.062 43.8566 230.018 43.6326 230.002 43.5286C229.986 43.6326 229.942 43.8566 229.87 44.2006C229.798 44.5446 229.698 44.9686 229.57 45.4726L228.898 48.1846ZM234.978 51.4246V42.6646H236.058V50.4406H240.018V51.4246H234.978ZM242.053 51.4246V50.4406H243.841V43.6486H242.053V42.6646H246.733V43.6486H244.945V50.4406H246.733V51.4246H242.053ZM249.008 51.4246V50.3446L252.956 43.6486H249.068V42.6646H254.048V43.7446L250.1 50.4406H254.168V51.4246H249.008ZM256.384 51.4246V42.6646H261.424V43.6486H257.452V46.3606H261.004V47.3326H257.452V50.4406H261.424V51.4246H256.384ZM263.483 51.4246V42.6646H265.751C266.319 42.6646 266.807 42.7726 267.215 42.9886C267.631 43.2046 267.951 43.5086 268.175 43.9006C268.407 44.2926 268.523 44.7566 268.523 45.2926V48.7846C268.523 49.3206 268.407 49.7886 268.175 50.1886C267.951 50.5806 267.631 50.8846 267.215 51.1006C266.807 51.3166 266.319 51.4246 265.751 51.4246H263.483ZM264.563 50.4646H265.751C266.279 50.4646 266.691 50.3166 266.987 50.0206C267.291 49.7246 267.443 49.3126 267.443 48.7846V45.2926C267.443 44.7726 267.291 44.3646 266.987 44.0686C266.691 43.7726 266.279 43.6246 265.751 43.6246H264.563V50.4646Z" fill="black"/>
<path d="M272.221 113.12C271.693 113.12 271.237 113.02 270.853 112.82C270.477 112.62 270.185 112.332 269.977 111.956C269.777 111.572 269.677 111.12 269.677 110.6V106.64C269.677 106.112 269.777 105.66 269.977 105.284C270.185 104.908 270.477 104.62 270.853 104.42C271.237 104.22 271.693 104.12 272.221 104.12C272.749 104.12 273.201 104.22 273.577 104.42C273.961 104.62 274.253 104.908 274.453 105.284C274.661 105.66 274.765 106.108 274.765 106.628V110.6C274.765 111.12 274.661 111.572 274.453 111.956C274.253 112.332 273.961 112.62 273.577 112.82C273.201 113.02 272.749 113.12 272.221 113.12ZM272.221 112.148C272.693 112.148 273.053 112.016 273.301 111.752C273.557 111.48 273.685 111.096 273.685 110.6V106.64C273.685 106.144 273.557 105.764 273.301 105.5C273.053 105.228 272.693 105.092 272.221 105.092C271.757 105.092 271.397 105.228 271.141 105.5C270.885 105.764 270.757 106.144 270.757 106.64V110.6C270.757 111.096 270.885 111.48 271.141 111.752C271.397 112.016 271.757 112.148 272.221 112.148ZM276.896 113V104.24H278.336L281.012 111.74C280.996 111.54 280.976 111.296 280.952 111.008C280.936 110.712 280.92 110.404 280.904 110.084C280.896 109.756 280.892 109.448 280.892 109.16V104.24H281.936V113H280.496L277.832 105.5C277.848 105.692 277.864 105.936 277.88 106.232C277.896 106.52 277.908 106.828 277.916 107.156C277.932 107.476 277.94 107.784 277.94 108.08V113H276.896ZM283.732 114.2V113.3H289.492V114.2H283.732ZM293.855 113.12C293.327 113.12 292.867 113.02 292.475 112.82C292.091 112.62 291.791 112.332 291.575 111.956C291.367 111.572 291.263 111.12 291.263 110.6V106.64C291.263 106.112 291.367 105.66 291.575 105.284C291.791 104.908 292.091 104.62 292.475 104.42C292.867 104.22 293.327 104.12 293.855 104.12C294.383 104.12 294.839 104.224 295.223 104.432C295.607 104.632 295.903 104.92 296.111 105.296C296.319 105.672 296.423 106.12 296.423 106.64H295.343C295.343 106.144 295.211 105.764 294.947 105.5C294.691 105.228 294.327 105.092 293.855 105.092C293.383 105.092 293.011 105.224 292.739 105.488C292.475 105.752 292.343 106.132 292.343 106.628V110.6C292.343 111.096 292.475 111.48 292.739 111.752C293.011 112.016 293.383 112.148 293.855 112.148C294.327 112.148 294.691 112.016 294.947 111.752C295.211 111.48 295.343 111.096 295.343 110.6H296.423C296.423 111.112 296.319 111.56 296.111 111.944C295.903 112.32 295.607 112.612 295.223 112.82C294.839 113.02 294.383 113.12 293.855 113.12ZM298.506 113V104.24H301.218C301.738 104.24 302.194 104.348 302.586 104.564C302.978 104.772 303.282 105.064 303.498 105.44C303.714 105.816 303.822 106.256 303.822 106.76C303.822 107.352 303.666 107.86 303.354 108.284C303.05 108.708 302.634 109 302.106 109.16L303.942 113H302.67L300.99 109.28H299.586V113H298.506ZM299.586 108.308H301.218C301.666 108.308 302.026 108.168 302.298 107.888C302.57 107.6 302.706 107.224 302.706 106.76C302.706 106.288 302.57 105.912 302.298 105.632C302.026 105.352 301.666 105.212 301.218 105.212H299.586V108.308ZM305.798 113V104.24H310.838V105.224H306.866V107.936H310.418V108.908H306.866V112.016H310.838V113H305.798ZM312.393 113L314.673 104.24H316.125L318.393 113H317.301L316.725 110.672H314.073L313.497 113H312.393ZM314.289 109.76H316.497L315.825 107.06C315.697 106.548 315.597 106.12 315.525 105.776C315.453 105.432 315.409 105.208 315.393 105.104C315.377 105.208 315.333 105.432 315.261 105.776C315.189 106.12 315.089 106.544 314.961 107.048L314.289 109.76ZM322.048 113V105.212H319.648V104.228H325.528V105.212H323.128V113H322.048ZM327.384 113V104.24H332.424V105.224H328.452V107.936H332.004V108.908H328.452V112.016H332.424V113H327.384Z" fill="black"/>
<path d="M700.221 173.12C699.693 173.12 699.237 173.02 698.853 172.82C698.477 172.62 698.185 172.332 697.977 171.956C697.777 171.572 697.677 171.12 697.677 170.6V166.64C697.677 166.112 697.777 165.66 697.977 165.284C698.185 164.908 698.477 164.62 698.853 164.42C699.237 164.22 699.693 164.12 700.221 164.12C700.749 164.12 701.201 164.22 701.577 164.42C701.961 164.62 702.253 164.908 702.453 165.284C702.661 165.66 702.765 166.108 702.765 166.628V170.6C702.765 171.12 702.661 171.572 702.453 171.956C702.253 172.332 701.961 172.62 701.577 172.82C701.201 173.02 700.749 173.12 700.221 173.12ZM700.221 172.148C700.693 172.148 701.053 172.016 701.301 171.752C701.557 171.48 701.685 171.096 701.685 170.6V166.64C701.685 166.144 701.557 165.764 701.301 165.5C701.053 165.228 700.693 165.092 700.221 165.092C699.757 165.092 699.397 165.228 699.141 165.5C698.885 165.764 698.757 166.144 698.757 166.64V170.6C698.757 171.096 698.885 171.48 699.141 171.752C699.397 172.016 699.757 172.148 700.221 172.148ZM704.896 173V164.24H706.336L709.012 171.74C708.996 171.54 708.976 171.296 708.952 171.008C708.936 170.712 708.92 170.404 708.904 170.084C708.896 169.756 708.892 169.448 708.892 169.16V164.24H709.936V173H708.496L705.832 165.5C705.848 165.692 705.864 165.936 705.88 166.232C705.896 166.52 705.908 166.828 705.916 167.156C705.932 167.476 705.94 167.784 705.94 168.08V173H704.896ZM711.732 174.2V173.3H717.492V174.2H711.732ZM719.311 173V164.24H722.023C722.543 164.24 722.999 164.348 723.391 164.564C723.783 164.772 724.087 165.064 724.303 165.44C724.519 165.816 724.627 166.256 724.627 166.76C724.627 167.352 724.471 167.86 724.159 168.284C723.855 168.708 723.439 169 722.911 169.16L724.747 173H723.475L721.795 169.28H720.391V173H719.311ZM720.391 168.308H722.023C722.471 168.308 722.831 168.168 723.103 167.888C723.375 167.6 723.511 167.224 723.511 166.76C723.511 166.288 723.375 165.912 723.103 165.632C722.831 165.352 722.471 165.212 722.023 165.212H720.391V168.308ZM726.602 173V164.24H731.642V165.224H727.67V167.936H731.222V168.908H727.67V172.016H731.642V173H726.602ZM736.246 173.12C735.67 173.12 735.174 173.024 734.758 172.832C734.35 172.64 734.034 172.364 733.81 172.004C733.586 171.644 733.47 171.216 733.462 170.72H734.542C734.542 171.16 734.69 171.508 734.986 171.764C735.29 172.02 735.71 172.148 736.246 172.148C736.75 172.148 737.142 172.024 737.422 171.776C737.71 171.528 737.854 171.184 737.854 170.744C737.854 170.392 737.758 170.084 737.566 169.82C737.382 169.556 737.114 169.372 736.762 169.268L735.574 168.896C734.974 168.712 734.51 168.404 734.182 167.972C733.862 167.54 733.702 167.032 733.702 166.448C733.702 165.976 733.806 165.568 734.014 165.224C734.23 164.872 734.53 164.6 734.914 164.408C735.298 164.208 735.75 164.108 736.27 164.108C737.038 164.108 737.654 164.324 738.118 164.756C738.582 165.18 738.818 165.748 738.826 166.46H737.746C737.746 166.028 737.614 165.692 737.35 165.452C737.094 165.204 736.73 165.08 736.258 165.08C735.794 165.08 735.43 165.192 735.166 165.416C734.91 165.64 734.782 165.952 734.782 166.352C734.782 166.712 734.878 167.024 735.07 167.288C735.262 167.552 735.538 167.74 735.898 167.852L737.098 168.236C737.682 168.42 738.134 168.732 738.454 169.172C738.774 169.612 738.934 170.128 738.934 170.72C738.934 171.2 738.822 171.62 738.598 171.98C738.374 172.34 738.058 172.62 737.65 172.82C737.25 173.02 736.782 173.12 736.246 173.12ZM743.393 173.12C742.577 173.12 741.953 172.896 741.521 172.448C741.089 171.992 740.873 171.376 740.873 170.6V164.24H741.953V170.6C741.953 171.08 742.069 171.46 742.301 171.74C742.541 172.02 742.905 172.16 743.393 172.16C743.873 172.16 744.233 172.02 744.473 171.74C744.713 171.46 744.833 171.08 744.833 170.6V164.24H745.913V170.6C745.913 171.384 745.697 172 745.265 172.448C744.841 172.896 744.217 173.12 743.393 173.12ZM747.9 173V164.24H749.316L750.228 167.072C750.316 167.328 750.396 167.584 750.468 167.84C750.54 168.088 750.592 168.28 750.624 168.416C750.664 168.28 750.716 168.088 750.78 167.84C750.844 167.584 750.916 167.324 750.996 167.06L751.86 164.24H753.276V173H752.22V169.82C752.22 169.468 752.232 169.068 752.256 168.62C752.28 168.172 752.312 167.716 752.352 167.252C752.392 166.78 752.432 166.332 752.472 165.908C752.52 165.476 752.56 165.1 752.592 164.78L751.176 169.16H750.036L748.608 164.78C748.648 165.092 748.688 165.456 748.728 165.872C748.768 166.28 748.804 166.716 748.836 167.18C748.868 167.636 748.896 168.092 748.92 168.548C748.944 169.004 748.956 169.428 748.956 169.82V173H747.9ZM755.384 173V164.24H760.424V165.224H756.452V167.936H760.004V168.908H756.452V172.016H760.424V173H755.384Z" fill="black"/>
<path d="M412.623 273.12C412.095 273.12 411.639 273.02 411.255 272.82C410.879 272.62 410.587 272.332 410.379 271.956C410.179 271.572 410.079 271.12 410.079 270.6V266.64C410.079 266.112 410.179 265.66 410.379 265.284C410.587 264.908 410.879 264.62 411.255 264.42C411.639 264.22 412.095 264.12 412.623 264.12C413.151 264.12 413.603 264.22 413.979 264.42C414.363 264.62 414.655 264.908 414.855 265.284C415.063 265.66 415.167 266.108 415.167 266.628V270.6C415.167 271.12 415.063 271.572 414.855 271.956C414.655 272.332 414.363 272.62 413.979 272.82C413.603 273.02 413.151 273.12 412.623 273.12ZM412.623 272.148C413.095 272.148 413.455 272.016 413.703 271.752C413.959 271.48 414.087 271.096 414.087 270.6V266.64C414.087 266.144 413.959 265.764 413.703 265.5C413.455 265.228 413.095 265.092 412.623 265.092C412.159 265.092 411.799 265.228 411.543 265.5C411.287 265.764 411.159 266.144 411.159 266.64V270.6C411.159 271.096 411.287 271.48 411.543 271.752C411.799 272.016 412.159 272.148 412.623 272.148ZM417.299 273V264.24H418.739L421.415 271.74C421.399 271.54 421.379 271.296 421.355 271.008C421.339 270.712 421.323 270.404 421.307 270.084C421.299 269.756 421.295 269.448 421.295 269.16V264.24H422.339V273H420.899L418.235 265.5C418.251 265.692 418.267 265.936 418.283 266.232C418.299 266.52 418.311 266.828 418.319 267.156C418.335 267.476 418.343 267.784 418.343 268.08V273H417.299ZM424.134 274.2V273.3H429.894V274.2H424.134ZM431.713 273V264.24H433.981C434.549 264.24 435.037 264.348 435.445 264.564C435.861 264.78 436.181 265.084 436.405 265.476C436.637 265.868 436.753 266.332 436.753 266.868V270.36C436.753 270.896 436.637 271.364 436.405 271.764C436.181 272.156 435.861 272.46 435.445 272.676C435.037 272.892 434.549 273 433.981 273H431.713ZM432.793 272.04H433.981C434.509 272.04 434.921 271.892 435.217 271.596C435.521 271.3 435.673 270.888 435.673 270.36V266.868C435.673 266.348 435.521 265.94 435.217 265.644C434.921 265.348 434.509 265.2 433.981 265.2H432.793V272.04ZM439.005 273V264.24H444.045V265.224H440.073V267.936H443.625V268.908H440.073V272.016H444.045V273H439.005ZM448.648 273.12C448.072 273.12 447.576 273.024 447.16 272.832C446.752 272.64 446.436 272.364 446.212 272.004C445.988 271.644 445.872 271.216 445.864 270.72H446.944C446.944 271.16 447.092 271.508 447.388 271.764C447.692 272.02 448.112 272.148 448.648 272.148C449.152 272.148 449.544 272.024 449.824 271.776C450.112 271.528 450.256 271.184 450.256 270.744C450.256 270.392 450.16 270.084 449.968 269.82C449.784 269.556 449.516 269.372 449.164 269.268L447.976 268.896C447.376 268.712 446.912 268.404 446.584 267.972C446.264 267.54 446.104 267.032 446.104 266.448C446.104 265.976 446.208 265.568 446.416 265.224C446.632 264.872 446.932 264.6 447.316 264.408C447.7 264.208 448.152 264.108 448.672 264.108C449.44 264.108 450.056 264.324 450.52 264.756C450.984 265.18 451.22 265.748 451.228 266.46H450.148C450.148 266.028 450.016 265.692 449.752 265.452C449.496 265.204 449.132 265.08 448.66 265.08C448.196 265.08 447.832 265.192 447.568 265.416C447.312 265.64 447.184 265.952 447.184 266.352C447.184 266.712 447.28 267.024 447.472 267.288C447.664 267.552 447.94 267.74 448.3 267.852L449.5 268.236C450.084 268.42 450.536 268.732 450.856 269.172C451.176 269.612 451.336 270.128 451.336 270.72C451.336 271.2 451.224 271.62 451 271.98C450.776 272.34 450.46 272.62 450.052 272.82C449.652 273.02 449.184 273.12 448.648 273.12ZM455.255 273V265.212H452.855V264.228H458.735V265.212H456.335V273H455.255ZM460.495 273V264.24H463.207C463.727 264.24 464.183 264.348 464.575 264.564C464.967 264.772 465.271 265.064 465.487 265.44C465.703 265.816 465.811 266.256 465.811 266.76C465.811 267.352 465.655 267.86 465.343 268.284C465.039 268.708 464.623 269 464.095 269.16L465.931 273H464.659L462.979 269.28H461.575V273H460.495ZM461.575 268.308H463.207C463.655 268.308 464.015 268.168 464.287 267.888C464.559 267.6 464.695 267.224 464.695 266.76C464.695 266.288 464.559 265.912 464.287 265.632C464.015 265.352 463.655 265.212 463.207 265.212H461.575V268.308ZM470.186 273.12C469.658 273.12 469.202 273.02 468.818 272.82C468.442 272.62 468.15 272.332 467.942 271.956C467.742 271.572 467.642 271.12 467.642 270.6V266.64C467.642 266.112 467.742 265.66 467.942 265.284C468.15 264.908 468.442 264.62 468.818 264.42C469.202 264.22 469.658 264.12 470.186 264.12C470.714 264.12 471.166 264.22 471.542 264.42C471.926 264.62 472.218 264.908 472.418 265.284C472.626 265.66 472.73 266.108 472.73 266.628V270.6C472.73 271.12 472.626 271.572 472.418 271.956C472.218 272.332 471.926 272.62 471.542 272.82C471.166 273.02 470.714 273.12 470.186 273.12ZM470.186 272.148C470.658 272.148 471.018 272.016 471.266 271.752C471.522 271.48 471.65 271.096 471.65 270.6V266.64C471.65 266.144 471.522 265.764 471.266 265.5C471.018 265.228 470.658 265.092 470.186 265.092C469.722 265.092 469.362 265.228 469.106 265.5C468.85 265.764 468.722 266.144 468.722 266.64V270.6C468.722 271.096 468.85 271.48 469.106 271.752C469.362 272.016 469.722 272.148 470.186 272.148ZM476.841 273V269.724L474.201 264.24H475.317L477.057 267.84C477.153 268.04 477.229 268.212 477.285 268.356C477.341 268.492 477.377 268.592 477.393 268.656C477.409 268.592 477.445 268.492 477.501 268.356C477.565 268.212 477.645 268.04 477.741 267.84L479.445 264.24H480.561L477.921 269.724V273H476.841Z" fill="black"/>
<path d="M565.416 245.12C564.888 245.12 564.432 245.02 564.048 244.82C563.672 244.62 563.38 244.332 563.172 243.956C562.972 243.572 562.872 243.12 562.872 242.6V238.64C562.872 238.112 562.972 237.66 563.172 237.284C563.38 236.908 563.672 236.62 564.048 236.42C564.432 236.22 564.888 236.12 565.416 236.12C565.944 236.12 566.396 236.22 566.772 236.42C567.156 236.62 567.448 236.908 567.648 237.284C567.856 237.66 567.96 238.108 567.96 238.628V242.6C567.96 243.12 567.856 243.572 567.648 243.956C567.448 244.332 567.156 244.62 566.772 244.82C566.396 245.02 565.944 245.12 565.416 245.12ZM565.416 244.148C565.888 244.148 566.248 244.016 566.496 243.752C566.752 243.48 566.88 243.096 566.88 242.6V238.64C566.88 238.144 566.752 237.764 566.496 237.5C566.248 237.228 565.888 237.092 565.416 237.092C564.952 237.092 564.592 237.228 564.336 237.5C564.08 237.764 563.952 238.144 563.952 238.64V242.6C563.952 243.096 564.08 243.48 564.336 243.752C564.592 244.016 564.952 244.148 565.416 244.148ZM570.092 245V236.24H571.532L574.208 243.74C574.192 243.54 574.172 243.296 574.148 243.008C574.132 242.712 574.116 242.404 574.1 242.084C574.092 241.756 574.088 241.448 574.088 241.16V236.24H575.132V245H573.692L571.028 237.5C571.044 237.692 571.06 237.936 571.076 238.232C571.092 238.52 571.104 238.828 571.112 239.156C571.128 239.476 571.136 239.784 571.136 240.08V245H570.092ZM576.927 246.2V245.3H582.687V246.2H576.927ZM587.05 245.12C586.474 245.12 585.978 245.024 585.562 244.832C585.154 244.64 584.838 244.364 584.614 244.004C584.39 243.644 584.274 243.216 584.266 242.72H585.346C585.346 243.16 585.494 243.508 585.79 243.764C586.094 244.02 586.514 244.148 587.05 244.148C587.554 244.148 587.946 244.024 588.226 243.776C588.514 243.528 588.658 243.184 588.658 242.744C588.658 242.392 588.562 242.084 588.37 241.82C588.186 241.556 587.918 241.372 587.566 241.268L586.378 240.896C585.778 240.712 585.314 240.404 584.986 239.972C584.666 239.54 584.506 239.032 584.506 238.448C584.506 237.976 584.61 237.568 584.818 237.224C585.034 236.872 585.334 236.6 585.718 236.408C586.102 236.208 586.554 236.108 587.074 236.108C587.842 236.108 588.458 236.324 588.922 236.756C589.386 237.18 589.622 237.748 589.63 238.46H588.55C588.55 238.028 588.418 237.692 588.154 237.452C587.898 237.204 587.534 237.08 587.062 237.08C586.598 237.08 586.234 237.192 585.97 237.416C585.714 237.64 585.586 237.952 585.586 238.352C585.586 238.712 585.682 239.024 585.874 239.288C586.066 239.552 586.342 239.74 586.702 239.852L587.902 240.236C588.486 240.42 588.938 240.732 589.258 241.172C589.578 241.612 589.738 242.128 589.738 242.72C589.738 243.2 589.626 243.62 589.402 243.98C589.178 244.34 588.862 244.62 588.454 244.82C588.054 245.02 587.586 245.12 587.05 245.12ZM593.658 245V237.212H591.258V236.228H597.138V237.212H594.738V245H593.658ZM601.393 245.12C600.865 245.12 600.409 245.02 600.025 244.82C599.649 244.62 599.357 244.332 599.149 243.956C598.949 243.572 598.849 243.12 598.849 242.6V238.64C598.849 238.112 598.949 237.66 599.149 237.284C599.357 236.908 599.649 236.62 600.025 236.42C600.409 236.22 600.865 236.12 601.393 236.12C601.921 236.12 602.373 236.22 602.749 236.42C603.133 236.62 603.425 236.908 603.625 237.284C603.833 237.66 603.937 238.108 603.937 238.628V242.6C603.937 243.12 603.833 243.572 603.625 243.956C603.425 244.332 603.133 244.62 602.749 244.82C602.373 245.02 601.921 245.12 601.393 245.12ZM601.393 244.148C601.865 244.148 602.225 244.016 602.473 243.752C602.729 243.48 602.857 243.096 602.857 242.6V238.64C602.857 238.144 602.729 237.764 602.473 237.5C602.225 237.228 601.865 237.092 601.393 237.092C600.929 237.092 600.569 237.228 600.313 237.5C600.057 237.764 599.929 238.144 599.929 238.64V242.6C599.929 243.096 600.057 243.48 600.313 243.752C600.569 244.016 600.929 244.148 601.393 244.148ZM606.092 245V236.24H608.912C609.456 236.24 609.928 236.348 610.328 236.564C610.728 236.772 611.036 237.068 611.252 237.452C611.476 237.836 611.588 238.292 611.588 238.82C611.588 239.34 611.476 239.796 611.252 240.188C611.036 240.572 610.728 240.872 610.328 241.088C609.928 241.296 609.456 241.4 608.912 241.4H607.172V245H606.092ZM607.172 240.428H608.912C609.384 240.428 609.76 240.284 610.04 239.996C610.328 239.7 610.472 239.308 610.472 238.82C610.472 238.324 610.328 237.932 610.04 237.644C609.76 237.356 609.384 237.212 608.912 237.212H607.172V240.428Z" fill="black"/>
<path d="M703.819 217.12C703.291 217.12 702.835 217.02 702.451 216.82C702.075 216.62 701.783 216.332 701.575 215.956C701.375 215.572 701.275 215.12 701.275 214.6V210.64C701.275 210.112 701.375 209.66 701.575 209.284C701.783 208.908 702.075 208.62 702.451 208.42C702.835 208.22 703.291 208.12 703.819 208.12C704.347 208.12 704.799 208.22 705.175 208.42C705.559 208.62 705.851 208.908 706.051 209.284C706.259 209.66 706.363 210.108 706.363 210.628V214.6C706.363 215.12 706.259 215.572 706.051 215.956C705.851 216.332 705.559 216.62 705.175 216.82C704.799 217.02 704.347 217.12 703.819 217.12ZM703.819 216.148C704.291 216.148 704.651 216.016 704.899 215.752C705.155 215.48 705.283 215.096 705.283 214.6V210.64C705.283 210.144 705.155 209.764 704.899 209.5C704.651 209.228 704.291 209.092 703.819 209.092C703.355 209.092 702.995 209.228 702.739 209.5C702.483 209.764 702.355 210.144 702.355 210.64V214.6C702.355 215.096 702.483 215.48 702.739 215.752C702.995 216.016 703.355 216.148 703.819 216.148ZM708.494 217V208.24H709.934L712.61 215.74C712.594 215.54 712.574 215.296 712.55 215.008C712.534 214.712 712.518 214.404 712.502 214.084C712.494 213.756 712.49 213.448 712.49 213.16V208.24H713.534V217H712.094L709.43 209.5C709.446 209.692 709.462 209.936 709.478 210.232C709.494 210.52 709.506 210.828 709.514 211.156C709.53 211.476 709.538 211.784 709.538 212.08V217H708.494ZM715.329 218.2V217.3H721.089V218.2H715.329ZM722.909 217V208.24H725.729C726.273 208.24 726.745 208.348 727.145 208.564C727.545 208.772 727.853 209.068 728.069 209.452C728.293 209.836 728.405 210.292 728.405 210.82C728.405 211.34 728.293 211.796 728.069 212.188C727.853 212.572 727.545 212.872 727.145 213.088C726.745 213.296 726.273 213.4 725.729 213.4H723.989V217H722.909ZM723.989 212.428H725.729C726.201 212.428 726.577 212.284 726.857 211.996C727.145 211.7 727.289 211.308 727.289 210.82C727.289 210.324 727.145 209.932 726.857 209.644C726.577 209.356 726.201 209.212 725.729 209.212H723.989V212.428ZM729.6 217L731.88 208.24H733.332L735.6 217H734.508L733.932 214.672H731.28L730.704 217H729.6ZM731.496 213.76H733.704L733.032 211.06C732.904 210.548 732.804 210.12 732.732 209.776C732.66 209.432 732.616 209.208 732.6 209.104C732.584 209.208 732.54 209.432 732.468 209.776C732.396 210.12 732.296 210.544 732.168 211.048L731.496 213.76ZM739.795 217.12C738.979 217.12 738.355 216.896 737.923 216.448C737.491 215.992 737.275 215.376 737.275 214.6V208.24H738.355V214.6C738.355 215.08 738.471 215.46 738.703 215.74C738.943 216.02 739.307 216.16 739.795 216.16C740.275 216.16 740.635 216.02 740.875 215.74C741.115 215.46 741.235 215.08 741.235 214.6V208.24H742.315V214.6C742.315 215.384 742.099 216 741.667 216.448C741.243 216.896 740.619 217.12 739.795 217.12ZM747.039 217.12C746.463 217.12 745.967 217.024 745.551 216.832C745.143 216.64 744.827 216.364 744.603 216.004C744.379 215.644 744.263 215.216 744.255 214.72H745.335C745.335 215.16 745.483 215.508 745.779 215.764C746.083 216.02 746.503 216.148 747.039 216.148C747.543 216.148 747.935 216.024 748.215 215.776C748.503 215.528 748.647 215.184 748.647 214.744C748.647 214.392 748.551 214.084 748.359 213.82C748.175 213.556 747.907 213.372 747.555 213.268L746.367 212.896C745.767 212.712 745.303 212.404 744.975 211.972C744.655 211.54 744.495 211.032 744.495 210.448C744.495 209.976 744.599 209.568 744.807 209.224C745.023 208.872 745.323 208.6 745.707 208.408C746.091 208.208 746.543 208.108 747.063 208.108C747.831 208.108 748.447 208.324 748.911 208.756C749.375 209.18 749.611 209.748 749.619 210.46H748.539C748.539 210.028 748.407 209.692 748.143 209.452C747.887 209.204 747.523 209.08 747.051 209.08C746.587 209.08 746.223 209.192 745.959 209.416C745.703 209.64 745.575 209.952 745.575 210.352C745.575 210.712 745.671 211.024 745.863 211.288C746.055 211.552 746.331 211.74 746.691 211.852L747.891 212.236C748.475 212.42 748.927 212.732 749.247 213.172C749.567 213.612 749.727 214.128 749.727 214.72C749.727 215.2 749.615 215.62 749.391 215.98C749.167 216.34 748.851 216.62 748.443 216.82C748.043 217.02 747.575 217.12 747.039 217.12ZM751.786 217V208.24H756.826V209.224H752.854V211.936H756.406V212.908H752.854V216.016H756.826V217H751.786Z" fill="black"/>
<path d="M561.819 137.12C561.291 137.12 560.835 137.02 560.451 136.82C560.075 136.62 559.783 136.332 559.575 135.956C559.375 135.572 559.275 135.12 559.275 134.6V130.64C559.275 130.112 559.375 129.66 559.575 129.284C559.783 128.908 560.075 128.62 560.451 128.42C560.835 128.22 561.291 128.12 561.819 128.12C562.347 128.12 562.799 128.22 563.175 128.42C563.559 128.62 563.851 128.908 564.051 129.284C564.259 129.66 564.363 130.108 564.363 130.628V134.6C564.363 135.12 564.259 135.572 564.051 135.956C563.851 136.332 563.559 136.62 563.175 136.82C562.799 137.02 562.347 137.12 561.819 137.12ZM561.819 136.148C562.291 136.148 562.651 136.016 562.899 135.752C563.155 135.48 563.283 135.096 563.283 134.6V130.64C563.283 130.144 563.155 129.764 562.899 129.5C562.651 129.228 562.291 129.092 561.819 129.092C561.355 129.092 560.995 129.228 560.739 129.5C560.483 129.764 560.355 130.144 560.355 130.64V134.6C560.355 135.096 560.483 135.48 560.739 135.752C560.995 136.016 561.355 136.148 561.819 136.148ZM566.494 137V128.24H567.934L570.61 135.74C570.594 135.54 570.574 135.296 570.55 135.008C570.534 134.712 570.518 134.404 570.502 134.084C570.494 133.756 570.49 133.448 570.49 133.16V128.24H571.534V137H570.094L567.43 129.5C567.446 129.692 567.462 129.936 567.478 130.232C567.494 130.52 567.506 130.828 567.514 131.156C567.53 131.476 567.538 131.784 567.538 132.08V137H566.494ZM573.329 138.2V137.3H579.089V138.2H573.329ZM583.453 137.12C582.877 137.12 582.381 137.024 581.965 136.832C581.557 136.64 581.241 136.364 581.017 136.004C580.793 135.644 580.677 135.216 580.669 134.72H581.749C581.749 135.16 581.897 135.508 582.193 135.764C582.497 136.02 582.917 136.148 583.453 136.148C583.957 136.148 584.349 136.024 584.629 135.776C584.917 135.528 585.061 135.184 585.061 134.744C585.061 134.392 584.965 134.084 584.773 133.82C584.589 133.556 584.321 133.372 583.969 133.268L582.781 132.896C582.181 132.712 581.717 132.404 581.389 131.972C581.069 131.54 580.909 131.032 580.909 130.448C580.909 129.976 581.013 129.568 581.221 129.224C581.437 128.872 581.737 128.6 582.121 128.408C582.505 128.208 582.957 128.108 583.477 128.108C584.245 128.108 584.861 128.324 585.325 128.756C585.789 129.18 586.025 129.748 586.033 130.46H584.953C584.953 130.028 584.821 129.692 584.557 129.452C584.301 129.204 583.937 129.08 583.465 129.08C583.001 129.08 582.637 129.192 582.373 129.416C582.117 129.64 581.989 129.952 581.989 130.352C581.989 130.712 582.085 131.024 582.277 131.288C582.469 131.552 582.745 131.74 583.105 131.852L584.305 132.236C584.889 132.42 585.341 132.732 585.661 133.172C585.981 133.612 586.141 134.128 586.141 134.72C586.141 135.2 586.029 135.62 585.805 135.98C585.581 136.34 585.265 136.62 584.857 136.82C584.457 137.02 583.989 137.12 583.453 137.12ZM590.06 137V129.212H587.66V128.228H593.54V129.212H591.14V137H590.06ZM594.795 137L597.075 128.24H598.527L600.795 137H599.703L599.127 134.672H596.475L595.899 137H594.795ZM596.691 133.76H598.899L598.227 131.06C598.099 130.548 597.999 130.12 597.927 129.776C597.855 129.432 597.811 129.208 597.795 129.104C597.779 129.208 597.735 129.432 597.663 129.776C597.591 130.12 597.491 130.544 597.363 131.048L596.691 133.76ZM602.495 137V128.24H605.207C605.727 128.24 606.183 128.348 606.575 128.564C606.967 128.772 607.271 129.064 607.487 129.44C607.703 129.816 607.811 130.256 607.811 130.76C607.811 131.352 607.655 131.86 607.343 132.284C607.039 132.708 606.623 133 606.095 133.16L607.931 137H606.659L604.979 133.28H603.575V137H602.495ZM603.575 132.308H605.207C605.655 132.308 606.015 132.168 606.287 131.888C606.559 131.6 606.695 131.224 606.695 130.76C606.695 130.288 606.559 129.912 606.287 129.632C606.015 129.352 605.655 129.212 605.207 129.212H603.575V132.308ZM611.646 137V129.212H609.246V128.228H615.126V129.212H612.726V137H611.646Z" fill="black"/>
<rect x="313" y="15" width="120" height="66.0901" rx="12" fill="#F2F2F2"/>
<path d="M341.725 51.4246V42.6646H343.993C344.561 42.6646 345.049 42.7726 345.457 42.9886C345.873 43.2046 346.193 43.5086 346.417 43.9006C346.649 44.2926 346.765 44.7566 346.765 45.2926V48.7846C346.765 49.3206 346.649 49.7886 346.417 50.1886C346.193 50.5806 345.873 50.8846 345.457 51.1006C345.049 51.3166 344.561 51.4246 343.993 51.4246H341.725ZM342.805 50.4646H343.993C344.521 50.4646 344.933 50.3166 345.229 50.0206C345.533 49.7246 345.685 49.3126 345.685 48.7846V45.2926C345.685 44.7726 345.533 44.3646 345.229 44.0686C344.933 43.7726 344.521 43.6246 343.993 43.6246H342.805V50.4646ZM349.016 51.4246V42.6646H354.056V43.6486H350.084V46.3606H353.636V47.3326H350.084V50.4406H354.056V51.4246H349.016ZM358.66 51.5446C358.084 51.5446 357.588 51.4486 357.172 51.2566C356.764 51.0646 356.448 50.7886 356.224 50.4286C356 50.0686 355.884 49.6406 355.876 49.1446H356.956C356.956 49.5846 357.104 49.9326 357.4 50.1886C357.704 50.4446 358.124 50.5726 358.66 50.5726C359.164 50.5726 359.556 50.4486 359.836 50.2006C360.124 49.9526 360.268 49.6086 360.268 49.1686C360.268 48.8166 360.172 48.5086 359.98 48.2446C359.796 47.9806 359.528 47.7966 359.176 47.6926L357.988 47.3206C357.388 47.1366 356.924 46.8286 356.596 46.3966C356.276 45.9646 356.116 45.4566 356.116 44.8726C356.116 44.4006 356.22 43.9926 356.428 43.6486C356.644 43.2966 356.944 43.0246 357.328 42.8326C357.712 42.6326 358.164 42.5326 358.684 42.5326C359.452 42.5326 360.068 42.7486 360.532 43.1806C360.996 43.6046 361.232 44.1726 361.24 44.8846H360.16C360.16 44.4526 360.028 44.1166 359.764 43.8766C359.508 43.6286 359.144 43.5046 358.672 43.5046C358.208 43.5046 357.844 43.6166 357.58 43.8406C357.324 44.0646 357.196 44.3766 357.196 44.7766C357.196 45.1366 357.292 45.4486 357.484 45.7126C357.676 45.9766 357.952 46.1646 358.312 46.2766L359.512 46.6606C360.096 46.8446 360.548 47.1566 360.868 47.5966C361.188 48.0366 361.348 48.5526 361.348 49.1446C361.348 49.6246 361.236 50.0446 361.012 50.4046C360.788 50.7646 360.472 51.0446 360.064 51.2446C359.664 51.4446 359.196 51.5446 358.66 51.5446ZM365.267 51.4246V43.6366H362.867V42.6526H368.747V43.6366H366.347V51.4246H365.267ZM370.506 51.4246V42.6646H373.218C373.738 42.6646 374.194 42.7726 374.586 42.9886C374.978 43.1966 375.282 43.4886 375.498 43.8646C375.714 44.2406 375.822 44.6806 375.822 45.1846C375.822 45.7766 375.666 46.2846 375.354 46.7086C375.05 47.1326 374.634 47.4246 374.106 47.5846L375.942 51.4246H374.67L372.99 47.7046H371.586V51.4246H370.506ZM371.586 46.7326H373.218C373.666 46.7326 374.026 46.5926 374.298 46.3126C374.57 46.0246 374.706 45.6486 374.706 45.1846C374.706 44.7126 374.57 44.3366 374.298 44.0566C374.026 43.7766 373.666 43.6366 373.218 43.6366H371.586V46.7326ZM380.198 51.5446C379.67 51.5446 379.214 51.4446 378.83 51.2446C378.454 51.0446 378.162 50.7566 377.954 50.3806C377.754 49.9966 377.654 49.5446 377.654 49.0246V45.0646C377.654 44.5366 377.754 44.0846 377.954 43.7086C378.162 43.3326 378.454 43.0446 378.83 42.8446C379.214 42.6446 379.67 42.5446 380.198 42.5446C380.726 42.5446 381.178 42.6446 381.554 42.8446C381.938 43.0446 382.23 43.3326 382.43 43.7086C382.638 44.0846 382.742 44.5326 382.742 45.0526V49.0246C382.742 49.5446 382.638 49.9966 382.43 50.3806C382.23 50.7566 381.938 51.0446 381.554 51.2446C381.178 51.4446 380.726 51.5446 380.198 51.5446ZM380.198 50.5726C380.67 50.5726 381.03 50.4406 381.278 50.1766C381.534 49.9046 381.662 49.5206 381.662 49.0246V45.0646C381.662 44.5686 381.534 44.1886 381.278 43.9246C381.03 43.6526 380.67 43.5166 380.198 43.5166C379.734 43.5166 379.374 43.6526 379.118 43.9246C378.862 44.1886 378.734 44.5686 378.734 45.0646V49.0246C378.734 49.5206 378.862 49.9046 379.118 50.1766C379.374 50.4406 379.734 50.5726 380.198 50.5726ZM386.853 51.4246V48.1486L384.213 42.6646H385.329L387.069 46.2646C387.165 46.4646 387.241 46.6366 387.297 46.7806C387.353 46.9166 387.389 47.0166 387.405 47.0806C387.421 47.0166 387.457 46.9166 387.513 46.7806C387.577 46.6366 387.657 46.4646 387.753 46.2646L389.457 42.6646H390.573L387.933 48.1486V51.4246H386.853ZM392.188 51.4246V42.6646H397.228V43.6486H393.256V46.3606H396.808V47.3326H393.256V50.4406H397.228V51.4246H392.188ZM399.288 51.4246V42.6646H401.556C402.124 42.6646 402.612 42.7726 403.02 42.9886C403.436 43.2046 403.756 43.5086 403.98 43.9006C404.212 44.2926 404.328 44.7566 404.328 45.2926V48.7846C404.328 49.3206 404.212 49.7886 403.98 50.1886C403.756 50.5806 403.436 50.8846 403.02 51.1006C402.612 51.3166 402.124 51.4246 401.556 51.4246H399.288ZM400.368 50.4646H401.556C402.084 50.4646 402.496 50.3166 402.792 50.0206C403.096 49.7246 403.248 49.3126 403.248 48.7846V45.2926C403.248 44.7726 403.096 44.3646 402.792 44.0686C402.496 43.7726 402.084 43.6246 401.556 43.6246H400.368V50.4646Z" fill="black"/>
<rect x="456" y="15" width="120" height="66.0901" rx="12" fill="#F2F2F2"/>
<path d="M494.464 51.5446C493.936 51.5446 493.476 51.4446 493.084 51.2446C492.7 51.0446 492.4 50.7566 492.184 50.3806C491.976 49.9966 491.872 49.5446 491.872 49.0246V45.0646C491.872 44.5366 491.976 44.0846 492.184 43.7086C492.4 43.3326 492.7 43.0446 493.084 42.8446C493.476 42.6446 493.936 42.5446 494.464 42.5446C494.992 42.5446 495.448 42.6486 495.832 42.8566C496.216 43.0566 496.512 43.3446 496.72 43.7206C496.928 44.0966 497.032 44.5446 497.032 45.0646H495.952C495.952 44.5686 495.82 44.1886 495.556 43.9246C495.3 43.6526 494.936 43.5166 494.464 43.5166C493.992 43.5166 493.62 43.6486 493.348 43.9126C493.084 44.1766 492.952 44.5566 492.952 45.0526V49.0246C492.952 49.5206 493.084 49.9046 493.348 50.1766C493.62 50.4406 493.992 50.5726 494.464 50.5726C494.936 50.5726 495.3 50.4406 495.556 50.1766C495.82 49.9046 495.952 49.5206 495.952 49.0246H497.032C497.032 49.5366 496.928 49.9846 496.72 50.3686C496.512 50.7446 496.216 51.0366 495.832 51.2446C495.448 51.4446 494.992 51.5446 494.464 51.5446ZM499.116 51.4246V42.6646H501.828C502.348 42.6646 502.804 42.7726 503.196 42.9886C503.588 43.1966 503.892 43.4886 504.108 43.8646C504.324 44.2406 504.432 44.6806 504.432 45.1846C504.432 45.7766 504.276 46.2846 503.964 46.7086C503.66 47.1326 503.244 47.4246 502.716 47.5846L504.552 51.4246H503.28L501.6 47.7046H500.196V51.4246H499.116ZM500.196 46.7326H501.828C502.276 46.7326 502.636 46.5926 502.908 46.3126C503.18 46.0246 503.316 45.6486 503.316 45.1846C503.316 44.7126 503.18 44.3366 502.908 44.0566C502.636 43.7766 502.276 43.6366 501.828 43.6366H500.196V46.7326ZM506.407 51.4246V42.6646H511.447V43.6486H507.475V46.3606H511.027V47.3326H507.475V50.4406H511.447V51.4246H506.407ZM513.002 51.4246L515.282 42.6646H516.734L519.002 51.4246H517.91L517.334 49.0966H514.682L514.106 51.4246H513.002ZM514.898 48.1846H517.106L516.434 45.4846C516.306 44.9726 516.206 44.5446 516.134 44.2006C516.062 43.8566 516.018 43.6326 516.002 43.5286C515.986 43.6326 515.942 43.8566 515.87 44.2006C515.798 44.5446 515.698 44.9686 515.57 45.4726L514.898 48.1846ZM522.658 51.4246V43.6366H520.258V42.6526H526.138V43.6366H523.738V51.4246H522.658ZM527.993 51.4246V42.6646H533.033V43.6486H529.061V46.3606H532.613V47.3326H529.061V50.4406H533.033V51.4246H527.993ZM535.092 51.4246V42.6646H537.36C537.928 42.6646 538.416 42.7726 538.824 42.9886C539.24 43.2046 539.56 43.5086 539.784 43.9006C540.016 44.2926 540.132 44.7566 540.132 45.2926V48.7846C540.132 49.3206 540.016 49.7886 539.784 50.1886C539.56 50.5806 539.24 50.8846 538.824 51.1006C538.416 51.3166 537.928 51.4246 537.36 51.4246H535.092ZM536.172 50.4646H537.36C537.888 50.4646 538.3 50.3166 538.596 50.0206C538.9 49.7246 539.052 49.3126 539.052 48.7846V45.2926C539.052 44.7726 538.9 44.3646 538.596 44.0686C538.3 43.7726 537.888 43.6246 537.36 43.6246H536.172V50.4646Z" fill="black"/>
<rect x="599" y="15" width="120" height="66.0901" rx="12" fill="#F2F2F2"/>
<path d="M637.464 51.5446C636.888 51.5446 636.392 51.4486 635.976 51.2566C635.568 51.0646 635.252 50.7886 635.028 50.4286C634.804 50.0686 634.688 49.6406 634.68 49.1446H635.76C635.76 49.5846 635.908 49.9326 636.204 50.1886C636.508 50.4446 636.928 50.5726 637.464 50.5726C637.968 50.5726 638.36 50.4486 638.64 50.2006C638.928 49.9526 639.072 49.6086 639.072 49.1686C639.072 48.8166 638.976 48.5086 638.784 48.2446C638.6 47.9806 638.332 47.7966 637.98 47.6926L636.792 47.3206C636.192 47.1366 635.728 46.8286 635.4 46.3966C635.08 45.9646 634.92 45.4566 634.92 44.8726C634.92 44.4006 635.024 43.9926 635.232 43.6486C635.448 43.2966 635.748 43.0246 636.132 42.8326C636.516 42.6326 636.968 42.5326 637.488 42.5326C638.256 42.5326 638.872 42.7486 639.336 43.1806C639.8 43.6046 640.036 44.1726 640.044 44.8846H638.964C638.964 44.4526 638.832 44.1166 638.568 43.8766C638.312 43.6286 637.948 43.5046 637.476 43.5046C637.012 43.5046 636.648 43.6166 636.384 43.8406C636.128 44.0646 636 44.3766 636 44.7766C636 45.1366 636.096 45.4486 636.288 45.7126C636.48 45.9766 636.756 46.1646 637.116 46.2766L638.316 46.6606C638.9 46.8446 639.352 47.1566 639.672 47.5966C639.992 48.0366 640.152 48.5526 640.152 49.1446C640.152 49.6246 640.04 50.0446 639.816 50.4046C639.592 50.7646 639.276 51.0446 638.868 51.2446C638.468 51.4446 638 51.5446 637.464 51.5446ZM644.072 51.4246V43.6366H641.672V42.6526H647.552V43.6366H645.152V51.4246H644.072ZM648.807 51.4246L651.087 42.6646H652.539L654.807 51.4246H653.715L653.139 49.0966H650.487L649.911 51.4246H648.807ZM650.703 48.1846H652.911L652.239 45.4846C652.111 44.9726 652.011 44.5446 651.939 44.2006C651.867 43.8566 651.823 43.6326 651.807 43.5286C651.791 43.6326 651.747 43.8566 651.675 44.2006C651.603 44.5446 651.503 44.9686 651.375 45.4726L650.703 48.1846ZM656.506 51.4246V42.6646H659.218C659.738 42.6646 660.194 42.7726 660.586 42.9886C660.978 43.1966 661.282 43.4886 661.498 43.8646C661.714 44.2406 661.822 44.6806 661.822 45.1846C661.822 45.7766 661.666 46.2846 661.354 46.7086C661.05 47.1326 660.634 47.4246 660.106 47.5846L661.942 51.4246H660.67L658.99 47.7046H657.586V51.4246H656.506ZM657.586 46.7326H659.218C659.666 46.7326 660.026 46.5926 660.298 46.3126C660.57 46.0246 660.706 45.6486 660.706 45.1846C660.706 44.7126 660.57 44.3366 660.298 44.0566C660.026 43.7766 659.666 43.6366 659.218 43.6366H657.586V46.7326ZM665.658 51.4246V43.6366H663.258V42.6526H669.138V43.6366H666.738V51.4246H665.658ZM670.993 51.4246V42.6646H676.033V43.6486H672.061V46.3606H675.613V47.3326H672.061V50.4406H676.033V51.4246H670.993ZM678.092 51.4246V42.6646H680.36C680.928 42.6646 681.416 42.7726 681.824 42.9886C682.24 43.2046 682.56 43.5086 682.784 43.9006C683.016 44.2926 683.132 44.7566 683.132 45.2926V48.7846C683.132 49.3206 683.016 49.7886 682.784 50.1886C682.56 50.5806 682.24 50.8846 681.824 51.1006C681.416 51.3166 680.928 51.4246 680.36 51.4246H678.092ZM679.172 50.4646H680.36C680.888 50.4646 681.3 50.3166 681.596 50.0206C681.9 49.7246 682.052 49.3126 682.052 48.7846V45.2926C682.052 44.7726 681.9 44.3646 681.596 44.0686C681.3 43.7726 680.888 43.6246 680.36 43.6246H679.172V50.4646Z" fill="black"/>
<rect x="742" y="15" width="120" height="66.0901" rx="12" fill="#F2F2F2"/>
<path d="M777.92 51.4246V42.6646H780.632C781.152 42.6646 781.608 42.7726 782 42.9886C782.392 43.1966 782.696 43.4886 782.912 43.8646C783.128 44.2406 783.236 44.6806 783.236 45.1846C783.236 45.7766 783.08 46.2846 782.768 46.7086C782.464 47.1326 782.048 47.4246 781.52 47.5846L783.356 51.4246H782.084L780.404 47.7046H779V51.4246H777.92ZM779 46.7326H780.632C781.08 46.7326 781.44 46.5926 781.712 46.3126C781.984 46.0246 782.12 45.6486 782.12 45.1846C782.12 44.7126 781.984 44.3366 781.712 44.0566C781.44 43.7766 781.08 43.6366 780.632 43.6366H779V46.7326ZM785.212 51.4246V42.6646H790.252V43.6486H786.28V46.3606H789.832V47.3326H786.28V50.4406H790.252V51.4246H785.212ZM794.855 51.5446C794.279 51.5446 793.783 51.4486 793.367 51.2566C792.959 51.0646 792.643 50.7886 792.419 50.4286C792.195 50.0686 792.079 49.6406 792.071 49.1446H793.151C793.151 49.5846 793.299 49.9326 793.595 50.1886C793.899 50.4446 794.319 50.5726 794.855 50.5726C795.359 50.5726 795.751 50.4486 796.031 50.2006C796.319 49.9526 796.463 49.6086 796.463 49.1686C796.463 48.8166 796.367 48.5086 796.175 48.2446C795.991 47.9806 795.723 47.7966 795.371 47.6926L794.183 47.3206C793.583 47.1366 793.119 46.8286 792.791 46.3966C792.471 45.9646 792.311 45.4566 792.311 44.8726C792.311 44.4006 792.415 43.9926 792.623 43.6486C792.839 43.2966 793.139 43.0246 793.523 42.8326C793.907 42.6326 794.359 42.5326 794.879 42.5326C795.647 42.5326 796.263 42.7486 796.727 43.1806C797.191 43.6046 797.427 44.1726 797.435 44.8846H796.355C796.355 44.4526 796.223 44.1166 795.959 43.8766C795.703 43.6286 795.339 43.5046 794.867 43.5046C794.403 43.5046 794.039 43.6166 793.775 43.8406C793.519 44.0646 793.391 44.3766 793.391 44.7766C793.391 45.1366 793.487 45.4486 793.679 45.7126C793.871 45.9766 794.147 46.1646 794.507 46.2766L795.707 46.6606C796.291 46.8446 796.743 47.1566 797.063 47.5966C797.383 48.0366 797.543 48.5526 797.543 49.1446C797.543 49.6246 797.431 50.0446 797.207 50.4046C796.983 50.7646 796.667 51.0446 796.259 51.2446C795.859 51.4446 795.391 51.5446 794.855 51.5446ZM802.002 51.5446C801.186 51.5446 800.562 51.3206 800.13 50.8726C799.698 50.4166 799.482 49.8006 799.482 49.0246V42.6646H800.562V49.0246C800.562 49.5046 800.678 49.8846 800.91 50.1646C801.15 50.4446 801.514 50.5846 802.002 50.5846C802.482 50.5846 802.842 50.4446 803.082 50.1646C803.322 49.8846 803.442 49.5046 803.442 49.0246V42.6646H804.522V49.0246C804.522 49.8086 804.306 50.4246 803.874 50.8726C803.45 51.3206 802.826 51.5446 802.002 51.5446ZM806.51 51.4246V42.6646H807.926L808.838 45.4966C808.926 45.7526 809.006 46.0086 809.078 46.2646C809.15 46.5126 809.202 46.7046 809.234 46.8406C809.274 46.7046 809.326 46.5126 809.39 46.2646C809.454 46.0086 809.526 45.7486 809.606 45.4846L810.47 42.6646H811.886V51.4246H810.83V48.2446C810.83 47.8926 810.842 47.4926 810.866 47.0446C810.89 46.5966 810.922 46.1406 810.962 45.6766C811.002 45.2046 811.042 44.7566 811.082 44.3326C811.13 43.9006 811.17 43.5246 811.202 43.2046L809.786 47.5846H808.646L807.218 43.2046C807.258 43.5166 807.298 43.8806 807.338 44.2966C807.378 44.7046 807.414 45.1406 807.446 45.6046C807.478 46.0606 807.506 46.5166 807.53 46.9726C807.554 47.4286 807.566 47.8526 807.566 48.2446V51.4246H806.51ZM813.993 51.4246V42.6646H819.033V43.6486H815.061V46.3606H818.613V47.3326H815.061V50.4406H819.033V51.4246H813.993ZM821.092 51.4246V42.6646H823.36C823.928 42.6646 824.416 42.7726 824.824 42.9886C825.24 43.2046 825.56 43.5086 825.784 43.9006C826.016 44.2926 826.132 44.7566 826.132 45.2926V48.7846C826.132 49.3206 826.016 49.7886 825.784 50.1886C825.56 50.5806 825.24 50.8846 824.824 51.1006C824.416 51.3166 823.928 51.4246 823.36 51.4246H821.092ZM822.172 50.4646H823.36C823.888 50.4646 824.3 50.3166 824.596 50.0206C824.9 49.7246 825.052 49.3126 825.052 48.7846V45.2926C825.052 44.7726 824.9 44.3646 824.596 44.0686C824.3 43.7726 823.888 43.6246 823.36 43.6246H822.172V50.4646Z" fill="black"/>
<path d="M28.6241 350.24C27.4721 350.24 26.4801 350.048 25.6481 349.664C24.8321 349.28 24.2001 348.728 23.7521 348.008C23.3041 347.288 23.0721 346.432 23.0561 345.44H25.2161C25.2161 346.32 25.5121 347.016 26.1041 347.528C26.7121 348.04 27.5521 348.296 28.6241 348.296C29.6321 348.296 30.4161 348.048 30.9761 347.552C31.5521 347.056 31.8401 346.368 31.8401 345.488C31.8401 344.784 31.6481 344.168 31.2641 343.64C30.8961 343.112 30.3601 342.744 29.6561 342.536L27.2801 341.792C26.0801 341.424 25.1521 340.808 24.4961 339.944C23.8561 339.08 23.5361 338.064 23.5361 336.896C23.5361 335.952 23.7441 335.136 24.1601 334.448C24.5921 333.744 25.1921 333.2 25.9601 332.816C26.7281 332.416 27.6321 332.216 28.6721 332.216C30.2081 332.216 31.4401 332.648 32.3681 333.512C33.2961 334.36 33.7681 335.496 33.7841 336.92H31.6241C31.6241 336.056 31.3601 335.384 30.8321 334.904C30.3201 334.408 29.5921 334.16 28.6481 334.16C27.7201 334.16 26.9921 334.384 26.4641 334.832C25.9521 335.28 25.6961 335.904 25.6961 336.704C25.6961 337.424 25.8881 338.048 26.2721 338.576C26.6561 339.104 27.2081 339.48 27.9281 339.704L30.3281 340.472C31.4961 340.84 32.4001 341.464 33.0401 342.344C33.6801 343.224 34.0001 344.256 34.0001 345.44C34.0001 346.4 33.7761 347.24 33.3281 347.96C32.8801 348.68 32.2481 349.24 31.4321 349.64C30.6321 350.04 29.6961 350.24 28.6241 350.24ZM44.3588 350C43.2228 350 42.3348 349.696 41.6948 349.088C41.0708 348.48 40.7588 347.624 40.7588 346.52V338.768H37.0388V336.8H40.7588V333.08H42.9188V336.8H48.1988V338.768H42.9188V346.52C42.9188 347.528 43.3988 348.032 44.3588 348.032H47.9588V350H44.3588ZM56.1574 350.24C54.7654 350.24 53.6694 349.888 52.8694 349.184C52.0694 348.464 51.6694 347.496 51.6694 346.28C51.6694 345.048 52.0694 344.08 52.8694 343.376C53.6694 342.672 54.7494 342.32 56.1094 342.32H60.1894V341C60.1894 340.184 59.9414 339.56 59.4454 339.128C58.9654 338.68 58.2774 338.456 57.3814 338.456C56.5974 338.456 55.9414 338.624 55.4134 338.96C54.8854 339.28 54.5814 339.72 54.5014 340.28H52.3414C52.4854 339.144 53.0214 338.24 53.9494 337.568C54.8774 336.896 56.0374 336.56 57.4294 336.56C58.9494 336.56 60.1494 336.952 61.0294 337.736C61.9094 338.52 62.3494 339.584 62.3494 340.928V350H60.2374V347.48H59.8774L60.2374 347.12C60.2374 348.08 59.8614 348.84 59.1094 349.4C58.3734 349.96 57.3894 350.24 56.1574 350.24ZM56.6854 348.536C57.7094 348.536 58.5494 348.28 59.2054 347.768C59.8614 347.256 60.1894 346.6 60.1894 345.8V343.928H56.1574C55.4374 343.928 54.8694 344.128 54.4534 344.528C54.0374 344.928 53.8294 345.472 53.8294 346.16C53.8294 346.896 54.0774 347.48 54.5734 347.912C55.0854 348.328 55.7894 348.536 56.6854 348.536ZM73.14 350C72.004 350 71.116 349.696 70.476 349.088C69.852 348.48 69.54 347.624 69.54 346.52V338.768H65.82V336.8H69.54V333.08H71.7V336.8H76.98V338.768H71.7V346.52C71.7 347.528 72.18 348.032 73.14 348.032H76.74V350H73.14ZM86.0906 350.24C85.0506 350.24 84.1386 350.032 83.3546 349.616C82.5866 349.2 81.9866 348.616 81.5546 347.864C81.1386 347.096 80.9306 346.208 80.9306 345.2V341.6C80.9306 340.576 81.1386 339.688 81.5546 338.936C81.9866 338.184 82.5866 337.6 83.3546 337.184C84.1386 336.768 85.0506 336.56 86.0906 336.56C87.1306 336.56 88.0346 336.768 88.8026 337.184C89.5866 337.6 90.1866 338.184 90.6026 338.936C91.0346 339.688 91.2506 340.576 91.2506 341.6V343.928H83.0426V345.2C83.0426 346.24 83.3066 347.04 83.8346 347.6C84.3626 348.144 85.1146 348.416 86.0906 348.416C86.9226 348.416 87.5946 348.272 88.1066 347.984C88.6186 347.68 88.9306 347.232 89.0426 346.64H91.2026C91.0586 347.744 90.5146 348.624 89.5706 349.28C88.6426 349.92 87.4826 350.24 86.0906 350.24ZM89.1386 342.488V341.6C89.1386 340.56 88.8746 339.76 88.3466 339.2C87.8346 338.64 87.0826 338.36 86.0906 338.36C85.1146 338.36 84.3626 338.64 83.8346 339.2C83.3066 339.76 83.0426 340.56 83.0426 341.6V342.296H89.3066L89.1386 342.488ZM100.073 350.192C99.1773 350.192 98.3933 350.056 97.7213 349.784C97.0653 349.496 96.5373 349.096 96.1373 348.584C95.7533 348.072 95.5213 347.464 95.4413 346.76H97.6013C97.6973 347.224 97.9533 347.592 98.3693 347.864C98.8013 348.136 99.3693 348.272 100.073 348.272H101.081C101.929 348.272 102.561 348.104 102.977 347.768C103.393 347.416 103.601 346.952 103.601 346.376C103.601 345.816 103.409 345.376 103.025 345.056C102.657 344.72 102.105 344.496 101.369 344.384L99.5933 344.096C98.2973 343.872 97.3293 343.472 96.6893 342.896C96.0653 342.304 95.7533 341.448 95.7533 340.328C95.7533 339.144 96.1293 338.232 96.8813 337.592C97.6333 336.936 98.7613 336.608 100.265 336.608H101.177C102.441 336.608 103.457 336.904 104.225 337.496C104.993 338.088 105.457 338.888 105.617 339.896H103.457C103.361 339.48 103.121 339.152 102.737 338.912C102.353 338.656 101.833 338.528 101.177 338.528H100.265C99.4493 338.528 98.8493 338.68 98.4653 338.984C98.0973 339.288 97.9133 339.744 97.9133 340.352C97.9133 340.896 98.0733 341.296 98.3933 341.552C98.7133 341.808 99.2173 341.992 99.9053 342.104L101.681 342.392C103.105 342.616 104.137 343.032 104.777 343.64C105.433 344.248 105.761 345.128 105.761 346.28C105.761 347.496 105.369 348.456 104.585 349.16C103.817 349.848 102.649 350.192 101.081 350.192H100.073Z" fill="#595959"/>
<rect x="170" y="309" width="120" height="66.0901" rx="12" fill="#F2F2F2"/>
<path d="M191.686 345.425V344.441H193.474V337.649H191.686V336.665H196.366V337.649H194.578V344.441H196.366V345.425H191.686ZM198.701 345.425V336.665H200.141L202.817 344.165C202.801 343.965 202.781 343.721 202.757 343.433C202.741 343.137 202.725 342.829 202.709 342.509C202.701 342.181 202.697 341.873 202.697 341.585V336.665H203.741V345.425H202.301L199.637 337.925C199.653 338.117 199.669 338.361 199.685 338.657C199.701 338.945 199.713 339.253 199.721 339.581C199.737 339.901 199.745 340.209 199.745 340.505V345.425H198.701ZM206.076 345.425V344.441H207.864V337.649H206.076V336.665H210.756V337.649H208.968V344.441H210.756V345.425H206.076ZM215.072 345.425V337.637H212.672V336.653H218.552V337.637H216.152V345.425H215.072ZM220.467 345.425V344.441H222.255V337.649H220.467V336.665H225.147V337.649H223.359V344.441H225.147V345.425H220.467ZM227.002 345.425L229.282 336.665H230.734L233.002 345.425H231.91L231.334 343.097H228.682L228.106 345.425H227.002ZM228.898 342.185H231.106L230.434 339.485C230.306 338.973 230.206 338.545 230.134 338.201C230.062 337.857 230.018 337.633 230.002 337.529C229.986 337.633 229.942 337.857 229.87 338.201C229.798 338.545 229.698 338.969 229.57 339.473L228.898 342.185ZM234.978 345.425V336.665H236.058V344.441H240.018V345.425H234.978ZM242.053 345.425V344.441H243.841V337.649H242.053V336.665H246.733V337.649H244.945V344.441H246.733V345.425H242.053ZM249.008 345.425V344.345L252.956 337.649H249.068V336.665H254.048V337.745L250.1 344.441H254.168V345.425H249.008ZM256.384 345.425V336.665H261.424V337.649H257.452V340.361H261.004V341.333H257.452V344.441H261.424V345.425H256.384ZM263.483 345.425V336.665H265.751C266.319 336.665 266.807 336.773 267.215 336.989C267.631 337.205 267.951 337.509 268.175 337.901C268.407 338.293 268.523 338.757 268.523 339.293V342.785C268.523 343.321 268.407 343.789 268.175 344.189C267.951 344.581 267.631 344.885 267.215 345.101C266.807 345.317 266.319 345.425 265.751 345.425H263.483ZM264.563 344.465H265.751C266.279 344.465 266.691 344.317 266.987 344.021C267.291 343.725 267.443 343.313 267.443 342.785V339.293C267.443 338.773 267.291 338.365 266.987 338.069C266.691 337.773 266.279 337.625 265.751 337.625H264.563V344.465Z" fill="black"/>
<rect x="313" y="309" width="120" height="66.0901" rx="12" fill="#F2F2F2"/>
<path d="M341.725 345.425V336.665H343.993C344.561 336.665 345.049 336.773 345.457 336.989C345.873 337.205 346.193 337.509 346.417 337.901C346.649 338.293 346.765 338.757 346.765 339.293V342.785C346.765 343.321 346.649 343.789 346.417 344.189C346.193 344.581 345.873 344.885 345.457 345.101C345.049 345.317 344.561 345.425 343.993 345.425H341.725ZM342.805 344.465H343.993C344.521 344.465 344.933 344.317 345.229 344.021C345.533 343.725 345.685 343.313 345.685 342.785V339.293C345.685 338.773 345.533 338.365 345.229 338.069C344.933 337.773 344.521 337.625 343.993 337.625H342.805V344.465ZM349.016 345.425V336.665H354.056V337.649H350.084V340.361H353.636V341.333H350.084V344.441H354.056V345.425H349.016ZM358.66 345.545C358.084 345.545 357.588 345.449 357.172 345.257C356.764 345.065 356.448 344.789 356.224 344.429C356 344.069 355.884 343.641 355.876 343.145H356.956C356.956 343.585 357.104 343.933 357.4 344.189C357.704 344.445 358.124 344.573 358.66 344.573C359.164 344.573 359.556 344.449 359.836 344.201C360.124 343.953 360.268 343.609 360.268 343.169C360.268 342.817 360.172 342.509 359.98 342.245C359.796 341.981 359.528 341.797 359.176 341.693L357.988 341.321C357.388 341.137 356.924 340.829 356.596 340.397C356.276 339.965 356.116 339.457 356.116 338.873C356.116 338.401 356.22 337.993 356.428 337.649C356.644 337.297 356.944 337.025 357.328 336.833C357.712 336.633 358.164 336.533 358.684 336.533C359.452 336.533 360.068 336.749 360.532 337.181C360.996 337.605 361.232 338.173 361.24 338.885H360.16C360.16 338.453 360.028 338.117 359.764 337.877C359.508 337.629 359.144 337.505 358.672 337.505C358.208 337.505 357.844 337.617 357.58 337.841C357.324 338.065 357.196 338.377 357.196 338.777C357.196 339.137 357.292 339.449 357.484 339.713C357.676 339.977 357.952 340.165 358.312 340.277L359.512 340.661C360.096 340.845 360.548 341.157 360.868 341.597C361.188 342.037 361.348 342.553 361.348 343.145C361.348 343.625 361.236 344.045 361.012 344.405C360.788 344.765 360.472 345.045 360.064 345.245C359.664 345.445 359.196 345.545 358.66 345.545ZM365.267 345.425V337.637H362.867V336.653H368.747V337.637H366.347V345.425H365.267ZM370.506 345.425V336.665H373.218C373.738 336.665 374.194 336.773 374.586 336.989C374.978 337.197 375.282 337.489 375.498 337.865C375.714 338.241 375.822 338.681 375.822 339.185C375.822 339.777 375.666 340.285 375.354 340.709C375.05 341.133 374.634 341.425 374.106 341.585L375.942 345.425H374.67L372.99 341.705H371.586V345.425H370.506ZM371.586 340.733H373.218C373.666 340.733 374.026 340.593 374.298 340.313C374.57 340.025 374.706 339.649 374.706 339.185C374.706 338.713 374.57 338.337 374.298 338.057C374.026 337.777 373.666 337.637 373.218 337.637H371.586V340.733ZM380.198 345.545C379.67 345.545 379.214 345.445 378.83 345.245C378.454 345.045 378.162 344.757 377.954 344.381C377.754 343.997 377.654 343.545 377.654 343.025V339.065C377.654 338.537 377.754 338.085 377.954 337.709C378.162 337.333 378.454 337.045 378.83 336.845C379.214 336.645 379.67 336.545 380.198 336.545C380.726 336.545 381.178 336.645 381.554 336.845C381.938 337.045 382.23 337.333 382.43 337.709C382.638 338.085 382.742 338.533 382.742 339.053V343.025C382.742 343.545 382.638 343.997 382.43 344.381C382.23 344.757 381.938 345.045 381.554 345.245C381.178 345.445 380.726 345.545 380.198 345.545ZM380.198 344.573C380.67 344.573 381.03 344.441 381.278 344.177C381.534 343.905 381.662 343.521 381.662 343.025V339.065C381.662 338.569 381.534 338.189 381.278 337.925C381.03 337.653 380.67 337.517 380.198 337.517C379.734 337.517 379.374 337.653 379.118 337.925C378.862 338.189 378.734 338.569 378.734 339.065V343.025C378.734 343.521 378.862 343.905 379.118 344.177C379.374 344.441 379.734 344.573 380.198 344.573ZM386.853 345.425V342.149L384.213 336.665H385.329L387.069 340.265C387.165 340.465 387.241 340.637 387.297 340.781C387.353 340.917 387.389 341.017 387.405 341.081C387.421 341.017 387.457 340.917 387.513 340.781C387.577 340.637 387.657 340.465 387.753 340.265L389.457 336.665H390.573L387.933 342.149V345.425H386.853ZM392.188 345.425V336.665H397.228V337.649H393.256V340.361H396.808V341.333H393.256V344.441H397.228V345.425H392.188ZM399.288 345.425V336.665H401.556C402.124 336.665 402.612 336.773 403.02 336.989C403.436 337.205 403.756 337.509 403.98 337.901C404.212 338.293 404.328 338.757 404.328 339.293V342.785C404.328 343.321 404.212 343.789 403.98 344.189C403.756 344.581 403.436 344.885 403.02 345.101C402.612 345.317 402.124 345.425 401.556 345.425H399.288ZM400.368 344.465H401.556C402.084 344.465 402.496 344.317 402.792 344.021C403.096 343.725 403.248 343.313 403.248 342.785V339.293C403.248 338.773 403.096 338.365 402.792 338.069C402.496 337.773 402.084 337.625 401.556 337.625H400.368V344.465Z" fill="black"/>
<rect x="456" y="309" width="120" height="66.0901" rx="12" fill="#F2F2F2"/>
<path d="M494.464 345.545C493.936 345.545 493.476 345.445 493.084 345.245C492.7 345.045 492.4 344.757 492.184 344.381C491.976 343.997 491.872 343.545 491.872 343.025V339.065C491.872 338.537 491.976 338.085 492.184 337.709C492.4 337.333 492.7 337.045 493.084 336.845C493.476 336.645 493.936 336.545 494.464 336.545C494.992 336.545 495.448 336.649 495.832 336.857C496.216 337.057 496.512 337.345 496.72 337.721C496.928 338.097 497.032 338.545 497.032 339.065H495.952C495.952 338.569 495.82 338.189 495.556 337.925C495.3 337.653 494.936 337.517 494.464 337.517C493.992 337.517 493.62 337.649 493.348 337.913C493.084 338.177 492.952 338.557 492.952 339.053V343.025C492.952 343.521 493.084 343.905 493.348 344.177C493.62 344.441 493.992 344.573 494.464 344.573C494.936 344.573 495.3 344.441 495.556 344.177C495.82 343.905 495.952 343.521 495.952 343.025H497.032C497.032 343.537 496.928 343.985 496.72 344.369C496.512 344.745 496.216 345.037 495.832 345.245C495.448 345.445 494.992 345.545 494.464 345.545ZM499.116 345.425V336.665H501.828C502.348 336.665 502.804 336.773 503.196 336.989C503.588 337.197 503.892 337.489 504.108 337.865C504.324 338.241 504.432 338.681 504.432 339.185C504.432 339.777 504.276 340.285 503.964 340.709C503.66 341.133 503.244 341.425 502.716 341.585L504.552 345.425H503.28L501.6 341.705H500.196V345.425H499.116ZM500.196 340.733H501.828C502.276 340.733 502.636 340.593 502.908 340.313C503.18 340.025 503.316 339.649 503.316 339.185C503.316 338.713 503.18 338.337 502.908 338.057C502.636 337.777 502.276 337.637 501.828 337.637H500.196V340.733ZM506.407 345.425V336.665H511.447V337.649H507.475V340.361H511.027V341.333H507.475V344.441H511.447V345.425H506.407ZM513.002 345.425L515.282 336.665H516.734L519.002 345.425H517.91L517.334 343.097H514.682L514.106 345.425H513.002ZM514.898 342.185H517.106L516.434 339.485C516.306 338.973 516.206 338.545 516.134 338.201C516.062 337.857 516.018 337.633 516.002 337.529C515.986 337.633 515.942 337.857 515.87 338.201C515.798 338.545 515.698 338.969 515.57 339.473L514.898 342.185ZM522.658 345.425V337.637H520.258V336.653H526.138V337.637H523.738V345.425H522.658ZM527.993 345.425V336.665H533.033V337.649H529.061V340.361H532.613V341.333H529.061V344.441H533.033V345.425H527.993ZM535.092 345.425V336.665H537.36C537.928 336.665 538.416 336.773 538.824 336.989C539.24 337.205 539.56 337.509 539.784 337.901C540.016 338.293 540.132 338.757 540.132 339.293V342.785C540.132 343.321 540.016 343.789 539.784 344.189C539.56 344.581 539.24 344.885 538.824 345.101C538.416 345.317 537.928 345.425 537.36 345.425H535.092ZM536.172 344.465H537.36C537.888 344.465 538.3 344.317 538.596 344.021C538.9 343.725 539.052 343.313 539.052 342.785V339.293C539.052 338.773 538.9 338.365 538.596 338.069C538.3 337.773 537.888 337.625 537.36 337.625H536.172V344.465Z" fill="black"/>
<rect x="599" y="309" width="120" height="66.0901" rx="12" fill="#F2F2F2"/>
<path d="M637.464 345.545C636.888 345.545 636.392 345.449 635.976 345.257C635.568 345.065 635.252 344.789 635.028 344.429C634.804 344.069 634.688 343.641 634.68 343.145H635.76C635.76 343.585 635.908 343.933 636.204 344.189C636.508 344.445 636.928 344.573 637.464 344.573C637.968 344.573 638.36 344.449 638.64 344.201C638.928 343.953 639.072 343.609 639.072 343.169C639.072 342.817 638.976 342.509 638.784 342.245C638.6 341.981 638.332 341.797 637.98 341.693L636.792 341.321C636.192 341.137 635.728 340.829 635.4 340.397C635.08 339.965 634.92 339.457 634.92 338.873C634.92 338.401 635.024 337.993 635.232 337.649C635.448 337.297 635.748 337.025 636.132 336.833C636.516 336.633 636.968 336.533 637.488 336.533C638.256 336.533 638.872 336.749 639.336 337.181C639.8 337.605 640.036 338.173 640.044 338.885H638.964C638.964 338.453 638.832 338.117 638.568 337.877C638.312 337.629 637.948 337.505 637.476 337.505C637.012 337.505 636.648 337.617 636.384 337.841C636.128 338.065 636 338.377 636 338.777C636 339.137 636.096 339.449 636.288 339.713C636.48 339.977 636.756 340.165 637.116 340.277L638.316 340.661C638.9 340.845 639.352 341.157 639.672 341.597C639.992 342.037 640.152 342.553 640.152 343.145C640.152 343.625 640.04 344.045 639.816 344.405C639.592 344.765 639.276 345.045 638.868 345.245C638.468 345.445 638 345.545 637.464 345.545ZM644.072 345.425V337.637H641.672V336.653H647.552V337.637H645.152V345.425H644.072ZM648.807 345.425L651.087 336.665H652.539L654.807 345.425H653.715L653.139 343.097H650.487L649.911 345.425H648.807ZM650.703 342.185H652.911L652.239 339.485C652.111 338.973 652.011 338.545 651.939 338.201C651.867 337.857 651.823 337.633 651.807 337.529C651.791 337.633 651.747 337.857 651.675 338.201C651.603 338.545 651.503 338.969 651.375 339.473L650.703 342.185ZM656.506 345.425V336.665H659.218C659.738 336.665 660.194 336.773 660.586 336.989C660.978 337.197 661.282 337.489 661.498 337.865C661.714 338.241 661.822 338.681 661.822 339.185C661.822 339.777 661.666 340.285 661.354 340.709C661.05 341.133 660.634 341.425 660.106 341.585L661.942 345.425H660.67L658.99 341.705H657.586V345.425H656.506ZM657.586 340.733H659.218C659.666 340.733 660.026 340.593 660.298 340.313C660.57 340.025 660.706 339.649 660.706 339.185C660.706 338.713 660.57 338.337 660.298 338.057C660.026 337.777 659.666 337.637 659.218 337.637H657.586V340.733ZM665.658 345.425V337.637H663.258V336.653H669.138V337.637H666.738V345.425H665.658ZM670.993 345.425V336.665H676.033V337.649H672.061V340.361H675.613V341.333H672.061V344.441H676.033V345.425H670.993ZM678.092 345.425V336.665H680.36C680.928 336.665 681.416 336.773 681.824 336.989C682.24 337.205 682.56 337.509 682.784 337.901C683.016 338.293 683.132 338.757 683.132 339.293V342.785C683.132 343.321 683.016 343.789 682.784 344.189C682.56 344.581 682.24 344.885 681.824 345.101C681.416 345.317 680.928 345.425 680.36 345.425H678.092ZM679.172 344.465H680.36C680.888 344.465 681.3 344.317 681.596 344.021C681.9 343.725 682.052 343.313 682.052 342.785V339.293C682.052 338.773 681.9 338.365 681.596 338.069C681.3 337.773 680.888 337.625 680.36 337.625H679.172V344.465Z" fill="black"/>
<rect x="742" y="309" width="120" height="66.0901" rx="12" fill="#F2F2F2"/>
<path d="M777.92 345.425V336.665H780.632C781.152 336.665 781.608 336.773 782 336.989C782.392 337.197 782.696 337.489 782.912 337.865C783.128 338.241 783.236 338.681 783.236 339.185C783.236 339.777 783.08 340.285 782.768 340.709C782.464 341.133 782.048 341.425 781.52 341.585L783.356 345.425H782.084L780.404 341.705H779V345.425H777.92ZM779 340.733H780.632C781.08 340.733 781.44 340.593 781.712 340.313C781.984 340.025 782.12 339.649 782.12 339.185C782.12 338.713 781.984 338.337 781.712 338.057C781.44 337.777 781.08 337.637 780.632 337.637H779V340.733ZM785.212 345.425V336.665H790.252V337.649H786.28V340.361H789.832V341.333H786.28V344.441H790.252V345.425H785.212ZM794.855 345.545C794.279 345.545 793.783 345.449 793.367 345.257C792.959 345.065 792.643 344.789 792.419 344.429C792.195 344.069 792.079 343.641 792.071 343.145H793.151C793.151 343.585 793.299 343.933 793.595 344.189C793.899 344.445 794.319 344.573 794.855 344.573C795.359 344.573 795.751 344.449 796.031 344.201C796.319 343.953 796.463 343.609 796.463 343.169C796.463 342.817 796.367 342.509 796.175 342.245C795.991 341.981 795.723 341.797 795.371 341.693L794.183 341.321C793.583 341.137 793.119 340.829 792.791 340.397C792.471 339.965 792.311 339.457 792.311 338.873C792.311 338.401 792.415 337.993 792.623 337.649C792.839 337.297 793.139 337.025 793.523 336.833C793.907 336.633 794.359 336.533 794.879 336.533C795.647 336.533 796.263 336.749 796.727 337.181C797.191 337.605 797.427 338.173 797.435 338.885H796.355C796.355 338.453 796.223 338.117 795.959 337.877C795.703 337.629 795.339 337.505 794.867 337.505C794.403 337.505 794.039 337.617 793.775 337.841C793.519 338.065 793.391 338.377 793.391 338.777C793.391 339.137 793.487 339.449 793.679 339.713C793.871 339.977 794.147 340.165 794.507 340.277L795.707 340.661C796.291 340.845 796.743 341.157 797.063 341.597C797.383 342.037 797.543 342.553 797.543 343.145C797.543 343.625 797.431 344.045 797.207 344.405C796.983 344.765 796.667 345.045 796.259 345.245C795.859 345.445 795.391 345.545 794.855 345.545ZM802.002 345.545C801.186 345.545 800.562 345.321 800.13 344.873C799.698 344.417 799.482 343.801 799.482 343.025V336.665H800.562V343.025C800.562 343.505 800.678 343.885 800.91 344.165C801.15 344.445 801.514 344.585 802.002 344.585C802.482 344.585 802.842 344.445 803.082 344.165C803.322 343.885 803.442 343.505 803.442 343.025V336.665H804.522V343.025C804.522 343.809 804.306 344.425 803.874 344.873C803.45 345.321 802.826 345.545 802.002 345.545ZM806.51 345.425V336.665H807.926L808.838 339.497C808.926 339.753 809.006 340.009 809.078 340.265C809.15 340.513 809.202 340.705 809.234 340.841C809.274 340.705 809.326 340.513 809.39 340.265C809.454 340.009 809.526 339.749 809.606 339.485L810.47 336.665H811.886V345.425H810.83V342.245C810.83 341.893 810.842 341.493 810.866 341.045C810.89 340.597 810.922 340.141 810.962 339.677C811.002 339.205 811.042 338.757 811.082 338.333C811.13 337.901 811.17 337.525 811.202 337.205L809.786 341.585H808.646L807.218 337.205C807.258 337.517 807.298 337.881 807.338 338.297C807.378 338.705 807.414 339.141 807.446 339.605C807.478 340.061 807.506 340.517 807.53 340.973C807.554 341.429 807.566 341.853 807.566 342.245V345.425H806.51ZM813.993 345.425V336.665H819.033V337.649H815.061V340.361H818.613V341.333H815.061V344.441H819.033V345.425H813.993ZM821.092 345.425V336.665H823.36C823.928 336.665 824.416 336.773 824.824 336.989C825.24 337.205 825.56 337.509 825.784 337.901C826.016 338.293 826.132 338.757 826.132 339.293V342.785C826.132 343.321 826.016 343.789 825.784 344.189C825.56 344.581 825.24 344.885 824.824 345.101C824.416 345.317 823.928 345.425 823.36 345.425H821.092ZM822.172 344.465H823.36C823.888 344.465 824.3 344.317 824.596 344.021C824.9 343.725 825.052 343.313 825.052 342.785V339.293C825.052 338.773 824.9 338.365 824.596 338.069C824.3 337.773 823.888 337.625 823.36 337.625H822.172V344.465Z" fill="black"/>
<line x1="229.5" y1="81" x2="229.5" y2="309" stroke="black"/>
<line x1="799.5" y1="81" x2="799.5" y2="309" stroke="black"/>
<line x1="659.5" y1="81" x2="659.5" y2="309" stroke="black"/>
<line x1="516.5" y1="81" x2="516.5" y2="309" stroke="black"/>
<line x1="373.5" y1="81" x2="373.5" y2="309" stroke="black"/>
<path d="M516 117L506 111.226V122.774L516 117ZM229 118H230.993V116H229V118ZM234.979 118H238.965V116H234.979V118ZM242.951 118H246.938V116H242.951V118ZM250.924 118H254.91V116H250.924V118ZM258.896 118H262.882V116H258.896V118ZM266.868 118H270.854V116H266.868V118ZM274.84 118H278.826V116H274.84V118ZM282.812 118H286.799V116H282.812V118ZM290.785 118H294.771V116H290.785V118ZM298.757 118H302.743V116H298.757V118ZM306.729 118H310.715V116H306.729V118ZM314.701 118H318.688V116H314.701V118ZM322.674 118H326.66V116H322.674V118ZM330.646 118H334.632V116H330.646V118ZM338.618 118H342.604V116H338.618V118ZM346.59 118H350.576V116H346.59V118ZM354.563 118H358.549V116H354.563V118ZM362.535 118H366.521V116H362.535V118ZM370.507 118H374.493V116H370.507V118ZM378.479 118H382.465V116H378.479V118ZM386.451 118H390.438V116H386.451V118ZM394.424 118H398.41V116H394.424V118ZM402.396 118H406.382V116H402.396V118ZM410.368 118H414.354V116H410.368V118ZM418.34 118H422.326V116H418.34V118ZM426.313 118H430.299V116H426.313V118ZM434.285 118H438.271V116H434.285V118ZM442.257 118H446.243V116H442.257V118ZM450.229 118H454.215V116H450.229V118ZM458.202 118H462.188V116H458.202V118ZM466.174 118H470.16V116H466.174V118ZM474.146 118H478.132V116H474.146V118ZM482.118 118H486.104V116H482.118V118ZM490.09 118H494.077V116H490.09V118ZM498.063 118H502.049V116H498.063V118ZM506.035 118H510.021V116H506.035V118ZM516 117L506 111.226V122.774L516 117ZM229 118H230.993V116H229V118ZM234.979 118H238.965V116H234.979V118ZM242.951 118H246.938V116H242.951V118ZM250.924 118H254.91V116H250.924V118ZM258.896 118H262.882V116H258.896V118ZM266.868 118H270.854V116H266.868V118ZM274.84 118H278.826V116H274.84V118ZM282.812 118H286.799V116H282.812V118ZM290.785 118H294.771V116H290.785V118ZM298.757 118H302.743V116H298.757V118ZM306.729 118H310.715V116H306.729V118ZM314.701 118H318.688V116H314.701V118ZM322.674 118H326.66V116H322.674V118ZM330.646 118H334.632V116H330.646V118ZM338.618 118H342.604V116H338.618V118ZM346.59 118H350.576V116H346.59V118ZM354.563 118H358.549V116H354.563V118ZM362.535 118H366.521V116H362.535V118ZM370.507 118H374.493V116H370.507V118ZM378.479 118H382.465V116H378.479V118ZM386.451 118H390.438V116H386.451V118ZM394.424 118H398.41V116H394.424V118ZM402.396 118H406.382V116H402.396V118ZM410.368 118H414.354V116H410.368V118ZM418.34 118H422.326V116H418.34V118ZM426.313 118H430.299V116H426.313V118ZM434.285 118H438.271V116H434.285V118ZM442.257 118H446.243V116H442.257V118ZM450.229 118H454.215V116H450.229V118ZM458.202 118H462.188V116H458.202V118ZM466.174 118H470.16V116H466.174V118ZM474.146 118H478.132V116H474.146V118ZM482.118 118H486.104V116H482.118V118ZM490.09 118H494.077V116H490.09V118ZM498.063 118H502.049V116H498.063V118ZM506.035 118H510.021V116H506.035V118Z" fill="black"/>
<path d="M659 141L649 135.226V146.774L659 141ZM517 142H518.972V140H517V142ZM522.917 142H526.861V140H522.917V142ZM530.806 142H534.75V140H530.806V142ZM538.694 142H542.639V140H538.694V142ZM546.583 142H550.528V140H546.583V142ZM554.472 142H558.417V140H554.472V142ZM562.361 142H566.306V140H562.361V142ZM570.25 142H574.194V140H570.25V142ZM578.139 142H582.083V140H578.139V142ZM586.028 142H589.972V140H586.028V142ZM593.917 142H597.861V140H593.917V142ZM601.806 142H605.75V140H601.806V142ZM609.694 142H613.639V140H609.694V142ZM617.583 142H621.528V140H617.583V142ZM625.472 142H629.417V140H625.472V142ZM633.361 142H637.306V140H633.361V142ZM641.25 142H645.194V140H641.25V142ZM649.139 142H653.083V140H649.139V142ZM659 141L649 135.226V146.774L659 141ZM517 142H518.972V140H517V142ZM522.917 142H526.861V140H522.917V142ZM530.806 142H534.75V140H530.806V142ZM538.694 142H542.639V140H538.694V142ZM546.583 142H550.528V140H546.583V142ZM554.472 142H558.417V140H554.472V142ZM562.361 142H566.306V140H562.361V142ZM570.25 142H574.194V140H570.25V142ZM578.139 142H582.083V140H578.139V142ZM586.028 142H589.972V140H586.028V142ZM593.917 142H597.861V140H593.917V142ZM601.806 142H605.75V140H601.806V142ZM609.694 142H613.639V140H609.694V142ZM617.583 142H621.528V140H617.583V142ZM625.472 142H629.417V140H625.472V142ZM633.361 142H637.306V140H633.361V142ZM641.25 142H645.194V140H641.25V142ZM649.139 142H653.083V140H649.139V142Z" fill="black"/>
<path d="M801 177L791 171.226V182.774L801 177ZM659 178H660.972V176H659V178ZM664.917 178H668.861V176H664.917V178ZM672.806 178H676.75V176H672.806V178ZM680.694 178H684.639V176H680.694V178ZM688.583 178H692.528V176H688.583V178ZM696.472 178H700.417V176H696.472V178ZM704.361 178H708.306V176H704.361V178ZM712.25 178H716.194V176H712.25V178ZM720.139 178H724.083V176H720.139V178ZM728.028 178H731.972V176H728.028V178ZM735.917 178H739.861V176H735.917V178ZM743.806 178H747.75V176H743.806V178ZM751.694 178H755.639V176H751.694V178ZM759.583 178H763.528V176H759.583V178ZM767.472 178H771.417V176H767.472V178ZM775.361 178H779.306V176H775.361V178ZM783.25 178H787.194V176H783.25V178ZM791.139 178H795.083V176H791.139V178ZM801 177L791 171.226V182.774L801 177ZM659 178H660.972V176H659V178ZM664.917 178H668.861V176H664.917V178ZM672.806 178H676.75V176H672.806V178ZM680.694 178H684.639V176H680.694V178ZM688.583 178H692.528V176H688.583V178ZM696.472 178H700.417V176H696.472V178ZM704.361 178H708.306V176H704.361V178ZM712.25 178H716.194V176H712.25V178ZM720.139 178H724.083V176H720.139V178ZM728.028 178H731.972V176H728.028V178ZM735.917 178H739.861V176H735.917V178ZM743.806 178H747.75V176H743.806V178ZM751.694 178H755.639V176H751.694V178ZM759.583 178H763.528V176H759.583V178ZM767.472 178H771.417V176H767.472V178ZM775.361 178H779.306V176H775.361V178ZM783.25 178H787.194V176H783.25V178ZM791.139 178H795.083V176H791.139V178Z" fill="black"/>
<path d="M659 221L669 226.774V215.226L659 221ZM664.917 222H668.861V220H664.917V222ZM672.806 222H676.75V220H672.806V222ZM680.694 222H684.639V220H680.694V222ZM688.583 222H692.528V220H688.583V222ZM696.472 222H700.417V220H696.472V222ZM704.361 222H708.306V220H704.361V222ZM712.25 222H716.194V220H712.25V222ZM720.139 222H724.083V220H720.139V222ZM728.028 222H731.972V220H728.028V222ZM735.917 222H739.861V220H735.917V222ZM743.806 222H747.75V220H743.806V222ZM751.694 222H755.639V220H751.694V222ZM759.583 222H763.528V220H759.583V222ZM767.472 222H771.417V220H767.472V222ZM775.361 222H779.306V220H775.361V222ZM783.25 222H787.194V220H783.25V222ZM791.139 222H795.083V220H791.139V222ZM799.028 222H801V220H799.028V222ZM659 221L669 226.774V215.226L659 221ZM664.917 222H668.861V220H664.917V222ZM672.806 222H676.75V220H672.806V222ZM680.694 222H684.639V220H680.694V222ZM688.583 222H692.528V220H688.583V222ZM696.472 222H700.417V220H696.472V222ZM704.361 222H708.306V220H704.361V222ZM712.25 222H716.194V220H712.25V222ZM720.139 222H724.083V220H720.139V222ZM728.028 222H731.972V220H728.028V222ZM735.917 222H739.861V220H735.917V222ZM743.806 222H747.75V220H743.806V222ZM751.694 222H755.639V220H751.694V222ZM759.583 222H763.528V220H759.583V222ZM767.472 222H771.417V220H767.472V222ZM775.361 222H779.306V220H775.361V222ZM783.25 222H787.194V220H783.25V222ZM791.139 222H795.083V220H791.139V222ZM799.028 222H801V220H799.028V222Z" fill="black"/>
<path d="M374 280L384 285.774V274.226L374 280ZM379.917 281H383.861V279H379.917V281ZM387.806 281H391.75V279H387.806V281ZM395.694 281H399.639V279H395.694V281ZM403.583 281H407.528V279H403.583V281ZM411.472 281H415.417V279H411.472V281ZM419.361 281H423.306V279H419.361V281ZM427.25 281H431.194V279H427.25V281ZM435.139 281H439.083V279H435.139V281ZM443.028 281H446.972V279H443.028V281ZM450.917 281H454.861V279H450.917V281ZM458.806 281H462.75V279H458.806V281ZM466.694 281H470.639V279H466.694V281ZM474.583 281H478.528V279H474.583V281ZM482.472 281H486.417V279H482.472V281ZM490.361 281H494.306V279H490.361V281ZM498.25 281H502.194V279H498.25V281ZM506.139 281H510.083V279H506.139V281ZM514.028 281H516V279H514.028V281ZM374 280L384 285.774V274.226L374 280ZM379.917 281H383.861V279H379.917V281ZM387.806 281H391.75V279H387.806V281ZM395.694 281H399.639V279H395.694V281ZM403.583 281H407.528V279H403.583V281ZM411.472 281H415.417V279H411.472V281ZM419.361 281H423.306V279H419.361V281ZM427.25 281H431.194V279H427.25V281ZM435.139 281H439.083V279H435.139V281ZM443.028 281H446.972V279H443.028V281ZM450.917 281H454.861V279H450.917V281ZM458.806 281H462.75V279H458.806V281ZM466.694 281H470.639V279H466.694V281ZM474.583 281H478.528V279H474.583V281ZM482.472 281H486.417V279H482.472V281ZM490.361 281H494.306V279H490.361V281ZM498.25 281H502.194V279H498.25V281ZM506.139 281H510.083V279H506.139V281ZM514.028 281H516V279H514.028V281Z" fill="black"/>
<path d="M517 249L527 254.774V243.226L517 249ZM522.917 250H526.861V248H522.917V250ZM530.806 250H534.75V248H530.806V250ZM538.694 250H542.639V248H538.694V250ZM546.583 250H550.528V248H546.583V250ZM554.472 250H558.417V248H554.472V250ZM562.361 250H566.306V248H562.361V250ZM570.25 250H574.194V248H570.25V250ZM578.139 250H582.083V248H578.139V250ZM586.028 250H589.972V248H586.028V250ZM593.917 250H597.861V248H593.917V250ZM601.806 250H605.75V248H601.806V250ZM609.694 250H613.639V248H609.694V250ZM617.583 250H621.528V248H617.583V250ZM625.472 250H629.417V248H625.472V250ZM633.361 250H637.306V248H633.361V250ZM641.25 250H645.194V248H641.25V250ZM649.139 250H653.083V248H649.139V250ZM657.028 250H659V248H657.028V250ZM517 249L527 254.774V243.226L517 249ZM522.917 250H526.861V248H522.917V250ZM530.806 250H534.75V248H530.806V250ZM538.694 250H542.639V248H538.694V250ZM546.583 250H550.528V248H546.583V250ZM554.472 250H558.417V248H554.472V250ZM562.361 250H566.306V248H562.361V250ZM570.25 250H574.194V248H570.25V250ZM578.139 250H582.083V248H578.139V250ZM586.028 250H589.972V248H586.028V250ZM593.917 250H597.861V248H593.917V250ZM601.806 250H605.75V248H601.806V250ZM609.694 250H613.639V248H609.694V250ZM617.583 250H621.528V248H617.583V250ZM625.472 250H629.417V248H625.472V250ZM633.361 250H637.306V248H633.361V250ZM641.25 250H645.194V248H641.25V250ZM649.139 250H653.083V248H649.139V250ZM657.028 250H659V248H657.028V250Z" fill="black"/>
</svg>
