<?xml version="1.0" encoding="utf-8"?>
<!-- Generator: Adobe Illustrator 17.0.0, SVG Export Plug-In . SVG Version: 6.00 Build 0)  -->
<!DOCTYPE svg PUBLIC "-//W3C//DTD SVG 1.1//EN" "http://www.w3.org/Graphics/SVG/1.1/DTD/svg11.dtd">
<svg version="1.1" id="Layer_1" xmlns="http://www.w3.org/2000/svg" xmlns:xlink="http://www.w3.org/1999/xlink" x="0px" y="0px"
	 width="887.004px" height="114.35px" viewBox="0 0 887.004 114.35" enable-background="new 0 0 887.004 114.35"
	 xml:space="preserve">
<path fill="#004876" d="M171.323,99.821c-24.879,0-38.966-16.586-38.966-39.194c0-24.765,18.176-39.078,40.216-39.078
	c12.042,0,21.357,2.954,25.674,4.772v14.199c-4.09-2.045-13.178-5.453-24.198-5.453c-13.632,0-25.902,7.725-25.902,25.788
	c0,16.7,10.907,25.334,25.788,25.334c10.792,0,21.357-4.091,25.22-5.909v13.746C193.135,97.094,183.024,99.821,171.323,99.821z"/>
<path fill="#004876" d="M233.674,99.707c-18.517,0-30.332-11.588-30.332-29.423c0-16.814,11.474-29.877,30.559-29.877
	c19.199,0,30.446,12.269,30.446,29.537C264.347,87.21,252.305,99.707,233.674,99.707z M233.901,52.449
	c-10.793,0-15.563,8.406-15.563,17.835c0,9.996,5.339,17.268,15.563,17.268c10.338,0,15.336-8.18,15.336-17.496
	C249.237,60.855,244.92,52.449,233.901,52.449z"/>
<path fill="#004876" d="M286.264,99.593c-7.497,0-12.041-2.159-14.314-7.611c-1.25-2.954-1.477-7.043-1.477-12.383V14.732h14.541
	v64.64c0,2.385,0.114,4.544,0.454,5.679c0.682,1.592,1.818,2.273,4.772,2.273c1.25,0,3.181-0.455,4.999-1.135v11.928
	C292.74,99.026,289.9,99.593,286.264,99.593z"/>
<path fill="#004876" d="M317.276,99.593c-7.498,0-12.042-2.159-14.315-7.611c-1.25-2.954-1.477-7.043-1.477-12.383V14.732h14.541
	v64.64c0,2.385,0.114,4.544,0.454,5.679c0.682,1.592,1.818,2.273,4.772,2.273c1.25,0,3.181-0.455,4.999-1.135v11.928
	C323.75,99.026,320.91,99.593,317.276,99.593z"/>
<path fill="#004876" d="M360.101,99.707c-19.313,0-30.219-11.702-30.219-29.651c0-15.677,10.224-29.537,30.219-29.537
	c17.381,0,26.924,9.998,26.924,28.061c0,1.25,0,3.863-0.114,5.112h-41.92c0.114,7.952,6.589,13.973,16.927,13.973
	c11.02,0,16.359-2.954,22.494-6.362v12.269C378.278,96.753,370.893,99.707,360.101,99.707z M373.165,64.149
	c0-7.043-4.998-12.269-13.178-12.269c-8.066,0-13.859,4.658-14.654,12.269H373.165z"/>
<path fill="#004876" d="M422.916,99.707c-19.653,0-29.196-12.155-29.196-29.537c0-19.085,13.064-29.763,30.559-29.763
	c6.476,0,11.019,0.909,16.132,3.068v12.723c-4.544-2.273-8.407-3.636-14.541-3.636c-11.929,0-17.041,8.294-17.041,17.495
	c0,10.793,5.681,17.496,16.586,17.496c5.112,0,10.792-1.478,15.904-4.886v12.383C435.64,98.231,429.96,99.707,422.916,99.707z"/>
<path fill="#004876" d="M475.384,99.821c-9.088,0-14.541-3.408-17.381-9.203c-2.045-3.975-2.386-9.996-2.386-16.926V54.153h-8.747
	v-12.27h8.747l0.227-14.654l14.314-3.977v18.63h16.132v12.27h-16.132v19.425c0,3.636,0.114,6.93,0.909,9.089
	c0.909,3.068,3.408,4.658,7.725,4.658c3.408,0,7.385-0.909,10.224-2.159v12.042C485.381,98.684,480.268,99.821,475.384,99.821z"/>
<path fill="#004876" d="M495.714,24.502c0-4.658,3.408-8.294,8.066-8.294c4.544,0,8.18,3.75,8.18,8.294
	c0,4.658-3.635,8.18-8.18,8.18C499.122,32.681,495.714,29.159,495.714,24.502z M496.509,41.883h14.654v56.575h-14.654V41.883z"/>
<path fill="#004876" d="M542.06,98.457l-24.198-56.575h16.246c10.905,26.697,13.746,34.194,15.677,39.989
	c1.93-5.795,4.544-12.951,15.449-39.989h15.224l-24.197,56.575H542.06z"/>
<path fill="#004876" d="M609.233,99.707c-19.314,0-30.219-11.702-30.219-29.651c0-15.677,10.224-29.537,30.219-29.537
	c17.379,0,26.922,9.998,26.922,28.061c0,1.25,0,3.863-0.114,5.112h-41.92c0.114,7.952,6.59,13.973,16.928,13.973
	c11.021,0,16.359-2.954,22.493-6.362v12.269C627.409,96.753,620.024,99.707,609.233,99.707z M622.295,64.149
	c0-7.043-4.998-12.269-13.176-12.269c-8.067,0-13.86,4.658-14.655,12.269H622.295z"/>
<path fill="#004876" d="M676.576,98.457V22.912h15.449v75.545H676.576z"/>
<path fill="#004876" d="M743.056,98.457v-8.748c-3.408,5.795-10.565,9.998-19.199,9.998c-17.04,0-23.63-12.723-23.63-28.059
	c0-16.587,8.634-30.786,30.333-30.786c4.544,0,8.406,0.681,11.928,1.816V14.732h14.882v83.725H743.056z M732.037,52.903
	c-10.679,0-16.7,6.134-16.7,17.607c0,9.998,4.091,17.042,13.746,17.042c4.317,0,8.634-2.387,10.793-5.34
	c1.476-2.159,2.613-5.112,2.613-8.634v-18.63C739.536,53.47,735.899,52.903,732.037,52.903z"/>
<path fill="#004876" d="M795.332,99.707c-19.313,0-30.219-11.702-30.219-29.651c0-15.677,10.226-29.537,30.219-29.537
	c17.381,0,26.924,9.998,26.924,28.061c0,1.25,0,3.863-0.114,5.112h-41.92c0.114,7.952,6.59,13.973,16.928,13.973
	c11.019,0,16.358-2.954,22.493-6.362v12.269C813.508,96.753,806.125,99.707,795.332,99.707z M808.396,64.149
	c0-7.043-4.998-12.269-13.178-12.269c-8.066,0-13.86,4.658-14.655,12.269H808.396z"/>
<path fill="#004876" d="M876.098,99.593c-4.089,0-9.089-2.045-9.996-8.292c-3.182,3.975-8.748,8.292-18.632,8.292
	c-12.383,0-18.63-7.838-18.63-16.358c0-6.476,3.068-11.475,8.861-14.315c6.021-3.068,15.791-4.431,26.81-4.658v-1.59
	c0-2.273-0.227-4.545-0.909-6.476c-1.25-2.727-4.658-3.522-9.315-3.522c-5.453,0-13.746,2.045-20.448,5.453V45.859
	c6.362-3.068,16.359-5.34,23.061-5.34c12.951,0,18.404,4.205,20.676,10.226c1.476,3.863,1.704,9.315,1.704,13.973v18.63
	c0,1.364,0.226,2.727,0.567,3.296c0.455,0.795,1.251,1.25,2.501,1.25c1.362,0,3.18-0.34,4.658-0.909v10.451
	C883.709,98.912,879.165,99.593,876.098,99.593z M863.146,82.781c1.023-1.364,1.364-3.75,1.364-6.135v-3.182
	c-7.497,0.114-13.746,0.455-17.609,2.387c-2.954,1.476-4.315,3.408-4.315,6.476c0,4.884,4.089,6.248,8.747,6.248
	C857.353,88.574,861.102,85.506,863.146,82.781z"/>
<g>
	<path fill="#D1D3D3" d="M68.137,14.032c0,0-0.139-10.322-0.223-12.135c0,0-0.139-1.841,1.06-1.897s23.768,0,23.768,0
		s1.311-0.112,1.367,1.367s0.558,34.313,0.558,56.854c0,22.987-0.474,52.028-0.558,54.539c0,0,0.084,1.59-1.395,1.59
		c-1.479,0-23.433,0-23.433,0s-1.372-0.056-1.372-1.562s0.284-11.996,0.228-12.665c-0.056-0.67,0.223-1.59,1.674-1.59
		c1.451,0,9.931,0,9.931,0s1.283,0.195,1.283-1.283c0-1.479,0.263-19.016,0.263-39.028c0-17.631-0.263-39.586-0.263-40.785
		s-0.335-1.674-1.311-1.674s-10.071,0-10.071,0S68.137,15.957,68.137,14.032z"/>
	<path fill="#D1D3D3" d="M26.53,14.032c0,0,0.139-10.322,0.223-12.135c0,0,0.139-1.841-1.06-1.897S1.925,0,1.925,0
		S0.614-0.112,0.558,1.367C0.502,2.845,0,35.68,0,58.221c0,22.987,0.474,52.028,0.558,54.539c0,0-0.084,1.59,1.395,1.59
		s23.433,0,23.433,0s1.372-0.056,1.372-1.562s-0.284-11.996-0.228-12.665c0.056-0.67-0.223-1.59-1.674-1.59
		c-1.451,0-9.931,0-9.931,0s-1.283,0.195-1.283-1.283c0-1.479-0.263-19.016-0.263-39.028c0-17.631,0.263-39.586,0.263-40.785
		s0.335-1.674,1.311-1.674s10.071,0,10.071,0S26.53,15.957,26.53,14.032z"/>
	<g>
		<path fill="#004876" d="M58.716,41.859c-3.069,0-11.382,0-11.382,0s-8.313,0-11.382,0c-3.069,0-3.794,1.339-3.738,4.185
			c0.056,2.845,0.391,9.555,0.391,9.555c1.116,18.803,3.403,32.64,4.017,36.768c0.614,4.129,0.67,4.464,1.506,5.524
			s2.957,0.949,2.957,0.949h6.249h6.249c0,0,2.12,0.112,2.957-0.949s0.893-1.395,1.506-5.524c0.614-4.129,2.901-17.966,4.017-36.768
			c0,0,0.335-6.71,0.391-9.555C62.51,43.198,61.784,41.859,58.716,41.859z"/>
		<circle fill="#004876" cx="47.334" cy="27.232" r="10.712"/>
	</g>
</g>
</svg>
