<svg enable-background="new 6.504 4.295 175.748 105.654" height="105.654" viewBox="6.504 4.295 175.748 105.654" width="175.748" xmlns="http://www.w3.org/2000/svg"><path d="m24.689 109.878h138.533l-68.899-68.898z" fill="#7bb51c"/><path d="m22.042 106.49 10.793-10.529-3.595-3.687-6.779 6.616-11.942-12.244-4.015 3.917z"/><path d="m35.204 93.563 11.059-10.792-3.037-3.111-7.022 6.85-3.372-3.457 5.627-5.49-3.178-3.255-5.627 5.487-2.889-2.961 6.791-6.627-3.035-3.11-11.024 10.756z"/><path d="m71.401 42.402c-4.46-4.572-12.197-4.025-15.923-.389-3.727 3.636-5.629 10.886-.366 16.281 5.781 5.925 12.659 3.773 16.386.139 5.495-5.361 3.539-12.304-.097-16.031zm-3.278 12.9c-2.467 2.407-5.483 1.754-8.929-1.779-2.896-2.968-2.722-5.95-.616-8.005 1.448-1.413 4.389-2.677 7.888.91 3.992 4.092 4.124 6.467 1.657 8.874z"/><path d="m83.84 46.199 4.08-3.982-6.138-6.291-3.674-15.286-4.677 4.564 2.433 8.672-8.22-3.027-4.41 4.302 14.014 4.5z"/><path d="m62.086 67.447s-9.93-3.388-10.402-3.306c-.153.025 2.133-6.058-3.003-8.754 0 0-3.811-2.063-7.625 1.402l-8.129 8.011 15.671 15.782 4.146-4.045-8.48-8.69 13.708 3.614zm-15.38-2.167c-2.304 2.244-2.615 2.421-2.615 2.421s-3.612-3.702-3.74-3.833 2.583-2.455 3.01-2.872c.181-.177 1.869-1.278 3.266.153 0 0 2.382 1.883.079 4.131z"/><path d="m82.574 23.652-3.626-3.656 15.83-15.701 5.181 5.223-5.703 11.224 11.627-5.251 4.985 5.027-15.83 15.701-3.821-3.852 8.356-8.287-11.431 5.186-2.363-2.383 5.313-11.42z"/><path d="m110.06 51.364-10.976-11.065 15.831-15.701 11.007 11.098-3.198 3.172-6.896-6.952-2.579 2.557 5.439 5.484-3.33 3.302-5.406-5.451-3.46 3.431 6.831 6.887z"/><path d="m146.253 56.194 4.079 4.114-11.979 11.88 6.701 6.754-3.852 3.823-10.78-10.869z"/><path d="m144.051 85.638 15.831-15.701 3.982 4.014-15.831 15.7z"/><path d="m155.252 96.933-3.724-3.755 15.832-15.7 5.407 5.448-4.62 16.302 10.479-10.394 3.626 3.656-15.83 15.7-4.728-4.764 4.071-17.114z"/><path d="m139.099 48.981-9.615-9.695-15.864 15.669 4.079 4.112 8.649-8.578-3.113 14.16 4.176 4.211s3.292-10.129 3.393-10.551c0 0 3.567 1.965 7.481-1.4 0 0 3.754-3.658.814-7.928zm-5.871 4.592s-2.021 1.357-3.802-.438l-2.782-2.938s3.361-3.334 3.785-3.755c0 0 2.59 2.612 2.914 2.938.323.326 2.365 1.862-.115 4.193z"/></svg>