<svg width="706" height="444" viewBox="0 0 706 444" fill="none" xmlns="http://www.w3.org/2000/svg">
<rect width="706" height="444" fill="white"/>
<rect x="50.35" y="108.35" width="605.3" height="227.3" rx="14.65" stroke="#595959" stroke-width="0.7"/>
<path d="M539 265L539 264.65H539L539 265ZM553 212L555.021 215.5L550.979 215.5L553 212ZM432 264.65L539 264.65L539 265.35L432 265.35L432 264.65ZM552.65 251L552.65 215.15L553.35 215.15L553.35 251L552.65 251ZM539 264.65C546.539 264.65 552.65 258.539 552.65 251L553.35 251C553.35 258.925 546.925 265.35 539 265.35L539 264.65Z" fill="black"/>
<path d="M265 263L261.5 260.979L261.5 265.021L265 263ZM166 263L166 263.35H166L166 263ZM261.85 262.65L166 262.65L166 263.35L261.85 263.35L261.85 262.65ZM152.35 249L152.35 210L151.65 210L151.65 249L152.35 249ZM166 262.65C158.461 262.65 152.35 256.539 152.35 249L151.65 249C151.65 256.925 158.075 263.35 166 263.35L166 262.65Z" fill="black"/>
<rect x="454" y="160" width="197" height="52" rx="12" fill="url(#paint0_radial_1544_2)"/>
<path d="M514.315 190.217H513.175L516.091 185.951L513.295 181.817H514.459L516.433 184.829L516.691 185.195L517.105 184.577L518.935 181.817H520.075L517.255 185.927L520.195 190.217H519.031L516.913 187.073L516.643 186.683L516.193 187.361L514.315 190.217ZM523.979 190.361C523.399 190.361 522.875 190.221 522.407 189.941C521.939 189.661 521.571 189.277 521.303 188.789C521.039 188.297 520.907 187.749 520.907 187.145C520.907 186.541 521.039 185.995 521.303 185.507C521.571 185.015 521.939 184.629 522.407 184.349C522.875 184.069 523.399 183.929 523.979 183.929C524.475 183.929 524.931 184.027 525.347 184.223C525.763 184.415 526.099 184.683 526.355 185.027C526.615 185.367 526.765 185.749 526.805 186.173H525.845C525.797 185.909 525.683 185.671 525.503 185.459C525.327 185.247 525.105 185.081 524.837 184.961C524.573 184.841 524.287 184.781 523.979 184.781C523.587 184.781 523.233 184.885 522.917 185.093C522.605 185.297 522.359 185.579 522.179 185.939C522.003 186.299 521.915 186.701 521.915 187.145C521.915 187.589 522.003 187.991 522.179 188.351C522.359 188.711 522.605 188.993 522.917 189.197C523.233 189.401 523.587 189.503 523.979 189.503C524.287 189.503 524.573 189.445 524.837 189.329C525.105 189.213 525.327 189.055 525.503 188.855C525.683 188.651 525.797 188.425 525.845 188.177H526.805C526.769 188.589 526.621 188.961 526.361 189.293C526.105 189.625 525.769 189.887 525.353 190.079C524.937 190.267 524.479 190.361 523.979 190.361ZM530.952 190.361C530.368 190.361 529.842 190.223 529.374 189.947C528.906 189.667 528.538 189.283 528.27 188.795C528.002 188.307 527.868 187.757 527.868 187.145C527.868 186.533 528.002 185.983 528.27 185.495C528.538 185.007 528.908 184.625 529.38 184.349C529.852 184.069 530.38 183.929 530.964 183.929C531.548 183.929 532.076 184.069 532.548 184.349C533.02 184.625 533.39 185.007 533.658 185.495C533.926 185.983 534.06 186.533 534.06 187.145C534.06 187.757 533.924 188.307 533.652 188.795C533.384 189.283 533.014 189.667 532.542 189.947C532.07 190.223 531.54 190.361 530.952 190.361ZM530.964 189.473C531.364 189.473 531.722 189.377 532.038 189.185C532.354 188.989 532.602 188.715 532.782 188.363C532.962 188.011 533.052 187.605 533.052 187.145C533.052 186.685 532.962 186.279 532.782 185.927C532.602 185.571 532.354 185.297 532.038 185.105C531.722 184.909 531.364 184.811 530.964 184.811C530.564 184.811 530.206 184.909 529.89 185.105C529.574 185.297 529.326 185.571 529.146 185.927C528.966 186.279 528.876 186.685 528.876 187.145C528.876 187.605 528.966 188.011 529.146 188.363C529.326 188.715 529.574 188.989 529.89 189.185C530.206 189.377 530.564 189.473 530.964 189.473ZM541.194 184.073H541.2V190.217H540.276V189.185C540.04 189.561 539.734 189.851 539.358 190.055C538.982 190.259 538.56 190.361 538.092 190.361C537.536 190.361 537.032 190.221 536.58 189.941C536.128 189.661 535.774 189.277 535.518 188.789C535.262 188.297 535.134 187.749 535.134 187.145C535.134 186.541 535.262 185.995 535.518 185.507C535.774 185.015 536.128 184.629 536.58 184.349C537.032 184.069 537.536 183.929 538.092 183.929C538.56 183.929 538.98 184.031 539.352 184.235C539.728 184.439 540.034 184.729 540.27 185.105L540.234 181.817H541.194V184.073ZM538.182 189.497C538.574 189.497 538.926 189.395 539.238 189.191C539.554 188.987 539.8 188.707 539.976 188.351C540.152 187.991 540.24 187.589 540.24 187.145C540.24 186.701 540.152 186.301 539.976 185.945C539.8 185.585 539.554 185.303 539.238 185.099C538.926 184.895 538.574 184.793 538.182 184.793C537.794 184.793 537.444 184.895 537.132 185.099C536.824 185.303 536.582 185.585 536.406 185.945C536.23 186.301 536.142 186.701 536.142 187.145C536.142 187.589 536.23 187.991 536.406 188.351C536.582 188.707 536.824 188.987 537.132 189.191C537.444 189.395 537.794 189.497 538.182 189.497ZM548.584 187.379H543.712C543.748 187.799 543.858 188.171 544.042 188.495C544.226 188.819 544.468 189.071 544.768 189.251C545.068 189.431 545.408 189.521 545.788 189.521C546.044 189.521 546.29 189.481 546.526 189.401C546.762 189.321 546.968 189.209 547.144 189.065C547.32 188.921 547.446 188.757 547.522 188.573H548.446C548.378 188.909 548.212 189.213 547.948 189.485C547.688 189.757 547.362 189.971 546.97 190.127C546.582 190.283 546.168 190.361 545.728 190.361C545.148 190.361 544.628 190.223 544.168 189.947C543.712 189.671 543.356 189.289 543.1 188.801C542.844 188.309 542.716 187.753 542.716 187.133C542.716 186.529 542.846 185.983 543.106 185.495C543.366 185.007 543.724 184.625 544.18 184.349C544.64 184.069 545.156 183.929 545.728 183.929C546.272 183.929 546.76 184.069 547.192 184.349C547.628 184.625 547.968 185.009 548.212 185.501C548.46 185.989 548.584 186.537 548.584 187.145V187.379ZM545.74 184.775C545.2 184.775 544.752 184.937 544.396 185.261C544.04 185.585 543.82 186.027 543.736 186.587H547.582C547.498 186.031 547.292 185.591 546.964 185.267C546.64 184.939 546.232 184.775 545.74 184.775ZM556.048 183.929C556.604 183.929 557.108 184.069 557.56 184.349C558.012 184.629 558.366 185.015 558.622 185.507C558.878 185.995 559.006 186.541 559.006 187.145C559.006 187.749 558.878 188.297 558.622 188.789C558.366 189.277 558.012 189.661 557.56 189.941C557.108 190.221 556.604 190.361 556.048 190.361C555.58 190.361 555.158 190.259 554.782 190.055C554.406 189.851 554.1 189.561 553.864 189.185V189.575L553.888 192.149H552.94V184.073H553.864V185.111C554.1 184.731 554.406 184.439 554.782 184.235C555.158 184.031 555.58 183.929 556.048 183.929ZM555.958 189.497C556.346 189.497 556.694 189.395 557.002 189.191C557.314 188.987 557.558 188.707 557.734 188.351C557.91 187.991 557.998 187.589 557.998 187.145C557.998 186.701 557.91 186.301 557.734 185.945C557.558 185.585 557.314 185.303 557.002 185.099C556.694 184.895 556.346 184.793 555.958 184.793C555.566 184.793 555.212 184.895 554.896 185.099C554.584 185.303 554.34 185.585 554.164 185.945C553.988 186.301 553.9 186.701 553.9 187.145C553.9 187.589 553.988 187.991 554.164 188.351C554.34 188.707 554.584 188.987 554.896 189.191C555.212 189.395 555.566 189.497 555.958 189.497ZM563.551 184.013V185.015H563.329C562.769 185.015 562.329 185.183 562.009 185.519C561.689 185.855 561.529 186.327 561.529 186.935V190.217H560.569V184.073H561.529V185.309C561.701 184.893 561.941 184.573 562.249 184.349C562.561 184.125 562.933 184.013 563.365 184.013H563.551ZM567.409 190.361C566.825 190.361 566.299 190.223 565.831 189.947C565.363 189.667 564.995 189.283 564.727 188.795C564.459 188.307 564.325 187.757 564.325 187.145C564.325 186.533 564.459 185.983 564.727 185.495C564.995 185.007 565.365 184.625 565.837 184.349C566.309 184.069 566.837 183.929 567.421 183.929C568.005 183.929 568.533 184.069 569.005 184.349C569.477 184.625 569.847 185.007 570.115 185.495C570.383 185.983 570.517 186.533 570.517 187.145C570.517 187.757 570.381 188.307 570.109 188.795C569.841 189.283 569.471 189.667 568.999 189.947C568.527 190.223 567.997 190.361 567.409 190.361ZM567.421 189.473C567.821 189.473 568.179 189.377 568.495 189.185C568.811 188.989 569.059 188.715 569.239 188.363C569.419 188.011 569.509 187.605 569.509 187.145C569.509 186.685 569.419 186.279 569.239 185.927C569.059 185.571 568.811 185.297 568.495 185.105C568.179 184.909 567.821 184.811 567.421 184.811C567.021 184.811 566.663 184.909 566.347 185.105C566.031 185.297 565.783 185.571 565.603 185.927C565.423 186.279 565.333 186.685 565.333 187.145C565.333 187.605 565.423 188.011 565.603 188.363C565.783 188.715 566.031 188.989 566.347 189.185C566.663 189.377 567.021 189.473 567.421 189.473ZM570.697 192.137V191.225H571.585C571.749 191.225 571.879 191.175 571.975 191.075C572.075 190.975 572.125 190.843 572.125 190.679V184.073H573.085V190.757C573.085 191.033 573.025 191.275 572.905 191.483C572.789 191.691 572.621 191.851 572.401 191.963C572.185 192.079 571.933 192.137 571.645 192.137H570.697ZM572.059 182.957V181.817H573.151V182.957H572.059ZM580.447 187.379H575.575C575.611 187.799 575.721 188.171 575.905 188.495C576.089 188.819 576.331 189.071 576.631 189.251C576.931 189.431 577.271 189.521 577.651 189.521C577.907 189.521 578.153 189.481 578.389 189.401C578.625 189.321 578.831 189.209 579.007 189.065C579.183 188.921 579.309 188.757 579.385 188.573H580.309C580.241 188.909 580.075 189.213 579.811 189.485C579.551 189.757 579.225 189.971 578.833 190.127C578.445 190.283 578.031 190.361 577.591 190.361C577.011 190.361 576.491 190.223 576.031 189.947C575.575 189.671 575.219 189.289 574.963 188.801C574.707 188.309 574.579 187.753 574.579 187.133C574.579 186.529 574.709 185.983 574.969 185.495C575.229 185.007 575.587 184.625 576.043 184.349C576.503 184.069 577.019 183.929 577.591 183.929C578.135 183.929 578.623 184.069 579.055 184.349C579.491 184.625 579.831 185.009 580.075 185.501C580.323 185.989 580.447 186.537 580.447 187.145V187.379ZM577.603 184.775C577.063 184.775 576.615 184.937 576.259 185.261C575.903 185.585 575.683 186.027 575.599 186.587H579.445C579.361 186.031 579.155 185.591 578.827 185.267C578.503 184.939 578.095 184.775 577.603 184.775ZM584.588 190.361C584.008 190.361 583.484 190.221 583.016 189.941C582.548 189.661 582.18 189.277 581.912 188.789C581.648 188.297 581.516 187.749 581.516 187.145C581.516 186.541 581.648 185.995 581.912 185.507C582.18 185.015 582.548 184.629 583.016 184.349C583.484 184.069 584.008 183.929 584.588 183.929C585.084 183.929 585.54 184.027 585.956 184.223C586.372 184.415 586.708 184.683 586.964 185.027C587.224 185.367 587.374 185.749 587.414 186.173H586.454C586.406 185.909 586.292 185.671 586.112 185.459C585.936 185.247 585.714 185.081 585.446 184.961C585.182 184.841 584.896 184.781 584.588 184.781C584.196 184.781 583.842 184.885 583.526 185.093C583.214 185.297 582.968 185.579 582.788 185.939C582.612 186.299 582.524 186.701 582.524 187.145C582.524 187.589 582.612 187.991 582.788 188.351C582.968 188.711 583.214 188.993 583.526 189.197C583.842 189.401 584.196 189.503 584.588 189.503C584.896 189.503 585.182 189.445 585.446 189.329C585.714 189.213 585.936 189.055 586.112 188.855C586.292 188.651 586.406 188.425 586.454 188.177H587.414C587.378 188.589 587.23 188.961 586.97 189.293C586.714 189.625 586.378 189.887 585.962 190.079C585.546 190.267 585.088 190.361 584.588 190.361ZM590.625 190.217C590.181 190.217 589.829 190.099 589.569 189.863C589.313 189.627 589.185 189.301 589.185 188.885L589.179 184.925H588.099L588.105 184.073H588.771C588.923 184.073 589.045 184.025 589.137 183.929C589.233 183.833 589.281 183.711 589.281 183.563V182.537H590.145V184.073H591.627L591.621 184.925H590.139L590.145 188.825C590.145 188.993 590.193 189.125 590.289 189.221C590.389 189.317 590.521 189.365 590.685 189.365H591.621V190.217H590.625Z" fill="white"/>
<rect x="54" y="160" width="197" height="52" rx="12" fill="url(#paint1_radial_1544_2)"/>
<path d="M98.8394 186H97.8794V177.6H98.8394V181.536L102.775 177.6H104.083L100.009 181.656L104.155 186H102.811L98.8394 181.848V186ZM107.479 186.144C106.895 186.144 106.369 186.006 105.901 185.73C105.433 185.45 105.065 185.066 104.797 184.578C104.529 184.09 104.395 183.54 104.395 182.928C104.395 182.316 104.529 181.766 104.797 181.278C105.065 180.79 105.435 180.408 105.907 180.132C106.379 179.852 106.907 179.712 107.491 179.712C108.075 179.712 108.603 179.852 109.075 180.132C109.547 180.408 109.917 180.79 110.185 181.278C110.453 181.766 110.587 182.316 110.587 182.928C110.587 183.54 110.451 184.09 110.179 184.578C109.911 185.066 109.541 185.45 109.069 185.73C108.597 186.006 108.067 186.144 107.479 186.144ZM107.491 185.256C107.891 185.256 108.249 185.16 108.565 184.968C108.881 184.772 109.129 184.498 109.309 184.146C109.489 183.794 109.579 183.388 109.579 182.928C109.579 182.468 109.489 182.062 109.309 181.71C109.129 181.354 108.881 181.08 108.565 180.888C108.249 180.692 107.891 180.594 107.491 180.594C107.091 180.594 106.733 180.692 106.417 180.888C106.101 181.08 105.853 181.354 105.673 181.71C105.493 182.062 105.403 182.468 105.403 182.928C105.403 183.388 105.493 183.794 105.673 184.146C105.853 184.498 106.101 184.772 106.417 184.968C106.733 185.16 107.091 185.256 107.491 185.256ZM113.809 186C113.365 186 113.013 185.882 112.753 185.646C112.497 185.41 112.369 185.084 112.369 184.668L112.363 180.708H111.283L111.289 179.856H111.955C112.107 179.856 112.229 179.808 112.321 179.712C112.417 179.616 112.465 179.494 112.465 179.346V178.32H113.329V179.856H114.811L114.805 180.708H113.323L113.329 184.608C113.329 184.776 113.377 184.908 113.473 185.004C113.573 185.1 113.705 185.148 113.869 185.148H114.805V186H113.809ZM117.385 186H116.425V177.6H117.385V186ZM120.408 186H119.448V179.856H120.408V186ZM119.382 178.74V177.6H120.474V178.74H119.382ZM125.363 179.712C125.823 179.712 126.225 179.812 126.569 180.012C126.913 180.208 127.177 180.488 127.361 180.852C127.549 181.216 127.643 181.64 127.643 182.124V186H126.683V182.196C126.683 181.672 126.547 181.264 126.275 180.972C126.007 180.676 125.633 180.528 125.153 180.528C124.809 180.528 124.507 180.602 124.247 180.75C123.987 180.894 123.785 181.102 123.641 181.374C123.501 181.646 123.431 181.966 123.431 182.334V186H122.471V179.856H123.395V180.798C123.591 180.438 123.855 180.168 124.187 179.988C124.519 179.804 124.911 179.712 125.363 179.712ZM133.756 186H132.766V177.6H134.038L137.02 184.47L137.182 184.914L137.338 184.47L140.242 177.6H141.55V186H140.554V179.028L137.596 186H136.726L133.756 179.064V186ZM147.926 179.856H148.886V186H147.962V185.058C147.766 185.418 147.502 185.69 147.17 185.874C146.838 186.054 146.446 186.144 145.994 186.144C145.534 186.144 145.132 186.046 144.788 185.85C144.444 185.65 144.178 185.368 143.99 185.004C143.806 184.64 143.714 184.216 143.714 183.732V179.856H144.674V183.66C144.674 184.184 144.808 184.594 145.076 184.89C145.348 185.182 145.724 185.328 146.204 185.328C146.548 185.328 146.85 185.256 147.11 185.112C147.37 184.964 147.57 184.754 147.71 184.482C147.854 184.21 147.926 183.89 147.926 183.522V179.856ZM151.908 186H150.948V177.6H151.908V186ZM155.621 186C155.177 186 154.825 185.882 154.565 185.646C154.309 185.41 154.181 185.084 154.181 184.668L154.175 180.708H153.095L153.101 179.856H153.767C153.919 179.856 154.041 179.808 154.133 179.712C154.229 179.616 154.277 179.494 154.277 179.346V178.32H155.141V179.856H156.623L156.617 180.708H155.135L155.141 184.608C155.141 184.776 155.189 184.908 155.285 185.004C155.385 185.1 155.517 185.148 155.681 185.148H156.617V186H155.621ZM159.197 186H158.237V179.856H159.197V186ZM158.171 178.74V177.6H159.263V178.74H158.171ZM164.369 179.712C164.925 179.712 165.429 179.852 165.881 180.132C166.333 180.412 166.687 180.798 166.943 181.29C167.199 181.778 167.327 182.324 167.327 182.928C167.327 183.532 167.199 184.08 166.943 184.572C166.687 185.06 166.333 185.444 165.881 185.724C165.429 186.004 164.925 186.144 164.369 186.144C163.901 186.144 163.479 186.042 163.103 185.838C162.727 185.634 162.421 185.344 162.185 184.968V185.358L162.209 187.932H161.261V179.856H162.185V180.894C162.421 180.514 162.727 180.222 163.103 180.018C163.479 179.814 163.901 179.712 164.369 179.712ZM164.279 185.28C164.667 185.28 165.015 185.178 165.323 184.974C165.635 184.77 165.879 184.49 166.055 184.134C166.231 183.774 166.319 183.372 166.319 182.928C166.319 182.484 166.231 182.084 166.055 181.728C165.879 181.368 165.635 181.086 165.323 180.882C165.015 180.678 164.667 180.576 164.279 180.576C163.887 180.576 163.533 180.678 163.217 180.882C162.905 181.086 162.661 181.368 162.485 181.728C162.309 182.084 162.221 182.484 162.221 182.928C162.221 183.372 162.309 183.774 162.485 184.134C162.661 184.49 162.905 184.77 163.217 184.974C163.533 185.178 163.887 185.28 164.279 185.28ZM169.849 186H168.889V177.6H169.849V186ZM174.241 179.712C174.705 179.712 175.111 179.798 175.459 179.97C175.811 180.138 176.083 180.384 176.275 180.708C176.467 181.032 176.563 181.422 176.563 181.878V186H175.627V185.088C175.439 185.432 175.169 185.694 174.817 185.874C174.469 186.054 174.051 186.144 173.563 186.144C173.159 186.144 172.799 186.07 172.483 185.922C172.171 185.77 171.927 185.56 171.751 185.292C171.579 185.024 171.493 184.718 171.493 184.374C171.493 184.054 171.573 183.76 171.733 183.492C171.897 183.22 172.123 182.998 172.411 182.826C172.699 182.654 173.025 182.55 173.389 182.514L175.183 182.334C175.315 182.322 175.419 182.266 175.495 182.166C175.575 182.066 175.615 181.922 175.615 181.734C175.615 181.49 175.555 181.276 175.435 181.092C175.319 180.908 175.155 180.766 174.943 180.666C174.735 180.566 174.493 180.516 174.217 180.516C173.945 180.516 173.697 180.562 173.473 180.654C173.249 180.746 173.067 180.872 172.927 181.032C172.787 181.192 172.705 181.368 172.681 181.56H171.745C171.781 181.22 171.913 180.91 172.141 180.63C172.369 180.346 172.667 180.122 173.035 179.958C173.403 179.794 173.805 179.712 174.241 179.712ZM173.743 185.394C174.107 185.394 174.431 185.324 174.715 185.184C174.999 185.04 175.219 184.84 175.375 184.584C175.535 184.324 175.615 184.03 175.615 183.702V183.006L173.521 183.222C173.201 183.254 172.943 183.372 172.747 183.576C172.551 183.78 172.453 184.028 172.453 184.32C172.453 184.528 172.507 184.714 172.615 184.878C172.723 185.038 172.875 185.164 173.071 185.256C173.267 185.348 173.491 185.394 173.743 185.394ZM180.137 186C179.693 186 179.341 185.882 179.081 185.646C178.825 185.41 178.697 185.084 178.697 184.668L178.691 180.708H177.611L177.617 179.856H178.283C178.435 179.856 178.557 179.808 178.649 179.712C178.745 179.616 178.793 179.494 178.793 179.346V178.32H179.657V179.856H181.139L181.133 180.708H179.651L179.657 184.608C179.657 184.776 179.705 184.908 179.801 185.004C179.901 185.1 180.033 185.148 180.197 185.148H181.133V186H180.137ZM183.017 186V180.708H181.937V179.856H183.017V178.932C183.017 178.516 183.143 178.19 183.395 177.954C183.651 177.718 184.005 177.6 184.457 177.6H185.561V178.452H184.517C184.345 178.452 184.211 178.5 184.115 178.596C184.023 178.692 183.977 178.824 183.977 178.992V179.856H185.501V180.708H183.977V186H183.017ZM189.464 186.144C188.88 186.144 188.354 186.006 187.886 185.73C187.418 185.45 187.05 185.066 186.782 184.578C186.514 184.09 186.38 183.54 186.38 182.928C186.38 182.316 186.514 181.766 186.782 181.278C187.05 180.79 187.42 180.408 187.892 180.132C188.364 179.852 188.892 179.712 189.476 179.712C190.06 179.712 190.588 179.852 191.06 180.132C191.532 180.408 191.902 180.79 192.17 181.278C192.438 181.766 192.572 182.316 192.572 182.928C192.572 183.54 192.436 184.09 192.164 184.578C191.896 185.066 191.526 185.45 191.054 185.73C190.582 186.006 190.052 186.144 189.464 186.144ZM189.476 185.256C189.876 185.256 190.234 185.16 190.55 184.968C190.866 184.772 191.114 184.498 191.294 184.146C191.474 183.794 191.564 183.388 191.564 182.928C191.564 182.468 191.474 182.062 191.294 181.71C191.114 181.354 190.866 181.08 190.55 180.888C190.234 180.692 189.876 180.594 189.476 180.594C189.076 180.594 188.718 180.692 188.402 180.888C188.086 181.08 187.838 181.354 187.658 181.71C187.478 182.062 187.388 182.468 187.388 182.928C187.388 183.388 187.478 183.794 187.658 184.146C187.838 184.498 188.086 184.772 188.402 184.968C188.718 185.16 189.076 185.256 189.476 185.256ZM197.125 179.796V180.798H196.903C196.343 180.798 195.903 180.966 195.583 181.302C195.263 181.638 195.103 182.11 195.103 182.718V186H194.143V179.856H195.103V181.092C195.275 180.676 195.515 180.356 195.823 180.132C196.135 179.908 196.507 179.796 196.939 179.796H197.125ZM205.272 179.712C205.72 179.712 206.112 179.814 206.448 180.018C206.788 180.218 207.048 180.5 207.228 180.864C207.412 181.228 207.504 181.648 207.504 182.124V186H206.544V182.166C206.544 181.646 206.42 181.244 206.172 180.96C205.928 180.672 205.58 180.528 205.128 180.528C204.784 180.528 204.486 180.61 204.234 180.774C203.982 180.934 203.788 181.164 203.652 181.464C203.516 181.764 203.448 182.114 203.448 182.514V186H202.488V182.166C202.488 181.65 202.36 181.248 202.104 180.96C201.848 180.672 201.492 180.528 201.036 180.528C200.692 180.528 200.396 180.61 200.148 180.774C199.904 180.934 199.716 181.164 199.584 181.464C199.456 181.764 199.392 182.114 199.392 182.514V186H198.432V179.856H199.356V180.762C199.548 180.426 199.8 180.168 200.112 179.988C200.428 179.804 200.794 179.712 201.21 179.712C201.658 179.712 202.056 179.82 202.404 180.036C202.752 180.252 203.016 180.55 203.196 180.93C203.404 180.546 203.686 180.248 204.042 180.036C204.402 179.82 204.812 179.712 205.272 179.712ZM136.49 193.712C137.046 193.712 137.55 193.852 138.002 194.132C138.454 194.412 138.808 194.798 139.064 195.29C139.32 195.778 139.448 196.324 139.448 196.928C139.448 197.532 139.32 198.08 139.064 198.572C138.808 199.06 138.454 199.444 138.002 199.724C137.55 200.004 137.046 200.144 136.49 200.144C136.022 200.144 135.6 200.042 135.224 199.838C134.848 199.634 134.542 199.344 134.306 198.968V199.358L134.33 201.932H133.382V193.856H134.306V194.894C134.542 194.514 134.848 194.222 135.224 194.018C135.6 193.814 136.022 193.712 136.49 193.712ZM136.4 199.28C136.788 199.28 137.136 199.178 137.444 198.974C137.756 198.77 138 198.49 138.176 198.134C138.352 197.774 138.44 197.372 138.44 196.928C138.44 196.484 138.352 196.084 138.176 195.728C138 195.368 137.756 195.086 137.444 194.882C137.136 194.678 136.788 194.576 136.4 194.576C136.008 194.576 135.654 194.678 135.338 194.882C135.026 195.086 134.782 195.368 134.606 195.728C134.43 196.084 134.342 196.484 134.342 196.928C134.342 197.372 134.43 197.774 134.606 198.134C134.782 198.49 135.026 198.77 135.338 198.974C135.654 199.178 136.008 199.28 136.4 199.28ZM143.993 193.796V194.798H143.771C143.211 194.798 142.771 194.966 142.451 195.302C142.131 195.638 141.971 196.11 141.971 196.718V200H141.011V193.856H141.971V195.092C142.143 194.676 142.383 194.356 142.691 194.132C143.003 193.908 143.375 193.796 143.807 193.796H143.993ZM147.85 200.144C147.266 200.144 146.74 200.006 146.272 199.73C145.804 199.45 145.436 199.066 145.168 198.578C144.9 198.09 144.766 197.54 144.766 196.928C144.766 196.316 144.9 195.766 145.168 195.278C145.436 194.79 145.806 194.408 146.278 194.132C146.75 193.852 147.278 193.712 147.862 193.712C148.446 193.712 148.974 193.852 149.446 194.132C149.918 194.408 150.288 194.79 150.556 195.278C150.824 195.766 150.958 196.316 150.958 196.928C150.958 197.54 150.822 198.09 150.55 198.578C150.282 199.066 149.912 199.45 149.44 199.73C148.968 200.006 148.438 200.144 147.85 200.144ZM147.862 199.256C148.262 199.256 148.62 199.16 148.936 198.968C149.252 198.772 149.5 198.498 149.68 198.146C149.86 197.794 149.95 197.388 149.95 196.928C149.95 196.468 149.86 196.062 149.68 195.71C149.5 195.354 149.252 195.08 148.936 194.888C148.62 194.692 148.262 194.594 147.862 194.594C147.462 194.594 147.104 194.692 146.788 194.888C146.472 195.08 146.224 195.354 146.044 195.71C145.864 196.062 145.774 196.468 145.774 196.928C145.774 197.388 145.864 197.794 146.044 198.146C146.224 198.498 146.472 198.772 146.788 198.968C147.104 199.16 147.462 199.256 147.862 199.256ZM151.138 201.92V201.008H152.026C152.19 201.008 152.32 200.958 152.416 200.858C152.516 200.758 152.566 200.626 152.566 200.462V193.856H153.526V200.54C153.526 200.816 153.466 201.058 153.346 201.266C153.23 201.474 153.062 201.634 152.842 201.746C152.626 201.862 152.374 201.92 152.086 201.92H151.138ZM152.5 192.74V191.6H153.592V192.74H152.5ZM160.888 197.162H156.016C156.052 197.582 156.162 197.954 156.346 198.278C156.53 198.602 156.772 198.854 157.072 199.034C157.372 199.214 157.712 199.304 158.092 199.304C158.348 199.304 158.594 199.264 158.83 199.184C159.066 199.104 159.272 198.992 159.448 198.848C159.624 198.704 159.75 198.54 159.826 198.356H160.75C160.682 198.692 160.516 198.996 160.252 199.268C159.992 199.54 159.666 199.754 159.274 199.91C158.886 200.066 158.472 200.144 158.032 200.144C157.452 200.144 156.932 200.006 156.472 199.73C156.016 199.454 155.66 199.072 155.404 198.584C155.148 198.092 155.02 197.536 155.02 196.916C155.02 196.312 155.15 195.766 155.41 195.278C155.67 194.79 156.028 194.408 156.484 194.132C156.944 193.852 157.46 193.712 158.032 193.712C158.576 193.712 159.064 193.852 159.496 194.132C159.932 194.408 160.272 194.792 160.516 195.284C160.764 195.772 160.888 196.32 160.888 196.928V197.162ZM158.044 194.558C157.504 194.558 157.056 194.72 156.7 195.044C156.344 195.368 156.124 195.81 156.04 196.37H159.886C159.802 195.814 159.596 195.374 159.268 195.05C158.944 194.722 158.536 194.558 158.044 194.558ZM165.03 200.144C164.45 200.144 163.926 200.004 163.458 199.724C162.99 199.444 162.622 199.06 162.354 198.572C162.09 198.08 161.958 197.532 161.958 196.928C161.958 196.324 162.09 195.778 162.354 195.29C162.622 194.798 162.99 194.412 163.458 194.132C163.926 193.852 164.45 193.712 165.03 193.712C165.526 193.712 165.982 193.81 166.398 194.006C166.814 194.198 167.15 194.466 167.406 194.81C167.666 195.15 167.816 195.532 167.856 195.956H166.896C166.848 195.692 166.734 195.454 166.554 195.242C166.378 195.03 166.156 194.864 165.888 194.744C165.624 194.624 165.338 194.564 165.03 194.564C164.638 194.564 164.284 194.668 163.968 194.876C163.656 195.08 163.41 195.362 163.23 195.722C163.054 196.082 162.966 196.484 162.966 196.928C162.966 197.372 163.054 197.774 163.23 198.134C163.41 198.494 163.656 198.776 163.968 198.98C164.284 199.184 164.638 199.286 165.03 199.286C165.338 199.286 165.624 199.228 165.888 199.112C166.156 198.996 166.378 198.838 166.554 198.638C166.734 198.434 166.848 198.208 166.896 197.96H167.856C167.82 198.372 167.672 198.744 167.412 199.076C167.156 199.408 166.82 199.67 166.404 199.862C165.988 200.05 165.53 200.144 165.03 200.144ZM171.067 200C170.623 200 170.271 199.882 170.011 199.646C169.755 199.41 169.627 199.084 169.627 198.668L169.621 194.708H168.541L168.547 193.856H169.213C169.365 193.856 169.487 193.808 169.579 193.712C169.675 193.616 169.723 193.494 169.723 193.346V192.32H170.587V193.856H172.069L172.063 194.708H170.581L170.587 198.608C170.587 198.776 170.635 198.908 170.731 199.004C170.831 199.1 170.963 199.148 171.127 199.148H172.063V200H171.067Z" fill="white"/>
<rect x="265" y="240" width="167" height="46" rx="12" fill="#F2F2F2"/>
<path d="M308.844 267H307.884V260.856H308.844V267ZM307.818 259.74V258.6H308.91V259.74H307.818ZM314.699 267.144C313.923 267.144 313.219 266.956 312.587 266.58C311.955 266.2 311.457 265.68 311.093 265.02C310.729 264.356 310.547 263.616 310.547 262.8C310.547 261.984 310.729 261.246 311.093 260.586C311.457 259.922 311.955 259.402 312.587 259.026C313.219 258.646 313.923 258.456 314.699 258.456C315.471 258.456 316.173 258.646 316.805 259.026C317.441 259.402 317.941 259.922 318.305 260.586C318.669 261.246 318.851 261.984 318.851 262.8C318.851 263.616 318.669 264.356 318.305 265.02C317.941 265.68 317.441 266.2 316.805 266.58C316.173 266.956 315.471 267.144 314.699 267.144ZM314.699 266.232C315.287 266.232 315.819 266.086 316.295 265.794C316.771 265.498 317.143 265.09 317.411 264.57C317.683 264.046 317.819 263.456 317.819 262.8C317.819 262.14 317.685 261.55 317.417 261.03C317.153 260.506 316.783 260.098 316.307 259.806C315.835 259.514 315.299 259.368 314.699 259.368C314.107 259.368 313.573 259.516 313.097 259.812C312.625 260.104 312.253 260.51 311.981 261.03C311.713 261.55 311.579 262.14 311.579 262.8C311.579 263.46 311.713 264.05 311.981 264.57C312.253 265.09 312.625 265.498 313.097 265.794C313.573 266.086 314.107 266.232 314.699 266.232ZM323.132 267.144C322.556 267.144 322.044 267.038 321.596 266.826C321.152 266.614 320.806 266.318 320.558 265.938C320.31 265.558 320.186 265.122 320.186 264.63H321.206C321.206 264.946 321.288 265.226 321.452 265.47C321.616 265.714 321.844 265.904 322.136 266.04C322.432 266.176 322.768 266.244 323.144 266.244C323.516 266.244 323.846 266.18 324.134 266.052C324.426 265.924 324.652 265.744 324.812 265.512C324.972 265.28 325.052 265.014 325.052 264.714C325.052 264.362 324.942 264.06 324.722 263.808C324.502 263.552 324.198 263.386 323.81 263.31L322.334 263.022C321.938 262.946 321.594 262.802 321.302 262.59C321.014 262.374 320.792 262.108 320.636 261.792C320.48 261.476 320.402 261.132 320.402 260.76C320.402 260.312 320.518 259.914 320.75 259.566C320.982 259.218 321.304 258.946 321.716 258.75C322.128 258.554 322.596 258.456 323.12 258.456C323.652 258.456 324.126 258.556 324.542 258.756C324.962 258.952 325.288 259.226 325.52 259.578C325.756 259.93 325.874 260.332 325.874 260.784H324.854C324.854 260.508 324.78 260.262 324.632 260.046C324.488 259.83 324.284 259.662 324.02 259.542C323.76 259.418 323.464 259.356 323.132 259.356C322.8 259.356 322.502 259.416 322.238 259.536C321.978 259.656 321.774 259.824 321.626 260.04C321.482 260.256 321.41 260.504 321.41 260.784C321.41 261.12 321.51 261.404 321.71 261.636C321.91 261.864 322.194 262.016 322.562 262.092L324.104 262.398C324.488 262.474 324.828 262.624 325.124 262.848C325.42 263.068 325.65 263.34 325.814 263.664C325.982 263.988 326.066 264.338 326.066 264.714C326.066 265.19 325.94 265.612 325.688 265.98C325.44 266.348 325.092 266.634 324.644 266.838C324.2 267.042 323.696 267.144 323.132 267.144ZM331.058 267V261.708H329.978V260.856H331.058V259.932C331.058 259.516 331.184 259.19 331.436 258.954C331.692 258.718 332.046 258.6 332.498 258.6H333.602V259.452H332.558C332.386 259.452 332.252 259.5 332.156 259.596C332.064 259.692 332.018 259.824 332.018 259.992V260.856H333.542V261.708H332.018V267H331.058ZM338.1 260.796V261.798H337.878C337.318 261.798 336.878 261.966 336.558 262.302C336.238 262.638 336.078 263.11 336.078 263.718V267H335.118V260.856H336.078V262.092C336.25 261.676 336.49 261.356 336.798 261.132C337.11 260.908 337.482 260.796 337.914 260.796H338.1ZM341.641 260.712C342.105 260.712 342.511 260.798 342.859 260.97C343.211 261.138 343.483 261.384 343.675 261.708C343.867 262.032 343.963 262.422 343.963 262.878V267H343.027V266.088C342.839 266.432 342.569 266.694 342.217 266.874C341.869 267.054 341.451 267.144 340.963 267.144C340.559 267.144 340.199 267.07 339.883 266.922C339.571 266.77 339.327 266.56 339.151 266.292C338.979 266.024 338.893 265.718 338.893 265.374C338.893 265.054 338.973 264.76 339.133 264.492C339.297 264.22 339.523 263.998 339.811 263.826C340.099 263.654 340.425 263.55 340.789 263.514L342.583 263.334C342.715 263.322 342.819 263.266 342.895 263.166C342.975 263.066 343.015 262.922 343.015 262.734C343.015 262.49 342.955 262.276 342.835 262.092C342.719 261.908 342.555 261.766 342.343 261.666C342.135 261.566 341.893 261.516 341.617 261.516C341.345 261.516 341.097 261.562 340.873 261.654C340.649 261.746 340.467 261.872 340.327 262.032C340.187 262.192 340.105 262.368 340.081 262.56H339.145C339.181 262.22 339.313 261.91 339.541 261.63C339.769 261.346 340.067 261.122 340.435 260.958C340.803 260.794 341.205 260.712 341.641 260.712ZM341.143 266.394C341.507 266.394 341.831 266.324 342.115 266.184C342.399 266.04 342.619 265.84 342.775 265.584C342.935 265.324 343.015 265.03 343.015 264.702V264.006L340.921 264.222C340.601 264.254 340.343 264.372 340.147 264.576C339.951 264.78 339.853 265.028 339.853 265.32C339.853 265.528 339.907 265.714 340.015 265.878C340.123 266.038 340.275 266.164 340.471 266.256C340.667 266.348 340.891 266.394 341.143 266.394ZM352.727 260.712C353.175 260.712 353.567 260.814 353.903 261.018C354.243 261.218 354.503 261.5 354.683 261.864C354.867 262.228 354.959 262.648 354.959 263.124V267H353.999V263.166C353.999 262.646 353.875 262.244 353.627 261.96C353.383 261.672 353.035 261.528 352.583 261.528C352.239 261.528 351.941 261.61 351.689 261.774C351.437 261.934 351.243 262.164 351.107 262.464C350.971 262.764 350.903 263.114 350.903 263.514V267H349.943V263.166C349.943 262.65 349.815 262.248 349.559 261.96C349.303 261.672 348.947 261.528 348.491 261.528C348.147 261.528 347.851 261.61 347.603 261.774C347.359 261.934 347.171 262.164 347.039 262.464C346.911 262.764 346.847 263.114 346.847 263.514V267H345.887V260.856H346.811V261.762C347.003 261.426 347.255 261.168 347.567 260.988C347.883 260.804 348.249 260.712 348.665 260.712C349.113 260.712 349.511 260.82 349.859 261.036C350.207 261.252 350.471 261.55 350.651 261.93C350.859 261.546 351.141 261.248 351.497 261.036C351.857 260.82 352.267 260.712 352.727 260.712ZM362.25 264.162H357.378C357.414 264.582 357.524 264.954 357.708 265.278C357.892 265.602 358.134 265.854 358.434 266.034C358.734 266.214 359.074 266.304 359.454 266.304C359.71 266.304 359.956 266.264 360.192 266.184C360.428 266.104 360.634 265.992 360.81 265.848C360.986 265.704 361.112 265.54 361.188 265.356H362.112C362.044 265.692 361.878 265.996 361.614 266.268C361.354 266.54 361.028 266.754 360.636 266.91C360.248 267.066 359.834 267.144 359.394 267.144C358.814 267.144 358.294 267.006 357.834 266.73C357.378 266.454 357.022 266.072 356.766 265.584C356.51 265.092 356.382 264.536 356.382 263.916C356.382 263.312 356.512 262.766 356.772 262.278C357.032 261.79 357.39 261.408 357.846 261.132C358.306 260.852 358.822 260.712 359.394 260.712C359.938 260.712 360.426 260.852 360.858 261.132C361.294 261.408 361.634 261.792 361.878 262.284C362.126 262.772 362.25 263.32 362.25 263.928V264.162ZM359.406 261.558C358.866 261.558 358.418 261.72 358.062 262.044C357.706 262.368 357.486 262.81 357.402 263.37H361.248C361.164 262.814 360.958 262.374 360.63 262.05C360.306 261.722 359.898 261.558 359.406 261.558ZM366.027 267H365.031L363.009 260.856H364.029L365.433 265.374L365.571 265.866L365.691 265.374L367.149 260.856H368.139L369.603 265.374L369.735 265.866L369.861 265.374L371.229 260.856H372.225L370.203 267H369.195L367.755 262.278L367.641 261.882L367.539 262.266L366.027 267ZM376.071 267.144C375.487 267.144 374.961 267.006 374.493 266.73C374.025 266.45 373.657 266.066 373.389 265.578C373.121 265.09 372.987 264.54 372.987 263.928C372.987 263.316 373.121 262.766 373.389 262.278C373.657 261.79 374.027 261.408 374.499 261.132C374.971 260.852 375.499 260.712 376.083 260.712C376.667 260.712 377.195 260.852 377.667 261.132C378.139 261.408 378.509 261.79 378.777 262.278C379.045 262.766 379.179 263.316 379.179 263.928C379.179 264.54 379.043 265.09 378.771 265.578C378.503 266.066 378.133 266.45 377.661 266.73C377.189 267.006 376.659 267.144 376.071 267.144ZM376.083 266.256C376.483 266.256 376.841 266.16 377.157 265.968C377.473 265.772 377.721 265.498 377.901 265.146C378.081 264.794 378.171 264.388 378.171 263.928C378.171 263.468 378.081 263.062 377.901 262.71C377.721 262.354 377.473 262.08 377.157 261.888C376.841 261.692 376.483 261.594 376.083 261.594C375.683 261.594 375.325 261.692 375.009 261.888C374.693 262.08 374.445 262.354 374.265 262.71C374.085 263.062 373.995 263.468 373.995 263.928C373.995 264.388 374.085 264.794 374.265 265.146C374.445 265.498 374.693 265.772 375.009 265.968C375.325 266.16 375.683 266.256 376.083 266.256ZM383.733 260.796V261.798H383.511C382.951 261.798 382.511 261.966 382.191 262.302C381.871 262.638 381.711 263.11 381.711 263.718V267H380.751V260.856H381.711V262.092C381.883 261.676 382.123 261.356 382.431 261.132C382.743 260.908 383.115 260.796 383.547 260.796H383.733ZM386 267H385.04V258.6H386V263.694L388.778 260.856H389.978L387.098 263.778L390.086 267H388.862L386 263.898V267Z" fill="black"/>
<path d="M189.578 254.88H190.353L190.342 259.595C190.342 260.038 190.248 260.418 190.058 260.735C189.871 261.055 189.601 261.298 189.248 261.465C188.898 261.635 188.484 261.72 188.008 261.72C187.571 261.72 187.181 261.647 186.838 261.5C186.498 261.357 186.226 261.155 186.023 260.895C185.819 260.635 185.699 260.335 185.663 259.995H186.463C186.506 260.195 186.598 260.373 186.738 260.53C186.878 260.69 187.056 260.813 187.273 260.9C187.493 260.99 187.738 261.035 188.008 261.035C188.484 261.035 188.858 260.908 189.128 260.655C189.401 260.405 189.538 260.052 189.538 259.595V259.24L189.553 258.715C189.359 258.988 189.113 259.2 188.813 259.35C188.516 259.497 188.184 259.57 187.817 259.57C187.384 259.57 186.996 259.468 186.653 259.265C186.313 259.062 186.046 258.778 185.853 258.415C185.663 258.052 185.568 257.638 185.568 257.175C185.568 256.712 185.663 256.298 185.853 255.935C186.046 255.572 186.313 255.288 186.653 255.085C186.996 254.882 187.384 254.78 187.817 254.78C188.191 254.78 188.529 254.858 188.833 255.015C189.136 255.168 189.384 255.387 189.578 255.67V254.88ZM187.963 258.87C188.269 258.87 188.543 258.8 188.783 258.66C189.023 258.52 189.209 258.322 189.343 258.065C189.479 257.808 189.548 257.512 189.548 257.175C189.548 256.838 189.479 256.542 189.343 256.285C189.209 256.028 189.023 255.83 188.783 255.69C188.543 255.55 188.269 255.48 187.963 255.48C187.659 255.48 187.389 255.552 187.153 255.695C186.916 255.835 186.733 256.033 186.603 256.29C186.473 256.543 186.408 256.838 186.408 257.175C186.408 257.512 186.473 257.808 186.603 258.065C186.733 258.318 186.916 258.517 187.153 258.66C187.389 258.8 187.659 258.87 187.963 258.87ZM196.501 257.635H192.441C192.471 257.985 192.563 258.295 192.716 258.565C192.869 258.835 193.071 259.045 193.321 259.195C193.571 259.345 193.854 259.42 194.171 259.42C194.384 259.42 194.589 259.387 194.786 259.32C194.983 259.253 195.154 259.16 195.301 259.04C195.448 258.92 195.553 258.783 195.616 258.63H196.386C196.329 258.91 196.191 259.163 195.971 259.39C195.754 259.617 195.483 259.795 195.156 259.925C194.833 260.055 194.488 260.12 194.121 260.12C193.638 260.12 193.204 260.005 192.821 259.775C192.441 259.545 192.144 259.227 191.931 258.82C191.718 258.41 191.611 257.947 191.611 257.43C191.611 256.927 191.719 256.472 191.936 256.065C192.153 255.658 192.451 255.34 192.831 255.11C193.214 254.877 193.644 254.76 194.121 254.76C194.574 254.76 194.981 254.877 195.341 255.11C195.704 255.34 195.988 255.66 196.191 256.07C196.398 256.477 196.501 256.933 196.501 257.44V257.635ZM194.131 255.465C193.681 255.465 193.308 255.6 193.011 255.87C192.714 256.14 192.531 256.508 192.461 256.975H195.666C195.596 256.512 195.424 256.145 195.151 255.875C194.881 255.602 194.541 255.465 194.131 255.465ZM200.217 254.76C200.601 254.76 200.936 254.843 201.222 255.01C201.509 255.173 201.729 255.407 201.882 255.71C202.039 256.013 202.117 256.367 202.117 256.77V260H201.317V256.83C201.317 256.393 201.204 256.053 200.977 255.81C200.754 255.563 200.442 255.44 200.042 255.44C199.756 255.44 199.504 255.502 199.287 255.625C199.071 255.745 198.902 255.918 198.782 256.145C198.666 256.372 198.607 256.638 198.607 256.945V260H197.807V254.88H198.577V255.665C198.741 255.365 198.961 255.14 199.237 254.99C199.514 254.837 199.841 254.76 200.217 254.76ZM208.19 257.635H204.13C204.16 257.985 204.252 258.295 204.405 258.565C204.559 258.835 204.76 259.045 205.01 259.195C205.26 259.345 205.544 259.42 205.86 259.42C206.074 259.42 206.279 259.387 206.475 259.32C206.672 259.253 206.844 259.16 206.99 259.04C207.137 258.92 207.242 258.783 207.305 258.63H208.075C208.019 258.91 207.88 259.163 207.66 259.39C207.444 259.617 207.172 259.795 206.845 259.925C206.522 260.055 206.177 260.12 205.81 260.12C205.327 260.12 204.894 260.005 204.51 259.775C204.13 259.545 203.834 259.227 203.62 258.82C203.407 258.41 203.3 257.947 203.3 257.43C203.3 256.927 203.409 256.472 203.625 256.065C203.842 255.658 204.14 255.34 204.52 255.11C204.904 254.877 205.334 254.76 205.81 254.76C206.264 254.76 206.67 254.877 207.03 255.11C207.394 255.34 207.677 255.66 207.88 256.07C208.087 256.477 208.19 256.933 208.19 257.44V257.635ZM205.82 255.465C205.37 255.465 204.997 255.6 204.7 255.87C204.404 256.14 204.22 256.508 204.15 256.975H207.355C207.285 256.512 207.114 256.145 206.84 255.875C206.57 255.602 206.23 255.465 205.82 255.465ZM211.982 254.83V255.665H211.797C211.33 255.665 210.963 255.805 210.697 256.085C210.43 256.365 210.297 256.758 210.297 257.265V260H209.497V254.88H210.297V255.91C210.44 255.563 210.64 255.297 210.897 255.11C211.157 254.923 211.467 254.83 211.827 254.83H211.982ZM214.933 254.76C215.319 254.76 215.658 254.832 215.948 254.975C216.241 255.115 216.468 255.32 216.628 255.59C216.788 255.86 216.868 256.185 216.868 256.565V260H216.088V259.24C215.931 259.527 215.706 259.745 215.413 259.895C215.123 260.045 214.774 260.12 214.368 260.12C214.031 260.12 213.731 260.058 213.468 259.935C213.208 259.808 213.004 259.633 212.858 259.41C212.714 259.187 212.643 258.932 212.643 258.645C212.643 258.378 212.709 258.133 212.843 257.91C212.979 257.683 213.168 257.498 213.408 257.355C213.648 257.212 213.919 257.125 214.223 257.095L215.718 256.945C215.828 256.935 215.914 256.888 215.978 256.805C216.044 256.722 216.078 256.602 216.078 256.445C216.078 256.242 216.028 256.063 215.928 255.91C215.831 255.757 215.694 255.638 215.518 255.555C215.344 255.472 215.143 255.43 214.913 255.43C214.686 255.43 214.479 255.468 214.293 255.545C214.106 255.622 213.954 255.727 213.838 255.86C213.721 255.993 213.653 256.14 213.633 256.3H212.853C212.883 256.017 212.993 255.758 213.183 255.525C213.373 255.288 213.621 255.102 213.928 254.965C214.234 254.828 214.569 254.76 214.933 254.76ZM214.518 259.495C214.821 259.495 215.091 259.437 215.328 259.32C215.564 259.2 215.748 259.033 215.878 258.82C216.011 258.603 216.078 258.358 216.078 258.085V257.505L214.333 257.685C214.066 257.712 213.851 257.81 213.688 257.98C213.524 258.15 213.443 258.357 213.443 258.6C213.443 258.773 213.488 258.928 213.578 259.065C213.668 259.198 213.794 259.303 213.958 259.38C214.121 259.457 214.308 259.495 214.518 259.495ZM219.846 260C219.476 260 219.183 259.902 218.966 259.705C218.753 259.508 218.646 259.237 218.646 258.89L218.641 255.59H217.741L217.746 254.88H218.301C218.428 254.88 218.53 254.84 218.606 254.76C218.686 254.68 218.726 254.578 218.726 254.455V253.6H219.446V254.88H220.681L220.676 255.59H219.441L219.446 258.84C219.446 258.98 219.486 259.09 219.566 259.17C219.65 259.25 219.76 259.29 219.896 259.29H220.676V260H219.846ZM226.501 257.635H222.441C222.471 257.985 222.563 258.295 222.716 258.565C222.869 258.835 223.071 259.045 223.321 259.195C223.571 259.345 223.854 259.42 224.171 259.42C224.384 259.42 224.589 259.387 224.786 259.32C224.983 259.253 225.154 259.16 225.301 259.04C225.448 258.92 225.553 258.783 225.616 258.63H226.386C226.329 258.91 226.191 259.163 225.971 259.39C225.754 259.617 225.483 259.795 225.156 259.925C224.833 260.055 224.488 260.12 224.121 260.12C223.638 260.12 223.204 260.005 222.821 259.775C222.441 259.545 222.144 259.227 221.931 258.82C221.718 258.41 221.611 257.947 221.611 257.43C221.611 256.927 221.719 256.472 221.936 256.065C222.153 255.658 222.451 255.34 222.831 255.11C223.214 254.877 223.644 254.76 224.121 254.76C224.574 254.76 224.981 254.877 225.341 255.11C225.704 255.34 225.988 255.66 226.191 256.07C226.398 256.477 226.501 256.933 226.501 257.44V257.635ZM224.131 255.465C223.681 255.465 223.308 255.6 223.011 255.87C222.714 256.14 222.531 256.508 222.461 256.975H225.666C225.596 256.512 225.424 256.145 225.151 255.875C224.881 255.602 224.541 255.465 224.131 255.465ZM229.502 260.12C229.086 260.12 228.717 260.055 228.397 259.925C228.081 259.792 227.834 259.608 227.657 259.375C227.484 259.142 227.396 258.877 227.392 258.58H228.192C228.199 258.753 228.257 258.907 228.367 259.04C228.477 259.173 228.627 259.278 228.817 259.355C229.011 259.428 229.231 259.465 229.477 259.465C229.857 259.465 230.152 259.385 230.362 259.225C230.572 259.065 230.677 258.847 230.677 258.57C230.677 258.357 230.612 258.183 230.482 258.05C230.356 257.913 230.167 257.825 229.917 257.785L228.987 257.64C228.541 257.57 228.192 257.408 227.942 257.155C227.692 256.898 227.567 256.58 227.567 256.2C227.567 255.92 227.646 255.672 227.802 255.455C227.962 255.235 228.182 255.065 228.462 254.945C228.746 254.822 229.066 254.76 229.422 254.76C229.789 254.76 230.117 254.822 230.407 254.945C230.701 255.068 230.931 255.24 231.097 255.46C231.267 255.677 231.356 255.923 231.362 256.2H230.562C230.559 256.053 230.506 255.92 230.402 255.8C230.302 255.68 230.166 255.587 229.992 255.52C229.819 255.45 229.626 255.415 229.412 255.415C229.206 255.415 229.019 255.448 228.852 255.515C228.689 255.578 228.561 255.668 228.467 255.785C228.377 255.898 228.332 256.03 228.332 256.18C228.332 256.38 228.392 256.542 228.512 256.665C228.632 256.785 228.809 256.863 229.042 256.9L230.002 257.055C230.469 257.128 230.826 257.295 231.072 257.555C231.322 257.815 231.447 258.147 231.447 258.55C231.447 258.863 231.367 259.138 231.207 259.375C231.047 259.612 230.821 259.795 230.527 259.925C230.234 260.055 229.892 260.12 229.502 260.12Z" fill="#595959"/>
<path d="M439.66 262H438.86V256.88H439.66V262ZM438.805 255.95V255H439.715V255.95H438.805ZM443.075 262.12C442.658 262.12 442.29 262.055 441.97 261.925C441.653 261.792 441.406 261.608 441.23 261.375C441.056 261.142 440.968 260.877 440.965 260.58H441.765C441.771 260.753 441.83 260.907 441.94 261.04C442.05 261.173 442.2 261.278 442.39 261.355C442.583 261.428 442.803 261.465 443.05 261.465C443.43 261.465 443.725 261.385 443.935 261.225C444.145 261.065 444.25 260.847 444.25 260.57C444.25 260.357 444.185 260.183 444.055 260.05C443.928 259.913 443.74 259.825 443.49 259.785L442.56 259.64C442.113 259.57 441.765 259.408 441.515 259.155C441.265 258.898 441.14 258.58 441.14 258.2C441.14 257.92 441.218 257.672 441.375 257.455C441.535 257.235 441.755 257.065 442.035 256.945C442.318 256.822 442.638 256.76 442.995 256.76C443.361 256.76 443.69 256.822 443.98 256.945C444.273 257.068 444.503 257.24 444.67 257.46C444.84 257.677 444.928 257.923 444.935 258.2H444.135C444.131 258.053 444.078 257.92 443.975 257.8C443.875 257.68 443.738 257.587 443.565 257.52C443.391 257.45 443.198 257.415 442.985 257.415C442.778 257.415 442.591 257.448 442.425 257.515C442.261 257.578 442.133 257.668 442.04 257.785C441.95 257.898 441.905 258.03 441.905 258.18C441.905 258.38 441.965 258.542 442.085 258.665C442.205 258.785 442.381 258.863 442.615 258.9L443.575 259.055C444.041 259.128 444.398 259.295 444.645 259.555C444.895 259.815 445.02 260.147 445.02 260.55C445.02 260.863 444.94 261.138 444.78 261.375C444.62 261.612 444.393 261.795 444.1 261.925C443.806 262.055 443.465 262.12 443.075 262.12ZM450.839 262.12C450.356 262.12 449.919 262.003 449.529 261.77C449.139 261.537 448.832 261.217 448.609 260.81C448.389 260.4 448.279 259.943 448.279 259.44C448.279 258.937 448.389 258.482 448.609 258.075C448.832 257.665 449.139 257.343 449.529 257.11C449.919 256.877 450.356 256.76 450.839 256.76C451.252 256.76 451.632 256.842 451.979 257.005C452.326 257.165 452.606 257.388 452.819 257.675C453.036 257.958 453.161 258.277 453.194 258.63H452.394C452.354 258.41 452.259 258.212 452.109 258.035C451.962 257.858 451.777 257.72 451.554 257.62C451.334 257.52 451.096 257.47 450.839 257.47C450.512 257.47 450.217 257.557 449.954 257.73C449.694 257.9 449.489 258.135 449.339 258.435C449.192 258.735 449.119 259.07 449.119 259.44C449.119 259.81 449.192 260.145 449.339 260.445C449.489 260.745 449.694 260.98 449.954 261.15C450.217 261.32 450.512 261.405 450.839 261.405C451.096 261.405 451.334 261.357 451.554 261.26C451.777 261.163 451.962 261.032 452.109 260.865C452.259 260.695 452.354 260.507 452.394 260.3H453.194C453.164 260.643 453.041 260.953 452.824 261.23C452.611 261.507 452.331 261.725 451.984 261.885C451.637 262.042 451.256 262.12 450.839 262.12ZM456.65 262.12C456.163 262.12 455.725 262.005 455.335 261.775C454.945 261.542 454.638 261.222 454.415 260.815C454.191 260.408 454.08 259.95 454.08 259.44C454.08 258.93 454.191 258.472 454.415 258.065C454.638 257.658 454.946 257.34 455.34 257.11C455.733 256.877 456.173 256.76 456.66 256.76C457.146 256.76 457.586 256.877 457.98 257.11C458.373 257.34 458.681 257.658 458.905 258.065C459.128 258.472 459.24 258.93 459.24 259.44C459.24 259.95 459.126 260.408 458.9 260.815C458.676 261.222 458.368 261.542 457.975 261.775C457.581 262.005 457.14 262.12 456.65 262.12ZM456.66 261.38C456.993 261.38 457.291 261.3 457.555 261.14C457.818 260.977 458.025 260.748 458.175 260.455C458.325 260.162 458.4 259.823 458.4 259.44C458.4 259.057 458.325 258.718 458.175 258.425C458.025 258.128 457.818 257.9 457.555 257.74C457.291 257.577 456.993 257.495 456.66 257.495C456.326 257.495 456.028 257.577 455.765 257.74C455.501 257.9 455.295 258.128 455.145 258.425C454.995 258.718 454.92 259.057 454.92 259.44C454.92 259.823 454.995 260.162 455.145 260.455C455.295 260.748 455.501 260.977 455.765 261.14C456.028 261.3 456.326 261.38 456.66 261.38ZM462.959 256.76C463.343 256.76 463.678 256.843 463.964 257.01C464.251 257.173 464.471 257.407 464.624 257.71C464.781 258.013 464.859 258.367 464.859 258.77V262H464.059V258.83C464.059 258.393 463.946 258.053 463.719 257.81C463.496 257.563 463.184 257.44 462.784 257.44C462.498 257.44 462.246 257.502 462.029 257.625C461.813 257.745 461.644 257.918 461.524 258.145C461.408 258.372 461.349 258.638 461.349 258.945V262H460.549V256.88H461.319V257.665C461.483 257.365 461.703 257.14 461.979 256.99C462.256 256.837 462.583 256.76 462.959 256.76ZM468.868 256.76C469.251 256.76 469.586 256.843 469.873 257.01C470.159 257.173 470.379 257.407 470.533 257.71C470.689 258.013 470.768 258.367 470.768 258.77V262H469.968V258.83C469.968 258.393 469.854 258.053 469.628 257.81C469.404 257.563 469.093 257.44 468.693 257.44C468.406 257.44 468.154 257.502 467.938 257.625C467.721 257.745 467.553 257.918 467.433 258.145C467.316 258.372 467.258 258.638 467.258 258.945V262H466.458V256.88H467.228V257.665C467.391 257.365 467.611 257.14 467.888 256.99C468.164 256.837 468.491 256.76 468.868 256.76ZM476.841 259.635H472.781C472.811 259.985 472.903 260.295 473.056 260.565C473.209 260.835 473.411 261.045 473.661 261.195C473.911 261.345 474.194 261.42 474.511 261.42C474.724 261.42 474.929 261.387 475.126 261.32C475.323 261.253 475.494 261.16 475.641 261.04C475.788 260.92 475.893 260.783 475.956 260.63H476.726C476.669 260.91 476.531 261.163 476.311 261.39C476.094 261.617 475.823 261.795 475.496 261.925C475.173 262.055 474.828 262.12 474.461 262.12C473.978 262.12 473.544 262.005 473.161 261.775C472.781 261.545 472.484 261.227 472.271 260.82C472.058 260.41 471.951 259.947 471.951 259.43C471.951 258.927 472.059 258.472 472.276 258.065C472.493 257.658 472.791 257.34 473.171 257.11C473.554 256.877 473.984 256.76 474.461 256.76C474.914 256.76 475.321 256.877 475.681 257.11C476.044 257.34 476.328 257.66 476.531 258.07C476.738 258.477 476.841 258.933 476.841 259.44V259.635ZM474.471 257.465C474.021 257.465 473.648 257.6 473.351 257.87C473.054 258.14 472.871 258.508 472.801 258.975H476.006C475.936 258.512 475.764 258.145 475.491 257.875C475.221 257.602 474.881 257.465 474.471 257.465ZM480.292 262.12C479.809 262.12 479.372 262.003 478.982 261.77C478.592 261.537 478.285 261.217 478.062 260.81C477.842 260.4 477.732 259.943 477.732 259.44C477.732 258.937 477.842 258.482 478.062 258.075C478.285 257.665 478.592 257.343 478.982 257.11C479.372 256.877 479.809 256.76 480.292 256.76C480.705 256.76 481.085 256.842 481.432 257.005C481.779 257.165 482.059 257.388 482.272 257.675C482.489 257.958 482.614 258.277 482.647 258.63H481.847C481.807 258.41 481.712 258.212 481.562 258.035C481.415 257.858 481.23 257.72 481.007 257.62C480.787 257.52 480.549 257.47 480.292 257.47C479.965 257.47 479.67 257.557 479.407 257.73C479.147 257.9 478.942 258.135 478.792 258.435C478.645 258.735 478.572 259.07 478.572 259.44C478.572 259.81 478.645 260.145 478.792 260.445C478.942 260.745 479.147 260.98 479.407 261.15C479.67 261.32 479.965 261.405 480.292 261.405C480.549 261.405 480.787 261.357 481.007 261.26C481.23 261.163 481.415 261.032 481.562 260.865C481.712 260.695 481.807 260.507 481.847 260.3H482.647C482.617 260.643 482.494 260.953 482.277 261.23C482.064 261.507 481.784 261.725 481.437 261.885C481.09 262.042 480.709 262.12 480.292 262.12ZM485.323 262C484.953 262 484.66 261.902 484.443 261.705C484.23 261.508 484.123 261.237 484.123 260.89L484.118 257.59H483.218L483.223 256.88H483.778C483.905 256.88 484.006 256.84 484.083 256.76C484.163 256.68 484.203 256.578 484.203 256.455V255.6H484.923V256.88H486.158L486.153 257.59H484.918L484.923 260.84C484.923 260.98 484.963 261.09 485.043 261.17C485.126 261.25 485.236 261.29 485.373 261.29H486.153V262H485.323ZM491.978 259.635H487.918C487.948 259.985 488.039 260.295 488.193 260.565C488.346 260.835 488.548 261.045 488.798 261.195C489.048 261.345 489.331 261.42 489.648 261.42C489.861 261.42 490.066 261.387 490.263 261.32C490.459 261.253 490.631 261.16 490.778 261.04C490.924 260.92 491.029 260.783 491.093 260.63H491.863C491.806 260.91 491.668 261.163 491.448 261.39C491.231 261.617 490.959 261.795 490.633 261.925C490.309 262.055 489.964 262.12 489.598 262.12C489.114 262.12 488.681 262.005 488.298 261.775C487.918 261.545 487.621 261.227 487.408 260.82C487.194 260.41 487.088 259.947 487.088 259.43C487.088 258.927 487.196 258.472 487.413 258.065C487.629 257.658 487.928 257.34 488.308 257.11C488.691 256.877 489.121 256.76 489.598 256.76C490.051 256.76 490.458 256.877 490.818 257.11C491.181 257.34 491.464 257.66 491.668 258.07C491.874 258.477 491.978 258.933 491.978 259.44V259.635ZM489.608 257.465C489.158 257.465 488.784 257.6 488.488 257.87C488.191 258.14 488.008 258.508 487.938 258.975H491.143C491.073 258.512 490.901 258.145 490.628 257.875C490.358 257.602 490.018 257.465 489.608 257.465ZM497.919 256.88H497.924V262H497.154V261.14C496.957 261.453 496.702 261.695 496.389 261.865C496.075 262.035 495.724 262.12 495.334 262.12C494.87 262.12 494.45 262.003 494.074 261.77C493.697 261.537 493.402 261.217 493.189 260.81C492.975 260.4 492.869 259.943 492.869 259.44C492.869 258.937 492.975 258.482 493.189 258.075C493.402 257.665 493.697 257.343 494.074 257.11C494.45 256.877 494.87 256.76 495.334 256.76C495.724 256.76 496.074 256.845 496.384 257.015C496.697 257.185 496.952 257.427 497.149 257.74L497.119 255H497.919V256.88ZM495.409 261.4C495.735 261.4 496.029 261.315 496.289 261.145C496.552 260.975 496.757 260.742 496.904 260.445C497.05 260.145 497.124 259.81 497.124 259.44C497.124 259.07 497.05 258.737 496.904 258.44C496.757 258.14 496.552 257.905 496.289 257.735C496.029 257.565 495.735 257.48 495.409 257.48C495.085 257.48 494.794 257.565 494.534 257.735C494.277 257.905 494.075 258.14 493.929 258.44C493.782 258.737 493.709 259.07 493.709 259.44C493.709 259.81 493.782 260.145 493.929 260.445C494.075 260.742 494.277 260.975 494.534 261.145C494.794 261.315 495.085 261.4 495.409 261.4ZM504.146 262H503.296L501.301 256.88H502.171L503.751 261.065L505.301 256.88H506.141L504.146 262ZM508.019 262H507.219V256.88H508.019V262ZM507.164 255.95V255H508.074V255.95H507.164ZM511.679 256.76C512.066 256.76 512.404 256.832 512.694 256.975C512.987 257.115 513.214 257.32 513.374 257.59C513.534 257.86 513.614 258.185 513.614 258.565V262H512.834V261.24C512.677 261.527 512.452 261.745 512.159 261.895C511.869 262.045 511.521 262.12 511.114 262.12C510.777 262.12 510.477 262.058 510.214 261.935C509.954 261.808 509.751 261.633 509.604 261.41C509.461 261.187 509.389 260.932 509.389 260.645C509.389 260.378 509.456 260.133 509.589 259.91C509.726 259.683 509.914 259.498 510.154 259.355C510.394 259.212 510.666 259.125 510.969 259.095L512.464 258.945C512.574 258.935 512.661 258.888 512.724 258.805C512.791 258.722 512.824 258.602 512.824 258.445C512.824 258.242 512.774 258.063 512.674 257.91C512.577 257.757 512.441 257.638 512.264 257.555C512.091 257.472 511.889 257.43 511.659 257.43C511.432 257.43 511.226 257.468 511.039 257.545C510.852 257.622 510.701 257.727 510.584 257.86C510.467 257.993 510.399 258.14 510.379 258.3H509.599C509.629 258.017 509.739 257.758 509.929 257.525C510.119 257.288 510.367 257.102 510.674 256.965C510.981 256.828 511.316 256.76 511.679 256.76ZM511.264 261.495C511.567 261.495 511.837 261.437 512.074 261.32C512.311 261.2 512.494 261.033 512.624 260.82C512.757 260.603 512.824 260.358 512.824 260.085V259.505L511.079 259.685C510.812 259.712 510.597 259.81 510.434 259.98C510.271 260.15 510.189 260.357 510.189 260.6C510.189 260.773 510.234 260.928 510.324 261.065C510.414 261.198 510.541 261.303 510.704 261.38C510.867 261.457 511.054 261.495 511.264 261.495ZM443.495 268.88H443.5V274H442.73V273.14C442.533 273.453 442.278 273.695 441.965 273.865C441.652 274.035 441.3 274.12 440.91 274.12C440.447 274.12 440.027 274.003 439.65 273.77C439.273 273.537 438.978 273.217 438.765 272.81C438.552 272.4 438.445 271.943 438.445 271.44C438.445 270.937 438.552 270.482 438.765 270.075C438.978 269.665 439.273 269.343 439.65 269.11C440.027 268.877 440.447 268.76 440.91 268.76C441.3 268.76 441.65 268.845 441.96 269.015C442.273 269.185 442.528 269.427 442.725 269.74L442.695 267H443.495V268.88ZM440.985 273.4C441.312 273.4 441.605 273.315 441.865 273.145C442.128 272.975 442.333 272.742 442.48 272.445C442.627 272.145 442.7 271.81 442.7 271.44C442.7 271.07 442.627 270.737 442.48 270.44C442.333 270.14 442.128 269.905 441.865 269.735C441.605 269.565 441.312 269.48 440.985 269.48C440.662 269.48 440.37 269.565 440.11 269.735C439.853 269.905 439.652 270.14 439.505 270.44C439.358 270.737 439.285 271.07 439.285 271.44C439.285 271.81 439.358 272.145 439.505 272.445C439.652 272.742 439.853 272.975 440.11 273.145C440.37 273.315 440.662 273.4 440.985 273.4ZM445.978 274H445.178V268.88H445.978V274ZM445.123 267.95V267H446.033V267.95H445.123ZM450.183 268.83V269.665H449.998C449.531 269.665 449.165 269.805 448.898 270.085C448.631 270.365 448.498 270.758 448.498 271.265V274H447.698V268.88H448.498V269.91C448.641 269.563 448.841 269.297 449.098 269.11C449.358 268.923 449.668 268.83 450.028 268.83H450.183ZM455.718 271.635H451.658C451.688 271.985 451.779 272.295 451.933 272.565C452.086 272.835 452.288 273.045 452.538 273.195C452.788 273.345 453.071 273.42 453.388 273.42C453.601 273.42 453.806 273.387 454.003 273.32C454.199 273.253 454.371 273.16 454.518 273.04C454.664 272.92 454.769 272.783 454.833 272.63H455.603C455.546 272.91 455.408 273.163 455.188 273.39C454.971 273.617 454.699 273.795 454.373 273.925C454.049 274.055 453.704 274.12 453.338 274.12C452.854 274.12 452.421 274.005 452.038 273.775C451.658 273.545 451.361 273.227 451.148 272.82C450.934 272.41 450.828 271.947 450.828 271.43C450.828 270.927 450.936 270.472 451.153 270.065C451.369 269.658 451.668 269.34 452.048 269.11C452.431 268.877 452.861 268.76 453.338 268.76C453.791 268.76 454.198 268.877 454.558 269.11C454.921 269.34 455.204 269.66 455.408 270.07C455.614 270.477 455.718 270.933 455.718 271.44V271.635ZM453.348 269.465C452.898 269.465 452.524 269.6 452.228 269.87C451.931 270.14 451.748 270.508 451.678 270.975H454.883C454.813 270.512 454.641 270.145 454.368 269.875C454.098 269.602 453.758 269.465 453.348 269.465ZM459.169 274.12C458.686 274.12 458.249 274.003 457.859 273.77C457.469 273.537 457.162 273.217 456.939 272.81C456.719 272.4 456.609 271.943 456.609 271.44C456.609 270.937 456.719 270.482 456.939 270.075C457.162 269.665 457.469 269.343 457.859 269.11C458.249 268.877 458.686 268.76 459.169 268.76C459.582 268.76 459.962 268.842 460.309 269.005C460.656 269.165 460.936 269.388 461.149 269.675C461.366 269.958 461.491 270.277 461.524 270.63H460.724C460.684 270.41 460.589 270.212 460.439 270.035C460.292 269.858 460.107 269.72 459.884 269.62C459.664 269.52 459.426 269.47 459.169 269.47C458.842 269.47 458.547 269.557 458.284 269.73C458.024 269.9 457.819 270.135 457.669 270.435C457.522 270.735 457.449 271.07 457.449 271.44C457.449 271.81 457.522 272.145 457.669 272.445C457.819 272.745 458.024 272.98 458.284 273.15C458.547 273.32 458.842 273.405 459.169 273.405C459.426 273.405 459.664 273.357 459.884 273.26C460.107 273.163 460.292 273.032 460.439 272.865C460.589 272.695 460.684 272.507 460.724 272.3H461.524C461.494 272.643 461.371 272.953 461.154 273.23C460.941 273.507 460.661 273.725 460.314 273.885C459.967 274.042 459.586 274.12 459.169 274.12ZM464.2 274C463.83 274 463.537 273.902 463.32 273.705C463.107 273.508 463 273.237 463 272.89L462.995 269.59H462.095L462.1 268.88H462.655C462.782 268.88 462.883 268.84 462.96 268.76C463.04 268.68 463.08 268.578 463.08 268.455V267.6H463.8V268.88H465.035L465.03 269.59H463.795L463.8 272.84C463.8 272.98 463.84 273.09 463.92 273.17C464.003 273.25 464.113 273.29 464.25 273.29H465.03V274H464.2ZM469.65 274H468.85V268.88H469.65V274ZM468.795 267.95V267H469.705V267.95H468.795ZM473.78 268.76C474.163 268.76 474.498 268.843 474.785 269.01C475.071 269.173 475.291 269.407 475.445 269.71C475.601 270.013 475.68 270.367 475.68 270.77V274H474.88V270.83C474.88 270.393 474.766 270.053 474.54 269.81C474.316 269.563 474.005 269.44 473.605 269.44C473.318 269.44 473.066 269.502 472.85 269.625C472.633 269.745 472.465 269.918 472.345 270.145C472.228 270.372 472.17 270.638 472.17 270.945V274H471.37V268.88H472.14V269.665C472.303 269.365 472.523 269.14 472.8 268.99C473.076 268.837 473.403 268.76 473.78 268.76ZM478.653 274C478.283 274 477.99 273.902 477.773 273.705C477.56 273.508 477.453 273.237 477.453 272.89L477.448 269.59H476.548L476.553 268.88H477.108C477.235 268.88 477.336 268.84 477.413 268.76C477.493 268.68 477.533 268.578 477.533 268.455V267.6H478.253V268.88H479.488L479.483 269.59H478.248L478.253 272.84C478.253 272.98 478.293 273.09 478.373 273.17C478.456 273.25 478.566 273.29 478.703 273.29H479.483V274H478.653ZM485.308 271.635H481.248C481.278 271.985 481.369 272.295 481.523 272.565C481.676 272.835 481.878 273.045 482.128 273.195C482.378 273.345 482.661 273.42 482.978 273.42C483.191 273.42 483.396 273.387 483.593 273.32C483.789 273.253 483.961 273.16 484.108 273.04C484.254 272.92 484.359 272.783 484.423 272.63H485.193C485.136 272.91 484.998 273.163 484.778 273.39C484.561 273.617 484.289 273.795 483.963 273.925C483.639 274.055 483.294 274.12 482.928 274.12C482.444 274.12 482.011 274.005 481.628 273.775C481.248 273.545 480.951 273.227 480.738 272.82C480.524 272.41 480.418 271.947 480.418 271.43C480.418 270.927 480.526 270.472 480.743 270.065C480.959 269.658 481.258 269.34 481.638 269.11C482.021 268.877 482.451 268.76 482.928 268.76C483.381 268.76 483.788 268.877 484.148 269.11C484.511 269.34 484.794 269.66 484.998 270.07C485.204 270.477 485.308 270.933 485.308 271.44V271.635ZM482.938 269.465C482.488 269.465 482.114 269.6 481.818 269.87C481.521 270.14 481.338 270.508 481.268 270.975H484.473C484.403 270.512 484.231 270.145 483.958 269.875C483.688 269.602 483.348 269.465 482.938 269.465ZM490.269 268.88H491.044L491.034 273.595C491.034 274.038 490.939 274.418 490.749 274.735C490.562 275.055 490.292 275.298 489.939 275.465C489.589 275.635 489.176 275.72 488.699 275.72C488.262 275.72 487.872 275.647 487.529 275.5C487.189 275.357 486.917 275.155 486.714 274.895C486.511 274.635 486.391 274.335 486.354 273.995H487.154C487.197 274.195 487.289 274.373 487.429 274.53C487.569 274.69 487.747 274.813 487.964 274.9C488.184 274.99 488.429 275.035 488.699 275.035C489.176 275.035 489.549 274.908 489.819 274.655C490.092 274.405 490.229 274.052 490.229 273.595V273.24L490.244 272.715C490.051 272.988 489.804 273.2 489.504 273.35C489.207 273.497 488.876 273.57 488.509 273.57C488.076 273.57 487.687 273.468 487.344 273.265C487.004 273.062 486.737 272.778 486.544 272.415C486.354 272.052 486.259 271.638 486.259 271.175C486.259 270.712 486.354 270.298 486.544 269.935C486.737 269.572 487.004 269.288 487.344 269.085C487.687 268.882 488.076 268.78 488.509 268.78C488.882 268.78 489.221 268.858 489.524 269.015C489.827 269.168 490.076 269.387 490.269 269.67V268.88ZM488.654 272.87C488.961 272.87 489.234 272.8 489.474 272.66C489.714 272.52 489.901 272.322 490.034 272.065C490.171 271.808 490.239 271.512 490.239 271.175C490.239 270.838 490.171 270.542 490.034 270.285C489.901 270.028 489.714 269.83 489.474 269.69C489.234 269.55 488.961 269.48 488.654 269.48C488.351 269.48 488.081 269.552 487.844 269.695C487.607 269.835 487.424 270.033 487.294 270.29C487.164 270.543 487.099 270.838 487.099 271.175C487.099 271.512 487.164 271.808 487.294 272.065C487.424 272.318 487.607 272.517 487.844 272.66C488.081 272.8 488.351 272.87 488.654 272.87ZM495.202 268.83V269.665H495.017C494.551 269.665 494.184 269.805 493.917 270.085C493.651 270.365 493.517 270.758 493.517 271.265V274H492.717V268.88H493.517V269.91C493.661 269.563 493.861 269.297 494.117 269.11C494.377 268.923 494.687 268.83 495.047 268.83H495.202ZM498.154 268.76C498.54 268.76 498.879 268.832 499.169 268.975C499.462 269.115 499.689 269.32 499.849 269.59C500.009 269.86 500.089 270.185 500.089 270.565V274H499.309V273.24C499.152 273.527 498.927 273.745 498.634 273.895C498.344 274.045 497.995 274.12 497.589 274.12C497.252 274.12 496.952 274.058 496.689 273.935C496.429 273.808 496.225 273.633 496.079 273.41C495.935 273.187 495.864 272.932 495.864 272.645C495.864 272.378 495.93 272.133 496.064 271.91C496.2 271.683 496.389 271.498 496.629 271.355C496.869 271.212 497.14 271.125 497.444 271.095L498.939 270.945C499.049 270.935 499.135 270.888 499.199 270.805C499.265 270.722 499.299 270.602 499.299 270.445C499.299 270.242 499.249 270.063 499.149 269.91C499.052 269.757 498.915 269.638 498.739 269.555C498.565 269.472 498.364 269.43 498.134 269.43C497.907 269.43 497.7 269.468 497.514 269.545C497.327 269.622 497.175 269.727 497.059 269.86C496.942 269.993 496.874 270.14 496.854 270.3H496.074C496.104 270.017 496.214 269.758 496.404 269.525C496.594 269.288 496.842 269.102 497.149 268.965C497.455 268.828 497.79 268.76 498.154 268.76ZM497.739 273.495C498.042 273.495 498.312 273.437 498.549 273.32C498.785 273.2 498.969 273.033 499.099 272.82C499.232 272.603 499.299 272.358 499.299 272.085V271.505L497.554 271.685C497.287 271.712 497.072 271.81 496.909 271.98C496.745 272.15 496.664 272.357 496.664 272.6C496.664 272.773 496.709 272.928 496.799 273.065C496.889 273.198 497.015 273.303 497.179 273.38C497.342 273.457 497.529 273.495 497.739 273.495ZM503.067 274C502.697 274 502.404 273.902 502.187 273.705C501.974 273.508 501.867 273.237 501.867 272.89L501.862 269.59H500.962L500.967 268.88H501.522C501.649 268.88 501.75 268.84 501.827 268.76C501.907 268.68 501.947 268.578 501.947 268.455V267.6H502.667V268.88H503.902L503.897 269.59H502.662L502.667 272.84C502.667 272.98 502.707 273.09 502.787 273.17C502.87 273.25 502.98 273.29 503.117 273.29H503.897V274H503.067ZM506.047 274H505.247V268.88H506.047V274ZM505.192 267.95V267H506.102V267.95H505.192ZM509.921 274.12C509.435 274.12 508.996 274.005 508.606 273.775C508.216 273.542 507.91 273.222 507.686 272.815C507.463 272.408 507.351 271.95 507.351 271.44C507.351 270.93 507.463 270.472 507.686 270.065C507.91 269.658 508.218 269.34 508.611 269.11C509.005 268.877 509.445 268.76 509.931 268.76C510.418 268.76 510.858 268.877 511.251 269.11C511.645 269.34 511.953 269.658 512.176 270.065C512.4 270.472 512.511 270.93 512.511 271.44C512.511 271.95 512.398 272.408 512.171 272.815C511.948 273.222 511.64 273.542 511.246 273.775C510.853 274.005 510.411 274.12 509.921 274.12ZM509.931 273.38C510.265 273.38 510.563 273.3 510.826 273.14C511.09 272.977 511.296 272.748 511.446 272.455C511.596 272.162 511.671 271.823 511.671 271.44C511.671 271.057 511.596 270.718 511.446 270.425C511.296 270.128 511.09 269.9 510.826 269.74C510.563 269.577 510.265 269.495 509.931 269.495C509.598 269.495 509.3 269.577 509.036 269.74C508.773 269.9 508.566 270.128 508.416 270.425C508.266 270.718 508.191 271.057 508.191 271.44C508.191 271.823 508.266 272.162 508.416 272.455C508.566 272.748 508.773 272.977 509.036 273.14C509.3 273.3 509.598 273.38 509.931 273.38ZM516.231 268.76C516.614 268.76 516.949 268.843 517.236 269.01C517.523 269.173 517.743 269.407 517.896 269.71C518.053 270.013 518.131 270.367 518.131 270.77V274H517.331V270.83C517.331 270.393 517.218 270.053 516.991 269.81C516.768 269.563 516.456 269.44 516.056 269.44C515.769 269.44 515.518 269.502 515.301 269.625C515.084 269.745 514.916 269.918 514.796 270.145C514.679 270.372 514.621 270.638 514.621 270.945V274H513.821V268.88H514.591V269.665C514.754 269.365 514.974 269.14 515.251 268.99C515.528 268.837 515.854 268.76 516.231 268.76Z" fill="#595959"/>
<defs>
<radialGradient id="paint0_radial_1544_2" cx="0" cy="0" r="1" gradientUnits="userSpaceOnUse" gradientTransform="translate(453.449 212.784) scale(192.038 192.458)">
<stop stop-color="#EB4857"/>
<stop offset="0.5" stop-color="#C611E0"/>
<stop offset="1" stop-color="#7F52FF"/>
</radialGradient>
<radialGradient id="paint1_radial_1544_2" cx="0" cy="0" r="1" gradientUnits="userSpaceOnUse" gradientTransform="translate(53.4487 212.784) scale(192.038 192.458)">
<stop stop-color="#EB4857"/>
<stop offset="0.5" stop-color="#C611E0"/>
<stop offset="1" stop-color="#7F52FF"/>
</radialGradient>
</defs>
</svg>
