<?xml version="1.0" encoding="utf-8"?>
<!-- Generator: Adobe Illustrator 27.5.0, SVG Export Plug-In . SVG Version: 6.00 Build 0)  -->
<svg version="1.1" id="Layer_1" xmlns="http://www.w3.org/2000/svg" xmlns:xlink="http://www.w3.org/1999/xlink" x="0px" y="0px"
	 viewBox="0 0 700 395" style="enable-background:new 0 0 700 395;" xml:space="preserve">
<style type="text/css">
	.st0{fill:#FFFFFF;}
	.st1{fill:none;stroke:#000000;stroke-width:0.5469;stroke-miterlimit:10;}
	.st2{fill:#F2F2F2;}
	.st3{fill:none;stroke:#595959;stroke-width:0.5469;stroke-miterlimit:10;}
	.st4{fill:url(#SVGID_1_);}
	.st5{fill:url(#SVGID_00000017503148503844013230000005783869896247089301_);}
	.st6{fill:url(#SVGID_00000121277161092499597470000007259372065973304505_);}
	.st7{fill:#595959;}
	.st8{fill:url(#SVGID_00000179624498256765417300000015791555524725540755_);}
	.st9{fill:url(#SVGID_00000034800765595442320200000007548143321800752263_);}
	.st10{fill:url(#SVGID_00000122718775038756115410000001679249798654092422_);}
	.st11{fill:url(#SVGID_00000002379654818086564130000007465932085154386603_);}
	.st12{fill:url(#SVGID_00000139989695253162071070000016789568357342395534_);}
	.st13{fill:url(#SVGID_00000080911749694572308130000001541543293771278750_);}
	.st14{fill:url(#SVGID_00000025437969611815411580000006550235876255585461_);}
	.st15{fill:url(#SVGID_00000129918550804280969610000005877934770343659162_);}
	.st16{fill:url(#SVGID_00000076572028463870539580000003499697933590498721_);}
	.st17{fill:url(#SVGID_00000087377821485935161500000007026386742803092393_);}
	.st18{fill:url(#SVGID_00000116929459501333287890000016904850196534467998_);}
	.st19{fill:none;stroke:#000000;stroke-width:0.5469;stroke-miterlimit:10;stroke-dasharray:1.5,2.5,1.5,2.5,1.5,2.5;}
	.st20{fill:url(#SVGID_00000036934330214144090340000014935316129202891910_);}
	.st21{fill:url(#SVGID_00000104669749321596245130000000098924177583030697_);}
	.st22{fill:url(#SVGID_00000171694224863842077130000000801702374814822802_);}
	.st23{fill:url(#SVGID_00000004512760961455181100000015623328072763347644_);}
	.st24{fill:url(#SVGID_00000010301355169635571960000015072587812473468040_);}
	.st25{fill:url(#SVGID_00000028295376556981484340000007306248687957852296_);}
	.st26{fill:url(#SVGID_00000135664184427369746960000007771510225128486545_);}
	.st27{fill:url(#SVGID_00000139261265618066423400000017630716977231982762_);}
	.st28{fill:url(#SVGID_00000065787644050720932330000016190998981848249781_);}
	.st29{fill:url(#SVGID_00000128470450376028340590000013334398666238714763_);}
	.st30{fill:url(#SVGID_00000063607980618539901050000017659867628808828073_);}
	.st31{fill:url(#SVGID_00000109745778221196564430000013238439683277808790_);}
	.st32{fill:url(#SVGID_00000040575994006109927830000010072444770403787700_);}
	.st33{fill:url(#SVGID_00000135653761714923506310000008607089396334974623_);}
	.st34{fill:url(#SVGID_00000152942651891947998910000001038500890493461413_);}
	.st35{fill:url(#SVGID_00000124135979269292921480000018322509320336907181_);}
	.st36{fill:url(#SVGID_00000165942772550956797660000008178229158677025173_);}
	.st37{fill:url(#SVGID_00000014602056101438682960000016934477484632618159_);}
	.st38{fill:url(#SVGID_00000101785744016251423080000004010162817284051602_);}
	.st39{fill:url(#SVGID_00000041982664400854086580000004956810321310645132_);}
	.st40{fill:url(#SVGID_00000017512751706086454120000011900142736213808785_);}
	.st41{fill:url(#SVGID_00000172407734161229111800000006839914608079887766_);}
	.st42{fill:#7F52FF;}
	.st43{opacity:0.35;}
	.st44{fill:url(#SVGID_00000076574066942078329220000004241085854676685495_);}
	.st45{fill:none;stroke:#000000;stroke-width:0.4423;stroke-miterlimit:10;}
</style>
<g>
	<rect class="st0" width="700" height="395"/>
</g>
<g>
	<path class="st1" d="M262.82,134.43l-125.46,0c-8.05,0-14.58-6.53-14.58-14.58l0-30.23"/>
	<path class="st1" d="M443.92,129.96l118.76,0c8.05,0,14.58-6.53,14.58-14.58l0-45.76"/>
	<g>
		<path class="st1" d="M429.25,137.97l55.53,0c8.05,0,14.58,6.53,14.58,14.58"/>
		<path class="st1" d="M429.25,358.32l55.53,0c8.05,0,14.58-6.53,14.58-14.58l0-95.82"/>
		<path class="st1" d="M429.25,283.57l55.53,0c8.05,0,14.58-6.53,14.58-14.58l0-116.43"/>
		<path class="st1" d="M429.25,208.87l55.53,0c8.05,0,14.58-6.53,14.58-14.58"/>
	</g>
	<g>
		<path class="st3" d="M665.12,20.29l-175.76,0c-8.05,0-14.58,6.53-14.58,14.58v60.39c0,8.05,6.53,14.58,14.58,14.58l175.76,0
			c8.05,0,14.58-6.53,14.58-14.58V34.87C679.71,26.82,673.18,20.29,665.12,20.29z"/>
		<g>
			<g>
				<g>
					<path class="st7" d="M488.21,35.42l-2.38-3.52h0.99l1.68,2.56l0.22,0.31l0.35-0.53l1.56-2.35h0.97l-2.4,3.5l2.5,3.65h-0.99
						l-1.8-2.67l-0.23-0.33l-0.38,0.58l-1.6,2.43h-0.97L488.21,35.42z"/>
					<path class="st7" d="M493.14,38.82c-0.4-0.24-0.71-0.57-0.94-0.98c-0.23-0.42-0.34-0.88-0.34-1.4c0-0.51,0.11-0.98,0.34-1.4
						c0.23-0.42,0.54-0.74,0.94-0.98c0.4-0.24,0.84-0.36,1.34-0.36c0.42,0,0.79,0.07,1.13,0.21c0.33,0.14,0.61,0.35,0.83,0.63
						c0.22,0.28,0.37,0.62,0.45,1.03h-0.82c-0.08-0.25-0.19-0.46-0.35-0.63s-0.35-0.3-0.56-0.38c-0.21-0.08-0.44-0.12-0.68-0.12
						c-0.34,0-0.64,0.09-0.91,0.26c-0.27,0.17-0.48,0.41-0.62,0.71s-0.22,0.65-0.22,1.03c0,0.38,0.08,0.72,0.22,1.03
						c0.15,0.3,0.36,0.54,0.62,0.71c0.27,0.17,0.57,0.26,0.91,0.26c0.24,0,0.47-0.04,0.68-0.12c0.21-0.08,0.4-0.21,0.56-0.38
						c0.16-0.17,0.28-0.38,0.35-0.63h0.82c-0.08,0.4-0.23,0.73-0.46,1.02c-0.23,0.28-0.51,0.5-0.85,0.64s-0.71,0.22-1.11,0.22
						C493.99,39.17,493.54,39.06,493.14,38.82z"/>
					<path class="st7" d="M498.88,38.82c-0.41-0.24-0.73-0.56-0.96-0.98s-0.35-0.88-0.35-1.4c0-0.52,0.12-0.98,0.35-1.4
						c0.23-0.42,0.55-0.74,0.96-0.98s0.86-0.35,1.36-0.35c0.5,0,0.95,0.12,1.35,0.35c0.4,0.24,0.72,0.56,0.96,0.98
						c0.23,0.42,0.35,0.88,0.35,1.4c0,0.52-0.12,0.99-0.35,1.4c-0.23,0.42-0.55,0.74-0.96,0.98c-0.41,0.24-0.86,0.35-1.36,0.35
						C499.74,39.17,499.29,39.06,498.88,38.82z M501.17,38.18c0.27-0.17,0.49-0.4,0.64-0.7c0.16-0.3,0.24-0.65,0.24-1.04
						c0-0.39-0.08-0.74-0.24-1.04s-0.37-0.54-0.65-0.7c-0.27-0.17-0.58-0.25-0.92-0.25c-0.34,0-0.65,0.08-0.92,0.25
						c-0.28,0.17-0.49,0.4-0.65,0.7s-0.24,0.65-0.24,1.04c0,0.39,0.08,0.74,0.24,1.04c0.16,0.3,0.38,0.54,0.65,0.7
						s0.59,0.25,0.93,0.25C500.59,38.43,500.89,38.35,501.17,38.18z"/>
					<path class="st7" d="M504.8,38.83c-0.38-0.23-0.68-0.55-0.89-0.97c-0.21-0.42-0.32-0.89-0.32-1.42s0.11-1.01,0.32-1.42
						c0.21-0.42,0.51-0.74,0.89-0.97s0.81-0.34,1.3-0.34c0.45,0,0.85,0.1,1.19,0.3c0.34,0.2,0.61,0.48,0.8,0.84s0.29,0.77,0.3,1.25
						h-0.34v0.7h0.34c-0.01,0.47-0.11,0.89-0.3,1.25c-0.19,0.36-0.46,0.64-0.8,0.84s-0.74,0.3-1.19,0.3
						C505.61,39.17,505.18,39.06,504.8,38.83z M507.16,38.18c0.27-0.17,0.48-0.4,0.64-0.7c0.15-0.3,0.23-0.65,0.23-1.04
						c0-0.39-0.08-0.74-0.23-1.04s-0.36-0.54-0.64-0.7c-0.27-0.17-0.58-0.25-0.93-0.25c-0.35,0-0.66,0.08-0.92,0.25
						c-0.27,0.17-0.48,0.4-0.63,0.7s-0.22,0.65-0.22,1.04c0,0.39,0.08,0.74,0.22,1.04c0.15,0.3,0.36,0.54,0.63,0.7
						s0.58,0.25,0.92,0.25C506.58,38.43,506.89,38.35,507.16,38.18z M508.01,31.91h0.82v7.15h-0.82V31.91z"/>
					<path class="st7" d="M511.13,38.82c-0.39-0.23-0.7-0.56-0.92-0.98c-0.22-0.42-0.33-0.89-0.33-1.42c0-0.51,0.11-0.98,0.33-1.39
						s0.53-0.74,0.92-0.98c0.39-0.24,0.83-0.35,1.31-0.35c0.49,0,0.93,0.12,1.3,0.35c0.37,0.23,0.66,0.56,0.86,0.97
						c0.2,0.42,0.3,0.88,0.3,1.41v0.2h-4.22l0.01-0.22c0,0.4,0.08,0.75,0.24,1.06c0.16,0.31,0.37,0.55,0.64,0.73
						c0.27,0.17,0.58,0.26,0.92,0.26c0.23,0,0.44-0.03,0.64-0.08c0.2-0.06,0.37-0.14,0.51-0.25c0.14-0.11,0.26-0.23,0.33-0.38h0.82
						c-0.06,0.22-0.19,0.44-0.38,0.65c-0.2,0.22-0.46,0.4-0.8,0.55s-0.72,0.22-1.17,0.22C511.96,39.17,511.52,39.06,511.13,38.82z
						 M510.7,35.96h3.4v0.46c0-0.4-0.06-0.75-0.19-1.05s-0.31-0.54-0.56-0.7c-0.25-0.17-0.54-0.25-0.89-0.25
						c-0.35,0-0.65,0.08-0.92,0.24c-0.27,0.16-0.47,0.39-0.62,0.69s-0.22,0.64-0.22,1.04L510.7,35.96z"/>
					<path class="st7" d="M519.02,33.83v1.02h0.02v5.85h-0.82v-6.87H519.02z M519.78,38.88c-0.34-0.2-0.61-0.48-0.8-0.84
						c-0.19-0.36-0.29-0.78-0.3-1.25h0.34v-0.7h-0.34c0.01-0.47,0.11-0.89,0.3-1.25s0.46-0.64,0.8-0.84c0.34-0.2,0.74-0.3,1.19-0.3
						c0.49,0,0.92,0.11,1.3,0.34c0.38,0.23,0.67,0.55,0.89,0.97s0.32,0.89,0.32,1.42s-0.11,1.01-0.32,1.42s-0.51,0.74-0.89,0.97
						c-0.38,0.23-0.81,0.34-1.3,0.34C520.52,39.17,520.12,39.08,519.78,38.88z M521.76,38.18c0.27-0.17,0.48-0.4,0.63-0.7
						c0.15-0.3,0.22-0.65,0.22-1.04c0-0.39-0.08-0.74-0.22-1.04c-0.15-0.3-0.36-0.54-0.63-0.7c-0.27-0.17-0.58-0.25-0.92-0.25
						c-0.35,0-0.66,0.08-0.93,0.25c-0.27,0.17-0.48,0.4-0.63,0.7c-0.15,0.3-0.23,0.65-0.23,1.04c0,0.39,0.08,0.74,0.23,1.04
						c0.15,0.3,0.36,0.54,0.63,0.7s0.58,0.25,0.93,0.25C521.19,38.43,521.49,38.35,521.76,38.18z"/>
					<path class="st7" d="M524.61,33.83h0.82v1.75l-0.34,0.51c0.01-0.47,0.1-0.88,0.26-1.23c0.16-0.35,0.38-0.62,0.66-0.8
						c0.28-0.19,0.61-0.28,0.98-0.28h0.18v0.85h-0.21c-0.31,0-0.58,0.06-0.81,0.18c-0.23,0.12-0.41,0.29-0.53,0.51
						c-0.12,0.22-0.19,0.48-0.19,0.77v2.97h-0.82V33.83z"/>
					<path class="st7" d="M528.92,38.82c-0.41-0.24-0.73-0.56-0.96-0.98s-0.35-0.88-0.35-1.4c0-0.52,0.12-0.98,0.35-1.4
						c0.23-0.42,0.55-0.74,0.96-0.98s0.86-0.35,1.36-0.35c0.5,0,0.95,0.12,1.35,0.35c0.4,0.24,0.72,0.56,0.96,0.98
						c0.23,0.42,0.35,0.88,0.35,1.4c0,0.52-0.12,0.99-0.35,1.4c-0.23,0.42-0.55,0.74-0.96,0.98c-0.41,0.24-0.86,0.35-1.36,0.35
						C529.78,39.17,529.33,39.06,528.92,38.82z M531.21,38.18c0.27-0.17,0.49-0.4,0.64-0.7c0.16-0.3,0.24-0.65,0.24-1.04
						c0-0.39-0.08-0.74-0.24-1.04s-0.37-0.54-0.65-0.7c-0.27-0.17-0.58-0.25-0.92-0.25c-0.34,0-0.65,0.08-0.92,0.25
						c-0.28,0.17-0.49,0.4-0.65,0.7s-0.24,0.65-0.24,1.04c0,0.39,0.08,0.74,0.24,1.04c0.16,0.3,0.38,0.54,0.65,0.7
						s0.59,0.25,0.93,0.25C530.63,38.43,530.93,38.35,531.21,38.18z"/>
					<path class="st7" d="M532.98,39.91h0.45c0.17,0,0.3-0.05,0.41-0.16c0.1-0.1,0.16-0.24,0.16-0.41v-5.52h0.82v5.58
						c0,0.25-0.06,0.47-0.17,0.66s-0.27,0.34-0.47,0.45c-0.2,0.11-0.43,0.16-0.69,0.16h-0.5V39.91z M534.88,31.91v0.97h-0.96v-0.97
						H534.88z"/>
					<path class="st7" d="M537.12,38.82c-0.39-0.23-0.7-0.56-0.92-0.98c-0.22-0.42-0.33-0.89-0.33-1.42c0-0.51,0.11-0.98,0.33-1.39
						s0.53-0.74,0.92-0.98c0.39-0.24,0.83-0.35,1.31-0.35c0.49,0,0.93,0.12,1.3,0.35c0.37,0.23,0.66,0.56,0.86,0.97
						c0.2,0.42,0.3,0.88,0.3,1.41v0.2h-4.22l0.01-0.22c0,0.4,0.08,0.75,0.24,1.06c0.16,0.31,0.37,0.55,0.64,0.73
						c0.27,0.17,0.58,0.26,0.92,0.26c0.23,0,0.44-0.03,0.64-0.08c0.2-0.06,0.37-0.14,0.51-0.25c0.14-0.11,0.26-0.23,0.33-0.38h0.82
						c-0.06,0.22-0.19,0.44-0.38,0.65c-0.2,0.22-0.46,0.4-0.8,0.55s-0.72,0.22-1.17,0.22C537.95,39.17,537.51,39.06,537.12,38.82z
						 M536.69,35.96h3.4v0.46c0-0.4-0.06-0.75-0.19-1.05s-0.31-0.54-0.56-0.7c-0.25-0.17-0.54-0.25-0.89-0.25
						c-0.35,0-0.65,0.08-0.92,0.24c-0.27,0.16-0.47,0.39-0.62,0.69s-0.22,0.64-0.22,1.04L536.69,35.96z"/>
					<path class="st7" d="M542.88,38.82c-0.4-0.24-0.71-0.57-0.94-0.98c-0.23-0.42-0.34-0.88-0.34-1.4c0-0.51,0.11-0.98,0.34-1.4
						c0.23-0.42,0.54-0.74,0.94-0.98c0.4-0.24,0.84-0.36,1.34-0.36c0.42,0,0.79,0.07,1.13,0.21c0.33,0.14,0.61,0.35,0.83,0.63
						c0.22,0.28,0.37,0.62,0.45,1.03h-0.82c-0.08-0.25-0.19-0.46-0.35-0.63s-0.35-0.3-0.56-0.38c-0.21-0.08-0.44-0.12-0.68-0.12
						c-0.34,0-0.64,0.09-0.91,0.26c-0.27,0.17-0.48,0.41-0.62,0.71s-0.22,0.65-0.22,1.03c0,0.38,0.08,0.72,0.22,1.03
						c0.15,0.3,0.36,0.54,0.62,0.71c0.27,0.17,0.57,0.26,0.91,0.26c0.24,0,0.47-0.04,0.68-0.12c0.21-0.08,0.4-0.21,0.56-0.38
						c0.16-0.17,0.28-0.38,0.35-0.63h0.82c-0.08,0.4-0.23,0.73-0.46,1.02c-0.23,0.28-0.51,0.5-0.85,0.64s-0.71,0.22-1.11,0.22
						C543.72,39.17,543.28,39.06,542.88,38.82z"/>
					<path class="st7" d="M548.76,38.89c-0.2-0.11-0.36-0.26-0.48-0.44c-0.12-0.19-0.17-0.4-0.17-0.63l0-3.27h-0.92l0.01-0.73h0.57
						c0.13,0,0.23-0.04,0.31-0.12c0.08-0.08,0.12-0.19,0.12-0.31v-0.84h0.74v1.28h1.26l-0.01,0.73h-1.26l0.01,3.22
						c0,0.16,0.05,0.29,0.16,0.4c0.11,0.11,0.24,0.16,0.4,0.16h0.69v0.72h-0.75C549.18,39.05,548.96,39,548.76,38.89z"/>
				</g>
			</g>
			<g>
				<g>
					<g>
						<path class="st2" d="M664.54,53.16H489.9c-6.04,0-10.94,4.9-10.94,10.94v30.58c0,6.04,4.9,10.94,10.94,10.94h174.64
							c6.04,0,10.94-4.9,10.94-10.94V64.1C675.48,58.06,670.58,53.16,664.54,53.16z"/>
					</g>
				</g>
			</g>
			<g>
				<g>
					<path d="M555.75,74.64v1.21h-1.2v-1.21H555.75z M554.64,77.03h1.02v6.53h-1.02V77.03z"/>
					<path d="M559.68,83.12c-0.67-0.4-1.2-0.95-1.59-1.66c-0.39-0.7-0.58-1.49-0.58-2.36c0-0.87,0.19-1.65,0.58-2.36
						c0.39-0.7,0.92-1.26,1.59-1.66s1.42-0.6,2.25-0.6c0.82,0,1.57,0.2,2.24,0.6c0.67,0.4,1.21,0.96,1.59,1.66
						c0.39,0.7,0.58,1.49,0.58,2.36c0,0.87-0.19,1.65-0.58,2.36c-0.39,0.7-0.92,1.26-1.59,1.66c-0.67,0.4-1.42,0.6-2.24,0.6
						C561.1,83.72,560.35,83.52,559.68,83.12z M563.62,82.28c0.51-0.31,0.9-0.75,1.19-1.3c0.29-0.56,0.43-1.18,0.43-1.88
						c0-0.7-0.14-1.33-0.42-1.89c-0.28-0.55-0.68-0.99-1.18-1.3c-0.5-0.31-1.08-0.47-1.71-0.47c-0.63,0-1.2,0.16-1.7,0.47
						s-0.9,0.75-1.19,1.3s-0.43,1.18-0.43,1.88c0,0.7,0.14,1.33,0.43,1.88c0.29,0.55,0.68,0.99,1.19,1.3
						c0.5,0.31,1.07,0.47,1.7,0.47C562.55,82.75,563.11,82.59,563.62,82.28z"/>
					<path d="M569.26,83.38c-0.47-0.23-0.84-0.54-1.1-0.94c-0.26-0.4-0.39-0.87-0.39-1.39h1.08c0,0.34,0.08,0.63,0.26,0.89
						c0.17,0.26,0.41,0.46,0.72,0.61s0.67,0.22,1.07,0.22c0.4,0,0.74-0.07,1.04-0.2c0.3-0.13,0.53-0.32,0.7-0.57
						c0.16-0.24,0.25-0.53,0.25-0.85c0-0.4-0.12-0.75-0.36-1.04s-0.56-0.47-0.96-0.54l-1.44-0.25c-0.43-0.08-0.81-0.23-1.13-0.45
						c-0.32-0.23-0.56-0.51-0.73-0.84c-0.17-0.34-0.25-0.7-0.25-1.1c0-0.46,0.12-0.88,0.37-1.25c0.24-0.37,0.58-0.66,1.02-0.88
						c0.44-0.21,0.93-0.32,1.47-0.32c0.56,0,1.06,0.11,1.5,0.32s0.78,0.5,1.02,0.88c0.24,0.37,0.36,0.8,0.36,1.28h-1.08
						c0-0.29-0.07-0.56-0.22-0.79c-0.15-0.23-0.36-0.41-0.63-0.54c-0.27-0.13-0.58-0.19-0.93-0.19c-0.35,0-0.67,0.06-0.94,0.19
						c-0.27,0.12-0.48,0.3-0.63,0.52c-0.15,0.23-0.23,0.49-0.23,0.78c0,0.35,0.11,0.66,0.34,0.91c0.23,0.25,0.53,0.41,0.9,0.48
						l1.47,0.25c0.42,0.08,0.8,0.24,1.14,0.49c0.33,0.25,0.59,0.56,0.77,0.92c0.18,0.36,0.27,0.75,0.27,1.15
						c0,0.48-0.13,0.92-0.39,1.31c-0.26,0.39-0.62,0.7-1.09,0.93s-1,0.34-1.59,0.34C570.27,83.72,569.73,83.61,569.26,83.38z"/>
					<path d="M582.61,77.15c0.37,0.18,0.66,0.44,0.87,0.79c0.21,0.35,0.31,0.76,0.31,1.23v4.39h-1v-2.44h0.27
						c0,0.54-0.09,1.01-0.28,1.4s-0.46,0.69-0.8,0.89c-0.35,0.2-0.76,0.31-1.24,0.31c-0.42,0-0.79-0.08-1.13-0.24
						s-0.6-0.38-0.79-0.67c-0.19-0.28-0.29-0.61-0.29-0.97c0-0.34,0.09-0.65,0.26-0.94c0.18-0.29,0.42-0.52,0.73-0.71
						c0.31-0.18,0.66-0.3,1.06-0.34l1.74-0.19c0.14-0.02,0.26-0.08,0.34-0.18c0.08-0.1,0.12-0.25,0.12-0.45l0.08,1.34l-2.14,0.24
						c-0.22,0.03-0.42,0.09-0.59,0.2c-0.17,0.11-0.31,0.25-0.4,0.42s-0.14,0.36-0.14,0.56c0,0.22,0.06,0.42,0.18,0.59
						c0.12,0.17,0.28,0.3,0.49,0.4c0.21,0.1,0.45,0.14,0.71,0.14c0.37,0,0.69-0.07,0.96-0.22s0.49-0.36,0.63-0.63
						c0.15-0.27,0.22-0.58,0.22-0.93v-2.08c0-0.26-0.06-0.49-0.18-0.69c-0.12-0.2-0.3-0.35-0.52-0.46
						c-0.22-0.11-0.48-0.16-0.78-0.16c-0.29,0-0.56,0.05-0.79,0.15c-0.23,0.1-0.42,0.23-0.56,0.4s-0.23,0.35-0.26,0.55h-1.02
						c0.05-0.37,0.2-0.7,0.44-1c0.24-0.3,0.55-0.53,0.93-0.7c0.38-0.17,0.81-0.26,1.27-0.26C581.8,76.88,582.23,76.97,582.61,77.15z
						"/>
					<path d="M586.83,77.03v1.28h0.03v7.31h-1.02v-8.59H586.83z M587.77,83.35c-0.43-0.25-0.76-0.6-1-1.05
						c-0.24-0.45-0.36-0.97-0.37-1.56h0.42v-0.88h-0.42c0.01-0.59,0.13-1.11,0.37-1.56s0.58-0.8,1-1.05
						c0.43-0.25,0.93-0.37,1.49-0.37c0.61,0,1.15,0.14,1.62,0.43c0.47,0.29,0.84,0.69,1.11,1.21c0.27,0.52,0.4,1.11,0.4,1.78
						s-0.13,1.26-0.4,1.78c-0.27,0.52-0.64,0.92-1.11,1.21c-0.47,0.29-1.01,0.43-1.62,0.43C588.69,83.72,588.2,83.6,587.77,83.35z
						 M590.25,82.48c0.34-0.21,0.6-0.5,0.79-0.88c0.19-0.38,0.28-0.81,0.28-1.3s-0.09-0.92-0.28-1.3c-0.19-0.38-0.45-0.67-0.79-0.88
						s-0.72-0.32-1.16-0.32c-0.44,0-0.83,0.11-1.17,0.32c-0.34,0.21-0.61,0.5-0.79,0.88c-0.19,0.38-0.28,0.81-0.28,1.3
						s0.09,0.92,0.28,1.3c0.19,0.38,0.45,0.67,0.79,0.88c0.34,0.21,0.73,0.32,1.17,0.32C589.53,82.8,589.92,82.69,590.25,82.48z"/>
					<path d="M595.06,77.03v1.28h0.03v7.31h-1.02v-8.59H595.06z M596.01,83.35c-0.43-0.25-0.76-0.6-1-1.05
						c-0.24-0.45-0.36-0.97-0.37-1.56h0.42v-0.88h-0.42c0.01-0.59,0.13-1.11,0.37-1.56s0.58-0.8,1-1.05
						c0.43-0.25,0.93-0.37,1.49-0.37c0.61,0,1.15,0.14,1.62,0.43c0.47,0.29,0.84,0.69,1.11,1.21c0.27,0.52,0.4,1.11,0.4,1.78
						s-0.13,1.26-0.4,1.78c-0.27,0.52-0.64,0.92-1.11,1.21c-0.47,0.29-1.01,0.43-1.62,0.43C596.93,83.72,596.43,83.6,596.01,83.35z
						 M598.49,82.48c0.34-0.21,0.6-0.5,0.79-0.88c0.19-0.38,0.28-0.81,0.28-1.3s-0.09-0.92-0.28-1.3c-0.19-0.38-0.45-0.67-0.79-0.88
						s-0.72-0.32-1.16-0.32c-0.44,0-0.83,0.11-1.17,0.32c-0.34,0.21-0.61,0.5-0.79,0.88c-0.19,0.38-0.28,0.81-0.28,1.3
						s0.09,0.92,0.28,1.3c0.19,0.38,0.45,0.67,0.79,0.88c0.34,0.21,0.73,0.32,1.17,0.32C597.77,82.8,598.15,82.69,598.49,82.48z"/>
				</g>
			</g>
		</g>
	</g>
	<g>
		<g>
			<g>
				<g>
					
						<radialGradient id="SVGID_1_" cx="255.5613" cy="146.6526" r="192.6241" gradientTransform="matrix(1 0 0 0.2768 0 106.064)" gradientUnits="userSpaceOnUse">
						<stop  offset="0" style="stop-color:#EB4857"/>
						<stop  offset="0.5" style="stop-color:#C611E0"/>
						<stop  offset="1" style="stop-color:#7F52FF"/>
					</radialGradient>
					<path class="st4" d="M435.98,121.79l-171.95,0c-6.78,0-12.28,5.5-12.28,12.28v0c0,6.78,5.5,12.28,12.28,12.28l171.95,0
						c6.78,0,12.28-5.5,12.28-12.28v0C448.26,127.29,442.76,121.79,435.98,121.79z"/>
				</g>
				<g>
					<path class="st0" d="M301.18,138.23c-0.53-0.3-0.95-0.72-1.24-1.26c-0.29-0.54-0.44-1.16-0.44-1.85v-5.53h1.06v5.53
						c0,0.51,0.1,0.96,0.31,1.35c0.21,0.39,0.49,0.7,0.87,0.92c0.37,0.22,0.8,0.33,1.29,0.33c0.48,0,0.9-0.11,1.26-0.33
						c0.36-0.22,0.65-0.52,0.85-0.92c0.2-0.39,0.3-0.84,0.3-1.35v-5.53h1.06v5.53c0,0.69-0.15,1.31-0.44,1.85s-0.7,0.96-1.23,1.26
						c-0.53,0.3-1.12,0.45-1.8,0.45C302.33,138.68,301.71,138.53,301.18,138.23z"/>
					<path class="st0" d="M308.84,131.99h0.98v2.83h-0.34c0-0.61,0.09-1.14,0.28-1.59s0.46-0.79,0.82-1.03
						c0.36-0.24,0.78-0.36,1.28-0.36c0.46,0,0.87,0.11,1.22,0.32s0.62,0.51,0.81,0.9s0.29,0.84,0.29,1.35v4.12h-1.02v-4.08
						c0-0.36-0.06-0.67-0.18-0.93c-0.12-0.26-0.3-0.46-0.53-0.6c-0.23-0.14-0.51-0.21-0.83-0.21c-0.35,0-0.66,0.08-0.93,0.24
						s-0.47,0.38-0.61,0.68s-0.21,0.64-0.21,1.03v3.87h-1.02V131.99z M317.28,133.52c-0.12-0.26-0.3-0.46-0.53-0.6
						c-0.23-0.14-0.51-0.21-0.84-0.21c-0.35,0-0.66,0.08-0.92,0.24c-0.26,0.16-0.47,0.38-0.61,0.68c-0.14,0.29-0.22,0.64-0.22,1.03
						l-0.57,0.17c0-0.59,0.1-1.11,0.31-1.56c0.2-0.45,0.5-0.8,0.88-1.05c0.38-0.25,0.82-0.37,1.33-0.37c0.46,0,0.88,0.11,1.23,0.32
						s0.64,0.51,0.84,0.9s0.3,0.84,0.3,1.35v4.12h-1.02v-4.08C317.47,134.09,317.41,133.78,317.28,133.52z"/>
					<path class="st0" d="M320.53,129.59h1.02v8.93h-1.02V129.59z M322.45,138.3c-0.43-0.25-0.77-0.6-1.01-1.05
						c-0.24-0.45-0.36-0.97-0.37-1.56h0.42v-0.88h-0.42c0.01-0.59,0.13-1.11,0.37-1.56s0.58-0.8,1.01-1.05
						c0.43-0.25,0.92-0.37,1.49-0.37c0.61,0,1.15,0.14,1.62,0.43s0.84,0.69,1.11,1.21c0.27,0.52,0.4,1.11,0.4,1.78
						s-0.13,1.26-0.4,1.78c-0.27,0.52-0.64,0.92-1.11,1.21s-1.02,0.43-1.62,0.43C323.37,138.68,322.88,138.55,322.45,138.3z
						 M324.93,137.43c0.34-0.21,0.6-0.5,0.78-0.88s0.28-0.81,0.28-1.3s-0.09-0.92-0.28-1.3s-0.45-0.67-0.78-0.88
						c-0.34-0.21-0.72-0.32-1.16-0.32c-0.44,0-0.83,0.11-1.17,0.32c-0.34,0.21-0.6,0.5-0.79,0.88c-0.19,0.38-0.29,0.81-0.29,1.3
						s0.1,0.92,0.29,1.3c0.19,0.38,0.45,0.67,0.79,0.88c0.34,0.21,0.73,0.32,1.17,0.32C324.21,137.75,324.59,137.65,324.93,137.43z"
						/>
					<path class="st0" d="M328.75,131.99h1.02v2.19l-0.43,0.64c0.02-0.59,0.12-1.1,0.32-1.53c0.2-0.44,0.47-0.77,0.83-1
						c0.35-0.23,0.76-0.35,1.23-0.35h0.23v1.07h-0.27c-0.39,0-0.73,0.07-1.01,0.22s-0.51,0.36-0.67,0.63
						c-0.16,0.27-0.23,0.6-0.23,0.97v3.71h-1.02V131.99z"/>
					<path class="st0" d="M334.31,138.24c-0.49-0.29-0.87-0.7-1.15-1.22c-0.27-0.52-0.41-1.11-0.41-1.77c0-0.64,0.14-1.22,0.42-1.74
						s0.66-0.93,1.15-1.22c0.49-0.3,1.04-0.44,1.64-0.44c0.62,0,1.16,0.15,1.62,0.44s0.83,0.7,1.08,1.22
						c0.25,0.52,0.38,1.11,0.38,1.76v0.25h-5.28l0.01-0.28c0,0.49,0.1,0.93,0.3,1.32s0.46,0.69,0.8,0.91
						c0.34,0.22,0.72,0.33,1.15,0.33c0.29,0,0.55-0.03,0.79-0.1s0.46-0.17,0.64-0.31c0.18-0.13,0.32-0.29,0.42-0.47h1.02
						c-0.08,0.27-0.24,0.54-0.48,0.82c-0.25,0.27-0.58,0.5-1,0.68s-0.9,0.27-1.46,0.27C335.35,138.68,334.8,138.53,334.31,138.24z
						 M333.77,134.66h4.26v0.58c0-0.5-0.08-0.94-0.24-1.32c-0.16-0.38-0.39-0.67-0.7-0.88s-0.68-0.31-1.11-0.31s-0.82,0.1-1.15,0.3
						c-0.33,0.2-0.59,0.49-0.77,0.86c-0.18,0.37-0.27,0.8-0.27,1.3L333.77,134.66z"/>
					<path class="st0" d="M340.72,129.59h1.02v8.93h-1.02V129.59z"/>
					<path class="st0" d="M343.98,129.59H345v8.93h-1.02V129.59z"/>
					<path class="st0" d="M350.83,132.11c0.38,0.18,0.66,0.44,0.87,0.79c0.21,0.35,0.31,0.76,0.31,1.23v4.39h-1v-2.44h0.27
						c0,0.54-0.09,1.01-0.28,1.4c-0.19,0.39-0.46,0.69-0.8,0.89c-0.35,0.2-0.76,0.31-1.24,0.31c-0.42,0-0.79-0.08-1.13-0.24
						s-0.6-0.38-0.79-0.67c-0.19-0.28-0.29-0.61-0.29-0.97c0-0.34,0.09-0.65,0.26-0.94c0.18-0.29,0.42-0.52,0.73-0.71
						c0.31-0.18,0.66-0.3,1.05-0.34l1.74-0.19c0.14-0.02,0.26-0.08,0.34-0.18c0.08-0.1,0.12-0.25,0.12-0.45l0.08,1.34l-2.14,0.24
						c-0.22,0.03-0.42,0.09-0.59,0.2c-0.17,0.11-0.31,0.25-0.4,0.42s-0.14,0.36-0.14,0.56c0,0.22,0.06,0.42,0.17,0.59
						s0.28,0.3,0.49,0.4s0.45,0.14,0.71,0.14c0.37,0,0.69-0.07,0.96-0.22s0.49-0.36,0.63-0.63s0.22-0.58,0.22-0.93V134
						c0-0.26-0.06-0.49-0.18-0.69s-0.3-0.35-0.52-0.46c-0.22-0.11-0.48-0.16-0.77-0.16s-0.56,0.05-0.79,0.15
						c-0.23,0.1-0.42,0.23-0.56,0.4s-0.23,0.35-0.26,0.55h-1.02c0.05-0.37,0.2-0.7,0.44-1s0.55-0.53,0.93-0.7
						c0.38-0.17,0.81-0.26,1.27-0.26C350.03,131.84,350.46,131.93,350.83,132.11z"/>
					<path class="st0" d="M357.21,131.99h0.98v2.83h-0.34c0-0.61,0.1-1.14,0.28-1.59c0.19-0.45,0.46-0.79,0.82-1.03
						c0.36-0.24,0.78-0.36,1.28-0.36c0.46,0,0.87,0.11,1.22,0.32c0.35,0.21,0.62,0.51,0.81,0.9s0.29,0.84,0.29,1.35v4.12h-1.02
						v-4.08c0-0.36-0.06-0.67-0.18-0.93c-0.12-0.26-0.3-0.46-0.53-0.6c-0.23-0.14-0.51-0.21-0.83-0.21c-0.35,0-0.66,0.08-0.93,0.24
						s-0.47,0.38-0.61,0.68c-0.14,0.29-0.21,0.64-0.21,1.03v3.87h-1.02V131.99z M365.66,133.52c-0.12-0.26-0.3-0.46-0.53-0.6
						c-0.23-0.14-0.51-0.21-0.84-0.21c-0.35,0-0.65,0.08-0.92,0.24c-0.26,0.16-0.47,0.38-0.61,0.68c-0.14,0.29-0.22,0.64-0.22,1.03
						l-0.57,0.17c0-0.59,0.1-1.11,0.31-1.56c0.21-0.45,0.5-0.8,0.88-1.05c0.38-0.25,0.82-0.37,1.33-0.37c0.46,0,0.88,0.11,1.24,0.32
						c0.36,0.21,0.64,0.51,0.84,0.9s0.3,0.84,0.3,1.35v4.12h-1.02v-4.08C365.84,134.09,365.78,133.78,365.66,133.52z"/>
					<path class="st0" d="M369.98,138.23c-0.51-0.3-0.91-0.7-1.2-1.23c-0.29-0.52-0.44-1.1-0.44-1.75s0.14-1.23,0.44-1.75
						c0.29-0.52,0.69-0.93,1.2-1.23c0.51-0.3,1.08-0.44,1.7-0.44s1.19,0.15,1.69,0.44c0.51,0.3,0.9,0.7,1.2,1.22s0.44,1.1,0.44,1.75
						s-0.15,1.24-0.44,1.75c-0.29,0.52-0.69,0.93-1.2,1.22c-0.51,0.3-1.07,0.44-1.7,0.44C371.06,138.68,370.49,138.53,369.98,138.23
						z M372.84,137.43c0.34-0.21,0.61-0.5,0.8-0.88s0.29-0.81,0.29-1.3s-0.1-0.92-0.29-1.3c-0.2-0.38-0.46-0.67-0.81-0.88
						c-0.34-0.21-0.73-0.31-1.15-0.31s-0.81,0.1-1.15,0.31s-0.62,0.5-0.81,0.88c-0.2,0.38-0.29,0.81-0.29,1.3s0.1,0.92,0.29,1.3
						c0.2,0.38,0.47,0.67,0.82,0.88c0.35,0.21,0.73,0.31,1.16,0.31C372.12,137.74,372.5,137.64,372.84,137.43z"/>
					<path class="st0" d="M377.64,138.25c-0.47-0.29-0.84-0.69-1.11-1.21c-0.27-0.52-0.4-1.11-0.4-1.78s0.13-1.26,0.4-1.78
						c0.27-0.52,0.63-0.92,1.11-1.21s1.02-0.43,1.62-0.43c0.56,0,1.06,0.12,1.49,0.37c0.43,0.25,0.76,0.6,1,1.05
						s0.37,0.97,0.37,1.56h-0.42v0.88h0.42c-0.01,0.59-0.13,1.11-0.37,1.56c-0.24,0.45-0.57,0.8-1,1.05
						c-0.43,0.25-0.93,0.37-1.49,0.37C378.65,138.68,378.11,138.53,377.64,138.25z M380.59,137.43c0.34-0.21,0.61-0.5,0.79-0.88
						s0.28-0.81,0.28-1.3s-0.09-0.92-0.28-1.3s-0.46-0.67-0.79-0.88s-0.73-0.32-1.17-0.32c-0.43,0-0.82,0.11-1.15,0.32
						s-0.6,0.5-0.79,0.88s-0.28,0.81-0.28,1.3s0.09,0.92,0.28,1.3s0.45,0.67,0.79,0.88c0.34,0.21,0.72,0.32,1.15,0.32
						C379.86,137.75,380.25,137.65,380.59,137.43z M381.65,129.59h1.02v8.93h-1.02V129.59z"/>
					<path class="st0" d="M390.17,138.52h-0.98v-2.83h0.41c0,0.6-0.1,1.13-0.31,1.58c-0.21,0.45-0.51,0.79-0.89,1.04
						s-0.84,0.36-1.37,0.36c-0.47,0-0.88-0.1-1.24-0.3c-0.36-0.2-0.65-0.49-0.85-0.88c-0.21-0.39-0.31-0.86-0.31-1.4v-4.1h1.02v4
						c0,0.38,0.07,0.7,0.2,0.97s0.32,0.47,0.57,0.61c0.25,0.14,0.54,0.21,0.88,0.21c0.37,0,0.69-0.08,0.97-0.24
						c0.28-0.16,0.5-0.39,0.65-0.68c0.15-0.29,0.23-0.62,0.23-1v-3.87h1.02V138.52z"/>
					<path class="st0" d="M392.4,129.59h1.02v8.93h-1.02V129.59z"/>
					<path class="st0" d="M396.65,138.24c-0.49-0.29-0.87-0.7-1.14-1.22c-0.28-0.52-0.41-1.11-0.41-1.77c0-0.64,0.14-1.22,0.42-1.74
						c0.28-0.52,0.66-0.93,1.15-1.22c0.49-0.3,1.04-0.44,1.64-0.44c0.62,0,1.16,0.15,1.62,0.44c0.46,0.29,0.82,0.7,1.08,1.22
						c0.25,0.52,0.38,1.11,0.38,1.76v0.25h-5.28l0.01-0.28c0,0.49,0.1,0.93,0.3,1.32s0.46,0.69,0.8,0.91s0.72,0.33,1.15,0.33
						c0.29,0,0.55-0.03,0.79-0.1c0.24-0.07,0.46-0.17,0.64-0.31c0.18-0.13,0.32-0.29,0.42-0.47h1.02c-0.08,0.27-0.24,0.54-0.48,0.82
						c-0.24,0.27-0.58,0.5-0.99,0.68c-0.42,0.18-0.91,0.27-1.46,0.27C397.7,138.68,397.14,138.53,396.65,138.24z M396.11,134.66
						h4.25v0.58c0-0.5-0.08-0.94-0.23-1.32c-0.16-0.38-0.39-0.67-0.7-0.88s-0.68-0.31-1.11-0.31s-0.82,0.1-1.15,0.3
						c-0.33,0.2-0.59,0.49-0.77,0.86c-0.18,0.37-0.28,0.8-0.28,1.3L396.11,134.66z"/>
				</g>
			</g>
			<g>
				<g>
					<g>
						<path class="st7" d="M259.92,107.53c-0.38-0.18-0.67-0.43-0.88-0.76s-0.31-0.69-0.31-1.11h0.87c0,0.27,0.07,0.51,0.21,0.71
							s0.33,0.37,0.58,0.48s0.53,0.17,0.85,0.17c0.32,0,0.59-0.05,0.83-0.16s0.43-0.26,0.56-0.45c0.13-0.2,0.2-0.42,0.2-0.68
							c0-0.32-0.1-0.6-0.29-0.83c-0.19-0.23-0.45-0.37-0.77-0.43l-1.15-0.2c-0.35-0.06-0.65-0.18-0.9-0.36
							c-0.25-0.18-0.45-0.4-0.59-0.67c-0.14-0.27-0.21-0.56-0.21-0.88c0-0.37,0.1-0.71,0.29-1c0.2-0.3,0.47-0.53,0.82-0.7
							c0.35-0.17,0.74-0.26,1.18-0.26c0.45,0,0.85,0.08,1.2,0.25c0.35,0.17,0.62,0.4,0.82,0.7c0.2,0.3,0.29,0.64,0.29,1.03h-0.87
							c0-0.23-0.06-0.44-0.18-0.63s-0.29-0.33-0.5-0.43c-0.22-0.1-0.46-0.15-0.75-0.15c-0.28,0-0.53,0.05-0.75,0.15
							c-0.22,0.1-0.39,0.24-0.51,0.42c-0.12,0.18-0.18,0.39-0.18,0.63c0,0.28,0.09,0.53,0.27,0.73s0.42,0.33,0.72,0.38l1.17,0.2
							c0.34,0.06,0.64,0.19,0.91,0.39c0.26,0.2,0.47,0.45,0.62,0.74c0.15,0.29,0.22,0.6,0.22,0.92c0,0.38-0.1,0.73-0.31,1.05
							c-0.21,0.31-0.5,0.56-0.87,0.75c-0.38,0.18-0.8,0.27-1.28,0.27C260.73,107.8,260.3,107.71,259.92,107.53z"/>
						<path class="st7" d="M264.98,100.54h0.79v1.65v0.93v1.6h-0.33c0-0.48,0.08-0.9,0.25-1.26c0.17-0.36,0.41-0.64,0.71-0.83
							c0.31-0.19,0.67-0.29,1.09-0.29c0.38,0,0.71,0.08,1,0.24c0.29,0.16,0.52,0.4,0.68,0.71c0.16,0.31,0.25,0.69,0.25,1.12v3.28
							h-0.82v-3.2c0-0.3-0.05-0.56-0.16-0.78s-0.26-0.38-0.46-0.49s-0.43-0.17-0.7-0.17c-0.29,0-0.55,0.06-0.78,0.19
							s-0.4,0.31-0.52,0.54c-0.12,0.23-0.19,0.5-0.19,0.8v3.1h-0.82V100.54z"/>
						<path class="st7" d="M273.74,102.55c0.3,0.14,0.53,0.36,0.7,0.63c0.16,0.28,0.25,0.61,0.25,0.99v3.51h-0.8v-1.95h0.21
							c0,0.44-0.08,0.81-0.22,1.12c-0.15,0.31-0.37,0.55-0.64,0.71c-0.28,0.16-0.61,0.25-0.99,0.25c-0.33,0-0.63-0.06-0.9-0.19
							c-0.27-0.13-0.48-0.31-0.63-0.54c-0.15-0.23-0.23-0.49-0.23-0.78c0-0.27,0.07-0.52,0.21-0.75s0.34-0.42,0.59-0.56
							c0.25-0.15,0.53-0.24,0.84-0.27l1.39-0.15c0.12-0.01,0.21-0.06,0.27-0.14c0.06-0.08,0.1-0.2,0.1-0.36l0.06,1.07l-1.71,0.19
							c-0.18,0.02-0.34,0.07-0.47,0.16c-0.14,0.08-0.25,0.2-0.32,0.33c-0.08,0.14-0.12,0.29-0.12,0.45c0,0.18,0.05,0.33,0.14,0.47
							c0.09,0.14,0.22,0.24,0.39,0.32c0.17,0.08,0.36,0.12,0.57,0.12c0.29,0,0.55-0.06,0.77-0.18c0.22-0.12,0.39-0.29,0.51-0.5
							c0.12-0.22,0.18-0.46,0.18-0.75v-1.66c0-0.21-0.05-0.39-0.15-0.55c-0.1-0.16-0.24-0.28-0.42-0.37
							c-0.18-0.09-0.38-0.13-0.62-0.13c-0.23,0-0.45,0.04-0.63,0.12s-0.34,0.19-0.45,0.32c-0.11,0.13-0.18,0.28-0.21,0.44h-0.82
							c0.04-0.3,0.16-0.56,0.35-0.8c0.19-0.24,0.44-0.42,0.75-0.56c0.31-0.14,0.64-0.2,1.02-0.2
							C273.09,102.33,273.44,102.41,273.74,102.55z"/>
						<path class="st7" d="M276.11,102.46h0.82v1.75l-0.34,0.51c0.01-0.47,0.1-0.88,0.26-1.23c0.16-0.35,0.38-0.62,0.66-0.8
							c0.28-0.19,0.61-0.28,0.98-0.28h0.18v0.85h-0.21c-0.31,0-0.58,0.06-0.81,0.18c-0.23,0.12-0.41,0.29-0.53,0.51
							c-0.12,0.22-0.19,0.48-0.19,0.77v2.97h-0.82V102.46z"/>
						<path class="st7" d="M280.36,107.45c-0.39-0.23-0.7-0.56-0.92-0.98c-0.22-0.42-0.33-0.89-0.33-1.42
							c0-0.51,0.11-0.98,0.33-1.39s0.53-0.74,0.92-0.98c0.39-0.24,0.83-0.35,1.31-0.35c0.49,0,0.93,0.12,1.3,0.35
							c0.37,0.23,0.66,0.56,0.86,0.97c0.2,0.42,0.3,0.88,0.3,1.41v0.2h-4.22l0.01-0.22c0,0.4,0.08,0.75,0.24,1.06
							c0.15,0.31,0.37,0.55,0.64,0.73s0.58,0.26,0.92,0.26c0.23,0,0.44-0.03,0.64-0.08c0.2-0.06,0.37-0.14,0.51-0.25
							c0.14-0.11,0.26-0.23,0.33-0.38h0.82c-0.06,0.22-0.19,0.44-0.38,0.65s-0.46,0.4-0.8,0.55c-0.33,0.15-0.72,0.22-1.17,0.22
							C281.19,107.8,280.75,107.69,280.36,107.45z M279.92,104.59h3.4v0.46c0-0.4-0.06-0.75-0.19-1.05c-0.13-0.3-0.31-0.54-0.56-0.7
							c-0.25-0.17-0.54-0.25-0.89-0.25c-0.35,0-0.65,0.08-0.92,0.24s-0.47,0.39-0.62,0.69s-0.22,0.64-0.22,1.04L279.92,104.59z"/>
						<path class="st7" d="M286.05,107.46c-0.38-0.23-0.68-0.55-0.89-0.97s-0.32-0.89-0.32-1.42s0.11-1.01,0.32-1.42
							s0.51-0.74,0.89-0.97c0.38-0.23,0.81-0.34,1.3-0.34c0.45,0,0.85,0.1,1.19,0.3c0.34,0.2,0.61,0.48,0.8,0.84
							c0.19,0.36,0.29,0.77,0.3,1.25h-0.34v0.7h0.34c-0.01,0.47-0.11,0.89-0.3,1.25c-0.19,0.36-0.46,0.64-0.8,0.84
							s-0.74,0.3-1.19,0.3C286.86,107.8,286.43,107.69,286.05,107.46z M288.41,106.81c0.27-0.17,0.48-0.4,0.64-0.7
							c0.15-0.3,0.23-0.65,0.23-1.04c0-0.39-0.08-0.74-0.23-1.04c-0.15-0.3-0.36-0.54-0.64-0.7c-0.27-0.17-0.58-0.25-0.93-0.25
							c-0.35,0-0.65,0.08-0.92,0.25c-0.27,0.17-0.48,0.4-0.63,0.7c-0.15,0.3-0.22,0.65-0.22,1.04c0,0.39,0.07,0.74,0.22,1.04
							c0.15,0.3,0.36,0.54,0.63,0.7c0.27,0.17,0.58,0.25,0.92,0.25C287.82,107.06,288.13,106.98,288.41,106.81z M289.25,100.54h0.82
							v7.15h-0.82V100.54z"/>
						<path class="st7" d="M294.58,107.45c-0.4-0.24-0.71-0.57-0.94-0.98c-0.23-0.42-0.34-0.88-0.34-1.4c0-0.51,0.11-0.98,0.34-1.4
							c0.23-0.42,0.54-0.74,0.94-0.98c0.4-0.24,0.84-0.36,1.34-0.36c0.42,0,0.79,0.07,1.13,0.21s0.61,0.35,0.83,0.63
							c0.22,0.28,0.37,0.62,0.45,1.03h-0.82c-0.07-0.25-0.19-0.46-0.35-0.63s-0.35-0.3-0.56-0.38c-0.21-0.08-0.44-0.12-0.68-0.12
							c-0.34,0-0.64,0.09-0.91,0.26c-0.27,0.17-0.47,0.41-0.62,0.71c-0.15,0.3-0.22,0.65-0.22,1.03c0,0.38,0.08,0.72,0.22,1.03
							c0.15,0.3,0.36,0.54,0.62,0.71c0.27,0.17,0.57,0.26,0.91,0.26c0.24,0,0.47-0.04,0.68-0.12c0.21-0.08,0.4-0.21,0.56-0.38
							c0.16-0.17,0.28-0.38,0.35-0.63h0.82c-0.08,0.4-0.23,0.73-0.46,1.02c-0.23,0.28-0.51,0.5-0.85,0.64
							c-0.34,0.15-0.71,0.22-1.11,0.22C295.42,107.8,294.97,107.69,294.58,107.45z"/>
						<path class="st7" d="M300.32,107.45c-0.41-0.24-0.73-0.56-0.96-0.98c-0.23-0.42-0.35-0.88-0.35-1.4c0-0.52,0.12-0.98,0.35-1.4
							c0.23-0.42,0.55-0.74,0.96-0.98s0.86-0.35,1.36-0.35s0.95,0.12,1.35,0.35c0.4,0.24,0.72,0.56,0.96,0.98
							c0.23,0.42,0.35,0.88,0.35,1.4c0,0.52-0.12,0.99-0.35,1.4c-0.23,0.42-0.55,0.74-0.96,0.98c-0.41,0.24-0.86,0.35-1.36,0.35
							C301.17,107.8,300.72,107.69,300.32,107.45z M302.6,106.81c0.27-0.17,0.49-0.4,0.64-0.7c0.16-0.3,0.24-0.65,0.24-1.04
							c0-0.39-0.08-0.74-0.24-1.04s-0.37-0.54-0.64-0.7c-0.28-0.17-0.58-0.25-0.92-0.25s-0.65,0.08-0.92,0.25
							c-0.28,0.17-0.49,0.4-0.65,0.7s-0.24,0.65-0.24,1.04c0,0.39,0.08,0.74,0.24,1.04c0.16,0.3,0.38,0.54,0.65,0.7
							s0.59,0.25,0.93,0.25C302.02,107.06,302.33,106.98,302.6,106.81z"/>
						<path class="st7" d="M306.24,107.46c-0.38-0.23-0.68-0.55-0.89-0.97s-0.32-0.89-0.32-1.42s0.11-1.01,0.32-1.42
							s0.51-0.74,0.89-0.97c0.38-0.23,0.81-0.34,1.3-0.34c0.45,0,0.85,0.1,1.19,0.3c0.34,0.2,0.61,0.48,0.8,0.84
							c0.19,0.36,0.29,0.77,0.3,1.25h-0.34v0.7h0.34c-0.01,0.47-0.11,0.89-0.3,1.25c-0.19,0.36-0.46,0.64-0.8,0.84
							s-0.74,0.3-1.19,0.3C307.05,107.8,306.62,107.69,306.24,107.46z M308.6,106.81c0.27-0.17,0.48-0.4,0.64-0.7
							c0.15-0.3,0.23-0.65,0.23-1.04c0-0.39-0.08-0.74-0.23-1.04c-0.15-0.3-0.36-0.54-0.64-0.7c-0.27-0.17-0.58-0.25-0.93-0.25
							c-0.35,0-0.65,0.08-0.92,0.25c-0.27,0.17-0.48,0.4-0.63,0.7c-0.15,0.3-0.22,0.65-0.22,1.04c0,0.39,0.07,0.74,0.22,1.04
							c0.15,0.3,0.36,0.54,0.63,0.7c0.27,0.17,0.58,0.25,0.92,0.25C308.01,107.06,308.32,106.98,308.6,106.81z M309.44,100.54h0.82
							v7.15h-0.82V100.54z"/>
						<path class="st7" d="M312.57,107.45c-0.39-0.23-0.7-0.56-0.92-0.98c-0.22-0.42-0.33-0.89-0.33-1.42
							c0-0.51,0.11-0.98,0.33-1.39s0.53-0.74,0.92-0.98c0.39-0.24,0.83-0.35,1.31-0.35c0.49,0,0.93,0.12,1.3,0.35
							c0.37,0.23,0.66,0.56,0.86,0.97c0.2,0.42,0.3,0.88,0.3,1.41v0.2h-4.22l0.01-0.22c0,0.4,0.08,0.75,0.24,1.06
							c0.15,0.31,0.37,0.55,0.64,0.73s0.58,0.26,0.92,0.26c0.23,0,0.44-0.03,0.64-0.08c0.2-0.06,0.37-0.14,0.51-0.25
							c0.14-0.11,0.26-0.23,0.33-0.38h0.82c-0.06,0.22-0.19,0.44-0.38,0.65s-0.46,0.4-0.8,0.55c-0.33,0.15-0.72,0.22-1.17,0.22
							C313.4,107.8,312.96,107.69,312.57,107.45z M312.13,104.59h3.4v0.46c0-0.4-0.06-0.75-0.19-1.05c-0.13-0.3-0.31-0.54-0.56-0.7
							c-0.25-0.17-0.54-0.25-0.89-0.25c-0.35,0-0.65,0.08-0.92,0.24s-0.47,0.39-0.62,0.69s-0.22,0.64-0.22,1.04L312.13,104.59z"/>
						<path class="st7" d="M320.46,102.46v1.02h0.02v5.85h-0.82v-6.87H320.46z M321.21,107.51c-0.34-0.2-0.61-0.48-0.8-0.84
							c-0.19-0.36-0.29-0.78-0.3-1.25h0.34v-0.7h-0.34c0.01-0.47,0.11-0.89,0.3-1.25c0.19-0.36,0.46-0.64,0.8-0.84
							c0.34-0.2,0.74-0.3,1.19-0.3c0.49,0,0.92,0.11,1.3,0.34s0.68,0.55,0.89,0.97s0.32,0.89,0.32,1.42s-0.11,1.01-0.32,1.42
							s-0.51,0.74-0.89,0.97s-0.81,0.34-1.3,0.34C321.95,107.8,321.56,107.71,321.21,107.51z M323.2,106.81
							c0.27-0.17,0.48-0.4,0.63-0.7c0.15-0.3,0.22-0.65,0.22-1.04c0-0.39-0.07-0.74-0.22-1.04s-0.36-0.54-0.63-0.7
							c-0.27-0.17-0.58-0.25-0.92-0.25c-0.35,0-0.66,0.08-0.94,0.25c-0.27,0.17-0.48,0.4-0.63,0.7s-0.23,0.65-0.23,1.04
							c0,0.39,0.07,0.74,0.23,1.04c0.15,0.3,0.36,0.54,0.63,0.7c0.27,0.17,0.58,0.25,0.94,0.25
							C322.62,107.06,322.93,106.98,323.2,106.81z"/>
						<path class="st7" d="M326.05,102.46h0.82v1.75l-0.34,0.51c0.01-0.47,0.1-0.88,0.26-1.23c0.16-0.35,0.38-0.62,0.66-0.8
							c0.28-0.19,0.61-0.28,0.98-0.28h0.18v0.85h-0.21c-0.31,0-0.58,0.06-0.81,0.18c-0.23,0.12-0.41,0.29-0.53,0.51
							c-0.12,0.22-0.19,0.48-0.19,0.77v2.97h-0.82V102.46z"/>
						<path class="st7" d="M330.36,107.45c-0.41-0.24-0.73-0.56-0.96-0.98c-0.23-0.42-0.35-0.88-0.35-1.4c0-0.52,0.12-0.98,0.35-1.4
							c0.23-0.42,0.55-0.74,0.96-0.98s0.86-0.35,1.36-0.35c0.5,0,0.95,0.12,1.35,0.35s0.72,0.56,0.96,0.98s0.35,0.88,0.35,1.4
							c0,0.52-0.12,0.99-0.35,1.4s-0.55,0.74-0.96,0.98c-0.4,0.24-0.86,0.35-1.36,0.35C331.21,107.8,330.76,107.69,330.36,107.45z
							 M332.64,106.81c0.27-0.17,0.49-0.4,0.64-0.7c0.16-0.3,0.23-0.65,0.23-1.04c0-0.39-0.08-0.74-0.23-1.04s-0.37-0.54-0.65-0.7
							c-0.27-0.17-0.58-0.25-0.92-0.25c-0.34,0-0.65,0.08-0.92,0.25c-0.28,0.17-0.49,0.4-0.65,0.7s-0.24,0.65-0.24,1.04
							c0,0.39,0.08,0.74,0.24,1.04c0.16,0.3,0.38,0.54,0.65,0.7s0.59,0.25,0.93,0.25S332.37,106.98,332.64,106.81z"/>
						<path class="st7" d="M334.42,108.54h0.45c0.17,0,0.3-0.05,0.4-0.16c0.11-0.1,0.16-0.24,0.16-0.41v-5.52h0.82v5.58
							c0,0.25-0.05,0.47-0.17,0.66c-0.11,0.19-0.27,0.34-0.47,0.45c-0.2,0.11-0.43,0.16-0.69,0.16h-0.5V108.54z M336.32,100.54v0.97
							h-0.96v-0.97H336.32z"/>
						<path class="st7" d="M338.56,107.45c-0.39-0.23-0.7-0.56-0.92-0.98c-0.22-0.42-0.33-0.89-0.33-1.42
							c0-0.51,0.11-0.98,0.33-1.39s0.53-0.74,0.92-0.98s0.83-0.35,1.31-0.35c0.49,0,0.93,0.12,1.3,0.35s0.66,0.56,0.86,0.97
							c0.2,0.42,0.3,0.88,0.3,1.41v0.2h-4.22l0.01-0.22c0,0.4,0.08,0.75,0.24,1.06c0.16,0.31,0.37,0.55,0.64,0.73
							c0.27,0.17,0.58,0.26,0.92,0.26c0.23,0,0.44-0.03,0.63-0.08c0.2-0.06,0.37-0.14,0.51-0.25c0.14-0.11,0.26-0.23,0.33-0.38h0.82
							c-0.06,0.22-0.19,0.44-0.38,0.65c-0.2,0.22-0.46,0.4-0.8,0.55c-0.34,0.15-0.72,0.22-1.17,0.22
							C339.39,107.8,338.95,107.69,338.56,107.45z M338.12,104.59h3.4v0.46c0-0.4-0.06-0.75-0.19-1.05c-0.12-0.3-0.31-0.54-0.56-0.7
							c-0.25-0.17-0.54-0.25-0.89-0.25s-0.65,0.08-0.92,0.24c-0.27,0.16-0.47,0.39-0.62,0.69s-0.22,0.64-0.22,1.04L338.12,104.59z"
							/>
						<path class="st7" d="M344.31,107.45c-0.4-0.24-0.71-0.57-0.94-0.98c-0.23-0.42-0.34-0.88-0.34-1.4c0-0.51,0.11-0.98,0.34-1.4
							c0.23-0.42,0.54-0.74,0.94-0.98c0.4-0.24,0.84-0.36,1.34-0.36c0.42,0,0.79,0.07,1.13,0.21s0.61,0.35,0.83,0.63
							c0.22,0.28,0.37,0.62,0.45,1.03h-0.82c-0.07-0.25-0.19-0.46-0.35-0.63s-0.35-0.3-0.56-0.38c-0.21-0.08-0.44-0.12-0.68-0.12
							c-0.34,0-0.64,0.09-0.91,0.26c-0.27,0.17-0.47,0.41-0.62,0.71c-0.15,0.3-0.22,0.65-0.22,1.03c0,0.38,0.08,0.72,0.22,1.03
							c0.15,0.3,0.36,0.54,0.62,0.71c0.27,0.17,0.57,0.26,0.91,0.26c0.24,0,0.47-0.04,0.68-0.12c0.21-0.08,0.4-0.21,0.56-0.38
							c0.16-0.17,0.28-0.38,0.35-0.63h0.82c-0.08,0.4-0.23,0.73-0.46,1.02c-0.23,0.28-0.51,0.5-0.85,0.64
							c-0.34,0.15-0.71,0.22-1.11,0.22C345.16,107.8,344.71,107.69,344.31,107.45z"/>
						<path class="st7" d="M350.19,107.52c-0.2-0.11-0.36-0.26-0.48-0.44c-0.12-0.19-0.17-0.4-0.17-0.63l0-3.27h-0.92l0.01-0.73
							h0.57c0.13,0,0.23-0.04,0.31-0.12c0.08-0.08,0.12-0.19,0.12-0.31v-0.84h0.74v1.28h1.26l-0.01,0.73h-1.26l0.01,3.22
							c0,0.16,0.05,0.29,0.16,0.4c0.11,0.11,0.24,0.16,0.4,0.16h0.69v0.72h-0.74C350.62,107.68,350.39,107.63,350.19,107.52z"/>
					</g>
				</g>
				<path class="st3" d="M437.9,88.57l-175.76,0c-8.05,0-14.58,6.53-14.58,14.58v32.82c0,8.05,6.53,14.58,14.58,14.58l175.76,0
					c8.05,0,14.58-6.53,14.58-14.58v-32.82C452.48,95.1,445.95,88.57,437.9,88.57z"/>
			</g>
		</g>
		<g>
			<g>
				
					<radialGradient id="SVGID_00000136402063652088035010000000370820628903631509_" cx="255.5613" cy="221.3698" r="192.6241" gradientTransform="matrix(1 0 0 0.2768 0 160.1019)" gradientUnits="userSpaceOnUse">
					<stop  offset="0" style="stop-color:#EB4857"/>
					<stop  offset="0.5" style="stop-color:#C611E0"/>
					<stop  offset="1" style="stop-color:#7F52FF"/>
				</radialGradient>
				<path style="fill:url(#SVGID_00000136402063652088035010000000370820628903631509_);" d="M435.98,196.51l-171.95,0
					c-6.78,0-12.28,5.5-12.28,12.28v0c0,6.78,5.5,12.28,12.28,12.28l171.95,0c6.78,0,12.28-5.5,12.28-12.28v0
					C448.26,202.01,442.76,196.51,435.98,196.51z"/>
			</g>
			<g>
				<path class="st0" d="M307.58,204.31v7.94h4.56v0.99h-5.6v-8.93H307.58z"/>
				<path class="st0" d="M314.71,204.31v1.21h-1.2v-1.21H314.71z M313.6,206.71h1.02v6.53h-1.02V206.71z"/>
				<path class="st0" d="M316.85,204.31h1.02v8.93h-1.02V204.31z M318.77,213.02c-0.43-0.25-0.76-0.6-1-1.05
					c-0.24-0.45-0.36-0.97-0.37-1.56h0.42v-0.88h-0.42c0.01-0.59,0.13-1.11,0.37-1.56c0.24-0.45,0.58-0.8,1-1.05
					c0.43-0.25,0.92-0.37,1.49-0.37c0.61,0,1.15,0.14,1.62,0.43c0.47,0.29,0.84,0.69,1.11,1.21c0.27,0.52,0.4,1.11,0.4,1.78
					s-0.13,1.26-0.4,1.78c-0.27,0.52-0.64,0.92-1.11,1.21c-0.47,0.29-1.02,0.43-1.62,0.43C319.7,213.39,319.2,213.27,318.77,213.02z
					 M321.26,212.15c0.34-0.21,0.6-0.5,0.78-0.88c0.19-0.38,0.28-0.81,0.28-1.3s-0.09-0.92-0.28-1.3c-0.19-0.38-0.45-0.67-0.78-0.88
					c-0.34-0.21-0.72-0.32-1.16-0.32c-0.44,0-0.83,0.11-1.17,0.32s-0.6,0.5-0.79,0.88s-0.28,0.81-0.28,1.3s0.09,0.92,0.28,1.3
					s0.45,0.67,0.79,0.88c0.34,0.21,0.73,0.32,1.17,0.32C320.53,212.47,320.92,212.36,321.26,212.15z"/>
				<path class="st0" d="M325.07,206.71h1.02v2.19l-0.43,0.64c0.02-0.59,0.12-1.1,0.32-1.53s0.47-0.77,0.83-1s0.76-0.35,1.23-0.35
					h0.23v1.07h-0.27c-0.39,0-0.73,0.07-1.01,0.22c-0.29,0.15-0.51,0.36-0.67,0.63s-0.23,0.6-0.23,0.97v3.71h-1.02V206.71z"/>
				<path class="st0" d="M333.11,206.82c0.38,0.18,0.67,0.44,0.87,0.79c0.21,0.35,0.31,0.76,0.31,1.23v4.39h-1v-2.44h0.27
					c0,0.54-0.09,1.01-0.28,1.4s-0.46,0.69-0.8,0.89c-0.35,0.2-0.76,0.31-1.24,0.31c-0.42,0-0.79-0.08-1.13-0.24
					s-0.6-0.38-0.79-0.67c-0.19-0.28-0.29-0.61-0.29-0.97c0-0.34,0.09-0.65,0.26-0.94c0.18-0.29,0.42-0.52,0.73-0.71
					c0.31-0.18,0.66-0.3,1.06-0.34l1.74-0.19c0.14-0.02,0.26-0.08,0.34-0.18c0.08-0.1,0.12-0.25,0.12-0.45l0.08,1.34l-2.14,0.24
					c-0.22,0.03-0.42,0.09-0.59,0.2c-0.17,0.11-0.31,0.25-0.4,0.42s-0.14,0.36-0.14,0.56c0,0.22,0.06,0.42,0.18,0.59
					s0.28,0.3,0.49,0.4c0.21,0.1,0.45,0.14,0.71,0.14c0.37,0,0.69-0.07,0.96-0.22c0.28-0.15,0.49-0.36,0.63-0.63
					c0.15-0.27,0.22-0.58,0.22-0.93v-2.08c0-0.26-0.06-0.49-0.18-0.69c-0.12-0.2-0.3-0.35-0.52-0.46c-0.22-0.11-0.48-0.16-0.77-0.16
					c-0.29,0-0.56,0.05-0.79,0.15c-0.23,0.1-0.42,0.23-0.56,0.4s-0.23,0.35-0.26,0.55h-1.02c0.05-0.37,0.2-0.7,0.44-1
					s0.55-0.53,0.94-0.7c0.38-0.17,0.81-0.26,1.27-0.26C332.3,206.55,332.74,206.64,333.11,206.82z"/>
				<path class="st0" d="M336.33,206.71h1.02v2.19l-0.43,0.64c0.02-0.59,0.12-1.1,0.32-1.53c0.2-0.44,0.47-0.77,0.83-1
					c0.35-0.23,0.76-0.35,1.23-0.35h0.23v1.07h-0.27c-0.39,0-0.73,0.07-1.01,0.22s-0.51,0.36-0.67,0.63
					c-0.16,0.27-0.23,0.6-0.23,0.97v3.71h-1.02V206.71z"/>
				<path class="st0" d="M340.55,214.38h0.81c0.19,0,0.36-0.05,0.51-0.16c0.15-0.11,0.26-0.25,0.34-0.42l0.41-0.87l-2.58-6.22h1.08
					l2.02,4.92l1.85-4.92h1.07l-2.83,7.16c-0.12,0.3-0.26,0.55-0.41,0.76c-0.16,0.21-0.35,0.37-0.59,0.48
					c-0.24,0.12-0.52,0.18-0.84,0.18h-0.84V214.38z"/>
				<path class="st0" d="M350.31,206.71h0.98v2.83h-0.34c0-0.61,0.09-1.14,0.28-1.59s0.46-0.79,0.82-1.03
					c0.36-0.24,0.78-0.36,1.28-0.36c0.46,0,0.87,0.11,1.22,0.32s0.62,0.51,0.81,0.9s0.29,0.84,0.29,1.35v4.12h-1.02v-4.08
					c0-0.36-0.06-0.67-0.18-0.93c-0.12-0.26-0.3-0.46-0.53-0.6c-0.23-0.14-0.51-0.21-0.83-0.21c-0.35,0-0.66,0.08-0.93,0.24
					s-0.47,0.38-0.61,0.68s-0.21,0.64-0.21,1.03v3.87h-1.02V206.71z M358.75,208.23c-0.12-0.26-0.3-0.46-0.53-0.6
					c-0.23-0.14-0.51-0.21-0.84-0.21c-0.35,0-0.65,0.08-0.92,0.24c-0.27,0.16-0.47,0.38-0.61,0.68c-0.14,0.29-0.22,0.64-0.22,1.03
					l-0.57,0.17c0-0.59,0.1-1.11,0.31-1.56c0.2-0.45,0.5-0.8,0.88-1.05c0.38-0.25,0.82-0.37,1.33-0.37c0.46,0,0.88,0.11,1.23,0.32
					s0.64,0.51,0.84,0.9c0.2,0.39,0.3,0.84,0.3,1.35v4.12h-1.02v-4.08C358.94,208.81,358.88,208.5,358.75,208.23z"/>
				<path class="st0" d="M363.08,212.95c-0.51-0.3-0.91-0.7-1.2-1.23s-0.44-1.1-0.44-1.75s0.15-1.23,0.44-1.75s0.69-0.93,1.2-1.23
					c0.51-0.3,1.08-0.44,1.7-0.44s1.18,0.15,1.69,0.44c0.51,0.3,0.91,0.7,1.2,1.22s0.44,1.1,0.44,1.75s-0.15,1.24-0.44,1.75
					c-0.29,0.52-0.69,0.93-1.2,1.22c-0.51,0.3-1.07,0.44-1.7,0.44C364.15,213.39,363.59,213.24,363.08,212.95z M365.94,212.15
					c0.34-0.21,0.61-0.5,0.8-0.88c0.2-0.38,0.29-0.81,0.29-1.3s-0.1-0.92-0.29-1.3c-0.2-0.38-0.46-0.67-0.81-0.88
					c-0.34-0.21-0.73-0.31-1.15-0.31c-0.43,0-0.81,0.1-1.16,0.31c-0.34,0.21-0.62,0.5-0.81,0.88c-0.2,0.38-0.3,0.81-0.3,1.3
					s0.1,0.92,0.3,1.3s0.47,0.67,0.82,0.88c0.35,0.21,0.73,0.31,1.16,0.31S365.6,212.36,365.94,212.15z"/>
				<path class="st0" d="M370.74,212.96c-0.47-0.29-0.85-0.69-1.11-1.21c-0.27-0.52-0.4-1.11-0.4-1.78s0.13-1.26,0.4-1.78
					c0.27-0.52,0.64-0.92,1.11-1.21s1.02-0.43,1.62-0.43c0.56,0,1.06,0.12,1.49,0.37c0.43,0.25,0.77,0.6,1.01,1.05
					s0.36,0.97,0.37,1.56h-0.42v0.88h0.42c-0.01,0.59-0.13,1.11-0.37,1.56c-0.24,0.45-0.58,0.8-1.01,1.05
					c-0.43,0.25-0.92,0.37-1.49,0.37C371.75,213.39,371.21,213.25,370.74,212.96z M373.69,212.15c0.34-0.21,0.6-0.5,0.79-0.88
					s0.29-0.81,0.29-1.3s-0.1-0.92-0.29-1.3s-0.45-0.67-0.79-0.88c-0.34-0.21-0.73-0.32-1.17-0.32c-0.43,0-0.82,0.11-1.15,0.32
					c-0.34,0.21-0.6,0.5-0.79,0.88s-0.28,0.81-0.28,1.3s0.09,0.92,0.28,1.3s0.45,0.67,0.79,0.88c0.34,0.21,0.72,0.32,1.15,0.32
					C372.96,212.47,373.35,212.36,373.69,212.15z M374.75,204.31h1.02v8.93h-1.02V204.31z"/>
				<path class="st0" d="M383.26,213.24h-0.98v-2.83h0.41c0,0.6-0.1,1.13-0.31,1.58s-0.51,0.79-0.89,1.04
					c-0.39,0.24-0.84,0.36-1.37,0.36c-0.47,0-0.88-0.1-1.24-0.3c-0.36-0.2-0.64-0.49-0.85-0.88c-0.21-0.39-0.31-0.86-0.31-1.4v-4.1
					h1.02v4c0,0.38,0.07,0.7,0.2,0.97c0.13,0.27,0.33,0.47,0.57,0.61c0.25,0.14,0.54,0.21,0.88,0.21c0.37,0,0.69-0.08,0.97-0.24
					s0.5-0.39,0.65-0.68c0.15-0.29,0.23-0.62,0.23-1v-3.87h1.02V213.24z"/>
				<path class="st0" d="M385.5,204.31h1.02v8.93h-1.02V204.31z"/>
				<path class="st0" d="M389.75,212.95c-0.49-0.29-0.87-0.7-1.15-1.22c-0.27-0.52-0.41-1.11-0.41-1.77c0-0.64,0.14-1.22,0.42-1.74
					c0.28-0.52,0.66-0.93,1.15-1.22c0.49-0.3,1.04-0.44,1.64-0.44c0.62,0,1.16,0.15,1.62,0.44c0.47,0.29,0.83,0.7,1.08,1.22
					c0.25,0.52,0.38,1.11,0.38,1.76v0.25h-5.28l0.01-0.28c0,0.49,0.1,0.93,0.3,1.32c0.19,0.39,0.46,0.69,0.8,0.91
					c0.34,0.22,0.72,0.33,1.15,0.33c0.28,0,0.55-0.03,0.79-0.1s0.46-0.17,0.64-0.31c0.18-0.13,0.32-0.29,0.42-0.47h1.02
					c-0.08,0.27-0.24,0.54-0.48,0.82s-0.58,0.5-1,0.68c-0.42,0.18-0.9,0.27-1.46,0.27C390.79,213.39,390.24,213.25,389.75,212.95z
					 M389.21,209.38h4.26v0.58c0-0.5-0.08-0.94-0.24-1.32c-0.16-0.38-0.39-0.67-0.7-0.88s-0.68-0.31-1.11-0.31
					c-0.43,0-0.82,0.1-1.15,0.3c-0.33,0.2-0.59,0.49-0.77,0.86c-0.18,0.37-0.27,0.8-0.27,1.3L389.21,209.38z"/>
			</g>
			<g>
				<g>
					<g>
						<path class="st7" d="M260.1,175.25v6.35h3.64v0.79h-4.48v-7.15H260.1z"/>
						<path class="st7" d="M265.6,175.25v0.97h-0.96v-0.97H265.6z M264.71,177.17h0.82v5.23h-0.82V177.17z"/>
						<path class="st7" d="M267.11,175.25h0.82v7.15h-0.82V175.25z M268.65,182.22c-0.34-0.2-0.61-0.48-0.8-0.84
							c-0.19-0.36-0.29-0.78-0.3-1.25h0.34v-0.7h-0.34c0.01-0.47,0.11-0.89,0.3-1.25c0.19-0.36,0.46-0.64,0.8-0.84
							c0.34-0.2,0.74-0.3,1.19-0.3c0.49,0,0.92,0.11,1.3,0.34s0.68,0.55,0.89,0.97s0.32,0.89,0.32,1.42s-0.11,1.01-0.32,1.42
							s-0.51,0.74-0.89,0.97s-0.81,0.34-1.3,0.34C269.39,182.52,268.99,182.42,268.65,182.22z M270.63,181.53
							c0.27-0.17,0.48-0.4,0.63-0.7c0.15-0.3,0.22-0.65,0.22-1.04c0-0.39-0.07-0.74-0.22-1.04c-0.15-0.3-0.36-0.54-0.63-0.7
							c-0.27-0.17-0.58-0.25-0.92-0.25c-0.35,0-0.66,0.08-0.93,0.25c-0.27,0.17-0.48,0.4-0.64,0.7c-0.15,0.3-0.23,0.65-0.23,1.04
							c0,0.39,0.08,0.74,0.23,1.04c0.15,0.3,0.36,0.54,0.64,0.7c0.27,0.17,0.58,0.25,0.93,0.25
							C270.06,181.78,270.37,181.7,270.63,181.53z"/>
						<path class="st7" d="M273.48,177.17h0.82v1.75l-0.34,0.51c0.01-0.47,0.1-0.88,0.26-1.23c0.16-0.35,0.38-0.62,0.66-0.8
							c0.28-0.19,0.61-0.28,0.98-0.28h0.18v0.85h-0.21c-0.31,0-0.58,0.06-0.81,0.18c-0.23,0.12-0.41,0.29-0.53,0.51
							c-0.12,0.22-0.19,0.48-0.19,0.77v2.97h-0.82V177.17z"/>
						<path class="st7" d="M279.71,177.27c0.3,0.14,0.53,0.36,0.7,0.63c0.17,0.28,0.25,0.61,0.25,0.99v3.51h-0.8v-1.95h0.21
							c0,0.44-0.07,0.81-0.22,1.12c-0.15,0.31-0.36,0.55-0.64,0.71c-0.28,0.16-0.61,0.25-1,0.25c-0.33,0-0.63-0.06-0.9-0.19
							c-0.27-0.13-0.48-0.31-0.63-0.54c-0.15-0.23-0.23-0.49-0.23-0.78c0-0.27,0.07-0.52,0.21-0.75c0.14-0.23,0.34-0.42,0.59-0.56
							c0.25-0.15,0.53-0.24,0.85-0.27l1.39-0.15c0.12-0.01,0.21-0.06,0.27-0.14c0.06-0.08,0.1-0.2,0.1-0.36l0.06,1.07l-1.71,0.19
							c-0.18,0.02-0.33,0.07-0.47,0.16c-0.14,0.08-0.24,0.2-0.32,0.33c-0.08,0.14-0.12,0.29-0.12,0.45c0,0.18,0.05,0.33,0.14,0.47
							c0.09,0.14,0.22,0.24,0.39,0.32c0.17,0.08,0.36,0.12,0.57,0.12c0.29,0,0.55-0.06,0.77-0.18c0.22-0.12,0.39-0.29,0.51-0.5
							c0.12-0.22,0.18-0.46,0.18-0.75v-1.66c0-0.21-0.05-0.39-0.15-0.55c-0.1-0.16-0.24-0.28-0.42-0.37
							c-0.18-0.09-0.38-0.13-0.62-0.13s-0.45,0.04-0.63,0.12s-0.34,0.19-0.45,0.32c-0.12,0.13-0.18,0.28-0.21,0.44h-0.82
							c0.04-0.3,0.16-0.56,0.35-0.8c0.19-0.24,0.44-0.42,0.75-0.56c0.31-0.14,0.65-0.2,1.02-0.2
							C279.06,177.05,279.41,177.12,279.71,177.27z"/>
						<path class="st7" d="M282.08,177.17h0.82v1.75l-0.34,0.51c0.01-0.47,0.1-0.88,0.26-1.23c0.16-0.35,0.38-0.62,0.66-0.8
							s0.61-0.28,0.98-0.28h0.18v0.85h-0.21c-0.31,0-0.58,0.06-0.81,0.18c-0.23,0.12-0.41,0.29-0.53,0.51
							c-0.12,0.22-0.19,0.48-0.19,0.77v2.97h-0.82V177.17z"/>
						<path class="st7" d="M285.25,183.31h0.65c0.15,0,0.29-0.04,0.41-0.13s0.21-0.2,0.28-0.33l0.33-0.7l-2.07-4.98h0.87l1.61,3.94
							l1.48-3.94h0.86l-2.27,5.73c-0.1,0.24-0.21,0.44-0.33,0.6s-0.28,0.29-0.47,0.39c-0.19,0.09-0.41,0.14-0.68,0.14h-0.67V183.31z
							"/>
						<path class="st7" d="M293.45,177.17v1.02h0.02v5.85h-0.82v-6.87H293.45z M294.21,182.22c-0.34-0.2-0.61-0.48-0.8-0.84
							c-0.19-0.36-0.29-0.78-0.3-1.25h0.34v-0.7h-0.34c0.01-0.47,0.11-0.89,0.3-1.25c0.19-0.36,0.46-0.64,0.8-0.84
							c0.34-0.2,0.74-0.3,1.19-0.3c0.49,0,0.92,0.11,1.3,0.34c0.38,0.23,0.67,0.55,0.89,0.97s0.32,0.89,0.32,1.42
							s-0.11,1.01-0.32,1.42s-0.51,0.74-0.89,0.97c-0.38,0.23-0.81,0.34-1.3,0.34C294.94,182.52,294.55,182.42,294.21,182.22z
							 M296.19,181.53c0.27-0.17,0.48-0.4,0.63-0.7c0.15-0.3,0.22-0.65,0.22-1.04c0-0.39-0.08-0.74-0.22-1.04
							c-0.15-0.3-0.36-0.54-0.63-0.7c-0.27-0.17-0.58-0.25-0.92-0.25c-0.35,0-0.66,0.08-0.93,0.25c-0.27,0.17-0.48,0.4-0.63,0.7
							c-0.15,0.3-0.23,0.65-0.23,1.04c0,0.39,0.08,0.74,0.23,1.04c0.15,0.3,0.36,0.54,0.63,0.7c0.27,0.17,0.58,0.25,0.93,0.25
							C295.61,181.78,295.92,181.7,296.19,181.53z"/>
						<path class="st7" d="M299.04,177.17h0.82v1.75l-0.34,0.51c0.01-0.47,0.1-0.88,0.26-1.23c0.16-0.35,0.38-0.62,0.66-0.8
							s0.61-0.28,0.98-0.28h0.18v0.85h-0.21c-0.31,0-0.58,0.06-0.81,0.18c-0.23,0.12-0.41,0.29-0.53,0.51
							c-0.12,0.22-0.19,0.48-0.19,0.77v2.97h-0.82V177.17z"/>
						<path class="st7" d="M303.35,182.17c-0.41-0.24-0.73-0.56-0.96-0.98c-0.23-0.42-0.35-0.88-0.35-1.4c0-0.52,0.12-0.98,0.35-1.4
							c0.23-0.42,0.55-0.74,0.96-0.98s0.86-0.35,1.36-0.35s0.95,0.12,1.35,0.35c0.4,0.24,0.72,0.56,0.96,0.98
							c0.23,0.42,0.35,0.88,0.35,1.4c0,0.52-0.12,0.99-0.35,1.4c-0.23,0.42-0.55,0.74-0.96,0.98c-0.41,0.24-0.86,0.35-1.36,0.35
							C304.21,182.52,303.76,182.4,303.35,182.17z M305.63,181.53c0.27-0.17,0.49-0.4,0.64-0.7c0.16-0.3,0.24-0.65,0.24-1.04
							c0-0.39-0.08-0.74-0.24-1.04s-0.37-0.54-0.64-0.7c-0.28-0.17-0.58-0.25-0.92-0.25s-0.65,0.08-0.92,0.25
							c-0.28,0.17-0.49,0.4-0.65,0.7s-0.24,0.65-0.24,1.04c0,0.39,0.08,0.74,0.24,1.04c0.16,0.3,0.38,0.54,0.65,0.7
							s0.59,0.25,0.93,0.25C305.05,181.78,305.36,181.69,305.63,181.53z"/>
						<path class="st7" d="M307.41,183.26h0.45c0.17,0,0.3-0.05,0.41-0.16c0.1-0.1,0.16-0.24,0.16-0.41v-5.52h0.82v5.58
							c0,0.25-0.06,0.47-0.17,0.66c-0.11,0.19-0.27,0.34-0.47,0.45c-0.2,0.11-0.43,0.16-0.69,0.16h-0.5V183.26z M309.31,175.25v0.97
							h-0.96v-0.97H309.31z"/>
						<path class="st7" d="M311.55,182.17c-0.39-0.23-0.7-0.56-0.92-0.98c-0.22-0.42-0.33-0.89-0.33-1.42
							c0-0.51,0.11-0.98,0.33-1.39s0.53-0.74,0.92-0.98c0.39-0.24,0.83-0.35,1.31-0.35c0.49,0,0.93,0.12,1.3,0.35
							c0.37,0.23,0.66,0.56,0.86,0.97c0.2,0.42,0.3,0.88,0.3,1.41v0.2h-4.22l0.01-0.22c0,0.4,0.08,0.75,0.24,1.06
							c0.15,0.31,0.37,0.55,0.64,0.73s0.58,0.26,0.92,0.26c0.23,0,0.44-0.03,0.64-0.08c0.2-0.06,0.37-0.14,0.51-0.25
							c0.14-0.11,0.26-0.23,0.33-0.38h0.82c-0.06,0.22-0.19,0.44-0.38,0.65s-0.46,0.4-0.8,0.55c-0.33,0.15-0.72,0.22-1.17,0.22
							C312.38,182.52,311.94,182.4,311.55,182.17z M311.11,179.31h3.4v0.46c0-0.4-0.06-0.75-0.19-1.05c-0.13-0.3-0.31-0.54-0.56-0.7
							c-0.25-0.17-0.54-0.25-0.89-0.25c-0.35,0-0.65,0.08-0.92,0.24s-0.47,0.39-0.62,0.69s-0.22,0.64-0.22,1.04L311.11,179.31z"/>
						<path class="st7" d="M317.3,182.16c-0.4-0.24-0.71-0.57-0.94-0.98c-0.23-0.42-0.34-0.88-0.34-1.4c0-0.51,0.11-0.98,0.34-1.4
							c0.22-0.42,0.54-0.74,0.94-0.98c0.4-0.24,0.84-0.36,1.34-0.36c0.42,0,0.79,0.07,1.13,0.21c0.33,0.14,0.61,0.35,0.83,0.63
							c0.22,0.28,0.37,0.62,0.46,1.03h-0.82c-0.08-0.25-0.19-0.46-0.35-0.63s-0.35-0.3-0.56-0.38s-0.44-0.12-0.68-0.12
							c-0.34,0-0.64,0.09-0.91,0.26s-0.48,0.41-0.62,0.71c-0.15,0.3-0.22,0.65-0.22,1.03c0,0.38,0.07,0.72,0.22,1.03
							c0.15,0.3,0.36,0.54,0.62,0.71s0.57,0.26,0.91,0.26c0.24,0,0.47-0.04,0.68-0.12c0.21-0.08,0.4-0.21,0.56-0.38
							c0.16-0.17,0.28-0.38,0.35-0.63h0.82c-0.08,0.4-0.23,0.73-0.46,1.02c-0.23,0.28-0.51,0.5-0.85,0.64
							c-0.34,0.15-0.71,0.22-1.11,0.22C318.15,182.52,317.7,182.4,317.3,182.16z"/>
						<path class="st7" d="M323.18,182.24c-0.2-0.11-0.36-0.26-0.48-0.44c-0.12-0.19-0.17-0.4-0.17-0.63l-0.01-3.27h-0.92l0.01-0.73
							h0.57c0.13,0,0.23-0.04,0.31-0.12c0.08-0.08,0.12-0.19,0.12-0.31v-0.84h0.73v1.28h1.26l-0.01,0.73h-1.26l0.01,3.22
							c0,0.16,0.05,0.29,0.16,0.4c0.11,0.11,0.24,0.16,0.4,0.16h0.69v0.72h-0.75C323.61,182.4,323.38,182.35,323.18,182.24z"/>
						<path class="st7" d="M327.76,181.62h2.19l0-4.56h-1.88v-0.69h1.06c0.22,0,0.41-0.05,0.57-0.14c0.16-0.09,0.29-0.22,0.37-0.39
							c0.09-0.17,0.13-0.37,0.13-0.59h0.01h0.59l0.01,6.37h1.91v0.78h-4.95V181.62z"/>
					</g>
				</g>
				<path class="st3" d="M437.9,163.29l-175.76,0c-8.05,0-14.58,6.53-14.58,14.58v32.82c0,8.05,6.53,14.58,14.58,14.58l175.76,0
					c8.05,0,14.58-6.53,14.58-14.58v-32.82C452.48,169.82,445.95,163.29,437.9,163.29z"/>
			</g>
		</g>
		<g>
			<g>
				
					<radialGradient id="SVGID_00000145058460513187904360000000828570701534149301_" cx="255.5613" cy="296.0869" r="192.6241" gradientTransform="matrix(1 0 0 0.2768 0 214.1398)" gradientUnits="userSpaceOnUse">
					<stop  offset="0" style="stop-color:#EB4857"/>
					<stop  offset="0.5" style="stop-color:#C611E0"/>
					<stop  offset="1" style="stop-color:#7F52FF"/>
				</radialGradient>
				<path style="fill:url(#SVGID_00000145058460513187904360000000828570701534149301_);" d="M435.98,271.23l-171.95,0
					c-6.78,0-12.28,5.5-12.28,12.28v0c0,6.78,5.5,12.28,12.28,12.28l171.95,0c6.78,0,12.28-5.5,12.28-12.28v0
					C448.26,276.73,442.76,271.23,435.98,271.23z"/>
			</g>
			<g>
				<path class="st0" d="M307.58,279.02v7.94h4.56v0.99h-5.6v-8.93H307.58z"/>
				<path class="st0" d="M314.71,279.02v1.21h-1.2v-1.21H314.71z M313.6,281.42h1.02v6.53h-1.02V281.42z"/>
				<path class="st0" d="M316.85,279.02h1.02v8.93h-1.02V279.02z M318.77,287.74c-0.43-0.25-0.76-0.6-1-1.05
					c-0.24-0.45-0.36-0.97-0.37-1.56h0.42v-0.88h-0.42c0.01-0.59,0.13-1.11,0.37-1.56c0.24-0.45,0.58-0.8,1-1.05
					s0.92-0.37,1.49-0.37c0.61,0,1.15,0.14,1.62,0.43c0.47,0.29,0.84,0.69,1.11,1.21c0.27,0.52,0.4,1.11,0.4,1.78
					c0,0.67-0.13,1.26-0.4,1.78s-0.64,0.92-1.11,1.21c-0.47,0.29-1.02,0.43-1.62,0.43C319.7,288.11,319.2,287.99,318.77,287.74z
					 M321.26,286.87c0.34-0.21,0.6-0.5,0.78-0.88c0.19-0.38,0.28-0.81,0.28-1.3c0-0.49-0.09-0.92-0.28-1.3
					c-0.19-0.38-0.45-0.67-0.78-0.88c-0.34-0.21-0.72-0.32-1.16-0.32c-0.44,0-0.83,0.11-1.17,0.32s-0.6,0.5-0.79,0.88
					s-0.28,0.81-0.28,1.3c0,0.49,0.09,0.92,0.28,1.3s0.45,0.67,0.79,0.88c0.34,0.21,0.73,0.32,1.17,0.32
					C320.53,287.18,320.92,287.08,321.26,286.87z"/>
				<path class="st0" d="M325.07,281.42h1.02v2.19l-0.43,0.64c0.02-0.59,0.12-1.1,0.32-1.53s0.47-0.77,0.83-1s0.76-0.35,1.23-0.35
					h0.23v1.07h-0.27c-0.39,0-0.73,0.07-1.01,0.22c-0.29,0.15-0.51,0.36-0.67,0.63s-0.23,0.6-0.23,0.97v3.71h-1.02V281.42z"/>
				<path class="st0" d="M333.11,281.54c0.38,0.18,0.67,0.44,0.87,0.79c0.21,0.35,0.31,0.76,0.31,1.23v4.39h-1v-2.44h0.27
					c0,0.54-0.09,1.01-0.28,1.4s-0.46,0.69-0.8,0.89c-0.35,0.2-0.76,0.31-1.24,0.31c-0.42,0-0.79-0.08-1.13-0.24
					s-0.6-0.38-0.79-0.67c-0.19-0.28-0.29-0.61-0.29-0.97c0-0.34,0.09-0.65,0.26-0.94c0.18-0.29,0.42-0.52,0.73-0.71
					s0.66-0.3,1.06-0.34l1.74-0.19c0.14-0.02,0.26-0.08,0.34-0.18c0.08-0.1,0.12-0.25,0.12-0.45l0.08,1.34l-2.14,0.24
					c-0.22,0.03-0.42,0.09-0.59,0.2c-0.17,0.11-0.31,0.24-0.4,0.41c-0.1,0.17-0.14,0.36-0.14,0.56c0,0.22,0.06,0.42,0.18,0.59
					c0.12,0.17,0.28,0.3,0.49,0.4c0.21,0.1,0.45,0.14,0.71,0.14c0.37,0,0.69-0.07,0.96-0.22c0.28-0.15,0.49-0.36,0.63-0.63
					c0.15-0.27,0.22-0.58,0.22-0.93v-2.08c0-0.26-0.06-0.49-0.18-0.69c-0.12-0.2-0.3-0.35-0.52-0.46s-0.48-0.16-0.77-0.16
					c-0.29,0-0.56,0.05-0.79,0.15c-0.23,0.1-0.42,0.23-0.56,0.4c-0.14,0.17-0.23,0.35-0.26,0.55h-1.02c0.05-0.37,0.2-0.7,0.44-1
					s0.55-0.53,0.94-0.7s0.81-0.25,1.27-0.25C332.3,281.27,332.74,281.36,333.11,281.54z"/>
				<path class="st0" d="M336.33,281.42h1.02v2.19l-0.43,0.64c0.02-0.59,0.12-1.1,0.32-1.53c0.2-0.44,0.47-0.77,0.83-1
					c0.35-0.23,0.76-0.35,1.23-0.35h0.23v1.07h-0.27c-0.39,0-0.73,0.07-1.01,0.22s-0.51,0.36-0.67,0.63
					c-0.16,0.27-0.23,0.6-0.23,0.97v3.71h-1.02V281.42z"/>
				<path class="st0" d="M340.55,289.09h0.81c0.19,0,0.36-0.05,0.51-0.16s0.26-0.24,0.34-0.41l0.41-0.87l-2.58-6.22h1.08l2.02,4.92
					l1.85-4.92h1.07l-2.83,7.16c-0.12,0.3-0.26,0.55-0.41,0.76c-0.16,0.21-0.35,0.37-0.59,0.48c-0.24,0.12-0.52,0.18-0.84,0.18
					h-0.84V289.09z"/>
				<path class="st0" d="M350.31,281.42h0.98v2.83h-0.34c0-0.61,0.09-1.14,0.28-1.59c0.19-0.45,0.46-0.79,0.82-1.03
					s0.78-0.36,1.28-0.36c0.46,0,0.87,0.1,1.22,0.32c0.35,0.21,0.62,0.51,0.81,0.9c0.19,0.39,0.29,0.84,0.29,1.35v4.12h-1.02v-4.08
					c0-0.36-0.06-0.67-0.18-0.93c-0.12-0.26-0.3-0.46-0.53-0.6c-0.23-0.14-0.51-0.21-0.83-0.21c-0.35,0-0.66,0.08-0.93,0.24
					s-0.47,0.38-0.61,0.68s-0.21,0.64-0.21,1.03v3.87h-1.02V281.42z M358.75,282.95c-0.12-0.26-0.3-0.46-0.53-0.6
					c-0.23-0.14-0.51-0.21-0.84-0.21c-0.35,0-0.65,0.08-0.92,0.24c-0.27,0.16-0.47,0.39-0.61,0.68c-0.14,0.29-0.22,0.63-0.22,1.03
					l-0.57,0.17c0-0.59,0.1-1.11,0.31-1.56c0.2-0.45,0.5-0.8,0.88-1.05s0.82-0.37,1.33-0.37c0.46,0,0.88,0.1,1.23,0.32
					c0.36,0.21,0.64,0.51,0.84,0.9c0.2,0.39,0.3,0.84,0.3,1.35v4.12h-1.02v-4.08C358.94,283.52,358.88,283.21,358.75,282.95z"/>
				<path class="st0" d="M363.08,287.67c-0.51-0.3-0.91-0.7-1.2-1.23s-0.44-1.1-0.44-1.75s0.15-1.23,0.44-1.75
					c0.29-0.52,0.69-0.93,1.2-1.22c0.51-0.3,1.08-0.44,1.7-0.44s1.18,0.15,1.69,0.44c0.51,0.3,0.91,0.7,1.2,1.22s0.44,1.1,0.44,1.75
					s-0.15,1.24-0.44,1.75c-0.29,0.52-0.69,0.93-1.2,1.22c-0.51,0.3-1.07,0.44-1.7,0.44C364.15,288.11,363.59,287.96,363.08,287.67z
					 M365.94,286.87c0.34-0.21,0.61-0.5,0.8-0.88c0.2-0.38,0.29-0.81,0.29-1.3c0-0.49-0.1-0.92-0.29-1.3
					c-0.2-0.38-0.46-0.67-0.81-0.88c-0.34-0.21-0.73-0.31-1.15-0.31c-0.43,0-0.81,0.1-1.16,0.31c-0.34,0.21-0.62,0.5-0.81,0.88
					c-0.2,0.38-0.3,0.81-0.3,1.3c0,0.49,0.1,0.92,0.3,1.3s0.47,0.67,0.82,0.88c0.35,0.21,0.73,0.31,1.16,0.31
					S365.6,287.07,365.94,286.87z"/>
				<path class="st0" d="M370.74,287.68c-0.47-0.29-0.85-0.69-1.11-1.21s-0.4-1.11-0.4-1.78c0-0.67,0.13-1.26,0.4-1.78
					c0.27-0.52,0.64-0.92,1.11-1.21s1.02-0.43,1.62-0.43c0.56,0,1.06,0.12,1.49,0.37s0.77,0.6,1.01,1.05s0.36,0.97,0.37,1.56h-0.42
					v0.88h0.42c-0.01,0.59-0.13,1.11-0.37,1.56c-0.24,0.45-0.58,0.8-1.01,1.05c-0.43,0.25-0.92,0.37-1.49,0.37
					C371.75,288.11,371.21,287.97,370.74,287.68z M373.69,286.87c0.34-0.21,0.6-0.5,0.79-0.88s0.29-0.81,0.29-1.3
					c0-0.49-0.1-0.92-0.29-1.3s-0.45-0.67-0.79-0.88c-0.34-0.21-0.73-0.32-1.17-0.32c-0.43,0-0.82,0.11-1.15,0.32
					c-0.34,0.21-0.6,0.5-0.79,0.88s-0.28,0.81-0.28,1.3c0,0.49,0.09,0.92,0.28,1.3s0.45,0.67,0.79,0.88
					c0.34,0.21,0.72,0.32,1.15,0.32C372.96,287.18,373.35,287.08,373.69,286.87z M374.75,279.02h1.02v8.93h-1.02V279.02z"/>
				<path class="st0" d="M383.26,287.96h-0.98v-2.83h0.41c0,0.6-0.1,1.13-0.31,1.58s-0.51,0.79-0.89,1.04
					c-0.39,0.24-0.84,0.36-1.37,0.36c-0.47,0-0.88-0.1-1.24-0.3c-0.36-0.2-0.64-0.49-0.85-0.88c-0.21-0.39-0.31-0.86-0.31-1.4v-4.1
					h1.02v4c0,0.38,0.07,0.7,0.2,0.97c0.13,0.27,0.33,0.47,0.57,0.61c0.25,0.14,0.54,0.21,0.88,0.21c0.37,0,0.69-0.08,0.97-0.24
					s0.5-0.39,0.65-0.68c0.15-0.29,0.23-0.62,0.23-1v-3.87h1.02V287.96z"/>
				<path class="st0" d="M385.5,279.02h1.02v8.93h-1.02V279.02z"/>
				<path class="st0" d="M389.75,287.67c-0.49-0.29-0.87-0.7-1.15-1.22c-0.27-0.52-0.41-1.11-0.41-1.77c0-0.64,0.14-1.22,0.42-1.74
					c0.28-0.52,0.66-0.93,1.15-1.22c0.49-0.3,1.04-0.44,1.64-0.44c0.62,0,1.16,0.15,1.62,0.44c0.47,0.29,0.83,0.7,1.08,1.22
					c0.25,0.52,0.38,1.11,0.38,1.76v0.25h-5.28l0.01-0.28c0,0.49,0.1,0.93,0.3,1.32c0.19,0.39,0.46,0.69,0.8,0.91
					c0.34,0.22,0.72,0.33,1.15,0.33c0.28,0,0.55-0.04,0.79-0.11s0.46-0.17,0.64-0.31c0.18-0.13,0.32-0.29,0.42-0.47h1.02
					c-0.08,0.27-0.24,0.54-0.48,0.82s-0.58,0.5-1,0.68c-0.42,0.18-0.9,0.27-1.46,0.27C390.79,288.11,390.24,287.96,389.75,287.67z
					 M389.21,284.1h4.26v0.58c0-0.5-0.08-0.94-0.24-1.32c-0.16-0.38-0.39-0.67-0.7-0.88s-0.68-0.31-1.11-0.31
					c-0.43,0-0.82,0.1-1.15,0.3c-0.33,0.2-0.59,0.49-0.77,0.86c-0.18,0.37-0.27,0.81-0.27,1.3L389.21,284.1z"/>
			</g>
			<g>
				<g>
					<g>
						<path class="st7" d="M260.1,249.97v6.35h3.64v0.79h-4.48v-7.15H260.1z"/>
						<path class="st7" d="M265.6,249.97v0.97h-0.96v-0.97H265.6z M264.71,251.89h0.82v5.23h-0.82V251.89z"/>
						<path class="st7" d="M267.11,249.97h0.82v7.15h-0.82V249.97z M268.65,256.94c-0.34-0.2-0.61-0.48-0.8-0.84
							c-0.19-0.36-0.29-0.77-0.3-1.25h0.34v-0.7h-0.34c0.01-0.47,0.11-0.89,0.3-1.25c0.19-0.36,0.46-0.64,0.8-0.84
							s0.74-0.3,1.19-0.3c0.49,0,0.92,0.12,1.3,0.34s0.68,0.55,0.89,0.97s0.32,0.89,0.32,1.42s-0.11,1.01-0.32,1.42
							c-0.21,0.42-0.51,0.74-0.89,0.97c-0.38,0.23-0.81,0.34-1.3,0.34C269.39,257.24,268.99,257.14,268.65,256.94z M270.63,256.25
							c0.27-0.17,0.48-0.4,0.63-0.7c0.15-0.3,0.22-0.65,0.22-1.04c0-0.39-0.07-0.74-0.22-1.04c-0.15-0.3-0.36-0.54-0.63-0.7
							c-0.27-0.17-0.58-0.25-0.92-0.25c-0.35,0-0.66,0.08-0.93,0.25c-0.27,0.17-0.48,0.4-0.64,0.7c-0.15,0.3-0.23,0.65-0.23,1.04
							c0,0.39,0.08,0.74,0.23,1.04c0.15,0.3,0.36,0.54,0.64,0.7c0.27,0.17,0.58,0.25,0.93,0.25
							C270.06,256.5,270.37,256.41,270.63,256.25z"/>
						<path class="st7" d="M273.48,251.89h0.82v1.75l-0.34,0.51c0.01-0.47,0.1-0.88,0.26-1.23s0.38-0.62,0.66-0.8
							c0.28-0.19,0.61-0.28,0.98-0.28h0.18v0.85h-0.21c-0.31,0-0.58,0.06-0.81,0.18c-0.23,0.12-0.41,0.29-0.53,0.51
							c-0.12,0.22-0.19,0.48-0.19,0.77v2.97h-0.82V251.89z"/>
						<path class="st7" d="M279.71,251.98c0.3,0.14,0.53,0.36,0.7,0.63c0.17,0.28,0.25,0.61,0.25,0.99v3.51h-0.8v-1.96h0.21
							c0,0.44-0.07,0.81-0.22,1.12c-0.15,0.31-0.36,0.55-0.64,0.71c-0.28,0.16-0.61,0.25-1,0.25c-0.33,0-0.63-0.06-0.9-0.19
							c-0.27-0.13-0.48-0.31-0.63-0.54c-0.15-0.23-0.23-0.49-0.23-0.78c0-0.27,0.07-0.52,0.21-0.75c0.14-0.23,0.34-0.42,0.59-0.56
							s0.53-0.24,0.85-0.27l1.39-0.15c0.12-0.01,0.21-0.06,0.27-0.14c0.06-0.08,0.1-0.2,0.1-0.36l0.06,1.07l-1.71,0.19
							c-0.18,0.02-0.33,0.07-0.47,0.16c-0.14,0.09-0.24,0.2-0.32,0.33c-0.08,0.14-0.12,0.29-0.12,0.45c0,0.18,0.05,0.33,0.14,0.47
							c0.09,0.14,0.22,0.24,0.39,0.32c0.17,0.08,0.36,0.11,0.57,0.11c0.29,0,0.55-0.06,0.77-0.18c0.22-0.12,0.39-0.29,0.51-0.5
							c0.12-0.22,0.18-0.47,0.18-0.75v-1.66c0-0.21-0.05-0.39-0.15-0.55c-0.1-0.16-0.24-0.28-0.42-0.37
							c-0.18-0.09-0.38-0.13-0.62-0.13s-0.45,0.04-0.63,0.12s-0.34,0.19-0.45,0.32c-0.12,0.13-0.18,0.28-0.21,0.44h-0.82
							c0.04-0.3,0.16-0.56,0.35-0.8c0.19-0.24,0.44-0.42,0.75-0.56c0.31-0.14,0.65-0.2,1.02-0.2
							C279.06,251.77,279.41,251.84,279.71,251.98z"/>
						<path class="st7" d="M282.08,251.89h0.82v1.75l-0.34,0.51c0.01-0.47,0.1-0.88,0.26-1.23s0.38-0.62,0.66-0.8
							c0.28-0.19,0.61-0.28,0.98-0.28h0.18v0.85h-0.21c-0.31,0-0.58,0.06-0.81,0.18c-0.23,0.12-0.41,0.29-0.53,0.51
							c-0.12,0.22-0.19,0.48-0.19,0.77v2.97h-0.82V251.89z"/>
						<path class="st7" d="M285.25,258.02h0.65c0.15,0,0.29-0.04,0.41-0.13c0.12-0.09,0.21-0.2,0.28-0.33l0.33-0.7l-2.07-4.98h0.87
							l1.61,3.94l1.48-3.94h0.86l-2.27,5.73c-0.1,0.24-0.21,0.44-0.33,0.6c-0.12,0.16-0.28,0.29-0.47,0.39
							c-0.19,0.09-0.41,0.14-0.68,0.14h-0.67V258.02z"/>
						<path class="st7" d="M293.45,251.89v1.02h0.02v5.85h-0.82v-6.87H293.45z M294.21,256.94c-0.34-0.2-0.61-0.48-0.8-0.84
							c-0.19-0.36-0.29-0.77-0.3-1.25h0.34v-0.7h-0.34c0.01-0.47,0.11-0.89,0.3-1.25c0.19-0.36,0.46-0.64,0.8-0.84
							c0.34-0.2,0.74-0.3,1.19-0.3c0.49,0,0.92,0.12,1.3,0.34c0.38,0.23,0.67,0.55,0.89,0.97s0.32,0.89,0.32,1.42
							s-0.11,1.01-0.32,1.42c-0.21,0.42-0.51,0.74-0.89,0.97c-0.38,0.23-0.81,0.34-1.3,0.34
							C294.94,257.24,294.55,257.14,294.21,256.94z M296.19,256.25c0.27-0.17,0.48-0.4,0.63-0.7c0.15-0.3,0.22-0.65,0.22-1.04
							c0-0.39-0.08-0.74-0.22-1.04c-0.15-0.3-0.36-0.54-0.63-0.7c-0.27-0.17-0.58-0.25-0.92-0.25c-0.35,0-0.66,0.08-0.93,0.25
							c-0.27,0.17-0.48,0.4-0.63,0.7c-0.15,0.3-0.23,0.65-0.23,1.04c0,0.39,0.08,0.74,0.23,1.04c0.15,0.3,0.36,0.54,0.63,0.7
							c0.27,0.17,0.58,0.25,0.93,0.25C295.61,256.5,295.92,256.41,296.19,256.25z"/>
						<path class="st7" d="M299.04,251.89h0.82v1.75l-0.34,0.51c0.01-0.47,0.1-0.88,0.26-1.23s0.38-0.62,0.66-0.8
							c0.28-0.19,0.61-0.28,0.98-0.28h0.18v0.85h-0.21c-0.31,0-0.58,0.06-0.81,0.18c-0.23,0.12-0.41,0.29-0.53,0.51
							c-0.12,0.22-0.19,0.48-0.19,0.77v2.97h-0.82V251.89z"/>
						<path class="st7" d="M303.35,256.88c-0.41-0.24-0.73-0.56-0.96-0.98c-0.23-0.42-0.35-0.88-0.35-1.4c0-0.52,0.12-0.98,0.35-1.4
							c0.23-0.42,0.55-0.74,0.96-0.98s0.86-0.35,1.36-0.35s0.95,0.12,1.35,0.35c0.4,0.24,0.72,0.56,0.96,0.98
							c0.23,0.42,0.35,0.88,0.35,1.4c0,0.52-0.12,0.99-0.35,1.4c-0.23,0.42-0.55,0.74-0.96,0.98c-0.41,0.24-0.86,0.35-1.36,0.35
							C304.21,257.24,303.76,257.12,303.35,256.88z M305.63,256.24c0.27-0.17,0.49-0.4,0.64-0.7s0.24-0.65,0.24-1.04
							c0-0.39-0.08-0.74-0.24-1.04s-0.37-0.54-0.64-0.7c-0.28-0.17-0.58-0.25-0.92-0.25s-0.65,0.08-0.92,0.25
							c-0.28,0.17-0.49,0.4-0.65,0.7s-0.24,0.65-0.24,1.04c0,0.39,0.08,0.74,0.24,1.04s0.38,0.53,0.65,0.7s0.59,0.25,0.93,0.25
							C305.05,256.49,305.36,256.41,305.63,256.24z"/>
						<path class="st7" d="M307.41,257.97h0.45c0.17,0,0.3-0.05,0.41-0.16c0.1-0.1,0.16-0.24,0.16-0.41v-5.52h0.82v5.58
							c0,0.25-0.06,0.47-0.17,0.66c-0.11,0.19-0.27,0.34-0.47,0.45c-0.2,0.11-0.43,0.16-0.69,0.16h-0.5V257.97z M309.31,249.97v0.97
							h-0.96v-0.97H309.31z"/>
						<path class="st7" d="M311.55,256.89c-0.39-0.23-0.7-0.56-0.92-0.98c-0.22-0.42-0.33-0.89-0.33-1.42
							c0-0.51,0.11-0.98,0.33-1.39c0.22-0.42,0.53-0.74,0.92-0.98c0.39-0.24,0.83-0.35,1.31-0.35c0.49,0,0.93,0.12,1.3,0.35
							c0.37,0.23,0.66,0.56,0.86,0.97s0.3,0.88,0.3,1.41v0.2h-4.22l0.01-0.22c0,0.4,0.08,0.75,0.24,1.06s0.37,0.55,0.64,0.73
							c0.27,0.17,0.58,0.26,0.92,0.26c0.23,0,0.44-0.03,0.64-0.08c0.2-0.06,0.37-0.14,0.51-0.24c0.14-0.11,0.26-0.23,0.33-0.38h0.82
							c-0.06,0.22-0.19,0.44-0.38,0.65s-0.46,0.4-0.8,0.55c-0.33,0.15-0.72,0.22-1.17,0.22
							C312.38,257.24,311.94,257.12,311.55,256.89z M311.11,254.03h3.4v0.46c0-0.4-0.06-0.75-0.19-1.05
							c-0.13-0.3-0.31-0.54-0.56-0.7c-0.25-0.17-0.54-0.25-0.89-0.25c-0.35,0-0.65,0.08-0.92,0.24s-0.47,0.39-0.62,0.69
							s-0.22,0.64-0.22,1.04L311.11,254.03z"/>
						<path class="st7" d="M317.3,256.88c-0.4-0.24-0.71-0.57-0.94-0.98c-0.23-0.42-0.34-0.88-0.34-1.4c0-0.51,0.11-0.98,0.34-1.4
							c0.22-0.42,0.54-0.74,0.94-0.98s0.84-0.36,1.34-0.36c0.42,0,0.79,0.07,1.13,0.21c0.33,0.14,0.61,0.35,0.83,0.63
							c0.22,0.28,0.37,0.63,0.46,1.03h-0.82c-0.08-0.25-0.19-0.46-0.35-0.63c-0.16-0.17-0.35-0.3-0.56-0.38
							c-0.21-0.08-0.44-0.12-0.68-0.12c-0.34,0-0.64,0.08-0.91,0.26c-0.27,0.17-0.48,0.41-0.62,0.71c-0.15,0.3-0.22,0.65-0.22,1.03
							c0,0.38,0.07,0.72,0.22,1.03c0.15,0.3,0.36,0.54,0.62,0.71s0.57,0.26,0.91,0.26c0.24,0,0.47-0.04,0.68-0.13
							c0.21-0.08,0.4-0.21,0.56-0.38c0.16-0.17,0.28-0.38,0.35-0.63h0.82c-0.08,0.39-0.23,0.73-0.46,1.02
							c-0.23,0.28-0.51,0.5-0.85,0.64c-0.34,0.15-0.71,0.22-1.11,0.22C318.15,257.24,317.7,257.12,317.3,256.88z"/>
						<path class="st7" d="M323.18,256.96c-0.2-0.11-0.36-0.25-0.48-0.44s-0.17-0.4-0.17-0.63l-0.01-3.27h-0.92l0.01-0.73h0.57
							c0.13,0,0.23-0.04,0.31-0.12c0.08-0.08,0.12-0.19,0.12-0.31v-0.84h0.73v1.28h1.26l-0.01,0.73h-1.26l0.01,3.22
							c0,0.16,0.05,0.29,0.16,0.4c0.11,0.11,0.24,0.16,0.4,0.16h0.69v0.73h-0.75C323.61,257.12,323.38,257.06,323.18,256.96z"/>
						<path class="st7" d="M328.06,256.37l2.88-2.71c0.29-0.27,0.5-0.52,0.63-0.78c0.14-0.25,0.21-0.52,0.21-0.79
							c0-0.29-0.06-0.55-0.19-0.78c-0.12-0.22-0.3-0.4-0.53-0.53s-0.48-0.19-0.78-0.19c-0.3,0-0.56,0.06-0.79,0.18
							c-0.23,0.12-0.41,0.29-0.54,0.51s-0.19,0.47-0.19,0.75h-0.86c0-0.43,0.1-0.81,0.3-1.14c0.2-0.33,0.49-0.59,0.85-0.78
							c0.37-0.18,0.78-0.28,1.25-0.28c0.46,0,0.87,0.09,1.22,0.27c0.35,0.18,0.63,0.43,0.82,0.76c0.19,0.33,0.29,0.7,0.29,1.12
							c0,0.41-0.1,0.8-0.29,1.16c-0.2,0.37-0.5,0.74-0.92,1.13l-2.25,2.05h3.64v0.78h-4.77V256.37z"/>
					</g>
				</g>
				<path class="st3" d="M437.9,238.01l-175.76,0c-8.05,0-14.58,6.53-14.58,14.58v32.82c0,8.05,6.53,14.58,14.58,14.58l175.76,0
					c8.05,0,14.58-6.53,14.58-14.58v-32.82C452.48,244.54,445.95,238.01,437.9,238.01z"/>
			</g>
		</g>
		<g>
			<g>
				
					<radialGradient id="SVGID_00000020391331343957268610000017566465671389892761_" cx="255.5613" cy="370.804" r="192.6241" gradientTransform="matrix(1 0 0 0.2768 0 268.1776)" gradientUnits="userSpaceOnUse">
					<stop  offset="0" style="stop-color:#EB4857"/>
					<stop  offset="0.5" style="stop-color:#C611E0"/>
					<stop  offset="1" style="stop-color:#7F52FF"/>
				</radialGradient>
				<path style="fill:url(#SVGID_00000020391331343957268610000017566465671389892761_);" d="M435.98,345.95l-171.95,0
					c-6.78,0-12.28,5.5-12.28,12.28l0,0c0,6.78,5.5,12.28,12.28,12.28l171.95,0c6.78,0,12.28-5.5,12.28-12.28v0
					C448.26,351.44,442.76,345.95,435.98,345.95z"/>
			</g>
			<g>
				<path class="st0" d="M307.58,353.74v7.94h4.56v0.99h-5.6v-8.93H307.58z"/>
				<path class="st0" d="M314.71,353.74v1.21h-1.2v-1.21H314.71z M313.6,356.14h1.02v6.53h-1.02V356.14z"/>
				<path class="st0" d="M316.85,353.74h1.02v8.93h-1.02V353.74z M318.77,362.45c-0.43-0.25-0.76-0.6-1-1.05
					c-0.24-0.45-0.36-0.97-0.37-1.56h0.42v-0.88h-0.42c0.01-0.59,0.13-1.11,0.37-1.56c0.24-0.45,0.58-0.8,1-1.05
					s0.92-0.37,1.49-0.37c0.61,0,1.15,0.14,1.62,0.43c0.47,0.29,0.84,0.69,1.11,1.21c0.27,0.52,0.4,1.11,0.4,1.78
					c0,0.67-0.13,1.26-0.4,1.78s-0.64,0.92-1.11,1.21c-0.47,0.29-1.02,0.43-1.62,0.43C319.7,362.83,319.2,362.7,318.77,362.45z
					 M321.26,361.59c0.34-0.21,0.6-0.5,0.78-0.88c0.19-0.38,0.28-0.81,0.28-1.3c0-0.49-0.09-0.92-0.28-1.3
					c-0.19-0.38-0.45-0.67-0.78-0.88c-0.34-0.21-0.72-0.32-1.16-0.32c-0.44,0-0.83,0.11-1.17,0.32s-0.6,0.5-0.79,0.88
					s-0.28,0.81-0.28,1.3c0,0.49,0.09,0.92,0.28,1.3s0.45,0.67,0.79,0.88c0.34,0.21,0.73,0.32,1.17,0.32
					C320.53,361.9,320.92,361.8,321.26,361.59z"/>
				<path class="st0" d="M325.07,356.14h1.02v2.19l-0.43,0.64c0.02-0.59,0.12-1.1,0.32-1.53s0.47-0.77,0.83-1s0.76-0.35,1.23-0.35
					h0.23v1.07h-0.27c-0.39,0-0.73,0.07-1.01,0.22c-0.29,0.15-0.51,0.36-0.67,0.63s-0.23,0.6-0.23,0.97v3.71h-1.02V356.14z"/>
				<path class="st0" d="M333.11,356.26c0.38,0.18,0.67,0.44,0.87,0.79c0.21,0.35,0.31,0.76,0.31,1.23v4.39h-1v-2.44h0.27
					c0,0.54-0.09,1.01-0.28,1.4s-0.46,0.69-0.8,0.89c-0.35,0.2-0.76,0.31-1.24,0.31c-0.42,0-0.79-0.08-1.13-0.24
					s-0.6-0.38-0.79-0.67c-0.19-0.28-0.29-0.61-0.29-0.97c0-0.34,0.09-0.65,0.26-0.94c0.18-0.29,0.42-0.52,0.73-0.71
					s0.66-0.3,1.06-0.34l1.74-0.19c0.14-0.02,0.26-0.08,0.34-0.18c0.08-0.1,0.12-0.25,0.12-0.45l0.08,1.34l-2.14,0.24
					c-0.22,0.03-0.42,0.09-0.59,0.2c-0.17,0.11-0.31,0.24-0.4,0.41c-0.1,0.17-0.14,0.36-0.14,0.56c0,0.22,0.06,0.42,0.18,0.59
					c0.12,0.17,0.28,0.3,0.49,0.4c0.21,0.1,0.45,0.14,0.71,0.14c0.37,0,0.69-0.07,0.96-0.22c0.28-0.15,0.49-0.36,0.63-0.63
					c0.15-0.27,0.22-0.58,0.22-0.93v-2.08c0-0.26-0.06-0.49-0.18-0.69c-0.12-0.2-0.3-0.35-0.52-0.46s-0.48-0.16-0.77-0.16
					c-0.29,0-0.56,0.05-0.79,0.15c-0.23,0.1-0.42,0.23-0.56,0.4c-0.14,0.17-0.23,0.35-0.26,0.55h-1.02c0.05-0.37,0.2-0.7,0.44-1
					s0.55-0.53,0.94-0.7s0.81-0.25,1.27-0.25C332.3,355.99,332.74,356.08,333.11,356.26z"/>
				<path class="st0" d="M336.33,356.14h1.02v2.19l-0.43,0.64c0.02-0.59,0.12-1.1,0.32-1.53c0.2-0.44,0.47-0.77,0.83-1
					c0.35-0.23,0.76-0.35,1.23-0.35h0.23v1.07h-0.27c-0.39,0-0.73,0.07-1.01,0.22s-0.51,0.36-0.67,0.63
					c-0.16,0.27-0.23,0.6-0.23,0.97v3.71h-1.02V356.14z"/>
				<path class="st0" d="M340.55,363.81h0.81c0.19,0,0.36-0.05,0.51-0.16s0.26-0.24,0.34-0.41l0.41-0.87l-2.58-6.22h1.08l2.02,4.92
					l1.85-4.92h1.07l-2.83,7.16c-0.12,0.3-0.26,0.55-0.41,0.76c-0.16,0.21-0.35,0.37-0.59,0.48c-0.24,0.12-0.52,0.18-0.84,0.18
					h-0.84V363.81z"/>
				<path class="st0" d="M350.31,356.14h0.98v2.83h-0.34c0-0.61,0.09-1.14,0.28-1.59c0.19-0.45,0.46-0.79,0.82-1.03
					s0.78-0.36,1.28-0.36c0.46,0,0.87,0.1,1.22,0.32c0.35,0.21,0.62,0.51,0.81,0.9c0.19,0.39,0.29,0.84,0.29,1.35v4.12h-1.02v-4.08
					c0-0.36-0.06-0.67-0.18-0.93c-0.12-0.26-0.3-0.46-0.53-0.6c-0.23-0.14-0.51-0.21-0.83-0.21c-0.35,0-0.66,0.08-0.93,0.24
					s-0.47,0.38-0.61,0.68s-0.21,0.64-0.21,1.03v3.87h-1.02V356.14z M358.75,357.67c-0.12-0.26-0.3-0.46-0.53-0.6
					c-0.23-0.14-0.51-0.21-0.84-0.21c-0.35,0-0.65,0.08-0.92,0.24c-0.27,0.16-0.47,0.39-0.61,0.68c-0.14,0.29-0.22,0.63-0.22,1.03
					l-0.57,0.17c0-0.59,0.1-1.11,0.31-1.56c0.2-0.45,0.5-0.8,0.88-1.05s0.82-0.37,1.33-0.37c0.46,0,0.88,0.1,1.23,0.32
					c0.36,0.21,0.64,0.51,0.84,0.9c0.2,0.39,0.3,0.84,0.3,1.35v4.12h-1.02v-4.08C358.94,358.24,358.88,357.93,358.75,357.67z"/>
				<path class="st0" d="M363.08,362.38c-0.51-0.3-0.91-0.7-1.2-1.23s-0.44-1.1-0.44-1.75s0.15-1.23,0.44-1.75
					c0.29-0.52,0.69-0.93,1.2-1.22c0.51-0.3,1.08-0.44,1.7-0.44s1.18,0.15,1.69,0.44c0.51,0.3,0.91,0.7,1.2,1.22s0.44,1.1,0.44,1.75
					s-0.15,1.24-0.44,1.75c-0.29,0.52-0.69,0.93-1.2,1.22c-0.51,0.3-1.07,0.44-1.7,0.44C364.15,362.83,363.59,362.68,363.08,362.38z
					 M365.94,361.58c0.34-0.21,0.61-0.5,0.8-0.88c0.2-0.38,0.29-0.81,0.29-1.3c0-0.49-0.1-0.92-0.29-1.3
					c-0.2-0.38-0.46-0.67-0.81-0.88c-0.34-0.21-0.73-0.31-1.15-0.31c-0.43,0-0.81,0.1-1.16,0.31c-0.34,0.21-0.62,0.5-0.81,0.88
					c-0.2,0.38-0.3,0.81-0.3,1.3c0,0.49,0.1,0.92,0.3,1.3s0.47,0.67,0.82,0.88c0.35,0.21,0.73,0.31,1.16,0.31
					S365.6,361.79,365.94,361.58z"/>
				<path class="st0" d="M370.74,362.4c-0.47-0.29-0.85-0.69-1.11-1.21s-0.4-1.11-0.4-1.78c0-0.67,0.13-1.26,0.4-1.78
					c0.27-0.52,0.64-0.92,1.11-1.21s1.02-0.43,1.62-0.43c0.56,0,1.06,0.12,1.49,0.37s0.77,0.6,1.01,1.05s0.36,0.97,0.37,1.56h-0.42
					v0.88h0.42c-0.01,0.59-0.13,1.11-0.37,1.56c-0.24,0.45-0.58,0.8-1.01,1.05c-0.43,0.25-0.92,0.37-1.49,0.37
					C371.75,362.83,371.21,362.68,370.74,362.4z M373.69,361.59c0.34-0.21,0.6-0.5,0.79-0.88s0.29-0.81,0.29-1.3
					c0-0.49-0.1-0.92-0.29-1.3s-0.45-0.67-0.79-0.88c-0.34-0.21-0.73-0.32-1.17-0.32c-0.43,0-0.82,0.11-1.15,0.32
					c-0.34,0.21-0.6,0.5-0.79,0.88s-0.28,0.81-0.28,1.3c0,0.49,0.09,0.92,0.28,1.3s0.45,0.67,0.79,0.88
					c0.34,0.21,0.72,0.32,1.15,0.32C372.96,361.9,373.35,361.8,373.69,361.59z M374.75,353.74h1.02v8.93h-1.02V353.74z"/>
				<path class="st0" d="M383.26,362.67h-0.98v-2.83h0.41c0,0.6-0.1,1.13-0.31,1.58s-0.51,0.79-0.89,1.04
					c-0.39,0.24-0.84,0.36-1.37,0.36c-0.47,0-0.88-0.1-1.24-0.3c-0.36-0.2-0.64-0.49-0.85-0.88c-0.21-0.39-0.31-0.86-0.31-1.4v-4.1
					h1.02v4c0,0.38,0.07,0.7,0.2,0.97c0.13,0.27,0.33,0.47,0.57,0.61c0.25,0.14,0.54,0.21,0.88,0.21c0.37,0,0.69-0.08,0.97-0.24
					s0.5-0.39,0.65-0.68c0.15-0.29,0.23-0.62,0.23-1v-3.87h1.02V362.67z"/>
				<path class="st0" d="M385.5,353.74h1.02v8.93h-1.02V353.74z"/>
				<path class="st0" d="M389.75,362.39c-0.49-0.29-0.87-0.7-1.15-1.22c-0.27-0.52-0.41-1.11-0.41-1.77c0-0.64,0.14-1.22,0.42-1.74
					c0.28-0.52,0.66-0.93,1.15-1.22c0.49-0.3,1.04-0.44,1.64-0.44c0.62,0,1.16,0.15,1.62,0.44c0.47,0.29,0.83,0.7,1.08,1.22
					c0.25,0.52,0.38,1.11,0.38,1.76v0.25h-5.28l0.01-0.28c0,0.49,0.1,0.93,0.3,1.32c0.19,0.39,0.46,0.69,0.8,0.91
					c0.34,0.22,0.72,0.33,1.15,0.33c0.28,0,0.55-0.04,0.79-0.11s0.46-0.17,0.64-0.31c0.18-0.13,0.32-0.29,0.42-0.47h1.02
					c-0.08,0.27-0.24,0.54-0.48,0.82s-0.58,0.5-1,0.68c-0.42,0.18-0.9,0.27-1.46,0.27C390.79,362.83,390.24,362.68,389.75,362.39z
					 M389.21,358.81h4.26v0.58c0-0.5-0.08-0.94-0.24-1.32c-0.16-0.38-0.39-0.67-0.7-0.88s-0.68-0.31-1.11-0.31
					c-0.43,0-0.82,0.1-1.15,0.3c-0.33,0.2-0.59,0.49-0.77,0.86c-0.18,0.37-0.27,0.81-0.27,1.3L389.21,358.81z"/>
			</g>
			<g>
				<g>
					<g>
						<path class="st7" d="M260.1,324.69v6.35h3.64v0.79h-4.48v-7.15H260.1z"/>
						<path class="st7" d="M265.6,324.69v0.97h-0.96v-0.97H265.6z M264.71,326.61h0.82v5.23h-0.82V326.61z"/>
						<path class="st7" d="M267.11,324.69h0.82v7.15h-0.82V324.69z M268.65,331.66c-0.34-0.2-0.61-0.48-0.8-0.84
							c-0.19-0.36-0.29-0.77-0.3-1.25h0.34v-0.7h-0.34c0.01-0.47,0.11-0.89,0.3-1.25c0.19-0.36,0.46-0.64,0.8-0.84
							s0.74-0.3,1.19-0.3c0.49,0,0.92,0.12,1.3,0.34s0.68,0.55,0.89,0.97s0.32,0.89,0.32,1.42s-0.11,1.01-0.32,1.42
							s-0.51,0.74-0.89,0.97c-0.38,0.23-0.81,0.34-1.3,0.34C269.39,331.96,268.99,331.86,268.65,331.66z M270.63,330.96
							c0.27-0.17,0.48-0.4,0.63-0.7c0.15-0.3,0.22-0.65,0.22-1.04c0-0.39-0.07-0.74-0.22-1.04c-0.15-0.3-0.36-0.54-0.63-0.7
							c-0.27-0.17-0.58-0.25-0.92-0.25c-0.35,0-0.66,0.08-0.93,0.25c-0.27,0.17-0.48,0.4-0.64,0.7c-0.15,0.3-0.23,0.65-0.23,1.04
							c0,0.39,0.08,0.74,0.23,1.04c0.15,0.3,0.36,0.54,0.64,0.7c0.27,0.17,0.58,0.25,0.93,0.25
							C270.06,331.22,270.37,331.13,270.63,330.96z"/>
						<path class="st7" d="M273.48,326.61h0.82v1.75l-0.34,0.51c0.01-0.47,0.1-0.88,0.26-1.23s0.38-0.62,0.66-0.8
							c0.28-0.19,0.61-0.28,0.98-0.28h0.18v0.85h-0.21c-0.31,0-0.58,0.06-0.81,0.18c-0.23,0.12-0.41,0.29-0.53,0.51
							c-0.12,0.22-0.19,0.48-0.19,0.77v2.97h-0.82V326.61z"/>
						<path class="st7" d="M279.71,326.7c0.3,0.14,0.53,0.36,0.7,0.63c0.17,0.28,0.25,0.61,0.25,0.99v3.51h-0.8v-1.96h0.21
							c0,0.44-0.07,0.81-0.22,1.12c-0.15,0.31-0.36,0.55-0.64,0.71c-0.28,0.16-0.61,0.25-1,0.25c-0.33,0-0.63-0.06-0.9-0.19
							c-0.27-0.13-0.48-0.31-0.63-0.54c-0.15-0.23-0.23-0.49-0.23-0.78c0-0.27,0.07-0.52,0.21-0.75c0.14-0.23,0.34-0.42,0.59-0.56
							s0.53-0.24,0.85-0.27l1.39-0.15c0.12-0.01,0.21-0.06,0.27-0.14c0.06-0.08,0.1-0.2,0.1-0.36l0.06,1.07l-1.71,0.19
							c-0.18,0.02-0.33,0.07-0.47,0.16c-0.14,0.09-0.24,0.2-0.32,0.33c-0.08,0.14-0.12,0.29-0.12,0.45c0,0.18,0.05,0.33,0.14,0.47
							c0.09,0.14,0.22,0.24,0.39,0.32c0.17,0.08,0.36,0.11,0.57,0.11c0.29,0,0.55-0.06,0.77-0.18c0.22-0.12,0.39-0.29,0.51-0.5
							c0.12-0.22,0.18-0.47,0.18-0.75v-1.66c0-0.21-0.05-0.39-0.15-0.55c-0.1-0.16-0.24-0.28-0.42-0.37
							c-0.18-0.09-0.38-0.13-0.62-0.13s-0.45,0.04-0.63,0.12s-0.34,0.19-0.45,0.32c-0.12,0.13-0.18,0.28-0.21,0.44h-0.82
							c0.04-0.3,0.16-0.56,0.35-0.8c0.19-0.24,0.44-0.42,0.75-0.56c0.31-0.14,0.65-0.2,1.02-0.2
							C279.06,326.48,279.41,326.56,279.71,326.7z"/>
						<path class="st7" d="M282.08,326.61h0.82v1.75l-0.34,0.51c0.01-0.47,0.1-0.88,0.26-1.23s0.38-0.62,0.66-0.8
							c0.28-0.19,0.61-0.28,0.98-0.28h0.18v0.85h-0.21c-0.31,0-0.58,0.06-0.81,0.18c-0.23,0.12-0.41,0.29-0.53,0.51
							c-0.12,0.22-0.19,0.48-0.19,0.77v2.97h-0.82V326.61z"/>
						<path class="st7" d="M285.25,332.74h0.65c0.15,0,0.29-0.04,0.41-0.13c0.12-0.09,0.21-0.2,0.28-0.33l0.33-0.7l-2.07-4.98h0.87
							l1.61,3.94l1.48-3.94h0.86l-2.27,5.73c-0.1,0.24-0.21,0.44-0.33,0.6c-0.12,0.16-0.28,0.29-0.47,0.39
							c-0.19,0.09-0.41,0.14-0.68,0.14h-0.67V332.74z"/>
						<path class="st7" d="M293.45,326.61v1.02h0.02v5.85h-0.82v-6.87H293.45z M294.21,331.66c-0.34-0.2-0.61-0.48-0.8-0.84
							c-0.19-0.36-0.29-0.77-0.3-1.25h0.34v-0.7h-0.34c0.01-0.47,0.11-0.89,0.3-1.25c0.19-0.36,0.46-0.64,0.8-0.84
							c0.34-0.2,0.74-0.3,1.19-0.3c0.49,0,0.92,0.12,1.3,0.34c0.38,0.23,0.67,0.55,0.89,0.97s0.32,0.89,0.32,1.42
							s-0.11,1.01-0.32,1.42s-0.51,0.74-0.89,0.97c-0.38,0.23-0.81,0.34-1.3,0.34C294.94,331.96,294.55,331.86,294.21,331.66z
							 M296.19,330.96c0.27-0.17,0.48-0.4,0.63-0.7c0.15-0.3,0.22-0.65,0.22-1.04c0-0.39-0.08-0.74-0.22-1.04
							c-0.15-0.3-0.36-0.54-0.63-0.7c-0.27-0.17-0.58-0.25-0.92-0.25c-0.35,0-0.66,0.08-0.93,0.25c-0.27,0.17-0.48,0.4-0.63,0.7
							c-0.15,0.3-0.23,0.65-0.23,1.04c0,0.39,0.08,0.74,0.23,1.04c0.15,0.3,0.36,0.54,0.63,0.7c0.27,0.17,0.58,0.25,0.93,0.25
							C295.61,331.22,295.92,331.13,296.19,330.96z"/>
						<path class="st7" d="M299.04,326.61h0.82v1.75l-0.34,0.51c0.01-0.47,0.1-0.88,0.26-1.23s0.38-0.62,0.66-0.8
							c0.28-0.19,0.61-0.28,0.98-0.28h0.18v0.85h-0.21c-0.31,0-0.58,0.06-0.81,0.18c-0.23,0.12-0.41,0.29-0.53,0.51
							c-0.12,0.22-0.19,0.48-0.19,0.77v2.97h-0.82V326.61z"/>
						<path class="st7" d="M303.35,331.6c-0.41-0.24-0.73-0.56-0.96-0.98c-0.23-0.42-0.35-0.88-0.35-1.4c0-0.52,0.12-0.98,0.35-1.4
							c0.23-0.42,0.55-0.74,0.96-0.98s0.86-0.35,1.36-0.35s0.95,0.12,1.35,0.35c0.4,0.24,0.72,0.56,0.96,0.98
							c0.23,0.42,0.35,0.88,0.35,1.4c0,0.52-0.12,0.99-0.35,1.4c-0.23,0.42-0.55,0.74-0.96,0.98c-0.41,0.24-0.86,0.35-1.36,0.35
							C304.21,331.96,303.76,331.84,303.35,331.6z M305.63,330.96c0.27-0.17,0.49-0.4,0.64-0.7s0.24-0.65,0.24-1.04
							c0-0.39-0.08-0.74-0.24-1.04s-0.37-0.54-0.64-0.7c-0.28-0.17-0.58-0.25-0.92-0.25s-0.65,0.08-0.92,0.25
							c-0.28,0.17-0.49,0.4-0.65,0.7s-0.24,0.65-0.24,1.04c0,0.39,0.08,0.74,0.24,1.04s0.38,0.53,0.65,0.7s0.59,0.25,0.93,0.25
							C305.05,331.21,305.36,331.13,305.63,330.96z"/>
						<path class="st7" d="M307.41,332.69h0.45c0.17,0,0.3-0.05,0.41-0.16c0.1-0.1,0.16-0.24,0.16-0.41v-5.52h0.82v5.58
							c0,0.25-0.06,0.47-0.17,0.66c-0.11,0.19-0.27,0.34-0.47,0.45c-0.2,0.11-0.43,0.16-0.69,0.16h-0.5V332.69z M309.31,324.69v0.97
							h-0.96v-0.97H309.31z"/>
						<path class="st7" d="M311.55,331.6c-0.39-0.23-0.7-0.56-0.92-0.98c-0.22-0.42-0.33-0.89-0.33-1.42c0-0.51,0.11-0.98,0.33-1.39
							c0.22-0.42,0.53-0.74,0.92-0.98c0.39-0.24,0.83-0.35,1.31-0.35c0.49,0,0.93,0.12,1.3,0.35c0.37,0.23,0.66,0.56,0.86,0.97
							s0.3,0.88,0.3,1.41v0.2h-4.22l0.01-0.22c0,0.4,0.08,0.75,0.24,1.06s0.37,0.55,0.64,0.73c0.27,0.17,0.58,0.26,0.92,0.26
							c0.23,0,0.44-0.03,0.64-0.08c0.2-0.06,0.37-0.14,0.51-0.24c0.14-0.11,0.26-0.23,0.33-0.38h0.82
							c-0.06,0.22-0.19,0.44-0.38,0.65s-0.46,0.4-0.8,0.55c-0.33,0.15-0.72,0.22-1.17,0.22
							C312.38,331.96,311.94,331.84,311.55,331.6z M311.11,328.74h3.4v0.46c0-0.4-0.06-0.75-0.19-1.05c-0.13-0.3-0.31-0.54-0.56-0.7
							c-0.25-0.17-0.54-0.25-0.89-0.25c-0.35,0-0.65,0.08-0.92,0.24s-0.47,0.39-0.62,0.69s-0.22,0.64-0.22,1.04L311.11,328.74z"/>
						<path class="st7" d="M317.3,331.6c-0.4-0.24-0.71-0.57-0.94-0.98c-0.23-0.42-0.34-0.88-0.34-1.4c0-0.51,0.11-0.98,0.34-1.4
							c0.22-0.42,0.54-0.74,0.94-0.98s0.84-0.36,1.34-0.36c0.42,0,0.79,0.07,1.13,0.21c0.33,0.14,0.61,0.35,0.83,0.63
							c0.22,0.28,0.37,0.63,0.46,1.03h-0.82c-0.08-0.25-0.19-0.46-0.35-0.63c-0.16-0.17-0.35-0.3-0.56-0.38
							c-0.21-0.08-0.44-0.12-0.68-0.12c-0.34,0-0.64,0.08-0.91,0.26c-0.27,0.17-0.48,0.41-0.62,0.71c-0.15,0.3-0.22,0.65-0.22,1.03
							c0,0.38,0.07,0.72,0.22,1.03c0.15,0.3,0.36,0.54,0.62,0.71s0.57,0.26,0.91,0.26c0.24,0,0.47-0.04,0.68-0.13
							c0.21-0.08,0.4-0.21,0.56-0.38s0.28-0.38,0.35-0.63h0.82c-0.08,0.39-0.23,0.73-0.46,1.02c-0.23,0.28-0.51,0.5-0.85,0.64
							c-0.34,0.15-0.71,0.22-1.11,0.22C318.15,331.96,317.7,331.84,317.3,331.6z"/>
						<path class="st7" d="M323.18,331.67c-0.2-0.11-0.36-0.25-0.48-0.44s-0.17-0.4-0.17-0.63l-0.01-3.27h-0.92l0.01-0.73h0.57
							c0.13,0,0.23-0.04,0.31-0.12c0.08-0.08,0.12-0.19,0.12-0.31v-0.84h0.73v1.28h1.26l-0.01,0.73h-1.26l0.01,3.22
							c0,0.16,0.05,0.29,0.16,0.4c0.11,0.11,0.24,0.16,0.4,0.16h0.69v0.73h-0.75C323.61,331.83,323.38,331.78,323.18,331.67z"/>
						<path class="st7" d="M328.35,324.69h0.9l3.84,5.8v-5.8h0.85v7.15h-0.91l-3.83-5.8v5.8h-0.85V324.69z"/>
					</g>
				</g>
				<path class="st3" d="M437.9,312.73l-175.76,0c-8.05,0-14.58,6.53-14.58,14.58v32.82c0,8.05,6.53,14.58,14.58,14.58l175.76,0
					c8.05,0,14.58-6.53,14.58-14.58v-32.82C452.48,319.26,445.95,312.73,437.9,312.73z"/>
			</g>
		</g>
	</g>
	<g>
		<path class="st3" d="M210.63,20.29l-175.76,0c-8.05,0-14.58,6.53-14.58,14.58v60.39c0,8.05,6.53,14.58,14.58,14.58l175.76,0
			c8.05,0,14.58-6.53,14.58-14.58V34.87C225.22,26.82,218.69,20.29,210.63,20.29z"/>
		<g>
			<g>
				<g>
					<path class="st7" d="M33.77,31.91h0.91l2.75,7.15h-0.9l-0.69-1.9h-3.16l-0.64,1.9h-0.92L33.77,31.91z M35.57,36.42l-1.22-3.32
						l-0.12-0.43L34.1,33.1l-1.16,3.32H35.57z"/>
					<path class="st7" d="M38.34,33.83h0.79v2.26H38.8c0-0.48,0.08-0.9,0.25-1.26s0.41-0.64,0.71-0.83s0.67-0.29,1.09-0.29
						c0.38,0,0.71,0.08,1,0.24c0.29,0.16,0.52,0.4,0.68,0.71c0.17,0.31,0.25,0.69,0.25,1.12v3.28h-0.82v-3.2
						c0-0.3-0.05-0.56-0.16-0.78s-0.26-0.38-0.46-0.49s-0.43-0.17-0.7-0.17c-0.29,0-0.55,0.06-0.78,0.19s-0.4,0.31-0.52,0.54
						c-0.12,0.23-0.19,0.5-0.19,0.8v3.1h-0.82V33.83z"/>
					<path class="st7" d="M44.97,38.83c-0.38-0.23-0.68-0.55-0.89-0.97c-0.21-0.42-0.32-0.89-0.32-1.42s0.11-1.01,0.32-1.42
						c0.21-0.42,0.51-0.74,0.89-0.97s0.81-0.34,1.3-0.34c0.45,0,0.85,0.1,1.19,0.3c0.34,0.2,0.61,0.48,0.8,0.84s0.29,0.77,0.3,1.25
						h-0.34v0.7h0.34c-0.01,0.47-0.11,0.89-0.3,1.25c-0.19,0.36-0.46,0.64-0.8,0.84s-0.74,0.3-1.19,0.3
						C45.78,39.17,45.35,39.06,44.97,38.83z M47.33,38.18c0.27-0.17,0.48-0.4,0.64-0.7c0.15-0.3,0.23-0.65,0.23-1.04
						c0-0.39-0.08-0.74-0.23-1.04s-0.36-0.54-0.64-0.7c-0.27-0.17-0.58-0.25-0.93-0.25c-0.35,0-0.66,0.08-0.92,0.25
						c-0.27,0.17-0.48,0.4-0.63,0.7s-0.22,0.65-0.22,1.04c0,0.39,0.08,0.74,0.22,1.04c0.15,0.3,0.36,0.54,0.63,0.7
						s0.58,0.25,0.92,0.25C46.75,38.43,47.06,38.35,47.33,38.18z M48.18,31.91H49v7.15h-0.82V31.91z"/>
					<path class="st7" d="M50.5,33.83h0.82v1.75l-0.34,0.51c0.01-0.47,0.1-0.88,0.26-1.23c0.16-0.35,0.38-0.62,0.66-0.8
						c0.28-0.19,0.61-0.28,0.98-0.28h0.18v0.85h-0.21c-0.31,0-0.58,0.06-0.81,0.18c-0.23,0.12-0.41,0.29-0.53,0.51
						c-0.12,0.22-0.19,0.48-0.19,0.77v2.97H50.5V33.83z"/>
					<path class="st7" d="M54.81,38.82c-0.41-0.24-0.73-0.56-0.96-0.98s-0.35-0.88-0.35-1.4c0-0.52,0.12-0.98,0.35-1.4
						c0.23-0.42,0.55-0.74,0.96-0.98s0.86-0.35,1.36-0.35c0.5,0,0.95,0.12,1.35,0.35c0.4,0.24,0.72,0.56,0.96,0.98
						c0.23,0.42,0.35,0.88,0.35,1.4c0,0.52-0.12,0.99-0.35,1.4c-0.23,0.42-0.55,0.74-0.96,0.98c-0.41,0.24-0.86,0.35-1.36,0.35
						C55.67,39.17,55.22,39.06,54.81,38.82z M57.1,38.18c0.27-0.17,0.49-0.4,0.64-0.7c0.16-0.3,0.24-0.65,0.24-1.04
						c0-0.39-0.08-0.74-0.24-1.04s-0.37-0.54-0.65-0.7c-0.27-0.17-0.58-0.25-0.92-0.25c-0.34,0-0.65,0.08-0.92,0.25
						c-0.28,0.17-0.49,0.4-0.65,0.7s-0.24,0.65-0.24,1.04c0,0.39,0.08,0.74,0.24,1.04c0.16,0.3,0.38,0.54,0.65,0.7
						s0.59,0.25,0.93,0.25C56.52,38.43,56.82,38.35,57.1,38.18z"/>
					<path class="st7" d="M60.86,31.91v0.97H59.9v-0.97H60.86z M59.97,33.83h0.82v5.23h-0.82V33.83z"/>
					<path class="st7" d="M63.13,38.83c-0.38-0.23-0.68-0.55-0.89-0.97c-0.21-0.42-0.32-0.89-0.32-1.42s0.11-1.01,0.32-1.42
						c0.21-0.42,0.51-0.74,0.89-0.97s0.81-0.34,1.3-0.34c0.45,0,0.85,0.1,1.19,0.3c0.34,0.2,0.61,0.48,0.8,0.84s0.29,0.77,0.3,1.25
						h-0.34v0.7h0.34c-0.01,0.47-0.11,0.89-0.3,1.25c-0.19,0.36-0.46,0.64-0.8,0.84s-0.74,0.3-1.19,0.3
						C63.94,39.17,63.51,39.06,63.13,38.83z M65.49,38.18c0.27-0.17,0.48-0.4,0.64-0.7c0.15-0.3,0.23-0.65,0.23-1.04
						c0-0.39-0.08-0.74-0.23-1.04s-0.36-0.54-0.64-0.7c-0.27-0.17-0.58-0.25-0.93-0.25c-0.35,0-0.66,0.08-0.92,0.25
						c-0.27,0.17-0.48,0.4-0.63,0.7s-0.22,0.65-0.22,1.04c0,0.39,0.08,0.74,0.22,1.04c0.15,0.3,0.36,0.54,0.63,0.7
						s0.58,0.25,0.92,0.25C64.91,38.43,65.22,38.35,65.49,38.18z M66.34,31.91h0.82v7.15h-0.82V31.91z"/>
					<path class="st7" d="M71.78,33.83v1.02h0.02v5.85h-0.82v-6.87H71.78z M72.53,38.88c-0.34-0.2-0.61-0.48-0.8-0.84
						c-0.19-0.36-0.29-0.78-0.3-1.25h0.34v-0.7h-0.34c0.01-0.47,0.11-0.89,0.3-1.25s0.46-0.64,0.8-0.84c0.34-0.2,0.74-0.3,1.19-0.3
						c0.49,0,0.92,0.11,1.3,0.34c0.38,0.23,0.67,0.55,0.89,0.97s0.32,0.89,0.32,1.42s-0.11,1.01-0.32,1.42s-0.51,0.74-0.89,0.97
						c-0.38,0.23-0.81,0.34-1.3,0.34C73.27,39.17,72.88,39.08,72.53,38.88z M74.52,38.18c0.27-0.17,0.48-0.4,0.63-0.7
						c0.15-0.3,0.22-0.65,0.22-1.04c0-0.39-0.08-0.74-0.22-1.04c-0.15-0.3-0.36-0.54-0.63-0.7c-0.27-0.17-0.58-0.25-0.92-0.25
						c-0.35,0-0.66,0.08-0.93,0.25c-0.27,0.17-0.48,0.4-0.63,0.7c-0.15,0.3-0.23,0.65-0.23,1.04c0,0.39,0.08,0.74,0.23,1.04
						c0.15,0.3,0.36,0.54,0.63,0.7s0.58,0.25,0.93,0.25C73.94,38.43,74.25,38.35,74.52,38.18z"/>
					<path class="st7" d="M77.37,33.83h0.82v1.75l-0.34,0.51c0.01-0.47,0.1-0.88,0.26-1.23c0.16-0.35,0.38-0.62,0.66-0.8
						c0.28-0.19,0.61-0.28,0.98-0.28h0.18v0.85h-0.21c-0.31,0-0.58,0.06-0.81,0.18c-0.23,0.12-0.41,0.29-0.53,0.51
						c-0.12,0.22-0.19,0.48-0.19,0.77v2.97h-0.82V33.83z"/>
					<path class="st7" d="M81.68,38.82c-0.41-0.24-0.73-0.56-0.96-0.98s-0.35-0.88-0.35-1.4c0-0.52,0.12-0.98,0.35-1.4
						c0.23-0.42,0.55-0.74,0.96-0.98s0.86-0.35,1.36-0.35c0.5,0,0.95,0.12,1.35,0.35c0.4,0.24,0.72,0.56,0.96,0.98
						c0.23,0.42,0.35,0.88,0.35,1.4c0,0.52-0.12,0.99-0.35,1.4c-0.23,0.42-0.55,0.74-0.96,0.98c-0.41,0.24-0.86,0.35-1.36,0.35
						C82.54,39.17,82.09,39.06,81.68,38.82z M83.96,38.18c0.27-0.17,0.49-0.4,0.64-0.7c0.16-0.3,0.24-0.65,0.24-1.04
						c0-0.39-0.08-0.74-0.24-1.04s-0.37-0.54-0.65-0.7c-0.27-0.17-0.58-0.25-0.92-0.25c-0.34,0-0.65,0.08-0.92,0.25
						c-0.28,0.17-0.49,0.4-0.65,0.7s-0.24,0.65-0.24,1.04c0,0.39,0.08,0.74,0.24,1.04c0.16,0.3,0.38,0.54,0.65,0.7
						s0.59,0.25,0.93,0.25C83.38,38.43,83.69,38.35,83.96,38.18z"/>
					<path class="st7" d="M85.74,39.91h0.45c0.17,0,0.3-0.05,0.41-0.16c0.1-0.1,0.16-0.24,0.16-0.41v-5.52h0.82v5.58
						c0,0.25-0.06,0.47-0.17,0.66s-0.27,0.34-0.47,0.45c-0.2,0.11-0.43,0.16-0.69,0.16h-0.5V39.91z M87.64,31.91v0.97h-0.96v-0.97
						H87.64z"/>
					<path class="st7" d="M89.88,38.82c-0.39-0.23-0.7-0.56-0.92-0.98c-0.22-0.42-0.33-0.89-0.33-1.42c0-0.51,0.11-0.98,0.33-1.39
						s0.53-0.74,0.92-0.98c0.39-0.24,0.83-0.35,1.31-0.35c0.49,0,0.93,0.12,1.3,0.35c0.37,0.23,0.66,0.56,0.86,0.97
						c0.2,0.42,0.3,0.88,0.3,1.41v0.2h-4.22l0.01-0.22c0,0.4,0.08,0.75,0.24,1.06c0.16,0.31,0.37,0.55,0.64,0.73
						c0.27,0.17,0.58,0.26,0.92,0.26c0.23,0,0.44-0.03,0.64-0.08c0.2-0.06,0.37-0.14,0.51-0.25c0.14-0.11,0.26-0.23,0.33-0.38h0.82
						c-0.06,0.22-0.19,0.44-0.38,0.65c-0.2,0.22-0.46,0.4-0.8,0.55s-0.72,0.22-1.17,0.22C90.71,39.17,90.27,39.06,89.88,38.82z
						 M89.44,35.96h3.4v0.46c0-0.4-0.06-0.75-0.19-1.05s-0.31-0.54-0.56-0.7c-0.25-0.17-0.54-0.25-0.89-0.25
						c-0.35,0-0.65,0.08-0.92,0.24c-0.27,0.16-0.47,0.39-0.62,0.69s-0.22,0.64-0.22,1.04L89.44,35.96z"/>
					<path class="st7" d="M95.63,38.82c-0.4-0.24-0.71-0.57-0.94-0.98c-0.23-0.42-0.34-0.88-0.34-1.4c0-0.51,0.11-0.98,0.34-1.4
						c0.23-0.42,0.54-0.74,0.94-0.98c0.4-0.24,0.84-0.36,1.34-0.36c0.42,0,0.79,0.07,1.13,0.21c0.33,0.14,0.61,0.35,0.83,0.63
						c0.22,0.28,0.37,0.62,0.45,1.03h-0.82c-0.08-0.25-0.19-0.46-0.35-0.63s-0.35-0.3-0.56-0.38c-0.21-0.08-0.44-0.12-0.68-0.12
						c-0.34,0-0.64,0.09-0.91,0.26c-0.27,0.17-0.48,0.41-0.62,0.71s-0.22,0.65-0.22,1.03c0,0.38,0.08,0.72,0.22,1.03
						c0.15,0.3,0.36,0.54,0.62,0.71c0.27,0.17,0.57,0.26,0.91,0.26c0.24,0,0.47-0.04,0.68-0.12c0.21-0.08,0.4-0.21,0.56-0.38
						c0.16-0.17,0.28-0.38,0.35-0.63h0.82c-0.08,0.4-0.23,0.73-0.46,1.02c-0.23,0.28-0.51,0.5-0.85,0.64s-0.71,0.22-1.11,0.22
						C96.48,39.17,96.03,39.06,95.63,38.82z"/>
					<path class="st7" d="M101.51,38.89c-0.2-0.11-0.36-0.26-0.48-0.44c-0.12-0.19-0.17-0.4-0.17-0.63l0-3.27h-0.92l0.01-0.73h0.57
						c0.13,0,0.23-0.04,0.31-0.12c0.08-0.08,0.12-0.19,0.12-0.31v-0.84h0.74v1.28h1.26l-0.01,0.73h-1.26l0.01,3.22
						c0,0.16,0.05,0.29,0.16,0.4c0.11,0.11,0.24,0.16,0.4,0.16h0.69v0.72h-0.75C101.94,39.05,101.71,39,101.51,38.89z"/>
				</g>
			</g>
			<g>
				<g>
					<g>
						<path class="st2" d="M210.05,53.16H35.41c-6.04,0-10.94,4.9-10.94,10.94v30.58c0,6.04,4.9,10.94,10.94,10.94h174.64
							c6.04,0,10.94-4.9,10.94-10.94V64.1C220.99,58.06,216.09,53.16,210.05,53.16z"/>
					</g>
				</g>
			</g>
			<g>
				<g>
					<path d="M89.29,74.64h1.14l3.43,8.93h-1.12l-0.86-2.37h-3.95l-0.8,2.37h-1.15L89.29,74.64z M91.53,80.28l-1.52-4.15l-0.15-0.54
						l-0.15,0.54l-1.45,4.15H91.53z"/>
					<path d="M95.25,77.03h0.98v2.83h-0.41c0-0.6,0.1-1.13,0.31-1.58c0.21-0.45,0.51-0.79,0.89-1.04c0.39-0.24,0.84-0.36,1.37-0.36
						c0.47,0,0.88,0.1,1.24,0.3c0.36,0.2,0.65,0.49,0.85,0.88c0.21,0.39,0.31,0.86,0.31,1.4v4.1h-1.02v-4c0-0.38-0.07-0.7-0.2-0.97
						s-0.32-0.47-0.57-0.61c-0.25-0.14-0.54-0.21-0.88-0.21c-0.37,0-0.69,0.08-0.97,0.24c-0.28,0.16-0.5,0.39-0.65,0.68
						s-0.23,0.62-0.23,1v3.87h-1.02V77.03z"/>
					<path d="M103.8,83.29c-0.47-0.29-0.84-0.69-1.11-1.21c-0.27-0.52-0.4-1.11-0.4-1.78s0.13-1.26,0.4-1.78
						c0.27-0.52,0.64-0.92,1.11-1.21s1.02-0.43,1.62-0.43c0.56,0,1.06,0.12,1.49,0.37c0.43,0.25,0.76,0.6,1,1.05
						s0.36,0.97,0.37,1.56h-0.42v0.88h0.42c-0.01,0.59-0.13,1.11-0.37,1.56c-0.24,0.45-0.58,0.8-1,1.05
						c-0.43,0.25-0.92,0.37-1.49,0.37C104.81,83.72,104.27,83.58,103.8,83.29z M106.75,82.48c0.34-0.21,0.6-0.5,0.79-0.88
						s0.28-0.81,0.28-1.3s-0.09-0.92-0.28-1.3s-0.45-0.67-0.79-0.88c-0.34-0.21-0.73-0.32-1.17-0.32c-0.43,0-0.82,0.11-1.15,0.32
						c-0.34,0.21-0.6,0.5-0.79,0.88s-0.28,0.81-0.28,1.3s0.09,0.92,0.28,1.3s0.45,0.67,0.79,0.88c0.34,0.21,0.72,0.32,1.15,0.32
						C106.02,82.8,106.41,82.69,106.75,82.48z M107.81,74.64h1.02v8.93h-1.02V74.64z"/>
					<path d="M110.97,77.03h1.02v2.19l-0.43,0.64c0.02-0.59,0.12-1.1,0.32-1.53c0.2-0.44,0.47-0.77,0.83-1
						c0.35-0.23,0.76-0.35,1.23-0.35h0.23v1.07h-0.27c-0.39,0-0.73,0.07-1.01,0.22s-0.51,0.36-0.67,0.63s-0.23,0.6-0.23,0.97v3.71
						h-1.02V77.03z"/>
					<path d="M116.61,83.28c-0.51-0.3-0.91-0.7-1.2-1.23c-0.29-0.52-0.44-1.1-0.44-1.75s0.15-1.23,0.44-1.75
						c0.29-0.52,0.69-0.93,1.2-1.23c0.51-0.3,1.08-0.44,1.7-0.44s1.18,0.15,1.69,0.44c0.51,0.3,0.91,0.7,1.2,1.22
						s0.44,1.1,0.44,1.75s-0.15,1.24-0.44,1.75c-0.29,0.52-0.69,0.93-1.2,1.22c-0.51,0.3-1.07,0.44-1.7,0.44
						C117.68,83.72,117.12,83.57,116.61,83.28z M119.46,82.48c0.34-0.21,0.61-0.5,0.8-0.88c0.2-0.38,0.29-0.81,0.29-1.3
						s-0.1-0.92-0.29-1.3c-0.2-0.38-0.46-0.67-0.81-0.88s-0.73-0.31-1.15-0.31c-0.43,0-0.81,0.1-1.16,0.31
						c-0.34,0.21-0.62,0.5-0.81,0.88c-0.2,0.38-0.3,0.81-0.3,1.3s0.1,0.92,0.3,1.3c0.2,0.38,0.47,0.67,0.82,0.88
						s0.73,0.31,1.16,0.31C118.74,82.79,119.13,82.69,119.46,82.48z"/>
					<path d="M124.42,74.64v1.21h-1.2v-1.21H124.42z M123.31,77.03h1.02v6.53h-1.02V77.03z"/>
					<path d="M127.52,83.29c-0.47-0.29-0.84-0.69-1.11-1.21c-0.27-0.52-0.4-1.11-0.4-1.78s0.13-1.26,0.4-1.78
						c0.27-0.52,0.64-0.92,1.11-1.21s1.02-0.43,1.62-0.43c0.56,0,1.06,0.12,1.49,0.37c0.43,0.25,0.76,0.6,1,1.05
						s0.36,0.97,0.37,1.56h-0.42v0.88h0.42c-0.01,0.59-0.13,1.11-0.37,1.56c-0.24,0.45-0.58,0.8-1,1.05
						c-0.43,0.25-0.92,0.37-1.49,0.37C128.54,83.72,127.99,83.58,127.52,83.29z M130.47,82.48c0.34-0.21,0.6-0.5,0.79-0.88
						s0.28-0.81,0.28-1.3s-0.09-0.92-0.28-1.3s-0.45-0.67-0.79-0.88c-0.34-0.21-0.73-0.32-1.17-0.32c-0.43,0-0.82,0.11-1.15,0.32
						c-0.34,0.21-0.6,0.5-0.79,0.88s-0.28,0.81-0.28,1.3s0.09,0.92,0.28,1.3s0.45,0.67,0.79,0.88c0.34,0.21,0.72,0.32,1.15,0.32
						C129.74,82.8,130.13,82.69,130.47,82.48z M131.53,74.64h1.02v8.93h-1.02V74.64z"/>
					<path d="M141.45,77.15c0.37,0.18,0.66,0.44,0.87,0.79c0.21,0.35,0.31,0.76,0.31,1.23v4.39h-1v-2.44h0.27
						c0,0.54-0.09,1.01-0.28,1.4s-0.46,0.69-0.8,0.89c-0.35,0.2-0.76,0.31-1.24,0.31c-0.42,0-0.79-0.08-1.13-0.24
						s-0.6-0.38-0.79-0.67c-0.19-0.28-0.29-0.61-0.29-0.97c0-0.34,0.09-0.65,0.26-0.94c0.18-0.29,0.42-0.52,0.73-0.71
						c0.31-0.18,0.66-0.3,1.06-0.34l1.74-0.19c0.14-0.02,0.26-0.08,0.34-0.18c0.08-0.1,0.12-0.25,0.12-0.45l0.08,1.34l-2.14,0.24
						c-0.22,0.03-0.42,0.09-0.59,0.2c-0.17,0.11-0.31,0.25-0.4,0.42s-0.14,0.36-0.14,0.56c0,0.22,0.06,0.42,0.18,0.59
						c0.12,0.17,0.28,0.3,0.49,0.4c0.21,0.1,0.45,0.14,0.71,0.14c0.37,0,0.69-0.07,0.96-0.22s0.49-0.36,0.63-0.63
						c0.15-0.27,0.22-0.58,0.22-0.93v-2.08c0-0.26-0.06-0.49-0.18-0.69c-0.12-0.2-0.3-0.35-0.52-0.46
						c-0.22-0.11-0.48-0.16-0.78-0.16c-0.29,0-0.56,0.05-0.79,0.15c-0.23,0.1-0.42,0.23-0.56,0.4s-0.23,0.35-0.26,0.55h-1.02
						c0.05-0.37,0.2-0.7,0.44-1c0.24-0.3,0.55-0.53,0.93-0.7c0.38-0.17,0.81-0.26,1.27-0.26C140.64,76.88,141.08,76.97,141.45,77.15
						z"/>
					<path d="M145.67,77.03v1.28h0.03v7.31h-1.02v-8.59H145.67z M146.61,83.35c-0.43-0.25-0.76-0.6-1-1.05
						c-0.24-0.45-0.36-0.97-0.37-1.56h0.42v-0.88h-0.42c0.01-0.59,0.13-1.11,0.37-1.56s0.58-0.8,1-1.05
						c0.43-0.25,0.93-0.37,1.49-0.37c0.61,0,1.15,0.14,1.62,0.43c0.47,0.29,0.84,0.69,1.11,1.21c0.27,0.52,0.4,1.11,0.4,1.78
						s-0.13,1.26-0.4,1.78c-0.27,0.52-0.64,0.92-1.11,1.21c-0.47,0.29-1.01,0.43-1.62,0.43C147.54,83.72,147.04,83.6,146.61,83.35z
						 M149.09,82.48c0.34-0.21,0.6-0.5,0.79-0.88c0.19-0.38,0.28-0.81,0.28-1.3s-0.09-0.92-0.28-1.3c-0.19-0.38-0.45-0.67-0.79-0.88
						s-0.72-0.32-1.16-0.32c-0.44,0-0.83,0.11-1.17,0.32c-0.34,0.21-0.61,0.5-0.79,0.88c-0.19,0.38-0.28,0.81-0.28,1.3
						s0.09,0.92,0.28,1.3c0.19,0.38,0.45,0.67,0.79,0.88c0.34,0.21,0.73,0.32,1.17,0.32C148.37,82.8,148.76,82.69,149.09,82.48z"/>
					<path d="M153.91,77.03v1.28h0.03v7.31h-1.02v-8.59H153.91z M154.85,83.35c-0.43-0.25-0.76-0.6-1-1.05
						c-0.24-0.45-0.36-0.97-0.37-1.56h0.42v-0.88h-0.42c0.01-0.59,0.13-1.11,0.37-1.56s0.58-0.8,1-1.05
						c0.43-0.25,0.93-0.37,1.49-0.37c0.61,0,1.15,0.14,1.62,0.43c0.47,0.29,0.84,0.69,1.11,1.21c0.27,0.52,0.4,1.11,0.4,1.78
						s-0.13,1.26-0.4,1.78c-0.27,0.52-0.64,0.92-1.11,1.21c-0.47,0.29-1.01,0.43-1.62,0.43C155.77,83.72,155.28,83.6,154.85,83.35z
						 M157.33,82.48c0.34-0.21,0.6-0.5,0.79-0.88c0.19-0.38,0.28-0.81,0.28-1.3s-0.09-0.92-0.28-1.3c-0.19-0.38-0.45-0.67-0.79-0.88
						s-0.72-0.32-1.16-0.32c-0.44,0-0.83,0.11-1.17,0.32c-0.34,0.21-0.61,0.5-0.79,0.88c-0.19,0.38-0.28,0.81-0.28,1.3
						s0.09,0.92,0.28,1.3c0.19,0.38,0.45,0.67,0.79,0.88c0.34,0.21,0.73,0.32,1.17,0.32C156.61,82.8,157,82.69,157.33,82.48z"/>
				</g>
			</g>
		</g>
	</g>
</g>
</svg>
