<?xml version="1.0" encoding="utf-8"?>
<!-- Generator: Adobe Illustrator 27.5.0, SVG Export Plug-In . SVG Version: 6.00 Build 0)  -->
<svg version="1.1" id="Layer_1" xmlns="http://www.w3.org/2000/svg" xmlns:xlink="http://www.w3.org/1999/xlink" x="0px" y="0px"
	 viewBox="0 0 700 395" style="enable-background:new 0 0 700 395;" xml:space="preserve">
<style type="text/css">
	.st0{fill:#FFFFFF;}
	.st1{fill:none;stroke:#000000;stroke-width:0.5469;stroke-miterlimit:10;}
	.st2{fill:#F2F2F2;}
	.st3{fill:none;stroke:#595959;stroke-width:0.5469;stroke-miterlimit:10;}
	.st4{fill:url(#SVGID_1_);}
	.st5{fill:url(#SVGID_00000182509162750210614720000005946696568095469198_);}
	.st6{fill:url(#SVGID_00000028312382773834939630000018171370391681386642_);}
	.st7{fill:#595959;}
	.st8{fill:url(#SVGID_00000183970758323442841790000006690722693760209039_);}
	.st9{fill:url(#SVGID_00000171709348680947873870000011759322893936168345_);}
	.st10{fill:url(#SVGID_00000050634051974820430380000002470841205158174134_);}
	.st11{fill:url(#SVGID_00000013879699700461216460000005903068010356149132_);}
	.st12{fill:url(#SVGID_00000165926912709993952800000003975244065423213447_);}
	.st13{fill:url(#SVGID_00000041255434889720803760000012481741578624066432_);}
	.st14{fill:url(#SVGID_00000141427762039237872670000004902960155882148282_);}
	.st15{fill:url(#SVGID_00000156582284420426764240000011425838398475495333_);}
	.st16{fill:url(#SVGID_00000004530912956711967660000016114553847264672408_);}
	.st17{fill:url(#SVGID_00000066501047580659507010000006494582802631339687_);}
	.st18{fill:url(#SVGID_00000042700928504505446480000016474474848299911822_);}
	.st19{fill:none;stroke:#000000;stroke-width:0.5469;stroke-miterlimit:10;stroke-dasharray:1.5,2.5,1.5,2.5,1.5,2.5;}
	.st20{fill:url(#SVGID_00000021839215057159198490000006372642559054389641_);}
	.st21{fill:url(#SVGID_00000001633690874885953650000013261269170904469428_);}
	.st22{fill:url(#SVGID_00000003798462826574380760000004213814874607979920_);}
	.st23{fill:url(#SVGID_00000063603216734612381590000006979342460913252764_);}
	.st24{fill:url(#SVGID_00000066486344816290358090000014555430519076300690_);}
	.st25{fill:url(#SVGID_00000155148717588232790640000007472362663488779914_);}
	.st26{fill:url(#SVGID_00000062150389011301320010000008623616210249908637_);}
	.st27{fill:url(#SVGID_00000026880107279362234440000000759680582112068796_);}
	.st28{fill:url(#SVGID_00000042720319814907920740000015243836536778552719_);}
	.st29{fill:url(#SVGID_00000017478181827959638690000018331414938684214161_);}
	.st30{fill:url(#SVGID_00000013163881497461852350000009674755852119274931_);}
	.st31{fill:url(#SVGID_00000158019140292378891790000018392009763454425491_);}
	.st32{fill:url(#SVGID_00000002377337338213051530000011288549273289719468_);}
	.st33{fill:url(#SVGID_00000162326633295158021460000002747103022287054747_);}
	.st34{fill:url(#SVGID_00000071517876986787273230000013962513218791571899_);}
	.st35{fill:url(#SVGID_00000091723577109102006340000008762292440940052608_);}
	.st36{fill:url(#SVGID_00000128487467848381316280000009465013144808943521_);}
	.st37{fill:url(#SVGID_00000152961999167846888940000014657645940725828486_);}
	.st38{fill:url(#SVGID_00000163768575868556371830000011724035386854558621_);}
	.st39{fill:url(#SVGID_00000080893539804527410240000005301068319981131689_);}
	.st40{fill:url(#SVGID_00000114061666575587932720000014214252851753497001_);}
	.st41{fill:url(#SVGID_00000129204144835501647660000011127429657976641687_);}
	.st42{fill:#7F52FF;}
	.st43{opacity:0.35;}
	.st44{fill:url(#SVGID_00000044882973179129146900000005813752937949282191_);}
	.st45{fill:none;stroke:#000000;stroke-width:0.4423;stroke-miterlimit:10;}
</style>
<g>
	<rect class="st0" width="700" height="395"/>
</g>
<g>
	<path class="st1" d="M444.59,181.05l91.25,0c8.05,0,14.58-6.53,14.58-14.58l0-11.67"/>
	<path class="st1" d="M255.4,181.05l-91.25,0c-8.05,0-14.58-6.53-14.58-14.58l0-11.67"/>
	<g>
		<g>
			<path class="st3" d="M638.29,79.65l-576.59,0c-8.05,0-14.58,6.53-14.58,14.58v206.53c0,8.05,6.53,14.58,14.58,14.58l576.59,0
				c8.05,0,14.58-6.53,14.58-14.58V94.23C652.88,86.18,646.35,79.65,638.29,79.65z"/>
			<g>
				<g>
					<path class="st7" d="M58.83,91.27h0.82v3.35L63,91.27h1.11l-3.47,3.45l3.53,3.7h-1.14l-3.38-3.53v3.53h-0.82V91.27z"/>
					<path class="st7" d="M65.48,98.18c-0.41-0.24-0.73-0.56-0.96-0.98c-0.23-0.42-0.35-0.88-0.35-1.4s0.12-0.98,0.35-1.4
						c0.23-0.42,0.55-0.74,0.96-0.98c0.41-0.24,0.86-0.35,1.36-0.35c0.5,0,0.95,0.12,1.35,0.35c0.4,0.24,0.72,0.56,0.96,0.98
						c0.23,0.42,0.35,0.88,0.35,1.4s-0.12,0.99-0.35,1.4c-0.23,0.42-0.55,0.74-0.96,0.98c-0.41,0.24-0.86,0.35-1.36,0.35
						C66.34,98.54,65.89,98.42,65.48,98.18z M67.76,97.54c0.27-0.17,0.49-0.4,0.64-0.7c0.16-0.3,0.24-0.65,0.24-1.04
						s-0.08-0.74-0.24-1.04c-0.16-0.3-0.37-0.54-0.65-0.7c-0.27-0.17-0.58-0.25-0.92-0.25c-0.34,0-0.65,0.08-0.92,0.25
						c-0.28,0.17-0.49,0.4-0.65,0.7c-0.16,0.3-0.24,0.65-0.24,1.04s0.08,0.74,0.24,1.04c0.16,0.3,0.38,0.54,0.65,0.7
						c0.28,0.17,0.59,0.25,0.93,0.25C67.19,97.79,67.49,97.71,67.76,97.54z"/>
					<path class="st7" d="M71.64,98.26c-0.2-0.11-0.36-0.26-0.48-0.44c-0.12-0.19-0.17-0.4-0.17-0.63l0-3.27h-0.92l0.01-0.72h0.57
						c0.13,0,0.23-0.04,0.31-0.12s0.12-0.19,0.12-0.31v-0.84h0.74v1.28h1.26l-0.01,0.72H71.8l0.01,3.22c0,0.16,0.05,0.29,0.16,0.4
						c0.11,0.11,0.24,0.16,0.4,0.16h0.69v0.72h-0.75C72.07,98.42,71.84,98.36,71.64,98.26z"/>
					<path class="st7" d="M74.28,91.27h0.82v7.15h-0.82V91.27z"/>
					<path class="st7" d="M77.56,91.27v0.97H76.6v-0.97H77.56z M76.68,93.19h0.82v5.23h-0.82V93.19z"/>
					<path class="st7" d="M79.07,93.19h0.79v2.26h-0.33c0-0.48,0.08-0.9,0.25-1.26c0.17-0.36,0.41-0.64,0.71-0.83
						c0.31-0.19,0.67-0.29,1.09-0.29c0.38,0,0.71,0.08,1,0.24c0.29,0.16,0.52,0.4,0.68,0.71s0.25,0.69,0.25,1.12v3.28H82.7v-3.2
						c0-0.3-0.05-0.56-0.16-0.78s-0.26-0.38-0.46-0.49s-0.43-0.17-0.7-0.17c-0.29,0-0.55,0.06-0.78,0.19
						c-0.22,0.13-0.4,0.31-0.52,0.54c-0.12,0.23-0.19,0.5-0.19,0.8v3.1h-0.82V93.19z"/>
					<path class="st7" d="M87.47,91.27h1.06L91.09,97l0.13,0.36L91.35,97l2.52-5.73h1.08v7.15H94.1v-5.65v-0.13l-2.53,5.78h-0.71
						l-2.55-5.75v0.1v5.65h-0.84V91.27z"/>
					<path class="st7" d="M101.02,98.42h-0.79v-2.26h0.33c0,0.48-0.08,0.9-0.25,1.26c-0.17,0.36-0.41,0.64-0.71,0.83
						s-0.67,0.29-1.09,0.29c-0.37,0-0.71-0.08-1-0.24c-0.29-0.16-0.52-0.4-0.68-0.71c-0.17-0.31-0.25-0.69-0.25-1.12v-3.28h0.82v3.2
						c0,0.3,0.05,0.56,0.16,0.78s0.26,0.38,0.46,0.49c0.2,0.11,0.43,0.17,0.7,0.17c0.29,0,0.55-0.06,0.78-0.19s0.4-0.31,0.52-0.54
						s0.19-0.5,0.19-0.8v-3.1h0.82V98.42z"/>
					<path class="st7" d="M102.6,91.27h0.82v7.15h-0.82V91.27z"/>
					<path class="st7" d="M106,98.26c-0.2-0.11-0.36-0.26-0.48-0.44c-0.12-0.19-0.17-0.4-0.17-0.63l0-3.27h-0.92l0.01-0.72H105
						c0.13,0,0.23-0.04,0.31-0.12s0.12-0.19,0.12-0.31v-0.84h0.74v1.28h1.26l-0.01,0.72h-1.26l0.01,3.22c0,0.16,0.05,0.29,0.16,0.4
						c0.11,0.11,0.24,0.16,0.4,0.16h0.69v0.72h-0.75C106.43,98.42,106.2,98.36,106,98.26z"/>
					<path class="st7" d="M109.52,91.27v0.97h-0.96v-0.97H109.52z M108.64,93.19h0.82v5.23h-0.82V93.19z"/>
					<path class="st7" d="M111.83,93.19v1.02h0.02v5.85h-0.82v-6.87H111.83z M112.59,98.24c-0.34-0.2-0.61-0.48-0.8-0.84
						s-0.29-0.77-0.3-1.25h0.34v-0.7h-0.34c0.01-0.47,0.11-0.89,0.3-1.25c0.19-0.36,0.46-0.64,0.8-0.84c0.34-0.2,0.74-0.3,1.19-0.3
						c0.49,0,0.92,0.11,1.3,0.34c0.38,0.23,0.67,0.55,0.89,0.97c0.21,0.42,0.32,0.89,0.32,1.42s-0.11,1.01-0.32,1.42
						c-0.21,0.42-0.51,0.74-0.89,0.97c-0.38,0.23-0.81,0.34-1.3,0.34C113.33,98.54,112.93,98.44,112.59,98.24z M114.57,97.55
						c0.27-0.17,0.48-0.4,0.63-0.7c0.15-0.3,0.22-0.65,0.22-1.04s-0.08-0.74-0.22-1.04c-0.15-0.3-0.36-0.54-0.63-0.7
						c-0.27-0.17-0.58-0.25-0.92-0.25c-0.35,0-0.66,0.08-0.93,0.25s-0.48,0.4-0.63,0.7c-0.15,0.3-0.23,0.65-0.23,1.04
						s0.08,0.74,0.23,1.04c0.15,0.3,0.36,0.54,0.63,0.7s0.58,0.25,0.93,0.25C113.99,97.8,114.3,97.72,114.57,97.55z"/>
					<path class="st7" d="M117.42,91.27h0.82v7.15h-0.82V91.27z"/>
					<path class="st7" d="M122.7,93.28c0.3,0.14,0.53,0.36,0.7,0.63s0.25,0.61,0.25,0.99v3.51h-0.8v-1.96h0.21
						c0,0.44-0.08,0.81-0.22,1.12c-0.15,0.31-0.36,0.55-0.64,0.71c-0.28,0.16-0.61,0.25-1,0.25c-0.33,0-0.63-0.06-0.9-0.19
						s-0.48-0.31-0.63-0.54s-0.23-0.49-0.23-0.78c0-0.27,0.07-0.52,0.21-0.75c0.14-0.23,0.34-0.42,0.59-0.56
						c0.25-0.15,0.53-0.24,0.84-0.27l1.39-0.15c0.12-0.01,0.21-0.06,0.27-0.14c0.06-0.08,0.1-0.2,0.1-0.36l0.06,1.07l-1.71,0.19
						c-0.18,0.02-0.33,0.07-0.47,0.16c-0.14,0.08-0.25,0.2-0.32,0.33c-0.08,0.14-0.12,0.29-0.12,0.45c0,0.18,0.05,0.33,0.14,0.47
						c0.09,0.14,0.22,0.24,0.39,0.32s0.36,0.11,0.57,0.11c0.29,0,0.55-0.06,0.77-0.18s0.39-0.29,0.51-0.5s0.18-0.47,0.18-0.75V94.8
						c0-0.21-0.05-0.39-0.15-0.55s-0.24-0.28-0.42-0.37c-0.18-0.09-0.38-0.13-0.62-0.13c-0.23,0-0.45,0.04-0.63,0.12
						c-0.19,0.08-0.34,0.19-0.45,0.32c-0.11,0.13-0.18,0.28-0.21,0.44h-0.82c0.04-0.3,0.16-0.56,0.35-0.8
						c0.19-0.24,0.44-0.42,0.75-0.56c0.31-0.14,0.65-0.2,1.02-0.2C122.06,93.07,122.4,93.14,122.7,93.28z"/>
					<path class="st7" d="M126.08,98.26c-0.2-0.11-0.36-0.26-0.48-0.44c-0.12-0.19-0.17-0.4-0.17-0.63l0-3.27h-0.92l0.01-0.72h0.57
						c0.13,0,0.23-0.04,0.31-0.12s0.12-0.19,0.12-0.31v-0.84h0.74v1.28h1.26l-0.01,0.72h-1.26l0.01,3.22c0,0.16,0.05,0.29,0.16,0.4
						c0.11,0.11,0.24,0.16,0.4,0.16h0.69v0.72h-0.75C126.51,98.42,126.28,98.36,126.08,98.26z"/>
					<path class="st7" d="M129.12,93.91h-0.92v-0.72h0.92v-0.68c0-0.24,0.06-0.46,0.17-0.64s0.27-0.33,0.47-0.44
						c0.2-0.1,0.43-0.16,0.69-0.16h0.84V92h-0.79c-0.17,0-0.3,0.05-0.41,0.16c-0.1,0.1-0.16,0.24-0.16,0.41v0.63h1.3v0.72h-1.3v4.5
						h-0.82V93.91z"/>
					<path class="st7" d="M133.03,98.18c-0.41-0.24-0.73-0.56-0.96-0.98c-0.23-0.42-0.35-0.88-0.35-1.4s0.12-0.98,0.35-1.4
						c0.23-0.42,0.55-0.74,0.96-0.98c0.41-0.24,0.86-0.35,1.36-0.35c0.5,0,0.95,0.12,1.35,0.35c0.4,0.24,0.72,0.56,0.96,0.98
						c0.23,0.42,0.35,0.88,0.35,1.4s-0.12,0.99-0.35,1.4c-0.23,0.42-0.55,0.74-0.96,0.98c-0.41,0.24-0.86,0.35-1.36,0.35
						C133.89,98.54,133.44,98.42,133.03,98.18z M135.32,97.54c0.27-0.17,0.49-0.4,0.64-0.7c0.16-0.3,0.24-0.65,0.24-1.04
						s-0.08-0.74-0.24-1.04c-0.16-0.3-0.37-0.54-0.65-0.7c-0.27-0.17-0.58-0.25-0.92-0.25c-0.34,0-0.65,0.08-0.92,0.25
						c-0.28,0.17-0.49,0.4-0.65,0.7c-0.16,0.3-0.24,0.65-0.24,1.04s0.08,0.74,0.24,1.04c0.16,0.3,0.38,0.54,0.65,0.7
						c0.28,0.17,0.59,0.25,0.93,0.25C134.74,97.79,135.04,97.71,135.32,97.54z"/>
					<path class="st7" d="M138.19,93.19h0.82v1.75l-0.34,0.51c0.01-0.47,0.1-0.88,0.26-1.23c0.16-0.35,0.38-0.62,0.66-0.8
						c0.28-0.19,0.61-0.28,0.98-0.28h0.18v0.85h-0.21c-0.31,0-0.58,0.06-0.81,0.18s-0.41,0.29-0.53,0.51
						c-0.12,0.22-0.19,0.48-0.19,0.77v2.97h-0.82V93.19z"/>
					<path class="st7" d="M141.63,93.19h0.79v2.26h-0.28c0-0.49,0.08-0.91,0.23-1.27c0.15-0.36,0.37-0.63,0.66-0.82
						c0.29-0.19,0.63-0.29,1.02-0.29c0.37,0,0.7,0.08,0.97,0.25s0.5,0.41,0.65,0.72s0.23,0.67,0.23,1.08v3.3h-0.82v-3.26
						c0-0.29-0.05-0.53-0.15-0.74c-0.1-0.21-0.24-0.37-0.42-0.48s-0.41-0.17-0.67-0.17c-0.28,0-0.53,0.06-0.74,0.19
						s-0.37,0.31-0.49,0.54c-0.11,0.23-0.17,0.51-0.17,0.83v3.1h-0.82V93.19z M148.39,94.41c-0.1-0.21-0.24-0.37-0.42-0.48
						s-0.41-0.17-0.67-0.17c-0.28,0-0.52,0.06-0.73,0.19c-0.21,0.13-0.38,0.31-0.49,0.54c-0.12,0.23-0.17,0.51-0.17,0.82l-0.46,0.13
						c0-0.47,0.08-0.88,0.25-1.25c0.16-0.36,0.4-0.64,0.7-0.84c0.3-0.2,0.66-0.3,1.06-0.3c0.37,0,0.7,0.08,0.99,0.25
						c0.29,0.17,0.51,0.41,0.67,0.72c0.16,0.31,0.24,0.67,0.24,1.08v3.3h-0.82v-3.26C148.53,94.87,148.49,94.62,148.39,94.41z"/>
					<path class="st7" d="M153.9,93.19v1.02h0.02v5.85h-0.82v-6.87H153.9z M154.66,98.24c-0.34-0.2-0.61-0.48-0.8-0.84
						s-0.29-0.77-0.3-1.25h0.34v-0.7h-0.34c0.01-0.47,0.11-0.89,0.3-1.25c0.19-0.36,0.46-0.64,0.8-0.84c0.34-0.2,0.74-0.3,1.19-0.3
						c0.49,0,0.92,0.11,1.3,0.34c0.38,0.23,0.67,0.55,0.89,0.97c0.21,0.42,0.32,0.89,0.32,1.42s-0.11,1.01-0.32,1.42
						c-0.21,0.42-0.51,0.74-0.89,0.97c-0.38,0.23-0.81,0.34-1.3,0.34C155.39,98.54,155,98.44,154.66,98.24z M156.64,97.55
						c0.27-0.17,0.48-0.4,0.63-0.7c0.15-0.3,0.22-0.65,0.22-1.04s-0.08-0.74-0.22-1.04c-0.15-0.3-0.36-0.54-0.63-0.7
						c-0.27-0.17-0.58-0.25-0.92-0.25c-0.35,0-0.66,0.08-0.93,0.25s-0.48,0.4-0.63,0.7c-0.15,0.3-0.23,0.65-0.23,1.04
						s0.08,0.74,0.23,1.04c0.15,0.3,0.36,0.54,0.63,0.7s0.58,0.25,0.93,0.25C156.06,97.8,156.37,97.72,156.64,97.55z"/>
					<path class="st7" d="M159.49,93.19h0.82v1.75l-0.34,0.51c0.01-0.47,0.1-0.88,0.26-1.23c0.16-0.35,0.38-0.62,0.66-0.8
						c0.28-0.19,0.61-0.28,0.98-0.28h0.18v0.85h-0.21c-0.31,0-0.58,0.06-0.81,0.18s-0.41,0.29-0.53,0.51
						c-0.12,0.22-0.19,0.48-0.19,0.77v2.97h-0.82V93.19z"/>
					<path class="st7" d="M163.8,98.18c-0.41-0.24-0.73-0.56-0.96-0.98c-0.23-0.42-0.35-0.88-0.35-1.4s0.12-0.98,0.35-1.4
						c0.23-0.42,0.55-0.74,0.96-0.98c0.41-0.24,0.86-0.35,1.36-0.35c0.5,0,0.95,0.12,1.35,0.35c0.4,0.24,0.72,0.56,0.96,0.98
						c0.23,0.42,0.35,0.88,0.35,1.4s-0.12,0.99-0.35,1.4c-0.23,0.42-0.55,0.74-0.96,0.98c-0.41,0.24-0.86,0.35-1.36,0.35
						C164.66,98.54,164.2,98.42,163.8,98.18z M166.08,97.54c0.27-0.17,0.49-0.4,0.64-0.7c0.16-0.3,0.24-0.65,0.24-1.04
						s-0.08-0.74-0.24-1.04c-0.16-0.3-0.37-0.54-0.65-0.7c-0.27-0.17-0.58-0.25-0.92-0.25c-0.34,0-0.65,0.08-0.92,0.25
						c-0.28,0.17-0.49,0.4-0.65,0.7c-0.16,0.3-0.24,0.65-0.24,1.04s0.08,0.74,0.24,1.04c0.16,0.3,0.38,0.54,0.65,0.7
						c0.28,0.17,0.59,0.25,0.93,0.25C165.5,97.79,165.81,97.71,166.08,97.54z"/>
					<path class="st7" d="M167.86,99.27h0.45c0.17,0,0.3-0.05,0.41-0.16c0.1-0.1,0.16-0.24,0.16-0.41v-5.52h0.82v5.58
						c0,0.25-0.06,0.47-0.17,0.66c-0.11,0.19-0.27,0.34-0.47,0.45c-0.2,0.11-0.43,0.16-0.69,0.16h-0.5V99.27z M169.76,91.27v0.97
						h-0.96v-0.97H169.76z"/>
					<path class="st7" d="M172,98.19c-0.39-0.23-0.7-0.56-0.92-0.98c-0.22-0.42-0.33-0.89-0.33-1.42c0-0.51,0.11-0.98,0.33-1.39
						s0.53-0.74,0.92-0.98c0.39-0.24,0.83-0.35,1.31-0.35c0.49,0,0.93,0.12,1.3,0.35c0.37,0.23,0.66,0.56,0.86,0.98
						c0.2,0.42,0.3,0.88,0.3,1.41V96h-4.22l0.01-0.22c0,0.39,0.08,0.75,0.24,1.06c0.16,0.31,0.37,0.55,0.64,0.73
						c0.27,0.17,0.58,0.26,0.92,0.26c0.23,0,0.44-0.03,0.64-0.08s0.37-0.14,0.51-0.25c0.14-0.11,0.26-0.23,0.33-0.38h0.82
						c-0.06,0.22-0.19,0.44-0.38,0.65c-0.2,0.22-0.46,0.4-0.8,0.55c-0.33,0.15-0.72,0.22-1.17,0.22
						C172.83,98.54,172.39,98.42,172,98.19z M171.56,95.33h3.4v0.46c0-0.4-0.06-0.75-0.19-1.05c-0.13-0.3-0.31-0.54-0.56-0.7
						c-0.25-0.17-0.54-0.25-0.89-0.25c-0.35,0-0.65,0.08-0.92,0.24c-0.27,0.16-0.47,0.39-0.62,0.69s-0.22,0.64-0.22,1.04
						L171.56,95.33z"/>
					<path class="st7" d="M177.75,98.18c-0.4-0.24-0.71-0.57-0.94-0.98c-0.23-0.42-0.34-0.88-0.34-1.4s0.11-0.98,0.34-1.4
						c0.23-0.42,0.54-0.74,0.94-0.98c0.4-0.24,0.84-0.36,1.34-0.36c0.42,0,0.79,0.07,1.13,0.21c0.33,0.14,0.61,0.35,0.83,0.63
						s0.37,0.62,0.45,1.03h-0.82c-0.08-0.25-0.19-0.46-0.35-0.63c-0.16-0.17-0.35-0.3-0.56-0.38c-0.21-0.08-0.44-0.12-0.68-0.12
						c-0.34,0-0.64,0.08-0.91,0.25c-0.27,0.17-0.48,0.41-0.62,0.71c-0.15,0.3-0.22,0.65-0.22,1.03c0,0.38,0.08,0.72,0.22,1.03
						s0.36,0.54,0.62,0.71c0.27,0.17,0.57,0.26,0.91,0.26c0.24,0,0.47-0.04,0.68-0.12c0.21-0.08,0.4-0.21,0.56-0.38
						c0.16-0.17,0.28-0.38,0.35-0.63h0.82c-0.08,0.4-0.23,0.73-0.46,1.02c-0.23,0.28-0.51,0.5-0.85,0.64
						c-0.34,0.15-0.71,0.22-1.11,0.22C178.6,98.54,178.15,98.42,177.75,98.18z"/>
					<path class="st7" d="M183.63,98.26c-0.2-0.11-0.36-0.26-0.48-0.44c-0.12-0.19-0.17-0.4-0.17-0.63l0-3.27h-0.92l0.01-0.72h0.57
						c0.13,0,0.23-0.04,0.31-0.12s0.12-0.19,0.12-0.31v-0.84h0.74v1.28h1.26l-0.01,0.72h-1.26l0.01,3.22c0,0.16,0.05,0.29,0.16,0.4
						c0.11,0.11,0.24,0.16,0.4,0.16h0.69v0.72h-0.75C184.06,98.42,183.83,98.36,183.63,98.26z"/>
				</g>
			</g>
		</g>
		<g>
			<g>
				<g>
					<g>
						<path class="st2" d="M637.71,112.41H463.08c-6.04,0-10.94,4.9-10.94,10.94v30.58c0,6.04,4.9,10.94,10.94,10.94h174.64
							c6.04,0,10.94-4.9,10.94-10.94v-30.58C648.65,117.3,643.75,112.41,637.71,112.41z"/>
					</g>
				</g>
			</g>
			<g>
				<g>
					<path d="M528.93,133.88v1.21h-1.2v-1.21H528.93z M527.82,136.28h1.02v6.53h-1.02V136.28z"/>
					<path d="M532.85,142.36c-0.67-0.4-1.2-0.95-1.59-1.66c-0.39-0.7-0.58-1.49-0.58-2.36s0.19-1.65,0.58-2.36
						c0.39-0.7,0.92-1.26,1.59-1.66c0.67-0.4,1.42-0.6,2.25-0.6c0.82,0,1.57,0.2,2.24,0.6c0.67,0.4,1.21,0.95,1.59,1.66
						c0.39,0.7,0.58,1.49,0.58,2.36s-0.19,1.65-0.58,2.36c-0.39,0.7-0.92,1.26-1.59,1.66c-0.67,0.4-1.42,0.6-2.24,0.6
						C534.27,142.96,533.52,142.76,532.85,142.36z M536.79,141.53c0.51-0.31,0.9-0.75,1.19-1.3s0.43-1.18,0.43-1.88
						c0-0.7-0.14-1.33-0.42-1.89c-0.28-0.56-0.68-0.99-1.18-1.3s-1.08-0.47-1.71-0.47c-0.63,0-1.2,0.16-1.7,0.47
						c-0.5,0.31-0.9,0.75-1.19,1.3c-0.29,0.55-0.43,1.18-0.43,1.88s0.14,1.33,0.43,1.88s0.68,0.99,1.19,1.3
						c0.5,0.31,1.07,0.47,1.7,0.47C535.72,141.99,536.29,141.84,536.79,141.53z"/>
					<path d="M542.43,142.63c-0.47-0.23-0.84-0.54-1.1-0.94c-0.26-0.4-0.39-0.87-0.39-1.39h1.08c0,0.34,0.08,0.63,0.26,0.89
						c0.17,0.26,0.41,0.46,0.72,0.61s0.67,0.22,1.07,0.22c0.4,0,0.74-0.07,1.04-0.2c0.3-0.13,0.53-0.32,0.7-0.57
						c0.16-0.24,0.25-0.53,0.25-0.85c0-0.4-0.12-0.75-0.36-1.04c-0.24-0.29-0.56-0.47-0.96-0.54l-1.44-0.25
						c-0.43-0.08-0.81-0.23-1.13-0.45c-0.32-0.23-0.56-0.51-0.73-0.84s-0.25-0.7-0.25-1.1c0-0.46,0.12-0.88,0.37-1.25
						c0.24-0.37,0.58-0.66,1.02-0.88c0.44-0.21,0.93-0.32,1.47-0.32c0.56,0,1.06,0.1,1.5,0.32c0.44,0.21,0.78,0.5,1.02,0.88
						c0.24,0.37,0.36,0.8,0.36,1.28h-1.08c0-0.29-0.07-0.56-0.22-0.79c-0.15-0.23-0.36-0.41-0.63-0.54s-0.58-0.19-0.93-0.19
						c-0.35,0-0.67,0.06-0.94,0.19c-0.27,0.12-0.48,0.3-0.63,0.52c-0.15,0.23-0.23,0.49-0.23,0.78c0,0.35,0.11,0.66,0.34,0.91
						s0.53,0.41,0.9,0.48l1.47,0.26c0.42,0.08,0.8,0.24,1.14,0.49c0.33,0.25,0.59,0.56,0.77,0.92s0.27,0.75,0.27,1.15
						c0,0.48-0.13,0.92-0.39,1.31c-0.26,0.39-0.62,0.7-1.09,0.93s-1,0.34-1.59,0.34C543.44,142.96,542.9,142.85,542.43,142.63z"/>
					<path d="M555.78,136.4c0.37,0.18,0.66,0.44,0.87,0.79c0.21,0.35,0.31,0.76,0.31,1.23v4.39h-1v-2.44h0.27
						c0,0.54-0.09,1.01-0.28,1.4s-0.46,0.69-0.8,0.89s-0.76,0.31-1.24,0.31c-0.42,0-0.79-0.08-1.13-0.24s-0.6-0.39-0.79-0.67
						c-0.19-0.29-0.29-0.61-0.29-0.97c0-0.34,0.09-0.65,0.26-0.94c0.18-0.29,0.42-0.52,0.73-0.7c0.31-0.18,0.66-0.3,1.06-0.34
						l1.74-0.19c0.14-0.02,0.26-0.08,0.34-0.18s0.12-0.25,0.12-0.45l0.08,1.34l-2.14,0.24c-0.22,0.03-0.42,0.09-0.59,0.2
						c-0.17,0.11-0.31,0.24-0.4,0.41c-0.1,0.17-0.14,0.36-0.14,0.56c0,0.22,0.06,0.42,0.18,0.59c0.12,0.17,0.28,0.3,0.49,0.4
						c0.21,0.1,0.45,0.14,0.71,0.14c0.37,0,0.69-0.07,0.96-0.22c0.27-0.15,0.49-0.36,0.63-0.63c0.15-0.27,0.22-0.58,0.22-0.94v-2.08
						c0-0.26-0.06-0.49-0.18-0.69c-0.12-0.2-0.3-0.35-0.52-0.46s-0.48-0.16-0.78-0.16c-0.29,0-0.56,0.05-0.79,0.15
						c-0.23,0.1-0.42,0.23-0.56,0.4s-0.23,0.35-0.26,0.55h-1.02c0.05-0.37,0.2-0.7,0.44-1c0.24-0.3,0.55-0.53,0.93-0.7
						c0.38-0.17,0.81-0.25,1.27-0.25C554.97,136.13,555.41,136.22,555.78,136.4z"/>
					<path d="M560,136.28v1.28h0.03v7.31H559v-8.59H560z M560.94,142.59c-0.43-0.25-0.76-0.6-1-1.05s-0.36-0.97-0.37-1.56h0.42
						v-0.88h-0.42c0.01-0.59,0.13-1.11,0.37-1.56s0.58-0.8,1-1.05c0.43-0.25,0.93-0.37,1.49-0.37c0.61,0,1.15,0.14,1.62,0.43
						c0.47,0.29,0.84,0.69,1.11,1.21s0.4,1.11,0.4,1.78c0,0.67-0.13,1.26-0.4,1.78s-0.64,0.92-1.11,1.21
						c-0.47,0.29-1.01,0.43-1.62,0.43C561.87,142.96,561.37,142.84,560.94,142.59z M563.43,141.72c0.34-0.21,0.6-0.5,0.79-0.88
						c0.19-0.38,0.28-0.81,0.28-1.3s-0.09-0.92-0.28-1.3c-0.19-0.38-0.45-0.67-0.79-0.88s-0.72-0.32-1.16-0.32
						c-0.44,0-0.83,0.11-1.17,0.32c-0.34,0.21-0.61,0.5-0.79,0.88c-0.19,0.38-0.28,0.81-0.28,1.3s0.09,0.92,0.28,1.3
						c0.19,0.38,0.45,0.67,0.79,0.88c0.34,0.21,0.73,0.32,1.17,0.32C562.7,142.04,563.09,141.93,563.43,141.72z"/>
					<path d="M568.24,136.28v1.28h0.03v7.31h-1.02v-8.59H568.24z M569.18,142.59c-0.43-0.25-0.76-0.6-1-1.05s-0.36-0.97-0.37-1.56
						h0.42v-0.88h-0.42c0.01-0.59,0.13-1.11,0.37-1.56s0.58-0.8,1-1.05c0.43-0.25,0.93-0.37,1.49-0.37c0.61,0,1.15,0.14,1.62,0.43
						c0.47,0.29,0.84,0.69,1.11,1.21s0.4,1.11,0.4,1.78c0,0.67-0.13,1.26-0.4,1.78s-0.64,0.92-1.11,1.21
						c-0.47,0.29-1.01,0.43-1.62,0.43C570.11,142.96,569.61,142.84,569.18,142.59z M571.66,141.72c0.34-0.21,0.6-0.5,0.79-0.88
						c0.19-0.38,0.28-0.81,0.28-1.3s-0.09-0.92-0.28-1.3c-0.19-0.38-0.45-0.67-0.79-0.88s-0.72-0.32-1.16-0.32
						c-0.44,0-0.83,0.11-1.17,0.32c-0.34,0.21-0.61,0.5-0.79,0.88c-0.19,0.38-0.28,0.81-0.28,1.3s0.09,0.92,0.28,1.3
						c0.19,0.38,0.45,0.67,0.79,0.88c0.34,0.21,0.73,0.32,1.17,0.32C570.94,142.04,571.33,141.93,571.66,141.72z"/>
				</g>
			</g>
		</g>
		<g>
			<g>
				<g>
					<g>
						<path class="st2" d="M236.88,112.41H62.24c-6.04,0-10.94,4.9-10.94,10.94v30.58c0,6.04,4.9,10.94,10.94,10.94h174.64
							c6.04,0,10.94-4.9,10.94-10.94v-30.58C247.82,117.3,242.92,112.41,236.88,112.41z"/>
					</g>
				</g>
			</g>
			<g>
				<g>
					<path d="M116.12,133.88h1.14l3.43,8.93h-1.12l-0.86-2.37h-3.95l-0.8,2.37h-1.15L116.12,133.88z M118.37,139.52l-1.52-4.15
						l-0.15-0.54l-0.15,0.54l-1.45,4.15H118.37z"/>
					<path d="M122.08,136.28h0.98v2.83h-0.41c0-0.6,0.1-1.13,0.31-1.58c0.21-0.45,0.51-0.79,0.89-1.04
						c0.39-0.24,0.84-0.36,1.37-0.36c0.47,0,0.88,0.1,1.24,0.3c0.36,0.2,0.65,0.49,0.85,0.88c0.21,0.39,0.31,0.86,0.31,1.4v4.1
						h-1.02v-4c0-0.38-0.07-0.7-0.2-0.97s-0.32-0.47-0.57-0.61c-0.25-0.14-0.54-0.21-0.88-0.21c-0.37,0-0.69,0.08-0.97,0.24
						c-0.28,0.16-0.5,0.39-0.65,0.68c-0.16,0.29-0.23,0.62-0.23,1v3.87h-1.02V136.28z"/>
					<path d="M130.63,142.53c-0.47-0.29-0.84-0.69-1.11-1.21s-0.4-1.11-0.4-1.78c0-0.67,0.13-1.26,0.4-1.78s0.64-0.92,1.11-1.21
						s1.02-0.43,1.62-0.43c0.56,0,1.06,0.12,1.49,0.37c0.43,0.25,0.76,0.6,1,1.05s0.36,0.97,0.37,1.56h-0.42v0.88h0.42
						c-0.01,0.59-0.13,1.11-0.37,1.56s-0.58,0.8-1,1.05c-0.43,0.25-0.92,0.37-1.49,0.37C131.65,142.96,131.11,142.82,130.63,142.53z
						 M133.58,141.72c0.34-0.21,0.6-0.5,0.79-0.88s0.28-0.81,0.28-1.3s-0.09-0.92-0.28-1.3c-0.19-0.38-0.45-0.67-0.79-0.88
						c-0.34-0.21-0.73-0.32-1.17-0.32c-0.43,0-0.82,0.11-1.15,0.32c-0.34,0.21-0.6,0.5-0.79,0.88c-0.19,0.38-0.28,0.81-0.28,1.3
						s0.09,0.92,0.28,1.3s0.45,0.67,0.79,0.88c0.34,0.21,0.72,0.32,1.15,0.32C132.85,142.04,133.24,141.93,133.58,141.72z
						 M134.64,133.88h1.02v8.93h-1.02V133.88z"/>
					<path d="M137.8,136.28h1.02v2.19l-0.43,0.64c0.02-0.59,0.12-1.1,0.32-1.53c0.2-0.44,0.47-0.77,0.83-1
						c0.35-0.23,0.76-0.35,1.23-0.35H141v1.07h-0.27c-0.39,0-0.73,0.07-1.01,0.22c-0.29,0.15-0.51,0.36-0.67,0.63
						s-0.23,0.6-0.23,0.97v3.71h-1.02V136.28z"/>
					<path d="M143.44,142.52c-0.51-0.3-0.91-0.7-1.2-1.23c-0.29-0.52-0.44-1.1-0.44-1.75s0.15-1.23,0.44-1.75
						c0.29-0.52,0.69-0.93,1.2-1.23c0.51-0.3,1.08-0.44,1.7-0.44s1.18,0.15,1.69,0.44c0.51,0.3,0.91,0.7,1.2,1.22
						c0.29,0.52,0.44,1.1,0.44,1.75c0,0.65-0.15,1.24-0.44,1.75s-0.69,0.93-1.2,1.22s-1.07,0.44-1.7,0.44
						C144.51,142.96,143.95,142.82,143.44,142.52z M146.3,141.72c0.34-0.21,0.61-0.5,0.8-0.88c0.2-0.38,0.29-0.81,0.29-1.3
						s-0.1-0.92-0.29-1.3c-0.2-0.38-0.46-0.67-0.81-0.88s-0.73-0.31-1.15-0.31c-0.43,0-0.81,0.1-1.16,0.31
						c-0.34,0.21-0.62,0.5-0.81,0.88c-0.2,0.38-0.3,0.81-0.3,1.3s0.1,0.92,0.3,1.3c0.2,0.38,0.47,0.67,0.82,0.88
						c0.35,0.21,0.73,0.31,1.16,0.31C145.57,142.03,145.96,141.93,146.3,141.72z"/>
					<path d="M151.25,133.88v1.21h-1.2v-1.21H151.25z M150.14,136.28h1.02v6.53h-1.02V136.28z"/>
					<path d="M154.35,142.53c-0.47-0.29-0.84-0.69-1.11-1.21s-0.4-1.11-0.4-1.78c0-0.67,0.13-1.26,0.4-1.78s0.64-0.92,1.11-1.21
						s1.02-0.43,1.62-0.43c0.56,0,1.06,0.12,1.49,0.37c0.43,0.25,0.76,0.6,1,1.05s0.36,0.97,0.37,1.56h-0.42v0.88h0.42
						c-0.01,0.59-0.13,1.11-0.37,1.56s-0.58,0.8-1,1.05c-0.43,0.25-0.92,0.37-1.49,0.37C155.37,142.96,154.83,142.82,154.35,142.53z
						 M157.3,141.72c0.34-0.21,0.6-0.5,0.79-0.88s0.28-0.81,0.28-1.3s-0.09-0.92-0.28-1.3c-0.19-0.38-0.45-0.67-0.79-0.88
						c-0.34-0.21-0.73-0.32-1.17-0.32c-0.43,0-0.82,0.11-1.15,0.32c-0.34,0.21-0.6,0.5-0.79,0.88c-0.19,0.38-0.28,0.81-0.28,1.3
						s0.09,0.92,0.28,1.3s0.45,0.67,0.79,0.88c0.34,0.21,0.72,0.32,1.15,0.32C156.57,142.04,156.96,141.93,157.3,141.72z
						 M158.36,133.88h1.02v8.93h-1.02V133.88z"/>
					<path d="M168.28,136.4c0.37,0.18,0.66,0.44,0.87,0.79c0.21,0.35,0.31,0.76,0.31,1.23v4.39h-1v-2.44h0.27
						c0,0.54-0.09,1.01-0.28,1.4s-0.46,0.69-0.8,0.89s-0.76,0.31-1.24,0.31c-0.42,0-0.79-0.08-1.13-0.24s-0.6-0.39-0.79-0.67
						c-0.19-0.29-0.29-0.61-0.29-0.97c0-0.34,0.09-0.65,0.26-0.94c0.18-0.29,0.42-0.52,0.73-0.7c0.31-0.18,0.66-0.3,1.06-0.34
						l1.74-0.19c0.14-0.02,0.26-0.08,0.34-0.18s0.12-0.25,0.12-0.45l0.08,1.34l-2.14,0.24c-0.22,0.03-0.42,0.09-0.59,0.2
						c-0.17,0.11-0.31,0.24-0.4,0.41c-0.1,0.17-0.14,0.36-0.14,0.56c0,0.22,0.06,0.42,0.18,0.59c0.12,0.17,0.28,0.3,0.49,0.4
						c0.21,0.1,0.45,0.14,0.71,0.14c0.37,0,0.69-0.07,0.96-0.22c0.27-0.15,0.49-0.36,0.63-0.63c0.15-0.27,0.22-0.58,0.22-0.94v-2.08
						c0-0.26-0.06-0.49-0.18-0.69c-0.12-0.2-0.3-0.35-0.52-0.46s-0.48-0.16-0.78-0.16c-0.29,0-0.56,0.05-0.79,0.15
						c-0.23,0.1-0.42,0.23-0.56,0.4s-0.23,0.35-0.26,0.55h-1.02c0.05-0.37,0.2-0.7,0.44-1c0.24-0.3,0.55-0.53,0.93-0.7
						c0.38-0.17,0.81-0.25,1.27-0.25C167.47,136.13,167.91,136.22,168.28,136.4z"/>
					<path d="M172.5,136.28v1.28h0.03v7.31h-1.02v-8.59H172.5z M173.44,142.59c-0.43-0.25-0.76-0.6-1-1.05s-0.36-0.97-0.37-1.56
						h0.42v-0.88h-0.42c0.01-0.59,0.13-1.11,0.37-1.56s0.58-0.8,1-1.05c0.43-0.25,0.93-0.37,1.49-0.37c0.61,0,1.15,0.14,1.62,0.43
						c0.47,0.29,0.84,0.69,1.11,1.21s0.4,1.11,0.4,1.78c0,0.67-0.13,1.26-0.4,1.78s-0.64,0.92-1.11,1.21
						c-0.47,0.29-1.01,0.43-1.62,0.43C174.37,142.96,173.87,142.84,173.44,142.59z M175.93,141.72c0.34-0.21,0.6-0.5,0.79-0.88
						c0.19-0.38,0.28-0.81,0.28-1.3s-0.09-0.92-0.28-1.3c-0.19-0.38-0.45-0.67-0.79-0.88s-0.72-0.32-1.16-0.32
						c-0.44,0-0.83,0.11-1.17,0.32c-0.34,0.21-0.61,0.5-0.79,0.88c-0.19,0.38-0.28,0.81-0.28,1.3s0.09,0.92,0.28,1.3
						c0.19,0.38,0.45,0.67,0.79,0.88c0.34,0.21,0.73,0.32,1.17,0.32C175.21,142.04,175.59,141.93,175.93,141.72z"/>
					<path d="M180.74,136.28v1.28h0.03v7.31h-1.02v-8.59H180.74z M181.68,142.59c-0.43-0.25-0.76-0.6-1-1.05s-0.36-0.97-0.37-1.56
						h0.42v-0.88h-0.42c0.01-0.59,0.13-1.11,0.37-1.56s0.58-0.8,1-1.05c0.43-0.25,0.93-0.37,1.49-0.37c0.61,0,1.15,0.14,1.62,0.43
						c0.47,0.29,0.84,0.69,1.11,1.21s0.4,1.11,0.4,1.78c0,0.67-0.13,1.26-0.4,1.78s-0.64,0.92-1.11,1.21
						c-0.47,0.29-1.01,0.43-1.62,0.43C182.61,142.96,182.11,142.84,181.68,142.59z M184.16,141.72c0.34-0.21,0.6-0.5,0.79-0.88
						c0.19-0.38,0.28-0.81,0.28-1.3s-0.09-0.92-0.28-1.3c-0.19-0.38-0.45-0.67-0.79-0.88s-0.72-0.32-1.16-0.32
						c-0.44,0-0.83,0.11-1.17,0.32c-0.34,0.21-0.61,0.5-0.79,0.88c-0.19,0.38-0.28,0.81-0.28,1.3s0.09,0.92,0.28,1.3
						c0.19,0.38,0.45,0.67,0.79,0.88c0.34,0.21,0.73,0.32,1.17,0.32C183.44,142.04,183.83,141.93,184.16,141.72z"/>
				</g>
			</g>
		</g>
	</g>
	<g>
		<path class="st1" d="M429.22,181.05l55.53,0c8.05,0,14.58,6.53,14.58,14.58"/>
		<path class="st1" d="M429.22,298.89l55.53,0c8.05,0,14.58-6.53,14.58-14.58l0-53.06"/>
		<path class="st1" d="M429.22,259.63l55.53,0c8.05,0,14.58-6.53,14.58-14.58l0-49.41"/>
		<path class="st1" d="M429.22,220.37l55.53,0c8.05,0,14.58-6.53,14.58-14.58"/>
	</g>
	<g>
		<g>
			<g>
				
					<radialGradient id="SVGID_1_" cx="255.5322" cy="193.6278" r="192.6241" gradientTransform="matrix(1 0 0 0.2768 0 140.038)" gradientUnits="userSpaceOnUse">
					<stop  offset="0" style="stop-color:#EB4857"/>
					<stop  offset="0.5" style="stop-color:#C611E0"/>
					<stop  offset="1" style="stop-color:#7F52FF"/>
				</radialGradient>
				<path class="st4" d="M435.95,168.77l-171.95,0c-6.78,0-12.28,5.5-12.28,12.28v0c0,6.78,5.5,12.28,12.28,12.28l171.95,0
					c6.78,0,12.28-5.5,12.28-12.28v0C448.23,174.27,442.73,168.77,435.95,168.77z"/>
			</g>
		</g>
		<g>
			<path class="st0" d="M301.15,185.2c-0.53-0.3-0.95-0.72-1.24-1.26c-0.29-0.54-0.44-1.16-0.44-1.85v-5.52h1.06v5.52
				c0,0.51,0.1,0.96,0.31,1.35c0.21,0.39,0.49,0.7,0.87,0.92c0.37,0.22,0.8,0.33,1.29,0.33c0.48,0,0.9-0.11,1.26-0.33
				c0.36-0.22,0.65-0.52,0.85-0.92c0.2-0.39,0.3-0.84,0.3-1.35v-5.52h1.06v5.52c0,0.69-0.15,1.31-0.44,1.85
				c-0.29,0.54-0.7,0.96-1.23,1.26s-1.12,0.45-1.8,0.45C302.3,185.65,301.69,185.5,301.15,185.2z"/>
			<path class="st0" d="M308.81,178.96h0.98v2.83h-0.34c0-0.61,0.09-1.14,0.28-1.59c0.19-0.45,0.46-0.79,0.82-1.03
				c0.36-0.24,0.78-0.36,1.28-0.36c0.46,0,0.87,0.1,1.22,0.32c0.35,0.21,0.62,0.51,0.81,0.9c0.19,0.39,0.29,0.84,0.29,1.35v4.12
				h-1.02v-4.08c0-0.36-0.06-0.67-0.18-0.93s-0.3-0.46-0.53-0.6c-0.23-0.14-0.51-0.21-0.83-0.21c-0.35,0-0.66,0.08-0.93,0.24
				c-0.26,0.16-0.47,0.38-0.61,0.68c-0.14,0.29-0.21,0.64-0.21,1.03v3.87h-1.02V178.96z M317.25,180.49
				c-0.12-0.26-0.3-0.46-0.53-0.6c-0.23-0.14-0.51-0.21-0.84-0.21c-0.35,0-0.66,0.08-0.92,0.24c-0.26,0.16-0.47,0.38-0.61,0.68
				s-0.22,0.63-0.22,1.03l-0.57,0.17c0-0.59,0.1-1.11,0.31-1.56c0.2-0.45,0.5-0.8,0.88-1.05c0.38-0.25,0.82-0.37,1.33-0.37
				c0.46,0,0.88,0.1,1.23,0.32c0.36,0.21,0.64,0.51,0.84,0.9c0.2,0.39,0.3,0.84,0.3,1.35v4.12h-1.02v-4.08
				C317.44,181.06,317.38,180.75,317.25,180.49z"/>
			<path class="st0" d="M320.5,176.57h1.02v8.93h-1.02V176.57z M322.42,185.28c-0.43-0.25-0.77-0.6-1.01-1.05s-0.36-0.97-0.37-1.56
				h0.42v-0.88h-0.42c0.01-0.59,0.13-1.11,0.37-1.56s0.58-0.8,1.01-1.05c0.43-0.25,0.92-0.37,1.49-0.37c0.61,0,1.15,0.14,1.62,0.43
				s0.84,0.69,1.11,1.21c0.27,0.52,0.4,1.11,0.4,1.78c0,0.67-0.13,1.26-0.4,1.78c-0.27,0.52-0.64,0.92-1.11,1.21
				s-1.02,0.43-1.62,0.43C323.34,185.65,322.85,185.53,322.42,185.28z M324.9,184.41c0.34-0.21,0.6-0.5,0.78-0.88
				c0.19-0.38,0.28-0.81,0.28-1.3c0-0.49-0.09-0.92-0.28-1.3c-0.19-0.38-0.45-0.67-0.78-0.88c-0.34-0.21-0.72-0.32-1.16-0.32
				c-0.44,0-0.83,0.1-1.17,0.32c-0.34,0.21-0.6,0.5-0.79,0.88c-0.19,0.38-0.29,0.81-0.29,1.3c0,0.49,0.1,0.92,0.29,1.3
				c0.19,0.38,0.45,0.67,0.79,0.88c0.34,0.21,0.73,0.32,1.17,0.32C324.18,184.73,324.57,184.62,324.9,184.41z"/>
			<path class="st0" d="M328.72,178.96h1.02v2.19l-0.43,0.64c0.02-0.59,0.12-1.1,0.32-1.53c0.2-0.44,0.47-0.77,0.83-1
				c0.35-0.23,0.76-0.35,1.23-0.35h0.23v1.07h-0.27c-0.39,0-0.73,0.07-1.01,0.22s-0.51,0.36-0.67,0.64
				c-0.16,0.27-0.23,0.6-0.23,0.97v3.71h-1.02V178.96z"/>
			<path class="st0" d="M334.28,185.21c-0.49-0.29-0.87-0.7-1.15-1.22c-0.27-0.52-0.41-1.11-0.41-1.77c0-0.64,0.14-1.22,0.42-1.74
				s0.66-0.93,1.15-1.22s1.04-0.44,1.64-0.44c0.62,0,1.16,0.15,1.62,0.44c0.47,0.29,0.83,0.7,1.08,1.22
				c0.25,0.52,0.38,1.11,0.38,1.76v0.25h-5.28l0.01-0.28c0,0.49,0.1,0.94,0.3,1.32c0.19,0.39,0.46,0.69,0.8,0.91
				c0.34,0.22,0.72,0.33,1.15,0.33c0.29,0,0.55-0.04,0.79-0.1c0.24-0.07,0.46-0.17,0.64-0.31c0.18-0.13,0.32-0.29,0.42-0.47h1.02
				c-0.08,0.27-0.24,0.54-0.48,0.82c-0.25,0.27-0.58,0.5-1,0.68c-0.42,0.18-0.9,0.27-1.46,0.27
				C335.32,185.65,334.77,185.5,334.28,185.21z M333.74,181.64h4.26v0.58c0-0.5-0.08-0.94-0.24-1.32c-0.16-0.38-0.39-0.67-0.7-0.88
				c-0.31-0.21-0.68-0.31-1.11-0.31s-0.82,0.1-1.15,0.3s-0.59,0.49-0.77,0.86c-0.18,0.37-0.27,0.8-0.27,1.3L333.74,181.64z"/>
			<path class="st0" d="M340.69,176.57h1.02v8.93h-1.02V176.57z"/>
			<path class="st0" d="M343.95,176.57h1.02v8.93h-1.02V176.57z"/>
			<path class="st0" d="M350.81,179.08c0.38,0.18,0.66,0.44,0.87,0.79c0.21,0.35,0.31,0.76,0.31,1.23v4.39h-1v-2.44h0.27
				c0,0.54-0.09,1.01-0.28,1.4c-0.19,0.39-0.46,0.69-0.8,0.89c-0.35,0.2-0.76,0.31-1.24,0.31c-0.42,0-0.79-0.08-1.13-0.24
				s-0.6-0.38-0.79-0.67s-0.29-0.61-0.29-0.97c0-0.34,0.09-0.65,0.26-0.94c0.18-0.29,0.42-0.52,0.73-0.71
				c0.31-0.18,0.66-0.3,1.05-0.34l1.74-0.19c0.14-0.02,0.26-0.08,0.34-0.18c0.08-0.1,0.12-0.25,0.12-0.45l0.08,1.34l-2.14,0.24
				c-0.22,0.03-0.42,0.09-0.59,0.2s-0.31,0.24-0.4,0.41c-0.1,0.17-0.14,0.36-0.14,0.56c0,0.22,0.06,0.42,0.17,0.59
				c0.12,0.17,0.28,0.3,0.49,0.4s0.45,0.14,0.71,0.14c0.37,0,0.69-0.07,0.96-0.22c0.27-0.15,0.49-0.36,0.63-0.63
				c0.15-0.27,0.22-0.58,0.22-0.93v-2.08c0-0.26-0.06-0.49-0.18-0.69s-0.3-0.35-0.52-0.46c-0.22-0.11-0.48-0.16-0.77-0.16
				s-0.56,0.05-0.79,0.15c-0.23,0.1-0.42,0.23-0.56,0.4s-0.23,0.35-0.26,0.55h-1.02c0.05-0.37,0.2-0.7,0.44-1
				c0.24-0.3,0.55-0.53,0.93-0.7c0.38-0.17,0.81-0.26,1.27-0.26C350,178.81,350.43,178.9,350.81,179.08z"/>
			<path class="st0" d="M357.19,178.96h0.98v2.83h-0.34c0-0.61,0.09-1.14,0.28-1.59c0.19-0.45,0.46-0.79,0.82-1.03
				c0.36-0.24,0.78-0.36,1.28-0.36c0.46,0,0.87,0.1,1.22,0.32c0.35,0.21,0.62,0.51,0.81,0.9c0.19,0.39,0.29,0.84,0.29,1.35v4.12
				h-1.02v-4.08c0-0.36-0.06-0.67-0.18-0.93s-0.3-0.46-0.53-0.6c-0.23-0.14-0.51-0.21-0.83-0.21c-0.35,0-0.66,0.08-0.93,0.24
				c-0.26,0.16-0.47,0.38-0.61,0.68c-0.14,0.29-0.21,0.64-0.21,1.03v3.87h-1.02V178.96z M365.63,180.49
				c-0.12-0.26-0.3-0.46-0.53-0.6s-0.51-0.21-0.84-0.21c-0.35,0-0.65,0.08-0.92,0.24c-0.26,0.16-0.47,0.38-0.61,0.68
				s-0.22,0.63-0.22,1.03l-0.57,0.17c0-0.59,0.1-1.11,0.31-1.56s0.5-0.8,0.88-1.05c0.38-0.25,0.82-0.37,1.33-0.37
				c0.46,0,0.88,0.1,1.24,0.32c0.36,0.21,0.64,0.51,0.84,0.9c0.2,0.39,0.3,0.84,0.3,1.35v4.12h-1.02v-4.08
				C365.81,181.06,365.75,180.75,365.63,180.49z"/>
			<path class="st0" d="M369.96,185.21c-0.51-0.3-0.91-0.7-1.2-1.22c-0.29-0.52-0.44-1.1-0.44-1.75c0-0.65,0.15-1.23,0.44-1.75
				c0.29-0.52,0.69-0.93,1.2-1.23s1.08-0.44,1.7-0.44s1.18,0.15,1.69,0.44s0.91,0.7,1.2,1.22s0.44,1.1,0.44,1.75
				c0,0.65-0.15,1.24-0.44,1.75s-0.69,0.93-1.2,1.22c-0.51,0.3-1.07,0.44-1.7,0.44C371.03,185.65,370.46,185.5,369.96,185.21z
				 M372.81,184.41c0.34-0.21,0.61-0.5,0.8-0.88c0.2-0.38,0.29-0.81,0.29-1.3c0-0.49-0.1-0.92-0.29-1.3
				c-0.2-0.38-0.46-0.67-0.81-0.88s-0.73-0.31-1.15-0.31c-0.43,0-0.81,0.1-1.16,0.31c-0.34,0.21-0.62,0.5-0.81,0.88
				c-0.2,0.38-0.3,0.81-0.3,1.3c0,0.49,0.1,0.92,0.3,1.3c0.2,0.38,0.47,0.67,0.82,0.88c0.35,0.21,0.73,0.31,1.16,0.31
				C372.09,184.72,372.47,184.61,372.81,184.41z"/>
			<path class="st0" d="M377.61,185.22c-0.47-0.29-0.84-0.69-1.11-1.21c-0.27-0.52-0.4-1.11-0.4-1.78c0-0.67,0.13-1.26,0.4-1.78
				s0.64-0.92,1.11-1.21s1.02-0.43,1.62-0.43c0.56,0,1.06,0.12,1.49,0.37c0.43,0.25,0.76,0.6,1,1.05s0.36,0.97,0.37,1.56h-0.42v0.88
				h0.42c-0.01,0.59-0.13,1.11-0.37,1.56s-0.58,0.8-1,1.05s-0.92,0.37-1.49,0.37C378.63,185.65,378.09,185.51,377.61,185.22z
				 M380.56,184.41c0.34-0.21,0.6-0.5,0.79-0.88c0.19-0.38,0.28-0.81,0.28-1.3c0-0.49-0.09-0.92-0.28-1.3
				c-0.19-0.38-0.45-0.67-0.79-0.88c-0.34-0.21-0.73-0.32-1.17-0.32c-0.43,0-0.82,0.1-1.15,0.32c-0.34,0.21-0.6,0.5-0.79,0.88
				c-0.19,0.38-0.28,0.81-0.28,1.3c0,0.49,0.09,0.92,0.28,1.3c0.19,0.38,0.45,0.67,0.79,0.88c0.34,0.21,0.72,0.32,1.15,0.32
				C379.83,184.73,380.22,184.62,380.56,184.41z M381.62,176.57h1.02v8.93h-1.02V176.57z"/>
			<path class="st0" d="M390.14,185.5h-0.98v-2.83h0.41c0,0.6-0.1,1.13-0.31,1.58c-0.21,0.45-0.51,0.79-0.89,1.04
				c-0.39,0.24-0.84,0.36-1.37,0.36c-0.47,0-0.88-0.1-1.24-0.3c-0.36-0.2-0.65-0.49-0.85-0.88c-0.21-0.39-0.31-0.86-0.31-1.4v-4.1
				h1.02v4c0,0.38,0.07,0.7,0.2,0.97c0.13,0.27,0.33,0.47,0.57,0.61c0.25,0.14,0.54,0.21,0.88,0.21c0.37,0,0.69-0.08,0.97-0.24
				c0.28-0.16,0.5-0.39,0.65-0.68c0.15-0.29,0.23-0.62,0.23-1v-3.87h1.02V185.5z"/>
			<path class="st0" d="M392.37,176.57h1.02v8.93h-1.02V176.57z"/>
			<path class="st0" d="M396.63,185.21c-0.49-0.29-0.87-0.7-1.15-1.22c-0.27-0.52-0.41-1.11-0.41-1.77c0-0.64,0.14-1.22,0.42-1.74
				s0.66-0.93,1.15-1.22s1.04-0.44,1.64-0.44c0.62,0,1.16,0.15,1.62,0.44c0.47,0.29,0.83,0.7,1.08,1.22
				c0.25,0.52,0.38,1.11,0.38,1.76v0.25h-5.28l0.01-0.28c0,0.49,0.1,0.94,0.3,1.32c0.19,0.39,0.46,0.69,0.8,0.91
				c0.34,0.22,0.72,0.33,1.15,0.33c0.28,0,0.55-0.04,0.79-0.1c0.24-0.07,0.46-0.17,0.64-0.31s0.32-0.29,0.42-0.47h1.02
				c-0.08,0.27-0.24,0.54-0.48,0.82c-0.24,0.27-0.58,0.5-1,0.68c-0.42,0.18-0.91,0.27-1.46,0.27
				C397.67,185.65,397.12,185.5,396.63,185.21z M396.08,181.64h4.25v0.58c0-0.5-0.08-0.94-0.24-1.32s-0.39-0.67-0.7-0.88
				c-0.31-0.21-0.68-0.31-1.11-0.31c-0.43,0-0.82,0.1-1.15,0.3c-0.33,0.2-0.59,0.49-0.77,0.86c-0.18,0.37-0.27,0.8-0.27,1.3
				L396.08,181.64z"/>
		</g>
	</g>
	<g>
		<g>
			<g>
				
					<radialGradient id="SVGID_00000020393885203158622000000001058603573587990459_" cx="255.5322" cy="232.889" r="192.6241" gradientTransform="matrix(1 0 0 0.2768 0 168.433)" gradientUnits="userSpaceOnUse">
					<stop  offset="0" style="stop-color:#EB4857"/>
					<stop  offset="0.5" style="stop-color:#C611E0"/>
					<stop  offset="1" style="stop-color:#7F52FF"/>
				</radialGradient>
				<path style="fill:url(#SVGID_00000020393885203158622000000001058603573587990459_);" d="M435.95,208.03l-171.95,0
					c-6.78,0-12.28,5.5-12.28,12.28v0c0,6.78,5.5,12.28,12.28,12.28l171.95,0c6.78,0,12.28-5.5,12.28-12.28v0
					C448.23,213.53,442.73,208.03,435.95,208.03z"/>
			</g>
		</g>
		<g>
			<path class="st0" d="M299.81,215.83h5.73v1h-4.67v3.08h4.42v1h-4.42v3.86h-1.06V215.83z"/>
			<path class="st0" d="M308.21,224.47c-0.49-0.29-0.87-0.7-1.15-1.22c-0.27-0.52-0.41-1.11-0.41-1.77c0-0.64,0.14-1.22,0.42-1.74
				c0.28-0.52,0.66-0.93,1.15-1.22c0.49-0.3,1.04-0.44,1.64-0.44c0.62,0,1.16,0.15,1.62,0.44c0.47,0.29,0.83,0.7,1.08,1.22
				s0.38,1.11,0.38,1.76v0.25h-5.28l0.01-0.28c0,0.49,0.1,0.93,0.3,1.32c0.19,0.39,0.46,0.69,0.8,0.91
				c0.34,0.22,0.72,0.33,1.15,0.33c0.29,0,0.55-0.04,0.79-0.11c0.24-0.07,0.46-0.17,0.64-0.31c0.18-0.13,0.32-0.29,0.42-0.47h1.02
				c-0.08,0.27-0.24,0.54-0.48,0.82c-0.25,0.27-0.58,0.5-1,0.68c-0.42,0.18-0.9,0.27-1.46,0.27
				C309.25,224.91,308.7,224.77,308.21,224.47z M307.67,220.9h4.26v0.58c0-0.5-0.08-0.94-0.24-1.32c-0.16-0.38-0.39-0.67-0.7-0.88
				c-0.31-0.21-0.68-0.31-1.11-0.31s-0.82,0.1-1.15,0.3s-0.59,0.49-0.77,0.86c-0.18,0.37-0.27,0.81-0.27,1.3L307.67,220.9z"/>
			<path class="st0" d="M318.23,218.34c0.38,0.18,0.66,0.44,0.87,0.79c0.21,0.35,0.31,0.76,0.31,1.23v4.39h-1v-2.44h0.27
				c0,0.54-0.09,1.01-0.28,1.4c-0.19,0.39-0.46,0.69-0.8,0.89c-0.35,0.2-0.76,0.31-1.24,0.31c-0.42,0-0.79-0.08-1.13-0.24
				s-0.6-0.39-0.79-0.67c-0.19-0.29-0.29-0.61-0.29-0.97c0-0.34,0.09-0.65,0.26-0.94c0.18-0.29,0.42-0.52,0.73-0.7
				c0.31-0.18,0.66-0.3,1.05-0.34l1.74-0.19c0.14-0.02,0.26-0.08,0.34-0.18c0.08-0.1,0.12-0.25,0.12-0.45l0.08,1.34l-2.14,0.24
				c-0.22,0.03-0.42,0.09-0.59,0.2s-0.31,0.24-0.4,0.41c-0.1,0.17-0.14,0.36-0.14,0.56c0,0.22,0.06,0.42,0.17,0.59
				c0.12,0.17,0.28,0.3,0.49,0.4s0.45,0.14,0.71,0.14c0.37,0,0.69-0.07,0.96-0.22c0.27-0.15,0.49-0.36,0.63-0.63
				c0.15-0.27,0.22-0.58,0.22-0.94v-2.08c0-0.26-0.06-0.49-0.18-0.69s-0.3-0.35-0.52-0.46c-0.22-0.11-0.48-0.16-0.77-0.16
				s-0.56,0.05-0.79,0.15c-0.23,0.1-0.42,0.23-0.56,0.4s-0.23,0.35-0.26,0.55h-1.02c0.05-0.37,0.2-0.7,0.44-1
				c0.24-0.3,0.55-0.53,0.93-0.7c0.38-0.17,0.81-0.25,1.27-0.25C317.42,218.07,317.86,218.16,318.23,218.34z"/>
			<path class="st0" d="M322.71,224.56c-0.25-0.13-0.45-0.32-0.6-0.56c-0.14-0.24-0.22-0.5-0.22-0.79l-0.01-4.08h-1.15l0.01-0.91
				h0.71c0.16,0,0.29-0.05,0.39-0.15s0.15-0.23,0.15-0.39v-1.05h0.92v1.6h1.58l-0.01,0.91h-1.58l0.01,4.02c0,0.2,0.07,0.37,0.2,0.5
				c0.13,0.13,0.3,0.2,0.5,0.2h0.87v0.91h-0.93C323.24,224.76,322.96,224.69,322.71,224.56z"/>
			<path class="st0" d="M331.62,224.76h-0.98v-2.83h0.41c0,0.6-0.1,1.13-0.31,1.58c-0.21,0.45-0.51,0.79-0.89,1.04
				c-0.39,0.24-0.84,0.36-1.37,0.36c-0.47,0-0.88-0.1-1.24-0.3s-0.65-0.49-0.85-0.88c-0.21-0.39-0.31-0.86-0.31-1.4v-4.1h1.02v4
				c0,0.38,0.07,0.7,0.2,0.97c0.13,0.27,0.32,0.47,0.57,0.61c0.25,0.14,0.54,0.21,0.88,0.21c0.37,0,0.69-0.08,0.97-0.24
				c0.28-0.16,0.5-0.39,0.65-0.68s0.23-0.62,0.23-1v-3.87h1.02V224.76z"/>
			<path class="st0" d="M333.85,218.23h1.02v2.19l-0.43,0.64c0.02-0.59,0.12-1.1,0.32-1.53c0.2-0.44,0.47-0.77,0.83-1
				c0.35-0.23,0.76-0.35,1.23-0.35h0.23v1.07h-0.27c-0.39,0-0.72,0.07-1.01,0.22c-0.29,0.15-0.51,0.36-0.67,0.63
				s-0.23,0.6-0.23,0.97v3.71h-1.02V218.23z"/>
			<path class="st0" d="M339.41,224.47c-0.49-0.29-0.87-0.7-1.14-1.22c-0.27-0.52-0.41-1.11-0.41-1.77c0-0.64,0.14-1.22,0.42-1.74
				c0.28-0.52,0.66-0.93,1.15-1.22c0.49-0.3,1.04-0.44,1.64-0.44c0.62,0,1.16,0.15,1.62,0.44c0.46,0.29,0.82,0.7,1.08,1.22
				c0.25,0.52,0.38,1.11,0.38,1.76v0.25h-5.28l0.01-0.28c0,0.49,0.1,0.93,0.3,1.32c0.19,0.39,0.46,0.69,0.8,0.91
				c0.34,0.22,0.72,0.33,1.15,0.33c0.29,0,0.55-0.04,0.79-0.11c0.24-0.07,0.46-0.17,0.64-0.31c0.18-0.13,0.32-0.29,0.42-0.47H344
				c-0.08,0.27-0.24,0.54-0.48,0.82c-0.25,0.27-0.58,0.5-1,0.68c-0.42,0.18-0.91,0.27-1.46,0.27
				C340.45,224.91,339.9,224.77,339.41,224.47z M338.87,220.9h4.26v0.58c0-0.5-0.08-0.94-0.24-1.32s-0.39-0.67-0.7-0.88
				c-0.31-0.21-0.68-0.31-1.11-0.31s-0.82,0.1-1.15,0.3s-0.59,0.49-0.77,0.86s-0.27,0.81-0.27,1.3L338.87,220.9z"/>
			<path class="st0" d="M348.79,218.23h0.98v2.83h-0.34c0-0.61,0.09-1.14,0.28-1.59c0.19-0.45,0.46-0.79,0.82-1.03
				s0.78-0.36,1.28-0.36c0.46,0,0.87,0.11,1.22,0.32c0.35,0.21,0.62,0.51,0.81,0.9c0.19,0.39,0.29,0.84,0.29,1.35v4.12h-1.02v-4.08
				c0-0.36-0.06-0.67-0.18-0.93c-0.12-0.26-0.3-0.46-0.53-0.6c-0.23-0.14-0.51-0.21-0.83-0.21c-0.35,0-0.66,0.08-0.93,0.24
				c-0.26,0.16-0.47,0.38-0.61,0.68c-0.14,0.29-0.21,0.64-0.21,1.03v3.87h-1.02V218.23z M357.24,219.75
				c-0.12-0.26-0.3-0.46-0.53-0.6c-0.23-0.14-0.51-0.21-0.84-0.21c-0.35,0-0.65,0.08-0.92,0.24c-0.26,0.16-0.47,0.39-0.61,0.68
				c-0.14,0.29-0.22,0.63-0.22,1.03l-0.57,0.17c0-0.59,0.1-1.11,0.31-1.56c0.2-0.45,0.5-0.8,0.88-1.05
				c0.38-0.25,0.82-0.37,1.33-0.37c0.46,0,0.88,0.11,1.24,0.32c0.36,0.21,0.64,0.51,0.84,0.9c0.2,0.39,0.3,0.84,0.3,1.35v4.12h-1.02
				v-4.08C357.42,220.32,357.36,220.02,357.24,219.75z"/>
			<path class="st0" d="M361.56,224.47c-0.51-0.3-0.91-0.7-1.2-1.23c-0.29-0.52-0.44-1.1-0.44-1.75s0.15-1.23,0.44-1.75
				c0.29-0.52,0.69-0.93,1.2-1.23c0.51-0.3,1.08-0.44,1.7-0.44s1.18,0.15,1.69,0.44c0.51,0.3,0.91,0.7,1.2,1.22
				c0.29,0.52,0.44,1.1,0.44,1.75c0,0.65-0.15,1.24-0.44,1.75s-0.69,0.93-1.2,1.22s-1.07,0.44-1.7,0.44
				C362.63,224.91,362.07,224.76,361.56,224.47z M364.42,223.67c0.34-0.21,0.61-0.5,0.8-0.88c0.2-0.38,0.29-0.81,0.29-1.3
				s-0.1-0.92-0.29-1.3c-0.2-0.38-0.46-0.67-0.81-0.88s-0.73-0.31-1.15-0.31c-0.43,0-0.81,0.1-1.16,0.31
				c-0.34,0.21-0.62,0.5-0.81,0.88c-0.2,0.38-0.3,0.81-0.3,1.3s0.1,0.92,0.3,1.3c0.2,0.38,0.47,0.67,0.82,0.88
				c0.35,0.21,0.73,0.31,1.16,0.31C363.69,223.98,364.08,223.88,364.42,223.67z"/>
			<path class="st0" d="M369.22,224.48c-0.47-0.29-0.84-0.69-1.11-1.21s-0.4-1.11-0.4-1.78c0-0.67,0.13-1.26,0.4-1.78
				s0.64-0.92,1.11-1.21s1.02-0.43,1.62-0.43c0.56,0,1.06,0.12,1.49,0.37c0.43,0.25,0.76,0.6,1,1.05s0.36,0.97,0.37,1.56h-0.42v0.88
				h0.42c-0.01,0.59-0.13,1.11-0.37,1.56s-0.58,0.8-1,1.05c-0.43,0.25-0.92,0.37-1.49,0.37
				C370.23,224.91,369.69,224.77,369.22,224.48z M372.17,223.67c0.34-0.21,0.6-0.5,0.79-0.88s0.28-0.81,0.28-1.3
				s-0.09-0.92-0.28-1.3c-0.19-0.38-0.45-0.67-0.79-0.88c-0.34-0.21-0.73-0.32-1.17-0.32c-0.43,0-0.82,0.11-1.15,0.32
				c-0.34,0.21-0.6,0.5-0.79,0.88c-0.19,0.38-0.28,0.81-0.28,1.3s0.09,0.92,0.28,1.3s0.45,0.67,0.79,0.88
				c0.34,0.21,0.72,0.32,1.15,0.32C371.44,223.99,371.83,223.88,372.17,223.67z M373.23,215.83h1.02v8.93h-1.02V215.83z"/>
			<path class="st0" d="M381.74,224.76h-0.98v-2.83h0.41c0,0.6-0.1,1.13-0.31,1.58c-0.21,0.45-0.51,0.79-0.89,1.04
				c-0.39,0.24-0.84,0.36-1.37,0.36c-0.47,0-0.88-0.1-1.24-0.3c-0.36-0.2-0.65-0.49-0.85-0.88c-0.21-0.39-0.31-0.86-0.31-1.4v-4.1
				h1.02v4c0,0.38,0.07,0.7,0.2,0.97c0.13,0.27,0.33,0.47,0.57,0.61c0.25,0.14,0.54,0.21,0.88,0.21c0.37,0,0.69-0.08,0.97-0.24
				c0.28-0.16,0.5-0.39,0.65-0.68c0.15-0.29,0.23-0.62,0.23-1v-3.87h1.02V224.76z"/>
			<path class="st0" d="M383.98,215.83H385v8.93h-1.02V215.83z"/>
			<path class="st0" d="M388.23,224.47c-0.49-0.29-0.87-0.7-1.15-1.22c-0.27-0.52-0.41-1.11-0.41-1.77c0-0.64,0.14-1.22,0.42-1.74
				c0.28-0.52,0.66-0.93,1.15-1.22c0.49-0.3,1.04-0.44,1.64-0.44c0.62,0,1.16,0.15,1.62,0.44c0.47,0.29,0.83,0.7,1.08,1.22
				s0.38,1.11,0.38,1.76v0.25h-5.28l0.01-0.28c0,0.49,0.1,0.93,0.3,1.32c0.19,0.39,0.46,0.69,0.8,0.91
				c0.34,0.22,0.72,0.33,1.15,0.33c0.28,0,0.55-0.04,0.79-0.11c0.24-0.07,0.46-0.17,0.64-0.31c0.18-0.13,0.32-0.29,0.42-0.47h1.02
				c-0.08,0.27-0.24,0.54-0.48,0.82c-0.24,0.27-0.58,0.5-1,0.68c-0.42,0.18-0.91,0.27-1.46,0.27
				C389.27,224.91,388.72,224.77,388.23,224.47z M387.69,220.9h4.25v0.58c0-0.5-0.08-0.94-0.24-1.32s-0.39-0.67-0.7-0.88
				c-0.31-0.21-0.68-0.31-1.11-0.31c-0.43,0-0.82,0.1-1.15,0.3c-0.33,0.2-0.59,0.49-0.77,0.86c-0.18,0.37-0.27,0.81-0.27,1.3
				L387.69,220.9z"/>
			<path class="st0" d="M398.81,218.09h-2.16v-0.86h1.14c0.27,0,0.51-0.06,0.71-0.17c0.2-0.11,0.36-0.28,0.46-0.49
				s0.16-0.46,0.16-0.74h0.01h0.74v8.93h-1.06V218.09z"/>
		</g>
	</g>
	<g>
		<g>
			<g>
				
					<radialGradient id="SVGID_00000176044899539241489240000009547761981453750975_" cx="255.5322" cy="311.4114" r="192.6241" gradientTransform="matrix(1 0 0 0.2768 0 225.223)" gradientUnits="userSpaceOnUse">
					<stop  offset="0" style="stop-color:#EB4857"/>
					<stop  offset="0.5" style="stop-color:#C611E0"/>
					<stop  offset="1" style="stop-color:#7F52FF"/>
				</radialGradient>
				<path style="fill:url(#SVGID_00000176044899539241489240000009547761981453750975_);" d="M435.95,286.55l-171.95,0
					c-6.78,0-12.28,5.5-12.28,12.28l0,0c0,6.78,5.5,12.28,12.28,12.28l171.95,0c6.78,0,12.28-5.5,12.28-12.28v0
					C448.23,292.05,442.73,286.55,435.95,286.55z"/>
			</g>
		</g>
		<g>
			<path class="st0" d="M297.46,294.35h5.73v1h-4.67v3.08h4.42v1h-4.42v3.86h-1.06V294.35z"/>
			<path class="st0" d="M305.86,302.99c-0.49-0.29-0.87-0.7-1.15-1.22c-0.27-0.52-0.41-1.11-0.41-1.77c0-0.64,0.14-1.22,0.42-1.74
				c0.28-0.52,0.66-0.93,1.15-1.22c0.49-0.3,1.04-0.44,1.64-0.44c0.62,0,1.16,0.15,1.62,0.44c0.47,0.29,0.83,0.7,1.08,1.22
				c0.25,0.52,0.38,1.11,0.38,1.76v0.25h-5.28l0.01-0.28c0,0.49,0.1,0.93,0.3,1.32c0.19,0.39,0.46,0.69,0.8,0.91
				c0.34,0.22,0.72,0.33,1.15,0.33c0.29,0,0.55-0.04,0.79-0.11c0.25-0.07,0.46-0.17,0.64-0.31c0.18-0.13,0.32-0.29,0.42-0.47h1.02
				c-0.08,0.27-0.24,0.54-0.48,0.82c-0.24,0.27-0.58,0.5-1,0.68c-0.42,0.18-0.9,0.27-1.46,0.27
				C306.9,303.43,306.35,303.29,305.86,302.99z M305.32,299.42h4.26V300c0-0.5-0.08-0.94-0.24-1.32c-0.16-0.38-0.39-0.67-0.7-0.88
				c-0.31-0.21-0.68-0.31-1.11-0.31c-0.43,0-0.82,0.1-1.15,0.3c-0.33,0.2-0.59,0.49-0.77,0.86c-0.18,0.37-0.27,0.81-0.27,1.3
				L305.32,299.42z"/>
			<path class="st0" d="M315.88,296.87c0.38,0.18,0.67,0.44,0.87,0.79c0.21,0.35,0.31,0.76,0.31,1.23v4.39h-1v-2.44h0.27
				c0,0.54-0.09,1.01-0.28,1.4s-0.46,0.69-0.8,0.89c-0.35,0.2-0.76,0.31-1.24,0.31c-0.42,0-0.79-0.08-1.13-0.24s-0.6-0.39-0.79-0.67
				c-0.19-0.29-0.29-0.61-0.29-0.97c0-0.34,0.09-0.65,0.26-0.94c0.18-0.29,0.42-0.52,0.73-0.7c0.31-0.18,0.66-0.3,1.06-0.34
				l1.74-0.19c0.14-0.02,0.26-0.08,0.34-0.18s0.12-0.25,0.12-0.45l0.08,1.34l-2.14,0.24c-0.22,0.03-0.42,0.09-0.59,0.2
				c-0.17,0.11-0.31,0.24-0.4,0.41c-0.1,0.17-0.14,0.36-0.14,0.56c0,0.22,0.06,0.42,0.18,0.59c0.12,0.17,0.28,0.3,0.49,0.4
				c0.21,0.1,0.45,0.14,0.71,0.14c0.37,0,0.69-0.07,0.96-0.22c0.28-0.15,0.49-0.36,0.63-0.63c0.15-0.27,0.22-0.58,0.22-0.94v-2.08
				c0-0.26-0.06-0.49-0.18-0.69c-0.12-0.2-0.3-0.35-0.52-0.46s-0.48-0.16-0.77-0.16c-0.29,0-0.56,0.05-0.79,0.15
				s-0.42,0.23-0.56,0.4s-0.23,0.35-0.26,0.55h-1.02c0.05-0.37,0.2-0.7,0.44-1c0.24-0.3,0.55-0.53,0.94-0.7
				c0.38-0.17,0.81-0.25,1.27-0.25C315.07,296.59,315.51,296.69,315.88,296.87z"/>
			<path class="st0" d="M320.36,303.08c-0.25-0.13-0.45-0.32-0.6-0.56c-0.15-0.24-0.22-0.5-0.22-0.79l-0.01-4.08h-1.15l0.01-0.91
				h0.71c0.16,0,0.29-0.05,0.39-0.15c0.1-0.1,0.15-0.23,0.15-0.39v-1.05h0.92v1.6h1.58l-0.01,0.91h-1.58l0.01,4.02
				c0,0.2,0.07,0.37,0.2,0.5c0.13,0.13,0.3,0.2,0.5,0.2h0.87v0.91h-0.93C320.89,303.28,320.61,303.21,320.36,303.08z"/>
			<path class="st0" d="M329.27,303.28h-0.98v-2.83h0.41c0,0.6-0.11,1.13-0.31,1.58s-0.51,0.79-0.89,1.04
				c-0.39,0.24-0.84,0.36-1.37,0.36c-0.47,0-0.88-0.1-1.24-0.3s-0.64-0.49-0.85-0.88c-0.21-0.39-0.31-0.86-0.31-1.4v-4.1h1.02v4
				c0,0.38,0.07,0.7,0.2,0.97c0.13,0.27,0.32,0.47,0.57,0.61c0.25,0.14,0.54,0.21,0.88,0.21c0.37,0,0.69-0.08,0.97-0.24
				c0.28-0.16,0.5-0.39,0.65-0.68c0.15-0.29,0.23-0.62,0.23-1v-3.87h1.02V303.28z"/>
			<path class="st0" d="M331.5,296.75h1.02v2.19l-0.43,0.64c0.02-0.59,0.12-1.1,0.32-1.53c0.2-0.44,0.47-0.77,0.83-1
				c0.35-0.23,0.76-0.35,1.23-0.35h0.23v1.07h-0.27c-0.39,0-0.73,0.07-1.01,0.22c-0.29,0.15-0.51,0.36-0.67,0.63
				c-0.16,0.27-0.23,0.6-0.23,0.97v3.71h-1.02V296.75z"/>
			<path class="st0" d="M337.06,302.99c-0.49-0.29-0.87-0.7-1.15-1.22c-0.27-0.52-0.41-1.11-0.41-1.77c0-0.64,0.14-1.22,0.42-1.74
				c0.28-0.52,0.66-0.93,1.15-1.22c0.49-0.3,1.04-0.44,1.64-0.44c0.62,0,1.16,0.15,1.62,0.44c0.47,0.29,0.83,0.7,1.08,1.22
				s0.38,1.11,0.38,1.76v0.25h-5.28l0.01-0.28c0,0.49,0.1,0.93,0.3,1.32c0.19,0.39,0.46,0.69,0.8,0.91
				c0.34,0.22,0.72,0.33,1.15,0.33c0.29,0,0.55-0.04,0.79-0.11c0.24-0.07,0.46-0.17,0.64-0.31c0.18-0.13,0.32-0.29,0.42-0.47h1.02
				c-0.08,0.27-0.24,0.54-0.48,0.82c-0.25,0.27-0.58,0.5-1,0.68c-0.42,0.18-0.9,0.27-1.46,0.27
				C338.1,303.43,337.55,303.29,337.06,302.99z M336.52,299.42h4.26V300c0-0.5-0.08-0.94-0.24-1.32c-0.16-0.38-0.39-0.67-0.7-0.88
				c-0.31-0.21-0.68-0.31-1.11-0.31s-0.82,0.1-1.15,0.3s-0.59,0.49-0.77,0.86c-0.18,0.37-0.27,0.81-0.27,1.3L336.52,299.42z"/>
			<path class="st0" d="M346.44,296.75h0.98v2.83h-0.34c0-0.61,0.09-1.14,0.28-1.59c0.19-0.45,0.46-0.79,0.82-1.03
				s0.78-0.36,1.28-0.36c0.46,0,0.87,0.11,1.22,0.32s0.62,0.51,0.81,0.9c0.19,0.39,0.29,0.84,0.29,1.35v4.12h-1.02v-4.08
				c0-0.36-0.06-0.67-0.18-0.93c-0.12-0.26-0.3-0.46-0.53-0.6c-0.23-0.14-0.51-0.21-0.83-0.21c-0.35,0-0.66,0.08-0.92,0.24
				c-0.26,0.16-0.47,0.38-0.61,0.68c-0.14,0.29-0.21,0.64-0.21,1.03v3.87h-1.02V296.75z M354.89,298.28
				c-0.12-0.26-0.3-0.46-0.53-0.6c-0.23-0.14-0.51-0.21-0.83-0.21c-0.35,0-0.66,0.08-0.92,0.24s-0.47,0.39-0.61,0.68
				c-0.15,0.29-0.22,0.63-0.22,1.03l-0.57,0.17c0-0.59,0.1-1.11,0.31-1.56c0.21-0.45,0.5-0.8,0.88-1.05
				c0.38-0.25,0.82-0.37,1.33-0.37c0.46,0,0.87,0.11,1.24,0.32c0.36,0.21,0.64,0.51,0.84,0.9c0.2,0.39,0.3,0.84,0.3,1.35v4.12h-1.02
				v-4.08C355.07,298.85,355.01,298.54,354.89,298.28z"/>
			<path class="st0" d="M359.21,302.99c-0.51-0.3-0.91-0.7-1.2-1.23c-0.29-0.52-0.44-1.1-0.44-1.75s0.15-1.23,0.44-1.75
				c0.29-0.52,0.69-0.93,1.2-1.23c0.51-0.3,1.08-0.44,1.7-0.44s1.18,0.15,1.69,0.44c0.51,0.3,0.91,0.7,1.2,1.22
				c0.29,0.52,0.44,1.1,0.44,1.75c0,0.65-0.15,1.24-0.44,1.75s-0.69,0.93-1.2,1.22s-1.07,0.44-1.7,0.44
				C360.28,303.43,359.72,303.29,359.21,302.99z M362.07,302.19c0.34-0.21,0.61-0.5,0.8-0.88c0.2-0.38,0.29-0.81,0.29-1.3
				s-0.1-0.92-0.29-1.3c-0.2-0.38-0.46-0.67-0.81-0.88s-0.73-0.31-1.15-0.31c-0.43,0-0.81,0.1-1.16,0.31
				c-0.34,0.21-0.62,0.5-0.81,0.88c-0.2,0.38-0.3,0.81-0.3,1.3s0.1,0.92,0.3,1.3c0.2,0.38,0.47,0.67,0.82,0.88
				c0.35,0.21,0.73,0.31,1.16,0.31C361.34,302.5,361.73,302.4,362.07,302.19z"/>
			<path class="st0" d="M366.87,303c-0.47-0.29-0.84-0.69-1.11-1.21s-0.4-1.11-0.4-1.78c0-0.67,0.13-1.26,0.4-1.78
				s0.64-0.92,1.11-1.21s1.02-0.43,1.62-0.43c0.56,0,1.06,0.12,1.49,0.37c0.43,0.25,0.76,0.6,1,1.05s0.36,0.97,0.37,1.56h-0.42v0.88
				h0.42c-0.01,0.59-0.13,1.11-0.37,1.56s-0.58,0.8-1,1.05c-0.43,0.25-0.92,0.37-1.49,0.37C367.88,303.43,367.34,303.29,366.87,303z
				 M369.82,302.19c0.34-0.21,0.6-0.5,0.79-0.88s0.28-0.81,0.28-1.3s-0.09-0.92-0.28-1.3c-0.19-0.38-0.45-0.67-0.79-0.88
				c-0.34-0.21-0.73-0.32-1.17-0.32c-0.43,0-0.82,0.11-1.15,0.32c-0.34,0.21-0.6,0.5-0.79,0.88c-0.19,0.38-0.28,0.81-0.28,1.3
				s0.09,0.92,0.28,1.3s0.45,0.67,0.79,0.88c0.34,0.21,0.72,0.32,1.15,0.32C369.09,302.51,369.48,302.4,369.82,302.19z
				 M370.88,294.35h1.02v8.93h-1.02V294.35z"/>
			<path class="st0" d="M379.39,303.28h-0.98v-2.83h0.41c0,0.6-0.1,1.13-0.31,1.58c-0.21,0.45-0.51,0.79-0.89,1.04
				c-0.39,0.24-0.84,0.36-1.37,0.36c-0.47,0-0.88-0.1-1.24-0.3c-0.36-0.2-0.65-0.49-0.85-0.88c-0.21-0.39-0.31-0.86-0.31-1.4v-4.1
				h1.02v4c0,0.38,0.07,0.7,0.2,0.97c0.13,0.27,0.33,0.47,0.57,0.61c0.25,0.14,0.54,0.21,0.88,0.21c0.37,0,0.69-0.08,0.97-0.24
				c0.28-0.16,0.5-0.39,0.65-0.68c0.15-0.29,0.23-0.62,0.23-1v-3.87h1.02V303.28z"/>
			<path class="st0" d="M381.63,294.35h1.02v8.93h-1.02V294.35z"/>
			<path class="st0" d="M385.88,302.99c-0.49-0.29-0.87-0.7-1.15-1.22c-0.27-0.52-0.41-1.11-0.41-1.77c0-0.64,0.14-1.22,0.42-1.74
				c0.28-0.52,0.66-0.93,1.15-1.22c0.49-0.3,1.04-0.44,1.64-0.44c0.62,0,1.16,0.15,1.62,0.44c0.47,0.29,0.83,0.7,1.08,1.22
				s0.38,1.11,0.38,1.76v0.25h-5.28l0.01-0.28c0,0.49,0.1,0.93,0.3,1.32c0.19,0.39,0.46,0.69,0.8,0.91
				c0.34,0.22,0.72,0.33,1.15,0.33c0.28,0,0.55-0.04,0.79-0.11c0.24-0.07,0.46-0.17,0.64-0.31c0.18-0.13,0.32-0.29,0.42-0.47h1.02
				c-0.08,0.27-0.24,0.54-0.48,0.82c-0.24,0.27-0.58,0.5-1,0.68c-0.42,0.18-0.91,0.27-1.46,0.27
				C386.92,303.43,386.37,303.29,385.88,302.99z M385.34,299.42h4.25V300c0-0.5-0.08-0.94-0.24-1.32s-0.39-0.67-0.7-0.88
				c-0.31-0.21-0.68-0.31-1.11-0.31c-0.43,0-0.82,0.1-1.15,0.3c-0.33,0.2-0.59,0.49-0.77,0.86c-0.18,0.37-0.27,0.81-0.27,1.3
				L385.34,299.42z"/>
			<path class="st0" d="M395.52,294.35h1.12l4.8,7.25v-7.25h1.06v8.93h-1.14l-4.79-7.25v7.25h-1.06V294.35z"/>
		</g>
	</g>
	<g>
		<g>
			<g>
				
					<radialGradient id="SVGID_00000182528805052597268840000005643682275916245435_" cx="255.5322" cy="272.1502" r="192.6241" gradientTransform="matrix(1 0 0 0.2768 0 196.828)" gradientUnits="userSpaceOnUse">
					<stop  offset="0" style="stop-color:#EB4857"/>
					<stop  offset="0.5" style="stop-color:#C611E0"/>
					<stop  offset="1" style="stop-color:#7F52FF"/>
				</radialGradient>
				<path style="fill:url(#SVGID_00000182528805052597268840000005643682275916245435_);" d="M435.95,247.29l-171.95,0
					c-6.78,0-12.28,5.5-12.28,12.28v0c0,6.78,5.5,12.28,12.28,12.28l171.95,0c6.78,0,12.28-5.5,12.28-12.28v0
					C448.23,252.79,442.73,247.29,435.95,247.29z"/>
			</g>
		</g>
		<g>
			<path class="st0" d="M298.54,255.09h5.73v1h-4.67v3.08h4.42v1h-4.42v3.86h-1.06V255.09z"/>
			<path class="st0" d="M306.95,263.73c-0.49-0.29-0.87-0.7-1.15-1.22c-0.27-0.52-0.41-1.11-0.41-1.77c0-0.64,0.14-1.22,0.42-1.74
				s0.66-0.93,1.15-1.22s1.04-0.44,1.64-0.44c0.62,0,1.16,0.15,1.62,0.44c0.47,0.29,0.83,0.7,1.08,1.22
				c0.25,0.52,0.38,1.11,0.38,1.76V261h-5.28l0.01-0.28c0,0.49,0.1,0.94,0.3,1.32c0.19,0.39,0.46,0.69,0.8,0.91
				c0.34,0.22,0.72,0.33,1.15,0.33c0.29,0,0.55-0.04,0.79-0.1c0.24-0.07,0.46-0.17,0.64-0.31c0.18-0.13,0.32-0.29,0.42-0.47h1.02
				c-0.08,0.27-0.24,0.54-0.48,0.82c-0.25,0.27-0.58,0.5-1,0.68c-0.42,0.18-0.9,0.27-1.46,0.27
				C307.99,264.17,307.43,264.03,306.95,263.73z M306.4,260.16h4.26v0.58c0-0.5-0.08-0.94-0.24-1.32c-0.16-0.38-0.39-0.67-0.7-0.88
				c-0.31-0.21-0.68-0.31-1.11-0.31s-0.82,0.1-1.15,0.3s-0.59,0.49-0.77,0.86c-0.18,0.37-0.27,0.8-0.27,1.3L306.4,260.16z"/>
			<path class="st0" d="M316.96,257.6c0.38,0.18,0.66,0.44,0.87,0.79c0.21,0.35,0.31,0.76,0.31,1.23v4.39h-1v-2.44h0.27
				c0,0.54-0.09,1.01-0.28,1.4c-0.19,0.39-0.46,0.69-0.8,0.89c-0.35,0.2-0.76,0.31-1.24,0.31c-0.42,0-0.79-0.08-1.13-0.24
				s-0.6-0.38-0.79-0.67s-0.29-0.61-0.29-0.97c0-0.34,0.09-0.65,0.26-0.94c0.18-0.29,0.42-0.52,0.73-0.71
				c0.31-0.18,0.66-0.3,1.05-0.34l1.74-0.19c0.14-0.02,0.26-0.08,0.34-0.18c0.08-0.1,0.12-0.25,0.12-0.45l0.08,1.34l-2.14,0.24
				c-0.22,0.03-0.42,0.09-0.59,0.2s-0.31,0.24-0.4,0.41c-0.1,0.17-0.14,0.36-0.14,0.56c0,0.22,0.06,0.42,0.17,0.59
				c0.12,0.17,0.28,0.3,0.49,0.4s0.45,0.14,0.71,0.14c0.37,0,0.69-0.07,0.96-0.22c0.27-0.15,0.49-0.36,0.63-0.63
				c0.15-0.27,0.22-0.58,0.22-0.93v-2.08c0-0.26-0.06-0.49-0.18-0.69s-0.3-0.35-0.52-0.46c-0.22-0.11-0.48-0.16-0.77-0.16
				s-0.56,0.05-0.79,0.15c-0.23,0.1-0.42,0.23-0.56,0.4s-0.23,0.35-0.26,0.55h-1.02c0.05-0.37,0.2-0.7,0.44-1
				c0.24-0.3,0.55-0.53,0.93-0.7c0.38-0.17,0.81-0.26,1.27-0.26C316.15,257.33,316.59,257.42,316.96,257.6z"/>
			<path class="st0" d="M321.44,263.82c-0.25-0.13-0.45-0.32-0.6-0.56c-0.14-0.24-0.22-0.5-0.22-0.79l-0.01-4.08h-1.15l0.01-0.91
				h0.71c0.16,0,0.29-0.05,0.39-0.15s0.15-0.23,0.15-0.39v-1.05h0.92v1.59h1.58l-0.01,0.91h-1.58l0.01,4.02c0,0.2,0.07,0.37,0.2,0.5
				c0.13,0.13,0.3,0.2,0.5,0.2h0.87v0.91h-0.93C321.97,264.02,321.69,263.95,321.44,263.82z"/>
			<path class="st0" d="M330.35,264.02h-0.98v-2.83h0.41c0,0.6-0.1,1.13-0.31,1.58c-0.21,0.45-0.51,0.79-0.89,1.04
				c-0.39,0.24-0.84,0.36-1.37,0.36c-0.47,0-0.88-0.1-1.24-0.3c-0.36-0.2-0.65-0.49-0.85-0.88c-0.21-0.39-0.31-0.86-0.31-1.4v-4.1
				h1.02v4c0,0.38,0.07,0.7,0.2,0.97c0.13,0.27,0.32,0.47,0.57,0.61c0.25,0.14,0.54,0.21,0.88,0.21c0.37,0,0.69-0.08,0.97-0.24
				c0.28-0.16,0.5-0.39,0.65-0.68s0.23-0.62,0.23-1v-3.87h1.02V264.02z"/>
			<path class="st0" d="M332.58,257.49h1.02v2.19l-0.43,0.64c0.02-0.59,0.12-1.1,0.32-1.53c0.2-0.44,0.47-0.77,0.83-1
				c0.35-0.23,0.76-0.35,1.23-0.35h0.23v1.07h-0.27c-0.39,0-0.72,0.07-1.01,0.22s-0.51,0.36-0.67,0.64
				c-0.16,0.27-0.23,0.6-0.23,0.97v3.71h-1.02V257.49z"/>
			<path class="st0" d="M338.14,263.73c-0.49-0.29-0.87-0.7-1.14-1.22c-0.27-0.52-0.41-1.11-0.41-1.77c0-0.64,0.14-1.22,0.42-1.74
				c0.28-0.52,0.66-0.93,1.15-1.22c0.49-0.3,1.04-0.44,1.64-0.44c0.62,0,1.16,0.15,1.62,0.44c0.46,0.29,0.82,0.7,1.08,1.22
				c0.25,0.52,0.38,1.11,0.38,1.76V261h-5.28l0.01-0.28c0,0.49,0.1,0.94,0.3,1.32c0.19,0.39,0.46,0.69,0.8,0.91
				c0.34,0.22,0.72,0.33,1.15,0.33c0.29,0,0.55-0.04,0.79-0.1c0.24-0.07,0.46-0.17,0.64-0.31s0.32-0.29,0.42-0.47h1.02
				c-0.08,0.27-0.24,0.54-0.48,0.82c-0.25,0.27-0.58,0.5-1,0.68c-0.42,0.18-0.91,0.27-1.46,0.27
				C339.18,264.17,338.63,264.03,338.14,263.73z M337.6,260.16h4.26v0.58c0-0.5-0.08-0.94-0.24-1.32s-0.39-0.67-0.7-0.88
				c-0.31-0.21-0.68-0.31-1.11-0.31s-0.82,0.1-1.15,0.3s-0.59,0.49-0.77,0.86s-0.27,0.8-0.27,1.3L337.6,260.16z"/>
			<path class="st0" d="M347.52,257.49h0.98v2.83h-0.34c0-0.61,0.09-1.14,0.28-1.59c0.19-0.45,0.46-0.79,0.82-1.03
				c0.36-0.24,0.78-0.36,1.28-0.36c0.46,0,0.87,0.1,1.22,0.32c0.35,0.21,0.62,0.51,0.81,0.9c0.19,0.39,0.29,0.84,0.29,1.35v4.12
				h-1.02v-4.08c0-0.36-0.06-0.67-0.18-0.93c-0.12-0.26-0.3-0.46-0.53-0.6c-0.23-0.14-0.51-0.21-0.83-0.21
				c-0.35,0-0.66,0.08-0.93,0.24c-0.26,0.16-0.47,0.38-0.61,0.68c-0.14,0.29-0.21,0.64-0.21,1.03v3.87h-1.02V257.49z M355.97,259.01
				c-0.12-0.26-0.3-0.46-0.53-0.6s-0.51-0.21-0.84-0.21c-0.35,0-0.65,0.08-0.92,0.24c-0.26,0.16-0.47,0.38-0.61,0.68
				s-0.22,0.63-0.22,1.03l-0.57,0.17c0-0.59,0.1-1.11,0.31-1.56c0.2-0.45,0.5-0.8,0.88-1.05c0.38-0.25,0.82-0.37,1.33-0.37
				c0.46,0,0.88,0.1,1.24,0.32c0.36,0.21,0.64,0.51,0.84,0.9c0.2,0.39,0.3,0.84,0.3,1.35v4.12h-1.02v-4.08
				C356.15,259.59,356.09,259.28,355.97,259.01z"/>
			<path class="st0" d="M360.29,263.73c-0.51-0.3-0.91-0.7-1.2-1.22c-0.29-0.52-0.44-1.1-0.44-1.75c0-0.65,0.15-1.23,0.44-1.75
				c0.29-0.52,0.69-0.93,1.2-1.23s1.08-0.44,1.7-0.44s1.18,0.15,1.69,0.44s0.91,0.7,1.2,1.22s0.44,1.1,0.44,1.75
				c0,0.65-0.15,1.24-0.44,1.75s-0.69,0.93-1.2,1.22c-0.51,0.3-1.07,0.44-1.7,0.44C361.37,264.17,360.8,264.03,360.29,263.73z
				 M363.15,262.93c0.34-0.21,0.61-0.5,0.8-0.88c0.2-0.38,0.29-0.81,0.29-1.3c0-0.49-0.1-0.92-0.29-1.3
				c-0.2-0.38-0.46-0.67-0.81-0.88s-0.73-0.31-1.15-0.31c-0.43,0-0.81,0.1-1.16,0.31c-0.34,0.21-0.62,0.5-0.81,0.88
				c-0.2,0.38-0.3,0.81-0.3,1.3c0,0.49,0.1,0.92,0.3,1.3c0.2,0.38,0.47,0.67,0.82,0.88c0.35,0.21,0.73,0.31,1.16,0.31
				C362.42,263.24,362.81,263.14,363.15,262.93z"/>
			<path class="st0" d="M367.95,263.74c-0.47-0.29-0.84-0.69-1.11-1.21c-0.27-0.52-0.4-1.11-0.4-1.78c0-0.67,0.13-1.26,0.4-1.78
				s0.64-0.92,1.11-1.21s1.02-0.43,1.62-0.43c0.56,0,1.06,0.12,1.49,0.37c0.43,0.25,0.76,0.6,1,1.05s0.36,0.97,0.37,1.56h-0.42v0.88
				h0.42c-0.01,0.59-0.13,1.11-0.37,1.56s-0.58,0.8-1,1.05s-0.92,0.37-1.49,0.37C368.96,264.17,368.42,264.03,367.95,263.74z
				 M370.9,262.93c0.34-0.21,0.6-0.5,0.79-0.88c0.19-0.38,0.28-0.81,0.28-1.3c0-0.49-0.09-0.92-0.28-1.3
				c-0.19-0.38-0.45-0.67-0.79-0.88c-0.34-0.21-0.73-0.32-1.17-0.32c-0.43,0-0.82,0.1-1.15,0.32c-0.34,0.21-0.6,0.5-0.79,0.88
				c-0.19,0.38-0.28,0.81-0.28,1.3c0,0.49,0.09,0.92,0.28,1.3c0.19,0.38,0.45,0.67,0.79,0.88c0.34,0.21,0.72,0.32,1.15,0.32
				C370.17,263.25,370.56,263.14,370.9,262.93z M371.96,255.09h1.02v8.93h-1.02V255.09z"/>
			<path class="st0" d="M380.48,264.02h-0.98v-2.83h0.41c0,0.6-0.1,1.13-0.31,1.58c-0.21,0.45-0.51,0.79-0.89,1.04
				c-0.39,0.24-0.84,0.36-1.37,0.36c-0.47,0-0.88-0.1-1.24-0.3c-0.36-0.2-0.65-0.49-0.85-0.88c-0.21-0.39-0.31-0.86-0.31-1.4v-4.1
				h1.02v4c0,0.38,0.07,0.7,0.2,0.97c0.13,0.27,0.33,0.47,0.57,0.61c0.25,0.14,0.54,0.21,0.88,0.21c0.37,0,0.69-0.08,0.97-0.24
				c0.28-0.16,0.5-0.39,0.65-0.68c0.15-0.29,0.23-0.62,0.23-1v-3.87h1.02V264.02z"/>
			<path class="st0" d="M382.71,255.09h1.02v8.93h-1.02V255.09z"/>
			<path class="st0" d="M386.96,263.73c-0.49-0.29-0.87-0.7-1.15-1.22c-0.27-0.52-0.41-1.11-0.41-1.77c0-0.64,0.14-1.22,0.42-1.74
				s0.66-0.93,1.15-1.22s1.04-0.44,1.64-0.44c0.62,0,1.16,0.15,1.62,0.44c0.47,0.29,0.83,0.7,1.08,1.22
				c0.25,0.52,0.38,1.11,0.38,1.76V261h-5.28l0.01-0.28c0,0.49,0.1,0.94,0.3,1.32c0.19,0.39,0.46,0.69,0.8,0.91
				c0.34,0.22,0.72,0.33,1.15,0.33c0.28,0,0.55-0.04,0.79-0.1c0.24-0.07,0.46-0.17,0.64-0.31s0.32-0.29,0.42-0.47h1.02
				c-0.08,0.27-0.24,0.54-0.48,0.82c-0.24,0.27-0.58,0.5-1,0.68c-0.42,0.18-0.91,0.27-1.46,0.27
				C388,264.17,387.45,264.03,386.96,263.73z M386.42,260.16h4.25v0.58c0-0.5-0.08-0.94-0.24-1.32s-0.39-0.67-0.7-0.88
				c-0.31-0.21-0.68-0.31-1.11-0.31c-0.43,0-0.82,0.1-1.15,0.3c-0.33,0.2-0.59,0.49-0.77,0.86c-0.18,0.37-0.27,0.8-0.27,1.3
				L386.42,260.16z"/>
			<path class="st0" d="M396,263.1l3.67-3.43c0.37-0.35,0.65-0.68,0.81-1s0.25-0.66,0.25-1.02c0-0.34-0.08-0.65-0.24-0.91
				s-0.38-0.47-0.66-0.62c-0.28-0.15-0.61-0.22-0.97-0.22c-0.39,0-0.74,0.08-1.05,0.25c-0.31,0.17-0.55,0.4-0.72,0.7
				c-0.17,0.3-0.26,0.64-0.26,1.02h-1.07c0-0.55,0.14-1.05,0.41-1.5c0.27-0.45,0.65-0.8,1.12-1.05c0.48-0.26,1.01-0.38,1.59-0.38
				c0.55,0,1.05,0.11,1.5,0.34c0.45,0.23,0.8,0.54,1.06,0.95c0.26,0.4,0.39,0.85,0.39,1.35c0,0.48-0.13,0.95-0.38,1.4
				c-0.25,0.45-0.65,0.94-1.21,1.46l-2.76,2.6h4.61v0.99H396V263.1z"/>
		</g>
	</g>
</g>
</svg>
