<?xml version="1.0" encoding="utf-8"?>
<!-- Generator: Adobe Illustrator 27.5.0, SVG Export Plug-In . SVG Version: 6.00 Build 0)  -->
<svg version="1.1" id="Layer_1" xmlns="http://www.w3.org/2000/svg" xmlns:xlink="http://www.w3.org/1999/xlink" x="0px" y="0px"
	 viewBox="0 0 700 395" style="enable-background:new 0 0 700 395;" xml:space="preserve">
<style type="text/css">
	.st0{fill:#FFFFFF;}
	.st1{fill:none;stroke:#000000;stroke-width:0.5469;stroke-miterlimit:10;}
	.st2{fill:#F2F2F2;}
	.st3{fill:none;stroke:#595959;stroke-width:0.5469;stroke-miterlimit:10;}
	.st4{fill:url(#SVGID_1_);}
	.st5{fill:url(#SVGID_00000031171138912588807220000018349712309701872309_);}
	.st6{fill:url(#SVGID_00000003096153818024206300000010957312587030880696_);}
	.st7{fill:#595959;}
	.st8{fill:url(#SVGID_00000134214148663156493090000016771563705665789068_);}
	.st9{fill:url(#SVGID_00000108274967972121032810000013823499360525949615_);}
	.st10{fill:url(#SVGID_00000110466379746013068550000007860368516747396268_);}
	.st11{fill:url(#SVGID_00000103955626718597109790000013599458637343764616_);}
	.st12{fill:url(#SVGID_00000028284973445230577240000000059170107326071205_);}
	.st13{fill:url(#SVGID_00000155115474949396109060000001100694823526977956_);}
	.st14{fill:url(#SVGID_00000058559747555903696240000003460391638660857746_);}
	.st15{fill:url(#SVGID_00000166634252100782152370000013115152939772083089_);}
	.st16{fill:url(#SVGID_00000140010154440350947690000001742260520801133503_);}
	.st17{fill:url(#SVGID_00000081614285720750167860000002264811495477363074_);}
	.st18{fill:url(#SVGID_00000107578331051775543480000004673560518688820115_);}
	.st19{fill:none;stroke:#000000;stroke-width:0.5469;stroke-miterlimit:10;stroke-dasharray:1.5,2.5,1.5,2.5,1.5,2.5;}
	.st20{fill:url(#SVGID_00000082329426650362991350000010116949094261402022_);}
	.st21{fill:url(#SVGID_00000084509516629904138380000007890449117086317500_);}
	.st22{fill:url(#SVGID_00000058578126870400196500000008537088105140095414_);}
	.st23{fill:url(#SVGID_00000038378087984324484390000005658278766607894952_);}
	.st24{fill:url(#SVGID_00000058576072282504958570000010368016098404387231_);}
	.st25{fill:url(#SVGID_00000095307558156539466360000018390362620007302561_);}
	.st26{fill:url(#SVGID_00000181808658923116770960000001645545788308674743_);}
	.st27{fill:url(#SVGID_00000143614720290711560430000009057342231197872802_);}
	.st28{fill:url(#SVGID_00000117660694124135970000000006183993273219090605_);}
	.st29{fill:url(#SVGID_00000007414221981515599020000000163842852224483969_);}
	.st30{fill:url(#SVGID_00000116232385370897341340000013588031256063277468_);}
	.st31{fill:url(#SVGID_00000036214828058263994080000018166786511382447254_);}
	.st32{fill:url(#SVGID_00000047052020799582427960000006641188986775132854_);}
	.st33{fill:url(#SVGID_00000034801396521405165350000001027527715276395186_);}
	.st34{fill:url(#SVGID_00000026122386050739335440000015441112464912048551_);}
	.st35{fill:url(#SVGID_00000106107489764024743370000008044103779923455405_);}
	.st36{fill:url(#SVGID_00000057856008663874131630000001591881283554525588_);}
	.st37{fill:url(#SVGID_00000175317923487237599310000018136342962497450413_);}
	.st38{fill:url(#SVGID_00000070824445038711956810000008285863794800435609_);}
	.st39{fill:url(#SVGID_00000106832926583376423740000001436340060217440445_);}
	.st40{fill:url(#SVGID_00000083076139566552378180000018240691803486424225_);}
	.st41{fill:url(#SVGID_00000088841731967701696060000009725688350233797525_);}
	.st42{fill:#7F52FF;}
	.st43{opacity:0.35;}
	.st44{fill:url(#SVGID_00000147195896854076319040000000342153746153019565_);}
	.st45{fill:none;stroke:#000000;stroke-width:0.4423;stroke-miterlimit:10;}
</style>
<rect class="st0" width="700" height="395"/>
<g>
	<path class="st1" d="M256.13,247.15l-91.93,0c-8.05,0-14.58-6.53-14.58-14.58l0-45.76"/>
	<path class="st1" d="M443.93,247.15l91.93,0c8.05,0,14.58-6.53,14.58-14.58l0-45.76"/>
	<path class="st1" d="M256.13,247.15l-91.93,0c-8.05,0-14.58-6.53-14.58-14.58l0-45.76"/>
	<g>
		<g>
			<g>
				<g>
					<g>
						<radialGradient id="SVGID_1_" cx="251.2228" cy="274.1587" r="191.567" gradientUnits="userSpaceOnUse">
							<stop  offset="0" style="stop-color:#EB4857"/>
							<stop  offset="0.5" style="stop-color:#C611E0"/>
							<stop  offset="1" style="stop-color:#7F52FF"/>
						</radialGradient>
						<path class="st4" d="M437.34,220.92H262.71c-6.04,0-10.94,4.9-10.94,10.94v30.58c0,6.04,4.9,10.94,10.94,10.94h174.64
							c6.04,0,10.94-4.9,10.94-10.94v-30.58C448.28,225.82,443.38,220.92,437.34,220.92z"/>
					</g>
				</g>
			</g>
			<g>
				<g>
					<path class="st0" d="M291.29,234.47h1.02v4.19l4.19-4.19h1.39l-4.33,4.31l4.41,4.62h-1.43l-4.22-4.42v4.42h-1.02V234.47z"/>
					<path class="st0" d="M299.85,243.11c-0.51-0.3-0.91-0.7-1.2-1.23c-0.29-0.52-0.44-1.1-0.44-1.75s0.15-1.23,0.44-1.75
						c0.29-0.52,0.69-0.93,1.2-1.23c0.51-0.3,1.08-0.44,1.7-0.44s1.18,0.15,1.69,0.44c0.51,0.3,0.91,0.7,1.2,1.22
						c0.29,0.52,0.44,1.1,0.44,1.75c0,0.65-0.15,1.24-0.44,1.75s-0.69,0.93-1.2,1.22s-1.07,0.44-1.7,0.44
						C300.93,243.56,300.36,243.41,299.85,243.11z M302.71,242.31c0.34-0.21,0.61-0.5,0.8-0.88c0.2-0.38,0.29-0.81,0.29-1.3
						s-0.1-0.92-0.29-1.3c-0.2-0.38-0.46-0.67-0.81-0.88s-0.73-0.31-1.15-0.31c-0.43,0-0.81,0.1-1.16,0.31
						c-0.34,0.21-0.62,0.5-0.81,0.88c-0.2,0.38-0.3,0.81-0.3,1.3s0.1,0.92,0.3,1.3c0.2,0.38,0.47,0.67,0.82,0.88
						c0.35,0.21,0.73,0.31,1.16,0.31C301.99,242.62,302.37,242.52,302.71,242.31z"/>
					<path class="st0" d="M307.81,243.2c-0.25-0.13-0.45-0.32-0.6-0.56c-0.14-0.24-0.22-0.5-0.22-0.79l-0.01-4.08h-1.15l0.01-0.91
						h0.71c0.16,0,0.29-0.05,0.39-0.15s0.15-0.23,0.15-0.39v-1.05h0.92v1.6h1.58l-0.01,0.91h-1.58l0.01,4.02
						c0,0.2,0.07,0.37,0.2,0.5c0.13,0.13,0.3,0.2,0.5,0.2h0.87v0.91h-0.93C308.34,243.4,308.06,243.34,307.81,243.2z"/>
					<path class="st0" d="M311.36,234.47h1.02v8.93h-1.02V234.47z"/>
					<path class="st0" d="M315.72,234.47v1.21h-1.2v-1.21H315.72z M314.61,236.87h1.02v6.53h-1.02V236.87z"/>
					<path class="st0" d="M317.87,236.87h0.98v2.83h-0.41c0-0.6,0.1-1.13,0.31-1.58c0.21-0.45,0.51-0.79,0.89-1.04
						c0.39-0.24,0.84-0.36,1.37-0.36c0.47,0,0.88,0.1,1.24,0.3c0.36,0.2,0.65,0.49,0.85,0.88c0.21,0.39,0.31,0.86,0.31,1.4v4.1
						h-1.02v-4c0-0.38-0.07-0.7-0.2-0.97s-0.32-0.47-0.57-0.61c-0.25-0.14-0.54-0.21-0.88-0.21c-0.37,0-0.69,0.08-0.97,0.24
						c-0.28,0.16-0.5,0.39-0.65,0.68c-0.16,0.29-0.23,0.62-0.23,1v3.87h-1.02V236.87z"/>
					<path class="st0" d="M328.87,234.47h1.32l3.2,7.16l0.17,0.45l0.16-0.45l3.15-7.16h1.35v8.93h-1.06v-7.06v-0.17L334,243.4h-0.89
						l-3.18-7.18v0.13v7.06h-1.05V234.47z"/>
					<path class="st0" d="M346.06,243.4h-0.98v-2.83h0.41c0,0.6-0.1,1.13-0.31,1.58c-0.21,0.45-0.51,0.79-0.89,1.04
						c-0.39,0.24-0.84,0.36-1.37,0.36c-0.47,0-0.88-0.1-1.24-0.3c-0.36-0.2-0.65-0.49-0.85-0.88c-0.21-0.39-0.31-0.86-0.31-1.4v-4.1
						h1.02v4c0,0.38,0.07,0.7,0.2,0.97c0.13,0.27,0.33,0.47,0.57,0.61c0.25,0.14,0.54,0.21,0.88,0.21c0.37,0,0.69-0.08,0.97-0.24
						c0.28-0.16,0.5-0.39,0.65-0.68c0.15-0.29,0.23-0.62,0.23-1v-3.87h1.02V243.4z"/>
					<path class="st0" d="M348.29,234.47h1.02v8.93h-1.02V234.47z"/>
					<path class="st0" d="M352.8,243.2c-0.25-0.13-0.45-0.32-0.6-0.56c-0.14-0.24-0.22-0.5-0.22-0.79l-0.01-4.08h-1.15l0.01-0.91
						h0.71c0.16,0,0.29-0.05,0.39-0.15s0.15-0.23,0.15-0.39v-1.05h0.92v1.6h1.58l-0.01,0.91H353l0.01,4.02c0,0.2,0.07,0.37,0.2,0.5
						c0.13,0.13,0.3,0.2,0.5,0.2h0.87v0.91h-0.93C353.34,243.4,353.05,243.34,352.8,243.2z"/>
					<path class="st0" d="M357.46,234.47v1.21h-1.2v-1.21H357.46z M356.35,236.87h1.02v6.53h-1.02V236.87z"/>
					<path class="st0" d="M360.6,236.87v1.28h0.03v7.31h-1.02v-8.59H360.6z M361.55,243.18c-0.43-0.25-0.76-0.6-1-1.05
						s-0.36-0.97-0.37-1.56h0.42v-0.88h-0.42c0.01-0.59,0.13-1.11,0.37-1.56s0.58-0.8,1-1.05c0.43-0.25,0.93-0.37,1.49-0.37
						c0.61,0,1.15,0.14,1.62,0.43c0.47,0.29,0.84,0.69,1.11,1.21s0.4,1.11,0.4,1.78c0,0.67-0.13,1.26-0.4,1.78s-0.64,0.92-1.11,1.21
						c-0.47,0.29-1.01,0.43-1.62,0.43C362.47,243.56,361.98,243.43,361.55,243.18z M364.03,242.31c0.34-0.21,0.6-0.5,0.79-0.88
						c0.19-0.38,0.28-0.81,0.28-1.3s-0.09-0.92-0.28-1.3c-0.19-0.38-0.45-0.67-0.79-0.88s-0.72-0.32-1.16-0.32
						c-0.44,0-0.83,0.11-1.17,0.32c-0.34,0.21-0.61,0.5-0.79,0.88c-0.19,0.38-0.28,0.81-0.28,1.3s0.09,0.92,0.28,1.3
						c0.19,0.38,0.45,0.67,0.79,0.88c0.34,0.21,0.73,0.32,1.17,0.32C363.31,242.63,363.69,242.53,364.03,242.31z"/>
					<path class="st0" d="M367.84,234.47h1.02v8.93h-1.02V234.47z"/>
					<path class="st0" d="M374.7,236.99c0.37,0.18,0.66,0.44,0.87,0.79c0.21,0.35,0.31,0.76,0.31,1.23v4.39h-1v-2.44h0.27
						c0,0.54-0.09,1.01-0.28,1.4s-0.46,0.69-0.8,0.89s-0.76,0.31-1.24,0.31c-0.42,0-0.79-0.08-1.13-0.24s-0.6-0.39-0.79-0.67
						c-0.19-0.29-0.29-0.61-0.29-0.97c0-0.34,0.09-0.65,0.26-0.94c0.18-0.29,0.42-0.52,0.73-0.7c0.31-0.18,0.66-0.3,1.06-0.34
						l1.74-0.19c0.14-0.02,0.26-0.08,0.34-0.18s0.12-0.25,0.12-0.45l0.08,1.34l-2.14,0.24c-0.22,0.03-0.42,0.09-0.59,0.2
						c-0.17,0.11-0.31,0.24-0.4,0.41c-0.1,0.17-0.14,0.36-0.14,0.56c0,0.22,0.06,0.42,0.18,0.59c0.12,0.17,0.28,0.3,0.49,0.4
						c0.21,0.1,0.45,0.14,0.71,0.14c0.37,0,0.69-0.07,0.96-0.22c0.27-0.15,0.49-0.36,0.63-0.63c0.15-0.27,0.22-0.58,0.22-0.94v-2.08
						c0-0.26-0.06-0.49-0.18-0.69c-0.12-0.2-0.3-0.35-0.52-0.46s-0.48-0.16-0.78-0.16c-0.29,0-0.56,0.05-0.79,0.15
						c-0.23,0.1-0.42,0.23-0.56,0.4s-0.23,0.35-0.26,0.55h-1.02c0.05-0.37,0.2-0.7,0.44-1c0.24-0.3,0.55-0.53,0.93-0.7
						c0.38-0.17,0.81-0.25,1.27-0.25C373.89,236.72,374.33,236.81,374.7,236.99z"/>
					<path class="st0" d="M379.18,243.2c-0.25-0.13-0.45-0.32-0.6-0.56c-0.14-0.24-0.22-0.5-0.22-0.79l-0.01-4.08h-1.15l0.01-0.91
						h0.71c0.16,0,0.29-0.05,0.39-0.15s0.15-0.23,0.15-0.39v-1.05h0.92v1.6h1.58l-0.01,0.91h-1.58l0.01,4.02
						c0,0.2,0.07,0.37,0.2,0.5c0.13,0.13,0.3,0.2,0.5,0.2h0.87v0.91h-0.93C379.71,243.4,379.43,243.34,379.18,243.2z"/>
					<path class="st0" d="M383.24,237.78h-1.15v-0.91h1.15v-0.86c0-0.3,0.07-0.57,0.21-0.8c0.14-0.23,0.34-0.42,0.59-0.55
						s0.54-0.19,0.86-0.19h1.05v0.91h-0.98c-0.21,0-0.38,0.06-0.51,0.19c-0.13,0.13-0.2,0.3-0.2,0.51v0.79h1.62v0.91h-1.62v5.63
						h-1.02V237.78z"/>
					<path class="st0" d="M388.38,243.11c-0.51-0.3-0.91-0.7-1.2-1.23c-0.29-0.52-0.44-1.1-0.44-1.75s0.15-1.23,0.44-1.75
						c0.29-0.52,0.69-0.93,1.2-1.23c0.51-0.3,1.08-0.44,1.7-0.44s1.18,0.15,1.69,0.44c0.51,0.3,0.91,0.7,1.2,1.22
						c0.29,0.52,0.44,1.1,0.44,1.75c0,0.65-0.15,1.24-0.44,1.75s-0.69,0.93-1.2,1.22s-1.07,0.44-1.7,0.44
						C389.45,243.56,388.89,243.41,388.38,243.11z M391.23,242.31c0.34-0.21,0.61-0.5,0.8-0.88c0.2-0.38,0.29-0.81,0.29-1.3
						s-0.1-0.92-0.29-1.3c-0.2-0.38-0.46-0.67-0.81-0.88s-0.73-0.31-1.15-0.31c-0.43,0-0.81,0.1-1.16,0.31
						c-0.34,0.21-0.62,0.5-0.81,0.88c-0.2,0.38-0.3,0.81-0.3,1.3s0.1,0.92,0.3,1.3c0.2,0.38,0.47,0.67,0.82,0.88
						c0.35,0.21,0.73,0.31,1.16,0.31C390.51,242.62,390.89,242.52,391.23,242.31z"/>
					<path class="st0" d="M395.08,236.87h1.02v2.19l-0.43,0.64c0.02-0.59,0.12-1.1,0.32-1.53c0.2-0.44,0.47-0.77,0.83-1
						c0.35-0.23,0.76-0.35,1.23-0.35h0.23v1.07h-0.27c-0.39,0-0.73,0.07-1.01,0.22c-0.29,0.15-0.51,0.36-0.67,0.63
						s-0.23,0.6-0.23,0.97v3.71h-1.02V236.87z"/>
					<path class="st0" d="M399.64,236.87h0.98v2.83h-0.34c0-0.61,0.09-1.14,0.28-1.59c0.19-0.45,0.46-0.79,0.82-1.03
						s0.78-0.36,1.28-0.36c0.46,0,0.87,0.11,1.22,0.32c0.35,0.21,0.62,0.51,0.81,0.9c0.19,0.39,0.29,0.84,0.29,1.35v4.12h-1.02
						v-4.08c0-0.36-0.06-0.67-0.18-0.93s-0.3-0.46-0.53-0.6c-0.23-0.14-0.51-0.21-0.83-0.21c-0.35,0-0.66,0.08-0.93,0.24
						c-0.26,0.16-0.47,0.38-0.61,0.68c-0.14,0.29-0.21,0.64-0.21,1.03v3.87h-1.02V236.87z M408.09,238.4
						c-0.12-0.26-0.3-0.46-0.53-0.6c-0.23-0.14-0.51-0.21-0.84-0.21c-0.35,0-0.65,0.08-0.92,0.24c-0.26,0.16-0.47,0.39-0.61,0.68
						c-0.14,0.29-0.22,0.63-0.22,1.03l-0.57,0.17c0-0.59,0.1-1.11,0.31-1.56c0.2-0.45,0.5-0.8,0.88-1.05
						c0.38-0.25,0.82-0.37,1.33-0.37c0.46,0,0.88,0.11,1.24,0.32c0.36,0.21,0.64,0.51,0.84,0.9c0.2,0.39,0.3,0.84,0.3,1.35v4.12
						h-1.02v-4.08C408.27,238.97,408.21,238.66,408.09,238.4z"/>
					<path class="st0" d="M307.14,259.73c-0.4-0.16-0.71-0.38-0.95-0.66c-0.24-0.28-0.36-0.6-0.38-0.96h1.04
						c0.02,0.2,0.1,0.37,0.24,0.53s0.34,0.28,0.57,0.37s0.5,0.13,0.8,0.13c0.3,0,0.56-0.05,0.79-0.15c0.23-0.1,0.4-0.23,0.53-0.41
						c0.12-0.17,0.19-0.37,0.19-0.59c0-0.16-0.03-0.3-0.09-0.43s-0.15-0.23-0.26-0.32c-0.11-0.08-0.25-0.14-0.41-0.17l-1.58-0.29
						c-0.33-0.06-0.62-0.17-0.86-0.33s-0.42-0.37-0.55-0.62c-0.13-0.25-0.19-0.53-0.19-0.85c0-0.34,0.1-0.66,0.3-0.94
						c0.2-0.28,0.47-0.51,0.83-0.67c0.36-0.17,0.77-0.25,1.23-0.25c0.46,0,0.87,0.07,1.23,0.22c0.37,0.15,0.66,0.36,0.87,0.62
						s0.33,0.56,0.35,0.88h-1.04c-0.01-0.17-0.08-0.32-0.21-0.46c-0.13-0.14-0.29-0.24-0.5-0.32c-0.21-0.08-0.44-0.12-0.7-0.12
						c-0.26,0-0.5,0.04-0.7,0.13c-0.21,0.09-0.36,0.21-0.48,0.37c-0.11,0.16-0.17,0.33-0.17,0.53c0,0.15,0.03,0.28,0.08,0.39
						c0.05,0.11,0.13,0.21,0.24,0.28c0.11,0.07,0.24,0.13,0.4,0.16l1.61,0.29c0.33,0.06,0.62,0.18,0.86,0.35
						c0.24,0.17,0.42,0.39,0.55,0.65c0.12,0.26,0.19,0.54,0.19,0.85c0,0.38-0.11,0.73-0.33,1.03c-0.22,0.31-0.52,0.55-0.9,0.72
						c-0.38,0.17-0.81,0.26-1.28,0.26C307.98,259.96,307.53,259.88,307.14,259.73z"/>
					<path class="st0" d="M312.71,250.88h0.98v2.06v1.16v2h-0.41c0-0.6,0.1-1.13,0.31-1.58c0.21-0.45,0.51-0.79,0.89-1.04
						c0.39-0.24,0.84-0.36,1.37-0.36c0.47,0,0.88,0.1,1.24,0.3c0.36,0.2,0.65,0.49,0.85,0.88c0.21,0.39,0.31,0.86,0.31,1.4v4.1
						h-1.02v-4c0-0.38-0.07-0.7-0.2-0.97s-0.32-0.47-0.57-0.61c-0.25-0.14-0.54-0.21-0.88-0.21c-0.37,0-0.69,0.08-0.97,0.24
						c-0.28,0.16-0.5,0.39-0.65,0.68c-0.16,0.29-0.23,0.62-0.23,1v3.87h-1.02V250.88z"/>
					<path class="st0" d="M323.91,253.39c0.37,0.18,0.66,0.44,0.87,0.79c0.21,0.35,0.31,0.76,0.31,1.23v4.39h-1v-2.44h0.27
						c0,0.54-0.09,1.01-0.28,1.4s-0.46,0.69-0.8,0.89s-0.76,0.31-1.24,0.31c-0.42,0-0.79-0.08-1.13-0.24s-0.6-0.39-0.79-0.67
						c-0.19-0.29-0.29-0.61-0.29-0.97c0-0.34,0.09-0.65,0.26-0.94c0.18-0.29,0.42-0.52,0.73-0.7c0.31-0.18,0.66-0.3,1.06-0.34
						l1.74-0.19c0.14-0.02,0.26-0.08,0.34-0.18s0.12-0.25,0.12-0.45l0.08,1.34l-2.14,0.24c-0.22,0.03-0.42,0.09-0.59,0.2
						c-0.17,0.11-0.31,0.24-0.4,0.41c-0.1,0.17-0.14,0.36-0.14,0.56c0,0.22,0.06,0.42,0.18,0.59c0.12,0.17,0.28,0.3,0.49,0.4
						c0.21,0.1,0.45,0.14,0.71,0.14c0.37,0,0.69-0.07,0.96-0.22c0.27-0.15,0.49-0.36,0.63-0.63c0.15-0.27,0.22-0.58,0.22-0.94v-2.08
						c0-0.26-0.06-0.49-0.18-0.69c-0.12-0.2-0.3-0.35-0.52-0.46s-0.48-0.16-0.78-0.16c-0.29,0-0.56,0.05-0.79,0.15
						c-0.23,0.1-0.42,0.23-0.56,0.4s-0.23,0.35-0.26,0.55h-1.02c0.05-0.37,0.2-0.7,0.44-1c0.24-0.3,0.55-0.53,0.93-0.7
						c0.38-0.17,0.81-0.25,1.27-0.25C323.1,253.12,323.53,253.21,323.91,253.39z"/>
					<path class="st0" d="M327.13,253.28h1.02v2.19l-0.43,0.64c0.02-0.59,0.12-1.1,0.32-1.53c0.2-0.44,0.47-0.77,0.83-1
						c0.35-0.23,0.76-0.35,1.23-0.35h0.23v1.07h-0.27c-0.39,0-0.73,0.07-1.01,0.22c-0.29,0.15-0.51,0.36-0.67,0.63
						s-0.23,0.6-0.23,0.97v3.71h-1.02V253.28z"/>
					<path class="st0" d="M332.69,259.52c-0.49-0.29-0.87-0.7-1.15-1.22c-0.27-0.52-0.41-1.11-0.41-1.77c0-0.64,0.14-1.22,0.42-1.74
						c0.28-0.52,0.66-0.93,1.15-1.22c0.49-0.3,1.04-0.44,1.64-0.44c0.62,0,1.16,0.15,1.62,0.44c0.47,0.29,0.83,0.7,1.08,1.22
						s0.38,1.11,0.38,1.76v0.25h-5.28l0.01-0.28c0,0.49,0.1,0.93,0.3,1.32c0.19,0.39,0.46,0.69,0.8,0.91
						c0.34,0.22,0.72,0.33,1.15,0.33c0.28,0,0.55-0.04,0.79-0.11c0.24-0.07,0.46-0.17,0.64-0.31c0.18-0.13,0.32-0.29,0.42-0.47h1.02
						c-0.08,0.27-0.24,0.54-0.48,0.82c-0.24,0.27-0.58,0.5-1,0.68c-0.42,0.18-0.91,0.27-1.46,0.27
						C333.73,259.96,333.18,259.82,332.69,259.52z M332.15,255.95h4.25v0.58c0-0.5-0.08-0.94-0.24-1.32s-0.39-0.67-0.7-0.88
						c-0.31-0.21-0.68-0.31-1.11-0.31c-0.43,0-0.82,0.1-1.15,0.3c-0.33,0.2-0.59,0.49-0.77,0.86c-0.18,0.37-0.27,0.81-0.27,1.3
						L332.15,255.95z"/>
					<path class="st0" d="M340.06,259.53c-0.47-0.29-0.84-0.69-1.11-1.21s-0.4-1.11-0.4-1.78c0-0.67,0.13-1.26,0.4-1.78
						s0.64-0.92,1.11-1.21s1.02-0.43,1.62-0.43c0.56,0,1.06,0.12,1.49,0.37c0.43,0.25,0.76,0.6,1,1.05s0.36,0.97,0.37,1.56h-0.42
						v0.88h0.42c-0.01,0.59-0.13,1.11-0.37,1.56s-0.58,0.8-1,1.05c-0.43,0.25-0.92,0.37-1.49,0.37
						C341.07,259.96,340.53,259.82,340.06,259.53z M343.01,258.72c0.34-0.21,0.6-0.5,0.79-0.88s0.28-0.81,0.28-1.3
						s-0.09-0.92-0.28-1.3c-0.19-0.38-0.45-0.67-0.79-0.88c-0.34-0.21-0.73-0.32-1.17-0.32c-0.43,0-0.82,0.11-1.15,0.32
						c-0.34,0.21-0.6,0.5-0.79,0.88c-0.19,0.38-0.28,0.81-0.28,1.3s0.09,0.92,0.28,1.3s0.45,0.67,0.79,0.88
						c0.34,0.21,0.72,0.32,1.15,0.32C342.28,259.04,342.67,258.93,343.01,258.72z M344.07,250.88h1.02v8.93h-1.02V250.88z"/>
					<path class="st0" d="M350.38,253.28h0.98v2.83h-0.34c0-0.61,0.09-1.14,0.28-1.59c0.19-0.45,0.46-0.79,0.82-1.03
						s0.78-0.36,1.28-0.36c0.46,0,0.87,0.11,1.22,0.32c0.35,0.21,0.62,0.51,0.81,0.9c0.19,0.39,0.29,0.84,0.29,1.35v4.12h-1.02
						v-4.08c0-0.36-0.06-0.67-0.18-0.93s-0.3-0.46-0.53-0.6c-0.23-0.14-0.51-0.21-0.83-0.21c-0.35,0-0.66,0.08-0.93,0.24
						c-0.26,0.16-0.47,0.38-0.61,0.68c-0.14,0.29-0.21,0.64-0.21,1.03v3.87h-1.02V253.28z M358.83,254.8
						c-0.12-0.26-0.3-0.46-0.53-0.6c-0.23-0.14-0.51-0.21-0.84-0.21c-0.35,0-0.65,0.08-0.92,0.24c-0.26,0.16-0.47,0.39-0.61,0.68
						c-0.14,0.29-0.22,0.63-0.22,1.03l-0.57,0.17c0-0.59,0.1-1.11,0.31-1.56c0.2-0.45,0.5-0.8,0.88-1.05
						c0.38-0.25,0.82-0.37,1.33-0.37c0.46,0,0.88,0.11,1.24,0.32c0.36,0.21,0.64,0.51,0.84,0.9c0.2,0.39,0.3,0.84,0.3,1.35v4.12
						h-1.02v-4.08C359.01,255.37,358.95,255.07,358.83,254.8z"/>
					<path class="st0" d="M363.15,259.52c-0.51-0.3-0.91-0.7-1.2-1.23c-0.29-0.52-0.44-1.1-0.44-1.75c0-0.65,0.15-1.23,0.44-1.75
						c0.29-0.52,0.69-0.93,1.2-1.23c0.51-0.3,1.08-0.44,1.7-0.44s1.18,0.15,1.69,0.44c0.51,0.3,0.91,0.7,1.2,1.22
						c0.29,0.52,0.44,1.1,0.44,1.75c0,0.65-0.15,1.24-0.44,1.75s-0.69,0.93-1.2,1.22s-1.07,0.44-1.7,0.44
						C364.23,259.96,363.66,259.81,363.15,259.52z M366.01,258.72c0.34-0.21,0.61-0.5,0.8-0.88c0.2-0.38,0.29-0.81,0.29-1.3
						s-0.1-0.92-0.29-1.3c-0.2-0.38-0.46-0.67-0.81-0.88s-0.73-0.31-1.15-0.31c-0.43,0-0.81,0.1-1.16,0.31
						c-0.34,0.21-0.62,0.5-0.81,0.88c-0.2,0.38-0.3,0.81-0.3,1.3s0.1,0.92,0.3,1.3c0.2,0.38,0.47,0.67,0.82,0.88
						c0.35,0.21,0.73,0.31,1.16,0.31C365.29,259.03,365.67,258.93,366.01,258.72z"/>
					<path class="st0" d="M370.81,259.53c-0.47-0.29-0.84-0.69-1.11-1.21s-0.4-1.11-0.4-1.78c0-0.67,0.13-1.26,0.4-1.78
						s0.64-0.92,1.11-1.21s1.02-0.43,1.62-0.43c0.56,0,1.06,0.12,1.49,0.37c0.43,0.25,0.76,0.6,1,1.05s0.36,0.97,0.37,1.56h-0.42
						v0.88h0.42c-0.01,0.59-0.13,1.11-0.37,1.56s-0.58,0.8-1,1.05c-0.43,0.25-0.92,0.37-1.49,0.37
						C371.82,259.96,371.28,259.82,370.81,259.53z M373.76,258.72c0.34-0.21,0.6-0.5,0.79-0.88s0.28-0.81,0.28-1.3
						s-0.09-0.92-0.28-1.3c-0.19-0.38-0.45-0.67-0.79-0.88c-0.34-0.21-0.73-0.32-1.17-0.32c-0.43,0-0.82,0.11-1.15,0.32
						c-0.34,0.21-0.6,0.5-0.79,0.88c-0.19,0.38-0.28,0.81-0.28,1.3s0.09,0.92,0.28,1.3s0.45,0.67,0.79,0.88
						c0.34,0.21,0.72,0.32,1.15,0.32C373.03,259.04,373.42,258.93,373.76,258.72z M374.82,250.88h1.02v8.93h-1.02V250.88z"/>
					<path class="st0" d="M383.34,259.81h-0.98v-2.83h0.41c0,0.6-0.1,1.13-0.31,1.58c-0.21,0.45-0.51,0.79-0.89,1.04
						c-0.39,0.24-0.84,0.36-1.37,0.36c-0.47,0-0.88-0.1-1.24-0.3c-0.36-0.2-0.65-0.49-0.85-0.88c-0.21-0.39-0.31-0.86-0.31-1.4v-4.1
						h1.02v4c0,0.38,0.07,0.7,0.2,0.97c0.13,0.27,0.33,0.47,0.57,0.61c0.25,0.14,0.54,0.21,0.88,0.21c0.37,0,0.69-0.08,0.97-0.24
						c0.28-0.16,0.5-0.39,0.65-0.68c0.15-0.29,0.23-0.62,0.23-1v-3.87h1.02V259.81z"/>
					<path class="st0" d="M385.57,250.88h1.02v8.93h-1.02V250.88z"/>
					<path class="st0" d="M389.82,259.52c-0.49-0.29-0.87-0.7-1.15-1.22c-0.27-0.52-0.41-1.11-0.41-1.77c0-0.64,0.14-1.22,0.42-1.74
						c0.28-0.52,0.66-0.93,1.15-1.22c0.49-0.3,1.04-0.44,1.64-0.44c0.62,0,1.16,0.15,1.62,0.44c0.47,0.29,0.83,0.7,1.08,1.22
						s0.38,1.11,0.38,1.76v0.25h-5.28l0.01-0.28c0,0.49,0.1,0.93,0.3,1.32c0.19,0.39,0.46,0.69,0.8,0.91
						c0.34,0.22,0.72,0.33,1.15,0.33c0.28,0,0.55-0.04,0.79-0.11c0.24-0.07,0.46-0.17,0.64-0.31c0.18-0.13,0.32-0.29,0.42-0.47h1.02
						c-0.08,0.27-0.24,0.54-0.48,0.82c-0.24,0.27-0.58,0.5-1,0.68c-0.42,0.18-0.91,0.27-1.46,0.27
						C390.86,259.96,390.31,259.82,389.82,259.52z M389.28,255.95h4.25v0.58c0-0.5-0.08-0.94-0.24-1.32s-0.39-0.67-0.7-0.88
						c-0.31-0.21-0.68-0.31-1.11-0.31c-0.43,0-0.82,0.1-1.15,0.3c-0.33,0.2-0.59,0.49-0.77,0.86c-0.18,0.37-0.27,0.81-0.27,1.3
						L389.28,255.95z"/>
				</g>
			</g>
		</g>
		<g>
			<path class="st3" d="M638.29,111.49l-576.57,0c-8.05,0-14.58,6.53-14.58,14.58v142.84c0,8.05,6.53,14.58,14.58,14.58l576.57,0
				c8.05,0,14.58-6.53,14.58-14.58V126.08C652.87,118.02,646.34,111.49,638.29,111.49z"/>
			<g>
				<g>
					<path class="st7" d="M58.84,123.11h0.82v3.35l3.35-3.35h1.11l-3.47,3.45l3.53,3.7h-1.14l-3.38-3.53v3.53h-0.82V123.11z"/>
					<path class="st7" d="M65.49,130.03c-0.41-0.24-0.73-0.56-0.96-0.98s-0.35-0.88-0.35-1.4c0-0.52,0.12-0.98,0.35-1.4
						c0.23-0.42,0.55-0.74,0.96-0.98s0.86-0.35,1.36-0.35c0.5,0,0.95,0.12,1.35,0.35c0.4,0.24,0.72,0.56,0.96,0.98
						c0.23,0.42,0.35,0.88,0.35,1.4c0,0.52-0.12,0.99-0.35,1.4c-0.23,0.42-0.55,0.74-0.96,0.98c-0.41,0.24-0.86,0.35-1.36,0.35
						C66.35,130.38,65.89,130.26,65.49,130.03z M67.77,129.39c0.27-0.17,0.49-0.4,0.64-0.7c0.16-0.3,0.24-0.65,0.24-1.04
						c0-0.39-0.08-0.74-0.24-1.04s-0.37-0.54-0.65-0.7c-0.27-0.17-0.58-0.25-0.92-0.25c-0.34,0-0.65,0.08-0.92,0.25
						c-0.28,0.17-0.49,0.4-0.65,0.7s-0.24,0.65-0.24,1.04c0,0.39,0.08,0.74,0.24,1.04c0.16,0.3,0.38,0.54,0.65,0.7
						s0.59,0.25,0.93,0.25C67.19,129.64,67.5,129.55,67.77,129.39z"/>
					<path class="st7" d="M71.65,130.1c-0.2-0.11-0.36-0.26-0.48-0.44c-0.12-0.19-0.17-0.4-0.17-0.63l0-3.27h-0.92l0.01-0.73h0.57
						c0.13,0,0.23-0.04,0.31-0.12c0.08-0.08,0.12-0.19,0.12-0.31v-0.84h0.74v1.28h1.26l-0.01,0.73h-1.26l0.01,3.22
						c0,0.16,0.05,0.29,0.16,0.4c0.11,0.11,0.24,0.16,0.4,0.16h0.69v0.72h-0.75C72.08,130.26,71.85,130.21,71.65,130.1z"/>
					<path class="st7" d="M74.28,123.11h0.82v7.15h-0.82V123.11z"/>
					<path class="st7" d="M77.57,123.11v0.97h-0.96v-0.97H77.57z M76.68,125.03h0.82v5.23h-0.82V125.03z"/>
					<path class="st7" d="M79.08,125.03h0.79v2.26h-0.33c0-0.48,0.08-0.9,0.25-1.26s0.41-0.64,0.71-0.83s0.67-0.29,1.09-0.29
						c0.38,0,0.71,0.08,1,0.24c0.29,0.16,0.52,0.4,0.68,0.71c0.17,0.31,0.25,0.69,0.25,1.12v3.28h-0.82v-3.2
						c0-0.3-0.05-0.56-0.16-0.78s-0.26-0.38-0.46-0.49s-0.43-0.17-0.7-0.17c-0.29,0-0.55,0.06-0.78,0.19s-0.4,0.31-0.52,0.54
						c-0.12,0.23-0.19,0.5-0.19,0.8v3.1h-0.82V125.03z"/>
					<path class="st7" d="M87.48,123.11h1.06l2.56,5.73l0.13,0.36l0.13-0.36l2.52-5.73h1.08v7.15H94.1v-5.65v-0.13l-2.53,5.78h-0.71
						l-2.55-5.75v0.1v5.65h-0.84V123.11z"/>
					<path class="st7" d="M101.02,130.26h-0.79V128h0.33c0,0.48-0.08,0.9-0.25,1.26c-0.17,0.36-0.41,0.64-0.71,0.83
						c-0.31,0.19-0.67,0.29-1.09,0.29c-0.37,0-0.71-0.08-1-0.24s-0.52-0.4-0.68-0.71c-0.17-0.31-0.25-0.68-0.25-1.12v-3.28h0.82v3.2
						c0,0.3,0.05,0.56,0.16,0.78c0.11,0.21,0.26,0.38,0.46,0.49c0.2,0.11,0.43,0.17,0.7,0.17c0.29,0,0.55-0.06,0.78-0.19
						s0.4-0.31,0.52-0.54c0.12-0.23,0.19-0.5,0.19-0.8v-3.1h0.82V130.26z"/>
					<path class="st7" d="M102.61,123.11h0.82v7.15h-0.82V123.11z"/>
					<path class="st7" d="M106.01,130.1c-0.2-0.11-0.36-0.26-0.48-0.44c-0.12-0.19-0.17-0.4-0.17-0.63l0-3.27h-0.92l0.01-0.73H105
						c0.13,0,0.23-0.04,0.31-0.12c0.08-0.08,0.12-0.19,0.12-0.31v-0.84h0.74v1.28h1.26l-0.01,0.73h-1.26l0.01,3.22
						c0,0.16,0.05,0.29,0.16,0.4c0.11,0.11,0.24,0.16,0.4,0.16h0.69v0.72h-0.75C106.43,130.26,106.21,130.21,106.01,130.1z"/>
					<path class="st7" d="M109.53,123.11v0.97h-0.96v-0.97H109.53z M108.64,125.03h0.82v5.23h-0.82V125.03z"/>
					<path class="st7" d="M111.84,125.03v1.02h0.02v5.85h-0.82v-6.87H111.84z M112.59,130.08c-0.34-0.2-0.61-0.48-0.8-0.84
						c-0.19-0.36-0.29-0.78-0.3-1.25h0.34v-0.7h-0.34c0.01-0.47,0.11-0.89,0.3-1.25s0.46-0.64,0.8-0.84c0.34-0.2,0.74-0.3,1.19-0.3
						c0.49,0,0.92,0.11,1.3,0.34c0.38,0.23,0.67,0.55,0.89,0.97s0.32,0.89,0.32,1.42c0,0.53-0.11,1.01-0.32,1.42
						s-0.51,0.74-0.89,0.97c-0.38,0.23-0.81,0.34-1.3,0.34C113.33,130.38,112.94,130.28,112.59,130.08z M114.58,129.39
						c0.27-0.17,0.48-0.4,0.63-0.7c0.15-0.3,0.22-0.65,0.22-1.04c0-0.39-0.08-0.74-0.22-1.04c-0.15-0.3-0.36-0.54-0.63-0.7
						c-0.27-0.17-0.58-0.25-0.92-0.25c-0.35,0-0.66,0.08-0.93,0.25c-0.27,0.17-0.48,0.4-0.63,0.7c-0.15,0.3-0.23,0.65-0.23,1.04
						c0,0.39,0.08,0.74,0.23,1.04c0.15,0.3,0.36,0.54,0.63,0.7s0.58,0.25,0.93,0.25C114,129.64,114.31,129.56,114.58,129.39z"/>
					<path class="st7" d="M117.43,123.11h0.82v7.15h-0.82V123.11z"/>
					<path class="st7" d="M122.71,125.13c0.3,0.14,0.53,0.36,0.7,0.63s0.25,0.61,0.25,0.99v3.51h-0.8v-1.95h0.21
						c0,0.44-0.08,0.81-0.22,1.12c-0.15,0.31-0.36,0.55-0.64,0.71c-0.28,0.16-0.61,0.25-1,0.25c-0.33,0-0.63-0.06-0.9-0.19
						c-0.27-0.13-0.48-0.31-0.63-0.54c-0.15-0.23-0.23-0.49-0.23-0.78c0-0.27,0.07-0.52,0.21-0.75c0.14-0.23,0.34-0.42,0.59-0.56
						c0.25-0.15,0.53-0.24,0.84-0.27l1.39-0.15c0.12-0.01,0.21-0.06,0.27-0.14c0.06-0.08,0.1-0.2,0.1-0.36l0.06,1.07l-1.71,0.19
						c-0.18,0.02-0.33,0.07-0.47,0.16c-0.14,0.08-0.25,0.2-0.32,0.33c-0.08,0.14-0.12,0.29-0.12,0.45c0,0.18,0.05,0.33,0.14,0.47
						c0.09,0.14,0.22,0.24,0.39,0.32c0.17,0.08,0.36,0.12,0.57,0.12c0.29,0,0.55-0.06,0.77-0.18s0.39-0.29,0.51-0.5
						c0.12-0.22,0.18-0.46,0.18-0.75v-1.66c0-0.21-0.05-0.39-0.15-0.55c-0.1-0.16-0.24-0.28-0.42-0.37
						c-0.18-0.09-0.38-0.13-0.62-0.13c-0.23,0-0.45,0.04-0.63,0.12s-0.34,0.19-0.45,0.32c-0.11,0.13-0.18,0.28-0.21,0.44h-0.82
						c0.04-0.3,0.16-0.56,0.35-0.8c0.19-0.24,0.44-0.42,0.75-0.56c0.31-0.14,0.65-0.2,1.02-0.2
						C122.06,124.91,122.41,124.98,122.71,125.13z"/>
					<path class="st7" d="M126.09,130.1c-0.2-0.11-0.36-0.26-0.48-0.44c-0.12-0.19-0.17-0.4-0.17-0.63l0-3.27h-0.92l0.01-0.73h0.57
						c0.13,0,0.23-0.04,0.31-0.12c0.08-0.08,0.12-0.19,0.12-0.31v-0.84h0.74v1.28h1.26l-0.01,0.73h-1.26l0.01,3.22
						c0,0.16,0.05,0.29,0.16,0.4c0.11,0.11,0.24,0.16,0.4,0.16h0.69v0.72h-0.75C126.51,130.26,126.29,130.21,126.09,130.1z"/>
					<path class="st7" d="M129.13,125.76h-0.92v-0.73h0.92v-0.68c0-0.24,0.06-0.46,0.17-0.64c0.11-0.19,0.27-0.33,0.47-0.44
						c0.2-0.1,0.43-0.16,0.69-0.16h0.84v0.72h-0.79c-0.17,0-0.3,0.05-0.41,0.16c-0.1,0.1-0.16,0.24-0.16,0.41v0.63h1.3v0.73h-1.3
						v4.5h-0.82V125.76z"/>
					<path class="st7" d="M133.04,130.03c-0.41-0.24-0.73-0.56-0.96-0.98s-0.35-0.88-0.35-1.4c0-0.52,0.12-0.98,0.35-1.4
						c0.23-0.42,0.55-0.74,0.96-0.98s0.86-0.35,1.36-0.35c0.5,0,0.95,0.12,1.35,0.35c0.4,0.24,0.72,0.56,0.96,0.98
						c0.23,0.42,0.35,0.88,0.35,1.4c0,0.52-0.12,0.99-0.35,1.4c-0.23,0.42-0.55,0.74-0.96,0.98c-0.41,0.24-0.86,0.35-1.36,0.35
						C133.9,130.38,133.45,130.26,133.04,130.03z M135.32,129.39c0.27-0.17,0.49-0.4,0.64-0.7c0.16-0.3,0.24-0.65,0.24-1.04
						c0-0.39-0.08-0.74-0.24-1.04s-0.37-0.54-0.65-0.7c-0.27-0.17-0.58-0.25-0.92-0.25c-0.34,0-0.65,0.08-0.92,0.25
						c-0.28,0.17-0.49,0.4-0.65,0.7s-0.24,0.65-0.24,1.04c0,0.39,0.08,0.74,0.24,1.04c0.16,0.3,0.38,0.54,0.65,0.7
						s0.59,0.25,0.93,0.25C134.74,129.64,135.05,129.55,135.32,129.39z"/>
					<path class="st7" d="M138.2,125.03h0.82v1.75l-0.34,0.51c0.01-0.47,0.1-0.88,0.26-1.23c0.16-0.35,0.38-0.62,0.66-0.8
						c0.28-0.19,0.61-0.28,0.98-0.28h0.18v0.85h-0.21c-0.31,0-0.58,0.06-0.81,0.18c-0.23,0.12-0.41,0.29-0.53,0.51
						c-0.12,0.22-0.19,0.48-0.19,0.77v2.97h-0.82V125.03z"/>
					<path class="st7" d="M141.64,125.03h0.79v2.26h-0.28c0-0.49,0.08-0.91,0.23-1.27s0.37-0.63,0.66-0.82
						c0.29-0.19,0.63-0.29,1.02-0.29c0.37,0,0.7,0.08,0.97,0.25s0.5,0.41,0.65,0.72s0.23,0.67,0.23,1.08v3.3h-0.82V127
						c0-0.29-0.05-0.53-0.15-0.74c-0.1-0.21-0.24-0.37-0.42-0.48s-0.41-0.17-0.67-0.17c-0.28,0-0.53,0.06-0.74,0.19
						s-0.37,0.31-0.49,0.54s-0.17,0.51-0.17,0.83v3.1h-0.82V125.03z M148.4,126.26c-0.1-0.21-0.24-0.37-0.42-0.48
						s-0.41-0.17-0.67-0.17c-0.28,0-0.52,0.06-0.73,0.19s-0.38,0.31-0.49,0.54c-0.12,0.23-0.17,0.51-0.17,0.82l-0.46,0.13
						c0-0.47,0.08-0.88,0.25-1.25c0.16-0.36,0.4-0.64,0.7-0.84c0.3-0.2,0.66-0.3,1.06-0.3c0.37,0,0.7,0.08,0.99,0.25
						c0.29,0.17,0.51,0.41,0.67,0.72c0.16,0.31,0.24,0.67,0.24,1.08v3.3h-0.82V127C148.54,126.71,148.49,126.47,148.4,126.26z"/>
					<path class="st7" d="M153.91,125.03v1.02h0.02v5.85h-0.82v-6.87H153.91z M154.66,130.08c-0.34-0.2-0.61-0.48-0.8-0.84
						c-0.19-0.36-0.29-0.78-0.3-1.25h0.34v-0.7h-0.34c0.01-0.47,0.11-0.89,0.3-1.25s0.46-0.64,0.8-0.84c0.34-0.2,0.74-0.3,1.19-0.3
						c0.49,0,0.92,0.11,1.3,0.34c0.38,0.23,0.67,0.55,0.89,0.97s0.32,0.89,0.32,1.42c0,0.53-0.11,1.01-0.32,1.42
						s-0.51,0.74-0.89,0.97c-0.38,0.23-0.81,0.34-1.3,0.34C155.4,130.38,155.01,130.28,154.66,130.08z M156.65,129.39
						c0.27-0.17,0.48-0.4,0.63-0.7c0.15-0.3,0.22-0.65,0.22-1.04c0-0.39-0.08-0.74-0.22-1.04c-0.15-0.3-0.36-0.54-0.63-0.7
						c-0.27-0.17-0.58-0.25-0.92-0.25c-0.35,0-0.66,0.08-0.93,0.25c-0.27,0.17-0.48,0.4-0.63,0.7c-0.15,0.3-0.23,0.65-0.23,1.04
						c0,0.39,0.08,0.74,0.23,1.04c0.15,0.3,0.36,0.54,0.63,0.7s0.58,0.25,0.93,0.25C156.07,129.64,156.38,129.56,156.65,129.39z"/>
					<path class="st7" d="M159.5,125.03h0.82v1.75l-0.34,0.51c0.01-0.47,0.1-0.88,0.26-1.23c0.16-0.35,0.38-0.62,0.66-0.8
						c0.28-0.19,0.61-0.28,0.98-0.28h0.18v0.85h-0.21c-0.31,0-0.58,0.06-0.81,0.18c-0.23,0.12-0.41,0.29-0.53,0.51
						c-0.12,0.22-0.19,0.48-0.19,0.77v2.97h-0.82V125.03z"/>
					<path class="st7" d="M163.81,130.03c-0.41-0.24-0.73-0.56-0.96-0.98s-0.35-0.88-0.35-1.4c0-0.52,0.12-0.98,0.35-1.4
						c0.23-0.42,0.55-0.74,0.96-0.98s0.86-0.35,1.36-0.35c0.5,0,0.95,0.12,1.35,0.35c0.4,0.24,0.72,0.56,0.96,0.98
						c0.23,0.42,0.35,0.88,0.35,1.4c0,0.52-0.12,0.99-0.35,1.4c-0.23,0.42-0.55,0.74-0.96,0.98c-0.41,0.24-0.86,0.35-1.36,0.35
						C164.66,130.38,164.21,130.26,163.81,130.03z M166.09,129.39c0.27-0.17,0.49-0.4,0.64-0.7c0.16-0.3,0.24-0.65,0.24-1.04
						c0-0.39-0.08-0.74-0.24-1.04s-0.37-0.54-0.65-0.7c-0.27-0.17-0.58-0.25-0.92-0.25c-0.34,0-0.65,0.08-0.92,0.25
						c-0.28,0.17-0.49,0.4-0.65,0.7s-0.24,0.65-0.24,1.04c0,0.39,0.08,0.74,0.24,1.04c0.16,0.3,0.38,0.54,0.65,0.7
						s0.59,0.25,0.93,0.25C165.51,129.64,165.82,129.55,166.09,129.39z"/>
					<path class="st7" d="M167.87,131.12h0.45c0.17,0,0.3-0.05,0.41-0.16c0.1-0.1,0.16-0.24,0.16-0.41v-5.52h0.82v5.58
						c0,0.25-0.06,0.47-0.17,0.66s-0.27,0.34-0.47,0.45c-0.2,0.11-0.43,0.16-0.69,0.16h-0.5V131.12z M169.76,123.11v0.97h-0.96
						v-0.97H169.76z"/>
					<path class="st7" d="M172,130.03c-0.39-0.23-0.7-0.56-0.92-0.98c-0.22-0.42-0.33-0.89-0.33-1.42c0-0.51,0.11-0.98,0.33-1.39
						s0.53-0.74,0.92-0.98c0.39-0.24,0.83-0.35,1.31-0.35c0.49,0,0.93,0.12,1.3,0.35c0.37,0.23,0.66,0.56,0.86,0.97
						c0.2,0.42,0.3,0.88,0.3,1.41v0.2h-4.22l0.01-0.22c0,0.4,0.08,0.75,0.24,1.06c0.16,0.31,0.37,0.55,0.64,0.73
						c0.27,0.17,0.58,0.26,0.92,0.26c0.23,0,0.44-0.03,0.64-0.08c0.2-0.06,0.37-0.14,0.51-0.25c0.14-0.11,0.26-0.23,0.33-0.38h0.82
						c-0.06,0.22-0.19,0.44-0.38,0.65c-0.2,0.22-0.46,0.4-0.8,0.55s-0.72,0.22-1.17,0.22C172.84,130.38,172.4,130.27,172,130.03z
						 M171.57,127.17h3.4v0.46c0-0.4-0.06-0.75-0.19-1.05s-0.31-0.54-0.56-0.7c-0.25-0.17-0.54-0.25-0.89-0.25
						c-0.35,0-0.65,0.08-0.92,0.24c-0.27,0.16-0.47,0.39-0.62,0.69s-0.22,0.64-0.22,1.04L171.57,127.17z"/>
					<path class="st7" d="M177.76,130.03c-0.4-0.24-0.71-0.57-0.94-0.98c-0.23-0.42-0.34-0.88-0.34-1.4c0-0.51,0.11-0.98,0.34-1.4
						c0.23-0.42,0.54-0.74,0.94-0.98c0.4-0.24,0.84-0.36,1.34-0.36c0.42,0,0.79,0.07,1.13,0.21c0.33,0.14,0.61,0.35,0.83,0.63
						c0.22,0.28,0.37,0.62,0.45,1.03h-0.82c-0.08-0.25-0.19-0.46-0.35-0.63s-0.35-0.3-0.56-0.38c-0.21-0.08-0.44-0.12-0.68-0.12
						c-0.34,0-0.64,0.09-0.91,0.26c-0.27,0.17-0.48,0.41-0.62,0.71s-0.22,0.65-0.22,1.03c0,0.38,0.08,0.72,0.22,1.03
						c0.15,0.3,0.36,0.54,0.62,0.71c0.27,0.17,0.57,0.26,0.91,0.26c0.24,0,0.47-0.04,0.68-0.12c0.21-0.08,0.4-0.21,0.56-0.38
						c0.16-0.17,0.28-0.38,0.35-0.63h0.82c-0.08,0.4-0.23,0.73-0.46,1.02c-0.23,0.28-0.51,0.5-0.85,0.64s-0.71,0.22-1.11,0.22
						C178.61,130.38,178.16,130.26,177.76,130.03z"/>
					<path class="st7" d="M183.64,130.1c-0.2-0.11-0.36-0.26-0.48-0.44c-0.12-0.19-0.17-0.4-0.17-0.63l0-3.27h-0.92l0.01-0.73h0.57
						c0.13,0,0.23-0.04,0.31-0.12c0.08-0.08,0.12-0.19,0.12-0.31v-0.84h0.74v1.28h1.26l-0.01,0.73h-1.26l0.01,3.22
						c0,0.16,0.05,0.29,0.16,0.4c0.11,0.11,0.24,0.16,0.4,0.16h0.69v0.72h-0.75C184.07,130.26,183.84,130.21,183.64,130.1z"/>
				</g>
			</g>
		</g>
	</g>
	<g>
		<g>
			<g>
				<g>
					<path class="st2" d="M637.73,144.4H463.09c-6.04,0-10.94,4.9-10.94,10.94v30.58c0,6.04,4.9,10.94,10.94,10.94h174.64
						c6.04,0,10.94-4.9,10.94-10.94v-30.58C648.66,149.3,643.77,144.4,637.73,144.4z"/>
				</g>
			</g>
		</g>
		<g>
			<g>
				<path d="M528.94,165.87v1.21h-1.2v-1.21H528.94z M527.83,168.27h1.02v6.53h-1.02V168.27z"/>
				<path d="M532.87,174.35c-0.67-0.4-1.2-0.96-1.59-1.66c-0.39-0.7-0.58-1.49-0.58-2.36c0-0.87,0.19-1.65,0.58-2.36
					c0.39-0.7,0.92-1.26,1.59-1.66s1.42-0.6,2.25-0.6c0.82,0,1.57,0.2,2.24,0.6c0.67,0.4,1.21,0.96,1.59,1.66
					c0.39,0.7,0.58,1.49,0.58,2.36c0,0.87-0.19,1.65-0.58,2.36c-0.39,0.7-0.92,1.26-1.59,1.66c-0.67,0.4-1.42,0.6-2.24,0.6
					C534.29,174.96,533.54,174.76,532.87,174.35z M536.81,173.52c0.51-0.31,0.9-0.75,1.19-1.3s0.43-1.18,0.43-1.88
					c0-0.7-0.14-1.33-0.42-1.88c-0.28-0.56-0.68-0.99-1.18-1.3s-1.08-0.47-1.71-0.47c-0.63,0-1.2,0.16-1.7,0.47
					c-0.5,0.31-0.9,0.75-1.19,1.3s-0.43,1.18-0.43,1.88c0,0.7,0.14,1.33,0.43,1.88c0.29,0.55,0.68,0.99,1.19,1.3s1.07,0.47,1.7,0.47
					C535.74,173.99,536.3,173.83,536.81,173.52z"/>
				<path d="M542.45,174.62c-0.47-0.23-0.84-0.54-1.1-0.94c-0.26-0.4-0.39-0.87-0.39-1.39h1.08c0,0.34,0.08,0.63,0.26,0.89
					c0.17,0.26,0.41,0.46,0.72,0.61c0.31,0.15,0.67,0.22,1.07,0.22c0.4,0,0.74-0.07,1.04-0.2c0.3-0.13,0.53-0.32,0.7-0.57
					c0.16-0.24,0.25-0.53,0.25-0.85c0-0.4-0.12-0.75-0.36-1.04c-0.24-0.29-0.56-0.47-0.96-0.54l-1.44-0.25
					c-0.43-0.08-0.81-0.23-1.13-0.45c-0.32-0.23-0.56-0.51-0.73-0.84c-0.17-0.34-0.25-0.7-0.25-1.1c0-0.46,0.12-0.88,0.37-1.25
					c0.24-0.37,0.58-0.66,1.02-0.88c0.44-0.21,0.93-0.32,1.47-0.32c0.56,0,1.06,0.11,1.5,0.32s0.78,0.5,1.02,0.88
					c0.24,0.37,0.36,0.8,0.36,1.28h-1.08c0-0.29-0.07-0.56-0.22-0.79c-0.15-0.23-0.36-0.41-0.63-0.54
					c-0.27-0.13-0.58-0.19-0.93-0.19c-0.35,0-0.67,0.06-0.94,0.19c-0.27,0.12-0.48,0.3-0.63,0.52c-0.15,0.23-0.23,0.49-0.23,0.78
					c0,0.35,0.11,0.66,0.34,0.91c0.23,0.26,0.53,0.42,0.9,0.48l1.47,0.26c0.42,0.08,0.8,0.24,1.14,0.49
					c0.33,0.25,0.59,0.56,0.77,0.92c0.18,0.36,0.27,0.75,0.27,1.15c0,0.48-0.13,0.92-0.39,1.31c-0.26,0.39-0.62,0.7-1.09,0.93
					s-1,0.34-1.59,0.34C543.46,174.96,542.92,174.84,542.45,174.62z"/>
				<path d="M555.8,168.39c0.37,0.18,0.66,0.44,0.87,0.79c0.21,0.35,0.31,0.76,0.31,1.23v4.39h-1v-2.44h0.27
					c0,0.54-0.09,1.01-0.28,1.4s-0.46,0.69-0.8,0.89s-0.76,0.31-1.24,0.31c-0.42,0-0.79-0.08-1.13-0.24s-0.6-0.38-0.79-0.67
					c-0.19-0.28-0.29-0.61-0.29-0.97c0-0.34,0.09-0.65,0.26-0.94c0.18-0.29,0.42-0.52,0.73-0.71s0.66-0.3,1.06-0.34l1.74-0.19
					c0.14-0.02,0.26-0.08,0.34-0.18c0.08-0.1,0.12-0.25,0.12-0.45l0.08,1.34l-2.14,0.24c-0.22,0.03-0.42,0.09-0.59,0.2
					c-0.17,0.11-0.31,0.24-0.4,0.41c-0.1,0.17-0.14,0.36-0.14,0.56c0,0.22,0.06,0.42,0.18,0.59c0.12,0.17,0.28,0.3,0.49,0.4
					c0.21,0.1,0.45,0.14,0.71,0.14c0.37,0,0.69-0.07,0.96-0.22s0.49-0.36,0.63-0.63c0.15-0.27,0.22-0.58,0.22-0.93v-2.08
					c0-0.26-0.06-0.49-0.18-0.69c-0.12-0.2-0.3-0.35-0.52-0.46s-0.48-0.16-0.78-0.16c-0.29,0-0.56,0.05-0.79,0.15
					c-0.23,0.1-0.42,0.23-0.56,0.4c-0.14,0.17-0.23,0.35-0.26,0.55h-1.02c0.05-0.37,0.2-0.7,0.44-1c0.24-0.3,0.55-0.53,0.93-0.7
					s0.81-0.25,1.27-0.25C554.99,168.12,555.42,168.21,555.8,168.39z"/>
				<path d="M560.01,168.27v1.28h0.03v7.31h-1.02v-8.59H560.01z M560.96,174.58c-0.43-0.25-0.76-0.6-1-1.05
					c-0.24-0.45-0.36-0.97-0.37-1.56H560v-0.88h-0.42c0.01-0.59,0.13-1.11,0.37-1.56s0.58-0.8,1-1.05s0.93-0.37,1.49-0.37
					c0.61,0,1.15,0.14,1.62,0.43c0.47,0.29,0.84,0.69,1.11,1.21c0.27,0.52,0.4,1.11,0.4,1.78c0,0.67-0.13,1.26-0.4,1.78
					s-0.64,0.92-1.11,1.21c-0.47,0.29-1.01,0.43-1.62,0.43C561.88,174.96,561.39,174.83,560.96,174.58z M563.44,173.72
					c0.34-0.21,0.6-0.5,0.79-0.88c0.19-0.38,0.28-0.81,0.28-1.3c0-0.49-0.09-0.92-0.28-1.3c-0.19-0.38-0.45-0.67-0.79-0.88
					s-0.72-0.32-1.16-0.32c-0.44,0-0.83,0.11-1.17,0.32c-0.34,0.21-0.61,0.5-0.79,0.88c-0.19,0.38-0.28,0.81-0.28,1.3
					c0,0.49,0.09,0.92,0.28,1.3c0.19,0.38,0.45,0.67,0.79,0.88c0.34,0.21,0.73,0.32,1.17,0.32
					C562.72,174.03,563.1,173.93,563.44,173.72z"/>
				<path d="M568.25,168.27v1.28h0.03v7.31h-1.02v-8.59H568.25z M569.19,174.58c-0.43-0.25-0.76-0.6-1-1.05
					c-0.24-0.45-0.36-0.97-0.37-1.56h0.42v-0.88h-0.42c0.01-0.59,0.13-1.11,0.37-1.56s0.58-0.8,1-1.05s0.93-0.37,1.49-0.37
					c0.61,0,1.15,0.14,1.62,0.43c0.47,0.29,0.84,0.69,1.11,1.21c0.27,0.52,0.4,1.11,0.4,1.78c0,0.67-0.13,1.26-0.4,1.78
					s-0.64,0.92-1.11,1.21c-0.47,0.29-1.01,0.43-1.62,0.43C570.12,174.96,569.62,174.83,569.19,174.58z M571.68,173.72
					c0.34-0.21,0.6-0.5,0.79-0.88c0.19-0.38,0.28-0.81,0.28-1.3c0-0.49-0.09-0.92-0.28-1.3c-0.19-0.38-0.45-0.67-0.79-0.88
					s-0.72-0.32-1.16-0.32c-0.44,0-0.83,0.11-1.17,0.32c-0.34,0.21-0.61,0.5-0.79,0.88c-0.19,0.38-0.28,0.81-0.28,1.3
					c0,0.49,0.09,0.92,0.28,1.3c0.19,0.38,0.45,0.67,0.79,0.88c0.34,0.21,0.73,0.32,1.17,0.32
					C570.96,174.03,571.34,173.93,571.68,173.72z"/>
			</g>
		</g>
	</g>
	<g>
		<g>
			<g>
				<g>
					<path class="st2" d="M236.89,144.4H62.26c-6.04,0-10.94,4.9-10.94,10.94v30.58c0,6.04,4.9,10.94,10.94,10.94h174.64
						c6.04,0,10.94-4.9,10.94-10.94v-30.58C247.83,149.3,242.94,144.4,236.89,144.4z"/>
				</g>
			</g>
		</g>
		<g>
			<g>
				<path d="M116.13,165.87h1.14l3.43,8.93h-1.12l-0.86-2.37h-3.95l-0.8,2.37h-1.15L116.13,165.87z M118.38,171.51l-1.52-4.15
					l-0.15-0.54l-0.15,0.54l-1.45,4.15H118.38z"/>
				<path d="M122.1,168.27h0.98v2.83h-0.41c0-0.6,0.1-1.13,0.31-1.58c0.21-0.45,0.51-0.79,0.89-1.04c0.39-0.24,0.84-0.36,1.37-0.36
					c0.47,0,0.88,0.1,1.24,0.3c0.36,0.2,0.65,0.49,0.85,0.88c0.21,0.39,0.31,0.86,0.31,1.4v4.1h-1.02v-4c0-0.38-0.07-0.7-0.2-0.97
					c-0.13-0.27-0.32-0.47-0.57-0.61c-0.25-0.14-0.54-0.21-0.88-0.21c-0.37,0-0.69,0.08-0.97,0.24c-0.28,0.16-0.5,0.39-0.65,0.68
					s-0.23,0.62-0.23,1v3.87h-1.02V168.27z"/>
				<path d="M130.64,174.53c-0.47-0.29-0.84-0.69-1.11-1.21s-0.4-1.11-0.4-1.78c0-0.67,0.13-1.26,0.4-1.78
					c0.27-0.52,0.64-0.92,1.11-1.21s1.02-0.43,1.62-0.43c0.56,0,1.06,0.12,1.49,0.37s0.76,0.6,1,1.05s0.36,0.97,0.37,1.56h-0.42
					v0.88h0.42c-0.01,0.59-0.13,1.11-0.37,1.56c-0.24,0.45-0.58,0.8-1,1.05c-0.43,0.25-0.92,0.37-1.49,0.37
					C131.66,174.96,131.12,174.81,130.64,174.53z M133.6,173.72c0.34-0.21,0.6-0.5,0.79-0.88s0.28-0.81,0.28-1.3
					c0-0.49-0.09-0.92-0.28-1.3s-0.45-0.67-0.79-0.88c-0.34-0.21-0.73-0.32-1.17-0.32c-0.43,0-0.82,0.11-1.15,0.32
					c-0.34,0.21-0.6,0.5-0.79,0.88s-0.28,0.81-0.28,1.3c0,0.49,0.09,0.92,0.28,1.3s0.45,0.67,0.79,0.88
					c0.34,0.21,0.72,0.32,1.15,0.32C132.87,174.03,133.26,173.93,133.6,173.72z M134.65,165.87h1.02v8.93h-1.02V165.87z"/>
				<path d="M137.81,168.27h1.02v2.19l-0.43,0.64c0.02-0.59,0.12-1.1,0.32-1.53c0.2-0.44,0.47-0.77,0.83-1
					c0.35-0.23,0.76-0.35,1.23-0.35h0.23v1.07h-0.27c-0.39,0-0.73,0.07-1.01,0.22s-0.51,0.36-0.67,0.63s-0.23,0.6-0.23,0.97v3.71
					h-1.02V168.27z"/>
				<path d="M143.46,174.51c-0.51-0.3-0.91-0.7-1.2-1.23c-0.29-0.52-0.44-1.1-0.44-1.75s0.15-1.23,0.44-1.75
					c0.29-0.52,0.69-0.93,1.2-1.22c0.51-0.3,1.08-0.44,1.7-0.44s1.18,0.15,1.69,0.44c0.51,0.3,0.91,0.7,1.2,1.22s0.44,1.1,0.44,1.75
					s-0.15,1.24-0.44,1.75c-0.29,0.52-0.69,0.93-1.2,1.22c-0.51,0.3-1.07,0.44-1.7,0.44C144.53,174.96,143.96,174.81,143.46,174.51z
					 M146.31,173.71c0.34-0.21,0.61-0.5,0.8-0.88c0.2-0.38,0.29-0.81,0.29-1.3c0-0.49-0.1-0.92-0.29-1.3
					c-0.2-0.38-0.46-0.67-0.81-0.88c-0.34-0.21-0.73-0.31-1.15-0.31c-0.43,0-0.81,0.1-1.16,0.31c-0.34,0.21-0.62,0.5-0.81,0.88
					c-0.2,0.38-0.3,0.81-0.3,1.3c0,0.49,0.1,0.92,0.3,1.3c0.2,0.38,0.47,0.67,0.82,0.88s0.73,0.31,1.16,0.31
					C145.59,174.03,145.97,173.92,146.31,173.71z"/>
				<path d="M151.27,165.87v1.21h-1.2v-1.21H151.27z M150.16,168.27h1.02v6.53h-1.02V168.27z"/>
				<path d="M154.37,174.53c-0.47-0.29-0.84-0.69-1.11-1.21s-0.4-1.11-0.4-1.78c0-0.67,0.13-1.26,0.4-1.78
					c0.27-0.52,0.64-0.92,1.11-1.21s1.02-0.43,1.62-0.43c0.56,0,1.06,0.12,1.49,0.37s0.76,0.6,1,1.05s0.36,0.97,0.37,1.56h-0.42
					v0.88h0.42c-0.01,0.59-0.13,1.11-0.37,1.56c-0.24,0.45-0.58,0.8-1,1.05c-0.43,0.25-0.92,0.37-1.49,0.37
					C155.38,174.96,154.84,174.81,154.37,174.53z M157.32,173.72c0.34-0.21,0.6-0.5,0.79-0.88s0.28-0.81,0.28-1.3
					c0-0.49-0.09-0.92-0.28-1.3s-0.45-0.67-0.79-0.88c-0.34-0.21-0.73-0.32-1.17-0.32c-0.43,0-0.82,0.11-1.15,0.32
					c-0.34,0.21-0.6,0.5-0.79,0.88s-0.28,0.81-0.28,1.3c0,0.49,0.09,0.92,0.28,1.3s0.45,0.67,0.79,0.88
					c0.34,0.21,0.72,0.32,1.15,0.32C156.59,174.03,156.98,173.93,157.32,173.72z M158.38,165.87h1.02v8.93h-1.02V165.87z"/>
				<path d="M168.3,168.39c0.37,0.18,0.66,0.44,0.87,0.79c0.21,0.35,0.31,0.76,0.31,1.23v4.39h-1v-2.44h0.27
					c0,0.54-0.09,1.01-0.28,1.4s-0.46,0.69-0.8,0.89s-0.76,0.31-1.24,0.31c-0.42,0-0.79-0.08-1.13-0.24s-0.6-0.38-0.79-0.67
					c-0.19-0.28-0.29-0.61-0.29-0.97c0-0.34,0.09-0.65,0.26-0.94c0.18-0.29,0.42-0.52,0.73-0.71s0.66-0.3,1.06-0.34l1.74-0.19
					c0.14-0.02,0.26-0.08,0.34-0.18c0.08-0.1,0.12-0.25,0.12-0.45l0.08,1.34l-2.14,0.24c-0.22,0.03-0.42,0.09-0.59,0.2
					c-0.17,0.11-0.31,0.24-0.4,0.41c-0.1,0.17-0.14,0.36-0.14,0.56c0,0.22,0.06,0.42,0.18,0.59c0.12,0.17,0.28,0.3,0.49,0.4
					c0.21,0.1,0.45,0.14,0.71,0.14c0.37,0,0.69-0.07,0.96-0.22s0.49-0.36,0.63-0.63c0.15-0.27,0.22-0.58,0.22-0.93v-2.08
					c0-0.26-0.06-0.49-0.18-0.69c-0.12-0.2-0.3-0.35-0.52-0.46s-0.48-0.16-0.78-0.16c-0.29,0-0.56,0.05-0.79,0.15
					c-0.23,0.1-0.42,0.23-0.56,0.4c-0.14,0.17-0.23,0.35-0.26,0.55h-1.02c0.05-0.37,0.2-0.7,0.44-1c0.24-0.3,0.55-0.53,0.93-0.7
					s0.81-0.25,1.27-0.25C167.49,168.12,167.92,168.21,168.3,168.39z"/>
				<path d="M172.52,168.27v1.28h0.03v7.31h-1.02v-8.59H172.52z M173.46,174.58c-0.43-0.25-0.76-0.6-1-1.05
					c-0.24-0.45-0.36-0.97-0.37-1.56h0.42v-0.88h-0.42c0.01-0.59,0.13-1.11,0.37-1.56s0.58-0.8,1-1.05s0.93-0.37,1.49-0.37
					c0.61,0,1.15,0.14,1.62,0.43c0.47,0.29,0.84,0.69,1.11,1.21c0.27,0.52,0.4,1.11,0.4,1.78c0,0.67-0.13,1.26-0.4,1.78
					s-0.64,0.92-1.11,1.21c-0.47,0.29-1.01,0.43-1.62,0.43C174.38,174.96,173.89,174.83,173.46,174.58z M175.94,173.72
					c0.34-0.21,0.6-0.5,0.79-0.88c0.19-0.38,0.28-0.81,0.28-1.3c0-0.49-0.09-0.92-0.28-1.3c-0.19-0.38-0.45-0.67-0.79-0.88
					s-0.72-0.32-1.16-0.32c-0.44,0-0.83,0.11-1.17,0.32c-0.34,0.21-0.61,0.5-0.79,0.88c-0.19,0.38-0.28,0.81-0.28,1.3
					c0,0.49,0.09,0.92,0.28,1.3c0.19,0.38,0.45,0.67,0.79,0.88c0.34,0.21,0.73,0.32,1.17,0.32
					C175.22,174.03,175.6,173.93,175.94,173.72z"/>
				<path d="M180.75,168.27v1.28h0.03v7.31h-1.02v-8.59H180.75z M181.69,174.58c-0.43-0.25-0.76-0.6-1-1.05
					c-0.24-0.45-0.36-0.97-0.37-1.56h0.42v-0.88h-0.42c0.01-0.59,0.13-1.11,0.37-1.56s0.58-0.8,1-1.05s0.93-0.37,1.49-0.37
					c0.61,0,1.15,0.14,1.62,0.43c0.47,0.29,0.84,0.69,1.11,1.21c0.27,0.52,0.4,1.11,0.4,1.78c0,0.67-0.13,1.26-0.4,1.78
					s-0.64,0.92-1.11,1.21c-0.47,0.29-1.01,0.43-1.62,0.43C182.62,174.96,182.12,174.83,181.69,174.58z M184.18,173.72
					c0.34-0.21,0.6-0.5,0.79-0.88c0.19-0.38,0.28-0.81,0.28-1.3c0-0.49-0.09-0.92-0.28-1.3c-0.19-0.38-0.45-0.67-0.79-0.88
					s-0.72-0.32-1.16-0.32c-0.44,0-0.83,0.11-1.17,0.32c-0.34,0.21-0.61,0.5-0.79,0.88c-0.19,0.38-0.28,0.81-0.28,1.3
					c0,0.49,0.09,0.92,0.28,1.3c0.19,0.38,0.45,0.67,0.79,0.88c0.34,0.21,0.73,0.32,1.17,0.32
					C183.46,174.03,183.84,173.93,184.18,173.72z"/>
			</g>
		</g>
	</g>
</g>
</svg>
