<?xml version="1.0" encoding="utf-8"?>
<!-- Generator: Adobe Illustrator 27.5.0, SVG Export Plug-In . SVG Version: 6.00 Build 0)  -->
<svg version="1.1" id="Layer_1" xmlns="http://www.w3.org/2000/svg" xmlns:xlink="http://www.w3.org/1999/xlink" x="0px" y="0px"
	 viewBox="0 0 700 395" style="enable-background:new 0 0 700 395;" xml:space="preserve">
<style type="text/css">
	.st0{fill:#FFFFFF;}
	.st1{fill:none;stroke:#000000;stroke-width:0.5469;stroke-miterlimit:10;}
	.st2{fill:#F2F2F2;}
	.st3{fill:none;stroke:#595959;stroke-width:0.5469;stroke-miterlimit:10;}
	.st4{fill:url(#SVGID_1_);}
	.st5{fill:url(#SVGID_00000017499469468298153550000005204138801694764702_);}
	.st6{fill:url(#SVGID_00000011028552373296529980000005851700710074447792_);}
	.st7{fill:#595959;}
	.st8{fill:url(#SVGID_00000061435129557027250890000007023821163598844811_);}
	.st9{fill:url(#SVGID_00000173118584414493293270000003813818103342538928_);}
	.st10{fill:url(#SVGID_00000004535811772794014350000017334875364717249438_);}
	.st11{fill:url(#SVGID_00000128467802393617123400000005569923989285145752_);}
	.st12{fill:url(#SVGID_00000077299260424413250160000013542860493704850590_);}
	.st13{fill:url(#SVGID_00000011029981974985347700000002752350581761526682_);}
	.st14{fill:url(#SVGID_00000029728877777926698890000008580581517316283286_);}
	.st15{fill:url(#SVGID_00000139991231715340792450000016342637532599430823_);}
	.st16{fill:url(#SVGID_00000139253225310342291730000016191023153896068280_);}
	.st17{fill:url(#SVGID_00000095301092926312381500000015614214153253389246_);}
	.st18{fill:url(#SVGID_00000151541166139241901080000015938131102936847273_);}
	.st19{fill:none;stroke:#000000;stroke-width:0.5469;stroke-miterlimit:10;stroke-dasharray:1.5,2.5,1.5,2.5,1.5,2.5;}
	.st20{fill:url(#SVGID_00000181804679708598712740000012433619708622206370_);}
	.st21{fill:url(#SVGID_00000088850196972386935790000009865252104519172527_);}
	.st22{fill:url(#SVGID_00000055701347467175157380000007071460329971251884_);}
	.st23{fill:url(#SVGID_00000178192630585328442920000012253973528596255932_);}
	.st24{fill:url(#SVGID_00000105404327663917156070000009483221684951865769_);}
	.st25{fill:url(#SVGID_00000006694486778864809110000005946255689238822273_);}
	.st26{fill:url(#SVGID_00000106842409548384270090000013879824840653031832_);}
	.st27{fill:url(#SVGID_00000134957845419207901640000016020631224321859748_);}
	.st28{fill:url(#SVGID_00000129183996097783211410000000414744072154333602_);}
	.st29{fill:url(#SVGID_00000077282291505596577880000007220867272425948302_);}
	.st30{fill:url(#SVGID_00000011737868202192982820000014047509324928308103_);}
	.st31{fill:url(#SVGID_00000022518488935488005740000012246349654502268067_);}
	.st32{fill:url(#SVGID_00000037686741598749471240000007035446605382524562_);}
	.st33{fill:url(#SVGID_00000067944148687707412980000004834211315105132161_);}
	.st34{fill:url(#SVGID_00000088120362457718490560000011695392554417928067_);}
	.st35{fill:url(#SVGID_00000078762019992242203080000003987868569606667193_);}
	.st36{fill:url(#SVGID_00000093160866101249507470000011215903377851724960_);}
	.st37{fill:url(#SVGID_00000141455736550922383960000018286041991103576719_);}
	.st38{fill:url(#SVGID_00000172399489905890042370000000102835129840693433_);}
	.st39{fill:url(#SVGID_00000117666073992161063090000011902834611680728972_);}
	.st40{fill:url(#SVGID_00000041988679384709808890000017706557083451343745_);}
	.st41{fill:url(#SVGID_00000077283061471075137340000005932514435759329722_);}
	.st42{fill:#7F52FF;}
	.st43{opacity:0.35;}
	.st44{fill:url(#SVGID_00000044172228635801083790000017464835945374332826_);}
	.st45{fill:none;stroke:#000000;stroke-width:0.4423;stroke-miterlimit:10;}
</style>
<g>
	<rect class="st0" width="700" height="395"/>
</g>
<g>
	<g>
		<path class="st1" d="M610.4,150.8v-17.67c0-8.05-6.53-14.58-14.58-14.58H448.27c-8.05,0-14.58,6.53-14.58,14.58v17.67"/>
		<g>
			<path class="st7" d="M474.53,93.97h2.89c0.46,0,0.86,0.08,1.2,0.25c0.35,0.17,0.61,0.41,0.8,0.73c0.19,0.31,0.28,0.68,0.28,1.09
				c0,0.42-0.1,0.78-0.29,1.09c-0.19,0.31-0.46,0.56-0.81,0.73s-0.76,0.26-1.23,0.26h-2v2.99h-0.85V93.97z M478.15,97.18
				c0.21-0.11,0.37-0.25,0.49-0.45c0.11-0.19,0.17-0.42,0.17-0.68c0-0.26-0.06-0.48-0.17-0.68c-0.11-0.19-0.28-0.34-0.49-0.45
				c-0.21-0.1-0.45-0.16-0.73-0.16h-2.04v2.57h2.04C477.7,97.34,477.95,97.28,478.15,97.18z M476.81,97.96h0.95l1.97,3.16h-0.99
				L476.81,97.96z"/>
			<path class="st7" d="M481.57,100.89c-0.39-0.23-0.7-0.56-0.92-0.98c-0.22-0.42-0.33-0.89-0.33-1.42c0-0.51,0.11-0.98,0.33-1.39
				c0.22-0.42,0.53-0.74,0.92-0.98c0.39-0.24,0.83-0.35,1.31-0.35c0.49,0,0.93,0.12,1.3,0.35c0.37,0.23,0.66,0.56,0.86,0.98
				c0.2,0.42,0.3,0.88,0.3,1.41v0.2h-4.22l0.01-0.22c0,0.39,0.08,0.75,0.24,1.06c0.15,0.31,0.37,0.55,0.64,0.73
				c0.27,0.17,0.58,0.26,0.92,0.26c0.23,0,0.44-0.03,0.64-0.08c0.2-0.06,0.37-0.14,0.51-0.25c0.14-0.11,0.26-0.23,0.33-0.38h0.82
				c-0.06,0.22-0.19,0.44-0.38,0.65c-0.2,0.22-0.46,0.4-0.8,0.55c-0.34,0.15-0.72,0.22-1.17,0.22
				C482.4,101.24,481.96,101.13,481.57,100.89z M481.13,98.03h3.4v0.46c0-0.4-0.06-0.75-0.19-1.05c-0.13-0.3-0.31-0.54-0.56-0.7
				c-0.25-0.17-0.54-0.25-0.89-0.25c-0.35,0-0.65,0.08-0.92,0.24s-0.47,0.39-0.62,0.69c-0.15,0.3-0.22,0.64-0.22,1.04L481.13,98.03z
				"/>
			<path class="st7" d="M486.49,95.89h0.79v2.26H487c0-0.49,0.08-0.91,0.23-1.27s0.37-0.63,0.66-0.82c0.29-0.19,0.63-0.29,1.02-0.29
				c0.37,0,0.7,0.08,0.97,0.25s0.5,0.41,0.65,0.72c0.15,0.31,0.23,0.67,0.23,1.08v3.3h-0.82v-3.26c0-0.29-0.05-0.53-0.15-0.74
				c-0.1-0.21-0.24-0.37-0.42-0.48s-0.41-0.17-0.67-0.17c-0.28,0-0.53,0.06-0.74,0.19c-0.21,0.13-0.37,0.31-0.49,0.54
				c-0.11,0.23-0.17,0.51-0.17,0.83v3.1h-0.82V95.89z M493.25,97.12c-0.1-0.21-0.24-0.37-0.42-0.48s-0.41-0.17-0.67-0.17
				c-0.28,0-0.52,0.06-0.74,0.19c-0.21,0.13-0.37,0.31-0.49,0.54c-0.12,0.23-0.17,0.51-0.17,0.82l-0.46,0.13
				c0-0.47,0.08-0.88,0.24-1.25c0.16-0.36,0.4-0.64,0.7-0.84c0.3-0.2,0.66-0.3,1.06-0.3c0.37,0,0.7,0.08,0.99,0.25
				c0.29,0.17,0.51,0.41,0.67,0.72c0.16,0.31,0.24,0.67,0.24,1.08v3.3h-0.82v-3.26C493.39,97.57,493.35,97.32,493.25,97.12z"/>
			<path class="st7" d="M496.5,100.89c-0.41-0.24-0.73-0.56-0.96-0.98c-0.23-0.42-0.35-0.88-0.35-1.4c0-0.52,0.12-0.98,0.35-1.4
				c0.23-0.42,0.55-0.74,0.96-0.98c0.41-0.24,0.86-0.35,1.36-0.35s0.95,0.12,1.35,0.35c0.41,0.24,0.72,0.56,0.96,0.98
				c0.23,0.42,0.35,0.88,0.35,1.4s-0.12,0.99-0.35,1.4c-0.23,0.42-0.55,0.74-0.96,0.98c-0.4,0.24-0.86,0.35-1.36,0.35
				C497.36,101.24,496.91,101.12,496.5,100.89z M498.79,100.25c0.27-0.17,0.49-0.4,0.64-0.7c0.16-0.3,0.23-0.65,0.23-1.04
				c0-0.39-0.08-0.74-0.23-1.04c-0.16-0.3-0.37-0.54-0.65-0.7c-0.27-0.17-0.58-0.25-0.92-0.25c-0.34,0-0.65,0.08-0.92,0.25
				c-0.28,0.17-0.49,0.4-0.65,0.7c-0.16,0.3-0.24,0.65-0.24,1.04c0,0.39,0.08,0.74,0.24,1.04c0.16,0.3,0.38,0.54,0.65,0.7
				c0.28,0.17,0.59,0.25,0.93,0.25C498.21,100.5,498.52,100.41,498.79,100.25z"/>
			<path class="st7" d="M502.66,100.96c-0.2-0.11-0.36-0.26-0.48-0.44c-0.12-0.19-0.17-0.4-0.17-0.63l0-3.27h-0.92l0-0.72h0.57
				c0.13,0,0.23-0.04,0.31-0.12s0.12-0.19,0.12-0.31v-0.84h0.73v1.28h1.26l0,0.72h-1.26l0,3.22c0,0.16,0.05,0.29,0.16,0.4
				c0.11,0.11,0.24,0.16,0.4,0.16h0.69v0.72h-0.75C503.09,101.12,502.87,101.07,502.66,100.96z"/>
			<path class="st7" d="M506.1,100.89c-0.39-0.23-0.7-0.56-0.92-0.98c-0.22-0.42-0.33-0.89-0.33-1.42c0-0.51,0.11-0.98,0.33-1.39
				c0.22-0.42,0.53-0.74,0.92-0.98c0.39-0.24,0.83-0.35,1.31-0.35c0.49,0,0.93,0.12,1.3,0.35c0.37,0.23,0.66,0.56,0.86,0.98
				c0.2,0.42,0.3,0.88,0.3,1.41v0.2h-4.22l0.01-0.22c0,0.39,0.08,0.75,0.24,1.06c0.15,0.31,0.37,0.55,0.64,0.73
				c0.27,0.17,0.58,0.26,0.92,0.26c0.23,0,0.44-0.03,0.64-0.08c0.2-0.06,0.37-0.14,0.51-0.25c0.14-0.11,0.26-0.23,0.33-0.38h0.82
				c-0.06,0.22-0.19,0.44-0.38,0.65c-0.2,0.22-0.46,0.4-0.8,0.55c-0.34,0.15-0.72,0.22-1.17,0.22
				C506.93,101.24,506.49,101.13,506.1,100.89z M505.67,98.03h3.4v0.46c0-0.4-0.06-0.75-0.19-1.05c-0.13-0.3-0.31-0.54-0.56-0.7
				c-0.25-0.17-0.54-0.25-0.89-0.25c-0.35,0-0.65,0.08-0.92,0.24s-0.47,0.39-0.62,0.69c-0.15,0.3-0.22,0.64-0.22,1.04L505.67,98.03z
				"/>
			<path class="st7" d="M513.81,100.9c-0.38-0.23-0.67-0.55-0.89-0.97c-0.21-0.42-0.32-0.89-0.32-1.42s0.11-1.01,0.32-1.42
				s0.51-0.74,0.89-0.97c0.38-0.23,0.81-0.34,1.3-0.34c0.45,0,0.85,0.1,1.19,0.3c0.34,0.2,0.61,0.48,0.8,0.84
				c0.19,0.36,0.29,0.77,0.3,1.25h-0.34v0.7h0.34c-0.01,0.47-0.11,0.89-0.3,1.25c-0.19,0.36-0.46,0.64-0.8,0.84
				c-0.34,0.2-0.74,0.3-1.19,0.3C514.62,101.24,514.19,101.13,513.81,100.9z M516.17,100.25c0.27-0.17,0.48-0.4,0.63-0.7
				c0.15-0.3,0.23-0.65,0.23-1.04c0-0.39-0.08-0.74-0.23-1.04s-0.36-0.54-0.63-0.7c-0.27-0.17-0.58-0.25-0.93-0.25
				c-0.35,0-0.66,0.08-0.92,0.25s-0.48,0.4-0.63,0.7c-0.15,0.3-0.22,0.65-0.22,1.04c0,0.39,0.08,0.74,0.22,1.04
				c0.15,0.3,0.36,0.54,0.63,0.7s0.58,0.25,0.92,0.25C515.58,100.5,515.9,100.42,516.17,100.25z M517.02,93.97h0.82v7.15h-0.82
				V93.97z"/>
			<path class="st7" d="M520.14,100.89c-0.39-0.23-0.7-0.56-0.92-0.98s-0.33-0.89-0.33-1.42c0-0.51,0.11-0.98,0.33-1.39
				c0.22-0.42,0.53-0.74,0.92-0.98c0.39-0.24,0.83-0.35,1.31-0.35c0.49,0,0.93,0.12,1.3,0.35c0.37,0.23,0.66,0.56,0.86,0.98
				s0.3,0.88,0.3,1.41v0.2h-4.22l0.01-0.22c0,0.39,0.08,0.75,0.24,1.06c0.16,0.31,0.37,0.55,0.64,0.73
				c0.27,0.17,0.58,0.26,0.92,0.26c0.23,0,0.44-0.03,0.64-0.08c0.2-0.06,0.37-0.14,0.51-0.25c0.14-0.11,0.26-0.23,0.33-0.38h0.82
				c-0.06,0.22-0.19,0.44-0.39,0.65c-0.2,0.22-0.46,0.4-0.8,0.55c-0.33,0.15-0.72,0.22-1.17,0.22
				C520.97,101.24,520.53,101.13,520.14,100.89z M519.71,98.03h3.4v0.46c0-0.4-0.06-0.75-0.19-1.05c-0.13-0.3-0.31-0.54-0.56-0.7
				c-0.25-0.17-0.54-0.25-0.89-0.25c-0.35,0-0.65,0.08-0.92,0.24c-0.26,0.16-0.47,0.39-0.62,0.69s-0.22,0.64-0.22,1.04L519.71,98.03
				z"/>
			<path class="st7" d="M525.86,95.89v1.02h0.02v5.85h-0.82v-6.87H525.86z M526.62,100.94c-0.34-0.2-0.61-0.48-0.8-0.84
				c-0.19-0.36-0.29-0.77-0.3-1.25h0.34v-0.7h-0.34c0.01-0.47,0.11-0.89,0.3-1.25c0.19-0.36,0.46-0.64,0.8-0.84
				c0.34-0.2,0.74-0.3,1.19-0.3c0.49,0,0.92,0.11,1.3,0.34c0.38,0.23,0.67,0.55,0.89,0.97s0.32,0.89,0.32,1.42s-0.11,1.01-0.32,1.42
				c-0.21,0.42-0.51,0.74-0.89,0.97c-0.38,0.23-0.81,0.34-1.3,0.34C527.36,101.24,526.96,101.14,526.62,100.94z M528.6,100.25
				c0.27-0.17,0.48-0.4,0.63-0.7c0.15-0.3,0.22-0.65,0.22-1.04c0-0.39-0.08-0.74-0.22-1.04s-0.36-0.54-0.63-0.7
				s-0.58-0.25-0.92-0.25c-0.35,0-0.66,0.08-0.93,0.25c-0.27,0.17-0.48,0.4-0.63,0.7s-0.23,0.65-0.23,1.04
				c0,0.39,0.08,0.74,0.23,1.04c0.15,0.3,0.36,0.54,0.63,0.7c0.27,0.17,0.58,0.25,0.93,0.25
				C528.03,100.5,528.33,100.42,528.6,100.25z"/>
			<path class="st7" d="M532.25,100.89c-0.39-0.23-0.7-0.56-0.92-0.98s-0.33-0.89-0.33-1.42c0-0.51,0.11-0.98,0.33-1.39
				c0.22-0.42,0.53-0.74,0.92-0.98c0.39-0.24,0.83-0.35,1.31-0.35c0.49,0,0.93,0.12,1.3,0.35c0.37,0.23,0.66,0.56,0.86,0.98
				s0.3,0.88,0.3,1.41v0.2h-4.22l0.01-0.22c0,0.39,0.08,0.75,0.24,1.06c0.16,0.31,0.37,0.55,0.64,0.73
				c0.27,0.17,0.58,0.26,0.92,0.26c0.23,0,0.44-0.03,0.64-0.08c0.2-0.06,0.37-0.14,0.51-0.25c0.14-0.11,0.26-0.23,0.33-0.38h0.82
				c-0.06,0.22-0.19,0.44-0.39,0.65c-0.2,0.22-0.46,0.4-0.8,0.55c-0.33,0.15-0.72,0.22-1.17,0.22
				C533.08,101.24,532.64,101.13,532.25,100.89z M531.82,98.03h3.4v0.46c0-0.4-0.06-0.75-0.19-1.05c-0.13-0.3-0.31-0.54-0.56-0.7
				c-0.25-0.17-0.54-0.25-0.89-0.25c-0.35,0-0.65,0.08-0.92,0.24c-0.26,0.16-0.47,0.39-0.62,0.69s-0.22,0.64-0.22,1.04L531.82,98.03
				z"/>
			<path class="st7" d="M537.18,95.89h0.79v2.26h-0.33c0-0.48,0.08-0.9,0.25-1.26s0.41-0.64,0.71-0.83s0.67-0.29,1.09-0.29
				c0.37,0,0.71,0.08,1,0.24c0.29,0.16,0.52,0.4,0.68,0.71c0.17,0.31,0.25,0.69,0.25,1.12v3.28h-0.82v-3.2
				c0-0.3-0.05-0.56-0.16-0.78c-0.11-0.21-0.26-0.38-0.46-0.49s-0.43-0.17-0.7-0.17c-0.29,0-0.55,0.06-0.78,0.19
				s-0.4,0.31-0.52,0.54c-0.12,0.23-0.19,0.5-0.19,0.8v3.1h-0.82V95.89z"/>
			<path class="st7" d="M543.81,100.9c-0.38-0.23-0.67-0.55-0.89-0.97c-0.21-0.42-0.32-0.89-0.32-1.42s0.11-1.01,0.32-1.42
				s0.51-0.74,0.89-0.97c0.38-0.23,0.81-0.34,1.3-0.34c0.45,0,0.85,0.1,1.19,0.3c0.34,0.2,0.61,0.48,0.8,0.84
				c0.19,0.36,0.29,0.77,0.3,1.25h-0.34v0.7h0.34c-0.01,0.47-0.11,0.89-0.3,1.25c-0.19,0.36-0.46,0.64-0.8,0.84
				c-0.34,0.2-0.74,0.3-1.19,0.3C544.62,101.24,544.19,101.13,543.81,100.9z M546.17,100.25c0.27-0.17,0.48-0.4,0.63-0.7
				c0.15-0.3,0.23-0.65,0.23-1.04c0-0.39-0.08-0.74-0.23-1.04s-0.36-0.54-0.63-0.7c-0.27-0.17-0.58-0.25-0.93-0.25
				c-0.35,0-0.66,0.08-0.92,0.25s-0.48,0.4-0.63,0.7c-0.15,0.3-0.22,0.65-0.22,1.04c0,0.39,0.08,0.74,0.22,1.04
				c0.15,0.3,0.36,0.54,0.63,0.7s0.58,0.25,0.92,0.25C545.59,100.5,545.9,100.42,546.17,100.25z M547.02,93.97h0.82v7.15h-0.82
				V93.97z"/>
			<path class="st7" d="M550.14,100.89c-0.39-0.23-0.7-0.56-0.92-0.98s-0.33-0.89-0.33-1.42c0-0.51,0.11-0.98,0.33-1.39
				c0.22-0.42,0.53-0.74,0.92-0.98c0.39-0.24,0.83-0.35,1.31-0.35c0.49,0,0.93,0.12,1.3,0.35c0.37,0.23,0.66,0.56,0.86,0.98
				s0.3,0.88,0.3,1.41v0.2h-4.22l0.01-0.22c0,0.39,0.08,0.75,0.24,1.06c0.16,0.31,0.37,0.55,0.64,0.73
				c0.27,0.17,0.58,0.26,0.92,0.26c0.23,0,0.44-0.03,0.64-0.08c0.2-0.06,0.37-0.14,0.51-0.25c0.14-0.11,0.26-0.23,0.33-0.38h0.82
				c-0.06,0.22-0.19,0.44-0.39,0.65c-0.2,0.22-0.46,0.4-0.8,0.55c-0.33,0.15-0.72,0.22-1.17,0.22
				C550.97,101.24,550.53,101.13,550.14,100.89z M549.71,98.03h3.4v0.46c0-0.4-0.06-0.75-0.19-1.05c-0.13-0.3-0.31-0.54-0.56-0.7
				c-0.25-0.17-0.54-0.25-0.89-0.25c-0.35,0-0.65,0.08-0.92,0.24c-0.26,0.16-0.47,0.39-0.62,0.69s-0.22,0.64-0.22,1.04L549.71,98.03
				z"/>
			<path class="st7" d="M555.07,95.89h0.79v2.26h-0.33c0-0.48,0.08-0.9,0.25-1.26c0.17-0.36,0.41-0.64,0.71-0.83
				s0.67-0.29,1.09-0.29c0.37,0,0.71,0.08,1,0.24c0.29,0.16,0.52,0.4,0.68,0.71c0.17,0.31,0.25,0.69,0.25,1.12v3.28h-0.82v-3.2
				c0-0.3-0.05-0.56-0.16-0.78s-0.26-0.38-0.46-0.49s-0.43-0.17-0.7-0.17c-0.29,0-0.55,0.06-0.78,0.19s-0.4,0.31-0.52,0.54
				c-0.12,0.23-0.19,0.5-0.19,0.8v3.1h-0.82V95.89z"/>
			<path class="st7" d="M561.77,100.88c-0.4-0.24-0.71-0.57-0.94-0.98c-0.23-0.42-0.34-0.88-0.34-1.4c0-0.51,0.11-0.98,0.34-1.4
				c0.23-0.42,0.54-0.74,0.94-0.98c0.4-0.24,0.84-0.36,1.34-0.36c0.42,0,0.79,0.07,1.13,0.21c0.33,0.14,0.61,0.35,0.83,0.63
				c0.22,0.28,0.37,0.63,0.45,1.03h-0.82c-0.08-0.25-0.19-0.46-0.35-0.63c-0.16-0.17-0.35-0.3-0.56-0.38
				c-0.21-0.08-0.44-0.12-0.68-0.12c-0.34,0-0.64,0.08-0.91,0.26c-0.27,0.17-0.48,0.41-0.62,0.71c-0.15,0.3-0.22,0.65-0.22,1.03
				c0,0.38,0.07,0.72,0.22,1.03c0.15,0.3,0.36,0.54,0.62,0.71c0.27,0.17,0.57,0.26,0.91,0.26c0.24,0,0.47-0.04,0.68-0.12
				c0.21-0.08,0.4-0.21,0.56-0.38c0.16-0.17,0.28-0.38,0.35-0.63h0.82c-0.08,0.4-0.23,0.73-0.46,1.02c-0.23,0.28-0.51,0.5-0.85,0.64
				c-0.34,0.15-0.71,0.22-1.11,0.22C562.61,101.24,562.17,101.12,561.77,100.88z"/>
			<path class="st7" d="M566.27,102.03h0.65c0.15,0,0.29-0.04,0.41-0.13c0.12-0.09,0.21-0.2,0.28-0.33l0.33-0.7l-2.07-4.98h0.87
				l1.61,3.94l1.48-3.94h0.86l-2.27,5.73c-0.1,0.24-0.21,0.44-0.33,0.6c-0.12,0.17-0.28,0.29-0.47,0.39
				c-0.19,0.09-0.42,0.14-0.68,0.14h-0.67V102.03z"/>
			<path class="st7" d="M469.99,107.34h0.89l1.59,4.13l1.54-4.13h0.87l-2.06,5.23h-0.77L469.99,107.34z"/>
			<path class="st7" d="M476.67,105.42v0.97h-0.96v-0.97H476.67z M475.78,107.34h0.82v5.23h-0.82V107.34z"/>
			<path class="st7" d="M481.06,107.44c0.3,0.14,0.53,0.36,0.7,0.63s0.25,0.61,0.25,0.99v3.51h-0.8v-1.96h0.21
				c0,0.44-0.08,0.81-0.22,1.12c-0.15,0.31-0.36,0.55-0.64,0.71c-0.28,0.16-0.61,0.25-1,0.25c-0.33,0-0.63-0.06-0.9-0.19
				c-0.27-0.13-0.48-0.31-0.63-0.54c-0.15-0.23-0.23-0.49-0.23-0.78c0-0.27,0.07-0.52,0.21-0.75c0.14-0.23,0.34-0.42,0.59-0.56
				s0.53-0.24,0.84-0.27l1.39-0.15c0.12-0.01,0.21-0.06,0.27-0.14c0.06-0.08,0.1-0.2,0.1-0.36l0.06,1.07l-1.71,0.19
				c-0.18,0.02-0.33,0.07-0.47,0.16c-0.14,0.09-0.25,0.2-0.32,0.33c-0.08,0.14-0.12,0.29-0.12,0.45c0,0.18,0.05,0.33,0.14,0.47
				c0.09,0.14,0.22,0.24,0.39,0.32c0.17,0.08,0.36,0.11,0.57,0.11c0.29,0,0.55-0.06,0.77-0.18c0.22-0.12,0.39-0.29,0.51-0.5
				c0.12-0.22,0.18-0.47,0.18-0.75v-1.66c0-0.21-0.05-0.39-0.15-0.55s-0.24-0.28-0.42-0.37s-0.39-0.13-0.62-0.13
				s-0.45,0.04-0.63,0.12c-0.19,0.08-0.34,0.19-0.45,0.32c-0.11,0.13-0.18,0.28-0.21,0.44h-0.82c0.04-0.3,0.16-0.56,0.35-0.8
				c0.19-0.24,0.44-0.42,0.75-0.56c0.31-0.14,0.64-0.2,1.02-0.2C480.42,107.22,480.77,107.29,481.06,107.44z"/>
			<path class="st7" d="M486.87,112.21c-0.53-0.32-0.95-0.76-1.25-1.33s-0.45-1.19-0.45-1.89c0-0.69,0.15-1.32,0.45-1.89
				s0.72-1.01,1.25-1.33c0.53-0.32,1.13-0.48,1.78-0.48c0.54,0,1.04,0.11,1.51,0.34c0.47,0.23,0.85,0.53,1.16,0.91
				c0.3,0.38,0.49,0.78,0.55,1.2h-0.85c-0.07-0.29-0.22-0.56-0.44-0.82c-0.23-0.26-0.51-0.47-0.85-0.63s-0.7-0.24-1.07-0.24
				c-0.5,0-0.94,0.12-1.34,0.38c-0.4,0.25-0.71,0.6-0.93,1.04c-0.22,0.44-0.34,0.95-0.34,1.5c0,0.56,0.11,1.06,0.34,1.5
				c0.22,0.44,0.54,0.79,0.93,1.04c0.4,0.25,0.84,0.38,1.34,0.38c0.38,0,0.74-0.08,1.07-0.24s0.62-0.37,0.85-0.63
				c0.23-0.26,0.38-0.53,0.44-0.82h0.85c-0.07,0.43-0.25,0.83-0.55,1.2c-0.3,0.38-0.69,0.68-1.16,0.91s-0.97,0.34-1.51,0.34
				C488,112.69,487.41,112.53,486.87,112.21z"/>
			<path class="st7" d="M493.98,112.34c-0.41-0.24-0.73-0.56-0.96-0.98c-0.23-0.42-0.35-0.88-0.35-1.4c0-0.52,0.12-0.98,0.35-1.4
				c0.23-0.42,0.55-0.74,0.96-0.98c0.41-0.24,0.86-0.35,1.36-0.35c0.5,0,0.95,0.12,1.35,0.35c0.4,0.24,0.72,0.56,0.96,0.98
				c0.23,0.42,0.35,0.88,0.35,1.4c0,0.52-0.12,0.99-0.35,1.4c-0.23,0.42-0.55,0.74-0.96,0.98c-0.41,0.24-0.86,0.35-1.36,0.35
				C494.84,112.69,494.39,112.57,493.98,112.34z M496.26,111.69c0.27-0.17,0.49-0.4,0.64-0.7c0.16-0.3,0.24-0.65,0.24-1.04
				c0-0.39-0.08-0.74-0.24-1.04c-0.16-0.3-0.37-0.54-0.65-0.7c-0.27-0.17-0.58-0.25-0.92-0.25c-0.34,0-0.65,0.08-0.92,0.25
				c-0.28,0.17-0.49,0.4-0.65,0.7c-0.16,0.3-0.24,0.65-0.24,1.04c0,0.39,0.08,0.74,0.24,1.04s0.38,0.54,0.65,0.7
				c0.28,0.17,0.59,0.25,0.93,0.25C495.69,111.94,495.99,111.86,496.26,111.69z"/>
			<path class="st7" d="M499.97,112.33c-0.4-0.24-0.71-0.57-0.94-0.98c-0.23-0.42-0.34-0.88-0.34-1.4c0-0.51,0.11-0.98,0.34-1.4
				c0.23-0.42,0.54-0.74,0.94-0.98c0.4-0.24,0.84-0.36,1.34-0.36c0.42,0,0.79,0.07,1.13,0.21c0.33,0.14,0.61,0.35,0.83,0.63
				c0.22,0.28,0.37,0.62,0.45,1.03h-0.82c-0.08-0.25-0.19-0.46-0.35-0.63c-0.16-0.17-0.35-0.3-0.56-0.38
				c-0.21-0.08-0.44-0.13-0.68-0.13c-0.34,0-0.64,0.09-0.91,0.26c-0.27,0.17-0.48,0.41-0.62,0.71c-0.15,0.3-0.22,0.65-0.22,1.03
				c0,0.38,0.07,0.72,0.22,1.03c0.15,0.3,0.36,0.54,0.62,0.71s0.57,0.26,0.91,0.26c0.24,0,0.47-0.04,0.68-0.12
				c0.21-0.08,0.4-0.21,0.56-0.38c0.16-0.17,0.28-0.38,0.35-0.63h0.82c-0.08,0.39-0.23,0.73-0.46,1.02
				c-0.23,0.28-0.51,0.5-0.85,0.64c-0.34,0.15-0.71,0.22-1.11,0.22C500.81,112.69,500.37,112.57,499.97,112.33z"/>
			<path class="st7" d="M505.71,112.34c-0.41-0.24-0.73-0.56-0.96-0.98c-0.23-0.42-0.35-0.88-0.35-1.4c0-0.52,0.12-0.98,0.35-1.4
				c0.23-0.42,0.55-0.74,0.96-0.98c0.41-0.24,0.86-0.35,1.36-0.35c0.5,0,0.95,0.12,1.35,0.35c0.4,0.24,0.72,0.56,0.96,0.98
				c0.23,0.42,0.35,0.88,0.35,1.4c0,0.52-0.12,0.99-0.35,1.4c-0.23,0.42-0.55,0.74-0.96,0.98c-0.41,0.24-0.86,0.35-1.36,0.35
				C506.57,112.69,506.12,112.57,505.71,112.34z M507.99,111.69c0.27-0.17,0.49-0.4,0.64-0.7c0.16-0.3,0.24-0.65,0.24-1.04
				c0-0.39-0.08-0.74-0.24-1.04c-0.16-0.3-0.37-0.54-0.65-0.7c-0.27-0.17-0.58-0.25-0.92-0.25c-0.34,0-0.65,0.08-0.92,0.25
				c-0.28,0.17-0.49,0.4-0.65,0.7c-0.16,0.3-0.24,0.65-0.24,1.04c0,0.39,0.08,0.74,0.24,1.04s0.38,0.54,0.65,0.7
				c0.28,0.17,0.59,0.25,0.93,0.25C507.41,111.94,507.72,111.86,507.99,111.69z"/>
			<path class="st7" d="M513.75,107.44c0.3,0.14,0.53,0.36,0.7,0.63s0.25,0.61,0.25,0.99v3.51h-0.8v-1.96h0.21
				c0,0.44-0.08,0.81-0.22,1.12c-0.15,0.31-0.36,0.55-0.64,0.71c-0.28,0.16-0.61,0.25-1,0.25c-0.33,0-0.63-0.06-0.9-0.19
				c-0.27-0.13-0.48-0.31-0.63-0.54c-0.15-0.23-0.23-0.49-0.23-0.78c0-0.27,0.07-0.52,0.21-0.75c0.14-0.23,0.34-0.42,0.59-0.56
				s0.53-0.24,0.84-0.27l1.39-0.15c0.12-0.01,0.21-0.06,0.27-0.14c0.06-0.08,0.1-0.2,0.1-0.36l0.06,1.07l-1.71,0.19
				c-0.18,0.02-0.33,0.07-0.47,0.16c-0.14,0.09-0.25,0.2-0.32,0.33c-0.08,0.14-0.12,0.29-0.12,0.45c0,0.18,0.05,0.33,0.14,0.47
				c0.09,0.14,0.22,0.24,0.39,0.32c0.17,0.08,0.36,0.11,0.57,0.11c0.29,0,0.55-0.06,0.77-0.18c0.22-0.12,0.39-0.29,0.51-0.5
				c0.12-0.22,0.18-0.47,0.18-0.75v-1.66c0-0.21-0.05-0.39-0.15-0.55s-0.24-0.28-0.42-0.37s-0.39-0.13-0.62-0.13
				s-0.45,0.04-0.63,0.12c-0.19,0.08-0.34,0.19-0.45,0.32c-0.11,0.13-0.18,0.28-0.21,0.44h-0.82c0.04-0.3,0.16-0.56,0.35-0.8
				c0.19-0.24,0.44-0.42,0.75-0.56c0.31-0.14,0.64-0.2,1.02-0.2C513.1,107.22,513.45,107.29,513.75,107.44z"/>
			<path class="st7" d="M516.33,105.42h2.89c0.46,0,0.86,0.08,1.2,0.26c0.35,0.17,0.61,0.41,0.8,0.72c0.19,0.31,0.28,0.68,0.28,1.09
				s-0.1,0.78-0.29,1.09c-0.19,0.31-0.46,0.56-0.81,0.73s-0.76,0.26-1.23,0.26h-2v2.99h-0.85V105.42z M519.95,108.63
				c0.21-0.11,0.37-0.26,0.49-0.45s0.17-0.42,0.17-0.68c0-0.26-0.06-0.48-0.17-0.68s-0.28-0.34-0.49-0.45
				c-0.21-0.1-0.45-0.16-0.73-0.16h-2.04v2.57h2.04C519.5,108.79,519.74,108.73,519.95,108.63z"/>
			<path class="st7" d="M523.13,112.34c-0.41-0.24-0.73-0.56-0.96-0.98c-0.23-0.42-0.35-0.88-0.35-1.4c0-0.52,0.12-0.98,0.35-1.4
				c0.23-0.42,0.55-0.74,0.96-0.98c0.41-0.24,0.86-0.35,1.36-0.35c0.5,0,0.95,0.12,1.35,0.35c0.4,0.24,0.72,0.56,0.96,0.98
				c0.23,0.42,0.35,0.88,0.35,1.4c0,0.52-0.12,0.99-0.35,1.4c-0.23,0.42-0.55,0.74-0.96,0.98c-0.41,0.24-0.86,0.35-1.36,0.35
				C523.99,112.69,523.54,112.57,523.13,112.34z M525.41,111.69c0.27-0.17,0.49-0.4,0.64-0.7c0.16-0.3,0.24-0.65,0.24-1.04
				c0-0.39-0.08-0.74-0.24-1.04c-0.16-0.3-0.37-0.54-0.65-0.7c-0.27-0.17-0.58-0.25-0.92-0.25c-0.34,0-0.65,0.08-0.92,0.25
				c-0.28,0.17-0.49,0.4-0.65,0.7c-0.16,0.3-0.24,0.65-0.24,1.04c0,0.39,0.08,0.74,0.24,1.04s0.38,0.54,0.65,0.7
				c0.28,0.17,0.59,0.25,0.93,0.25C524.84,111.94,525.14,111.86,525.41,111.69z"/>
			<path class="st7" d="M529.05,112.35c-0.38-0.23-0.67-0.55-0.89-0.97s-0.32-0.89-0.32-1.42s0.11-1.01,0.32-1.42
				s0.51-0.74,0.89-0.97c0.38-0.23,0.81-0.34,1.3-0.34c0.45,0,0.85,0.1,1.19,0.3c0.34,0.2,0.61,0.48,0.8,0.84
				c0.19,0.36,0.29,0.77,0.3,1.25h-0.34v0.7h0.34c-0.01,0.47-0.11,0.89-0.3,1.25c-0.19,0.36-0.46,0.64-0.8,0.84s-0.74,0.3-1.19,0.3
				C529.86,112.69,529.43,112.58,529.05,112.35z M531.41,111.7c0.27-0.17,0.48-0.4,0.63-0.7s0.23-0.65,0.23-1.04
				c0-0.39-0.08-0.74-0.23-1.04c-0.15-0.3-0.36-0.54-0.63-0.7c-0.27-0.17-0.58-0.25-0.93-0.25c-0.35,0-0.66,0.08-0.92,0.25
				s-0.48,0.4-0.63,0.7c-0.15,0.3-0.22,0.65-0.22,1.04c0,0.39,0.08,0.74,0.22,1.04c0.15,0.3,0.36,0.54,0.63,0.7s0.58,0.25,0.92,0.25
				C530.83,111.95,531.14,111.87,531.41,111.7z M532.26,105.42h0.82v7.15h-0.82V105.42z"/>
			<path class="st7" d="M535.24,112.5c-0.32-0.13-0.57-0.3-0.76-0.53c-0.19-0.23-0.29-0.48-0.3-0.77H535
				c0.01,0.16,0.08,0.3,0.19,0.42c0.12,0.12,0.27,0.22,0.46,0.29c0.19,0.07,0.4,0.11,0.64,0.11c0.24,0,0.45-0.04,0.63-0.12
				c0.18-0.08,0.32-0.19,0.42-0.33c0.1-0.14,0.15-0.3,0.15-0.47c0-0.13-0.02-0.24-0.07-0.34s-0.12-0.19-0.21-0.25
				s-0.2-0.11-0.33-0.14l-1.26-0.23c-0.27-0.05-0.49-0.14-0.69-0.27c-0.19-0.13-0.34-0.29-0.44-0.49c-0.1-0.2-0.15-0.43-0.15-0.68
				c0-0.28,0.08-0.53,0.24-0.75c0.16-0.23,0.38-0.41,0.67-0.54c0.29-0.13,0.61-0.2,0.98-0.2c0.36,0,0.69,0.06,0.99,0.18
				c0.29,0.12,0.53,0.28,0.7,0.5c0.17,0.21,0.27,0.45,0.28,0.7h-0.83c-0.01-0.14-0.07-0.26-0.17-0.37c-0.1-0.11-0.23-0.19-0.4-0.25
				c-0.17-0.06-0.35-0.09-0.56-0.09c-0.21,0-0.4,0.04-0.56,0.11c-0.16,0.07-0.29,0.17-0.38,0.29c-0.09,0.12-0.14,0.26-0.14,0.42
				c0,0.12,0.02,0.22,0.06,0.31c0.04,0.09,0.11,0.17,0.19,0.22c0.09,0.06,0.2,0.1,0.32,0.13l1.29,0.23
				c0.26,0.05,0.49,0.14,0.69,0.28c0.19,0.14,0.34,0.31,0.44,0.52s0.15,0.43,0.15,0.68c0,0.31-0.09,0.58-0.26,0.83
				c-0.17,0.25-0.42,0.44-0.72,0.58c-0.31,0.14-0.65,0.21-1.03,0.21C535.91,112.69,535.56,112.63,535.24,112.5z"/>
			<path class="st7" d="M542.53,112.34c-0.41-0.24-0.73-0.56-0.96-0.98c-0.23-0.42-0.35-0.88-0.35-1.4c0-0.52,0.12-0.98,0.35-1.4
				c0.23-0.42,0.55-0.74,0.96-0.98c0.41-0.24,0.86-0.35,1.36-0.35s0.95,0.12,1.35,0.35c0.41,0.24,0.72,0.56,0.96,0.98
				c0.23,0.42,0.35,0.88,0.35,1.4c0,0.52-0.12,0.99-0.35,1.4c-0.23,0.42-0.55,0.74-0.96,0.98c-0.4,0.24-0.86,0.35-1.36,0.35
				C543.38,112.69,542.93,112.57,542.53,112.34z M544.81,111.69c0.27-0.17,0.49-0.4,0.64-0.7s0.23-0.65,0.23-1.04
				c0-0.39-0.08-0.74-0.23-1.04c-0.16-0.3-0.37-0.54-0.65-0.7c-0.27-0.17-0.58-0.25-0.92-0.25c-0.34,0-0.65,0.08-0.92,0.25
				c-0.28,0.17-0.49,0.4-0.65,0.7c-0.16,0.3-0.24,0.65-0.24,1.04c0,0.39,0.08,0.74,0.24,1.04s0.38,0.54,0.65,0.7
				c0.28,0.17,0.59,0.25,0.93,0.25C544.23,111.94,544.54,111.86,544.81,111.69z"/>
			<path class="st7" d="M547.68,107.34h0.82v1.75l-0.34,0.51c0.01-0.47,0.1-0.88,0.26-1.23c0.16-0.35,0.38-0.62,0.66-0.8
				s0.61-0.28,0.99-0.28h0.18v0.85h-0.21c-0.31,0-0.58,0.06-0.81,0.18s-0.41,0.29-0.53,0.51c-0.12,0.22-0.19,0.48-0.19,0.77v2.97
				h-0.82V107.34z"/>
			<path class="st7" d="M554.16,112.42c-0.38-0.18-0.67-0.43-0.88-0.76c-0.21-0.32-0.31-0.69-0.31-1.11h0.87
				c0,0.27,0.07,0.51,0.2,0.71c0.14,0.21,0.33,0.37,0.58,0.48c0.25,0.12,0.53,0.17,0.85,0.17c0.32,0,0.59-0.05,0.83-0.16
				c0.24-0.11,0.42-0.26,0.56-0.45c0.13-0.2,0.2-0.42,0.2-0.68c0-0.32-0.1-0.6-0.29-0.83c-0.19-0.23-0.45-0.37-0.77-0.43l-1.15-0.2
				c-0.35-0.06-0.65-0.18-0.9-0.36c-0.25-0.18-0.45-0.4-0.59-0.67c-0.14-0.27-0.2-0.56-0.2-0.88c0-0.37,0.1-0.71,0.29-1
				c0.2-0.3,0.47-0.53,0.82-0.7c0.35-0.17,0.74-0.26,1.18-0.26c0.45,0,0.85,0.08,1.2,0.25s0.62,0.4,0.82,0.7
				c0.19,0.3,0.29,0.64,0.29,1.03h-0.87c0-0.23-0.06-0.44-0.18-0.63s-0.29-0.33-0.5-0.43s-0.46-0.15-0.75-0.15
				c-0.28,0-0.53,0.05-0.75,0.15c-0.22,0.1-0.39,0.24-0.51,0.42c-0.12,0.18-0.18,0.39-0.18,0.63c0,0.28,0.09,0.53,0.27,0.73
				s0.42,0.33,0.72,0.38l1.17,0.2c0.34,0.06,0.64,0.19,0.91,0.39s0.47,0.45,0.62,0.74c0.15,0.29,0.22,0.6,0.22,0.92
				c0,0.38-0.1,0.73-0.31,1.05c-0.21,0.31-0.5,0.56-0.87,0.75c-0.37,0.18-0.8,0.27-1.28,0.27
				C554.97,112.69,554.53,112.6,554.16,112.42z"/>
			<path class="st7" d="M559.43,105.42h2.89c0.46,0,0.86,0.08,1.2,0.26c0.34,0.17,0.61,0.41,0.8,0.72c0.19,0.31,0.28,0.68,0.28,1.09
				s-0.1,0.78-0.29,1.09c-0.19,0.31-0.46,0.56-0.81,0.73s-0.76,0.26-1.22,0.26h-2v2.99h-0.85V105.42z M563.05,108.63
				c0.21-0.11,0.37-0.26,0.48-0.45c0.11-0.19,0.17-0.42,0.17-0.68c0-0.26-0.06-0.48-0.17-0.68c-0.11-0.19-0.28-0.34-0.48-0.45
				c-0.21-0.1-0.45-0.16-0.73-0.16h-2.04v2.57h2.04C562.59,108.79,562.84,108.73,563.05,108.63z"/>
			<path class="st7" d="M565.75,105.42h1.06l2.56,5.73l0.13,0.36l0.13-0.36l2.52-5.73h1.08v7.15h-0.85v-5.65v-0.13l-2.53,5.78h-0.71
				l-2.55-5.75v0.1v5.65h-0.84V105.42z"/>
		</g>
	</g>
	<g>
		<g>
			<path class="st1" d="M261.65,255.74l0,17.67c0,8.05,6.53,14.58,14.58,14.58l147.54,0c8.05,0,14.58-6.53,14.58-14.58v-17.67"/>
		</g>
		<g>
			<g>
				<path class="st7" d="M291.88,293.84h2.89c0.46,0,0.86,0.08,1.2,0.25c0.35,0.17,0.61,0.41,0.8,0.73
					c0.19,0.31,0.28,0.68,0.28,1.09c0,0.42-0.1,0.78-0.29,1.09c-0.19,0.31-0.46,0.56-0.81,0.73s-0.76,0.26-1.23,0.26h-2v2.99h-0.85
					V293.84z M295.5,297.05c0.21-0.11,0.37-0.25,0.49-0.45c0.11-0.19,0.17-0.42,0.17-0.68c0-0.26-0.06-0.48-0.17-0.68
					c-0.11-0.19-0.28-0.34-0.49-0.45c-0.21-0.1-0.45-0.16-0.73-0.16h-2.04v2.57h2.04C295.05,297.2,295.29,297.15,295.5,297.05z"/>
				<path class="st7" d="M302.28,300.99h-0.79v-2.26h0.33c0,0.48-0.08,0.9-0.25,1.26c-0.17,0.36-0.4,0.64-0.71,0.83
					c-0.31,0.19-0.67,0.29-1.09,0.29c-0.37,0-0.71-0.08-1-0.24c-0.29-0.16-0.52-0.4-0.68-0.71s-0.25-0.68-0.25-1.12v-3.28h0.82v3.2
					c0,0.3,0.05,0.56,0.16,0.78c0.11,0.21,0.26,0.38,0.46,0.49s0.43,0.17,0.71,0.17c0.29,0,0.55-0.06,0.78-0.19
					c0.22-0.13,0.4-0.31,0.52-0.54c0.12-0.23,0.19-0.5,0.19-0.8v-3.1h0.82V300.99z"/>
				<path class="st7" d="M303.86,293.84h0.82v7.15h-0.82V293.84z M305.4,300.81c-0.34-0.2-0.61-0.48-0.8-0.84
					c-0.19-0.36-0.29-0.77-0.3-1.25h0.34v-0.7h-0.34c0.01-0.47,0.11-0.89,0.3-1.25s0.46-0.64,0.8-0.84c0.34-0.2,0.74-0.3,1.19-0.3
					c0.49,0,0.92,0.11,1.3,0.34c0.38,0.23,0.68,0.55,0.89,0.97c0.21,0.42,0.32,0.89,0.32,1.42s-0.11,1.01-0.32,1.42
					c-0.21,0.42-0.51,0.74-0.89,0.97c-0.38,0.23-0.81,0.34-1.3,0.34C306.14,301.11,305.74,301.01,305.4,300.81z M307.38,300.12
					c0.27-0.17,0.48-0.4,0.63-0.7c0.15-0.3,0.22-0.65,0.22-1.04c0-0.39-0.08-0.74-0.22-1.04s-0.36-0.54-0.63-0.7
					c-0.27-0.17-0.58-0.25-0.92-0.25c-0.35,0-0.66,0.08-0.93,0.25s-0.48,0.4-0.64,0.7s-0.23,0.65-0.23,1.04
					c0,0.39,0.08,0.74,0.23,1.04c0.15,0.3,0.36,0.54,0.64,0.7s0.58,0.25,0.93,0.25C306.81,300.37,307.11,300.28,307.38,300.12z"/>
				<path class="st7" d="M310.23,293.84h0.82v7.15h-0.82V293.84z"/>
				<path class="st7" d="M313.52,293.84v0.97h-0.96v-0.97H313.52z M312.63,295.76h0.82v5.23h-0.82V295.76z"/>
				<path class="st7" d="M315.69,300.92c-0.32-0.13-0.57-0.3-0.76-0.53c-0.19-0.23-0.29-0.48-0.3-0.77h0.83
					c0.01,0.16,0.08,0.3,0.19,0.42c0.12,0.12,0.27,0.22,0.46,0.29c0.19,0.07,0.4,0.11,0.64,0.11c0.24,0,0.45-0.04,0.63-0.12
					s0.32-0.19,0.42-0.33s0.15-0.3,0.15-0.47c0-0.13-0.02-0.24-0.07-0.34s-0.12-0.19-0.21-0.25s-0.2-0.11-0.33-0.14l-1.26-0.23
					c-0.27-0.05-0.49-0.14-0.69-0.27s-0.34-0.29-0.44-0.49c-0.1-0.2-0.15-0.43-0.15-0.68c0-0.28,0.08-0.53,0.24-0.75
					c0.16-0.23,0.38-0.41,0.67-0.54c0.29-0.13,0.61-0.2,0.98-0.2c0.36,0,0.69,0.06,0.99,0.18c0.29,0.12,0.53,0.28,0.7,0.5
					s0.27,0.45,0.28,0.7h-0.83c-0.01-0.14-0.07-0.26-0.17-0.37c-0.1-0.11-0.23-0.19-0.4-0.26c-0.17-0.06-0.35-0.09-0.56-0.09
					c-0.21,0-0.4,0.04-0.56,0.11c-0.16,0.07-0.29,0.17-0.38,0.29c-0.09,0.12-0.14,0.26-0.14,0.42c0,0.12,0.02,0.22,0.06,0.31
					c0.04,0.09,0.11,0.17,0.19,0.22c0.09,0.06,0.2,0.1,0.32,0.12l1.29,0.23c0.26,0.05,0.49,0.14,0.69,0.28
					c0.19,0.14,0.34,0.31,0.44,0.52s0.15,0.43,0.15,0.68c0,0.31-0.09,0.58-0.26,0.83c-0.17,0.25-0.42,0.44-0.72,0.58
					c-0.31,0.14-0.65,0.21-1.03,0.21C316.36,301.11,316,301.05,315.69,300.92z"/>
				<path class="st7" d="M319.94,293.84h0.79v1.65v0.93v1.6h-0.33c0-0.48,0.08-0.9,0.25-1.26s0.41-0.64,0.71-0.83
					s0.67-0.29,1.09-0.29c0.37,0,0.71,0.08,1,0.24c0.29,0.16,0.52,0.4,0.68,0.71c0.17,0.31,0.25,0.69,0.25,1.12v3.28h-0.82v-3.2
					c0-0.3-0.05-0.56-0.16-0.78c-0.11-0.21-0.26-0.38-0.46-0.49s-0.43-0.17-0.7-0.17c-0.29,0-0.55,0.06-0.78,0.19
					s-0.4,0.31-0.52,0.54c-0.12,0.23-0.19,0.5-0.19,0.8v3.1h-0.82V293.84z"/>
				<path class="st7" d="M326.61,300.76c-0.39-0.23-0.7-0.56-0.92-0.98c-0.22-0.42-0.33-0.89-0.33-1.42c0-0.51,0.11-0.98,0.33-1.39
					c0.22-0.42,0.53-0.74,0.92-0.98c0.39-0.24,0.83-0.35,1.31-0.35c0.49,0,0.93,0.12,1.3,0.35c0.37,0.23,0.66,0.56,0.86,0.98
					c0.2,0.42,0.3,0.88,0.3,1.41v0.2h-4.22l0.01-0.22c0,0.39,0.08,0.75,0.24,1.06c0.15,0.31,0.37,0.55,0.64,0.73
					c0.27,0.17,0.58,0.26,0.92,0.26c0.23,0,0.44-0.03,0.64-0.08c0.2-0.06,0.37-0.14,0.51-0.25c0.14-0.11,0.26-0.23,0.33-0.38h0.82
					c-0.06,0.22-0.19,0.44-0.38,0.65c-0.2,0.22-0.46,0.4-0.8,0.55c-0.34,0.15-0.72,0.22-1.17,0.22
					C327.44,301.11,327,300.99,326.61,300.76z M326.18,297.9h3.4v0.46c0-0.4-0.06-0.75-0.19-1.05c-0.13-0.3-0.31-0.54-0.56-0.7
					c-0.25-0.17-0.54-0.25-0.89-0.25c-0.35,0-0.65,0.08-0.92,0.24s-0.47,0.39-0.62,0.69c-0.15,0.3-0.22,0.64-0.22,1.04L326.18,297.9
					z"/>
				<path class="st7" d="M332.3,300.76c-0.38-0.23-0.68-0.55-0.89-0.97c-0.21-0.42-0.32-0.89-0.32-1.42s0.11-1.01,0.32-1.42
					c0.21-0.42,0.51-0.74,0.89-0.97c0.38-0.23,0.81-0.34,1.3-0.34c0.45,0,0.85,0.1,1.19,0.3c0.34,0.2,0.61,0.48,0.8,0.84
					s0.29,0.77,0.3,1.25h-0.34v0.7h0.34c-0.01,0.47-0.11,0.89-0.3,1.25c-0.19,0.36-0.46,0.64-0.8,0.84c-0.34,0.2-0.74,0.3-1.19,0.3
					C333.11,301.11,332.68,300.99,332.3,300.76z M334.66,300.12c0.27-0.17,0.48-0.4,0.64-0.7c0.15-0.3,0.23-0.65,0.23-1.04
					c0-0.39-0.08-0.74-0.23-1.04s-0.36-0.54-0.64-0.7s-0.58-0.25-0.93-0.25c-0.35,0-0.66,0.08-0.92,0.25
					c-0.27,0.17-0.48,0.4-0.63,0.7c-0.15,0.3-0.22,0.65-0.22,1.04c0,0.39,0.07,0.74,0.22,1.04c0.15,0.3,0.36,0.54,0.63,0.7
					c0.27,0.17,0.58,0.25,0.92,0.25C334.08,300.37,334.39,300.28,334.66,300.12z M335.51,293.84h0.82v7.15h-0.82V293.84z"/>
				<path class="st7" d="M343.04,295.85c0.3,0.15,0.53,0.36,0.7,0.63s0.25,0.61,0.25,0.99v3.51h-0.8v-1.95h0.21
					c0,0.44-0.08,0.81-0.22,1.12s-0.36,0.55-0.64,0.71c-0.28,0.16-0.61,0.25-1,0.25c-0.33,0-0.63-0.06-0.9-0.19
					s-0.48-0.31-0.63-0.54s-0.23-0.49-0.23-0.78c0-0.27,0.07-0.52,0.21-0.75c0.14-0.23,0.34-0.42,0.59-0.56
					c0.25-0.15,0.53-0.24,0.84-0.27l1.39-0.15c0.12-0.01,0.21-0.06,0.27-0.14s0.1-0.2,0.1-0.36l0.06,1.07l-1.71,0.19
					c-0.18,0.02-0.33,0.07-0.47,0.16c-0.14,0.08-0.24,0.2-0.32,0.33c-0.08,0.14-0.11,0.29-0.11,0.45c0,0.18,0.05,0.33,0.14,0.47
					s0.22,0.24,0.39,0.32c0.17,0.08,0.36,0.12,0.57,0.12c0.29,0,0.55-0.06,0.77-0.18s0.39-0.29,0.51-0.5
					c0.12-0.22,0.18-0.47,0.18-0.75v-1.66c0-0.21-0.05-0.39-0.15-0.55c-0.1-0.16-0.24-0.28-0.42-0.37
					c-0.18-0.09-0.39-0.13-0.62-0.13c-0.24,0-0.45,0.04-0.63,0.12c-0.19,0.08-0.34,0.19-0.45,0.32s-0.18,0.28-0.21,0.44h-0.82
					c0.04-0.3,0.16-0.56,0.35-0.8s0.44-0.42,0.75-0.56c0.31-0.14,0.64-0.2,1.02-0.2C342.39,295.64,342.74,295.71,343.04,295.85z"/>
				<path class="st7" d="M346.07,300.92c-0.32-0.13-0.57-0.3-0.76-0.53c-0.19-0.23-0.29-0.48-0.3-0.77h0.83
					c0.01,0.16,0.08,0.3,0.19,0.42c0.12,0.12,0.27,0.22,0.46,0.29c0.19,0.07,0.4,0.11,0.64,0.11c0.24,0,0.45-0.04,0.63-0.12
					c0.18-0.08,0.32-0.19,0.42-0.33c0.1-0.14,0.15-0.3,0.15-0.47c0-0.13-0.02-0.24-0.07-0.34c-0.05-0.1-0.12-0.19-0.21-0.25
					c-0.09-0.07-0.2-0.11-0.33-0.14l-1.26-0.23c-0.27-0.05-0.5-0.14-0.69-0.27c-0.19-0.13-0.34-0.29-0.44-0.49s-0.15-0.43-0.15-0.68
					c0-0.28,0.08-0.53,0.24-0.75c0.16-0.23,0.38-0.41,0.67-0.54s0.61-0.2,0.98-0.2c0.36,0,0.69,0.06,0.98,0.18
					c0.29,0.12,0.53,0.28,0.7,0.5c0.17,0.21,0.27,0.45,0.28,0.7h-0.83c-0.01-0.14-0.07-0.26-0.17-0.37s-0.23-0.19-0.4-0.26
					c-0.17-0.06-0.35-0.09-0.56-0.09c-0.21,0-0.4,0.04-0.56,0.11c-0.16,0.07-0.29,0.17-0.38,0.29c-0.09,0.12-0.13,0.26-0.13,0.42
					c0,0.12,0.02,0.22,0.06,0.31c0.04,0.09,0.11,0.17,0.19,0.22s0.19,0.1,0.32,0.12l1.29,0.23c0.27,0.05,0.49,0.14,0.69,0.28
					c0.19,0.14,0.34,0.31,0.44,0.52c0.1,0.21,0.15,0.43,0.15,0.68c0,0.31-0.09,0.58-0.26,0.83c-0.18,0.25-0.42,0.44-0.72,0.58
					c-0.31,0.14-0.65,0.21-1.03,0.21C346.74,301.11,346.38,301.05,346.07,300.92z"/>
				<path class="st7" d="M355.53,295.85c0.3,0.15,0.53,0.36,0.7,0.63s0.25,0.61,0.25,0.99v3.51h-0.8v-1.95h0.21
					c0,0.44-0.08,0.81-0.22,1.12s-0.36,0.55-0.64,0.71c-0.28,0.16-0.61,0.25-1,0.25c-0.33,0-0.63-0.06-0.9-0.19
					s-0.48-0.31-0.63-0.54s-0.23-0.49-0.23-0.78c0-0.27,0.07-0.52,0.21-0.75c0.14-0.23,0.34-0.42,0.59-0.56
					c0.25-0.15,0.53-0.24,0.84-0.27l1.39-0.15c0.12-0.01,0.21-0.06,0.27-0.14s0.1-0.2,0.1-0.36l0.06,1.07l-1.71,0.19
					c-0.18,0.02-0.33,0.07-0.47,0.16c-0.14,0.08-0.24,0.2-0.32,0.33c-0.08,0.14-0.11,0.29-0.11,0.45c0,0.18,0.05,0.33,0.14,0.47
					s0.22,0.24,0.39,0.32c0.17,0.08,0.36,0.12,0.57,0.12c0.29,0,0.55-0.06,0.77-0.18s0.39-0.29,0.51-0.5
					c0.12-0.22,0.18-0.47,0.18-0.75v-1.66c0-0.21-0.05-0.39-0.15-0.55c-0.1-0.16-0.24-0.28-0.42-0.37
					c-0.18-0.09-0.39-0.13-0.62-0.13c-0.24,0-0.45,0.04-0.63,0.12c-0.19,0.08-0.34,0.19-0.45,0.32s-0.18,0.28-0.21,0.44h-0.82
					c0.04-0.3,0.16-0.56,0.35-0.8s0.44-0.42,0.75-0.56c0.31-0.14,0.64-0.2,1.02-0.2C354.88,295.64,355.23,295.71,355.53,295.85z"/>
				<path class="st7" d="M360.63,296.48h-0.92v-0.72h0.92v-0.68c0-0.24,0.06-0.46,0.17-0.64c0.11-0.19,0.27-0.33,0.47-0.44
					c0.2-0.1,0.43-0.16,0.69-0.16h0.84v0.72h-0.79c-0.17,0-0.3,0.05-0.41,0.16c-0.1,0.1-0.16,0.24-0.16,0.41v0.63h1.3v0.72h-1.3v4.5
					h-0.82V296.48z"/>
				<path class="st7" d="M363.93,295.76h0.82v1.75l-0.34,0.51c0.01-0.47,0.1-0.88,0.26-1.23s0.38-0.62,0.66-0.8
					c0.28-0.19,0.61-0.28,0.99-0.28h0.18v0.85h-0.21c-0.31,0-0.58,0.06-0.81,0.18s-0.41,0.29-0.53,0.51
					c-0.12,0.22-0.19,0.48-0.19,0.77v2.97h-0.82V295.76z"/>
				<path class="st7" d="M370.15,295.85c0.3,0.15,0.53,0.36,0.7,0.63s0.25,0.61,0.25,0.99v3.51h-0.8v-1.95h0.21
					c0,0.44-0.08,0.81-0.22,1.12c-0.15,0.31-0.36,0.55-0.64,0.71c-0.28,0.16-0.61,0.25-1,0.25c-0.33,0-0.63-0.06-0.9-0.19
					c-0.27-0.13-0.48-0.31-0.63-0.54c-0.15-0.23-0.23-0.49-0.23-0.78c0-0.27,0.07-0.52,0.21-0.75c0.14-0.23,0.34-0.42,0.59-0.56
					c0.25-0.15,0.53-0.24,0.84-0.27l1.39-0.15c0.12-0.01,0.21-0.06,0.27-0.14s0.1-0.2,0.1-0.36l0.06,1.07l-1.71,0.19
					c-0.18,0.02-0.33,0.07-0.47,0.16s-0.25,0.2-0.32,0.33c-0.08,0.14-0.12,0.29-0.12,0.45c0,0.18,0.05,0.33,0.14,0.47
					s0.22,0.24,0.39,0.32c0.17,0.08,0.36,0.12,0.57,0.12c0.29,0,0.55-0.06,0.77-0.18c0.22-0.12,0.39-0.29,0.51-0.5
					c0.12-0.22,0.18-0.47,0.18-0.75v-1.66c0-0.21-0.05-0.39-0.15-0.55s-0.24-0.28-0.42-0.37c-0.18-0.09-0.39-0.13-0.62-0.13
					s-0.45,0.04-0.63,0.12c-0.19,0.08-0.34,0.19-0.45,0.32c-0.11,0.13-0.18,0.28-0.21,0.44H367c0.04-0.3,0.16-0.56,0.35-0.8
					c0.19-0.24,0.44-0.42,0.75-0.56c0.31-0.14,0.64-0.2,1.02-0.2C369.51,295.64,369.85,295.71,370.15,295.85z"/>
				<path class="st7" d="M372.53,295.76h0.79v2.26h-0.28c0-0.49,0.08-0.91,0.23-1.27s0.37-0.63,0.66-0.82
					c0.29-0.19,0.63-0.29,1.02-0.29c0.37,0,0.7,0.08,0.97,0.25s0.5,0.41,0.65,0.72c0.15,0.31,0.23,0.67,0.23,1.08v3.3h-0.82v-3.26
					c0-0.29-0.05-0.53-0.15-0.74c-0.1-0.21-0.24-0.37-0.42-0.48s-0.41-0.17-0.67-0.17c-0.28,0-0.53,0.06-0.74,0.19
					c-0.21,0.13-0.37,0.31-0.49,0.54c-0.11,0.23-0.17,0.51-0.17,0.83v3.1h-0.82V295.76z M379.28,296.98
					c-0.1-0.21-0.24-0.37-0.42-0.48s-0.41-0.17-0.67-0.17c-0.28,0-0.52,0.06-0.74,0.19c-0.21,0.13-0.37,0.31-0.49,0.54
					c-0.12,0.23-0.17,0.51-0.17,0.82l-0.46,0.13c0-0.47,0.08-0.88,0.24-1.25c0.16-0.36,0.4-0.64,0.7-0.84c0.3-0.2,0.66-0.3,1.06-0.3
					c0.37,0,0.7,0.08,0.99,0.25c0.29,0.17,0.51,0.41,0.67,0.72c0.16,0.31,0.24,0.67,0.24,1.08v3.3h-0.82v-3.26
					C379.43,297.44,379.38,297.19,379.28,296.98z"/>
				<path class="st7" d="M382.47,300.76c-0.39-0.23-0.7-0.56-0.92-0.98s-0.33-0.89-0.33-1.42c0-0.51,0.11-0.98,0.33-1.39
					c0.22-0.42,0.53-0.74,0.92-0.98c0.39-0.24,0.83-0.35,1.31-0.35c0.49,0,0.93,0.12,1.3,0.35c0.37,0.23,0.66,0.56,0.86,0.98
					s0.3,0.88,0.3,1.41v0.2h-4.22l0.01-0.22c0,0.39,0.08,0.75,0.24,1.06c0.16,0.31,0.37,0.55,0.64,0.73
					c0.27,0.17,0.58,0.26,0.92,0.26c0.23,0,0.44-0.03,0.64-0.08c0.2-0.06,0.37-0.14,0.51-0.25c0.14-0.11,0.26-0.23,0.33-0.38h0.82
					c-0.06,0.22-0.19,0.44-0.39,0.65c-0.2,0.22-0.46,0.4-0.8,0.55c-0.33,0.15-0.72,0.22-1.17,0.22
					C383.31,301.11,382.87,300.99,382.47,300.76z M382.04,297.9h3.4v0.46c0-0.4-0.06-0.75-0.19-1.05c-0.13-0.3-0.31-0.54-0.56-0.7
					c-0.25-0.17-0.54-0.25-0.89-0.25c-0.35,0-0.65,0.08-0.92,0.24c-0.26,0.16-0.47,0.39-0.62,0.69s-0.22,0.64-0.22,1.04
					L382.04,297.9z"/>
				<path class="st7" d="M386.65,295.76h0.88l1.23,3.76l0.12,0.44l0.11-0.44l1.29-3.76h0.78l1.32,3.76l0.12,0.44l0.11-0.44l1.2-3.76
					h0.86l-1.79,5.23h-0.81l-1.29-3.93l-0.1-0.36l-0.09,0.35l-1.34,3.94h-0.8L386.65,295.76z"/>
				<path class="st7" d="M396.35,300.75c-0.41-0.24-0.73-0.56-0.96-0.98c-0.23-0.42-0.35-0.88-0.35-1.4c0-0.52,0.12-0.98,0.35-1.4
					c0.23-0.42,0.55-0.74,0.96-0.98c0.41-0.24,0.86-0.35,1.36-0.35c0.5,0,0.95,0.12,1.35,0.35c0.4,0.24,0.72,0.56,0.96,0.98
					c0.23,0.42,0.35,0.88,0.35,1.4s-0.12,0.99-0.35,1.4c-0.23,0.42-0.55,0.74-0.96,0.98c-0.41,0.24-0.86,0.35-1.36,0.35
					C397.21,301.11,396.76,300.99,396.35,300.75z M398.63,300.11c0.27-0.17,0.49-0.4,0.64-0.7c0.16-0.3,0.24-0.65,0.24-1.04
					c0-0.39-0.08-0.74-0.24-1.04c-0.16-0.3-0.37-0.54-0.65-0.7c-0.27-0.17-0.58-0.25-0.92-0.25c-0.34,0-0.65,0.08-0.92,0.25
					c-0.28,0.17-0.49,0.4-0.65,0.7c-0.16,0.3-0.24,0.65-0.24,1.04c0,0.39,0.08,0.74,0.24,1.04c0.16,0.3,0.38,0.54,0.65,0.7
					c0.28,0.17,0.59,0.25,0.93,0.25C398.06,300.36,398.36,300.28,398.63,300.11z"/>
				<path class="st7" d="M401.51,295.76h0.82v1.75l-0.34,0.51c0.01-0.47,0.1-0.88,0.26-1.23s0.38-0.62,0.66-0.8
					c0.28-0.19,0.61-0.28,0.99-0.28h0.18v0.85h-0.21c-0.31,0-0.58,0.06-0.81,0.18s-0.41,0.29-0.53,0.51
					c-0.12,0.22-0.19,0.48-0.19,0.77v2.97h-0.82V295.76z"/>
				<path class="st7" d="M404.95,293.84h0.82v4.37l2.37-2.45h1.02l-2.38,2.49l2.48,2.74h-1.05l-2.42-2.63v2.63h-0.82V293.84z"/>
			</g>
		</g>
	</g>
	<g>
		<g>
			<g>
				<g>
					<path class="st2" d="M678.24,150.42H542.56c-6.04,0-10.94,4.9-10.94,10.94v83.59c0,6.04,4.9,10.94,10.94,10.94h135.68
						c6.04,0,10.94-4.9,10.94-10.94v-83.59C689.18,155.31,684.28,150.42,678.24,150.42z"/>
				</g>
			</g>
		</g>
		<g>
			<g>
				<path d="M583.89,198.7v1.21h-1.2v-1.21H583.89z M582.78,201.1h1.02v6.53h-1.02V201.1z"/>
				<path d="M587.82,207.18c-0.67-0.4-1.2-0.96-1.59-1.66s-0.58-1.49-0.58-2.36s0.19-1.65,0.58-2.36s0.92-1.26,1.59-1.66
					c0.67-0.4,1.42-0.6,2.25-0.6c0.82,0,1.57,0.2,2.24,0.6c0.67,0.4,1.21,0.96,1.59,1.66s0.58,1.49,0.58,2.36s-0.19,1.65-0.58,2.36
					s-0.92,1.26-1.59,1.66c-0.67,0.4-1.42,0.6-2.24,0.6C589.24,207.78,588.49,207.58,587.82,207.18z M591.76,206.35
					c0.51-0.31,0.9-0.75,1.19-1.3c0.29-0.55,0.43-1.18,0.43-1.88c0-0.7-0.14-1.33-0.42-1.89c-0.28-0.56-0.68-0.99-1.18-1.3
					s-1.08-0.47-1.71-0.47c-0.63,0-1.2,0.16-1.7,0.47c-0.5,0.31-0.9,0.75-1.19,1.3c-0.29,0.55-0.43,1.18-0.43,1.88
					c0,0.7,0.14,1.33,0.43,1.88c0.29,0.55,0.68,0.99,1.19,1.3c0.5,0.31,1.07,0.47,1.7,0.47
					C590.69,206.81,591.25,206.66,591.76,206.35z"/>
				<path d="M597.4,207.45c-0.47-0.23-0.83-0.54-1.1-0.94s-0.39-0.87-0.39-1.39h1.08c0,0.34,0.08,0.63,0.25,0.89
					s0.41,0.46,0.72,0.61s0.67,0.22,1.07,0.22c0.4,0,0.74-0.07,1.04-0.2c0.3-0.13,0.53-0.32,0.7-0.57c0.16-0.24,0.25-0.53,0.25-0.85
					c0-0.4-0.12-0.75-0.36-1.04c-0.24-0.29-0.56-0.47-0.96-0.54l-1.44-0.25c-0.43-0.08-0.81-0.23-1.13-0.45
					c-0.32-0.23-0.56-0.51-0.73-0.84c-0.17-0.34-0.25-0.7-0.25-1.1c0-0.46,0.12-0.88,0.37-1.25c0.24-0.37,0.58-0.66,1.02-0.88
					c0.44-0.21,0.93-0.32,1.47-0.32c0.56,0,1.06,0.11,1.5,0.32c0.44,0.21,0.78,0.5,1.02,0.88c0.24,0.37,0.36,0.8,0.36,1.28h-1.08
					c0-0.29-0.07-0.56-0.22-0.79c-0.15-0.23-0.36-0.41-0.63-0.54c-0.27-0.13-0.58-0.19-0.93-0.19c-0.35,0-0.67,0.06-0.94,0.19
					c-0.27,0.12-0.48,0.3-0.63,0.52c-0.15,0.23-0.23,0.49-0.23,0.79c0,0.35,0.11,0.66,0.34,0.91c0.23,0.25,0.53,0.41,0.9,0.48
					l1.47,0.25c0.42,0.08,0.8,0.24,1.14,0.49s0.59,0.56,0.77,0.92c0.18,0.36,0.27,0.75,0.27,1.15c0,0.48-0.13,0.92-0.39,1.31
					c-0.26,0.39-0.62,0.7-1.09,0.93c-0.47,0.23-1,0.34-1.6,0.34C598.41,207.78,597.87,207.67,597.4,207.45z"/>
				<path d="M610.75,201.22c0.38,0.18,0.67,0.44,0.87,0.79s0.31,0.76,0.31,1.23v4.39h-1v-2.44h0.27c0,0.54-0.09,1.01-0.28,1.4
					c-0.19,0.39-0.46,0.69-0.8,0.89c-0.35,0.2-0.76,0.31-1.24,0.31c-0.42,0-0.79-0.08-1.13-0.24s-0.6-0.38-0.79-0.67
					s-0.29-0.61-0.29-0.97c0-0.34,0.09-0.65,0.26-0.94s0.42-0.52,0.73-0.71c0.31-0.18,0.66-0.3,1.06-0.34l1.74-0.19
					c0.14-0.02,0.26-0.08,0.34-0.18c0.08-0.1,0.12-0.25,0.12-0.45l0.08,1.34l-2.14,0.24c-0.22,0.03-0.42,0.09-0.59,0.2
					c-0.17,0.11-0.31,0.24-0.4,0.41c-0.1,0.17-0.14,0.36-0.14,0.56c0,0.22,0.06,0.42,0.17,0.59c0.12,0.17,0.28,0.3,0.49,0.4
					s0.45,0.14,0.71,0.14c0.37,0,0.69-0.07,0.96-0.22c0.27-0.15,0.49-0.36,0.63-0.63c0.15-0.27,0.22-0.58,0.22-0.93v-2.08
					c0-0.26-0.06-0.49-0.19-0.69c-0.12-0.2-0.3-0.35-0.52-0.46s-0.48-0.16-0.78-0.16c-0.29,0-0.56,0.05-0.79,0.15
					c-0.23,0.1-0.42,0.23-0.56,0.4s-0.23,0.35-0.26,0.55h-1.02c0.05-0.37,0.2-0.7,0.44-1c0.24-0.3,0.55-0.53,0.93-0.7
					c0.38-0.17,0.81-0.26,1.27-0.26C609.94,200.94,610.37,201.04,610.75,201.22z"/>
				<path d="M614.96,201.1v1.28h0.03v7.31h-1.02v-8.59H614.96z M615.91,207.41c-0.43-0.25-0.76-0.6-1-1.05s-0.37-0.97-0.37-1.56
					h0.42v-0.88h-0.42c0.01-0.59,0.13-1.11,0.37-1.56s0.58-0.8,1-1.05c0.43-0.25,0.92-0.37,1.49-0.37c0.61,0,1.15,0.14,1.62,0.43
					c0.47,0.29,0.84,0.69,1.11,1.21c0.27,0.52,0.4,1.11,0.4,1.78c0,0.67-0.13,1.26-0.4,1.78c-0.27,0.52-0.64,0.92-1.11,1.21
					c-0.47,0.29-1.02,0.43-1.62,0.43C616.83,207.78,616.34,207.66,615.91,207.41z M618.39,206.54c0.34-0.21,0.6-0.5,0.79-0.88
					c0.19-0.38,0.28-0.81,0.28-1.3c0-0.49-0.09-0.92-0.28-1.3c-0.19-0.38-0.45-0.67-0.79-0.88c-0.34-0.21-0.72-0.32-1.15-0.32
					c-0.44,0-0.83,0.1-1.17,0.32c-0.34,0.21-0.61,0.5-0.79,0.88c-0.19,0.38-0.28,0.81-0.28,1.3c0,0.49,0.09,0.92,0.28,1.3
					c0.19,0.38,0.45,0.67,0.79,0.88s0.73,0.32,1.17,0.32C617.67,206.86,618.05,206.75,618.39,206.54z"/>
				<path d="M623.2,201.1v1.28h0.03v7.31h-1.02v-8.59H623.2z M624.15,207.41c-0.43-0.25-0.76-0.6-1-1.05s-0.36-0.97-0.37-1.56h0.42
					v-0.88h-0.42c0.01-0.59,0.13-1.11,0.37-1.56s0.58-0.8,1-1.05c0.43-0.25,0.93-0.37,1.49-0.37c0.61,0,1.15,0.14,1.62,0.43
					c0.47,0.29,0.84,0.69,1.11,1.21s0.4,1.11,0.4,1.78c0,0.67-0.13,1.26-0.4,1.78c-0.27,0.52-0.64,0.92-1.11,1.21
					c-0.47,0.29-1.02,0.43-1.62,0.43C625.07,207.78,624.57,207.66,624.15,207.41z M626.63,206.54c0.34-0.21,0.6-0.5,0.78-0.88
					c0.19-0.38,0.28-0.81,0.28-1.3c0-0.49-0.09-0.92-0.28-1.3c-0.19-0.38-0.45-0.67-0.78-0.88c-0.34-0.21-0.72-0.32-1.16-0.32
					c-0.44,0-0.83,0.1-1.17,0.32c-0.34,0.21-0.61,0.5-0.79,0.88c-0.19,0.38-0.28,0.81-0.28,1.3c0,0.49,0.09,0.92,0.28,1.3
					c0.19,0.38,0.45,0.67,0.79,0.88c0.34,0.21,0.73,0.32,1.17,0.32C625.91,206.86,626.29,206.75,626.63,206.54z"/>
			</g>
		</g>
	</g>
	<g>
		<g>
			<path class="st1" d="M264.75,160.8v-27.67c0-8.05-6.53-14.58-14.58-14.58H102.62c-8.05,0-14.58,6.53-14.58,14.58l0,27.67"/>
			<g>
				<path class="st7" d="M129.59,105.42h2.89c0.46,0,0.86,0.08,1.2,0.26c0.35,0.17,0.61,0.41,0.8,0.72
					c0.19,0.31,0.28,0.68,0.28,1.09s-0.1,0.78-0.29,1.09c-0.19,0.31-0.46,0.56-0.81,0.73s-0.76,0.26-1.23,0.26h-2v2.99h-0.85V105.42
					z M133.21,108.63c0.21-0.11,0.37-0.26,0.49-0.45s0.17-0.42,0.17-0.68c0-0.26-0.06-0.48-0.17-0.68s-0.28-0.34-0.49-0.45
					c-0.21-0.1-0.45-0.16-0.73-0.16h-2.04v2.57h2.04C132.76,108.79,133.01,108.73,133.21,108.63z M131.87,109.4h0.95l1.97,3.16
					h-0.99L131.87,109.4z"/>
				<path class="st7" d="M136.63,112.34c-0.39-0.23-0.7-0.56-0.92-0.98c-0.22-0.42-0.33-0.89-0.33-1.42c0-0.51,0.11-0.98,0.33-1.39
					c0.22-0.42,0.53-0.74,0.92-0.98c0.39-0.24,0.83-0.35,1.31-0.35c0.49,0,0.93,0.12,1.3,0.35c0.37,0.23,0.66,0.56,0.86,0.98
					c0.2,0.42,0.3,0.88,0.3,1.41v0.2h-4.22l0.01-0.22c0,0.4,0.08,0.75,0.24,1.06c0.15,0.31,0.37,0.55,0.64,0.73
					c0.27,0.17,0.58,0.26,0.92,0.26c0.23,0,0.44-0.03,0.64-0.08c0.2-0.06,0.37-0.14,0.51-0.25c0.14-0.11,0.26-0.23,0.33-0.38h0.82
					c-0.06,0.22-0.19,0.44-0.38,0.65c-0.2,0.22-0.46,0.4-0.8,0.55c-0.34,0.15-0.72,0.22-1.17,0.22
					C137.46,112.69,137.02,112.57,136.63,112.34z M136.19,109.48h3.4v0.46c0-0.4-0.06-0.75-0.19-1.05s-0.31-0.54-0.56-0.7
					c-0.25-0.17-0.54-0.25-0.89-0.25c-0.35,0-0.65,0.08-0.92,0.24s-0.47,0.39-0.62,0.69c-0.15,0.3-0.22,0.64-0.22,1.04
					L136.19,109.48z"/>
				<path class="st7" d="M142.59,114.15c-0.32-0.12-0.59-0.29-0.81-0.51c-0.21-0.22-0.35-0.47-0.41-0.76h0.82
					c0.07,0.16,0.19,0.29,0.33,0.4c0.15,0.11,0.32,0.19,0.51,0.25c0.19,0.05,0.39,0.08,0.6,0.08c0.33,0,0.63-0.07,0.88-0.2
					c0.25-0.13,0.44-0.32,0.58-0.56s0.2-0.52,0.2-0.84v-0.21l0.04-1.48l0.42-0.52c-0.01,0.46-0.11,0.88-0.31,1.24
					c-0.2,0.36-0.47,0.64-0.81,0.84c-0.34,0.2-0.73,0.3-1.15,0.3c-0.44,0-0.84-0.11-1.2-0.32c-0.36-0.21-0.64-0.51-0.84-0.88
					s-0.31-0.8-0.31-1.27c0-0.47,0.1-0.9,0.31-1.28c0.2-0.38,0.49-0.67,0.84-0.89s0.76-0.32,1.2-0.32c0.43,0,0.81,0.1,1.15,0.31
					s0.61,0.49,0.81,0.85c0.2,0.36,0.3,0.78,0.31,1.25l-0.42-0.46v-1.82h0.79l-0.02,4.67c0,0.45-0.1,0.85-0.31,1.21
					s-0.49,0.63-0.86,0.82c-0.37,0.19-0.8,0.29-1.28,0.29C143.27,114.32,142.92,114.26,142.59,114.15z M144.48,111.24
					c0.25-0.15,0.45-0.36,0.59-0.63c0.15-0.27,0.22-0.57,0.22-0.9c0-0.33-0.07-0.63-0.22-0.9c-0.15-0.27-0.34-0.48-0.59-0.64
					s-0.53-0.23-0.84-0.23c-0.31,0-0.6,0.08-0.85,0.23c-0.25,0.15-0.45,0.37-0.59,0.64c-0.14,0.27-0.21,0.57-0.21,0.9
					c0,0.33,0.07,0.63,0.21,0.9c0.14,0.27,0.34,0.48,0.59,0.63c0.25,0.15,0.53,0.23,0.85,0.23
					C143.95,111.47,144.23,111.39,144.48,111.24z"/>
				<path class="st7" d="M151.98,112.57h-0.79v-2.26h0.33c0,0.48-0.08,0.9-0.25,1.26c-0.17,0.36-0.41,0.64-0.71,0.83
					s-0.67,0.29-1.09,0.29c-0.38,0-0.71-0.08-1-0.24c-0.29-0.16-0.52-0.4-0.68-0.71c-0.17-0.31-0.25-0.69-0.25-1.12v-3.28h0.82v3.2
					c0,0.3,0.05,0.56,0.16,0.78s0.26,0.38,0.46,0.49s0.43,0.17,0.7,0.17c0.29,0,0.55-0.06,0.78-0.19s0.4-0.31,0.52-0.54
					c0.12-0.23,0.19-0.5,0.19-0.8v-3.1h0.82V112.57z"/>
				<path class="st7" d="M153.56,105.42h0.82v7.15h-0.82V105.42z"/>
				<path class="st7" d="M158.84,107.44c0.3,0.14,0.53,0.36,0.7,0.63s0.25,0.61,0.25,0.99v3.51h-0.8v-1.96h0.21
					c0,0.44-0.08,0.81-0.22,1.12c-0.15,0.31-0.36,0.55-0.64,0.71c-0.28,0.16-0.61,0.25-1,0.25c-0.33,0-0.63-0.06-0.9-0.19
					c-0.27-0.13-0.48-0.31-0.63-0.54c-0.15-0.23-0.23-0.49-0.23-0.78c0-0.27,0.07-0.52,0.21-0.75c0.14-0.23,0.34-0.42,0.59-0.56
					s0.53-0.24,0.84-0.27l1.39-0.15c0.12-0.01,0.21-0.06,0.27-0.14c0.06-0.08,0.1-0.2,0.1-0.36l0.06,1.07l-1.71,0.19
					c-0.18,0.02-0.33,0.07-0.47,0.16c-0.14,0.09-0.25,0.2-0.32,0.33c-0.08,0.14-0.12,0.29-0.12,0.45c0,0.18,0.05,0.33,0.14,0.47
					c0.09,0.14,0.22,0.24,0.39,0.32c0.17,0.08,0.36,0.11,0.57,0.11c0.29,0,0.55-0.06,0.77-0.18c0.22-0.12,0.39-0.29,0.51-0.5
					c0.12-0.22,0.18-0.47,0.18-0.75v-1.66c0-0.21-0.05-0.39-0.15-0.55s-0.24-0.28-0.42-0.37s-0.39-0.13-0.62-0.13
					s-0.45,0.04-0.63,0.12c-0.19,0.08-0.34,0.19-0.45,0.32c-0.11,0.13-0.18,0.28-0.21,0.44h-0.82c0.04-0.3,0.16-0.56,0.35-0.8
					c0.19-0.24,0.44-0.42,0.75-0.56c0.31-0.14,0.64-0.2,1.02-0.2C158.2,107.22,158.55,107.29,158.84,107.44z"/>
				<path class="st7" d="M161.22,107.34h0.82v1.75l-0.34,0.51c0.01-0.47,0.1-0.88,0.26-1.23c0.16-0.35,0.38-0.62,0.66-0.8
					s0.61-0.28,0.99-0.28h0.18v0.85h-0.21c-0.31,0-0.58,0.06-0.81,0.18s-0.41,0.29-0.53,0.51c-0.12,0.22-0.19,0.48-0.19,0.77v2.97
					h-0.82V107.34z"/>
				<path class="st7" d="M167.44,112.35c-0.38-0.23-0.68-0.55-0.89-0.97c-0.21-0.42-0.32-0.89-0.32-1.42s0.11-1.01,0.32-1.42
					c0.21-0.42,0.51-0.74,0.89-0.97c0.38-0.23,0.81-0.34,1.3-0.34c0.45,0,0.85,0.1,1.19,0.3c0.34,0.2,0.61,0.48,0.8,0.84
					c0.19,0.36,0.29,0.77,0.3,1.25h-0.34v0.7h0.34c-0.01,0.47-0.11,0.89-0.3,1.25s-0.46,0.64-0.8,0.84s-0.74,0.3-1.19,0.3
					C168.26,112.69,167.82,112.58,167.44,112.35z M169.8,111.7c0.27-0.17,0.48-0.4,0.64-0.7s0.23-0.65,0.23-1.04
					c0-0.39-0.08-0.74-0.23-1.04c-0.15-0.3-0.36-0.54-0.64-0.7s-0.58-0.25-0.93-0.25c-0.35,0-0.66,0.08-0.92,0.25
					c-0.27,0.17-0.48,0.4-0.63,0.7c-0.15,0.3-0.22,0.65-0.22,1.04c0,0.39,0.07,0.74,0.22,1.04c0.15,0.3,0.36,0.54,0.63,0.7
					c0.27,0.17,0.58,0.25,0.92,0.25C169.22,111.95,169.53,111.87,169.8,111.7z M170.65,105.42h0.82v7.15h-0.82V105.42z"/>
				<path class="st7" d="M173.78,112.34c-0.39-0.23-0.7-0.56-0.92-0.98c-0.22-0.42-0.33-0.89-0.33-1.42c0-0.51,0.11-0.98,0.33-1.39
					c0.22-0.42,0.53-0.74,0.92-0.98c0.39-0.24,0.83-0.35,1.31-0.35c0.49,0,0.93,0.12,1.3,0.35c0.37,0.23,0.66,0.56,0.86,0.98
					c0.2,0.42,0.3,0.88,0.3,1.41v0.2h-4.22l0.01-0.22c0,0.4,0.08,0.75,0.24,1.06c0.15,0.31,0.37,0.55,0.64,0.73
					c0.27,0.17,0.58,0.26,0.92,0.26c0.23,0,0.44-0.03,0.64-0.08c0.2-0.06,0.37-0.14,0.51-0.25c0.14-0.11,0.26-0.23,0.33-0.38h0.82
					c-0.06,0.22-0.19,0.44-0.38,0.65c-0.2,0.22-0.46,0.4-0.8,0.55c-0.34,0.15-0.72,0.22-1.17,0.22
					C174.61,112.69,174.17,112.57,173.78,112.34z M173.34,109.48h3.4v0.46c0-0.4-0.06-0.75-0.19-1.05s-0.31-0.54-0.56-0.7
					c-0.25-0.17-0.54-0.25-0.89-0.25c-0.35,0-0.65,0.08-0.92,0.24s-0.47,0.39-0.62,0.69c-0.15,0.3-0.22,0.64-0.22,1.04
					L173.34,109.48z"/>
				<path class="st7" d="M179.5,107.34v1.02h0.02v5.85h-0.82v-6.87H179.5z M180.25,112.39c-0.34-0.2-0.61-0.48-0.8-0.84
					s-0.29-0.77-0.3-1.25h0.34v-0.7h-0.34c0.01-0.47,0.11-0.89,0.3-1.25c0.19-0.36,0.46-0.64,0.8-0.84c0.34-0.2,0.74-0.3,1.19-0.3
					c0.49,0,0.92,0.11,1.3,0.34c0.38,0.23,0.68,0.55,0.89,0.97c0.21,0.42,0.32,0.89,0.32,1.42s-0.11,1.01-0.32,1.42
					c-0.21,0.42-0.51,0.74-0.89,0.97c-0.38,0.23-0.81,0.34-1.3,0.34C180.99,112.69,180.6,112.59,180.25,112.39z M182.24,111.7
					c0.27-0.17,0.48-0.4,0.63-0.7c0.15-0.3,0.22-0.65,0.22-1.04c0-0.39-0.07-0.74-0.22-1.04c-0.15-0.3-0.36-0.54-0.63-0.7
					c-0.27-0.17-0.58-0.25-0.92-0.25c-0.35,0-0.66,0.08-0.93,0.25s-0.48,0.4-0.64,0.7c-0.15,0.3-0.23,0.65-0.23,1.04
					c0,0.39,0.08,0.74,0.23,1.04s0.36,0.54,0.64,0.7s0.58,0.25,0.93,0.25C181.66,111.95,181.97,111.87,182.24,111.7z"/>
				<path class="st7" d="M185.89,112.34c-0.39-0.23-0.7-0.56-0.92-0.98c-0.22-0.42-0.33-0.89-0.33-1.42c0-0.51,0.11-0.98,0.33-1.39
					s0.53-0.74,0.92-0.98c0.39-0.24,0.83-0.35,1.31-0.35c0.49,0,0.93,0.12,1.3,0.35c0.37,0.23,0.66,0.56,0.86,0.98
					c0.2,0.42,0.3,0.88,0.3,1.41v0.2h-4.22l0.01-0.22c0,0.4,0.08,0.75,0.24,1.06c0.16,0.31,0.37,0.55,0.64,0.73s0.58,0.26,0.92,0.26
					c0.23,0,0.44-0.03,0.64-0.08c0.2-0.06,0.37-0.14,0.51-0.25c0.14-0.11,0.26-0.23,0.33-0.38h0.82c-0.06,0.22-0.19,0.44-0.39,0.65
					c-0.2,0.22-0.46,0.4-0.8,0.55c-0.33,0.15-0.72,0.22-1.17,0.22C186.72,112.69,186.28,112.57,185.89,112.34z M185.45,109.48h3.4
					v0.46c0-0.4-0.06-0.75-0.19-1.05c-0.13-0.3-0.31-0.54-0.56-0.7c-0.25-0.17-0.54-0.25-0.89-0.25c-0.35,0-0.65,0.08-0.92,0.24
					c-0.26,0.16-0.47,0.39-0.62,0.69c-0.15,0.3-0.22,0.64-0.22,1.04L185.45,109.48z"/>
				<path class="st7" d="M190.81,107.34h0.79v2.26h-0.33c0-0.48,0.08-0.9,0.25-1.26c0.17-0.36,0.41-0.64,0.71-0.83
					c0.31-0.19,0.67-0.29,1.09-0.29c0.37,0,0.71,0.08,1,0.24s0.52,0.4,0.68,0.71c0.17,0.31,0.25,0.68,0.25,1.12v3.28h-0.82v-3.2
					c0-0.3-0.05-0.56-0.16-0.78s-0.26-0.38-0.46-0.49s-0.43-0.17-0.7-0.17c-0.29,0-0.55,0.06-0.78,0.19
					c-0.22,0.13-0.4,0.31-0.52,0.54c-0.12,0.23-0.19,0.5-0.19,0.8v3.1h-0.82V107.34z"/>
				<path class="st7" d="M197.44,112.35c-0.38-0.23-0.68-0.55-0.89-0.97c-0.21-0.42-0.32-0.89-0.32-1.42s0.11-1.01,0.32-1.42
					c0.21-0.42,0.51-0.74,0.89-0.97c0.38-0.23,0.81-0.34,1.3-0.34c0.45,0,0.85,0.1,1.19,0.3c0.34,0.2,0.61,0.48,0.8,0.84
					c0.19,0.36,0.29,0.77,0.3,1.25h-0.34v0.7h0.34c-0.01,0.47-0.11,0.89-0.3,1.25s-0.46,0.64-0.8,0.84s-0.74,0.3-1.19,0.3
					C198.26,112.69,197.82,112.58,197.44,112.35z M199.81,111.7c0.27-0.17,0.48-0.4,0.64-0.7s0.23-0.65,0.23-1.04
					c0-0.39-0.08-0.74-0.23-1.04c-0.15-0.3-0.36-0.54-0.64-0.7s-0.58-0.25-0.93-0.25c-0.35,0-0.66,0.08-0.92,0.25
					c-0.27,0.17-0.48,0.4-0.63,0.7c-0.15,0.3-0.22,0.65-0.22,1.04c0,0.39,0.07,0.74,0.22,1.04c0.15,0.3,0.36,0.54,0.63,0.7
					c0.27,0.17,0.58,0.25,0.92,0.25C199.22,111.95,199.53,111.87,199.81,111.7z M200.65,105.42h0.82v7.15h-0.82V105.42z"/>
				<path class="st7" d="M203.78,112.34c-0.39-0.23-0.7-0.56-0.92-0.98c-0.22-0.42-0.33-0.89-0.33-1.42c0-0.51,0.11-0.98,0.33-1.39
					c0.22-0.42,0.53-0.74,0.92-0.98c0.39-0.24,0.83-0.35,1.31-0.35c0.49,0,0.93,0.12,1.3,0.35c0.37,0.23,0.66,0.56,0.86,0.98
					c0.2,0.42,0.3,0.88,0.3,1.41v0.2h-4.22l0.01-0.22c0,0.4,0.08,0.75,0.24,1.06c0.15,0.31,0.37,0.55,0.64,0.73
					c0.27,0.17,0.58,0.26,0.92,0.26c0.23,0,0.44-0.03,0.64-0.08c0.2-0.06,0.37-0.14,0.51-0.25c0.14-0.11,0.26-0.23,0.33-0.38h0.82
					c-0.06,0.22-0.19,0.44-0.38,0.65c-0.2,0.22-0.46,0.4-0.8,0.55c-0.34,0.15-0.72,0.22-1.17,0.22
					C204.61,112.69,204.17,112.57,203.78,112.34z M203.34,109.48h3.4v0.46c0-0.4-0.06-0.75-0.19-1.05s-0.31-0.54-0.56-0.7
					c-0.25-0.17-0.54-0.25-0.89-0.25c-0.35,0-0.65,0.08-0.92,0.24s-0.47,0.39-0.62,0.69c-0.15,0.3-0.22,0.64-0.22,1.04
					L203.34,109.48z"/>
				<path class="st7" d="M208.7,107.34h0.79v2.26h-0.33c0-0.48,0.08-0.9,0.25-1.26s0.41-0.64,0.71-0.83
					c0.31-0.19,0.67-0.29,1.09-0.29c0.37,0,0.71,0.08,1,0.24s0.52,0.4,0.68,0.71c0.17,0.31,0.25,0.68,0.25,1.12v3.28h-0.82v-3.2
					c0-0.3-0.05-0.56-0.16-0.78c-0.11-0.21-0.26-0.38-0.46-0.49s-0.43-0.17-0.7-0.17c-0.29,0-0.55,0.06-0.78,0.19
					c-0.22,0.13-0.4,0.31-0.52,0.54c-0.12,0.23-0.19,0.5-0.19,0.8v3.1h-0.82V107.34z"/>
				<path class="st7" d="M215.4,112.33c-0.4-0.24-0.71-0.57-0.94-0.98c-0.23-0.42-0.34-0.88-0.34-1.4c0-0.51,0.11-0.98,0.34-1.4
					c0.23-0.42,0.54-0.74,0.94-0.98c0.4-0.24,0.84-0.36,1.34-0.36c0.42,0,0.79,0.07,1.13,0.21c0.33,0.14,0.61,0.35,0.83,0.63
					c0.22,0.28,0.37,0.62,0.45,1.03h-0.82c-0.07-0.25-0.19-0.46-0.35-0.63c-0.16-0.17-0.35-0.3-0.56-0.38
					c-0.21-0.08-0.44-0.13-0.68-0.13c-0.34,0-0.64,0.09-0.91,0.26c-0.27,0.17-0.48,0.41-0.63,0.71c-0.15,0.3-0.22,0.65-0.22,1.03
					c0,0.38,0.08,0.72,0.22,1.03c0.15,0.3,0.36,0.54,0.63,0.71c0.27,0.17,0.57,0.26,0.91,0.26c0.24,0,0.47-0.04,0.68-0.12
					c0.21-0.08,0.4-0.21,0.56-0.38c0.16-0.17,0.28-0.38,0.35-0.63h0.82c-0.08,0.39-0.23,0.73-0.46,1.02
					c-0.23,0.28-0.51,0.5-0.85,0.64c-0.34,0.15-0.71,0.22-1.11,0.22C216.25,112.69,215.8,112.57,215.4,112.33z"/>
				<path class="st7" d="M219.9,113.48h0.65c0.15,0,0.29-0.04,0.41-0.13s0.21-0.2,0.28-0.33l0.33-0.7l-2.07-4.98h0.87l1.61,3.94
					l1.48-3.94h0.86l-2.27,5.73c-0.09,0.24-0.21,0.44-0.33,0.6s-0.28,0.29-0.47,0.39c-0.19,0.09-0.41,0.14-0.68,0.14h-0.67V113.48z"
					/>
			</g>
		</g>
		<g>
			<g>
				<g>
					<g>
						<g>
							<path class="st2" d="M157.44,150.42H21.76c-6.04,0-10.94,4.9-10.94,10.94v83.59c0,6.04,4.9,10.94,10.94,10.94h135.68
								c6.04,0,10.94-4.9,10.94-10.94v-83.59C168.38,155.31,163.48,150.42,157.44,150.42z"/>
						</g>
					</g>
				</g>
				<g>
					<g>
						<path d="M51.12,198.7h1.14l3.43,8.93h-1.12l-0.86-2.37h-3.95l-0.8,2.37h-1.15L51.12,198.7z M53.36,204.34l-1.53-4.15
							l-0.15-0.54l-0.15,0.54l-1.45,4.15H53.36z"/>
						<path d="M57.08,201.1h0.98v2.83h-0.41c0-0.6,0.1-1.13,0.31-1.58c0.21-0.45,0.51-0.79,0.89-1.04c0.39-0.24,0.84-0.36,1.37-0.36
							c0.47,0,0.88,0.1,1.24,0.3c0.36,0.2,0.64,0.49,0.85,0.88c0.21,0.39,0.31,0.86,0.31,1.4v4.1h-1.02v-4c0-0.38-0.07-0.7-0.2-0.97
							c-0.13-0.27-0.32-0.47-0.57-0.61c-0.25-0.14-0.54-0.21-0.88-0.21c-0.37,0-0.69,0.08-0.97,0.24c-0.28,0.16-0.5,0.39-0.65,0.68
							c-0.16,0.29-0.23,0.62-0.23,1v3.87h-1.02V201.1z"/>
						<path d="M65.63,207.35c-0.47-0.29-0.84-0.69-1.11-1.21c-0.27-0.52-0.4-1.11-0.4-1.78c0-0.67,0.13-1.26,0.4-1.78
							s0.64-0.92,1.11-1.21c0.47-0.29,1.02-0.43,1.62-0.43c0.56,0,1.06,0.12,1.49,0.37c0.43,0.25,0.76,0.6,1,1.05
							s0.36,0.97,0.37,1.56H69.7v0.88h0.42c-0.01,0.59-0.13,1.11-0.37,1.56s-0.58,0.8-1,1.05s-0.93,0.37-1.49,0.37
							C66.65,207.78,66.1,207.64,65.63,207.35z M68.58,206.54c0.34-0.21,0.61-0.5,0.79-0.88c0.19-0.38,0.28-0.81,0.28-1.3
							c0-0.49-0.09-0.92-0.28-1.3c-0.19-0.38-0.45-0.67-0.79-0.88c-0.34-0.21-0.73-0.32-1.17-0.32c-0.43,0-0.82,0.1-1.16,0.32
							c-0.34,0.21-0.6,0.5-0.78,0.88c-0.19,0.38-0.28,0.81-0.28,1.3c0,0.49,0.09,0.92,0.28,1.3c0.19,0.38,0.45,0.67,0.78,0.88
							s0.72,0.32,1.16,0.32C67.85,206.86,68.24,206.75,68.58,206.54z M69.64,198.7h1.02v8.93h-1.02V198.7z"/>
						<path d="M72.8,201.1h1.02v2.19l-0.43,0.64c0.02-0.59,0.12-1.1,0.32-1.53c0.2-0.44,0.47-0.77,0.83-1
							c0.35-0.23,0.76-0.35,1.23-0.35H76v1.07h-0.27c-0.39,0-0.72,0.07-1.01,0.22c-0.29,0.15-0.51,0.36-0.67,0.64
							c-0.16,0.27-0.23,0.6-0.23,0.97v3.71H72.8V201.1z"/>
						<path d="M78.44,207.34c-0.51-0.3-0.91-0.7-1.2-1.22c-0.29-0.52-0.44-1.1-0.44-1.75c0-0.65,0.15-1.23,0.44-1.75
							c0.29-0.52,0.69-0.93,1.2-1.23c0.51-0.3,1.08-0.44,1.7-0.44s1.18,0.15,1.69,0.44c0.51,0.3,0.91,0.7,1.2,1.22
							c0.29,0.52,0.44,1.1,0.44,1.75c0,0.65-0.15,1.24-0.44,1.75c-0.29,0.52-0.69,0.93-1.2,1.22c-0.51,0.3-1.07,0.44-1.7,0.44
							C79.51,207.78,78.95,207.64,78.44,207.34z M81.3,206.54c0.34-0.21,0.61-0.5,0.8-0.88c0.2-0.38,0.29-0.81,0.29-1.3
							c0-0.49-0.1-0.92-0.29-1.3c-0.2-0.38-0.46-0.67-0.81-0.88c-0.34-0.21-0.73-0.31-1.15-0.31c-0.42,0-0.81,0.1-1.15,0.31
							c-0.34,0.21-0.62,0.5-0.81,0.88c-0.2,0.38-0.3,0.81-0.3,1.3c0,0.49,0.1,0.92,0.3,1.3c0.2,0.38,0.47,0.67,0.82,0.88
							c0.35,0.21,0.73,0.31,1.16,0.31C80.57,206.85,80.96,206.75,81.3,206.54z"/>
						<path d="M86.25,198.7v1.21h-1.2v-1.21H86.25z M85.14,201.1h1.02v6.53h-1.02V201.1z"/>
						<path d="M89.35,207.35c-0.47-0.29-0.84-0.69-1.11-1.21c-0.27-0.52-0.4-1.11-0.4-1.78c0-0.67,0.13-1.26,0.4-1.78
							s0.64-0.92,1.11-1.21c0.47-0.29,1.02-0.43,1.62-0.43c0.56,0,1.06,0.12,1.49,0.37c0.43,0.25,0.76,0.6,1,1.05
							s0.36,0.97,0.37,1.56h-0.42v0.88h0.42c-0.01,0.59-0.13,1.11-0.37,1.56s-0.58,0.8-1,1.05s-0.93,0.37-1.49,0.37
							C90.37,207.78,89.82,207.64,89.35,207.35z M92.3,206.54c0.34-0.21,0.61-0.5,0.79-0.88c0.19-0.38,0.28-0.81,0.28-1.3
							c0-0.49-0.09-0.92-0.28-1.3c-0.19-0.38-0.45-0.67-0.79-0.88c-0.34-0.21-0.73-0.32-1.17-0.32c-0.43,0-0.82,0.1-1.16,0.32
							c-0.34,0.21-0.6,0.5-0.78,0.88c-0.19,0.38-0.28,0.81-0.28,1.3c0,0.49,0.09,0.92,0.28,1.3c0.19,0.38,0.45,0.67,0.78,0.88
							s0.72,0.32,1.16,0.32C91.57,206.86,91.96,206.75,92.3,206.54z M93.36,198.7h1.02v8.93h-1.02V198.7z"/>
						<path d="M103.28,201.22c0.38,0.18,0.67,0.44,0.87,0.79s0.31,0.76,0.31,1.23v4.39h-1v-2.44h0.27c0,0.54-0.09,1.01-0.28,1.4
							c-0.19,0.39-0.46,0.69-0.8,0.89c-0.35,0.2-0.76,0.31-1.24,0.31c-0.42,0-0.79-0.08-1.13-0.24s-0.6-0.38-0.79-0.67
							s-0.29-0.61-0.29-0.97c0-0.34,0.09-0.65,0.26-0.94s0.42-0.52,0.73-0.71c0.31-0.18,0.66-0.3,1.06-0.34l1.74-0.19
							c0.14-0.02,0.26-0.08,0.34-0.18c0.08-0.1,0.12-0.25,0.12-0.45l0.08,1.34l-2.14,0.24c-0.22,0.03-0.42,0.09-0.59,0.2
							c-0.17,0.11-0.31,0.24-0.4,0.41c-0.1,0.17-0.14,0.36-0.14,0.56c0,0.22,0.06,0.42,0.17,0.59c0.12,0.17,0.28,0.3,0.49,0.4
							s0.45,0.14,0.71,0.14c0.37,0,0.69-0.07,0.96-0.22c0.27-0.15,0.49-0.36,0.63-0.63c0.15-0.27,0.22-0.58,0.22-0.93v-2.08
							c0-0.26-0.06-0.49-0.19-0.69c-0.12-0.2-0.3-0.35-0.52-0.46s-0.48-0.16-0.78-0.16c-0.29,0-0.56,0.05-0.79,0.15
							c-0.23,0.1-0.42,0.23-0.56,0.4s-0.23,0.35-0.26,0.55h-1.02c0.05-0.37,0.2-0.7,0.44-1c0.24-0.3,0.55-0.53,0.93-0.7
							c0.38-0.17,0.81-0.26,1.27-0.26C102.47,200.94,102.91,201.04,103.28,201.22z"/>
						<path d="M107.5,201.1v1.28h0.03v7.31h-1.02v-8.59H107.5z M108.44,207.41c-0.43-0.25-0.76-0.6-1-1.05s-0.37-0.97-0.37-1.56
							h0.42v-0.88h-0.42c0.01-0.59,0.13-1.11,0.37-1.56s0.58-0.8,1-1.05c0.43-0.25,0.92-0.37,1.49-0.37c0.61,0,1.15,0.14,1.62,0.43
							c0.47,0.29,0.84,0.69,1.11,1.21c0.27,0.52,0.4,1.11,0.4,1.78c0,0.67-0.13,1.26-0.4,1.78c-0.27,0.52-0.64,0.92-1.11,1.21
							c-0.47,0.29-1.02,0.43-1.62,0.43C109.37,207.78,108.87,207.66,108.44,207.41z M110.93,206.54c0.34-0.21,0.6-0.5,0.79-0.88
							c0.19-0.38,0.28-0.81,0.28-1.3c0-0.49-0.09-0.92-0.28-1.3c-0.19-0.38-0.45-0.67-0.79-0.88c-0.34-0.21-0.72-0.32-1.15-0.32
							c-0.44,0-0.83,0.1-1.17,0.32c-0.34,0.21-0.61,0.5-0.79,0.88c-0.19,0.38-0.28,0.81-0.28,1.3c0,0.49,0.09,0.92,0.28,1.3
							c0.19,0.38,0.45,0.67,0.79,0.88s0.73,0.32,1.17,0.32C110.2,206.86,110.59,206.75,110.93,206.54z"/>
						<path d="M115.74,201.1v1.28h0.03v7.31h-1.02v-8.59H115.74z M116.68,207.41c-0.43-0.25-0.76-0.6-1-1.05s-0.36-0.97-0.37-1.56
							h0.42v-0.88h-0.42c0.01-0.59,0.13-1.11,0.37-1.56s0.58-0.8,1-1.05c0.43-0.25,0.93-0.37,1.49-0.37c0.61,0,1.15,0.14,1.62,0.43
							c0.47,0.29,0.84,0.69,1.11,1.21s0.4,1.11,0.4,1.78c0,0.67-0.13,1.26-0.4,1.78c-0.27,0.52-0.64,0.92-1.11,1.21
							c-0.47,0.29-1.02,0.43-1.62,0.43C117.61,207.78,117.11,207.66,116.68,207.41z M119.16,206.54c0.34-0.21,0.6-0.5,0.78-0.88
							c0.19-0.38,0.28-0.81,0.28-1.3c0-0.49-0.09-0.92-0.28-1.3c-0.19-0.38-0.45-0.67-0.78-0.88c-0.34-0.21-0.72-0.32-1.16-0.32
							c-0.44,0-0.83,0.1-1.17,0.32c-0.34,0.21-0.61,0.5-0.79,0.88c-0.19,0.38-0.28,0.81-0.28,1.3c0,0.49,0.09,0.92,0.28,1.3
							c0.19,0.38,0.45,0.67,0.79,0.88c0.34,0.21,0.73,0.32,1.17,0.32C118.44,206.86,118.83,206.75,119.16,206.54z"/>
					</g>
				</g>
			</g>
			<g>
				<g>
					<g>
						<g>
							<radialGradient id="SVGID_1_" cx="183.9683" cy="257.468" r="153.5985" gradientUnits="userSpaceOnUse">
								<stop  offset="0" style="stop-color:#EB4857"/>
								<stop  offset="0.5" style="stop-color:#C611E0"/>
								<stop  offset="1" style="stop-color:#7F52FF"/>
							</radialGradient>
							<path class="st4" d="M331.03,150.42H195.34c-6.04,0-10.94,4.9-10.94,10.94v83.59c0,6.04,4.9,10.94,10.94,10.94h135.68
								c6.04,0,10.94-4.9,10.94-10.94v-83.59C341.96,155.31,337.07,150.42,331.03,150.42z"/>
						</g>
					</g>
				</g>
				<g>
					<g>
						<path class="st0" d="M219.88,200.07c-0.47-0.23-0.84-0.54-1.1-0.94c-0.26-0.4-0.39-0.87-0.39-1.39h1.08
							c0,0.34,0.08,0.63,0.26,0.89c0.17,0.26,0.41,0.46,0.72,0.61c0.31,0.15,0.67,0.22,1.07,0.22c0.4,0,0.74-0.07,1.04-0.2
							c0.3-0.13,0.53-0.32,0.7-0.57c0.16-0.24,0.25-0.53,0.25-0.85c0-0.4-0.12-0.75-0.36-1.04c-0.24-0.29-0.56-0.47-0.96-0.54
							l-1.44-0.25c-0.43-0.08-0.81-0.23-1.13-0.45c-0.32-0.23-0.56-0.51-0.73-0.84c-0.17-0.34-0.25-0.7-0.25-1.1
							c0-0.46,0.12-0.88,0.37-1.25c0.24-0.37,0.58-0.66,1.02-0.88c0.44-0.21,0.93-0.32,1.47-0.32c0.56,0,1.06,0.11,1.5,0.32
							s0.78,0.5,1.02,0.88c0.24,0.37,0.36,0.8,0.36,1.28h-1.08c0-0.29-0.07-0.56-0.22-0.79c-0.15-0.23-0.36-0.41-0.63-0.54
							c-0.27-0.13-0.58-0.19-0.93-0.19c-0.35,0-0.67,0.06-0.94,0.19c-0.27,0.12-0.48,0.3-0.63,0.52c-0.15,0.23-0.23,0.49-0.23,0.78
							c0,0.35,0.11,0.66,0.34,0.91c0.23,0.26,0.53,0.42,0.9,0.48l1.47,0.26c0.42,0.08,0.8,0.24,1.14,0.49
							c0.33,0.25,0.59,0.56,0.77,0.92c0.18,0.36,0.27,0.75,0.27,1.15c0,0.48-0.13,0.92-0.39,1.31c-0.26,0.39-0.62,0.7-1.09,0.93
							s-1,0.34-1.59,0.34C220.89,200.4,220.35,200.29,219.88,200.07z"/>
						<path class="st0" d="M226.46,191.32h0.98v2.06v1.16v2h-0.41c0-0.6,0.1-1.13,0.31-1.58c0.21-0.45,0.51-0.79,0.89-1.04
							c0.39-0.24,0.84-0.36,1.37-0.36c0.47,0,0.88,0.1,1.24,0.3c0.36,0.2,0.65,0.49,0.85,0.88c0.21,0.39,0.31,0.86,0.31,1.4v4.1
							h-1.02v-4c0-0.38-0.07-0.7-0.2-0.97c-0.13-0.27-0.32-0.47-0.57-0.61c-0.25-0.14-0.54-0.21-0.88-0.21
							c-0.37,0-0.69,0.08-0.97,0.24c-0.28,0.16-0.5,0.39-0.65,0.68s-0.23,0.62-0.23,1v3.87h-1.02V191.32z"/>
						<path class="st0" d="M237.66,193.84c0.37,0.18,0.66,0.44,0.87,0.79c0.21,0.35,0.31,0.76,0.31,1.23v4.39h-1v-2.44h0.27
							c0,0.54-0.09,1.01-0.28,1.4s-0.46,0.69-0.8,0.89s-0.76,0.31-1.24,0.31c-0.42,0-0.79-0.08-1.13-0.24s-0.6-0.38-0.79-0.67
							c-0.19-0.28-0.29-0.61-0.29-0.97c0-0.34,0.09-0.65,0.26-0.94c0.18-0.29,0.42-0.52,0.73-0.71s0.66-0.3,1.06-0.34l1.74-0.19
							c0.14-0.02,0.26-0.08,0.34-0.18c0.08-0.1,0.12-0.25,0.12-0.45l0.08,1.34l-2.14,0.24c-0.22,0.03-0.42,0.09-0.59,0.2
							c-0.17,0.11-0.31,0.24-0.4,0.41c-0.1,0.17-0.14,0.36-0.14,0.56c0,0.22,0.06,0.42,0.18,0.59c0.12,0.17,0.28,0.3,0.49,0.4
							c0.21,0.1,0.45,0.14,0.71,0.14c0.37,0,0.69-0.07,0.96-0.22s0.49-0.36,0.63-0.63c0.15-0.27,0.22-0.58,0.22-0.93v-2.08
							c0-0.26-0.06-0.49-0.18-0.69c-0.12-0.2-0.3-0.35-0.52-0.46s-0.48-0.16-0.78-0.16c-0.29,0-0.56,0.05-0.79,0.15
							c-0.23,0.1-0.42,0.23-0.56,0.4c-0.14,0.17-0.23,0.35-0.26,0.55h-1.02c0.05-0.37,0.2-0.7,0.44-1c0.24-0.3,0.55-0.53,0.93-0.7
							s0.81-0.25,1.27-0.25C236.85,193.57,237.28,193.66,237.66,193.84z"/>
						<path class="st0" d="M240.88,193.72h1.02v2.19l-0.43,0.64c0.02-0.59,0.12-1.1,0.32-1.53c0.2-0.44,0.47-0.77,0.83-1
							c0.35-0.23,0.76-0.35,1.23-0.35h0.23v1.07h-0.27c-0.39,0-0.73,0.07-1.01,0.22s-0.51,0.36-0.67,0.63s-0.23,0.6-0.23,0.97v3.71
							h-1.02V193.72z"/>
						<path class="st0" d="M246.44,199.96c-0.49-0.29-0.87-0.7-1.15-1.22s-0.41-1.11-0.41-1.77c0-0.64,0.14-1.22,0.42-1.74
							s0.66-0.93,1.15-1.22c0.49-0.3,1.04-0.44,1.64-0.44c0.62,0,1.16,0.15,1.62,0.44s0.83,0.7,1.08,1.22s0.38,1.11,0.38,1.76v0.25
							h-5.28l0.01-0.28c0,0.49,0.1,0.93,0.3,1.32c0.19,0.39,0.46,0.69,0.8,0.91c0.34,0.22,0.72,0.33,1.15,0.33
							c0.28,0,0.55-0.04,0.79-0.11c0.24-0.07,0.46-0.17,0.64-0.31c0.18-0.13,0.32-0.29,0.42-0.47h1.02
							c-0.08,0.27-0.24,0.54-0.48,0.82c-0.24,0.27-0.58,0.5-1,0.68s-0.91,0.27-1.46,0.27C247.49,200.4,246.93,200.26,246.44,199.96z
							 M245.9,196.39h4.25v0.58c0-0.5-0.08-0.94-0.24-1.32s-0.39-0.67-0.7-0.88s-0.68-0.31-1.11-0.31c-0.43,0-0.82,0.1-1.15,0.3
							c-0.33,0.2-0.59,0.49-0.77,0.86c-0.18,0.37-0.27,0.81-0.27,1.3L245.9,196.39z"/>
						<path class="st0" d="M253.81,199.97c-0.47-0.29-0.84-0.69-1.11-1.21s-0.4-1.11-0.4-1.78c0-0.67,0.13-1.26,0.4-1.78
							c0.27-0.52,0.64-0.92,1.11-1.21s1.02-0.43,1.62-0.43c0.56,0,1.06,0.12,1.49,0.37s0.76,0.6,1,1.05s0.36,0.97,0.37,1.56h-0.42
							v0.88h0.42c-0.01,0.59-0.13,1.11-0.37,1.56c-0.24,0.45-0.58,0.8-1,1.05c-0.43,0.25-0.92,0.37-1.49,0.37
							C254.83,200.4,254.29,200.26,253.81,199.97z M256.76,199.16c0.34-0.21,0.6-0.5,0.79-0.88s0.28-0.81,0.28-1.3
							c0-0.49-0.09-0.92-0.28-1.3s-0.45-0.67-0.79-0.88c-0.34-0.21-0.73-0.32-1.17-0.32c-0.43,0-0.82,0.11-1.15,0.32
							c-0.34,0.21-0.6,0.5-0.79,0.88s-0.28,0.81-0.28,1.3c0,0.49,0.09,0.92,0.28,1.3s0.45,0.67,0.79,0.88
							c0.34,0.21,0.72,0.32,1.15,0.32C256.03,199.48,256.42,199.37,256.76,199.16z M257.82,191.32h1.02v8.93h-1.02V191.32z"/>
						<path class="st0" d="M264.14,193.72h0.98v2.83h-0.34c0-0.61,0.09-1.14,0.28-1.59c0.19-0.45,0.46-0.79,0.82-1.03
							s0.78-0.36,1.28-0.36c0.46,0,0.87,0.1,1.22,0.32c0.35,0.21,0.62,0.51,0.81,0.9c0.19,0.39,0.29,0.84,0.29,1.35v4.12h-1.02
							v-4.08c0-0.36-0.06-0.67-0.18-0.93c-0.12-0.26-0.3-0.46-0.53-0.6c-0.23-0.14-0.51-0.21-0.83-0.21c-0.35,0-0.66,0.08-0.93,0.24
							s-0.47,0.38-0.61,0.68c-0.14,0.29-0.21,0.64-0.21,1.03v3.87h-1.02V193.72z M272.58,195.25c-0.12-0.26-0.3-0.46-0.53-0.6
							c-0.23-0.14-0.51-0.21-0.84-0.21c-0.35,0-0.65,0.08-0.92,0.24c-0.26,0.16-0.47,0.39-0.61,0.68c-0.14,0.29-0.22,0.63-0.22,1.03
							l-0.57,0.17c0-0.59,0.1-1.11,0.31-1.56c0.2-0.45,0.5-0.8,0.88-1.05s0.82-0.37,1.33-0.37c0.46,0,0.88,0.1,1.24,0.32
							c0.36,0.21,0.64,0.51,0.84,0.9c0.2,0.39,0.3,0.84,0.3,1.35v4.12h-1.02v-4.08C272.76,195.82,272.7,195.51,272.58,195.25z"/>
						<path class="st0" d="M276.91,199.96c-0.51-0.3-0.91-0.7-1.2-1.23c-0.29-0.52-0.44-1.1-0.44-1.75s0.15-1.23,0.44-1.75
							c0.29-0.52,0.69-0.93,1.2-1.22c0.51-0.3,1.08-0.44,1.7-0.44s1.18,0.15,1.69,0.44c0.51,0.3,0.91,0.7,1.2,1.22
							s0.44,1.1,0.44,1.75s-0.15,1.24-0.44,1.75c-0.29,0.52-0.69,0.93-1.2,1.22c-0.51,0.3-1.07,0.44-1.7,0.44
							C277.98,200.4,277.42,200.26,276.91,199.96z M279.76,199.16c0.34-0.21,0.61-0.5,0.8-0.88c0.2-0.38,0.29-0.81,0.29-1.3
							c0-0.49-0.1-0.92-0.29-1.3c-0.2-0.38-0.46-0.67-0.81-0.88c-0.34-0.21-0.73-0.31-1.15-0.31c-0.43,0-0.81,0.1-1.16,0.31
							c-0.34,0.21-0.62,0.5-0.81,0.88c-0.2,0.38-0.3,0.81-0.3,1.3c0,0.49,0.1,0.92,0.3,1.3c0.2,0.38,0.47,0.67,0.82,0.88
							s0.73,0.31,1.16,0.31C279.04,199.47,279.42,199.37,279.76,199.16z"/>
						<path class="st0" d="M284.56,199.97c-0.47-0.29-0.84-0.69-1.11-1.21s-0.4-1.11-0.4-1.78c0-0.67,0.13-1.26,0.4-1.78
							c0.27-0.52,0.64-0.92,1.11-1.21s1.02-0.43,1.62-0.43c0.56,0,1.06,0.12,1.49,0.37s0.76,0.6,1,1.05s0.36,0.97,0.37,1.56h-0.42
							v0.88h0.42c-0.01,0.59-0.13,1.11-0.37,1.56c-0.24,0.45-0.58,0.8-1,1.05c-0.43,0.25-0.92,0.37-1.49,0.37
							C285.58,200.4,285.04,200.26,284.56,199.97z M287.51,199.16c0.34-0.21,0.6-0.5,0.79-0.88s0.28-0.81,0.28-1.3
							c0-0.49-0.09-0.92-0.28-1.3s-0.45-0.67-0.79-0.88c-0.34-0.21-0.73-0.32-1.17-0.32c-0.43,0-0.82,0.11-1.15,0.32
							c-0.34,0.21-0.6,0.5-0.79,0.88s-0.28,0.81-0.28,1.3c0,0.49,0.09,0.92,0.28,1.3s0.45,0.67,0.79,0.88
							c0.34,0.21,0.72,0.32,1.15,0.32C286.78,199.48,287.17,199.37,287.51,199.16z M288.57,191.32h1.02v8.93h-1.02V191.32z"/>
						<path class="st0" d="M297.09,200.25h-0.98v-2.83h0.41c0,0.6-0.1,1.13-0.31,1.58c-0.21,0.45-0.51,0.79-0.89,1.04
							c-0.39,0.24-0.84,0.36-1.37,0.36c-0.47,0-0.88-0.1-1.24-0.3c-0.36-0.2-0.65-0.49-0.85-0.88s-0.31-0.86-0.31-1.4v-4.1h1.02v4
							c0,0.38,0.07,0.7,0.2,0.97c0.13,0.27,0.33,0.47,0.57,0.61c0.25,0.14,0.54,0.21,0.88,0.21c0.37,0,0.69-0.08,0.97-0.24
							c0.28-0.16,0.5-0.39,0.65-0.68c0.15-0.29,0.23-0.62,0.23-1v-3.87h1.02V200.25z"/>
						<path class="st0" d="M299.32,191.32h1.02v8.93h-1.02V191.32z"/>
						<path class="st0" d="M303.58,199.96c-0.49-0.29-0.87-0.7-1.15-1.22s-0.41-1.11-0.41-1.77c0-0.64,0.14-1.22,0.42-1.74
							s0.66-0.93,1.15-1.22c0.49-0.3,1.04-0.44,1.64-0.44c0.62,0,1.16,0.15,1.62,0.44s0.83,0.7,1.08,1.22s0.38,1.11,0.38,1.76v0.25
							h-5.28l0.01-0.28c0,0.49,0.1,0.93,0.3,1.32c0.19,0.39,0.46,0.69,0.8,0.91c0.34,0.22,0.72,0.33,1.15,0.33
							c0.28,0,0.55-0.04,0.79-0.11c0.24-0.07,0.46-0.17,0.64-0.31c0.18-0.13,0.32-0.29,0.42-0.47h1.02
							c-0.08,0.27-0.24,0.54-0.48,0.82c-0.24,0.27-0.58,0.5-1,0.68s-0.91,0.27-1.46,0.27C304.62,200.4,304.07,200.26,303.58,199.96z
							 M303.04,196.39h4.25v0.58c0-0.5-0.08-0.94-0.24-1.32s-0.39-0.67-0.7-0.88s-0.68-0.31-1.11-0.31c-0.43,0-0.82,0.1-1.15,0.3
							c-0.33,0.2-0.59,0.49-0.77,0.86c-0.18,0.37-0.27,0.81-0.27,1.3L303.04,196.39z"/>
						<path class="st0" d="M206.91,216.37c-0.51-0.3-0.91-0.7-1.2-1.23c-0.29-0.52-0.44-1.1-0.44-1.75s0.15-1.23,0.44-1.75
							c0.29-0.52,0.69-0.93,1.2-1.22c0.51-0.3,1.08-0.44,1.7-0.44s1.18,0.15,1.69,0.44c0.51,0.3,0.91,0.7,1.2,1.22
							s0.44,1.1,0.44,1.75s-0.15,1.24-0.44,1.75c-0.29,0.52-0.69,0.93-1.2,1.22c-0.51,0.3-1.07,0.44-1.7,0.44
							C207.98,216.81,207.42,216.66,206.91,216.37z M209.77,215.57c0.34-0.21,0.61-0.5,0.8-0.88c0.2-0.38,0.29-0.81,0.29-1.3
							c0-0.49-0.1-0.92-0.29-1.3c-0.2-0.38-0.46-0.67-0.81-0.88c-0.34-0.21-0.73-0.31-1.15-0.31c-0.43,0-0.81,0.1-1.16,0.31
							c-0.34,0.21-0.62,0.5-0.81,0.88c-0.2,0.38-0.3,0.81-0.3,1.3c0,0.49,0.1,0.92,0.3,1.3c0.2,0.38,0.47,0.67,0.82,0.88
							s0.73,0.31,1.16,0.31C209.04,215.88,209.43,215.78,209.77,215.57z"/>
						<path class="st0" d="M213.61,210.12h1.02v2.19l-0.43,0.64c0.02-0.59,0.12-1.1,0.32-1.53c0.2-0.44,0.47-0.77,0.83-1
							c0.35-0.23,0.76-0.35,1.23-0.35h0.23v1.07h-0.27c-0.39,0-0.73,0.07-1.01,0.22s-0.51,0.36-0.67,0.63s-0.23,0.6-0.23,0.97v3.71
							h-1.02V210.12z"/>
						<path class="st0" d="M226.5,216.66h-0.98v-2.83h0.41c0,0.6-0.1,1.13-0.31,1.58c-0.21,0.45-0.51,0.79-0.89,1.04
							c-0.39,0.24-0.84,0.36-1.37,0.36c-0.47,0-0.88-0.1-1.24-0.3c-0.36-0.2-0.65-0.49-0.85-0.88s-0.31-0.86-0.31-1.4v-4.1h1.02v4
							c0,0.38,0.07,0.7,0.2,0.97c0.13,0.27,0.33,0.47,0.57,0.61c0.25,0.14,0.54,0.21,0.88,0.21c0.37,0,0.69-0.08,0.97-0.24
							c0.28-0.16,0.5-0.39,0.65-0.68c0.15-0.29,0.23-0.62,0.23-1v-3.87h1.02V216.66z"/>
						<path class="st0" d="M228.73,210.12h0.98v2.83h-0.34c0-0.61,0.09-1.14,0.28-1.59c0.19-0.45,0.46-0.79,0.82-1.03
							s0.78-0.36,1.28-0.36c0.46,0,0.87,0.1,1.22,0.32c0.35,0.21,0.62,0.51,0.81,0.9c0.19,0.39,0.29,0.84,0.29,1.35v4.12h-1.02
							v-4.08c0-0.36-0.06-0.67-0.18-0.93c-0.12-0.26-0.3-0.46-0.53-0.6c-0.23-0.14-0.51-0.21-0.83-0.21c-0.35,0-0.66,0.08-0.93,0.24
							s-0.47,0.38-0.61,0.68c-0.14,0.29-0.21,0.64-0.21,1.03v3.87h-1.02V210.12z M237.18,211.65c-0.12-0.26-0.3-0.46-0.53-0.6
							c-0.23-0.14-0.51-0.21-0.84-0.21c-0.35,0-0.65,0.08-0.92,0.24c-0.26,0.16-0.47,0.39-0.61,0.68c-0.14,0.29-0.22,0.63-0.22,1.03
							l-0.57,0.17c0-0.59,0.1-1.11,0.31-1.56c0.2-0.45,0.5-0.8,0.88-1.05s0.82-0.37,1.33-0.37c0.46,0,0.88,0.1,1.24,0.32
							c0.36,0.21,0.64,0.51,0.84,0.9c0.2,0.39,0.3,0.84,0.3,1.35v4.12h-1.02v-4.08C237.36,212.22,237.3,211.91,237.18,211.65z"/>
						<path class="st0" d="M240.42,207.73h1.02v8.93h-1.02V207.73z M242.34,216.44c-0.43-0.25-0.76-0.6-1-1.05
							c-0.24-0.45-0.37-0.97-0.37-1.56h0.42v-0.88h-0.42c0.01-0.59,0.13-1.11,0.37-1.56s0.58-0.8,1-1.05s0.92-0.37,1.49-0.37
							c0.61,0,1.15,0.14,1.62,0.43c0.47,0.29,0.84,0.69,1.11,1.21c0.27,0.52,0.4,1.11,0.4,1.78c0,0.67-0.13,1.26-0.4,1.78
							c-0.27,0.52-0.64,0.92-1.11,1.21c-0.47,0.29-1.02,0.43-1.62,0.43C243.27,216.81,242.77,216.69,242.34,216.44z M244.82,215.57
							c0.34-0.21,0.6-0.5,0.79-0.88s0.28-0.81,0.28-1.3c0-0.49-0.09-0.92-0.28-1.3s-0.45-0.67-0.79-0.88s-0.72-0.32-1.15-0.32
							c-0.44,0-0.83,0.11-1.17,0.32c-0.34,0.21-0.6,0.5-0.79,0.88s-0.28,0.81-0.28,1.3c0,0.49,0.09,0.92,0.28,1.3
							s0.45,0.67,0.79,0.88c0.34,0.21,0.73,0.32,1.17,0.32C244.1,215.89,244.49,215.78,244.82,215.57z"/>
						<path class="st0" d="M248.64,210.12h1.02v2.19l-0.43,0.64c0.02-0.59,0.12-1.1,0.32-1.53c0.2-0.44,0.47-0.77,0.83-1
							c0.35-0.23,0.76-0.35,1.23-0.35h0.23v1.07h-0.27c-0.39,0-0.73,0.07-1.01,0.22s-0.51,0.36-0.67,0.63s-0.23,0.6-0.23,0.97v3.71
							h-1.02V210.12z"/>
						<path class="st0" d="M254.2,216.37c-0.49-0.29-0.87-0.7-1.15-1.22s-0.41-1.11-0.41-1.77c0-0.64,0.14-1.22,0.42-1.74
							s0.66-0.93,1.15-1.22c0.49-0.3,1.04-0.44,1.64-0.44c0.62,0,1.16,0.15,1.62,0.44s0.83,0.7,1.08,1.22s0.38,1.11,0.38,1.76v0.25
							h-5.28l0.01-0.28c0,0.49,0.1,0.93,0.3,1.32c0.19,0.39,0.46,0.69,0.8,0.91c0.34,0.22,0.72,0.33,1.15,0.33
							c0.28,0,0.55-0.04,0.79-0.11c0.24-0.07,0.46-0.17,0.64-0.31c0.18-0.13,0.32-0.29,0.42-0.47h1.02
							c-0.08,0.27-0.24,0.54-0.48,0.82c-0.24,0.27-0.58,0.5-1,0.68s-0.91,0.27-1.46,0.27C255.24,216.81,254.69,216.66,254.2,216.37z
							 M253.66,212.8h4.25v0.58c0-0.5-0.08-0.94-0.24-1.32s-0.39-0.67-0.7-0.88s-0.68-0.31-1.11-0.31c-0.43,0-0.82,0.1-1.15,0.3
							c-0.33,0.2-0.59,0.49-0.77,0.86c-0.18,0.37-0.27,0.81-0.27,1.3L253.66,212.8z"/>
						<path class="st0" d="M260.61,207.73h1.02v8.93h-1.02V207.73z"/>
						<path class="st0" d="M263.87,207.73h1.02v8.93h-1.02V207.73z"/>
						<path class="st0" d="M270.73,210.24c0.37,0.18,0.66,0.44,0.87,0.79c0.21,0.35,0.31,0.76,0.31,1.23v4.39h-1v-2.44h0.27
							c0,0.54-0.09,1.01-0.28,1.4s-0.46,0.69-0.8,0.89s-0.76,0.31-1.24,0.31c-0.42,0-0.79-0.08-1.13-0.24s-0.6-0.38-0.79-0.67
							c-0.19-0.28-0.29-0.61-0.29-0.97c0-0.34,0.09-0.65,0.26-0.94c0.18-0.29,0.42-0.52,0.73-0.71s0.66-0.3,1.06-0.34l1.74-0.19
							c0.14-0.02,0.26-0.08,0.34-0.18c0.08-0.1,0.12-0.25,0.12-0.45l0.08,1.34l-2.14,0.24c-0.22,0.03-0.42,0.09-0.59,0.2
							c-0.17,0.11-0.31,0.24-0.4,0.41c-0.1,0.17-0.14,0.36-0.14,0.56c0,0.22,0.06,0.42,0.18,0.59c0.12,0.17,0.28,0.3,0.49,0.4
							c0.21,0.1,0.45,0.14,0.71,0.14c0.37,0,0.69-0.07,0.96-0.22s0.49-0.36,0.63-0.63c0.15-0.27,0.22-0.58,0.22-0.93v-2.08
							c0-0.26-0.06-0.49-0.18-0.69c-0.12-0.2-0.3-0.35-0.52-0.46s-0.48-0.16-0.78-0.16c-0.29,0-0.56,0.05-0.79,0.15
							c-0.23,0.1-0.42,0.23-0.56,0.4c-0.14,0.17-0.23,0.35-0.26,0.55h-1.02c0.05-0.37,0.2-0.7,0.44-1c0.24-0.3,0.55-0.53,0.93-0.7
							s0.81-0.25,1.27-0.25C269.92,209.97,270.35,210.06,270.73,210.24z"/>
						<path class="st0" d="M277.11,210.12h0.98v2.83h-0.34c0-0.61,0.09-1.14,0.28-1.59c0.19-0.45,0.46-0.79,0.82-1.03
							s0.78-0.36,1.28-0.36c0.46,0,0.87,0.1,1.22,0.32c0.35,0.21,0.62,0.51,0.81,0.9c0.19,0.39,0.29,0.84,0.29,1.35v4.12h-1.02
							v-4.08c0-0.36-0.06-0.67-0.18-0.93c-0.12-0.26-0.3-0.46-0.53-0.6c-0.23-0.14-0.51-0.21-0.83-0.21c-0.35,0-0.66,0.08-0.93,0.24
							s-0.47,0.38-0.61,0.68c-0.14,0.29-0.21,0.64-0.21,1.03v3.87h-1.02V210.12z M285.55,211.65c-0.12-0.26-0.3-0.46-0.53-0.6
							c-0.23-0.14-0.51-0.21-0.84-0.21c-0.35,0-0.65,0.08-0.92,0.24c-0.26,0.16-0.47,0.39-0.61,0.68c-0.14,0.29-0.22,0.63-0.22,1.03
							l-0.57,0.17c0-0.59,0.1-1.11,0.31-1.56c0.2-0.45,0.5-0.8,0.88-1.05s0.82-0.37,1.33-0.37c0.46,0,0.88,0.1,1.24,0.32
							c0.36,0.21,0.64,0.51,0.84,0.9c0.2,0.39,0.3,0.84,0.3,1.35v4.12h-1.02v-4.08C285.73,212.22,285.67,211.91,285.55,211.65z"/>
						<path class="st0" d="M289.88,216.37c-0.51-0.3-0.91-0.7-1.2-1.23c-0.29-0.52-0.44-1.1-0.44-1.75s0.15-1.23,0.44-1.75
							c0.29-0.52,0.69-0.93,1.2-1.22c0.51-0.3,1.08-0.44,1.7-0.44s1.18,0.15,1.69,0.44c0.51,0.3,0.91,0.7,1.2,1.22
							s0.44,1.1,0.44,1.75s-0.15,1.24-0.44,1.75c-0.29,0.52-0.69,0.93-1.2,1.22c-0.51,0.3-1.07,0.44-1.7,0.44
							C290.95,216.81,290.39,216.66,289.88,216.37z M292.73,215.57c0.34-0.21,0.61-0.5,0.8-0.88c0.2-0.38,0.29-0.81,0.29-1.3
							c0-0.49-0.1-0.92-0.29-1.3c-0.2-0.38-0.46-0.67-0.81-0.88c-0.34-0.21-0.73-0.31-1.15-0.31c-0.43,0-0.81,0.1-1.16,0.31
							c-0.34,0.21-0.62,0.5-0.81,0.88c-0.2,0.38-0.3,0.81-0.3,1.3c0,0.49,0.1,0.92,0.3,1.3c0.2,0.38,0.47,0.67,0.82,0.88
							s0.73,0.31,1.16,0.31C292.01,215.88,292.39,215.78,292.73,215.57z"/>
						<path class="st0" d="M297.53,216.38c-0.47-0.29-0.84-0.69-1.11-1.21s-0.4-1.11-0.4-1.78c0-0.67,0.13-1.26,0.4-1.78
							c0.27-0.52,0.64-0.92,1.11-1.21s1.02-0.43,1.62-0.43c0.56,0,1.06,0.12,1.49,0.37s0.76,0.6,1,1.05s0.36,0.97,0.37,1.56h-0.42
							v0.88h0.42c-0.01,0.59-0.13,1.11-0.37,1.56c-0.24,0.45-0.58,0.8-1,1.05c-0.43,0.25-0.92,0.37-1.49,0.37
							C298.55,216.81,298.01,216.67,297.53,216.38z M300.48,215.57c0.34-0.21,0.6-0.5,0.79-0.88s0.28-0.81,0.28-1.3
							c0-0.49-0.09-0.92-0.28-1.3s-0.45-0.67-0.79-0.88c-0.34-0.21-0.73-0.32-1.17-0.32c-0.43,0-0.82,0.11-1.15,0.32
							c-0.34,0.21-0.6,0.5-0.79,0.88s-0.28,0.81-0.28,1.3c0,0.49,0.09,0.92,0.28,1.3s0.45,0.67,0.79,0.88
							c0.34,0.21,0.72,0.32,1.15,0.32C299.76,215.89,300.14,215.78,300.48,215.57z M301.54,207.73h1.02v8.93h-1.02V207.73z"/>
						<path class="st0" d="M310.06,216.66h-0.98v-2.83h0.41c0,0.6-0.1,1.13-0.31,1.58c-0.21,0.45-0.51,0.79-0.89,1.04
							c-0.39,0.24-0.84,0.36-1.37,0.36c-0.47,0-0.88-0.1-1.24-0.3c-0.36-0.2-0.65-0.49-0.85-0.88s-0.31-0.86-0.31-1.4v-4.1h1.02v4
							c0,0.38,0.07,0.7,0.2,0.97c0.13,0.27,0.33,0.47,0.57,0.61c0.25,0.14,0.54,0.21,0.88,0.21c0.37,0,0.69-0.08,0.97-0.24
							c0.28-0.16,0.5-0.39,0.65-0.68c0.15-0.29,0.23-0.62,0.23-1v-3.87h1.02V216.66z"/>
						<path class="st0" d="M312.29,207.73h1.02v8.93h-1.02V207.73z"/>
						<path class="st0" d="M316.55,216.37c-0.49-0.29-0.87-0.7-1.15-1.22s-0.41-1.11-0.41-1.77c0-0.64,0.14-1.22,0.42-1.74
							s0.66-0.93,1.15-1.22c0.49-0.3,1.04-0.44,1.64-0.44c0.62,0,1.16,0.15,1.62,0.44s0.83,0.7,1.08,1.22s0.38,1.11,0.38,1.76v0.25
							h-5.28l0.01-0.28c0,0.49,0.1,0.93,0.3,1.32c0.19,0.39,0.46,0.69,0.8,0.91c0.34,0.22,0.72,0.33,1.15,0.33
							c0.28,0,0.55-0.04,0.79-0.11c0.24-0.07,0.46-0.17,0.64-0.31c0.18-0.13,0.32-0.29,0.42-0.47h1.02
							c-0.08,0.27-0.24,0.54-0.48,0.82c-0.24,0.27-0.58,0.5-1,0.68s-0.91,0.27-1.46,0.27C317.59,216.81,317.04,216.66,316.55,216.37
							z M316.01,212.8h4.25v0.58c0-0.5-0.08-0.94-0.24-1.32s-0.39-0.67-0.7-0.88s-0.68-0.31-1.11-0.31c-0.43,0-0.82,0.1-1.15,0.3
							c-0.33,0.2-0.59,0.49-0.77,0.86c-0.18,0.37-0.27,0.81-0.27,1.3L316.01,212.8z"/>
					</g>
				</g>
			</g>
		</g>
	</g>
	<g>
		<g>
			<g>
				<g>
					<path class="st2" d="M504.66,150.42H368.97c-6.04,0-10.94,4.9-10.94,10.94v83.84c0,6.04,4.9,10.94,10.94,10.94h135.68
						c6.04,0,10.94-4.9,10.94-10.94v-83.84C515.59,155.31,510.7,150.42,504.66,150.42z"/>
				</g>
			</g>
		</g>
		<g>
			<g>
				<path d="M378.15,169.07h5.73v1h-4.67v3.08h4.42v1h-4.42V178h-1.06V169.07z"/>
				<path d="M385.62,171.47h1.02v2.19l-0.43,0.64c0.02-0.59,0.12-1.1,0.32-1.53c0.2-0.44,0.47-0.77,0.83-1
					c0.35-0.23,0.76-0.35,1.23-0.35h0.23v1.07h-0.27c-0.39,0-0.73,0.07-1.01,0.22s-0.51,0.36-0.67,0.63s-0.23,0.6-0.23,0.97V178
					h-1.02V171.47z"/>
				<path d="M393.66,171.58c0.37,0.18,0.66,0.44,0.87,0.79c0.21,0.35,0.31,0.76,0.31,1.23V178h-1v-2.44h0.27
					c0,0.54-0.09,1.01-0.28,1.4c-0.19,0.39-0.46,0.69-0.8,0.89s-0.76,0.31-1.24,0.31c-0.42,0-0.79-0.08-1.13-0.24
					s-0.6-0.38-0.79-0.67c-0.19-0.28-0.29-0.61-0.29-0.97c0-0.34,0.09-0.65,0.26-0.94c0.18-0.29,0.42-0.52,0.73-0.71
					s0.67-0.3,1.06-0.34l1.74-0.19c0.14-0.02,0.26-0.08,0.34-0.18c0.08-0.1,0.12-0.25,0.12-0.45l0.08,1.34l-2.14,0.24
					c-0.22,0.03-0.42,0.09-0.59,0.2c-0.17,0.11-0.31,0.24-0.4,0.41c-0.1,0.17-0.14,0.36-0.14,0.56c0,0.22,0.06,0.42,0.18,0.59
					c0.12,0.17,0.28,0.3,0.49,0.4c0.21,0.1,0.45,0.14,0.71,0.14c0.37,0,0.69-0.07,0.96-0.22s0.49-0.36,0.63-0.63
					c0.15-0.27,0.22-0.58,0.22-0.93v-2.08c0-0.26-0.06-0.49-0.18-0.69c-0.12-0.2-0.3-0.35-0.52-0.46c-0.22-0.11-0.48-0.16-0.77-0.16
					c-0.29,0-0.56,0.05-0.79,0.15c-0.23,0.1-0.42,0.23-0.56,0.4c-0.14,0.17-0.23,0.35-0.26,0.55h-1.02c0.05-0.37,0.2-0.7,0.44-1
					s0.55-0.53,0.93-0.7s0.81-0.25,1.27-0.25C392.85,171.31,393.28,171.4,393.66,171.58z"/>
				<path d="M396.88,171.47h0.98v2.83h-0.34c0-0.61,0.09-1.14,0.28-1.59c0.19-0.45,0.46-0.79,0.82-1.03s0.78-0.36,1.28-0.36
					c0.46,0,0.87,0.1,1.22,0.32c0.35,0.21,0.62,0.51,0.81,0.9c0.19,0.39,0.29,0.84,0.29,1.35V178h-1.02v-4.08
					c0-0.36-0.06-0.67-0.18-0.93c-0.12-0.26-0.3-0.46-0.53-0.6c-0.23-0.14-0.51-0.21-0.83-0.21c-0.35,0-0.66,0.08-0.93,0.24
					s-0.47,0.38-0.61,0.68s-0.21,0.64-0.21,1.03V178h-1.02V171.47z M405.32,172.99c-0.12-0.26-0.3-0.46-0.53-0.6
					c-0.23-0.14-0.51-0.21-0.84-0.21c-0.35,0-0.66,0.08-0.92,0.24c-0.26,0.16-0.47,0.39-0.61,0.68c-0.14,0.29-0.22,0.63-0.22,1.03
					l-0.57,0.17c0-0.59,0.1-1.11,0.31-1.56c0.2-0.45,0.5-0.8,0.88-1.05s0.82-0.37,1.33-0.37c0.46,0,0.88,0.1,1.23,0.32
					c0.36,0.21,0.64,0.51,0.84,0.9c0.2,0.39,0.3,0.84,0.3,1.35V178h-1.02v-4.08C405.51,173.56,405.44,173.26,405.32,172.99z"/>
				<path d="M409.57,177.71c-0.49-0.29-0.87-0.7-1.15-1.22s-0.41-1.11-0.41-1.77c0-0.64,0.14-1.22,0.42-1.74
					c0.28-0.52,0.66-0.93,1.15-1.22c0.49-0.3,1.04-0.44,1.64-0.44c0.62,0,1.16,0.15,1.62,0.44s0.83,0.7,1.08,1.22
					s0.38,1.11,0.38,1.76v0.25h-5.28l0.01-0.28c0,0.49,0.1,0.93,0.3,1.32s0.46,0.69,0.8,0.91c0.34,0.22,0.72,0.33,1.15,0.33
					c0.29,0,0.55-0.04,0.79-0.11c0.24-0.07,0.46-0.17,0.64-0.31c0.18-0.13,0.32-0.29,0.42-0.47h1.02c-0.08,0.27-0.24,0.54-0.48,0.82
					s-0.58,0.5-1,0.68s-0.91,0.27-1.46,0.27C410.61,178.15,410.06,178.01,409.57,177.71z M409.03,174.14h4.26v0.58
					c0-0.5-0.08-0.94-0.24-1.32c-0.16-0.38-0.39-0.67-0.7-0.88s-0.68-0.31-1.11-0.31s-0.82,0.1-1.15,0.3
					c-0.33,0.2-0.59,0.49-0.77,0.86c-0.18,0.37-0.27,0.81-0.27,1.3L409.03,174.14z"/>
				<path d="M415.04,171.47h1.1l1.54,4.7l0.15,0.56l0.13-0.56l1.61-4.7h0.98l1.65,4.7l0.15,0.56l0.13-0.56l1.5-4.7h1.07l-2.24,6.53
					h-1.01l-1.61-4.91l-0.12-0.45l-0.11,0.44l-1.68,4.93h-1L415.04,171.47z"/>
				<path d="M427.42,177.71c-0.51-0.3-0.91-0.7-1.2-1.23c-0.29-0.52-0.44-1.1-0.44-1.75s0.15-1.23,0.44-1.75
					c0.29-0.52,0.69-0.93,1.2-1.22c0.51-0.3,1.08-0.44,1.7-0.44s1.18,0.15,1.69,0.44c0.51,0.3,0.91,0.7,1.2,1.22
					c0.29,0.52,0.44,1.1,0.44,1.75s-0.15,1.24-0.44,1.75c-0.29,0.52-0.69,0.93-1.2,1.22c-0.51,0.3-1.07,0.44-1.7,0.44
					C428.5,178.15,427.93,178,427.42,177.71z M430.28,176.91c0.34-0.21,0.61-0.5,0.8-0.88c0.2-0.38,0.29-0.81,0.29-1.3
					c0-0.49-0.1-0.92-0.29-1.3c-0.2-0.38-0.46-0.67-0.81-0.88c-0.34-0.21-0.73-0.31-1.15-0.31c-0.42,0-0.81,0.1-1.15,0.31
					c-0.34,0.21-0.62,0.5-0.81,0.88c-0.2,0.38-0.3,0.81-0.3,1.3c0,0.49,0.1,0.92,0.3,1.3c0.2,0.38,0.47,0.67,0.82,0.88
					s0.73,0.31,1.16,0.31C429.56,177.22,429.94,177.12,430.28,176.91z"/>
				<path d="M434.13,171.47h1.02v2.19l-0.43,0.64c0.02-0.59,0.12-1.1,0.32-1.53c0.2-0.44,0.47-0.77,0.83-1
					c0.35-0.23,0.76-0.35,1.23-0.35h0.23v1.07h-0.27c-0.39,0-0.72,0.07-1.01,0.22c-0.29,0.15-0.51,0.36-0.67,0.63
					s-0.23,0.6-0.23,0.97V178h-1.02V171.47z"/>
				<path d="M438.69,169.07h1.02v5.46l2.96-3.06h1.27l-2.98,3.11l3.09,3.42h-1.31l-3.03-3.29V178h-1.02V169.07z"/>
				<path d="M448.3,171.47h1.02v2.19l-0.43,0.64c0.02-0.59,0.12-1.1,0.32-1.53c0.2-0.44,0.47-0.77,0.83-1
					c0.35-0.23,0.76-0.35,1.23-0.35h0.23v1.07h-0.27c-0.39,0-0.72,0.07-1.01,0.22c-0.29,0.15-0.51,0.36-0.67,0.63
					s-0.23,0.6-0.23,0.97V178h-1.02V171.47z"/>
				<path d="M453.86,177.71c-0.49-0.29-0.87-0.7-1.14-1.22s-0.41-1.11-0.41-1.77c0-0.64,0.14-1.22,0.42-1.74s0.66-0.93,1.15-1.22
					c0.49-0.3,1.04-0.44,1.64-0.44c0.62,0,1.16,0.15,1.62,0.44s0.83,0.7,1.08,1.22s0.38,1.11,0.38,1.76v0.25h-5.28l0.01-0.28
					c0,0.49,0.1,0.93,0.3,1.32s0.46,0.69,0.8,0.91c0.34,0.22,0.72,0.33,1.15,0.33c0.29,0,0.55-0.04,0.79-0.11
					c0.25-0.07,0.46-0.17,0.64-0.31c0.18-0.13,0.32-0.29,0.42-0.47h1.02c-0.08,0.27-0.24,0.54-0.48,0.82c-0.25,0.27-0.58,0.5-1,0.68
					s-0.9,0.27-1.46,0.27C454.9,178.15,454.35,178.01,453.86,177.71z M453.32,174.14h4.26v0.58c0-0.5-0.08-0.94-0.24-1.32
					s-0.39-0.67-0.7-0.88c-0.31-0.21-0.68-0.31-1.11-0.31c-0.43,0-0.82,0.1-1.15,0.3c-0.33,0.2-0.59,0.49-0.77,0.86
					c-0.18,0.37-0.27,0.81-0.27,1.3L453.32,174.14z"/>
				<path d="M460.27,169.07h1.02V178h-1.02V169.07z"/>
				<path d="M464.53,177.71c-0.49-0.29-0.87-0.7-1.15-1.22s-0.41-1.11-0.41-1.77c0-0.64,0.14-1.22,0.42-1.74
					c0.28-0.52,0.66-0.93,1.15-1.22c0.49-0.3,1.04-0.44,1.64-0.44c0.62,0,1.16,0.15,1.62,0.44s0.83,0.7,1.08,1.22
					s0.38,1.11,0.38,1.76v0.25h-5.28l0.01-0.28c0,0.49,0.1,0.93,0.3,1.32s0.46,0.69,0.8,0.91c0.34,0.22,0.72,0.33,1.15,0.33
					c0.29,0,0.55-0.04,0.79-0.11c0.24-0.07,0.46-0.17,0.64-0.31c0.18-0.13,0.32-0.29,0.42-0.47h1.02c-0.08,0.27-0.24,0.54-0.48,0.82
					s-0.58,0.5-1,0.68s-0.91,0.27-1.46,0.27C465.57,178.15,465.02,178.01,464.53,177.71z M463.99,174.14h4.26v0.58
					c0-0.5-0.08-0.94-0.24-1.32c-0.16-0.38-0.39-0.67-0.7-0.88s-0.68-0.31-1.11-0.31s-0.82,0.1-1.15,0.3
					c-0.33,0.2-0.59,0.49-0.77,0.86c-0.18,0.37-0.27,0.81-0.27,1.3L463.99,174.14z"/>
				<path d="M474.55,171.58c0.37,0.18,0.66,0.44,0.87,0.79c0.21,0.35,0.31,0.76,0.31,1.23V178h-1v-2.44H475
					c0,0.54-0.09,1.01-0.28,1.4c-0.19,0.39-0.46,0.69-0.8,0.89s-0.76,0.31-1.24,0.31c-0.42,0-0.79-0.08-1.13-0.24
					s-0.6-0.38-0.79-0.67c-0.19-0.28-0.29-0.61-0.29-0.97c0-0.34,0.09-0.65,0.26-0.94c0.18-0.29,0.42-0.52,0.73-0.71
					s0.67-0.3,1.06-0.34l1.74-0.19c0.14-0.02,0.26-0.08,0.34-0.18c0.08-0.1,0.12-0.25,0.12-0.45l0.08,1.34l-2.14,0.24
					c-0.22,0.03-0.42,0.09-0.59,0.2c-0.17,0.11-0.31,0.24-0.4,0.41c-0.1,0.17-0.14,0.36-0.14,0.56c0,0.22,0.06,0.42,0.18,0.59
					c0.12,0.17,0.28,0.3,0.49,0.4c0.21,0.1,0.45,0.14,0.71,0.14c0.37,0,0.69-0.07,0.96-0.22s0.49-0.36,0.63-0.63
					c0.15-0.27,0.22-0.58,0.22-0.93v-2.08c0-0.26-0.06-0.49-0.18-0.69c-0.12-0.2-0.3-0.35-0.52-0.46c-0.22-0.11-0.48-0.16-0.77-0.16
					c-0.29,0-0.56,0.05-0.79,0.15c-0.23,0.1-0.42,0.23-0.56,0.4c-0.14,0.17-0.23,0.35-0.26,0.55h-1.02c0.05-0.37,0.2-0.7,0.44-1
					s0.55-0.53,0.93-0.7s0.81-0.25,1.27-0.25C473.74,171.31,474.17,171.4,474.55,171.58z"/>
				<path d="M478.59,177.92c-0.4-0.16-0.71-0.38-0.95-0.66s-0.36-0.6-0.38-0.96h1.04c0.02,0.2,0.1,0.37,0.24,0.53
					c0.14,0.16,0.34,0.28,0.57,0.37c0.24,0.09,0.5,0.13,0.8,0.13c0.3,0,0.56-0.05,0.79-0.15c0.23-0.1,0.4-0.23,0.53-0.41
					c0.13-0.17,0.19-0.37,0.19-0.59c0-0.16-0.03-0.3-0.09-0.43s-0.15-0.23-0.26-0.32s-0.25-0.14-0.41-0.17l-1.58-0.29
					c-0.33-0.06-0.62-0.17-0.86-0.33s-0.42-0.37-0.55-0.62c-0.12-0.25-0.19-0.53-0.19-0.85c0-0.34,0.1-0.66,0.3-0.94
					c0.2-0.28,0.48-0.51,0.83-0.67s0.77-0.25,1.22-0.25c0.46,0,0.87,0.07,1.23,0.22c0.37,0.15,0.66,0.35,0.87,0.62
					c0.22,0.26,0.33,0.56,0.35,0.88h-1.04c-0.01-0.17-0.08-0.32-0.21-0.46c-0.12-0.14-0.29-0.24-0.5-0.32
					c-0.21-0.08-0.44-0.11-0.7-0.11c-0.26,0-0.5,0.04-0.7,0.13c-0.2,0.09-0.36,0.21-0.47,0.37c-0.11,0.16-0.17,0.33-0.17,0.53
					c0,0.15,0.03,0.28,0.08,0.39c0.05,0.11,0.13,0.21,0.24,0.28c0.11,0.07,0.24,0.13,0.41,0.16l1.61,0.29
					c0.33,0.06,0.62,0.18,0.86,0.35s0.42,0.39,0.55,0.65c0.12,0.26,0.19,0.54,0.19,0.85c0,0.38-0.11,0.73-0.33,1.03
					c-0.22,0.31-0.52,0.55-0.9,0.72s-0.81,0.26-1.28,0.26C479.43,178.15,478.98,178.07,478.59,177.92z"/>
				<path d="M485.16,177.71c-0.49-0.29-0.87-0.7-1.14-1.22s-0.41-1.11-0.41-1.77c0-0.64,0.14-1.22,0.42-1.74s0.66-0.93,1.15-1.22
					c0.49-0.3,1.04-0.44,1.64-0.44c0.62,0,1.16,0.15,1.62,0.44s0.83,0.7,1.08,1.22s0.38,1.11,0.38,1.76v0.25h-5.28l0.01-0.28
					c0,0.49,0.1,0.93,0.3,1.32s0.46,0.69,0.8,0.91c0.34,0.22,0.72,0.33,1.15,0.33c0.29,0,0.55-0.04,0.79-0.11
					c0.25-0.07,0.46-0.17,0.64-0.31c0.18-0.13,0.32-0.29,0.42-0.47h1.02c-0.08,0.27-0.24,0.54-0.48,0.82c-0.25,0.27-0.58,0.5-1,0.68
					s-0.9,0.27-1.46,0.27C486.2,178.15,485.65,178.01,485.16,177.71z M484.62,174.14h4.26v0.58c0-0.5-0.08-0.94-0.24-1.32
					s-0.39-0.67-0.7-0.88c-0.31-0.21-0.68-0.31-1.11-0.31c-0.43,0-0.82,0.1-1.15,0.3c-0.33,0.2-0.59,0.49-0.77,0.86
					c-0.18,0.37-0.27,0.81-0.27,1.3L484.62,174.14z"/>
				<path d="M492.39,177.92c-0.4-0.16-0.71-0.38-0.95-0.66s-0.36-0.6-0.38-0.96h1.04c0.02,0.2,0.1,0.37,0.24,0.53
					c0.14,0.16,0.34,0.28,0.57,0.37c0.24,0.09,0.5,0.13,0.8,0.13c0.3,0,0.56-0.05,0.79-0.15c0.23-0.1,0.4-0.23,0.53-0.41
					c0.13-0.17,0.19-0.37,0.19-0.59c0-0.16-0.03-0.3-0.09-0.43s-0.15-0.23-0.26-0.32s-0.25-0.14-0.41-0.17l-1.58-0.29
					c-0.33-0.06-0.62-0.17-0.86-0.33s-0.42-0.37-0.55-0.62c-0.12-0.25-0.19-0.53-0.19-0.85c0-0.34,0.1-0.66,0.3-0.94
					c0.2-0.28,0.48-0.51,0.83-0.67s0.77-0.25,1.22-0.25c0.46,0,0.87,0.07,1.23,0.22c0.37,0.15,0.66,0.35,0.87,0.62
					c0.22,0.26,0.33,0.56,0.35,0.88h-1.04c-0.01-0.17-0.08-0.32-0.21-0.46c-0.12-0.14-0.29-0.24-0.5-0.32
					c-0.21-0.08-0.44-0.11-0.7-0.11c-0.26,0-0.5,0.04-0.7,0.13c-0.2,0.09-0.36,0.21-0.47,0.37c-0.11,0.16-0.17,0.33-0.17,0.53
					c0,0.15,0.03,0.28,0.08,0.39c0.05,0.11,0.13,0.21,0.24,0.28c0.11,0.07,0.24,0.13,0.41,0.16l1.61,0.29
					c0.33,0.06,0.62,0.18,0.86,0.35s0.42,0.39,0.55,0.65c0.12,0.26,0.19,0.54,0.19,0.85c0,0.38-0.11,0.73-0.33,1.03
					c-0.22,0.31-0.52,0.55-0.9,0.72s-0.81,0.26-1.28,0.26C493.24,178.15,492.79,178.07,492.39,177.92z"/>
			</g>
		</g>
		<g>
			<g>
				<g>
					<path d="M432.03,219.64h-2.16v-0.86h1.14c0.27,0,0.51-0.06,0.71-0.17c0.2-0.12,0.36-0.28,0.46-0.49
						c0.11-0.21,0.16-0.46,0.16-0.74h0.01h0.74v8.93h-1.06V219.64z"/>
					<path d="M436.97,224.91v1.4h-1.4v-1.4H436.97z"/>
					<path d="M438.57,225.39l3.67-3.43c0.37-0.35,0.65-0.68,0.81-1c0.17-0.32,0.25-0.66,0.25-1.02c0-0.34-0.08-0.65-0.24-0.91
						s-0.38-0.47-0.66-0.62c-0.28-0.15-0.61-0.22-0.97-0.22c-0.39,0-0.74,0.08-1.05,0.25s-0.55,0.4-0.72,0.7
						c-0.17,0.3-0.26,0.64-0.26,1.02h-1.07c0-0.55,0.14-1.05,0.41-1.5c0.27-0.45,0.65-0.8,1.12-1.05c0.48-0.25,1.01-0.38,1.59-0.38
						c0.55,0,1.05,0.12,1.5,0.34c0.45,0.23,0.8,0.55,1.06,0.95c0.26,0.4,0.39,0.85,0.39,1.35c0,0.48-0.13,0.95-0.38,1.4
						s-0.65,0.94-1.21,1.46l-2.76,2.6h4.61v0.99h-6.09V225.39z"/>
					<path d="M447.58,224.91v1.4h-1.4v-1.4H447.58z"/>
					<path d="M450.22,225.9c-0.52-0.37-0.92-0.91-1.2-1.6c-0.28-0.69-0.42-1.51-0.42-2.44c0-0.94,0.14-1.76,0.42-2.46
						c0.28-0.7,0.68-1.23,1.2-1.61c0.52-0.38,1.13-0.56,1.83-0.56c0.7,0,1.31,0.19,1.83,0.56c0.52,0.38,0.92,0.91,1.2,1.61
						c0.28,0.7,0.42,1.52,0.42,2.46c0,0.94-0.14,1.75-0.42,2.44c-0.28,0.69-0.68,1.23-1.2,1.6c-0.52,0.37-1.13,0.56-1.83,0.56
						C451.35,226.46,450.74,226.28,450.22,225.9z M453.31,225.06c0.36-0.29,0.63-0.71,0.82-1.26s0.29-1.2,0.29-1.94
						c0-0.75-0.1-1.4-0.29-1.95s-0.46-0.97-0.82-1.27c-0.36-0.3-0.77-0.44-1.25-0.44s-0.9,0.15-1.25,0.44
						c-0.35,0.29-0.63,0.71-0.82,1.26c-0.19,0.55-0.29,1.2-0.29,1.95c0,0.75,0.1,1.4,0.29,1.95s0.46,0.97,0.82,1.26
						c0.36,0.29,0.77,0.44,1.25,0.44S452.95,225.35,453.31,225.06z"/>
				</g>
			</g>
			<g>
				<g>
					<g>
						<path class="st45" d="M454.93,200.9h-24.36c-4.89,0-8.85,3.96-8.85,8.85v24.36c0,4.89,3.96,8.85,8.85,8.85h24.36
							c4.89,0,8.85-3.96,8.85-8.85v-24.36C463.77,204.86,459.81,200.9,454.93,200.9z"/>
					</g>
				</g>
			</g>
			<g>
				<g>
					<g>
						<path class="st45" d="M457.46,201.26c-1.09-3.65-4.47-6.31-8.48-6.31h-24.36c-4.89,0-8.85,3.96-8.85,8.85v24.36
							c0,3.97,2.61,7.33,6.21,8.45"/>
					</g>
				</g>
			</g>
			<g>
				<g>
					<g>
						<path class="st45" d="M451.54,195.33c-1.09-3.64-4.47-6.29-8.47-6.29H418.7c-4.89,0-8.85,3.96-8.85,8.85v24.36
							c0,4,2.65,7.38,6.29,8.47"/>
					</g>
				</g>
			</g>
		</g>
	</g>
</g>
</svg>
