<?xml version="1.0" encoding="utf-8"?>
<!-- Generator: Adobe Illustrator 27.5.0, SVG Export Plug-In . SVG Version: 6.00 Build 0)  -->
<svg version="1.1" id="Layer_1" xmlns="http://www.w3.org/2000/svg" xmlns:xlink="http://www.w3.org/1999/xlink" x="0px" y="0px"
	 viewBox="0 0 700 395" style="enable-background:new 0 0 700 395;" xml:space="preserve">
<style type="text/css">
	.st0{fill:#FFFFFF;}
	.st1{fill:none;stroke:#000000;stroke-width:0.5469;stroke-miterlimit:10;}
	.st2{fill:#F2F2F2;}
	.st3{fill:none;stroke:#595959;stroke-width:0.5469;stroke-miterlimit:10;}
	.st4{fill:url(#SVGID_1_);}
	.st5{fill:url(#SVGID_00000134949181696156684890000013471414521209201583_);}
	.st6{fill:url(#SVGID_00000016062068935408773070000012675202355270882435_);}
	.st7{fill:#595959;}
	.st8{fill:url(#SVGID_00000138540201497584845850000001389336772553680532_);}
	.st9{fill:url(#SVGID_00000110449550313872994880000016144057911489933499_);}
	.st10{fill:url(#SVGID_00000031918574532025803700000003726593009559809422_);}
	.st11{fill:url(#SVGID_00000131359860459327376820000009496751555033087139_);}
	.st12{fill:url(#SVGID_00000005950255557115548350000007723134635057710478_);}
	.st13{fill:url(#SVGID_00000086690105829912527570000007730477741064941976_);}
	.st14{fill:url(#SVGID_00000009573412829231525090000002934702221917894072_);}
	.st15{fill:url(#SVGID_00000072262681481880944950000005298549706501433763_);}
	.st16{fill:url(#SVGID_00000067914580462017197380000007701311005579702455_);}
	.st17{fill:url(#SVGID_00000113314071967826871840000016565279363430038673_);}
	.st18{fill:url(#SVGID_00000174601390834405552150000017811578663036430981_);}
	.st19{fill:none;stroke:#000000;stroke-width:0.5469;stroke-miterlimit:10;stroke-dasharray:1.5,2.5,1.5,2.5,1.5,2.5;}
	.st20{fill:url(#SVGID_00000078006300447886918990000008996170008199310747_);}
	.st21{fill:url(#SVGID_00000027576870511863067670000016553862835039484847_);}
	.st22{fill:url(#SVGID_00000102539870558278514260000015357335362235765393_);}
	.st23{fill:url(#SVGID_00000021816268744993478970000009146514914040097947_);}
	.st24{fill:url(#SVGID_00000121275294570812616180000007391037346813118143_);}
	.st25{fill:url(#SVGID_00000035489715694471286130000014679801539404702127_);}
	.st26{fill:url(#SVGID_00000153693434751689451290000017607745478678998146_);}
	.st27{fill:url(#SVGID_00000042721045120682549750000010620349111984357820_);}
	.st28{fill:url(#SVGID_00000091004478738537884170000015018269606645029012_);}
	.st29{fill:url(#SVGID_00000183208285816497262150000006011409346976937914_);}
	.st30{fill:url(#SVGID_00000052067238198065416020000002719797774494913210_);}
	.st31{fill:url(#SVGID_00000002345947882776848030000008304872621351259551_);}
	.st32{fill:url(#SVGID_00000178906974210050380470000011839459739552925597_);}
	.st33{fill:url(#SVGID_00000095340008772919878340000002297153983736546485_);}
	.st34{fill:url(#SVGID_00000149344170040244108830000005872908420661173931_);}
	.st35{fill:url(#SVGID_00000031897813761438696550000011624026437570785679_);}
	.st36{fill:url(#SVGID_00000121267404281449359420000006459913836386049681_);}
	.st37{fill:url(#SVGID_00000031205703249016515670000017905765030771524000_);}
	.st38{fill:url(#SVGID_00000178898305075374763310000013454194212757420680_);}
	.st39{fill:url(#SVGID_00000060023903948469716950000001913905592119726720_);}
	.st40{fill:url(#SVGID_00000154384706717352297000000001761425323066349746_);}
	.st41{fill:url(#SVGID_00000096026763981491667800000018106574467108043448_);}
	.st42{fill:#7F52FF;}
	.st43{opacity:0.35;}
	.st44{fill:url(#SVGID_00000160874170159937461080000012380303041076346267_);}
	.st45{fill:none;stroke:#000000;stroke-width:0.4423;stroke-miterlimit:10;}
</style>
<g>
	<rect class="st0" width="700" height="395"/>
</g>
<g>
	<path class="st3" d="M665.12,73.47l-175.76,0c-8.05,0-14.58,6.53-14.58,14.58v60.39c0,8.05,6.53,14.58,14.58,14.58l175.76,0
		c8.05,0,14.58-6.53,14.58-14.58V88.05C679.71,80,673.18,73.47,665.12,73.47z"/>
	<g>
		<path class="st3" d="M210.63,73.47l-175.76,0c-8.05,0-14.58,6.53-14.58,14.58v60.39c0,8.05,6.53,14.58,14.58,14.58l175.76,0
			c8.05,0,14.58-6.53,14.58-14.58V88.05C225.22,80,218.69,73.47,210.63,73.47z"/>
		<path class="st1" d="M255.41,187.23l-117.81,0c-8.05,0-14.58-6.53-14.58-14.58l0-24.8"/>
		<path class="st1" d="M444.6,183.29l118.07,0c8.05,0,14.58-6.53,14.58-14.58l0-18.41"/>
		<path class="st1" d="M429.23,191.29l55.53,0c8.05,0,14.58,6.53,14.58,14.58"/>
		<path class="st1" d="M429.23,305.07l55.53,0c8.05,0,14.58-6.53,14.58-14.58l0-53.06"/>
		<path class="st1" d="M429.23,265.81l55.53,0c8.05,0,14.58-6.53,14.58-14.58l0-45.36"/>
		<path class="st1" d="M429.23,226.55l55.53,0c8.05,0,14.58-6.53,14.58-14.58"/>
		<g>
			
				<radialGradient id="SVGID_1_" cx="255.5414" cy="199.8054" r="192.6241" gradientTransform="matrix(1 0 0 0.2768 0 144.5059)" gradientUnits="userSpaceOnUse">
				<stop  offset="0" style="stop-color:#EB4857"/>
				<stop  offset="0.5" style="stop-color:#C611E0"/>
				<stop  offset="1" style="stop-color:#7F52FF"/>
			</radialGradient>
			<path class="st4" d="M435.96,174.95l-171.95,0c-6.78,0-12.28,5.5-12.28,12.28v0c0,6.78,5.5,12.28,12.28,12.28l171.95,0
				c6.78,0,12.28-5.5,12.28-12.28v0C448.24,180.45,442.74,174.95,435.96,174.95z"/>
		</g>
		<g>
			<path class="st0" d="M301.16,191.38c-0.53-0.3-0.95-0.72-1.24-1.26c-0.29-0.54-0.44-1.16-0.44-1.85v-5.53h1.06v5.53
				c0,0.51,0.1,0.96,0.31,1.35c0.2,0.39,0.49,0.7,0.87,0.92c0.37,0.22,0.8,0.33,1.29,0.33c0.48,0,0.9-0.11,1.26-0.33
				c0.36-0.22,0.65-0.52,0.85-0.92c0.2-0.39,0.3-0.84,0.3-1.35v-5.53h1.06v5.53c0,0.69-0.15,1.31-0.44,1.85
				c-0.29,0.54-0.7,0.96-1.23,1.26s-1.13,0.45-1.8,0.45C302.31,191.83,301.69,191.68,301.16,191.38z"/>
			<path class="st0" d="M308.82,185.14h0.98v2.83h-0.34c0-0.61,0.09-1.14,0.28-1.59c0.19-0.45,0.46-0.79,0.82-1.03
				s0.78-0.36,1.28-0.36c0.46,0,0.87,0.1,1.22,0.32c0.35,0.21,0.62,0.51,0.81,0.9c0.19,0.39,0.29,0.84,0.29,1.35v4.12h-1.02v-4.08
				c0-0.36-0.06-0.67-0.18-0.93c-0.12-0.26-0.3-0.46-0.53-0.6c-0.23-0.14-0.51-0.21-0.83-0.21c-0.35,0-0.66,0.08-0.92,0.24
				s-0.47,0.38-0.61,0.68s-0.21,0.64-0.21,1.03v3.87h-1.02V185.14z M317.26,186.67c-0.12-0.26-0.3-0.46-0.53-0.6
				c-0.23-0.14-0.51-0.21-0.83-0.21c-0.35,0-0.66,0.08-0.92,0.24c-0.26,0.16-0.47,0.39-0.61,0.68c-0.15,0.29-0.22,0.63-0.22,1.03
				l-0.57,0.17c0-0.59,0.1-1.11,0.31-1.56c0.2-0.45,0.5-0.8,0.88-1.05c0.38-0.25,0.82-0.37,1.33-0.37c0.46,0,0.88,0.1,1.23,0.32
				c0.36,0.21,0.64,0.51,0.84,0.9c0.2,0.39,0.3,0.84,0.3,1.35v4.12h-1.02v-4.08C317.45,187.24,317.39,186.93,317.26,186.67z"/>
			<path class="st0" d="M320.51,182.74h1.02v8.93h-1.02V182.74z M322.43,191.46c-0.43-0.25-0.76-0.6-1-1.05
				c-0.24-0.45-0.36-0.97-0.37-1.56h0.42v-0.88h-0.42c0.01-0.59,0.13-1.11,0.37-1.56s0.58-0.8,1-1.05s0.92-0.37,1.49-0.37
				c0.61,0,1.15,0.14,1.62,0.43s0.84,0.69,1.11,1.21c0.27,0.52,0.4,1.11,0.4,1.78c0,0.67-0.13,1.26-0.4,1.78s-0.64,0.92-1.11,1.21
				s-1.02,0.43-1.62,0.43C323.35,191.83,322.86,191.7,322.43,191.46z M324.91,190.59c0.34-0.21,0.6-0.5,0.78-0.88
				s0.28-0.81,0.28-1.3c0-0.49-0.09-0.92-0.28-1.3s-0.45-0.67-0.78-0.88c-0.34-0.21-0.72-0.32-1.16-0.32
				c-0.44,0-0.83,0.11-1.17,0.32c-0.34,0.21-0.6,0.5-0.79,0.88s-0.28,0.81-0.28,1.3c0,0.49,0.09,0.92,0.28,1.3s0.45,0.67,0.79,0.88
				c0.34,0.21,0.73,0.32,1.17,0.32C324.19,190.9,324.57,190.8,324.91,190.59z"/>
			<path class="st0" d="M328.73,185.14h1.02v2.19l-0.43,0.64c0.02-0.59,0.12-1.1,0.32-1.53c0.2-0.44,0.47-0.77,0.83-1
				c0.35-0.23,0.76-0.35,1.23-0.35h0.23v1.07h-0.27c-0.39,0-0.73,0.07-1.01,0.22s-0.51,0.36-0.67,0.63s-0.23,0.6-0.23,0.97v3.71
				h-1.02V185.14z"/>
			<path class="st0" d="M334.29,191.39c-0.49-0.29-0.87-0.7-1.15-1.22s-0.41-1.11-0.41-1.77c0-0.64,0.14-1.22,0.42-1.74
				c0.28-0.52,0.66-0.93,1.15-1.22c0.49-0.3,1.04-0.44,1.64-0.44c0.62,0,1.16,0.15,1.62,0.44s0.83,0.7,1.08,1.22
				s0.38,1.11,0.38,1.76v0.25h-5.28l0.01-0.28c0,0.49,0.1,0.93,0.3,1.32s0.46,0.69,0.8,0.91c0.34,0.22,0.72,0.33,1.15,0.33
				c0.29,0,0.55-0.04,0.79-0.11c0.24-0.07,0.46-0.17,0.64-0.31c0.18-0.13,0.32-0.29,0.42-0.47h1.02c-0.08,0.27-0.24,0.54-0.48,0.82
				s-0.58,0.5-1,0.68s-0.91,0.27-1.46,0.27C335.33,191.83,334.78,191.68,334.29,191.39z M333.75,187.82H338v0.58
				c0-0.5-0.08-0.94-0.24-1.32c-0.16-0.38-0.39-0.67-0.7-0.88s-0.68-0.31-1.11-0.31s-0.82,0.1-1.15,0.3
				c-0.33,0.2-0.59,0.49-0.77,0.86c-0.18,0.37-0.27,0.81-0.27,1.3L333.75,187.82z"/>
			<path class="st0" d="M340.7,182.74h1.02v8.93h-1.02V182.74z"/>
			<path class="st0" d="M343.96,182.74h1.02v8.93h-1.02V182.74z"/>
			<path class="st0" d="M350.81,185.26c0.37,0.18,0.66,0.44,0.87,0.79c0.21,0.35,0.31,0.76,0.31,1.23v4.39h-1v-2.44h0.27
				c0,0.54-0.09,1.01-0.28,1.4c-0.19,0.39-0.46,0.69-0.8,0.89s-0.76,0.31-1.24,0.31c-0.42,0-0.79-0.08-1.13-0.24
				s-0.6-0.38-0.79-0.67c-0.19-0.28-0.29-0.61-0.29-0.97c0-0.34,0.09-0.65,0.26-0.94c0.18-0.29,0.42-0.52,0.73-0.71
				s0.67-0.3,1.06-0.34l1.74-0.19c0.14-0.02,0.26-0.08,0.34-0.18c0.08-0.1,0.12-0.25,0.12-0.45l0.08,1.34l-2.14,0.24
				c-0.22,0.03-0.42,0.09-0.59,0.2c-0.17,0.11-0.31,0.24-0.4,0.41c-0.1,0.17-0.14,0.36-0.14,0.56c0,0.22,0.06,0.42,0.18,0.59
				c0.12,0.17,0.28,0.3,0.49,0.4c0.21,0.1,0.45,0.14,0.71,0.14c0.37,0,0.69-0.07,0.96-0.22s0.49-0.36,0.63-0.63
				c0.15-0.27,0.22-0.58,0.22-0.93v-2.08c0-0.26-0.06-0.49-0.18-0.69c-0.12-0.2-0.3-0.35-0.52-0.46c-0.22-0.11-0.48-0.16-0.77-0.16
				c-0.29,0-0.56,0.05-0.79,0.15c-0.23,0.1-0.42,0.23-0.56,0.4c-0.14,0.17-0.23,0.35-0.26,0.55h-1.02c0.05-0.37,0.2-0.7,0.44-1
				s0.55-0.53,0.93-0.7s0.81-0.25,1.27-0.25C350.01,184.99,350.44,185.08,350.81,185.26z"/>
			<path class="st0" d="M357.19,185.14h0.98v2.83h-0.34c0-0.61,0.09-1.14,0.28-1.59c0.19-0.45,0.46-0.79,0.82-1.03
				s0.78-0.36,1.28-0.36c0.46,0,0.87,0.1,1.22,0.32c0.35,0.21,0.62,0.51,0.81,0.9c0.19,0.39,0.29,0.84,0.29,1.35v4.12h-1.02v-4.08
				c0-0.36-0.06-0.67-0.18-0.93c-0.12-0.26-0.3-0.46-0.53-0.6c-0.23-0.14-0.51-0.21-0.83-0.21c-0.35,0-0.66,0.08-0.93,0.24
				s-0.47,0.38-0.61,0.68c-0.14,0.29-0.21,0.64-0.21,1.03v3.87h-1.02V185.14z M365.64,186.67c-0.12-0.26-0.3-0.46-0.53-0.6
				c-0.23-0.14-0.51-0.21-0.84-0.21c-0.35,0-0.65,0.08-0.92,0.24c-0.26,0.16-0.47,0.39-0.61,0.68c-0.14,0.29-0.22,0.63-0.22,1.03
				l-0.57,0.17c0-0.59,0.1-1.11,0.31-1.56c0.2-0.45,0.5-0.8,0.88-1.05s0.82-0.37,1.33-0.37c0.46,0,0.88,0.1,1.24,0.32
				c0.36,0.21,0.64,0.51,0.84,0.9c0.2,0.39,0.3,0.84,0.3,1.35v4.12h-1.02v-4.08C365.82,187.24,365.76,186.93,365.64,186.67z"/>
			<path class="st0" d="M369.97,191.39c-0.51-0.3-0.91-0.7-1.2-1.23c-0.29-0.52-0.44-1.1-0.44-1.75s0.15-1.23,0.44-1.75
				c0.29-0.52,0.69-0.93,1.2-1.22c0.51-0.3,1.08-0.44,1.7-0.44s1.18,0.15,1.69,0.44c0.51,0.3,0.91,0.7,1.2,1.22s0.44,1.1,0.44,1.75
				s-0.15,1.24-0.44,1.75c-0.29,0.52-0.69,0.93-1.2,1.22c-0.51,0.3-1.07,0.44-1.7,0.44C371.04,191.83,370.47,191.68,369.97,191.39z
				 M372.82,190.58c0.34-0.21,0.61-0.5,0.8-0.88c0.2-0.38,0.29-0.81,0.29-1.3c0-0.49-0.1-0.92-0.29-1.3
				c-0.2-0.38-0.46-0.67-0.81-0.88c-0.34-0.21-0.73-0.31-1.15-0.31c-0.43,0-0.81,0.1-1.16,0.31c-0.34,0.21-0.62,0.5-0.81,0.88
				c-0.2,0.38-0.3,0.81-0.3,1.3c0,0.49,0.1,0.92,0.3,1.3c0.2,0.38,0.47,0.67,0.82,0.88s0.73,0.31,1.16,0.31
				C372.1,190.9,372.48,190.79,372.82,190.58z"/>
			<path class="st0" d="M377.62,191.4c-0.47-0.29-0.84-0.69-1.11-1.21s-0.4-1.11-0.4-1.78c0-0.67,0.13-1.26,0.4-1.78
				c0.27-0.52,0.64-0.92,1.11-1.21s1.02-0.43,1.62-0.43c0.56,0,1.06,0.12,1.49,0.37s0.76,0.6,1,1.05s0.36,0.97,0.37,1.56h-0.42v0.88
				h0.42c-0.01,0.59-0.13,1.11-0.37,1.56c-0.24,0.45-0.58,0.8-1,1.05c-0.43,0.25-0.92,0.37-1.49,0.37
				C378.64,191.83,378.1,191.69,377.62,191.4z M380.57,190.59c0.34-0.21,0.6-0.5,0.79-0.88s0.28-0.81,0.28-1.3
				c0-0.49-0.09-0.92-0.28-1.3s-0.45-0.67-0.79-0.88c-0.34-0.21-0.73-0.32-1.17-0.32c-0.43,0-0.82,0.11-1.15,0.32
				c-0.34,0.21-0.6,0.5-0.79,0.88s-0.28,0.81-0.28,1.3c0,0.49,0.09,0.92,0.28,1.3s0.45,0.67,0.79,0.88
				c0.34,0.21,0.72,0.32,1.15,0.32C379.84,190.9,380.23,190.8,380.57,190.59z M381.63,182.74h1.02v8.93h-1.02V182.74z"/>
			<path class="st0" d="M390.15,191.68h-0.98v-2.83h0.41c0,0.6-0.1,1.13-0.31,1.58c-0.21,0.45-0.51,0.79-0.89,1.04
				c-0.39,0.24-0.84,0.36-1.37,0.36c-0.47,0-0.88-0.1-1.24-0.3c-0.36-0.2-0.65-0.49-0.85-0.88s-0.31-0.86-0.31-1.4v-4.1h1.02v4
				c0,0.38,0.07,0.7,0.2,0.97c0.13,0.27,0.33,0.47,0.57,0.61c0.25,0.14,0.54,0.21,0.88,0.21c0.37,0,0.69-0.08,0.97-0.24
				c0.28-0.16,0.5-0.39,0.65-0.68c0.15-0.29,0.23-0.62,0.23-1v-3.87h1.02V191.68z"/>
			<path class="st0" d="M392.38,182.74h1.02v8.93h-1.02V182.74z"/>
			<path class="st0" d="M396.64,191.39c-0.49-0.29-0.87-0.7-1.15-1.22s-0.41-1.11-0.41-1.77c0-0.64,0.14-1.22,0.42-1.74
				s0.66-0.93,1.15-1.22c0.49-0.3,1.04-0.44,1.64-0.44c0.62,0,1.16,0.15,1.62,0.44s0.83,0.7,1.08,1.22s0.38,1.11,0.38,1.76v0.25
				h-5.28l0.01-0.28c0,0.49,0.1,0.93,0.3,1.32c0.19,0.39,0.46,0.69,0.8,0.91c0.34,0.22,0.72,0.33,1.15,0.33
				c0.28,0,0.55-0.04,0.79-0.11c0.24-0.07,0.46-0.17,0.64-0.31c0.18-0.13,0.32-0.29,0.42-0.47h1.02c-0.08,0.27-0.24,0.54-0.48,0.82
				c-0.24,0.27-0.58,0.5-1,0.68s-0.91,0.27-1.46,0.27C397.68,191.83,397.13,191.68,396.64,191.39z M396.09,187.82h4.25v0.58
				c0-0.5-0.08-0.94-0.24-1.32s-0.39-0.67-0.7-0.88s-0.68-0.31-1.11-0.31c-0.43,0-0.82,0.1-1.15,0.3c-0.33,0.2-0.59,0.49-0.77,0.86
				c-0.18,0.37-0.27,0.81-0.27,1.3L396.09,187.82z"/>
		</g>
		<g>
			
				<radialGradient id="SVGID_00000090255799439499555090000016520794891680055977_" cx="255.5414" cy="239.0667" r="192.6241" gradientTransform="matrix(1 0 0 0.2768 0 172.9009)" gradientUnits="userSpaceOnUse">
				<stop  offset="0" style="stop-color:#EB4857"/>
				<stop  offset="0.5" style="stop-color:#C611E0"/>
				<stop  offset="1" style="stop-color:#7F52FF"/>
			</radialGradient>
			<path style="fill:url(#SVGID_00000090255799439499555090000016520794891680055977_);" d="M435.96,214.21l-171.95,0
				c-6.78,0-12.28,5.5-12.28,12.28v0c0,6.78,5.5,12.28,12.28,12.28l171.95,0c6.78,0,12.28-5.5,12.28-12.28v0
				C448.24,219.71,442.74,214.21,435.96,214.21z"/>
		</g>
		<g>
			<path class="st0" d="M299.82,222h5.73v1h-4.67v3.08h4.42v1h-4.42v3.86h-1.06V222z"/>
			<path class="st0" d="M308.22,230.65c-0.49-0.29-0.87-0.7-1.15-1.22s-0.41-1.11-0.41-1.77c0-0.64,0.14-1.22,0.42-1.74
				c0.28-0.52,0.66-0.93,1.15-1.22c0.49-0.3,1.04-0.44,1.64-0.44c0.62,0,1.16,0.15,1.62,0.44s0.83,0.7,1.08,1.22
				c0.25,0.52,0.38,1.11,0.38,1.76v0.25h-5.28l0.01-0.28c0,0.49,0.1,0.93,0.3,1.32s0.46,0.69,0.8,0.91
				c0.34,0.22,0.72,0.33,1.15,0.33c0.29,0,0.55-0.03,0.79-0.1c0.24-0.07,0.46-0.17,0.64-0.31c0.18-0.13,0.32-0.29,0.42-0.47h1.02
				c-0.08,0.27-0.24,0.54-0.48,0.82s-0.58,0.5-1,0.68s-0.91,0.27-1.46,0.27C309.26,231.09,308.71,230.94,308.22,230.65z
				 M307.68,227.08h4.26v0.58c0-0.5-0.08-0.94-0.24-1.32c-0.16-0.38-0.39-0.67-0.7-0.88s-0.68-0.31-1.11-0.31s-0.82,0.1-1.15,0.3
				c-0.33,0.2-0.59,0.49-0.77,0.86c-0.18,0.37-0.27,0.8-0.27,1.3L307.68,227.08z"/>
			<path class="st0" d="M318.24,224.52c0.37,0.18,0.66,0.44,0.87,0.79c0.21,0.35,0.31,0.76,0.31,1.23v4.39h-1v-2.44h0.27
				c0,0.54-0.09,1.01-0.28,1.4c-0.19,0.39-0.46,0.69-0.8,0.89c-0.35,0.2-0.76,0.31-1.24,0.31c-0.42,0-0.79-0.08-1.13-0.24
				s-0.6-0.38-0.79-0.67c-0.19-0.28-0.29-0.61-0.29-0.97c0-0.34,0.09-0.65,0.26-0.94c0.18-0.29,0.42-0.52,0.73-0.71
				c0.31-0.18,0.67-0.3,1.06-0.34l1.74-0.19c0.14-0.02,0.26-0.08,0.34-0.18c0.08-0.1,0.12-0.25,0.12-0.45l0.08,1.34l-2.14,0.24
				c-0.22,0.03-0.42,0.09-0.59,0.2c-0.17,0.11-0.31,0.25-0.4,0.42s-0.14,0.36-0.14,0.56c0,0.22,0.06,0.42,0.18,0.59
				s0.28,0.3,0.49,0.4c0.21,0.1,0.45,0.14,0.71,0.14c0.37,0,0.69-0.07,0.96-0.22s0.49-0.36,0.63-0.63c0.15-0.27,0.22-0.58,0.22-0.93
				v-2.08c0-0.26-0.06-0.49-0.18-0.69c-0.12-0.2-0.3-0.35-0.52-0.46c-0.22-0.11-0.48-0.16-0.77-0.16c-0.29,0-0.56,0.05-0.79,0.15
				c-0.23,0.1-0.42,0.23-0.56,0.4s-0.23,0.35-0.26,0.55h-1.02c0.05-0.37,0.2-0.7,0.44-1s0.55-0.53,0.93-0.7
				c0.38-0.17,0.81-0.26,1.27-0.26C317.43,224.25,317.87,224.34,318.24,224.52z"/>
			<path class="st0" d="M322.72,230.74c-0.25-0.13-0.45-0.32-0.6-0.56c-0.14-0.24-0.22-0.5-0.22-0.79l-0.01-4.08h-1.15l0.01-0.91
				h0.71c0.16,0,0.29-0.05,0.39-0.15c0.1-0.1,0.15-0.23,0.15-0.39v-1.05h0.92v1.6h1.58l-0.01,0.91h-1.58l0.01,4.02
				c0,0.2,0.07,0.37,0.2,0.5c0.13,0.13,0.3,0.2,0.5,0.2h0.87v0.91h-0.93C323.25,230.94,322.97,230.87,322.72,230.74z"/>
			<path class="st0" d="M331.63,230.94h-0.98v-2.83h0.41c0,0.6-0.1,1.13-0.31,1.58c-0.21,0.45-0.51,0.79-0.89,1.04
				c-0.39,0.24-0.84,0.36-1.37,0.36c-0.47,0-0.88-0.1-1.24-0.3c-0.36-0.2-0.65-0.49-0.85-0.88c-0.21-0.39-0.31-0.86-0.31-1.4v-4.1
				h1.02v4c0,0.38,0.07,0.7,0.2,0.97s0.32,0.47,0.57,0.61c0.25,0.14,0.54,0.21,0.88,0.21c0.37,0,0.69-0.08,0.97-0.24
				c0.28-0.16,0.5-0.39,0.65-0.68c0.16-0.29,0.23-0.62,0.23-1v-3.87h1.02V230.94z"/>
			<path class="st0" d="M333.86,224.4h1.02v2.19l-0.43,0.64c0.02-0.59,0.12-1.1,0.32-1.53c0.2-0.44,0.47-0.77,0.83-1
				c0.35-0.23,0.76-0.35,1.23-0.35h0.23v1.07h-0.27c-0.39,0-0.72,0.07-1.01,0.22c-0.29,0.15-0.51,0.36-0.67,0.63
				s-0.23,0.6-0.23,0.97v3.71h-1.02V224.4z"/>
			<path class="st0" d="M339.42,230.65c-0.49-0.29-0.87-0.7-1.14-1.22s-0.41-1.11-0.41-1.77c0-0.64,0.14-1.22,0.42-1.74
				s0.66-0.93,1.15-1.22c0.49-0.3,1.04-0.44,1.64-0.44c0.62,0,1.16,0.15,1.62,0.44s0.83,0.7,1.08,1.22
				c0.25,0.52,0.38,1.11,0.38,1.76v0.25h-5.28l0.01-0.28c0,0.49,0.1,0.93,0.3,1.32s0.46,0.69,0.8,0.91
				c0.34,0.22,0.72,0.33,1.15,0.33c0.29,0,0.55-0.03,0.79-0.1c0.25-0.07,0.46-0.17,0.64-0.31c0.18-0.13,0.32-0.29,0.42-0.47h1.02
				c-0.08,0.27-0.24,0.54-0.48,0.82c-0.25,0.27-0.58,0.5-1,0.68s-0.9,0.27-1.46,0.27C340.46,231.09,339.91,230.94,339.42,230.65z
				 M338.88,227.08h4.26v0.58c0-0.5-0.08-0.94-0.24-1.32s-0.39-0.67-0.7-0.88c-0.31-0.21-0.68-0.31-1.11-0.31
				c-0.43,0-0.82,0.1-1.15,0.3c-0.33,0.2-0.59,0.49-0.77,0.86c-0.18,0.37-0.27,0.8-0.27,1.3L338.88,227.08z"/>
			<path class="st0" d="M348.8,224.4h0.98v2.83h-0.34c0-0.61,0.09-1.14,0.28-1.59s0.46-0.79,0.82-1.03
				c0.36-0.24,0.78-0.36,1.28-0.36c0.46,0,0.87,0.11,1.22,0.32s0.62,0.51,0.81,0.9s0.29,0.84,0.29,1.35v4.12h-1.02v-4.08
				c0-0.36-0.06-0.67-0.18-0.93c-0.12-0.26-0.3-0.46-0.53-0.6c-0.23-0.14-0.51-0.21-0.83-0.21c-0.35,0-0.66,0.08-0.93,0.24
				s-0.47,0.38-0.61,0.68s-0.21,0.64-0.21,1.03v3.87h-1.02V224.4z M357.25,225.93c-0.12-0.26-0.3-0.46-0.53-0.6
				c-0.23-0.14-0.51-0.21-0.84-0.21c-0.35,0-0.65,0.08-0.92,0.24c-0.26,0.16-0.47,0.38-0.61,0.68c-0.14,0.29-0.22,0.64-0.22,1.03
				l-0.57,0.17c0-0.59,0.1-1.11,0.31-1.56c0.2-0.45,0.5-0.8,0.88-1.05c0.38-0.25,0.82-0.37,1.33-0.37c0.46,0,0.88,0.11,1.24,0.32
				c0.36,0.21,0.64,0.51,0.84,0.9c0.2,0.39,0.3,0.84,0.3,1.35v4.12h-1.02v-4.08C357.43,226.5,357.37,226.19,357.25,225.93z"/>
			<path class="st0" d="M361.57,230.65c-0.51-0.3-0.91-0.7-1.2-1.23c-0.29-0.52-0.44-1.1-0.44-1.75s0.15-1.23,0.44-1.75
				c0.29-0.52,0.69-0.93,1.2-1.23c0.51-0.3,1.08-0.44,1.7-0.44s1.18,0.15,1.69,0.44c0.51,0.3,0.91,0.7,1.2,1.22s0.44,1.1,0.44,1.75
				s-0.15,1.24-0.44,1.75c-0.29,0.52-0.69,0.93-1.2,1.22c-0.51,0.3-1.07,0.44-1.7,0.44C362.64,231.09,362.08,230.94,361.57,230.65z
				 M364.43,229.85c0.34-0.21,0.61-0.5,0.8-0.88c0.2-0.38,0.29-0.81,0.29-1.3s-0.1-0.92-0.29-1.3c-0.2-0.38-0.46-0.67-0.81-0.88
				s-0.73-0.31-1.15-0.31c-0.43,0-0.81,0.1-1.16,0.31c-0.34,0.21-0.62,0.5-0.81,0.88c-0.2,0.38-0.3,0.81-0.3,1.3s0.1,0.92,0.3,1.3
				c0.2,0.38,0.47,0.67,0.82,0.88s0.73,0.31,1.16,0.31C363.7,230.16,364.09,230.05,364.43,229.85z"/>
			<path class="st0" d="M369.23,230.66c-0.47-0.29-0.84-0.69-1.11-1.21c-0.27-0.52-0.4-1.11-0.4-1.78s0.13-1.26,0.4-1.78
				c0.27-0.52,0.64-0.92,1.11-1.21s1.02-0.43,1.62-0.43c0.56,0,1.06,0.12,1.49,0.37c0.43,0.25,0.76,0.6,1,1.05s0.36,0.97,0.37,1.56
				h-0.42v0.88h0.42c-0.01,0.59-0.13,1.11-0.37,1.56c-0.24,0.45-0.58,0.8-1,1.05c-0.43,0.25-0.92,0.37-1.49,0.37
				C370.24,231.09,369.7,230.95,369.23,230.66z M372.18,229.85c0.34-0.21,0.6-0.5,0.79-0.88s0.28-0.81,0.28-1.3s-0.09-0.92-0.28-1.3
				s-0.45-0.67-0.79-0.88c-0.34-0.21-0.73-0.32-1.17-0.32c-0.43,0-0.82,0.11-1.15,0.32c-0.34,0.21-0.6,0.5-0.79,0.88
				s-0.28,0.81-0.28,1.3s0.09,0.92,0.28,1.3s0.45,0.67,0.79,0.88c0.34,0.21,0.72,0.32,1.15,0.32
				C371.45,230.16,371.84,230.06,372.18,229.85z M373.24,222h1.02v8.93h-1.02V222z"/>
			<path class="st0" d="M381.75,230.94h-0.98v-2.83h0.41c0,0.6-0.1,1.13-0.31,1.58c-0.21,0.45-0.51,0.79-0.89,1.04
				c-0.39,0.24-0.84,0.36-1.37,0.36c-0.47,0-0.88-0.1-1.24-0.3c-0.36-0.2-0.65-0.49-0.85-0.88s-0.31-0.86-0.31-1.4v-4.1h1.02v4
				c0,0.38,0.07,0.7,0.2,0.97c0.13,0.27,0.33,0.47,0.57,0.61c0.25,0.14,0.54,0.21,0.88,0.21c0.37,0,0.69-0.08,0.97-0.24
				c0.28-0.16,0.5-0.39,0.65-0.68c0.15-0.29,0.23-0.62,0.23-1v-3.87h1.02V230.94z"/>
			<path class="st0" d="M383.99,222h1.02v8.93h-1.02V222z"/>
			<path class="st0" d="M388.24,230.65c-0.49-0.29-0.87-0.7-1.15-1.22s-0.41-1.11-0.41-1.77c0-0.64,0.14-1.22,0.42-1.74
				s0.66-0.93,1.15-1.22c0.49-0.3,1.04-0.44,1.64-0.44c0.62,0,1.16,0.15,1.62,0.44s0.83,0.7,1.08,1.22
				c0.25,0.52,0.38,1.11,0.38,1.76v0.25h-5.28l0.01-0.28c0,0.49,0.1,0.93,0.3,1.32c0.19,0.39,0.46,0.69,0.8,0.91
				c0.34,0.22,0.72,0.33,1.15,0.33c0.28,0,0.55-0.03,0.79-0.1c0.24-0.07,0.46-0.17,0.64-0.31c0.18-0.13,0.32-0.29,0.42-0.47h1.02
				c-0.08,0.27-0.24,0.54-0.48,0.82c-0.24,0.27-0.58,0.5-1,0.68s-0.91,0.27-1.46,0.27C389.28,231.09,388.73,230.94,388.24,230.65z
				 M387.7,227.08h4.25v0.58c0-0.5-0.08-0.94-0.24-1.32s-0.39-0.67-0.7-0.88s-0.68-0.31-1.11-0.31c-0.43,0-0.82,0.1-1.15,0.3
				c-0.33,0.2-0.59,0.49-0.77,0.86c-0.18,0.37-0.27,0.8-0.27,1.3L387.7,227.08z"/>
			<path class="st0" d="M398.82,224.27h-2.16v-0.86h1.14c0.27,0,0.51-0.06,0.71-0.17s0.36-0.28,0.46-0.49s0.16-0.46,0.16-0.74h0.01
				h0.74v8.93h-1.06V224.27z"/>
		</g>
		<g>
			
				<radialGradient id="SVGID_00000052086671698097144240000003683820191848873371_" cx="255.5414" cy="317.5891" r="192.6241" gradientTransform="matrix(1 0 0 0.2768 0 229.6909)" gradientUnits="userSpaceOnUse">
				<stop  offset="0" style="stop-color:#EB4857"/>
				<stop  offset="0.5" style="stop-color:#C611E0"/>
				<stop  offset="1" style="stop-color:#7F52FF"/>
			</radialGradient>
			<path style="fill:url(#SVGID_00000052086671698097144240000003683820191848873371_);" d="M435.96,292.73l-171.95,0
				c-6.78,0-12.28,5.5-12.28,12.28v0c0,6.78,5.5,12.28,12.28,12.28l171.95,0c6.78,0,12.28-5.5,12.28-12.28v0
				C448.24,298.23,442.74,292.73,435.96,292.73z"/>
		</g>
		<g>
			<path class="st0" d="M297.47,300.53h5.73v1h-4.67v3.08h4.42v1h-4.42v3.86h-1.06V300.53z"/>
			<path class="st0" d="M305.87,309.17c-0.49-0.29-0.87-0.7-1.14-1.22s-0.41-1.11-0.41-1.77c0-0.64,0.14-1.22,0.42-1.74
				s0.66-0.93,1.15-1.22c0.49-0.3,1.04-0.44,1.64-0.44c0.62,0,1.16,0.15,1.62,0.44s0.83,0.7,1.08,1.22
				c0.25,0.52,0.38,1.11,0.38,1.76v0.25h-5.28l0.01-0.28c0,0.49,0.1,0.93,0.3,1.32s0.46,0.69,0.8,0.91
				c0.34,0.22,0.72,0.33,1.15,0.33c0.29,0,0.55-0.03,0.79-0.1c0.25-0.07,0.46-0.17,0.64-0.31c0.18-0.13,0.32-0.29,0.42-0.47h1.02
				c-0.08,0.27-0.24,0.54-0.48,0.82c-0.25,0.27-0.58,0.5-1,0.68s-0.9,0.27-1.46,0.27C306.91,309.61,306.36,309.47,305.87,309.17z
				 M305.33,305.6h4.26v0.58c0-0.5-0.08-0.94-0.24-1.32s-0.39-0.67-0.7-0.88c-0.31-0.21-0.68-0.31-1.11-0.31
				c-0.43,0-0.82,0.1-1.15,0.3c-0.33,0.2-0.59,0.49-0.77,0.86c-0.18,0.37-0.27,0.8-0.27,1.3L305.33,305.6z"/>
			<path class="st0" d="M315.89,303.04c0.38,0.18,0.67,0.44,0.87,0.79s0.31,0.76,0.31,1.23v4.39h-1v-2.44h0.27
				c0,0.54-0.09,1.01-0.28,1.4c-0.19,0.39-0.46,0.69-0.8,0.89c-0.35,0.2-0.76,0.31-1.24,0.31c-0.42,0-0.79-0.08-1.13-0.24
				s-0.6-0.38-0.79-0.67c-0.19-0.28-0.29-0.61-0.29-0.97c0-0.34,0.09-0.65,0.26-0.94s0.42-0.52,0.73-0.71
				c0.31-0.18,0.66-0.3,1.06-0.34l1.74-0.19c0.14-0.02,0.26-0.08,0.34-0.18c0.08-0.1,0.12-0.25,0.12-0.45l0.08,1.34L314,306.5
				c-0.22,0.03-0.42,0.09-0.59,0.2c-0.17,0.11-0.31,0.25-0.4,0.42s-0.14,0.36-0.14,0.56c0,0.22,0.06,0.42,0.17,0.59
				s0.28,0.3,0.49,0.4s0.45,0.14,0.71,0.14c0.37,0,0.69-0.07,0.96-0.22s0.49-0.36,0.63-0.63c0.15-0.27,0.22-0.58,0.22-0.93v-2.08
				c0-0.26-0.06-0.49-0.19-0.69c-0.12-0.2-0.3-0.35-0.52-0.46c-0.22-0.11-0.48-0.16-0.78-0.16c-0.29,0-0.56,0.05-0.79,0.15
				c-0.23,0.1-0.42,0.23-0.56,0.4s-0.23,0.35-0.26,0.55h-1.02c0.05-0.37,0.2-0.7,0.44-1s0.55-0.53,0.93-0.7
				c0.38-0.17,0.81-0.26,1.27-0.26C315.08,302.77,315.52,302.86,315.89,303.04z"/>
			<path class="st0" d="M320.36,309.26c-0.25-0.13-0.45-0.32-0.6-0.56c-0.15-0.24-0.22-0.5-0.22-0.79l-0.01-4.08h-1.15l0.01-0.91
				h0.71c0.16,0,0.29-0.05,0.39-0.15c0.1-0.1,0.15-0.23,0.15-0.39v-1.05h0.92v1.6h1.58l-0.01,0.91h-1.58l0.01,4.02
				c0,0.2,0.07,0.37,0.2,0.5c0.13,0.13,0.3,0.2,0.5,0.2h0.87v0.91h-0.93C320.9,309.46,320.62,309.39,320.36,309.26z"/>
			<path class="st0" d="M329.27,309.46h-0.98v-2.83h0.41c0,0.6-0.1,1.13-0.31,1.58c-0.21,0.45-0.51,0.79-0.89,1.04
				c-0.39,0.24-0.84,0.36-1.37,0.36c-0.47,0-0.88-0.1-1.24-0.3c-0.36-0.2-0.65-0.49-0.85-0.88s-0.31-0.86-0.31-1.4v-4.1h1.02v4
				c0,0.38,0.07,0.7,0.2,0.97s0.32,0.47,0.57,0.61c0.25,0.14,0.54,0.21,0.88,0.21c0.37,0,0.69-0.08,0.97-0.24
				c0.28-0.16,0.5-0.39,0.65-0.68c0.16-0.29,0.23-0.62,0.23-1v-3.87h1.02V309.46z"/>
			<path class="st0" d="M331.51,302.93h1.02v2.19l-0.43,0.64c0.02-0.59,0.12-1.1,0.32-1.53c0.2-0.44,0.47-0.77,0.83-1
				c0.35-0.23,0.76-0.35,1.23-0.35h0.23v1.07h-0.27c-0.39,0-0.73,0.07-1.01,0.22s-0.51,0.36-0.67,0.63s-0.23,0.6-0.23,0.97v3.71
				h-1.02V302.93z"/>
			<path class="st0" d="M337.07,309.17c-0.49-0.29-0.87-0.7-1.15-1.22s-0.41-1.11-0.41-1.77c0-0.64,0.14-1.22,0.42-1.74
				c0.28-0.52,0.66-0.93,1.15-1.22c0.49-0.3,1.04-0.44,1.64-0.44c0.62,0,1.16,0.15,1.62,0.44s0.83,0.7,1.08,1.22
				c0.25,0.52,0.38,1.11,0.38,1.76v0.25h-5.28l0.01-0.28c0,0.49,0.1,0.93,0.3,1.32s0.46,0.69,0.8,0.91
				c0.34,0.22,0.72,0.33,1.15,0.33c0.29,0,0.55-0.03,0.79-0.1c0.24-0.07,0.46-0.17,0.64-0.31c0.18-0.13,0.32-0.29,0.42-0.47h1.02
				c-0.08,0.27-0.24,0.54-0.48,0.82s-0.58,0.5-1,0.68s-0.91,0.27-1.46,0.27C338.11,309.61,337.56,309.47,337.07,309.17z
				 M336.53,305.6h4.26v0.58c0-0.5-0.08-0.94-0.24-1.32c-0.16-0.38-0.39-0.67-0.7-0.88s-0.68-0.31-1.11-0.31s-0.82,0.1-1.15,0.3
				c-0.33,0.2-0.59,0.49-0.77,0.86c-0.18,0.37-0.27,0.8-0.27,1.3L336.53,305.6z"/>
			<path class="st0" d="M346.45,302.93h0.98v2.83h-0.34c0-0.61,0.09-1.14,0.28-1.59c0.19-0.45,0.46-0.79,0.82-1.03
				c0.36-0.24,0.78-0.36,1.28-0.36c0.46,0,0.87,0.11,1.22,0.32s0.62,0.51,0.81,0.9s0.29,0.84,0.29,1.35v4.12h-1.02v-4.08
				c0-0.36-0.06-0.67-0.18-0.93c-0.12-0.26-0.3-0.46-0.53-0.6c-0.23-0.14-0.51-0.21-0.83-0.21c-0.35,0-0.66,0.08-0.92,0.24
				s-0.47,0.38-0.61,0.68s-0.21,0.64-0.21,1.03v3.87h-1.02V302.93z M354.89,304.45c-0.12-0.26-0.3-0.46-0.53-0.6
				c-0.23-0.14-0.51-0.21-0.83-0.21c-0.35,0-0.66,0.08-0.92,0.24c-0.26,0.16-0.47,0.38-0.61,0.68c-0.15,0.29-0.22,0.64-0.22,1.03
				l-0.57,0.17c0-0.59,0.1-1.11,0.31-1.56c0.2-0.45,0.5-0.8,0.88-1.05c0.38-0.25,0.82-0.37,1.33-0.37c0.46,0,0.87,0.11,1.24,0.32
				c0.36,0.21,0.64,0.51,0.84,0.9s0.3,0.84,0.3,1.35v4.12h-1.02v-4.08C355.08,305.03,355.02,304.72,354.89,304.45z"/>
			<path class="st0" d="M359.22,309.17c-0.51-0.3-0.91-0.7-1.2-1.23c-0.29-0.52-0.44-1.1-0.44-1.75s0.15-1.23,0.44-1.75
				c0.29-0.52,0.69-0.93,1.2-1.23c0.51-0.3,1.08-0.44,1.7-0.44s1.18,0.15,1.69,0.44c0.51,0.3,0.91,0.7,1.2,1.22s0.44,1.1,0.44,1.75
				s-0.15,1.24-0.44,1.75c-0.29,0.52-0.69,0.93-1.2,1.22c-0.51,0.3-1.07,0.44-1.7,0.44C360.29,309.61,359.73,309.46,359.22,309.17z
				 M362.07,308.37c0.34-0.21,0.61-0.5,0.8-0.88c0.2-0.38,0.29-0.81,0.29-1.3s-0.1-0.92-0.29-1.3c-0.2-0.38-0.46-0.67-0.81-0.88
				s-0.73-0.31-1.15-0.31c-0.43,0-0.81,0.1-1.16,0.31c-0.34,0.21-0.62,0.5-0.81,0.88c-0.2,0.38-0.3,0.81-0.3,1.3s0.1,0.92,0.3,1.3
				c0.2,0.38,0.47,0.67,0.82,0.88s0.73,0.31,1.16,0.31C361.35,308.68,361.73,308.58,362.07,308.37z"/>
			<path class="st0" d="M366.88,309.18c-0.47-0.29-0.84-0.69-1.11-1.21c-0.27-0.52-0.4-1.11-0.4-1.78s0.13-1.26,0.4-1.78
				c0.27-0.52,0.64-0.92,1.11-1.21s1.02-0.43,1.62-0.43c0.56,0,1.06,0.12,1.49,0.37c0.43,0.25,0.76,0.6,1,1.05s0.36,0.97,0.37,1.56
				h-0.42v0.88h0.42c-0.01,0.59-0.13,1.11-0.37,1.56c-0.24,0.45-0.58,0.8-1,1.05c-0.43,0.25-0.92,0.37-1.49,0.37
				C367.89,309.61,367.35,309.47,366.88,309.18z M369.83,308.37c0.34-0.21,0.6-0.5,0.79-0.88s0.28-0.81,0.28-1.3
				s-0.09-0.92-0.28-1.3s-0.45-0.67-0.79-0.88c-0.34-0.21-0.73-0.32-1.17-0.32c-0.43,0-0.82,0.11-1.15,0.32
				c-0.34,0.21-0.6,0.5-0.79,0.88s-0.28,0.81-0.28,1.3s0.09,0.92,0.28,1.3s0.45,0.67,0.79,0.88c0.34,0.21,0.72,0.32,1.15,0.32
				C369.1,308.69,369.49,308.58,369.83,308.37z M370.89,300.53h1.02v8.93h-1.02V300.53z"/>
			<path class="st0" d="M379.4,309.46h-0.98v-2.83h0.41c0,0.6-0.1,1.13-0.31,1.58c-0.21,0.45-0.51,0.79-0.89,1.04
				c-0.39,0.24-0.84,0.36-1.37,0.36c-0.47,0-0.88-0.1-1.24-0.3c-0.36-0.2-0.65-0.49-0.85-0.88s-0.31-0.86-0.31-1.4v-4.1h1.02v4
				c0,0.38,0.07,0.7,0.2,0.97c0.13,0.27,0.33,0.47,0.57,0.61c0.25,0.14,0.54,0.21,0.88,0.21c0.37,0,0.69-0.08,0.97-0.24
				c0.28-0.16,0.5-0.39,0.65-0.68c0.15-0.29,0.23-0.62,0.23-1v-3.87h1.02V309.46z"/>
			<path class="st0" d="M381.64,300.53h1.02v8.93h-1.02V300.53z"/>
			<path class="st0" d="M385.89,309.17c-0.49-0.29-0.87-0.7-1.15-1.22s-0.41-1.11-0.41-1.77c0-0.64,0.14-1.22,0.42-1.74
				s0.66-0.93,1.15-1.22c0.49-0.3,1.04-0.44,1.64-0.44c0.62,0,1.16,0.15,1.62,0.44s0.83,0.7,1.08,1.22
				c0.25,0.52,0.38,1.11,0.38,1.76v0.25h-5.28l0.01-0.28c0,0.49,0.1,0.93,0.3,1.32c0.19,0.39,0.46,0.69,0.8,0.91
				c0.34,0.22,0.72,0.33,1.15,0.33c0.28,0,0.55-0.03,0.79-0.1c0.24-0.07,0.46-0.17,0.64-0.31c0.18-0.13,0.32-0.29,0.42-0.47h1.02
				c-0.08,0.27-0.24,0.54-0.48,0.82c-0.24,0.27-0.58,0.5-1,0.68s-0.91,0.27-1.46,0.27C386.93,309.61,386.38,309.47,385.89,309.17z
				 M385.35,305.6h4.25v0.58c0-0.5-0.08-0.94-0.24-1.32s-0.39-0.67-0.7-0.88s-0.68-0.31-1.11-0.31c-0.43,0-0.82,0.1-1.15,0.3
				c-0.33,0.2-0.59,0.49-0.77,0.86c-0.18,0.37-0.27,0.8-0.27,1.3L385.35,305.6z"/>
			<path class="st0" d="M395.53,300.53h1.12l4.8,7.25v-7.25h1.06v8.93h-1.14l-4.79-7.25v7.25h-1.06V300.53z"/>
		</g>
		<g>
			
				<radialGradient id="SVGID_00000183938243652674367020000001781982405537632165_" cx="255.5414" cy="278.3279" r="192.6241" gradientTransform="matrix(1 0 0 0.2768 0 201.2959)" gradientUnits="userSpaceOnUse">
				<stop  offset="0" style="stop-color:#EB4857"/>
				<stop  offset="0.5" style="stop-color:#C611E0"/>
				<stop  offset="1" style="stop-color:#7F52FF"/>
			</radialGradient>
			<path style="fill:url(#SVGID_00000183938243652674367020000001781982405537632165_);" d="M435.96,253.47l-171.95,0
				c-6.78,0-12.28,5.5-12.28,12.28v0c0,6.78,5.5,12.28,12.28,12.28l171.95,0c6.78,0,12.28-5.5,12.28-12.28v0
				C448.24,258.97,442.74,253.47,435.96,253.47z"/>
		</g>
		<g>
			<path class="st0" d="M298.55,261.27h5.73v1h-4.67v3.08h4.42v1h-4.42v3.86h-1.06V261.27z"/>
			<path class="st0" d="M306.95,269.91c-0.49-0.29-0.87-0.7-1.15-1.22s-0.41-1.11-0.41-1.77c0-0.64,0.14-1.22,0.42-1.74
				c0.28-0.52,0.66-0.93,1.15-1.22c0.49-0.3,1.04-0.44,1.64-0.44c0.62,0,1.16,0.15,1.62,0.44s0.83,0.7,1.08,1.22
				s0.38,1.11,0.38,1.76v0.25h-5.28l0.01-0.28c0,0.49,0.1,0.93,0.3,1.32s0.46,0.69,0.8,0.91c0.34,0.22,0.72,0.33,1.15,0.33
				c0.29,0,0.55-0.04,0.79-0.11c0.24-0.07,0.46-0.17,0.64-0.31c0.18-0.13,0.32-0.29,0.42-0.47h1.02c-0.08,0.27-0.24,0.54-0.48,0.82
				s-0.58,0.5-1,0.68s-0.91,0.27-1.46,0.27C307.99,270.35,307.44,270.2,306.95,269.91z M306.41,266.34h4.26v0.58
				c0-0.5-0.08-0.94-0.24-1.32c-0.16-0.38-0.39-0.67-0.7-0.88s-0.68-0.31-1.11-0.31s-0.82,0.1-1.15,0.3
				c-0.33,0.2-0.59,0.49-0.77,0.86c-0.18,0.37-0.27,0.81-0.27,1.3L306.41,266.34z"/>
			<path class="st0" d="M316.97,263.78c0.37,0.18,0.66,0.44,0.87,0.79c0.21,0.35,0.31,0.76,0.31,1.23v4.39h-1v-2.44h0.27
				c0,0.54-0.09,1.01-0.28,1.4c-0.19,0.39-0.46,0.69-0.8,0.89s-0.76,0.31-1.24,0.31c-0.42,0-0.79-0.08-1.13-0.24
				s-0.6-0.38-0.79-0.67c-0.19-0.28-0.29-0.61-0.29-0.97c0-0.34,0.09-0.65,0.26-0.94c0.18-0.29,0.42-0.52,0.73-0.71
				s0.67-0.3,1.06-0.34l1.74-0.19c0.14-0.02,0.26-0.08,0.34-0.18c0.08-0.1,0.12-0.25,0.12-0.45l0.08,1.34l-2.14,0.24
				c-0.22,0.03-0.42,0.09-0.59,0.2c-0.17,0.11-0.31,0.24-0.4,0.41c-0.1,0.17-0.14,0.36-0.14,0.56c0,0.22,0.06,0.42,0.18,0.59
				c0.12,0.17,0.28,0.3,0.49,0.4c0.21,0.1,0.45,0.14,0.71,0.14c0.37,0,0.69-0.07,0.96-0.22s0.49-0.36,0.63-0.63
				c0.15-0.27,0.22-0.58,0.22-0.93v-2.08c0-0.26-0.06-0.49-0.18-0.69c-0.12-0.2-0.3-0.35-0.52-0.46c-0.22-0.11-0.48-0.16-0.77-0.16
				c-0.29,0-0.56,0.05-0.79,0.15c-0.23,0.1-0.42,0.23-0.56,0.4c-0.14,0.17-0.23,0.35-0.26,0.55h-1.02c0.05-0.37,0.2-0.7,0.44-1
				s0.55-0.53,0.93-0.7s0.81-0.25,1.27-0.25C316.16,263.51,316.6,263.6,316.97,263.78z"/>
			<path class="st0" d="M321.45,270c-0.25-0.13-0.45-0.32-0.6-0.56s-0.22-0.5-0.22-0.79l-0.01-4.08h-1.15l0.01-0.91h0.71
				c0.16,0,0.29-0.05,0.39-0.15c0.1-0.1,0.15-0.23,0.15-0.39v-1.05h0.92v1.6h1.58l-0.01,0.91h-1.58l0.01,4.02
				c0,0.2,0.07,0.37,0.2,0.5s0.3,0.2,0.5,0.2h0.87v0.91h-0.93C321.98,270.2,321.7,270.13,321.45,270z"/>
			<path class="st0" d="M330.36,270.2h-0.98v-2.83h0.41c0,0.6-0.1,1.13-0.31,1.58c-0.21,0.45-0.51,0.79-0.89,1.04
				c-0.39,0.24-0.84,0.36-1.37,0.36c-0.47,0-0.88-0.1-1.24-0.3c-0.36-0.2-0.65-0.49-0.85-0.88c-0.21-0.39-0.31-0.86-0.31-1.4v-4.1
				h1.02v4c0,0.38,0.07,0.7,0.2,0.97s0.32,0.47,0.57,0.61c0.25,0.14,0.54,0.21,0.88,0.21c0.37,0,0.69-0.08,0.97-0.24
				c0.28-0.16,0.5-0.39,0.65-0.68c0.16-0.29,0.23-0.62,0.23-1v-3.87h1.02V270.2z"/>
			<path class="st0" d="M332.59,263.66h1.02v2.19l-0.43,0.64c0.02-0.59,0.12-1.1,0.32-1.53c0.2-0.44,0.47-0.77,0.83-1
				c0.35-0.23,0.76-0.35,1.23-0.35h0.23v1.07h-0.27c-0.39,0-0.72,0.07-1.01,0.22c-0.29,0.15-0.51,0.36-0.67,0.63
				s-0.23,0.6-0.23,0.97v3.71h-1.02V263.66z"/>
			<path class="st0" d="M338.15,269.91c-0.49-0.29-0.87-0.7-1.14-1.22s-0.41-1.11-0.41-1.77c0-0.64,0.14-1.22,0.42-1.74
				s0.66-0.93,1.15-1.22c0.49-0.3,1.04-0.44,1.64-0.44c0.62,0,1.16,0.15,1.62,0.44s0.83,0.7,1.08,1.22s0.38,1.11,0.38,1.76v0.25
				h-5.28l0.01-0.28c0,0.49,0.1,0.93,0.3,1.32s0.46,0.69,0.8,0.91c0.34,0.22,0.72,0.33,1.15,0.33c0.29,0,0.55-0.04,0.79-0.11
				c0.25-0.07,0.46-0.17,0.64-0.31c0.18-0.13,0.32-0.29,0.42-0.47h1.02c-0.08,0.27-0.24,0.54-0.48,0.82c-0.25,0.27-0.58,0.5-1,0.68
				s-0.9,0.27-1.46,0.27C339.19,270.35,338.64,270.2,338.15,269.91z M337.61,266.34h4.26v0.58c0-0.5-0.08-0.94-0.24-1.32
				s-0.39-0.67-0.7-0.88c-0.31-0.21-0.68-0.31-1.11-0.31c-0.43,0-0.82,0.1-1.15,0.3c-0.33,0.2-0.59,0.49-0.77,0.86
				c-0.18,0.37-0.27,0.81-0.27,1.3L337.61,266.34z"/>
			<path class="st0" d="M347.53,263.66h0.98v2.83h-0.34c0-0.61,0.09-1.14,0.28-1.59c0.19-0.45,0.46-0.79,0.82-1.03
				s0.78-0.36,1.28-0.36c0.46,0,0.87,0.1,1.22,0.32c0.35,0.21,0.62,0.51,0.81,0.9c0.19,0.39,0.29,0.84,0.29,1.35v4.12h-1.02v-4.08
				c0-0.36-0.06-0.67-0.18-0.93c-0.12-0.26-0.3-0.46-0.53-0.6c-0.23-0.14-0.51-0.21-0.83-0.21c-0.35,0-0.66,0.08-0.93,0.24
				s-0.47,0.38-0.61,0.68s-0.21,0.64-0.21,1.03v3.87h-1.02V263.66z M355.98,265.19c-0.12-0.26-0.3-0.46-0.53-0.6
				c-0.23-0.14-0.51-0.21-0.84-0.21c-0.35,0-0.65,0.08-0.92,0.24c-0.26,0.16-0.47,0.39-0.61,0.68c-0.14,0.29-0.22,0.63-0.22,1.03
				l-0.57,0.17c0-0.59,0.1-1.11,0.31-1.56c0.2-0.45,0.5-0.8,0.88-1.05s0.82-0.37,1.33-0.37c0.46,0,0.88,0.1,1.24,0.32
				c0.36,0.21,0.64,0.51,0.84,0.9c0.2,0.39,0.3,0.84,0.3,1.35v4.12h-1.02v-4.08C356.16,265.76,356.1,265.45,355.98,265.19z"/>
			<path class="st0" d="M360.3,269.91c-0.51-0.3-0.91-0.7-1.2-1.23c-0.29-0.52-0.44-1.1-0.44-1.75s0.15-1.23,0.44-1.75
				c0.29-0.52,0.69-0.93,1.2-1.22c0.51-0.3,1.08-0.44,1.7-0.44s1.18,0.15,1.69,0.44c0.51,0.3,0.91,0.7,1.2,1.22s0.44,1.1,0.44,1.75
				s-0.15,1.24-0.44,1.75c-0.29,0.52-0.69,0.93-1.2,1.22c-0.51,0.3-1.07,0.44-1.7,0.44C361.37,270.35,360.81,270.2,360.3,269.91z
				 M363.16,269.11c0.34-0.21,0.61-0.5,0.8-0.88c0.2-0.38,0.29-0.81,0.29-1.3c0-0.49-0.1-0.92-0.29-1.3
				c-0.2-0.38-0.46-0.67-0.81-0.88c-0.34-0.21-0.73-0.31-1.15-0.31c-0.43,0-0.81,0.1-1.16,0.31c-0.34,0.21-0.62,0.5-0.81,0.88
				c-0.2,0.38-0.3,0.81-0.3,1.3c0,0.49,0.1,0.92,0.3,1.3c0.2,0.38,0.47,0.67,0.82,0.88s0.73,0.31,1.16,0.31
				C362.43,269.42,362.82,269.32,363.16,269.11z"/>
			<path class="st0" d="M367.96,269.92c-0.47-0.29-0.84-0.69-1.11-1.21s-0.4-1.11-0.4-1.78c0-0.67,0.13-1.26,0.4-1.78
				c0.27-0.52,0.64-0.92,1.11-1.21s1.02-0.43,1.62-0.43c0.56,0,1.06,0.12,1.49,0.37s0.76,0.6,1,1.05s0.36,0.97,0.37,1.56h-0.42v0.88
				h0.42c-0.01,0.59-0.13,1.11-0.37,1.56c-0.24,0.45-0.58,0.8-1,1.05c-0.43,0.25-0.92,0.37-1.49,0.37
				C368.97,270.35,368.43,270.21,367.96,269.92z M370.91,269.11c0.34-0.21,0.6-0.5,0.79-0.88s0.28-0.81,0.28-1.3
				c0-0.49-0.09-0.92-0.28-1.3s-0.45-0.67-0.79-0.88c-0.34-0.21-0.73-0.32-1.17-0.32c-0.43,0-0.82,0.11-1.15,0.32
				c-0.34,0.21-0.6,0.5-0.79,0.88s-0.28,0.81-0.28,1.3c0,0.49,0.09,0.92,0.28,1.3s0.45,0.67,0.79,0.88
				c0.34,0.21,0.72,0.32,1.15,0.32C370.18,269.43,370.57,269.32,370.91,269.11z M371.97,261.27h1.02v8.93h-1.02V261.27z"/>
			<path class="st0" d="M380.48,270.2h-0.98v-2.83h0.41c0,0.6-0.1,1.13-0.31,1.58c-0.21,0.45-0.51,0.79-0.89,1.04
				c-0.39,0.24-0.84,0.36-1.37,0.36c-0.47,0-0.88-0.1-1.24-0.3c-0.36-0.2-0.65-0.49-0.85-0.88s-0.31-0.86-0.31-1.4v-4.1h1.02v4
				c0,0.38,0.07,0.7,0.2,0.97c0.13,0.27,0.33,0.47,0.57,0.61c0.25,0.14,0.54,0.21,0.88,0.21c0.37,0,0.69-0.08,0.97-0.24
				c0.28-0.16,0.5-0.39,0.65-0.68c0.15-0.29,0.23-0.62,0.23-1v-3.87h1.02V270.2z"/>
			<path class="st0" d="M382.72,261.27h1.02v8.93h-1.02V261.27z"/>
			<path class="st0" d="M386.97,269.91c-0.49-0.29-0.87-0.7-1.15-1.22s-0.41-1.11-0.41-1.77c0-0.64,0.14-1.22,0.42-1.74
				s0.66-0.93,1.15-1.22c0.49-0.3,1.04-0.44,1.64-0.44c0.62,0,1.16,0.15,1.62,0.44s0.83,0.7,1.08,1.22s0.38,1.11,0.38,1.76v0.25
				h-5.28l0.01-0.28c0,0.49,0.1,0.93,0.3,1.32c0.19,0.39,0.46,0.69,0.8,0.91c0.34,0.22,0.72,0.33,1.15,0.33
				c0.28,0,0.55-0.04,0.79-0.11c0.24-0.07,0.46-0.17,0.64-0.31c0.18-0.13,0.32-0.29,0.42-0.47h1.02c-0.08,0.27-0.24,0.54-0.48,0.82
				c-0.24,0.27-0.58,0.5-1,0.68s-0.91,0.27-1.46,0.27C388.01,270.35,387.46,270.2,386.97,269.91z M386.43,266.34h4.25v0.58
				c0-0.5-0.08-0.94-0.24-1.32s-0.39-0.67-0.7-0.88s-0.68-0.31-1.11-0.31c-0.43,0-0.82,0.1-1.15,0.3c-0.33,0.2-0.59,0.49-0.77,0.86
				c-0.18,0.37-0.27,0.81-0.27,1.3L386.43,266.34z"/>
			<path class="st0" d="M396.01,269.28l3.67-3.43c0.37-0.35,0.65-0.68,0.81-1c0.17-0.32,0.25-0.66,0.25-1.02
				c0-0.34-0.08-0.65-0.24-0.91s-0.38-0.47-0.66-0.62c-0.28-0.15-0.61-0.22-0.97-0.22c-0.39,0-0.74,0.08-1.05,0.25
				s-0.55,0.4-0.72,0.7c-0.17,0.3-0.26,0.64-0.26,1.02h-1.07c0-0.55,0.14-1.05,0.41-1.5c0.27-0.45,0.65-0.8,1.12-1.05
				c0.48-0.25,1.01-0.38,1.59-0.38c0.55,0,1.05,0.12,1.5,0.34c0.45,0.23,0.8,0.55,1.06,0.95c0.26,0.4,0.39,0.85,0.39,1.35
				c0,0.48-0.13,0.95-0.38,1.4s-0.65,0.94-1.21,1.46l-2.76,2.6h4.61v0.99h-6.09V269.28z"/>
		</g>
		<g>
			<g>
				<g>
					<path class="st7" d="M259.9,160.69c-0.38-0.18-0.67-0.43-0.88-0.76c-0.21-0.32-0.31-0.69-0.31-1.11h0.87
						c0,0.27,0.07,0.51,0.21,0.71c0.14,0.21,0.33,0.37,0.58,0.48s0.53,0.17,0.85,0.17c0.32,0,0.59-0.05,0.83-0.16
						c0.24-0.11,0.42-0.26,0.56-0.45s0.2-0.42,0.2-0.68c0-0.32-0.1-0.6-0.29-0.83s-0.45-0.37-0.77-0.43l-1.15-0.2
						c-0.35-0.06-0.65-0.18-0.9-0.36c-0.25-0.18-0.45-0.41-0.59-0.67s-0.2-0.56-0.2-0.88c0-0.37,0.1-0.71,0.29-1
						c0.2-0.3,0.47-0.53,0.82-0.7c0.35-0.17,0.74-0.25,1.18-0.25c0.45,0,0.85,0.08,1.2,0.25c0.35,0.17,0.62,0.4,0.82,0.7
						c0.19,0.3,0.29,0.64,0.29,1.03h-0.87c0-0.23-0.06-0.44-0.18-0.63s-0.29-0.33-0.5-0.43c-0.22-0.1-0.47-0.15-0.75-0.15
						s-0.53,0.05-0.75,0.15s-0.39,0.24-0.51,0.42c-0.12,0.18-0.18,0.39-0.18,0.63c0,0.28,0.09,0.53,0.27,0.73
						c0.18,0.2,0.42,0.33,0.72,0.38l1.17,0.2c0.34,0.06,0.64,0.19,0.91,0.39c0.26,0.2,0.47,0.45,0.62,0.74s0.22,0.6,0.22,0.92
						c0,0.38-0.1,0.73-0.31,1.05c-0.21,0.31-0.5,0.56-0.87,0.75s-0.8,0.27-1.28,0.27C260.71,160.96,260.27,160.87,259.9,160.69z"/>
					<path class="st7" d="M264.96,153.69h0.79v1.65v0.93v1.6h-0.33c0-0.48,0.08-0.9,0.25-1.26s0.41-0.64,0.71-0.83
						c0.31-0.19,0.67-0.29,1.09-0.29c0.38,0,0.71,0.08,1,0.24c0.29,0.16,0.52,0.4,0.68,0.71c0.17,0.31,0.25,0.68,0.25,1.12v3.28
						h-0.82v-3.2c0-0.3-0.05-0.56-0.16-0.78c-0.11-0.21-0.26-0.38-0.46-0.49s-0.43-0.17-0.7-0.17c-0.29,0-0.55,0.06-0.78,0.19
						s-0.4,0.31-0.52,0.54c-0.12,0.23-0.19,0.5-0.19,0.8v3.1h-0.82V153.69z"/>
					<path class="st7" d="M273.72,155.7c0.3,0.14,0.53,0.36,0.7,0.63s0.25,0.61,0.25,0.99v3.51h-0.8v-1.96h0.21
						c0,0.44-0.08,0.81-0.22,1.12c-0.15,0.31-0.36,0.55-0.64,0.71c-0.28,0.16-0.61,0.25-1,0.25c-0.33,0-0.63-0.06-0.9-0.19
						s-0.48-0.31-0.63-0.54c-0.15-0.23-0.23-0.49-0.23-0.78c0-0.27,0.07-0.52,0.21-0.75c0.14-0.23,0.34-0.42,0.59-0.56
						s0.53-0.24,0.84-0.27l1.39-0.15c0.12-0.01,0.21-0.06,0.27-0.14c0.06-0.08,0.1-0.2,0.1-0.36l0.06,1.07l-1.71,0.19
						c-0.18,0.02-0.33,0.07-0.47,0.16c-0.14,0.09-0.25,0.2-0.32,0.33c-0.08,0.14-0.12,0.29-0.12,0.45c0,0.18,0.05,0.33,0.14,0.47
						c0.09,0.14,0.22,0.24,0.39,0.32c0.17,0.08,0.36,0.11,0.57,0.11c0.29,0,0.55-0.06,0.77-0.18s0.39-0.29,0.51-0.5
						c0.12-0.22,0.18-0.47,0.18-0.75v-1.66c0-0.21-0.05-0.39-0.15-0.55s-0.24-0.28-0.42-0.37s-0.38-0.13-0.62-0.13
						c-0.23,0-0.45,0.04-0.63,0.12s-0.34,0.19-0.45,0.32c-0.11,0.13-0.18,0.28-0.21,0.44h-0.82c0.04-0.3,0.16-0.56,0.35-0.8
						c0.19-0.24,0.44-0.42,0.75-0.56c0.31-0.14,0.65-0.2,1.02-0.2C273.07,155.49,273.42,155.56,273.72,155.7z"/>
					<path class="st7" d="M276.09,155.61h0.82v1.75l-0.34,0.51c0.01-0.47,0.1-0.88,0.26-1.23s0.38-0.62,0.66-0.8
						c0.28-0.19,0.61-0.28,0.98-0.28h0.18v0.85h-0.21c-0.31,0-0.58,0.06-0.81,0.18s-0.41,0.29-0.53,0.51
						c-0.12,0.22-0.19,0.48-0.19,0.77v2.97h-0.82V155.61z"/>
					<path class="st7" d="M280.34,160.61c-0.39-0.23-0.7-0.56-0.92-0.98c-0.22-0.42-0.33-0.89-0.33-1.42c0-0.51,0.11-0.98,0.33-1.39
						c0.22-0.42,0.53-0.74,0.92-0.98c0.39-0.24,0.83-0.35,1.31-0.35c0.49,0,0.93,0.12,1.3,0.35c0.37,0.23,0.66,0.56,0.86,0.97
						c0.2,0.42,0.3,0.88,0.3,1.41v0.2h-4.22l0.01-0.22c0,0.4,0.08,0.75,0.24,1.06c0.16,0.31,0.37,0.55,0.64,0.73
						c0.27,0.17,0.58,0.26,0.92,0.26c0.23,0,0.44-0.03,0.64-0.08c0.2-0.06,0.37-0.14,0.51-0.24c0.14-0.11,0.26-0.23,0.33-0.38h0.82
						c-0.06,0.22-0.19,0.44-0.38,0.65c-0.2,0.22-0.46,0.4-0.8,0.55c-0.33,0.15-0.72,0.22-1.17,0.22
						C281.17,160.96,280.73,160.84,280.34,160.61z M279.9,157.75h3.4v0.46c0-0.4-0.06-0.75-0.19-1.05c-0.13-0.3-0.31-0.54-0.56-0.7
						c-0.25-0.17-0.54-0.25-0.89-0.25c-0.35,0-0.65,0.08-0.92,0.24c-0.27,0.16-0.47,0.39-0.62,0.69s-0.22,0.64-0.22,1.04
						L279.9,157.75z"/>
					<path class="st7" d="M286.03,160.61c-0.38-0.23-0.68-0.55-0.89-0.97c-0.21-0.42-0.32-0.89-0.32-1.42s0.11-1.01,0.32-1.42
						c0.21-0.42,0.51-0.74,0.89-0.97s0.81-0.34,1.3-0.34c0.45,0,0.85,0.1,1.19,0.3s0.61,0.48,0.8,0.84c0.19,0.36,0.29,0.78,0.3,1.25
						h-0.34v0.7h0.34c-0.01,0.47-0.11,0.89-0.3,1.25c-0.19,0.36-0.46,0.64-0.8,0.84c-0.34,0.2-0.74,0.3-1.19,0.3
						C286.84,160.96,286.41,160.84,286.03,160.61z M288.39,159.96c0.27-0.17,0.48-0.4,0.64-0.7s0.23-0.65,0.23-1.04
						c0-0.39-0.08-0.74-0.23-1.04c-0.15-0.3-0.36-0.54-0.64-0.7c-0.27-0.17-0.58-0.25-0.93-0.25c-0.35,0-0.66,0.08-0.92,0.25
						c-0.27,0.17-0.48,0.4-0.63,0.7c-0.15,0.3-0.22,0.65-0.22,1.04c0,0.39,0.08,0.74,0.22,1.04s0.36,0.54,0.63,0.7
						s0.58,0.25,0.92,0.25C287.8,160.22,288.11,160.13,288.39,159.96z M289.23,153.69h0.82v7.15h-0.82V153.69z"/>
					<path class="st7" d="M294.56,160.6c-0.4-0.24-0.71-0.57-0.94-0.98c-0.23-0.42-0.34-0.88-0.34-1.4c0-0.51,0.11-0.98,0.34-1.4
						c0.23-0.42,0.54-0.74,0.94-0.98c0.4-0.24,0.84-0.36,1.34-0.36c0.42,0,0.79,0.07,1.13,0.21c0.33,0.14,0.61,0.35,0.83,0.63
						c0.22,0.28,0.37,0.63,0.45,1.03h-0.82c-0.08-0.25-0.19-0.46-0.35-0.63c-0.16-0.17-0.35-0.3-0.56-0.38
						c-0.21-0.08-0.44-0.12-0.68-0.12c-0.34,0-0.64,0.08-0.91,0.26c-0.27,0.17-0.48,0.41-0.62,0.71s-0.22,0.65-0.22,1.03
						c0,0.38,0.08,0.72,0.22,1.03c0.15,0.3,0.36,0.54,0.62,0.71c0.27,0.17,0.57,0.26,0.91,0.26c0.24,0,0.47-0.04,0.68-0.13
						c0.21-0.08,0.4-0.21,0.56-0.38s0.28-0.38,0.35-0.63h0.82c-0.08,0.39-0.23,0.73-0.46,1.02c-0.23,0.28-0.51,0.5-0.85,0.64
						c-0.34,0.15-0.71,0.22-1.11,0.22C295.4,160.96,294.95,160.84,294.56,160.6z"/>
					<path class="st7" d="M300.3,160.6c-0.41-0.24-0.73-0.56-0.96-0.98c-0.23-0.42-0.35-0.88-0.35-1.4c0-0.52,0.12-0.98,0.35-1.4
						s0.55-0.74,0.96-0.98s0.86-0.35,1.36-0.35c0.5,0,0.95,0.12,1.35,0.35c0.4,0.24,0.72,0.56,0.96,0.98
						c0.23,0.42,0.35,0.88,0.35,1.4c0,0.52-0.12,0.99-0.35,1.4c-0.23,0.42-0.55,0.74-0.96,0.98c-0.41,0.24-0.86,0.35-1.36,0.35
						C301.15,160.96,300.7,160.84,300.3,160.6z M302.58,159.96c0.27-0.17,0.49-0.4,0.64-0.7s0.24-0.65,0.24-1.04
						c0-0.39-0.08-0.74-0.24-1.04s-0.37-0.54-0.65-0.7c-0.27-0.17-0.58-0.25-0.92-0.25c-0.34,0-0.65,0.08-0.92,0.25
						c-0.28,0.17-0.49,0.4-0.65,0.7s-0.24,0.65-0.24,1.04c0,0.39,0.08,0.74,0.24,1.04s0.38,0.53,0.65,0.7s0.59,0.25,0.93,0.25
						C302,160.21,302.31,160.13,302.58,159.96z"/>
					<path class="st7" d="M306.22,160.61c-0.38-0.23-0.68-0.55-0.89-0.97c-0.21-0.42-0.32-0.89-0.32-1.42s0.11-1.01,0.32-1.42
						c0.21-0.42,0.51-0.74,0.89-0.97s0.81-0.34,1.3-0.34c0.45,0,0.85,0.1,1.19,0.3s0.61,0.48,0.8,0.84c0.19,0.36,0.29,0.78,0.3,1.25
						h-0.34v0.7h0.34c-0.01,0.47-0.11,0.89-0.3,1.25c-0.19,0.36-0.46,0.64-0.8,0.84c-0.34,0.2-0.74,0.3-1.19,0.3
						C307.03,160.96,306.6,160.84,306.22,160.61z M308.58,159.96c0.27-0.17,0.48-0.4,0.64-0.7s0.23-0.65,0.23-1.04
						c0-0.39-0.08-0.74-0.23-1.04c-0.15-0.3-0.36-0.54-0.64-0.7c-0.27-0.17-0.58-0.25-0.93-0.25c-0.35,0-0.66,0.08-0.92,0.25
						c-0.27,0.17-0.48,0.4-0.63,0.7c-0.15,0.3-0.22,0.65-0.22,1.04c0,0.39,0.08,0.74,0.22,1.04s0.36,0.54,0.63,0.7
						s0.58,0.25,0.92,0.25C307.99,160.22,308.3,160.13,308.58,159.96z M309.42,153.69h0.82v7.15h-0.82V153.69z"/>
					<path class="st7" d="M312.55,160.61c-0.39-0.23-0.7-0.56-0.92-0.98c-0.22-0.42-0.33-0.89-0.33-1.42c0-0.51,0.11-0.98,0.33-1.39
						c0.22-0.42,0.53-0.74,0.92-0.98c0.39-0.24,0.83-0.35,1.31-0.35c0.49,0,0.93,0.12,1.3,0.35c0.37,0.23,0.66,0.56,0.86,0.97
						c0.2,0.42,0.3,0.88,0.3,1.41v0.2h-4.22l0.01-0.22c0,0.4,0.08,0.75,0.24,1.06c0.16,0.31,0.37,0.55,0.64,0.73
						c0.27,0.17,0.58,0.26,0.92,0.26c0.23,0,0.44-0.03,0.64-0.08c0.2-0.06,0.37-0.14,0.51-0.24c0.14-0.11,0.26-0.23,0.33-0.38h0.82
						c-0.06,0.22-0.19,0.44-0.38,0.65c-0.2,0.22-0.46,0.4-0.8,0.55c-0.33,0.15-0.72,0.22-1.17,0.22
						C313.38,160.96,312.94,160.84,312.55,160.61z M312.11,157.75h3.4v0.46c0-0.4-0.06-0.75-0.19-1.05c-0.13-0.3-0.31-0.54-0.56-0.7
						c-0.25-0.17-0.54-0.25-0.89-0.25c-0.35,0-0.65,0.08-0.92,0.24c-0.27,0.16-0.47,0.39-0.62,0.69s-0.22,0.64-0.22,1.04
						L312.11,157.75z"/>
					<path class="st7" d="M320.44,155.61v1.02h0.02v5.85h-0.82v-6.87H320.44z M321.19,160.66c-0.34-0.2-0.61-0.48-0.8-0.84
						c-0.19-0.36-0.29-0.77-0.3-1.25h0.34v-0.7h-0.34c0.01-0.47,0.11-0.89,0.3-1.25c0.19-0.36,0.46-0.64,0.8-0.84
						c0.34-0.2,0.74-0.3,1.19-0.3c0.49,0,0.92,0.12,1.3,0.34c0.38,0.23,0.67,0.55,0.89,0.97s0.32,0.89,0.32,1.42
						s-0.11,1.01-0.32,1.42s-0.51,0.74-0.89,0.97c-0.38,0.23-0.81,0.34-1.3,0.34C321.93,160.96,321.54,160.86,321.19,160.66z
						 M323.18,159.96c0.27-0.17,0.48-0.4,0.63-0.7c0.15-0.3,0.22-0.65,0.22-1.04c0-0.39-0.08-0.74-0.22-1.04
						c-0.15-0.3-0.36-0.54-0.63-0.7c-0.27-0.17-0.58-0.25-0.92-0.25c-0.35,0-0.66,0.08-0.93,0.25c-0.27,0.17-0.48,0.4-0.63,0.7
						c-0.15,0.3-0.23,0.65-0.23,1.04c0,0.39,0.08,0.74,0.23,1.04c0.15,0.3,0.36,0.54,0.63,0.7s0.58,0.25,0.93,0.25
						C322.6,160.22,322.91,160.13,323.18,159.96z"/>
					<path class="st7" d="M326.03,155.61h0.82v1.75l-0.34,0.51c0.01-0.47,0.1-0.88,0.26-1.23s0.38-0.62,0.66-0.8
						c0.28-0.19,0.61-0.28,0.98-0.28h0.18v0.85h-0.21c-0.31,0-0.58,0.06-0.81,0.18s-0.41,0.29-0.53,0.51
						c-0.12,0.22-0.19,0.48-0.19,0.77v2.97h-0.82V155.61z"/>
					<path class="st7" d="M330.34,160.6c-0.41-0.24-0.73-0.56-0.96-0.98c-0.23-0.42-0.35-0.88-0.35-1.4c0-0.52,0.12-0.98,0.35-1.4
						s0.55-0.74,0.96-0.98s0.86-0.35,1.36-0.35c0.5,0,0.95,0.12,1.35,0.35c0.4,0.24,0.72,0.56,0.96,0.98
						c0.23,0.42,0.35,0.88,0.35,1.4c0,0.52-0.12,0.99-0.35,1.4c-0.23,0.42-0.55,0.74-0.96,0.98c-0.41,0.24-0.86,0.35-1.36,0.35
						C331.19,160.96,330.74,160.84,330.34,160.6z M332.62,159.96c0.27-0.17,0.49-0.4,0.64-0.7s0.24-0.65,0.24-1.04
						c0-0.39-0.08-0.74-0.24-1.04s-0.37-0.54-0.65-0.7c-0.27-0.17-0.58-0.25-0.92-0.25c-0.34,0-0.65,0.08-0.92,0.25
						c-0.28,0.17-0.49,0.4-0.65,0.7s-0.24,0.65-0.24,1.04c0,0.39,0.08,0.74,0.24,1.04s0.38,0.53,0.65,0.7s0.59,0.25,0.93,0.25
						C332.04,160.21,332.35,160.13,332.62,159.96z"/>
					<path class="st7" d="M334.4,161.69h0.45c0.17,0,0.3-0.05,0.41-0.16c0.1-0.1,0.16-0.24,0.16-0.41v-5.52h0.82v5.58
						c0,0.25-0.06,0.47-0.17,0.66c-0.11,0.19-0.27,0.34-0.47,0.45c-0.2,0.11-0.43,0.16-0.69,0.16h-0.5V161.69z M336.3,153.69v0.97
						h-0.96v-0.97H336.3z"/>
					<path class="st7" d="M338.54,160.61c-0.39-0.23-0.7-0.56-0.92-0.98c-0.22-0.42-0.33-0.89-0.33-1.42c0-0.51,0.11-0.98,0.33-1.39
						c0.22-0.42,0.53-0.74,0.92-0.98c0.39-0.24,0.83-0.35,1.31-0.35c0.49,0,0.93,0.12,1.3,0.35c0.37,0.23,0.66,0.56,0.86,0.97
						c0.2,0.42,0.3,0.88,0.3,1.41v0.2h-4.22l0.01-0.22c0,0.4,0.08,0.75,0.24,1.06c0.16,0.31,0.37,0.55,0.64,0.73
						c0.27,0.17,0.58,0.26,0.92,0.26c0.23,0,0.44-0.03,0.64-0.08c0.2-0.06,0.37-0.14,0.51-0.24c0.14-0.11,0.26-0.23,0.33-0.38h0.82
						c-0.06,0.22-0.19,0.44-0.38,0.65c-0.2,0.22-0.46,0.4-0.8,0.55c-0.33,0.15-0.72,0.22-1.17,0.22
						C339.37,160.96,338.93,160.84,338.54,160.61z M338.1,157.75h3.4v0.46c0-0.4-0.06-0.75-0.19-1.05c-0.13-0.3-0.31-0.54-0.56-0.7
						c-0.25-0.17-0.54-0.25-0.89-0.25c-0.35,0-0.65,0.08-0.92,0.24c-0.27,0.16-0.47,0.39-0.62,0.69s-0.22,0.64-0.22,1.04
						L338.1,157.75z"/>
					<path class="st7" d="M344.29,160.6c-0.4-0.24-0.71-0.57-0.94-0.98c-0.23-0.42-0.34-0.88-0.34-1.4c0-0.51,0.11-0.98,0.34-1.4
						c0.23-0.42,0.54-0.74,0.94-0.98c0.4-0.24,0.84-0.36,1.34-0.36c0.42,0,0.79,0.07,1.13,0.21c0.33,0.14,0.61,0.35,0.83,0.63
						c0.22,0.28,0.37,0.63,0.45,1.03h-0.82c-0.08-0.25-0.19-0.46-0.35-0.63c-0.16-0.17-0.35-0.3-0.56-0.38
						c-0.21-0.08-0.44-0.12-0.68-0.12c-0.34,0-0.64,0.08-0.91,0.26c-0.27,0.17-0.48,0.41-0.62,0.71s-0.22,0.65-0.22,1.03
						c0,0.38,0.08,0.72,0.22,1.03c0.15,0.3,0.36,0.54,0.62,0.71c0.27,0.17,0.57,0.26,0.91,0.26c0.24,0,0.47-0.04,0.68-0.13
						c0.21-0.08,0.4-0.21,0.56-0.38s0.28-0.38,0.35-0.63h0.82c-0.08,0.39-0.23,0.73-0.46,1.02c-0.23,0.28-0.51,0.5-0.85,0.64
						c-0.34,0.15-0.71,0.22-1.11,0.22C345.14,160.96,344.69,160.84,344.29,160.6z"/>
					<path class="st7" d="M350.17,160.67c-0.2-0.11-0.36-0.25-0.48-0.44s-0.17-0.4-0.17-0.63l0-3.27h-0.92l0.01-0.73h0.57
						c0.13,0,0.23-0.04,0.31-0.12c0.08-0.08,0.12-0.19,0.12-0.31v-0.84h0.74v1.28h1.26l-0.01,0.73h-1.26l0.01,3.22
						c0,0.16,0.05,0.29,0.16,0.4c0.11,0.11,0.24,0.16,0.4,0.16h0.69v0.73h-0.75C350.6,160.84,350.37,160.78,350.17,160.67z"/>
				</g>
			</g>
			<path class="st3" d="M437.88,141.73l-175.76,0c-8.05,0-14.58,6.53-14.58,14.58v150.64c0,8.05,6.53,14.58,14.58,14.58l175.76,0
				c8.05,0,14.58-6.53,14.58-14.58V156.31C452.46,148.26,445.93,141.73,437.88,141.73z"/>
		</g>
		<g>
			<g>
				<g>
					<path class="st7" d="M33.77,85.09h0.91l2.75,7.15h-0.9l-0.69-1.9h-3.16l-0.64,1.9h-0.92L33.77,85.09z M35.57,89.6l-1.22-3.32
						l-0.12-0.43l-0.12,0.43l-1.16,3.32H35.57z"/>
					<path class="st7" d="M38.34,87.01h0.79v2.26H38.8c0-0.48,0.08-0.9,0.25-1.26s0.41-0.64,0.71-0.83s0.67-0.29,1.09-0.29
						c0.38,0,0.71,0.08,1,0.24c0.29,0.16,0.52,0.4,0.68,0.71c0.17,0.31,0.25,0.69,0.25,1.12v3.28h-0.82v-3.2
						c0-0.3-0.05-0.56-0.16-0.78s-0.26-0.38-0.46-0.49s-0.43-0.17-0.7-0.17c-0.29,0-0.55,0.06-0.78,0.19s-0.4,0.31-0.52,0.54
						c-0.12,0.23-0.19,0.5-0.19,0.8v3.1h-0.82V87.01z"/>
					<path class="st7" d="M44.97,92.01c-0.38-0.23-0.68-0.55-0.89-0.97c-0.21-0.42-0.32-0.89-0.32-1.42s0.11-1.01,0.32-1.42
						c0.21-0.42,0.51-0.74,0.89-0.97s0.81-0.34,1.3-0.34c0.45,0,0.85,0.1,1.19,0.3c0.34,0.2,0.61,0.48,0.8,0.84s0.29,0.77,0.3,1.25
						h-0.34v0.7h0.34c-0.01,0.47-0.11,0.89-0.3,1.25c-0.19,0.36-0.46,0.64-0.8,0.84s-0.74,0.3-1.19,0.3
						C45.78,92.36,45.35,92.24,44.97,92.01z M47.33,91.37c0.27-0.17,0.48-0.4,0.64-0.7c0.15-0.3,0.23-0.65,0.23-1.04
						c0-0.39-0.08-0.74-0.23-1.04s-0.36-0.54-0.64-0.7c-0.27-0.17-0.58-0.25-0.93-0.25c-0.35,0-0.66,0.08-0.92,0.25
						c-0.27,0.17-0.48,0.4-0.63,0.7s-0.22,0.65-0.22,1.04c0,0.39,0.08,0.74,0.22,1.04c0.15,0.3,0.36,0.54,0.63,0.7
						s0.58,0.25,0.92,0.25C46.75,91.62,47.06,91.53,47.33,91.37z M48.18,85.09H49v7.15h-0.82V85.09z"/>
					<path class="st7" d="M50.5,87.01h0.82v1.75l-0.34,0.51c0.01-0.47,0.1-0.88,0.26-1.23c0.16-0.35,0.38-0.62,0.66-0.8
						c0.28-0.19,0.61-0.28,0.98-0.28h0.18v0.85h-0.21c-0.31,0-0.58,0.06-0.81,0.18c-0.23,0.12-0.41,0.29-0.53,0.51
						c-0.12,0.22-0.19,0.48-0.19,0.77v2.97H50.5V87.01z"/>
					<path class="st7" d="M54.81,92c-0.41-0.24-0.73-0.56-0.96-0.98s-0.35-0.88-0.35-1.4c0-0.52,0.12-0.98,0.35-1.4
						c0.23-0.42,0.55-0.74,0.96-0.98s0.86-0.35,1.36-0.35c0.5,0,0.95,0.12,1.35,0.35c0.4,0.24,0.72,0.56,0.96,0.98
						c0.23,0.42,0.35,0.88,0.35,1.4c0,0.52-0.12,0.99-0.35,1.4c-0.23,0.42-0.55,0.74-0.96,0.98c-0.41,0.24-0.86,0.35-1.36,0.35
						C55.67,92.36,55.22,92.24,54.81,92z M57.1,91.36c0.27-0.17,0.49-0.4,0.64-0.7c0.16-0.3,0.24-0.65,0.24-1.04
						c0-0.39-0.08-0.74-0.24-1.04s-0.37-0.54-0.65-0.7c-0.27-0.17-0.58-0.25-0.92-0.25c-0.34,0-0.65,0.08-0.92,0.25
						c-0.28,0.17-0.49,0.4-0.65,0.7s-0.24,0.65-0.24,1.04c0,0.39,0.08,0.74,0.24,1.04c0.16,0.3,0.38,0.54,0.65,0.7
						s0.59,0.25,0.93,0.25C56.52,91.61,56.82,91.53,57.1,91.36z"/>
					<path class="st7" d="M60.86,85.09v0.97H59.9v-0.97H60.86z M59.97,87.01h0.82v5.23h-0.82V87.01z"/>
					<path class="st7" d="M63.13,92.01c-0.38-0.23-0.68-0.55-0.89-0.97c-0.21-0.42-0.32-0.89-0.32-1.42s0.11-1.01,0.32-1.42
						c0.21-0.42,0.51-0.74,0.89-0.97s0.81-0.34,1.3-0.34c0.45,0,0.85,0.1,1.19,0.3c0.34,0.2,0.61,0.48,0.8,0.84s0.29,0.77,0.3,1.25
						h-0.34v0.7h0.34c-0.01,0.47-0.11,0.89-0.3,1.25c-0.19,0.36-0.46,0.64-0.8,0.84s-0.74,0.3-1.19,0.3
						C63.94,92.36,63.51,92.24,63.13,92.01z M65.49,91.37c0.27-0.17,0.48-0.4,0.64-0.7c0.15-0.3,0.23-0.65,0.23-1.04
						c0-0.39-0.08-0.74-0.23-1.04s-0.36-0.54-0.64-0.7c-0.27-0.17-0.58-0.25-0.93-0.25c-0.35,0-0.66,0.08-0.92,0.25
						c-0.27,0.17-0.48,0.4-0.63,0.7s-0.22,0.65-0.22,1.04c0,0.39,0.08,0.74,0.22,1.04c0.15,0.3,0.36,0.54,0.63,0.7
						s0.58,0.25,0.92,0.25C64.91,91.62,65.22,91.53,65.49,91.37z M66.34,85.09h0.82v7.15h-0.82V85.09z"/>
					<path class="st7" d="M71.78,87.01v1.02h0.02v5.85h-0.82v-6.87H71.78z M72.53,92.06c-0.34-0.2-0.61-0.48-0.8-0.84
						c-0.19-0.36-0.29-0.78-0.3-1.25h0.34v-0.7h-0.34c0.01-0.47,0.11-0.89,0.3-1.25s0.46-0.64,0.8-0.84c0.34-0.2,0.74-0.3,1.19-0.3
						c0.49,0,0.92,0.11,1.3,0.34c0.38,0.23,0.67,0.55,0.89,0.97s0.32,0.89,0.32,1.42s-0.11,1.01-0.32,1.42s-0.51,0.74-0.89,0.97
						c-0.38,0.23-0.81,0.34-1.3,0.34C73.27,92.36,72.88,92.26,72.53,92.06z M74.52,91.37c0.27-0.17,0.48-0.4,0.63-0.7
						c0.15-0.3,0.22-0.65,0.22-1.04c0-0.39-0.08-0.74-0.22-1.04c-0.15-0.3-0.36-0.54-0.63-0.7c-0.27-0.17-0.58-0.25-0.92-0.25
						c-0.35,0-0.66,0.08-0.93,0.25c-0.27,0.17-0.48,0.4-0.63,0.7c-0.15,0.3-0.23,0.65-0.23,1.04c0,0.39,0.08,0.74,0.23,1.04
						c0.15,0.3,0.36,0.54,0.63,0.7s0.58,0.25,0.93,0.25C73.94,91.62,74.25,91.53,74.52,91.37z"/>
					<path class="st7" d="M77.37,87.01h0.82v1.75l-0.34,0.51c0.01-0.47,0.1-0.88,0.26-1.23c0.16-0.35,0.38-0.62,0.66-0.8
						c0.28-0.19,0.61-0.28,0.98-0.28h0.18v0.85h-0.21c-0.31,0-0.58,0.06-0.81,0.18c-0.23,0.12-0.41,0.29-0.53,0.51
						c-0.12,0.22-0.19,0.48-0.19,0.77v2.97h-0.82V87.01z"/>
					<path class="st7" d="M81.68,92c-0.41-0.24-0.73-0.56-0.96-0.98s-0.35-0.88-0.35-1.4c0-0.52,0.12-0.98,0.35-1.4
						c0.23-0.42,0.55-0.74,0.96-0.98s0.86-0.35,1.36-0.35c0.5,0,0.95,0.12,1.35,0.35c0.4,0.24,0.72,0.56,0.96,0.98
						c0.23,0.42,0.35,0.88,0.35,1.4c0,0.52-0.12,0.99-0.35,1.4c-0.23,0.42-0.55,0.74-0.96,0.98c-0.41,0.24-0.86,0.35-1.36,0.35
						C82.54,92.36,82.09,92.24,81.68,92z M83.96,91.36c0.27-0.17,0.49-0.4,0.64-0.7c0.16-0.3,0.24-0.65,0.24-1.04
						c0-0.39-0.08-0.74-0.24-1.04s-0.37-0.54-0.65-0.7c-0.27-0.17-0.58-0.25-0.92-0.25c-0.34,0-0.65,0.08-0.92,0.25
						c-0.28,0.17-0.49,0.4-0.65,0.7s-0.24,0.65-0.24,1.04c0,0.39,0.08,0.74,0.24,1.04c0.16,0.3,0.38,0.54,0.65,0.7
						s0.59,0.25,0.93,0.25C83.38,91.61,83.69,91.53,83.96,91.36z"/>
					<path class="st7" d="M85.74,93.09h0.45c0.17,0,0.3-0.05,0.41-0.16c0.1-0.1,0.16-0.24,0.16-0.41v-5.52h0.82v5.58
						c0,0.25-0.06,0.47-0.17,0.66s-0.27,0.34-0.47,0.45c-0.2,0.11-0.43,0.16-0.69,0.16h-0.5V93.09z M87.64,85.09v0.97h-0.96v-0.97
						H87.64z"/>
					<path class="st7" d="M89.88,92.01c-0.39-0.23-0.7-0.56-0.92-0.98c-0.22-0.42-0.33-0.89-0.33-1.42c0-0.51,0.11-0.98,0.33-1.39
						s0.53-0.74,0.92-0.98c0.39-0.24,0.83-0.35,1.31-0.35c0.49,0,0.93,0.12,1.3,0.35c0.37,0.23,0.66,0.56,0.86,0.97
						c0.2,0.42,0.3,0.88,0.3,1.41v0.2h-4.22l0.01-0.22c0,0.4,0.08,0.75,0.24,1.06c0.16,0.31,0.37,0.55,0.64,0.73
						c0.27,0.17,0.58,0.26,0.92,0.26c0.23,0,0.44-0.03,0.64-0.08c0.2-0.06,0.37-0.14,0.51-0.25c0.14-0.11,0.26-0.23,0.33-0.38h0.82
						c-0.06,0.22-0.19,0.44-0.38,0.65c-0.2,0.22-0.46,0.4-0.8,0.55s-0.72,0.22-1.17,0.22C90.71,92.36,90.27,92.24,89.88,92.01z
						 M89.44,89.15h3.4v0.46c0-0.4-0.06-0.75-0.19-1.05s-0.31-0.54-0.56-0.7c-0.25-0.17-0.54-0.25-0.89-0.25
						c-0.35,0-0.65,0.08-0.92,0.24c-0.27,0.16-0.47,0.39-0.62,0.69s-0.22,0.64-0.22,1.04L89.44,89.15z"/>
					<path class="st7" d="M95.64,92c-0.4-0.24-0.71-0.57-0.94-0.98c-0.23-0.42-0.34-0.88-0.34-1.4c0-0.51,0.11-0.98,0.34-1.4
						c0.23-0.42,0.54-0.74,0.94-0.98c0.4-0.24,0.84-0.36,1.34-0.36c0.42,0,0.79,0.07,1.13,0.21c0.33,0.14,0.61,0.35,0.83,0.63
						c0.22,0.28,0.37,0.62,0.45,1.03h-0.82c-0.08-0.25-0.19-0.46-0.35-0.63s-0.35-0.3-0.56-0.38c-0.21-0.08-0.44-0.12-0.68-0.12
						c-0.34,0-0.64,0.09-0.91,0.26c-0.27,0.17-0.48,0.41-0.62,0.71s-0.22,0.65-0.22,1.03c0,0.38,0.08,0.72,0.22,1.03
						c0.15,0.3,0.36,0.54,0.62,0.71c0.27,0.17,0.57,0.26,0.91,0.26c0.24,0,0.47-0.04,0.68-0.12c0.21-0.08,0.4-0.21,0.56-0.38
						c0.16-0.17,0.28-0.38,0.35-0.63h0.82c-0.08,0.4-0.23,0.73-0.46,1.02c-0.23,0.28-0.51,0.5-0.85,0.64s-0.71,0.22-1.11,0.22
						C96.48,92.36,96.03,92.24,95.64,92z"/>
					<path class="st7" d="M101.51,92.08c-0.2-0.11-0.36-0.26-0.48-0.44c-0.12-0.19-0.17-0.4-0.17-0.63l0-3.27h-0.92l0.01-0.73h0.57
						c0.13,0,0.23-0.04,0.31-0.12c0.08-0.08,0.12-0.19,0.12-0.31v-0.84h0.74v1.28h1.26l-0.01,0.73h-1.26l0.01,3.22
						c0,0.16,0.05,0.29,0.16,0.4c0.11,0.11,0.24,0.16,0.4,0.16h0.69v0.72h-0.75C101.94,92.24,101.71,92.18,101.51,92.08z"/>
				</g>
			</g>
			<g>
				<g>
					<g>
						<path class="st2" d="M210.05,106.35H35.41c-6.04,0-10.94,4.9-10.94,10.94v30.58c0,6.04,4.9,10.94,10.94,10.94h174.64
							c6.04,0,10.94-4.9,10.94-10.94v-30.58C220.99,111.25,216.09,106.35,210.05,106.35z"/>
					</g>
				</g>
			</g>
			<g>
				<g>
					<path d="M89.29,127.82h1.14l3.43,8.93h-1.12l-0.86-2.37h-3.95l-0.8,2.37h-1.15L89.29,127.82z M91.53,133.46l-1.52-4.15
						l-0.15-0.54l-0.15,0.54l-1.45,4.15H91.53z"/>
					<path d="M95.25,130.22h0.98v2.83h-0.41c0-0.6,0.1-1.13,0.31-1.58c0.21-0.45,0.51-0.79,0.89-1.04c0.39-0.24,0.84-0.36,1.37-0.36
						c0.47,0,0.88,0.1,1.24,0.3c0.36,0.2,0.65,0.49,0.85,0.88c0.21,0.39,0.31,0.86,0.31,1.4v4.1h-1.02v-4c0-0.38-0.07-0.7-0.2-0.97
						c-0.13-0.27-0.32-0.47-0.57-0.61c-0.25-0.14-0.54-0.21-0.88-0.21c-0.37,0-0.69,0.08-0.97,0.24c-0.28,0.16-0.5,0.39-0.65,0.68
						s-0.23,0.62-0.23,1v3.87h-1.02V130.22z"/>
					<path d="M103.8,136.47c-0.47-0.29-0.84-0.69-1.11-1.21s-0.4-1.11-0.4-1.78c0-0.67,0.13-1.26,0.4-1.78
						c0.27-0.52,0.64-0.92,1.11-1.21s1.02-0.43,1.62-0.43c0.56,0,1.06,0.12,1.49,0.37s0.76,0.6,1,1.05s0.36,0.97,0.37,1.56h-0.42
						v0.88h0.42c-0.01,0.59-0.13,1.11-0.37,1.56c-0.24,0.45-0.58,0.8-1,1.05c-0.43,0.25-0.92,0.37-1.49,0.37
						C104.81,136.9,104.27,136.76,103.8,136.47z M106.75,135.66c0.34-0.21,0.6-0.5,0.79-0.88s0.28-0.81,0.28-1.3
						c0-0.49-0.09-0.92-0.28-1.3s-0.45-0.67-0.79-0.88c-0.34-0.21-0.73-0.32-1.17-0.32c-0.43,0-0.82,0.11-1.15,0.32
						c-0.34,0.21-0.6,0.5-0.79,0.88s-0.28,0.81-0.28,1.3c0,0.49,0.09,0.92,0.28,1.3s0.45,0.67,0.79,0.88
						c0.34,0.21,0.72,0.32,1.15,0.32C106.02,135.98,106.41,135.87,106.75,135.66z M107.81,127.82h1.02v8.93h-1.02V127.82z"/>
					<path d="M110.97,130.22h1.02v2.19l-0.43,0.64c0.02-0.59,0.12-1.1,0.32-1.53c0.2-0.44,0.47-0.77,0.83-1
						c0.35-0.23,0.76-0.35,1.23-0.35h0.23v1.07h-0.27c-0.39,0-0.73,0.07-1.01,0.22s-0.51,0.36-0.67,0.63s-0.23,0.6-0.23,0.97v3.71
						h-1.02V130.22z"/>
					<path d="M116.61,136.46c-0.51-0.3-0.91-0.7-1.2-1.23c-0.29-0.52-0.44-1.1-0.44-1.75s0.15-1.23,0.44-1.75
						c0.29-0.52,0.69-0.93,1.2-1.22c0.51-0.3,1.08-0.44,1.7-0.44s1.18,0.15,1.69,0.44c0.51,0.3,0.91,0.7,1.2,1.22
						s0.44,1.1,0.44,1.75s-0.15,1.24-0.44,1.75c-0.29,0.52-0.69,0.93-1.2,1.22c-0.51,0.3-1.07,0.44-1.7,0.44
						C117.68,136.9,117.12,136.76,116.61,136.46z M119.47,135.66c0.34-0.21,0.61-0.5,0.8-0.88c0.2-0.38,0.29-0.81,0.29-1.3
						c0-0.49-0.1-0.92-0.29-1.3c-0.2-0.38-0.46-0.67-0.81-0.88c-0.34-0.21-0.73-0.31-1.15-0.31c-0.43,0-0.81,0.1-1.16,0.31
						c-0.34,0.21-0.62,0.5-0.81,0.88c-0.2,0.38-0.3,0.81-0.3,1.3c0,0.49,0.1,0.92,0.3,1.3c0.2,0.38,0.47,0.67,0.82,0.88
						s0.73,0.31,1.16,0.31C118.74,135.97,119.13,135.87,119.47,135.66z"/>
					<path d="M124.42,127.82v1.21h-1.2v-1.21H124.42z M123.31,130.22h1.02v6.53h-1.02V130.22z"/>
					<path d="M127.52,136.47c-0.47-0.29-0.84-0.69-1.11-1.21s-0.4-1.11-0.4-1.78c0-0.67,0.13-1.26,0.4-1.78
						c0.27-0.52,0.64-0.92,1.11-1.21s1.02-0.43,1.62-0.43c0.56,0,1.06,0.12,1.49,0.37s0.76,0.6,1,1.05s0.36,0.97,0.37,1.56h-0.42
						v0.88h0.42c-0.01,0.59-0.13,1.11-0.37,1.56c-0.24,0.45-0.58,0.8-1,1.05c-0.43,0.25-0.92,0.37-1.49,0.37
						C128.54,136.9,127.99,136.76,127.52,136.47z M130.47,135.66c0.34-0.21,0.6-0.5,0.79-0.88s0.28-0.81,0.28-1.3
						c0-0.49-0.09-0.92-0.28-1.3s-0.45-0.67-0.79-0.88c-0.34-0.21-0.73-0.32-1.17-0.32c-0.43,0-0.82,0.11-1.15,0.32
						c-0.34,0.21-0.6,0.5-0.79,0.88s-0.28,0.81-0.28,1.3c0,0.49,0.09,0.92,0.28,1.3s0.45,0.67,0.79,0.88
						c0.34,0.21,0.72,0.32,1.15,0.32C129.74,135.98,130.13,135.87,130.47,135.66z M131.53,127.82h1.02v8.93h-1.02V127.82z"/>
					<path d="M141.45,130.34c0.37,0.18,0.66,0.44,0.87,0.79c0.21,0.35,0.31,0.76,0.31,1.23v4.39h-1v-2.44h0.27
						c0,0.54-0.09,1.01-0.28,1.4s-0.46,0.69-0.8,0.89s-0.76,0.31-1.24,0.31c-0.42,0-0.79-0.08-1.13-0.24s-0.6-0.38-0.79-0.67
						c-0.19-0.28-0.29-0.61-0.29-0.97c0-0.34,0.09-0.65,0.26-0.94c0.18-0.29,0.42-0.52,0.73-0.71s0.66-0.3,1.06-0.34l1.74-0.19
						c0.14-0.02,0.26-0.08,0.34-0.18c0.08-0.1,0.12-0.25,0.12-0.45l0.08,1.34l-2.14,0.24c-0.22,0.03-0.42,0.09-0.59,0.2
						c-0.17,0.11-0.31,0.24-0.4,0.41c-0.1,0.17-0.14,0.36-0.14,0.56c0,0.22,0.06,0.42,0.18,0.59c0.12,0.17,0.28,0.3,0.49,0.4
						c0.21,0.1,0.45,0.14,0.71,0.14c0.37,0,0.69-0.07,0.96-0.22s0.49-0.36,0.63-0.63c0.15-0.27,0.22-0.58,0.22-0.93v-2.08
						c0-0.26-0.06-0.49-0.18-0.69c-0.12-0.2-0.3-0.35-0.52-0.46s-0.48-0.16-0.78-0.16c-0.29,0-0.56,0.05-0.79,0.15
						c-0.23,0.1-0.42,0.23-0.56,0.4c-0.14,0.17-0.23,0.35-0.26,0.55h-1.02c0.05-0.37,0.2-0.7,0.44-1c0.24-0.3,0.55-0.53,0.93-0.7
						s0.81-0.25,1.27-0.25C140.64,130.07,141.08,130.16,141.45,130.34z"/>
					<path d="M145.67,130.22v1.28h0.03v7.31h-1.02v-8.59H145.67z M146.61,136.53c-0.43-0.25-0.76-0.6-1-1.05
						c-0.24-0.45-0.36-0.97-0.37-1.56h0.42v-0.88h-0.42c0.01-0.59,0.13-1.11,0.37-1.56s0.58-0.8,1-1.05s0.93-0.37,1.49-0.37
						c0.61,0,1.15,0.14,1.62,0.43c0.47,0.29,0.84,0.69,1.11,1.21c0.27,0.52,0.4,1.11,0.4,1.78c0,0.67-0.13,1.26-0.4,1.78
						s-0.64,0.92-1.11,1.21c-0.47,0.29-1.01,0.43-1.62,0.43C147.54,136.9,147.04,136.78,146.61,136.53z M149.1,135.66
						c0.34-0.21,0.6-0.5,0.79-0.88c0.19-0.38,0.28-0.81,0.28-1.3c0-0.49-0.09-0.92-0.28-1.3c-0.19-0.38-0.45-0.67-0.79-0.88
						s-0.72-0.32-1.16-0.32c-0.44,0-0.83,0.11-1.17,0.32c-0.34,0.21-0.61,0.5-0.79,0.88c-0.19,0.38-0.28,0.81-0.28,1.3
						c0,0.49,0.09,0.92,0.28,1.3c0.19,0.38,0.45,0.67,0.79,0.88c0.34,0.21,0.73,0.32,1.17,0.32
						C148.37,135.98,148.76,135.87,149.1,135.66z"/>
					<path d="M153.91,130.22v1.28h0.03v7.31h-1.02v-8.59H153.91z M154.85,136.53c-0.43-0.25-0.76-0.6-1-1.05
						c-0.24-0.45-0.36-0.97-0.37-1.56h0.42v-0.88h-0.42c0.01-0.59,0.13-1.11,0.37-1.56s0.58-0.8,1-1.05s0.93-0.37,1.49-0.37
						c0.61,0,1.15,0.14,1.62,0.43c0.47,0.29,0.84,0.69,1.11,1.21c0.27,0.52,0.4,1.11,0.4,1.78c0,0.67-0.13,1.26-0.4,1.78
						s-0.64,0.92-1.11,1.21c-0.47,0.29-1.01,0.43-1.62,0.43C155.77,136.9,155.28,136.78,154.85,136.53z M157.33,135.66
						c0.34-0.21,0.6-0.5,0.79-0.88c0.19-0.38,0.28-0.81,0.28-1.3c0-0.49-0.09-0.92-0.28-1.3c-0.19-0.38-0.45-0.67-0.79-0.88
						s-0.72-0.32-1.16-0.32c-0.44,0-0.83,0.11-1.17,0.32c-0.34,0.21-0.61,0.5-0.79,0.88c-0.19,0.38-0.28,0.81-0.28,1.3
						c0,0.49,0.09,0.92,0.28,1.3c0.19,0.38,0.45,0.67,0.79,0.88c0.34,0.21,0.73,0.32,1.17,0.32
						C156.61,135.98,157,135.87,157.33,135.66z"/>
				</g>
			</g>
		</g>
	</g>
	<g>
		<g>
			<g>
				<path class="st7" d="M488.2,88.61l-2.38-3.52h0.99l1.68,2.56l0.22,0.31l0.35-0.53l1.56-2.35h0.97l-2.4,3.5l2.5,3.65h-0.99
					l-1.8-2.67l-0.23-0.33l-0.38,0.58l-1.6,2.43h-0.97L488.2,88.61z"/>
				<path class="st7" d="M493.14,92c-0.4-0.24-0.71-0.57-0.94-0.98c-0.23-0.42-0.34-0.88-0.34-1.4c0-0.51,0.11-0.98,0.34-1.4
					c0.23-0.42,0.54-0.74,0.94-0.98c0.4-0.24,0.84-0.36,1.34-0.36c0.42,0,0.79,0.07,1.13,0.21c0.33,0.14,0.61,0.35,0.83,0.63
					c0.22,0.28,0.37,0.62,0.45,1.03h-0.82c-0.08-0.25-0.19-0.46-0.35-0.63s-0.35-0.3-0.56-0.38c-0.21-0.08-0.44-0.12-0.68-0.12
					c-0.34,0-0.64,0.09-0.91,0.26c-0.27,0.17-0.48,0.41-0.62,0.71s-0.22,0.65-0.22,1.03c0,0.38,0.08,0.72,0.22,1.03
					c0.15,0.3,0.36,0.54,0.62,0.71c0.27,0.17,0.57,0.26,0.91,0.26c0.24,0,0.47-0.04,0.68-0.12c0.21-0.08,0.4-0.21,0.56-0.38
					c0.16-0.17,0.28-0.38,0.35-0.63h0.82c-0.08,0.4-0.23,0.73-0.46,1.02c-0.23,0.28-0.51,0.5-0.85,0.64s-0.71,0.22-1.11,0.22
					C493.98,92.36,493.54,92.24,493.14,92z"/>
				<path class="st7" d="M498.88,92c-0.41-0.24-0.73-0.56-0.96-0.98s-0.35-0.88-0.35-1.4c0-0.52,0.12-0.98,0.35-1.4
					c0.23-0.42,0.55-0.74,0.96-0.98s0.86-0.35,1.36-0.35c0.5,0,0.95,0.12,1.35,0.35c0.4,0.24,0.72,0.56,0.96,0.98
					c0.23,0.42,0.35,0.88,0.35,1.4c0,0.52-0.12,0.99-0.35,1.4c-0.23,0.42-0.55,0.74-0.96,0.98c-0.41,0.24-0.86,0.35-1.36,0.35
					C499.74,92.36,499.29,92.24,498.88,92z M501.16,91.36c0.27-0.17,0.49-0.4,0.64-0.7c0.16-0.3,0.24-0.65,0.24-1.04
					c0-0.39-0.08-0.74-0.24-1.04s-0.37-0.54-0.65-0.7c-0.27-0.17-0.58-0.25-0.92-0.25c-0.34,0-0.65,0.08-0.92,0.25
					c-0.28,0.17-0.49,0.4-0.65,0.7s-0.24,0.65-0.24,1.04c0,0.39,0.08,0.74,0.24,1.04c0.16,0.3,0.38,0.54,0.65,0.7
					s0.59,0.25,0.93,0.25C500.59,91.61,500.89,91.53,501.16,91.36z"/>
				<path class="st7" d="M504.8,92.01c-0.38-0.23-0.68-0.55-0.89-0.97c-0.21-0.42-0.32-0.89-0.32-1.42s0.11-1.01,0.32-1.42
					c0.21-0.42,0.51-0.74,0.89-0.97s0.81-0.34,1.3-0.34c0.45,0,0.85,0.1,1.19,0.3c0.34,0.2,0.61,0.48,0.8,0.84s0.29,0.77,0.3,1.25
					h-0.34v0.7h0.34c-0.01,0.47-0.11,0.89-0.3,1.25c-0.19,0.36-0.46,0.64-0.8,0.84s-0.74,0.3-1.19,0.3
					C505.61,92.36,505.18,92.24,504.8,92.01z M507.16,91.37c0.27-0.17,0.48-0.4,0.64-0.7c0.15-0.3,0.23-0.65,0.23-1.04
					c0-0.39-0.08-0.74-0.23-1.04s-0.36-0.54-0.64-0.7c-0.27-0.17-0.58-0.25-0.93-0.25c-0.35,0-0.66,0.08-0.92,0.25
					c-0.27,0.17-0.48,0.4-0.63,0.7s-0.22,0.65-0.22,1.04c0,0.39,0.08,0.74,0.22,1.04c0.15,0.3,0.36,0.54,0.63,0.7
					s0.58,0.25,0.92,0.25C506.58,91.62,506.89,91.53,507.16,91.37z M508.01,85.09h0.82v7.15h-0.82V85.09z"/>
				<path class="st7" d="M511.13,92.01c-0.39-0.23-0.7-0.56-0.92-0.98c-0.22-0.42-0.33-0.89-0.33-1.42c0-0.51,0.11-0.98,0.33-1.39
					s0.53-0.74,0.92-0.98c0.39-0.24,0.83-0.35,1.31-0.35c0.49,0,0.93,0.12,1.3,0.35c0.37,0.23,0.66,0.56,0.86,0.97
					c0.2,0.42,0.3,0.88,0.3,1.41v0.2h-4.22l0.01-0.22c0,0.4,0.08,0.75,0.24,1.06c0.16,0.31,0.37,0.55,0.64,0.73
					c0.27,0.17,0.58,0.26,0.92,0.26c0.23,0,0.44-0.03,0.64-0.08c0.2-0.06,0.37-0.14,0.51-0.25c0.14-0.11,0.26-0.23,0.33-0.38h0.82
					c-0.06,0.22-0.19,0.44-0.38,0.65c-0.2,0.22-0.46,0.4-0.8,0.55s-0.72,0.22-1.17,0.22C511.96,92.36,511.52,92.24,511.13,92.01z
					 M510.7,89.15h3.4v0.46c0-0.4-0.06-0.75-0.19-1.05s-0.31-0.54-0.56-0.7c-0.25-0.17-0.54-0.25-0.89-0.25
					c-0.35,0-0.65,0.08-0.92,0.24c-0.27,0.16-0.47,0.39-0.62,0.69s-0.22,0.64-0.22,1.04L510.7,89.15z"/>
				<path class="st7" d="M519.02,87.01v1.02h0.02v5.85h-0.82v-6.87H519.02z M519.78,92.06c-0.34-0.2-0.61-0.48-0.8-0.84
					c-0.19-0.36-0.29-0.78-0.3-1.25h0.34v-0.7h-0.34c0.01-0.47,0.11-0.89,0.3-1.25s0.46-0.64,0.8-0.84c0.34-0.2,0.74-0.3,1.19-0.3
					c0.49,0,0.92,0.11,1.3,0.34c0.38,0.23,0.67,0.55,0.89,0.97s0.32,0.89,0.32,1.42s-0.11,1.01-0.32,1.42s-0.51,0.74-0.89,0.97
					c-0.38,0.23-0.81,0.34-1.3,0.34C520.52,92.36,520.12,92.26,519.78,92.06z M521.76,91.37c0.27-0.17,0.48-0.4,0.63-0.7
					c0.15-0.3,0.22-0.65,0.22-1.04c0-0.39-0.08-0.74-0.22-1.04c-0.15-0.3-0.36-0.54-0.63-0.7c-0.27-0.17-0.58-0.25-0.92-0.25
					c-0.35,0-0.66,0.08-0.93,0.25c-0.27,0.17-0.48,0.4-0.63,0.7c-0.15,0.3-0.23,0.65-0.23,1.04c0,0.39,0.08,0.74,0.23,1.04
					c0.15,0.3,0.36,0.54,0.63,0.7s0.58,0.25,0.93,0.25C521.19,91.62,521.49,91.53,521.76,91.37z"/>
				<path class="st7" d="M524.61,87.01h0.82v1.75l-0.34,0.51c0.01-0.47,0.1-0.88,0.26-1.23c0.16-0.35,0.38-0.62,0.66-0.8
					c0.28-0.19,0.61-0.28,0.98-0.28h0.18v0.85h-0.21c-0.31,0-0.58,0.06-0.81,0.18c-0.23,0.12-0.41,0.29-0.53,0.51
					c-0.12,0.22-0.19,0.48-0.19,0.77v2.97h-0.82V87.01z"/>
				<path class="st7" d="M528.92,92c-0.41-0.24-0.73-0.56-0.96-0.98s-0.35-0.88-0.35-1.4c0-0.52,0.12-0.98,0.35-1.4
					c0.23-0.42,0.55-0.74,0.96-0.98s0.86-0.35,1.36-0.35c0.5,0,0.95,0.12,1.35,0.35c0.4,0.24,0.72,0.56,0.96,0.98
					c0.23,0.42,0.35,0.88,0.35,1.4c0,0.52-0.12,0.99-0.35,1.4c-0.23,0.42-0.55,0.74-0.96,0.98c-0.41,0.24-0.86,0.35-1.36,0.35
					C529.78,92.36,529.33,92.24,528.92,92z M531.21,91.36c0.27-0.17,0.49-0.4,0.64-0.7c0.16-0.3,0.24-0.65,0.24-1.04
					c0-0.39-0.08-0.74-0.24-1.04s-0.37-0.54-0.65-0.7c-0.27-0.17-0.58-0.25-0.92-0.25c-0.34,0-0.65,0.08-0.92,0.25
					c-0.28,0.17-0.49,0.4-0.65,0.7s-0.24,0.65-0.24,1.04c0,0.39,0.08,0.74,0.24,1.04c0.16,0.3,0.38,0.54,0.65,0.7
					s0.59,0.25,0.93,0.25C530.63,91.61,530.93,91.53,531.21,91.36z"/>
				<path class="st7" d="M532.98,93.09h0.45c0.17,0,0.3-0.05,0.41-0.16c0.1-0.1,0.16-0.24,0.16-0.41v-5.52h0.82v5.58
					c0,0.25-0.06,0.47-0.17,0.66s-0.27,0.34-0.47,0.45c-0.2,0.11-0.43,0.16-0.69,0.16h-0.5V93.09z M534.88,85.09v0.97h-0.96v-0.97
					H534.88z"/>
				<path class="st7" d="M537.12,92.01c-0.39-0.23-0.7-0.56-0.92-0.98c-0.22-0.42-0.33-0.89-0.33-1.42c0-0.51,0.11-0.98,0.33-1.39
					s0.53-0.74,0.92-0.98c0.39-0.24,0.83-0.35,1.31-0.35c0.49,0,0.93,0.12,1.3,0.35c0.37,0.23,0.66,0.56,0.86,0.97
					c0.2,0.42,0.3,0.88,0.3,1.41v0.2h-4.22l0.01-0.22c0,0.4,0.08,0.75,0.24,1.06c0.16,0.31,0.37,0.55,0.64,0.73
					c0.27,0.17,0.58,0.26,0.92,0.26c0.23,0,0.44-0.03,0.64-0.08c0.2-0.06,0.37-0.14,0.51-0.25c0.14-0.11,0.26-0.23,0.33-0.38h0.82
					c-0.06,0.22-0.19,0.44-0.38,0.65c-0.2,0.22-0.46,0.4-0.8,0.55s-0.72,0.22-1.17,0.22C537.95,92.36,537.51,92.24,537.12,92.01z
					 M536.69,89.15h3.4v0.46c0-0.4-0.06-0.75-0.19-1.05s-0.31-0.54-0.56-0.7c-0.25-0.17-0.54-0.25-0.89-0.25
					c-0.35,0-0.65,0.08-0.92,0.24c-0.27,0.16-0.47,0.39-0.62,0.69s-0.22,0.64-0.22,1.04L536.69,89.15z"/>
				<path class="st7" d="M542.88,92c-0.4-0.24-0.71-0.57-0.94-0.98c-0.23-0.42-0.34-0.88-0.34-1.4c0-0.51,0.11-0.98,0.34-1.4
					c0.23-0.42,0.54-0.74,0.94-0.98c0.4-0.24,0.84-0.36,1.34-0.36c0.42,0,0.79,0.07,1.13,0.21c0.33,0.14,0.61,0.35,0.83,0.63
					c0.22,0.28,0.37,0.62,0.45,1.03h-0.82c-0.08-0.25-0.19-0.46-0.35-0.63s-0.35-0.3-0.56-0.38c-0.21-0.08-0.44-0.12-0.68-0.12
					c-0.34,0-0.64,0.09-0.91,0.26c-0.27,0.17-0.48,0.41-0.62,0.71s-0.22,0.65-0.22,1.03c0,0.38,0.08,0.72,0.22,1.03
					c0.15,0.3,0.36,0.54,0.62,0.71c0.27,0.17,0.57,0.26,0.91,0.26c0.24,0,0.47-0.04,0.68-0.12c0.21-0.08,0.4-0.21,0.56-0.38
					c0.16-0.17,0.28-0.38,0.35-0.63h0.82c-0.08,0.4-0.23,0.73-0.46,1.02c-0.23,0.28-0.51,0.5-0.85,0.64s-0.71,0.22-1.11,0.22
					C543.72,92.36,543.27,92.24,542.88,92z"/>
				<path class="st7" d="M548.75,92.08c-0.2-0.11-0.36-0.26-0.48-0.44c-0.12-0.19-0.17-0.4-0.17-0.63l0-3.27h-0.92l0.01-0.73h0.57
					c0.13,0,0.23-0.04,0.31-0.12c0.08-0.08,0.12-0.19,0.12-0.31v-0.84h0.74v1.28h1.26l-0.01,0.73h-1.26l0.01,3.22
					c0,0.16,0.05,0.29,0.16,0.4c0.11,0.11,0.24,0.16,0.4,0.16h0.69v0.72h-0.75C549.18,92.24,548.96,92.18,548.75,92.08z"/>
			</g>
		</g>
		<g>
			<g>
				<g>
					<path class="st2" d="M664.54,106.35H489.9c-6.04,0-10.94,4.9-10.94,10.94v30.58c0,6.04,4.9,10.94,10.94,10.94h174.64
						c6.04,0,10.94-4.9,10.94-10.94v-30.58C675.48,111.25,670.58,106.35,664.54,106.35z"/>
				</g>
			</g>
		</g>
		<g>
			<g>
				<path d="M555.75,127.82v1.21h-1.2v-1.21H555.75z M554.64,130.22h1.02v6.53h-1.02V130.22z"/>
				<path d="M559.68,136.3c-0.67-0.4-1.2-0.96-1.59-1.66c-0.39-0.7-0.58-1.49-0.58-2.36c0-0.87,0.19-1.65,0.58-2.36
					c0.39-0.7,0.92-1.26,1.59-1.66c0.67-0.4,1.42-0.6,2.25-0.6c0.82,0,1.57,0.2,2.24,0.6c0.67,0.4,1.21,0.96,1.59,1.66
					c0.39,0.7,0.58,1.49,0.58,2.36c0,0.87-0.19,1.65-0.58,2.36c-0.39,0.7-0.92,1.26-1.59,1.66c-0.67,0.4-1.42,0.6-2.24,0.6
					C561.1,136.9,560.35,136.7,559.68,136.3z M563.62,135.47c0.51-0.31,0.9-0.75,1.19-1.3s0.43-1.18,0.43-1.88
					c0-0.7-0.14-1.33-0.42-1.88c-0.28-0.56-0.68-0.99-1.18-1.3s-1.08-0.47-1.71-0.47c-0.63,0-1.2,0.16-1.7,0.47
					c-0.5,0.31-0.9,0.75-1.19,1.3s-0.43,1.18-0.43,1.88c0,0.7,0.14,1.33,0.43,1.88c0.29,0.55,0.68,0.99,1.19,1.3s1.07,0.47,1.7,0.47
					C562.55,135.94,563.11,135.78,563.62,135.47z"/>
				<path d="M569.26,136.57c-0.47-0.23-0.84-0.54-1.1-0.94c-0.26-0.4-0.39-0.87-0.39-1.39h1.08c0,0.34,0.08,0.63,0.26,0.89
					c0.17,0.26,0.41,0.46,0.72,0.61c0.31,0.15,0.67,0.22,1.07,0.22c0.4,0,0.74-0.07,1.04-0.2c0.3-0.13,0.53-0.32,0.7-0.57
					c0.16-0.24,0.25-0.53,0.25-0.85c0-0.4-0.12-0.75-0.36-1.04c-0.24-0.29-0.56-0.47-0.96-0.54l-1.44-0.25
					c-0.43-0.08-0.81-0.23-1.13-0.45c-0.32-0.23-0.56-0.51-0.73-0.84c-0.17-0.34-0.25-0.7-0.25-1.1c0-0.46,0.12-0.88,0.37-1.25
					c0.24-0.37,0.58-0.66,1.02-0.88c0.44-0.21,0.93-0.32,1.47-0.32c0.56,0,1.06,0.11,1.5,0.32c0.44,0.21,0.78,0.5,1.02,0.88
					c0.24,0.37,0.36,0.8,0.36,1.28h-1.08c0-0.29-0.07-0.56-0.22-0.79c-0.15-0.23-0.36-0.41-0.63-0.54
					c-0.27-0.13-0.58-0.19-0.93-0.19c-0.35,0-0.67,0.06-0.94,0.19c-0.27,0.12-0.48,0.3-0.63,0.52c-0.15,0.23-0.23,0.49-0.23,0.78
					c0,0.35,0.11,0.66,0.34,0.91c0.23,0.26,0.53,0.42,0.9,0.48l1.47,0.26c0.42,0.08,0.8,0.24,1.14,0.49
					c0.33,0.25,0.59,0.56,0.77,0.92c0.18,0.36,0.27,0.75,0.27,1.15c0,0.48-0.13,0.92-0.39,1.31c-0.26,0.39-0.62,0.7-1.09,0.93
					s-1,0.34-1.59,0.34C570.27,136.9,569.73,136.79,569.26,136.57z"/>
				<path d="M582.61,130.34c0.37,0.18,0.66,0.44,0.87,0.79c0.21,0.35,0.31,0.76,0.31,1.23v4.39h-1v-2.44h0.27
					c0,0.54-0.09,1.01-0.28,1.4s-0.46,0.69-0.8,0.89s-0.76,0.31-1.24,0.31c-0.42,0-0.79-0.08-1.13-0.24s-0.6-0.38-0.79-0.67
					c-0.19-0.28-0.29-0.61-0.29-0.97c0-0.34,0.09-0.65,0.26-0.94c0.18-0.29,0.42-0.52,0.73-0.71s0.66-0.3,1.06-0.34l1.74-0.19
					c0.14-0.02,0.26-0.08,0.34-0.18c0.08-0.1,0.12-0.25,0.12-0.45l0.08,1.34l-2.14,0.24c-0.22,0.03-0.42,0.09-0.59,0.2
					c-0.17,0.11-0.31,0.24-0.4,0.41c-0.1,0.17-0.14,0.36-0.14,0.56c0,0.22,0.06,0.42,0.18,0.59c0.12,0.17,0.28,0.3,0.49,0.4
					c0.21,0.1,0.45,0.14,0.71,0.14c0.37,0,0.69-0.07,0.96-0.22s0.49-0.36,0.63-0.63c0.15-0.27,0.22-0.58,0.22-0.93v-2.08
					c0-0.26-0.06-0.49-0.18-0.69c-0.12-0.2-0.3-0.35-0.52-0.46s-0.48-0.16-0.78-0.16c-0.29,0-0.56,0.05-0.79,0.15
					c-0.23,0.1-0.42,0.23-0.56,0.4c-0.14,0.17-0.23,0.35-0.26,0.55h-1.02c0.05-0.37,0.2-0.7,0.44-1c0.24-0.3,0.55-0.53,0.93-0.7
					s0.81-0.25,1.27-0.25C581.8,130.07,582.23,130.16,582.61,130.34z"/>
				<path d="M586.83,130.22v1.28h0.03v7.31h-1.02v-8.59H586.83z M587.77,136.53c-0.43-0.25-0.76-0.6-1-1.05
					c-0.24-0.45-0.36-0.97-0.37-1.56h0.42v-0.88h-0.42c0.01-0.59,0.13-1.11,0.37-1.56s0.58-0.8,1-1.05s0.93-0.37,1.49-0.37
					c0.61,0,1.15,0.14,1.62,0.43c0.47,0.29,0.84,0.69,1.11,1.21c0.27,0.52,0.4,1.11,0.4,1.78c0,0.67-0.13,1.26-0.4,1.78
					s-0.64,0.92-1.11,1.21c-0.47,0.29-1.01,0.43-1.62,0.43C588.69,136.9,588.2,136.78,587.77,136.53z M590.25,135.66
					c0.34-0.21,0.6-0.5,0.79-0.88c0.19-0.38,0.28-0.81,0.28-1.3c0-0.49-0.09-0.92-0.28-1.3c-0.19-0.38-0.45-0.67-0.79-0.88
					s-0.72-0.32-1.16-0.32c-0.44,0-0.83,0.11-1.17,0.32c-0.34,0.21-0.61,0.5-0.79,0.88c-0.19,0.38-0.28,0.81-0.28,1.3
					c0,0.49,0.09,0.92,0.28,1.3c0.19,0.38,0.45,0.67,0.79,0.88c0.34,0.21,0.73,0.32,1.17,0.32
					C589.53,135.98,589.92,135.87,590.25,135.66z"/>
				<path d="M595.06,130.22v1.28h0.03v7.31h-1.02v-8.59H595.06z M596.01,136.53c-0.43-0.25-0.76-0.6-1-1.05
					c-0.24-0.45-0.36-0.97-0.37-1.56h0.42v-0.88h-0.42c0.01-0.59,0.13-1.11,0.37-1.56s0.58-0.8,1-1.05s0.93-0.37,1.49-0.37
					c0.61,0,1.15,0.14,1.62,0.43c0.47,0.29,0.84,0.69,1.11,1.21c0.27,0.52,0.4,1.11,0.4,1.78c0,0.67-0.13,1.26-0.4,1.78
					s-0.64,0.92-1.11,1.21c-0.47,0.29-1.01,0.43-1.62,0.43C596.93,136.9,596.43,136.78,596.01,136.53z M598.49,135.66
					c0.34-0.21,0.6-0.5,0.79-0.88c0.19-0.38,0.28-0.81,0.28-1.3c0-0.49-0.09-0.92-0.28-1.3c-0.19-0.38-0.45-0.67-0.79-0.88
					s-0.72-0.32-1.16-0.32c-0.44,0-0.83,0.11-1.17,0.32c-0.34,0.21-0.61,0.5-0.79,0.88c-0.19,0.38-0.28,0.81-0.28,1.3
					c0,0.49,0.09,0.92,0.28,1.3c0.19,0.38,0.45,0.67,0.79,0.88c0.34,0.21,0.73,0.32,1.17,0.32
					C597.77,135.98,598.15,135.87,598.49,135.66z"/>
			</g>
		</g>
	</g>
</g>
</svg>
