<?xml version="1.0" encoding="utf-8"?>
<!-- Generator: Adobe Illustrator 27.5.0, SVG Export Plug-In . SVG Version: 6.00 Build 0)  -->
<svg version="1.1" id="Layer_1" xmlns="http://www.w3.org/2000/svg" xmlns:xlink="http://www.w3.org/1999/xlink" x="0px" y="0px"
	 viewBox="0 0 700 395" style="enable-background:new 0 0 700 395;" xml:space="preserve">
<style type="text/css">
	.st0{fill:#FFFFFF;}
	.st1{fill:none;stroke:#000000;stroke-width:0.5469;stroke-miterlimit:10;}
	.st2{fill:#F2F2F2;}
	.st3{fill:none;stroke:#595959;stroke-width:0.5469;stroke-miterlimit:10;}
	.st4{fill:url(#SVGID_1_);}
	.st5{fill:url(#SVGID_00000049940975283510026400000001862934265951077276_);}
	.st6{fill:url(#SVGID_00000017503179695530473360000013359468585617194431_);}
	.st7{fill:#595959;}
	.st8{fill:url(#SVGID_00000173844603578220915380000016351867594652196225_);}
	.st9{fill:url(#SVGID_00000135670482605025638440000005185727243638026170_);}
	.st10{fill:url(#SVGID_00000034068865885348972830000002725589132482648716_);}
	.st11{fill:url(#SVGID_00000105388750631337379060000014670280547792930983_);}
	.st12{fill:url(#SVGID_00000127011510879768115650000005725831004352583070_);}
	.st13{fill:url(#SVGID_00000058560656281506610680000010172380490327980449_);}
	.st14{fill:url(#SVGID_00000093140286668617220260000013333466767316635064_);}
	.st15{fill:url(#SVGID_00000034785103132543049270000006551257324208336274_);}
	.st16{fill:url(#SVGID_00000056428389698290133570000002005067975200502172_);}
	.st17{fill:url(#SVGID_00000065792223283012806000000006302329017276412553_);}
	.st18{fill:url(#SVGID_00000020386820554833224960000002718750716265442204_);}
	.st19{fill:none;stroke:#000000;stroke-width:0.5469;stroke-miterlimit:10;stroke-dasharray:1.5,2.5,1.5,2.5,1.5,2.5;}
	.st20{fill:url(#SVGID_00000094583254812606211840000014943457112698097803_);}
	.st21{fill:url(#SVGID_00000070802459951169542060000007998044583885235620_);}
	.st22{fill:url(#SVGID_00000026858420889202302140000017651883312234150277_);}
	.st23{fill:url(#SVGID_00000077301920413742531290000005216385467474494103_);}
	.st24{fill:url(#SVGID_00000136381424452390939260000018395590306877616059_);}
	.st25{fill:url(#SVGID_00000152982786564565051910000002629517617433089174_);}
	.st26{fill:url(#SVGID_00000111174613414894711530000002683758931622915219_);}
	.st27{fill:url(#SVGID_00000135688041278864487250000017469918364268936591_);}
	.st28{fill:url(#SVGID_00000176038234746362250040000008310753148917974659_);}
	.st29{fill:url(#SVGID_00000008847440229588567250000007193763547713864354_);}
	.st30{fill:url(#SVGID_00000171707824600913392490000014444328007276863636_);}
	.st31{fill:url(#SVGID_00000034808389655800089270000002397688028928507040_);}
	.st32{fill:url(#SVGID_00000096040954286195730380000004000347617334023612_);}
	.st33{fill:url(#SVGID_00000123425188939892566640000006210615561208412596_);}
	.st34{fill:url(#SVGID_00000090258773631566021640000003834032088026122673_);}
	.st35{fill:url(#SVGID_00000163775307267730710140000011875807733025997454_);}
	.st36{fill:url(#SVGID_00000039837884284715065130000006745310299122783125_);}
	.st37{fill:url(#SVGID_00000077320163061421228670000001184284505997117075_);}
	.st38{fill:url(#SVGID_00000046316186156841725770000015335523617702058120_);}
	.st39{fill:url(#SVGID_00000083795659175800249980000009336626804846261635_);}
	.st40{fill:url(#SVGID_00000073718775425465179680000017619096954409900976_);}
	.st41{fill:url(#SVGID_00000129886404751996066510000004586063948826807178_);}
	.st42{fill:#7F52FF;}
	.st43{opacity:0.35;}
	.st44{fill:url(#SVGID_00000070087103943734375010000013297186791314000297_);}
	.st45{fill:none;stroke:#000000;stroke-width:0.4423;stroke-miterlimit:10;}
</style>
<rect class="st0" width="700" height="395"/>
<g>
	<g>
		<path class="st3" d="M565.78,79.46l-175.7,0c-8.05,0-14.58,6.53-14.58,14.58v60.64c0,8.05,6.53,14.58,14.58,14.58l175.7,0
			c8.05,0,14.58-6.53,14.58-14.58V94.04C580.37,85.99,573.84,79.46,565.78,79.46z"/>
		<g>
			<g>
				<path class="st7" d="M388.92,94.59l-2.38-3.52h0.99l1.68,2.56l0.22,0.31l0.35-0.53l1.56-2.35h0.97l-2.4,3.5l2.5,3.65h-0.99
					l-1.8-2.67l-0.23-0.33l-0.38,0.58l-1.6,2.43h-0.97L388.92,94.59z"/>
				<path class="st7" d="M393.86,97.99c-0.4-0.24-0.71-0.57-0.94-0.98c-0.23-0.42-0.34-0.88-0.34-1.4c0-0.51,0.11-0.98,0.34-1.4
					c0.23-0.42,0.54-0.74,0.94-0.98c0.4-0.24,0.84-0.36,1.34-0.36c0.42,0,0.79,0.07,1.13,0.21c0.33,0.14,0.61,0.35,0.83,0.63
					c0.22,0.28,0.37,0.63,0.45,1.03h-0.82c-0.08-0.25-0.19-0.46-0.35-0.63c-0.16-0.17-0.35-0.3-0.56-0.38
					c-0.21-0.08-0.44-0.12-0.68-0.12c-0.34,0-0.64,0.08-0.91,0.26c-0.27,0.17-0.48,0.41-0.62,0.71s-0.22,0.65-0.22,1.03
					c0,0.38,0.08,0.72,0.22,1.03c0.15,0.3,0.36,0.54,0.62,0.71c0.27,0.17,0.57,0.26,0.91,0.26c0.24,0,0.47-0.04,0.68-0.13
					c0.21-0.08,0.4-0.21,0.56-0.38s0.28-0.38,0.35-0.63h0.82c-0.08,0.39-0.23,0.73-0.46,1.02c-0.23,0.28-0.51,0.5-0.85,0.64
					c-0.34,0.15-0.71,0.22-1.11,0.22C394.71,98.34,394.26,98.23,393.86,97.99z"/>
				<path class="st7" d="M399.6,97.99c-0.41-0.24-0.73-0.56-0.96-0.98c-0.23-0.42-0.35-0.88-0.35-1.4c0-0.52,0.12-0.98,0.35-1.4
					s0.55-0.74,0.96-0.98s0.86-0.35,1.36-0.35c0.5,0,0.95,0.12,1.35,0.35c0.4,0.24,0.72,0.56,0.96,0.98
					c0.23,0.42,0.35,0.88,0.35,1.4c0,0.52-0.12,0.99-0.35,1.4c-0.23,0.42-0.55,0.74-0.96,0.98c-0.41,0.24-0.86,0.35-1.36,0.35
					C400.46,98.34,400.01,98.23,399.6,97.99z M401.88,97.35c0.27-0.17,0.49-0.4,0.64-0.7s0.24-0.65,0.24-1.04
					c0-0.39-0.08-0.74-0.24-1.04s-0.37-0.54-0.65-0.7c-0.27-0.17-0.58-0.25-0.92-0.25c-0.34,0-0.65,0.08-0.92,0.25
					c-0.28,0.17-0.49,0.4-0.65,0.7s-0.24,0.65-0.24,1.04c0,0.39,0.08,0.74,0.24,1.04s0.38,0.53,0.65,0.7s0.59,0.25,0.93,0.25
					C401.31,97.6,401.61,97.52,401.88,97.35z"/>
				<path class="st7" d="M405.52,98c-0.38-0.23-0.68-0.55-0.89-0.97c-0.21-0.42-0.32-0.89-0.32-1.42s0.11-1.01,0.32-1.42
					c0.21-0.42,0.51-0.74,0.89-0.97s0.81-0.34,1.3-0.34c0.45,0,0.85,0.1,1.19,0.3s0.61,0.48,0.8,0.84c0.19,0.36,0.29,0.78,0.3,1.25
					h-0.34v0.7h0.34c-0.01,0.47-0.11,0.89-0.3,1.25c-0.19,0.36-0.46,0.64-0.8,0.84c-0.34,0.2-0.74,0.3-1.19,0.3
					C406.33,98.34,405.9,98.23,405.52,98z M407.88,97.35c0.27-0.17,0.48-0.4,0.64-0.7s0.23-0.65,0.23-1.04
					c0-0.39-0.08-0.74-0.23-1.04c-0.15-0.3-0.36-0.54-0.64-0.7c-0.27-0.17-0.58-0.25-0.93-0.25c-0.35,0-0.66,0.08-0.92,0.25
					c-0.27,0.17-0.48,0.4-0.63,0.7c-0.15,0.3-0.22,0.65-0.22,1.04c0,0.39,0.08,0.74,0.22,1.04s0.36,0.54,0.63,0.7
					s0.58,0.25,0.92,0.25C407.3,97.61,407.61,97.52,407.88,97.35z M408.73,91.08h0.82v7.15h-0.82V91.08z"/>
				<path class="st7" d="M411.85,97.99c-0.39-0.23-0.7-0.56-0.92-0.98c-0.22-0.42-0.33-0.89-0.33-1.42c0-0.51,0.11-0.98,0.33-1.39
					c0.22-0.42,0.53-0.74,0.92-0.98c0.39-0.24,0.83-0.35,1.31-0.35c0.49,0,0.93,0.12,1.3,0.35c0.37,0.23,0.66,0.56,0.86,0.97
					c0.2,0.42,0.3,0.88,0.3,1.41v0.2h-4.22l0.01-0.22c0,0.4,0.08,0.75,0.24,1.06c0.16,0.31,0.37,0.55,0.64,0.73
					c0.27,0.17,0.58,0.26,0.92,0.26c0.23,0,0.44-0.03,0.64-0.08c0.2-0.06,0.37-0.14,0.51-0.24c0.14-0.11,0.26-0.23,0.33-0.38h0.82
					c-0.06,0.22-0.19,0.44-0.38,0.65c-0.2,0.22-0.46,0.4-0.8,0.55c-0.33,0.15-0.72,0.22-1.17,0.22
					C412.68,98.34,412.24,98.23,411.85,97.99z M411.42,95.13h3.4v0.46c0-0.4-0.06-0.75-0.19-1.05c-0.13-0.3-0.31-0.54-0.56-0.7
					c-0.25-0.17-0.54-0.25-0.89-0.25c-0.35,0-0.65,0.08-0.92,0.24c-0.27,0.16-0.47,0.39-0.62,0.69s-0.22,0.64-0.22,1.04
					L411.42,95.13z"/>
				<path class="st7" d="M419.74,93v1.02h0.02v5.85h-0.82V93H419.74z M420.5,98.05c-0.34-0.2-0.61-0.48-0.8-0.84
					c-0.19-0.36-0.29-0.77-0.3-1.25h0.34v-0.7h-0.34c0.01-0.47,0.11-0.89,0.3-1.25c0.19-0.36,0.46-0.64,0.8-0.84
					c0.34-0.2,0.74-0.3,1.19-0.3c0.49,0,0.92,0.12,1.3,0.34c0.38,0.23,0.67,0.55,0.89,0.97s0.32,0.89,0.32,1.42
					s-0.11,1.01-0.32,1.42s-0.51,0.74-0.89,0.97c-0.38,0.23-0.81,0.34-1.3,0.34C421.24,98.34,420.84,98.25,420.5,98.05z
					 M422.48,97.35c0.27-0.17,0.48-0.4,0.63-0.7c0.15-0.3,0.22-0.65,0.22-1.04c0-0.39-0.08-0.74-0.22-1.04
					c-0.15-0.3-0.36-0.54-0.63-0.7c-0.27-0.17-0.58-0.25-0.92-0.25c-0.35,0-0.66,0.08-0.93,0.25c-0.27,0.17-0.48,0.4-0.63,0.7
					c-0.15,0.3-0.23,0.65-0.23,1.04c0,0.39,0.08,0.74,0.23,1.04c0.15,0.3,0.36,0.54,0.63,0.7s0.58,0.25,0.93,0.25
					C421.91,97.61,422.21,97.52,422.48,97.35z"/>
				<path class="st7" d="M425.33,93h0.82v1.75l-0.34,0.51c0.01-0.47,0.1-0.88,0.26-1.23s0.38-0.62,0.66-0.8
					c0.28-0.19,0.61-0.28,0.98-0.28h0.18v0.85h-0.21c-0.31,0-0.58,0.06-0.81,0.18s-0.41,0.29-0.53,0.51
					c-0.12,0.22-0.19,0.48-0.19,0.77v2.97h-0.82V93z"/>
				<path class="st7" d="M429.64,97.99c-0.41-0.24-0.73-0.56-0.96-0.98c-0.23-0.42-0.35-0.88-0.35-1.4c0-0.52,0.12-0.98,0.35-1.4
					s0.55-0.74,0.96-0.98s0.86-0.35,1.36-0.35c0.5,0,0.95,0.12,1.35,0.35c0.4,0.24,0.72,0.56,0.96,0.98
					c0.23,0.42,0.35,0.88,0.35,1.4c0,0.52-0.12,0.99-0.35,1.4c-0.23,0.42-0.55,0.74-0.96,0.98c-0.41,0.24-0.86,0.35-1.36,0.35
					C430.5,98.34,430.05,98.23,429.64,97.99z M431.93,97.35c0.27-0.17,0.49-0.4,0.64-0.7s0.24-0.65,0.24-1.04
					c0-0.39-0.08-0.74-0.24-1.04s-0.37-0.54-0.65-0.7c-0.27-0.17-0.58-0.25-0.92-0.25c-0.34,0-0.65,0.08-0.92,0.25
					c-0.28,0.17-0.49,0.4-0.65,0.7s-0.24,0.65-0.24,1.04c0,0.39,0.08,0.74,0.24,1.04s0.38,0.53,0.65,0.7s0.59,0.25,0.93,0.25
					C431.35,97.6,431.65,97.52,431.93,97.35z"/>
				<path class="st7" d="M433.7,99.08h0.45c0.17,0,0.3-0.05,0.41-0.16c0.1-0.1,0.16-0.24,0.16-0.41V93h0.82v5.58
					c0,0.25-0.06,0.47-0.17,0.66c-0.11,0.19-0.27,0.34-0.47,0.45c-0.2,0.11-0.43,0.16-0.69,0.16h-0.5V99.08z M435.6,91.08v0.97
					h-0.96v-0.97H435.6z"/>
				<path class="st7" d="M437.84,97.99c-0.39-0.23-0.7-0.56-0.92-0.98c-0.22-0.42-0.33-0.89-0.33-1.42c0-0.51,0.11-0.98,0.33-1.39
					c0.22-0.42,0.53-0.74,0.92-0.98c0.39-0.24,0.83-0.35,1.31-0.35c0.49,0,0.93,0.12,1.3,0.35c0.37,0.23,0.66,0.56,0.86,0.97
					c0.2,0.42,0.3,0.88,0.3,1.41v0.2h-4.22l0.01-0.22c0,0.4,0.08,0.75,0.24,1.06c0.16,0.31,0.37,0.55,0.64,0.73
					c0.27,0.17,0.58,0.26,0.92,0.26c0.23,0,0.44-0.03,0.64-0.08c0.2-0.06,0.37-0.14,0.51-0.24c0.14-0.11,0.26-0.23,0.33-0.38h0.82
					c-0.06,0.22-0.19,0.44-0.38,0.65c-0.2,0.22-0.46,0.4-0.8,0.55c-0.33,0.15-0.72,0.22-1.17,0.22
					C438.67,98.34,438.23,98.23,437.84,97.99z M437.41,95.13h3.4v0.46c0-0.4-0.06-0.75-0.19-1.05c-0.13-0.3-0.31-0.54-0.56-0.7
					c-0.25-0.17-0.54-0.25-0.89-0.25c-0.35,0-0.65,0.08-0.92,0.24c-0.27,0.16-0.47,0.39-0.62,0.69s-0.22,0.64-0.22,1.04
					L437.41,95.13z"/>
				<path class="st7" d="M443.6,97.99c-0.4-0.24-0.71-0.57-0.94-0.98c-0.23-0.42-0.34-0.88-0.34-1.4c0-0.51,0.11-0.98,0.34-1.4
					c0.23-0.42,0.54-0.74,0.94-0.98c0.4-0.24,0.84-0.36,1.34-0.36c0.42,0,0.79,0.07,1.13,0.21c0.33,0.14,0.61,0.35,0.83,0.63
					c0.22,0.28,0.37,0.63,0.45,1.03h-0.82c-0.08-0.25-0.19-0.46-0.35-0.63c-0.16-0.17-0.35-0.3-0.56-0.38
					c-0.21-0.08-0.44-0.12-0.68-0.12c-0.34,0-0.64,0.08-0.91,0.26c-0.27,0.17-0.48,0.41-0.62,0.71s-0.22,0.65-0.22,1.03
					c0,0.38,0.08,0.72,0.22,1.03c0.15,0.3,0.36,0.54,0.62,0.71c0.27,0.17,0.57,0.26,0.91,0.26c0.24,0,0.47-0.04,0.68-0.13
					c0.21-0.08,0.4-0.21,0.56-0.38s0.28-0.38,0.35-0.63h0.82c-0.08,0.39-0.23,0.73-0.46,1.02c-0.23,0.28-0.51,0.5-0.85,0.64
					c-0.34,0.15-0.71,0.22-1.11,0.22C444.44,98.34,444,98.23,443.6,97.99z"/>
				<path class="st7" d="M449.47,98.06c-0.2-0.11-0.36-0.25-0.48-0.44s-0.17-0.4-0.17-0.63l0-3.27h-0.92l0.01-0.73h0.57
					c0.13,0,0.23-0.04,0.31-0.12c0.08-0.08,0.12-0.19,0.12-0.31v-0.84h0.74V93h1.26l-0.01,0.73h-1.26l0.01,3.22
					c0,0.16,0.05,0.29,0.16,0.4c0.11,0.11,0.24,0.16,0.4,0.16h0.69v0.73h-0.75C449.9,98.22,449.68,98.17,449.47,98.06z"/>
			</g>
		</g>
	</g>
	<g>
		<path class="st3" d="M342.95,79.46l-175.7,0c-8.05,0-14.58,6.53-14.58,14.58v206.92c0,8.05,6.53,14.58,14.58,14.58l175.7,0
			c8.05,0,14.58-6.53,14.58-14.58V94.04C357.54,85.99,351.01,79.46,342.95,79.46z"/>
		<g>
			<g>
				<path class="st7" d="M164.38,91.08h0.82v3.35l3.35-3.35h1.11l-3.47,3.45l3.53,3.7h-1.14l-3.38-3.53v3.53h-0.82V91.08z"/>
				<path class="st7" d="M171.03,97.99c-0.41-0.24-0.73-0.56-0.96-0.98c-0.23-0.42-0.35-0.88-0.35-1.4c0-0.52,0.12-0.98,0.35-1.4
					s0.55-0.74,0.96-0.98s0.86-0.35,1.36-0.35c0.5,0,0.95,0.12,1.35,0.35c0.4,0.24,0.72,0.56,0.96,0.98
					c0.23,0.42,0.35,0.88,0.35,1.4c0,0.52-0.12,0.99-0.35,1.4c-0.23,0.42-0.55,0.74-0.96,0.98c-0.41,0.24-0.86,0.35-1.36,0.35
					C171.88,98.34,171.43,98.23,171.03,97.99z M173.31,97.35c0.27-0.17,0.49-0.4,0.64-0.7s0.24-0.65,0.24-1.04
					c0-0.39-0.08-0.74-0.24-1.04s-0.37-0.54-0.65-0.7c-0.27-0.17-0.58-0.25-0.92-0.25c-0.34,0-0.65,0.08-0.92,0.25
					c-0.28,0.17-0.49,0.4-0.65,0.7s-0.24,0.65-0.24,1.04c0,0.39,0.08,0.74,0.24,1.04s0.38,0.53,0.65,0.7s0.59,0.25,0.93,0.25
					C172.73,97.6,173.04,97.52,173.31,97.35z"/>
				<path class="st7" d="M177.19,98.06c-0.2-0.11-0.36-0.25-0.48-0.44s-0.17-0.4-0.17-0.63l0-3.27h-0.92l0.01-0.73h0.57
					c0.13,0,0.23-0.04,0.31-0.12c0.08-0.08,0.12-0.19,0.12-0.31v-0.84h0.74V93h1.26l-0.01,0.73h-1.26l0.01,3.22
					c0,0.16,0.05,0.29,0.16,0.4c0.11,0.11,0.24,0.16,0.4,0.16h0.69v0.73h-0.75C177.62,98.22,177.39,98.17,177.19,98.06z"/>
				<path class="st7" d="M179.82,91.08h0.82v7.15h-0.82V91.08z"/>
				<path class="st7" d="M183.11,91.08v0.97h-0.96v-0.97H183.11z M182.22,93h0.82v5.23h-0.82V93z"/>
				<path class="st7" d="M184.62,93h0.79v2.26h-0.33c0-0.48,0.08-0.9,0.25-1.26s0.41-0.64,0.71-0.83c0.31-0.19,0.67-0.29,1.09-0.29
					c0.38,0,0.71,0.08,1,0.24c0.29,0.16,0.52,0.4,0.68,0.71c0.17,0.31,0.25,0.68,0.25,1.12v3.28h-0.82v-3.2
					c0-0.3-0.05-0.56-0.16-0.78c-0.11-0.21-0.26-0.38-0.46-0.49s-0.43-0.17-0.7-0.17c-0.29,0-0.55,0.06-0.78,0.19
					s-0.4,0.31-0.52,0.54c-0.12,0.23-0.19,0.5-0.19,0.8v3.1h-0.82V93z"/>
				<path class="st7" d="M193.02,91.08h1.06l2.56,5.73l0.13,0.36l0.13-0.36l2.52-5.73h1.08v7.15h-0.85v-5.65v-0.13l-2.53,5.78h-0.71
					l-2.55-5.75v0.1v5.65h-0.84V91.08z"/>
				<path class="st7" d="M206.56,98.22h-0.79v-2.26h0.33c0,0.48-0.08,0.9-0.25,1.26c-0.17,0.36-0.41,0.64-0.71,0.83
					c-0.31,0.19-0.67,0.29-1.09,0.29c-0.37,0-0.71-0.08-1-0.24s-0.52-0.4-0.68-0.71c-0.17-0.31-0.25-0.68-0.25-1.12V93h0.82v3.2
					c0,0.3,0.05,0.56,0.16,0.78c0.11,0.21,0.26,0.38,0.46,0.49c0.2,0.11,0.43,0.17,0.7,0.17c0.29,0,0.55-0.06,0.78-0.19
					c0.22-0.13,0.4-0.31,0.52-0.54c0.12-0.23,0.19-0.5,0.19-0.8V93h0.82V98.22z"/>
				<path class="st7" d="M208.15,91.08h0.82v7.15h-0.82V91.08z"/>
				<path class="st7" d="M211.55,98.06c-0.2-0.11-0.36-0.25-0.48-0.44s-0.17-0.4-0.17-0.63l0-3.27h-0.92l0.01-0.73h0.57
					c0.13,0,0.23-0.04,0.31-0.12c0.08-0.08,0.12-0.19,0.12-0.31v-0.84h0.74V93h1.26l-0.01,0.73h-1.26l0.01,3.22
					c0,0.16,0.05,0.29,0.16,0.4c0.11,0.11,0.24,0.16,0.4,0.16h0.69v0.73h-0.75C211.97,98.22,211.75,98.17,211.55,98.06z"/>
				<path class="st7" d="M215.07,91.08v0.97h-0.96v-0.97H215.07z M214.18,93H215v5.23h-0.82V93z"/>
				<path class="st7" d="M217.38,93v1.02h0.02v5.85h-0.82V93H217.38z M218.13,98.05c-0.34-0.2-0.61-0.48-0.8-0.84
					c-0.19-0.36-0.29-0.77-0.3-1.25h0.34v-0.7h-0.34c0.01-0.47,0.11-0.89,0.3-1.25c0.19-0.36,0.46-0.64,0.8-0.84
					c0.34-0.2,0.74-0.3,1.19-0.3c0.49,0,0.92,0.12,1.3,0.34c0.38,0.23,0.67,0.55,0.89,0.97s0.32,0.89,0.32,1.42
					s-0.11,1.01-0.32,1.42S221,97.77,220.62,98c-0.38,0.23-0.81,0.34-1.3,0.34C218.87,98.34,218.48,98.25,218.13,98.05z
					 M220.12,97.35c0.27-0.17,0.48-0.4,0.63-0.7c0.15-0.3,0.22-0.65,0.22-1.04c0-0.39-0.08-0.74-0.22-1.04
					c-0.15-0.3-0.36-0.54-0.63-0.7c-0.27-0.17-0.58-0.25-0.92-0.25c-0.35,0-0.66,0.08-0.93,0.25c-0.27,0.17-0.48,0.4-0.63,0.7
					c-0.15,0.3-0.23,0.65-0.23,1.04c0,0.39,0.08,0.74,0.23,1.04c0.15,0.3,0.36,0.54,0.63,0.7s0.58,0.25,0.93,0.25
					C219.54,97.61,219.85,97.52,220.12,97.35z"/>
				<path class="st7" d="M222.97,91.08h0.82v7.15h-0.82V91.08z"/>
				<path class="st7" d="M228.25,93.09c0.3,0.14,0.53,0.36,0.7,0.63s0.25,0.61,0.25,0.99v3.51h-0.8v-1.96h0.21
					c0,0.44-0.08,0.81-0.22,1.12c-0.15,0.31-0.36,0.55-0.64,0.71c-0.28,0.16-0.61,0.25-1,0.25c-0.33,0-0.63-0.06-0.9-0.19
					s-0.48-0.31-0.63-0.54c-0.15-0.23-0.23-0.49-0.23-0.78c0-0.27,0.07-0.52,0.21-0.75c0.14-0.23,0.34-0.42,0.59-0.56
					s0.53-0.24,0.84-0.27l1.39-0.15c0.12-0.01,0.21-0.06,0.27-0.14c0.06-0.08,0.1-0.2,0.1-0.36l0.06,1.07l-1.71,0.19
					c-0.18,0.02-0.33,0.07-0.47,0.16c-0.14,0.09-0.25,0.2-0.32,0.33c-0.08,0.14-0.12,0.29-0.12,0.45c0,0.18,0.05,0.33,0.14,0.47
					c0.09,0.14,0.22,0.24,0.39,0.32c0.17,0.08,0.36,0.11,0.57,0.11c0.29,0,0.55-0.06,0.77-0.18s0.39-0.29,0.51-0.5
					c0.12-0.22,0.18-0.47,0.18-0.75V94.6c0-0.21-0.05-0.39-0.15-0.55s-0.24-0.28-0.42-0.37s-0.38-0.13-0.62-0.13
					c-0.23,0-0.45,0.04-0.63,0.12s-0.34,0.19-0.45,0.32c-0.11,0.13-0.18,0.28-0.21,0.44h-0.82c0.04-0.3,0.16-0.56,0.35-0.8
					c0.19-0.24,0.44-0.42,0.75-0.56c0.31-0.14,0.65-0.2,1.02-0.2C227.6,92.87,227.95,92.95,228.25,93.09z"/>
				<path class="st7" d="M231.63,98.06c-0.2-0.11-0.36-0.25-0.48-0.44s-0.17-0.4-0.17-0.63l0-3.27h-0.92l0.01-0.73h0.57
					c0.13,0,0.23-0.04,0.31-0.12c0.08-0.08,0.12-0.19,0.12-0.31v-0.84h0.74V93h1.26l-0.01,0.73h-1.26l0.01,3.22
					c0,0.16,0.05,0.29,0.16,0.4c0.11,0.11,0.24,0.16,0.4,0.16h0.69v0.73h-0.75C232.05,98.22,231.83,98.17,231.63,98.06z"/>
				<path class="st7" d="M234.67,93.72h-0.92V93h0.92v-0.68c0-0.24,0.06-0.46,0.17-0.64c0.11-0.19,0.27-0.33,0.47-0.44
					c0.2-0.1,0.43-0.16,0.69-0.16h0.84v0.72h-0.79c-0.17,0-0.3,0.05-0.41,0.16c-0.1,0.1-0.16,0.24-0.16,0.41V93h1.3v0.73h-1.3v4.5
					h-0.82V93.72z"/>
				<path class="st7" d="M238.58,97.99c-0.41-0.24-0.73-0.56-0.96-0.98c-0.23-0.42-0.35-0.88-0.35-1.4c0-0.52,0.12-0.98,0.35-1.4
					s0.55-0.74,0.96-0.98s0.86-0.35,1.36-0.35c0.5,0,0.95,0.12,1.35,0.35c0.4,0.24,0.72,0.56,0.96,0.98
					c0.23,0.42,0.35,0.88,0.35,1.4c0,0.52-0.12,0.99-0.35,1.4c-0.23,0.42-0.55,0.74-0.96,0.98c-0.41,0.24-0.86,0.35-1.36,0.35
					C239.44,98.34,238.99,98.23,238.58,97.99z M240.86,97.35c0.27-0.17,0.49-0.4,0.64-0.7s0.24-0.65,0.24-1.04
					c0-0.39-0.08-0.74-0.24-1.04s-0.37-0.54-0.65-0.7c-0.27-0.17-0.58-0.25-0.92-0.25c-0.34,0-0.65,0.08-0.92,0.25
					c-0.28,0.17-0.49,0.4-0.65,0.7s-0.24,0.65-0.24,1.04c0,0.39,0.08,0.74,0.24,1.04s0.38,0.53,0.65,0.7s0.59,0.25,0.93,0.25
					C240.28,97.6,240.59,97.52,240.86,97.35z"/>
				<path class="st7" d="M243.74,93h0.82v1.75l-0.34,0.51c0.01-0.47,0.1-0.88,0.26-1.23s0.38-0.62,0.66-0.8
					c0.28-0.19,0.61-0.28,0.98-0.28h0.18v0.85h-0.21c-0.31,0-0.58,0.06-0.81,0.18s-0.41,0.29-0.53,0.51
					c-0.12,0.22-0.19,0.48-0.19,0.77v2.97h-0.82V93z"/>
				<path class="st7" d="M247.18,93h0.79v2.26h-0.28c0-0.49,0.08-0.91,0.23-1.27c0.15-0.36,0.37-0.63,0.66-0.82
					c0.29-0.19,0.63-0.29,1.02-0.29c0.37,0,0.7,0.08,0.97,0.25s0.5,0.41,0.65,0.72c0.15,0.31,0.23,0.67,0.23,1.08v3.3h-0.82v-3.26
					c0-0.29-0.05-0.53-0.15-0.74s-0.24-0.37-0.42-0.48s-0.41-0.17-0.67-0.17c-0.28,0-0.53,0.06-0.74,0.19s-0.37,0.31-0.49,0.54
					S248,94.81,248,95.12v3.1h-0.82V93z M253.94,94.22c-0.1-0.21-0.24-0.37-0.42-0.48s-0.41-0.17-0.67-0.17
					c-0.28,0-0.52,0.06-0.73,0.19c-0.21,0.13-0.38,0.31-0.49,0.54c-0.12,0.23-0.17,0.51-0.17,0.82l-0.46,0.13
					c0-0.47,0.08-0.88,0.25-1.25c0.16-0.36,0.4-0.64,0.7-0.84s0.66-0.3,1.06-0.3c0.37,0,0.7,0.08,0.99,0.25
					c0.29,0.17,0.51,0.41,0.67,0.72c0.16,0.31,0.24,0.67,0.24,1.08v3.3h-0.82v-3.26C254.08,94.67,254.03,94.43,253.94,94.22z"/>
				<path class="st7" d="M259.45,93v1.02h0.02v5.85h-0.82V93H259.45z M260.2,98.05c-0.34-0.2-0.61-0.48-0.8-0.84
					c-0.19-0.36-0.29-0.77-0.3-1.25h0.34v-0.7h-0.34c0.01-0.47,0.11-0.89,0.3-1.25c0.19-0.36,0.46-0.64,0.8-0.84
					c0.34-0.2,0.74-0.3,1.19-0.3c0.49,0,0.92,0.12,1.3,0.34c0.38,0.23,0.67,0.55,0.89,0.97s0.32,0.89,0.32,1.42
					s-0.11,1.01-0.32,1.42s-0.51,0.74-0.89,0.97c-0.38,0.23-0.81,0.34-1.3,0.34C260.94,98.34,260.55,98.25,260.2,98.05z
					 M262.19,97.35c0.27-0.17,0.48-0.4,0.63-0.7c0.15-0.3,0.22-0.65,0.22-1.04c0-0.39-0.08-0.74-0.22-1.04
					c-0.15-0.3-0.36-0.54-0.63-0.7c-0.27-0.17-0.58-0.25-0.92-0.25c-0.35,0-0.66,0.08-0.93,0.25c-0.27,0.17-0.48,0.4-0.63,0.7
					c-0.15,0.3-0.23,0.65-0.23,1.04c0,0.39,0.08,0.74,0.23,1.04c0.15,0.3,0.36,0.54,0.63,0.7s0.58,0.25,0.93,0.25
					C261.61,97.61,261.92,97.52,262.19,97.35z"/>
				<path class="st7" d="M265.04,93h0.82v1.75l-0.34,0.51c0.01-0.47,0.1-0.88,0.26-1.23s0.38-0.62,0.66-0.8
					c0.28-0.19,0.61-0.28,0.98-0.28h0.18v0.85h-0.21c-0.31,0-0.58,0.06-0.81,0.18s-0.41,0.29-0.53,0.51
					c-0.12,0.22-0.19,0.48-0.19,0.77v2.97h-0.82V93z"/>
				<path class="st7" d="M269.35,97.99c-0.41-0.24-0.73-0.56-0.96-0.98c-0.23-0.42-0.35-0.88-0.35-1.4c0-0.52,0.12-0.98,0.35-1.4
					s0.55-0.74,0.96-0.98s0.86-0.35,1.36-0.35c0.5,0,0.95,0.12,1.35,0.35c0.4,0.24,0.72,0.56,0.96,0.98
					c0.23,0.42,0.35,0.88,0.35,1.4c0,0.52-0.12,0.99-0.35,1.4c-0.23,0.42-0.55,0.74-0.96,0.98c-0.41,0.24-0.86,0.35-1.36,0.35
					C270.2,98.34,269.75,98.23,269.35,97.99z M271.63,97.35c0.27-0.17,0.49-0.4,0.64-0.7s0.24-0.65,0.24-1.04
					c0-0.39-0.08-0.74-0.24-1.04s-0.37-0.54-0.65-0.7c-0.27-0.17-0.58-0.25-0.92-0.25c-0.34,0-0.65,0.08-0.92,0.25
					c-0.28,0.17-0.49,0.4-0.65,0.7s-0.24,0.65-0.24,1.04c0,0.39,0.08,0.74,0.24,1.04s0.38,0.53,0.65,0.7s0.59,0.25,0.93,0.25
					C271.05,97.6,271.36,97.52,271.63,97.35z"/>
				<path class="st7" d="M273.41,99.08h0.45c0.17,0,0.3-0.05,0.41-0.16c0.1-0.1,0.16-0.24,0.16-0.41V93h0.82v5.58
					c0,0.25-0.06,0.47-0.17,0.66c-0.11,0.19-0.27,0.34-0.47,0.45c-0.2,0.11-0.43,0.16-0.69,0.16h-0.5V99.08z M275.3,91.08v0.97
					h-0.96v-0.97H275.3z"/>
				<path class="st7" d="M277.54,97.99c-0.39-0.23-0.7-0.56-0.92-0.98c-0.22-0.42-0.33-0.89-0.33-1.42c0-0.51,0.11-0.98,0.33-1.39
					c0.22-0.42,0.53-0.74,0.92-0.98c0.39-0.24,0.83-0.35,1.31-0.35c0.49,0,0.93,0.12,1.3,0.35c0.37,0.23,0.66,0.56,0.86,0.97
					c0.2,0.42,0.3,0.88,0.3,1.41v0.2h-4.22l0.01-0.22c0,0.4,0.08,0.75,0.24,1.06c0.16,0.31,0.37,0.55,0.64,0.73
					c0.27,0.17,0.58,0.26,0.92,0.26c0.23,0,0.44-0.03,0.64-0.08c0.2-0.06,0.37-0.14,0.51-0.24c0.14-0.11,0.26-0.23,0.33-0.38h0.82
					c-0.06,0.22-0.19,0.44-0.38,0.65c-0.2,0.22-0.46,0.4-0.8,0.55c-0.33,0.15-0.72,0.22-1.17,0.22
					C278.38,98.34,277.94,98.23,277.54,97.99z M277.11,95.13h3.4v0.46c0-0.4-0.06-0.75-0.19-1.05c-0.13-0.3-0.31-0.54-0.56-0.7
					c-0.25-0.17-0.54-0.25-0.89-0.25c-0.35,0-0.65,0.08-0.92,0.24c-0.27,0.16-0.47,0.39-0.62,0.69s-0.22,0.64-0.22,1.04
					L277.11,95.13z"/>
				<path class="st7" d="M283.3,97.99c-0.4-0.24-0.71-0.57-0.94-0.98c-0.23-0.42-0.34-0.88-0.34-1.4c0-0.51,0.11-0.98,0.34-1.4
					c0.23-0.42,0.54-0.74,0.94-0.98c0.4-0.24,0.84-0.36,1.34-0.36c0.42,0,0.79,0.07,1.13,0.21c0.33,0.14,0.61,0.35,0.83,0.63
					c0.22,0.28,0.37,0.63,0.45,1.03h-0.82c-0.08-0.25-0.19-0.46-0.35-0.63c-0.16-0.17-0.35-0.3-0.56-0.38
					c-0.21-0.08-0.44-0.12-0.68-0.12c-0.34,0-0.64,0.08-0.91,0.26c-0.27,0.17-0.48,0.41-0.62,0.71s-0.22,0.65-0.22,1.03
					c0,0.38,0.08,0.72,0.22,1.03c0.15,0.3,0.36,0.54,0.62,0.71c0.27,0.17,0.57,0.26,0.91,0.26c0.24,0,0.47-0.04,0.68-0.13
					c0.21-0.08,0.4-0.21,0.56-0.38s0.28-0.38,0.35-0.63h0.82c-0.08,0.39-0.23,0.73-0.46,1.02c-0.23,0.28-0.51,0.5-0.85,0.64
					c-0.34,0.15-0.71,0.22-1.11,0.22C284.15,98.34,283.7,98.23,283.3,97.99z"/>
				<path class="st7" d="M289.18,98.06c-0.2-0.11-0.36-0.25-0.48-0.44s-0.17-0.4-0.17-0.63l0-3.27h-0.92l0.01-0.73h0.57
					c0.13,0,0.23-0.04,0.31-0.12c0.08-0.08,0.12-0.19,0.12-0.31v-0.84h0.74V93h1.26l-0.01,0.73h-1.26l0.01,3.22
					c0,0.16,0.05,0.29,0.16,0.4c0.11,0.11,0.24,0.16,0.4,0.16h0.69v0.73h-0.75C289.61,98.22,289.38,98.17,289.18,98.06z"/>
			</g>
		</g>
	</g>
	<g>
		<g>
			<path class="st1" d="M345.52,298.85l55.53,0c8.05,0,14.58-6.53,14.58-14.58l0-53.06"/>
			<path class="st1" d="M345.52,220.33l55.53,0c8.05,0,14.58-6.53,14.58-14.58"/>
			<path class="st1" d="M345.52,176.76l117.86,0c8.05,0,14.58-6.53,14.58-14.58l0-8.74"/>
			<g>
				<path class="st1" d="M345.52,184.77l55.53,0c8.05,0,14.58,6.53,14.58,14.58l0,1.46l0,44.19c0,8.05-6.53,14.58-14.58,14.58
					l-55.53,0"/>
			</g>
		</g>
		<g>
			<path class="st1" d="M189.75,138.59l-55.53,0c-8.05,0-14.58,6.53-14.58,14.58l0,13.25c0,8.05,6.53,14.58,14.58,14.58l65.02,0"/>
		</g>
	</g>
	<g>
		<g>
			<g>
				<g>
					<g>
						<path class="st2" d="M565.25,112.37H390.61c-6.04,0-10.94,4.9-10.94,10.94v30.58c0,6.04,4.9,10.94,10.94,10.94h174.64
							c6.04,0,10.94-4.9,10.94-10.94V123.3C576.19,117.26,571.29,112.37,565.25,112.37z"/>
					</g>
				</g>
			</g>
			<g>
				<g>
					<path d="M456.46,133.84v1.21h-1.2v-1.21H456.46z M455.35,136.24h1.02v6.53h-1.02V136.24z"/>
					<path d="M460.39,142.32c-0.67-0.4-1.2-0.96-1.59-1.66c-0.39-0.7-0.58-1.49-0.58-2.36c0-0.87,0.19-1.65,0.58-2.36
						c0.39-0.7,0.92-1.26,1.59-1.66s1.42-0.6,2.25-0.6c0.82,0,1.57,0.2,2.24,0.6c0.67,0.4,1.21,0.96,1.59,1.66
						c0.39,0.7,0.58,1.49,0.58,2.36c0,0.87-0.19,1.65-0.58,2.36c-0.39,0.7-0.92,1.26-1.59,1.66c-0.67,0.4-1.42,0.6-2.24,0.6
						C461.81,142.92,461.06,142.72,460.39,142.32z M464.33,141.48c0.51-0.31,0.9-0.75,1.19-1.3s0.43-1.18,0.43-1.88
						c0-0.7-0.14-1.33-0.42-1.88c-0.28-0.56-0.68-0.99-1.18-1.3s-1.08-0.47-1.71-0.47c-0.63,0-1.2,0.16-1.7,0.47
						c-0.5,0.31-0.9,0.75-1.19,1.3s-0.43,1.18-0.43,1.88c0,0.7,0.14,1.33,0.43,1.88c0.29,0.55,0.68,0.99,1.19,1.3
						s1.07,0.47,1.7,0.47C463.26,141.95,463.82,141.8,464.33,141.48z"/>
					<path d="M469.97,142.59c-0.47-0.23-0.84-0.54-1.1-0.94c-0.26-0.4-0.39-0.87-0.39-1.39h1.08c0,0.34,0.08,0.63,0.26,0.89
						c0.17,0.26,0.41,0.46,0.72,0.61c0.31,0.15,0.67,0.22,1.07,0.22c0.4,0,0.74-0.07,1.04-0.2c0.3-0.13,0.53-0.32,0.7-0.57
						c0.16-0.24,0.25-0.53,0.25-0.85c0-0.4-0.12-0.75-0.36-1.04c-0.24-0.29-0.56-0.47-0.96-0.54l-1.44-0.25
						c-0.43-0.08-0.81-0.23-1.13-0.45c-0.32-0.23-0.56-0.51-0.73-0.84c-0.17-0.34-0.25-0.7-0.25-1.1c0-0.46,0.12-0.88,0.37-1.25
						c0.24-0.37,0.58-0.66,1.02-0.88c0.44-0.21,0.93-0.32,1.47-0.32c0.56,0,1.06,0.11,1.5,0.32s0.78,0.5,1.02,0.88
						c0.24,0.37,0.36,0.8,0.36,1.28h-1.08c0-0.29-0.07-0.56-0.22-0.79c-0.15-0.23-0.36-0.41-0.63-0.54
						c-0.27-0.13-0.58-0.19-0.93-0.19c-0.35,0-0.67,0.06-0.94,0.19c-0.27,0.12-0.48,0.3-0.63,0.52c-0.15,0.23-0.23,0.49-0.23,0.78
						c0,0.35,0.11,0.66,0.34,0.91c0.23,0.26,0.53,0.42,0.9,0.48l1.47,0.26c0.42,0.08,0.8,0.24,1.14,0.49
						c0.33,0.25,0.59,0.56,0.77,0.92c0.18,0.36,0.27,0.75,0.27,1.15c0,0.48-0.13,0.92-0.39,1.31c-0.26,0.39-0.62,0.7-1.09,0.93
						s-1,0.34-1.59,0.34C470.98,142.92,470.44,142.81,469.97,142.59z"/>
					<path d="M483.32,136.36c0.37,0.18,0.66,0.44,0.87,0.79c0.21,0.35,0.31,0.76,0.31,1.23v4.39h-1v-2.44h0.27
						c0,0.54-0.09,1.01-0.28,1.4s-0.46,0.69-0.8,0.89s-0.76,0.31-1.24,0.31c-0.42,0-0.79-0.08-1.13-0.24s-0.6-0.38-0.79-0.67
						c-0.19-0.28-0.29-0.61-0.29-0.97c0-0.34,0.09-0.65,0.26-0.94c0.18-0.29,0.42-0.52,0.73-0.71s0.66-0.3,1.06-0.34l1.74-0.19
						c0.14-0.02,0.26-0.08,0.34-0.18c0.08-0.1,0.12-0.25,0.12-0.45l0.08,1.34l-2.14,0.24c-0.22,0.03-0.42,0.09-0.59,0.2
						c-0.17,0.11-0.31,0.24-0.4,0.41c-0.1,0.17-0.14,0.36-0.14,0.56c0,0.22,0.06,0.42,0.18,0.59c0.12,0.17,0.28,0.3,0.49,0.4
						c0.21,0.1,0.45,0.14,0.71,0.14c0.37,0,0.69-0.07,0.96-0.22s0.49-0.36,0.63-0.63c0.15-0.27,0.22-0.58,0.22-0.93v-2.08
						c0-0.26-0.06-0.49-0.18-0.69c-0.12-0.2-0.3-0.35-0.52-0.46s-0.48-0.16-0.78-0.16c-0.29,0-0.56,0.05-0.79,0.15
						c-0.23,0.1-0.42,0.23-0.56,0.4c-0.14,0.17-0.23,0.35-0.26,0.55h-1.02c0.05-0.37,0.2-0.7,0.44-1c0.24-0.3,0.55-0.53,0.93-0.7
						s0.81-0.25,1.27-0.25C482.51,136.08,482.94,136.17,483.32,136.36z"/>
					<path d="M487.53,136.24v1.28h0.03v7.31h-1.02v-8.59H487.53z M488.48,142.55c-0.43-0.25-0.76-0.6-1-1.05
						c-0.24-0.45-0.36-0.97-0.37-1.56h0.42v-0.88h-0.42c0.01-0.59,0.13-1.11,0.37-1.56s0.58-0.8,1-1.05s0.93-0.37,1.49-0.37
						c0.61,0,1.15,0.14,1.62,0.43c0.47,0.29,0.84,0.69,1.11,1.21c0.27,0.52,0.4,1.11,0.4,1.78c0,0.67-0.13,1.26-0.4,1.78
						s-0.64,0.92-1.11,1.21c-0.47,0.29-1.01,0.43-1.62,0.43C489.4,142.92,488.91,142.8,488.48,142.55z M490.96,141.68
						c0.34-0.21,0.6-0.5,0.79-0.88c0.19-0.38,0.28-0.81,0.28-1.3c0-0.49-0.09-0.92-0.28-1.3c-0.19-0.38-0.45-0.67-0.79-0.88
						s-0.72-0.32-1.16-0.32c-0.44,0-0.83,0.11-1.17,0.32c-0.34,0.21-0.61,0.5-0.79,0.88c-0.19,0.38-0.28,0.81-0.28,1.3
						c0,0.49,0.09,0.92,0.28,1.3c0.19,0.38,0.45,0.67,0.79,0.88c0.34,0.21,0.73,0.32,1.17,0.32
						C490.24,142,490.62,141.89,490.96,141.68z"/>
					<path d="M495.77,136.24v1.28h0.03v7.31h-1.02v-8.59H495.77z M496.71,142.55c-0.43-0.25-0.76-0.6-1-1.05
						c-0.24-0.45-0.36-0.97-0.37-1.56h0.42v-0.88h-0.42c0.01-0.59,0.13-1.11,0.37-1.56s0.58-0.8,1-1.05s0.93-0.37,1.49-0.37
						c0.61,0,1.15,0.14,1.62,0.43c0.47,0.29,0.84,0.69,1.11,1.21c0.27,0.52,0.4,1.11,0.4,1.78c0,0.67-0.13,1.26-0.4,1.78
						s-0.64,0.92-1.11,1.21c-0.47,0.29-1.01,0.43-1.62,0.43C497.64,142.92,497.14,142.8,496.71,142.55z M499.2,141.68
						c0.34-0.21,0.6-0.5,0.79-0.88c0.19-0.38,0.28-0.81,0.28-1.3c0-0.49-0.09-0.92-0.28-1.3c-0.19-0.38-0.45-0.67-0.79-0.88
						s-0.72-0.32-1.16-0.32c-0.44,0-0.83,0.11-1.17,0.32c-0.34,0.21-0.61,0.5-0.79,0.88c-0.19,0.38-0.28,0.81-0.28,1.3
						c0,0.49,0.09,0.92,0.28,1.3c0.19,0.38,0.45,0.67,0.79,0.88c0.34,0.21,0.73,0.32,1.17,0.32
						C498.48,142,498.86,141.89,499.2,141.68z"/>
				</g>
			</g>
		</g>
	</g>
	<g>
		<g>
			<g>
				<g>
					<path class="st2" d="M342.43,112.37H167.79c-6.04,0-10.94,4.9-10.94,10.94v30.58c0,6.04,4.9,10.94,10.94,10.94h174.64
						c6.04,0,10.94-4.9,10.94-10.94V123.3C353.36,117.26,348.47,112.37,342.43,112.37z"/>
				</g>
			</g>
		</g>
		<g>
			<g>
				<path d="M221.67,133.84h1.14l3.43,8.93h-1.12l-0.86-2.37h-3.95l-0.8,2.37h-1.15L221.67,133.84z M223.91,139.48l-1.52-4.15
					l-0.15-0.54l-0.15,0.54l-1.45,4.15H223.91z"/>
				<path d="M227.63,136.24h0.98v2.83h-0.41c0-0.6,0.1-1.13,0.31-1.58c0.21-0.45,0.51-0.79,0.89-1.04c0.39-0.24,0.84-0.36,1.37-0.36
					c0.47,0,0.88,0.1,1.24,0.3c0.36,0.2,0.65,0.49,0.85,0.88c0.21,0.39,0.31,0.86,0.31,1.4v4.1h-1.02v-4c0-0.38-0.07-0.7-0.2-0.97
					c-0.13-0.27-0.32-0.47-0.57-0.61c-0.25-0.14-0.54-0.21-0.88-0.21c-0.37,0-0.69,0.08-0.97,0.24c-0.28,0.16-0.5,0.39-0.65,0.68
					s-0.23,0.62-0.23,1v3.87h-1.02V136.24z"/>
				<path d="M236.18,142.49c-0.47-0.29-0.84-0.69-1.11-1.21s-0.4-1.11-0.4-1.78c0-0.67,0.13-1.26,0.4-1.78
					c0.27-0.52,0.64-0.92,1.11-1.21s1.02-0.43,1.62-0.43c0.56,0,1.06,0.12,1.49,0.37s0.76,0.6,1,1.05s0.36,0.97,0.37,1.56h-0.42
					v0.88h0.42c-0.01,0.59-0.13,1.11-0.37,1.56c-0.24,0.45-0.58,0.8-1,1.05c-0.43,0.25-0.92,0.37-1.49,0.37
					C237.19,142.92,236.65,142.78,236.18,142.49z M239.13,141.68c0.34-0.21,0.6-0.5,0.79-0.88s0.28-0.81,0.28-1.3
					c0-0.49-0.09-0.92-0.28-1.3s-0.45-0.67-0.79-0.88c-0.34-0.21-0.73-0.32-1.17-0.32c-0.43,0-0.82,0.11-1.15,0.32
					c-0.34,0.21-0.6,0.5-0.79,0.88s-0.28,0.81-0.28,1.3c0,0.49,0.09,0.92,0.28,1.3s0.45,0.67,0.79,0.88
					c0.34,0.21,0.72,0.32,1.15,0.32C238.4,142,238.79,141.89,239.13,141.68z M240.19,133.84h1.02v8.93h-1.02V133.84z"/>
				<path d="M243.34,136.24h1.02v2.19l-0.43,0.64c0.02-0.59,0.12-1.1,0.32-1.53c0.2-0.44,0.47-0.77,0.83-1
					c0.35-0.23,0.76-0.35,1.23-0.35h0.23v1.07h-0.27c-0.39,0-0.73,0.07-1.01,0.22s-0.51,0.36-0.67,0.63s-0.23,0.6-0.23,0.97v3.71
					h-1.02V136.24z"/>
				<path d="M248.99,142.48c-0.51-0.3-0.91-0.7-1.2-1.23c-0.29-0.52-0.44-1.1-0.44-1.75s0.15-1.23,0.44-1.75
					c0.29-0.52,0.69-0.93,1.2-1.22c0.51-0.3,1.08-0.44,1.7-0.44s1.18,0.15,1.69,0.44c0.51,0.3,0.91,0.7,1.2,1.22s0.44,1.1,0.44,1.75
					s-0.15,1.24-0.44,1.75c-0.29,0.52-0.69,0.93-1.2,1.22c-0.51,0.3-1.07,0.44-1.7,0.44C250.06,142.92,249.5,142.78,248.99,142.48z
					 M251.84,141.68c0.34-0.21,0.61-0.5,0.8-0.88c0.2-0.38,0.29-0.81,0.29-1.3c0-0.49-0.1-0.92-0.29-1.3
					c-0.2-0.38-0.46-0.67-0.81-0.88c-0.34-0.21-0.73-0.31-1.15-0.31c-0.43,0-0.81,0.1-1.16,0.31c-0.34,0.21-0.62,0.5-0.81,0.88
					c-0.2,0.38-0.3,0.81-0.3,1.3c0,0.49,0.1,0.92,0.3,1.3c0.2,0.38,0.47,0.67,0.82,0.88s0.73,0.31,1.16,0.31
					C251.12,141.99,251.5,141.89,251.84,141.68z"/>
				<path d="M256.8,133.84v1.21h-1.2v-1.21H256.8z M255.69,136.24h1.02v6.53h-1.02V136.24z"/>
				<path d="M259.9,142.49c-0.47-0.29-0.84-0.69-1.11-1.21s-0.4-1.11-0.4-1.78c0-0.67,0.13-1.26,0.4-1.78
					c0.27-0.52,0.64-0.92,1.11-1.21s1.02-0.43,1.62-0.43c0.56,0,1.06,0.12,1.49,0.37s0.76,0.6,1,1.05s0.36,0.97,0.37,1.56h-0.42
					v0.88h0.42c-0.01,0.59-0.13,1.11-0.37,1.56c-0.24,0.45-0.58,0.8-1,1.05c-0.43,0.25-0.92,0.37-1.49,0.37
					C260.91,142.92,260.37,142.78,259.9,142.49z M262.85,141.68c0.34-0.21,0.6-0.5,0.79-0.88s0.28-0.81,0.28-1.3
					c0-0.49-0.09-0.92-0.28-1.3s-0.45-0.67-0.79-0.88c-0.34-0.21-0.73-0.32-1.17-0.32c-0.43,0-0.82,0.11-1.15,0.32
					c-0.34,0.21-0.6,0.5-0.79,0.88s-0.28,0.81-0.28,1.3c0,0.49,0.09,0.92,0.28,1.3s0.45,0.67,0.79,0.88
					c0.34,0.21,0.72,0.32,1.15,0.32C262.12,142,262.51,141.89,262.85,141.68z M263.91,133.84h1.02v8.93h-1.02V133.84z"/>
				<path d="M273.83,136.36c0.37,0.18,0.66,0.44,0.87,0.79c0.21,0.35,0.31,0.76,0.31,1.23v4.39h-1v-2.44h0.27
					c0,0.54-0.09,1.01-0.28,1.4s-0.46,0.69-0.8,0.89s-0.76,0.31-1.24,0.31c-0.42,0-0.79-0.08-1.13-0.24s-0.6-0.38-0.79-0.67
					c-0.19-0.28-0.29-0.61-0.29-0.97c0-0.34,0.09-0.65,0.26-0.94c0.18-0.29,0.42-0.52,0.73-0.71s0.66-0.3,1.06-0.34l1.74-0.19
					c0.14-0.02,0.26-0.08,0.34-0.18c0.08-0.1,0.12-0.25,0.12-0.45l0.08,1.34l-2.14,0.24c-0.22,0.03-0.42,0.09-0.59,0.2
					c-0.17,0.11-0.31,0.24-0.4,0.41c-0.1,0.17-0.14,0.36-0.14,0.56c0,0.22,0.06,0.42,0.18,0.59c0.12,0.17,0.28,0.3,0.49,0.4
					c0.21,0.1,0.45,0.14,0.71,0.14c0.37,0,0.69-0.07,0.96-0.22s0.49-0.36,0.63-0.63c0.15-0.27,0.22-0.58,0.22-0.93v-2.08
					c0-0.26-0.06-0.49-0.18-0.69c-0.12-0.2-0.3-0.35-0.52-0.46s-0.48-0.16-0.78-0.16c-0.29,0-0.56,0.05-0.79,0.15
					c-0.23,0.1-0.42,0.23-0.56,0.4c-0.14,0.17-0.23,0.35-0.26,0.55h-1.02c0.05-0.37,0.2-0.7,0.44-1c0.24-0.3,0.55-0.53,0.93-0.7
					s0.81-0.25,1.27-0.25C273.02,136.08,273.45,136.17,273.83,136.36z"/>
				<path d="M278.05,136.24v1.28h0.03v7.31h-1.02v-8.59H278.05z M278.99,142.55c-0.43-0.25-0.76-0.6-1-1.05
					c-0.24-0.45-0.36-0.97-0.37-1.56h0.42v-0.88h-0.42c0.01-0.59,0.13-1.11,0.37-1.56s0.58-0.8,1-1.05s0.93-0.37,1.49-0.37
					c0.61,0,1.15,0.14,1.62,0.43c0.47,0.29,0.84,0.69,1.11,1.21c0.27,0.52,0.4,1.11,0.4,1.78c0,0.67-0.13,1.26-0.4,1.78
					s-0.64,0.92-1.11,1.21c-0.47,0.29-1.01,0.43-1.62,0.43C279.92,142.92,279.42,142.8,278.99,142.55z M281.47,141.68
					c0.34-0.21,0.6-0.5,0.79-0.88c0.19-0.38,0.28-0.81,0.28-1.3c0-0.49-0.09-0.92-0.28-1.3c-0.19-0.38-0.45-0.67-0.79-0.88
					s-0.72-0.32-1.16-0.32c-0.44,0-0.83,0.11-1.17,0.32c-0.34,0.21-0.61,0.5-0.79,0.88c-0.19,0.38-0.28,0.81-0.28,1.3
					c0,0.49,0.09,0.92,0.28,1.3c0.19,0.38,0.45,0.67,0.79,0.88c0.34,0.21,0.73,0.32,1.17,0.32
					C280.75,142,281.14,141.89,281.47,141.68z"/>
				<path d="M286.28,136.24v1.28h0.03v7.31h-1.02v-8.59H286.28z M287.23,142.55c-0.43-0.25-0.76-0.6-1-1.05
					c-0.24-0.45-0.36-0.97-0.37-1.56h0.42v-0.88h-0.42c0.01-0.59,0.13-1.11,0.37-1.56s0.58-0.8,1-1.05s0.93-0.37,1.49-0.37
					c0.61,0,1.15,0.14,1.62,0.43c0.47,0.29,0.84,0.69,1.11,1.21c0.27,0.52,0.4,1.11,0.4,1.78c0,0.67-0.13,1.26-0.4,1.78
					s-0.64,0.92-1.11,1.21c-0.47,0.29-1.01,0.43-1.62,0.43C288.15,142.92,287.66,142.8,287.23,142.55z M289.71,141.68
					c0.34-0.21,0.6-0.5,0.79-0.88c0.19-0.38,0.28-0.81,0.28-1.3c0-0.49-0.09-0.92-0.28-1.3c-0.19-0.38-0.45-0.67-0.79-0.88
					s-0.72-0.32-1.16-0.32c-0.44,0-0.83,0.11-1.17,0.32c-0.34,0.21-0.61,0.5-0.79,0.88c-0.19,0.38-0.28,0.81-0.28,1.3
					c0,0.49,0.09,0.92,0.28,1.3c0.19,0.38,0.45,0.67,0.79,0.88c0.34,0.21,0.73,0.32,1.17,0.32
					C288.99,142,289.37,141.89,289.71,141.68z"/>
			</g>
		</g>
	</g>
	<g>
		<g>
			<g>
				<g>
					
						<radialGradient id="SVGID_1_" cx="160.6622" cy="193.5866" r="192.6241" gradientTransform="matrix(1 0 0 0.2768 0 140.0082)" gradientUnits="userSpaceOnUse">
						<stop  offset="0" style="stop-color:#EB4857"/>
						<stop  offset="0.5" style="stop-color:#C611E0"/>
						<stop  offset="1" style="stop-color:#7F52FF"/>
					</radialGradient>
					<path class="st4" d="M341.08,168.73l-171.95,0c-6.78,0-12.28,5.5-12.28,12.28v0c0,6.78,5.5,12.28,12.28,12.28l171.95,0
						c6.78,0,12.28-5.5,12.28-12.28v0C353.36,174.23,347.86,168.73,341.08,168.73z"/>
				</g>
			</g>
			<g>
				<path class="st0" d="M206.28,185.16c-0.53-0.3-0.95-0.72-1.24-1.26s-0.44-1.16-0.44-1.85v-5.53h1.06v5.53
					c0,0.51,0.1,0.96,0.31,1.35s0.49,0.7,0.86,0.92c0.37,0.22,0.8,0.33,1.29,0.33c0.48,0,0.9-0.11,1.26-0.33s0.65-0.52,0.85-0.92
					c0.2-0.39,0.3-0.84,0.3-1.35v-5.53h1.06v5.53c0,0.69-0.15,1.31-0.44,1.85c-0.29,0.54-0.7,0.96-1.23,1.26
					c-0.53,0.3-1.13,0.45-1.8,0.45C207.43,185.61,206.82,185.46,206.28,185.16z"/>
				<path class="st0" d="M213.94,178.92h0.98v2.83h-0.34c0-0.61,0.09-1.14,0.28-1.59s0.46-0.79,0.82-1.03
					c0.36-0.24,0.78-0.36,1.28-0.36c0.46,0,0.87,0.11,1.22,0.32c0.35,0.21,0.62,0.51,0.81,0.9s0.29,0.84,0.29,1.35v4.12h-1.02v-4.08
					c0-0.36-0.06-0.67-0.18-0.93c-0.12-0.26-0.3-0.46-0.53-0.6c-0.23-0.14-0.51-0.21-0.83-0.21c-0.35,0-0.66,0.08-0.93,0.24
					s-0.47,0.38-0.61,0.68s-0.21,0.64-0.21,1.03v3.87h-1.02V178.92z M222.38,180.45c-0.12-0.26-0.3-0.46-0.53-0.6
					c-0.23-0.14-0.51-0.21-0.84-0.21c-0.35,0-0.65,0.08-0.92,0.24c-0.26,0.16-0.47,0.38-0.61,0.68c-0.14,0.29-0.22,0.64-0.22,1.03
					l-0.57,0.17c0-0.59,0.1-1.11,0.31-1.56c0.2-0.45,0.5-0.8,0.88-1.05c0.38-0.25,0.82-0.37,1.33-0.37c0.46,0,0.88,0.11,1.23,0.32
					s0.64,0.51,0.84,0.9c0.2,0.39,0.3,0.84,0.3,1.35v4.12h-1.02v-4.08C222.57,181.02,222.51,180.71,222.38,180.45z"/>
				<path class="st0" d="M225.63,176.52h1.02v8.93h-1.02V176.52z M227.55,185.24c-0.43-0.25-0.76-0.6-1-1.05
					c-0.24-0.45-0.36-0.97-0.37-1.56h0.42v-0.88h-0.42c0.01-0.59,0.13-1.11,0.37-1.56c0.24-0.45,0.58-0.8,1-1.05
					c0.43-0.25,0.92-0.37,1.49-0.37c0.61,0,1.15,0.14,1.62,0.43c0.47,0.29,0.84,0.69,1.11,1.21c0.27,0.52,0.4,1.11,0.4,1.78
					s-0.13,1.26-0.4,1.78c-0.27,0.52-0.64,0.92-1.11,1.21c-0.47,0.29-1.02,0.43-1.62,0.43
					C228.47,185.61,227.98,185.49,227.55,185.24z M230.03,184.37c0.34-0.21,0.6-0.5,0.78-0.88c0.19-0.38,0.28-0.81,0.28-1.3
					s-0.09-0.92-0.28-1.3c-0.19-0.38-0.45-0.67-0.78-0.88c-0.34-0.21-0.72-0.32-1.16-0.32c-0.44,0-0.83,0.11-1.17,0.32
					s-0.6,0.5-0.79,0.88s-0.28,0.81-0.28,1.3s0.09,0.92,0.28,1.3s0.45,0.67,0.79,0.88c0.34,0.21,0.73,0.32,1.17,0.32
					C229.31,184.68,229.7,184.58,230.03,184.37z"/>
				<path class="st0" d="M233.85,178.92h1.02v2.19l-0.43,0.64c0.02-0.59,0.12-1.1,0.32-1.53s0.47-0.77,0.83-1s0.76-0.35,1.23-0.35
					h0.23v1.07h-0.27c-0.39,0-0.73,0.07-1.01,0.22c-0.29,0.15-0.51,0.36-0.67,0.63s-0.23,0.6-0.23,0.97v3.71h-1.02V178.92z"/>
				<path class="st0" d="M239.41,185.17c-0.49-0.29-0.87-0.7-1.15-1.22s-0.41-1.11-0.41-1.77c0-0.64,0.14-1.22,0.42-1.74
					c0.28-0.52,0.66-0.93,1.15-1.22c0.49-0.3,1.04-0.44,1.64-0.44c0.62,0,1.16,0.15,1.62,0.44c0.47,0.29,0.83,0.7,1.08,1.22
					c0.25,0.52,0.38,1.11,0.38,1.76v0.25h-5.28l0.01-0.28c0,0.49,0.1,0.93,0.3,1.32s0.46,0.69,0.8,0.91s0.72,0.33,1.15,0.33
					c0.29,0,0.55-0.03,0.79-0.1c0.25-0.07,0.46-0.17,0.64-0.31c0.18-0.13,0.32-0.29,0.42-0.47H244c-0.08,0.27-0.24,0.54-0.48,0.82
					s-0.58,0.5-1,0.68c-0.42,0.18-0.9,0.27-1.46,0.27C240.45,185.61,239.9,185.46,239.41,185.17z M238.87,181.6h4.26v0.58
					c0-0.5-0.08-0.94-0.24-1.32c-0.16-0.38-0.39-0.67-0.7-0.88c-0.31-0.21-0.68-0.31-1.11-0.31c-0.43,0-0.82,0.1-1.15,0.3
					c-0.33,0.2-0.59,0.49-0.77,0.86c-0.18,0.37-0.27,0.8-0.27,1.3L238.87,181.6z"/>
				<path class="st0" d="M245.82,176.52h1.02v8.93h-1.02V176.52z"/>
				<path class="st0" d="M249.08,176.52h1.02v8.93h-1.02V176.52z"/>
				<path class="st0" d="M255.93,179.04c0.38,0.18,0.67,0.44,0.87,0.79c0.21,0.35,0.31,0.76,0.31,1.23v4.39h-1v-2.44h0.27
					c0,0.54-0.09,1.01-0.28,1.4s-0.46,0.69-0.8,0.89c-0.35,0.2-0.76,0.31-1.24,0.31c-0.42,0-0.79-0.08-1.13-0.24
					s-0.6-0.38-0.79-0.67c-0.19-0.28-0.29-0.61-0.29-0.97c0-0.34,0.09-0.65,0.26-0.94c0.18-0.29,0.42-0.52,0.73-0.71
					c0.31-0.18,0.66-0.3,1.06-0.34l1.74-0.19c0.14-0.02,0.26-0.08,0.34-0.18c0.08-0.1,0.12-0.25,0.12-0.45l0.08,1.34l-2.14,0.24
					c-0.22,0.03-0.42,0.09-0.59,0.2c-0.17,0.11-0.31,0.25-0.4,0.42s-0.14,0.36-0.14,0.56c0,0.22,0.06,0.42,0.18,0.59
					s0.28,0.3,0.49,0.4c0.21,0.1,0.45,0.14,0.71,0.14c0.37,0,0.69-0.07,0.96-0.22c0.28-0.15,0.49-0.36,0.63-0.63
					c0.15-0.27,0.22-0.58,0.22-0.93v-2.08c0-0.26-0.06-0.49-0.18-0.69c-0.12-0.2-0.3-0.35-0.52-0.46c-0.22-0.11-0.48-0.16-0.77-0.16
					c-0.29,0-0.56,0.05-0.79,0.15c-0.23,0.1-0.42,0.23-0.56,0.4s-0.23,0.35-0.26,0.55h-1.02c0.05-0.37,0.2-0.7,0.44-1
					s0.55-0.53,0.94-0.7c0.38-0.17,0.81-0.26,1.27-0.26C255.13,178.77,255.56,178.86,255.93,179.04z"/>
				<path class="st0" d="M262.32,178.92h0.98v2.83h-0.34c0-0.61,0.09-1.14,0.28-1.59s0.46-0.79,0.82-1.03
					c0.36-0.24,0.78-0.36,1.28-0.36c0.46,0,0.87,0.11,1.22,0.32s0.62,0.51,0.81,0.9s0.29,0.84,0.29,1.35v4.12h-1.02v-4.08
					c0-0.36-0.06-0.67-0.18-0.93c-0.12-0.26-0.3-0.46-0.53-0.6c-0.23-0.14-0.51-0.21-0.83-0.21c-0.35,0-0.66,0.08-0.93,0.24
					s-0.47,0.38-0.61,0.68s-0.21,0.64-0.21,1.03v3.87h-1.02V178.92z M270.76,180.45c-0.12-0.26-0.3-0.46-0.53-0.6
					c-0.23-0.14-0.51-0.21-0.84-0.21c-0.35,0-0.65,0.08-0.92,0.24c-0.27,0.16-0.47,0.38-0.61,0.68c-0.14,0.29-0.22,0.64-0.22,1.03
					l-0.57,0.17c0-0.59,0.1-1.11,0.31-1.56c0.2-0.45,0.5-0.8,0.88-1.05c0.38-0.25,0.82-0.37,1.33-0.37c0.46,0,0.88,0.11,1.23,0.32
					s0.64,0.51,0.84,0.9c0.2,0.39,0.3,0.84,0.3,1.35v4.12h-1.02v-4.08C270.94,181.02,270.88,180.71,270.76,180.45z"/>
				<path class="st0" d="M275.09,185.17c-0.51-0.3-0.91-0.7-1.2-1.23s-0.44-1.1-0.44-1.75s0.15-1.23,0.44-1.75s0.69-0.93,1.2-1.23
					c0.51-0.3,1.08-0.44,1.7-0.44s1.18,0.15,1.69,0.44c0.51,0.3,0.91,0.7,1.2,1.22s0.44,1.1,0.44,1.75s-0.15,1.24-0.44,1.75
					c-0.29,0.52-0.69,0.93-1.2,1.22c-0.51,0.3-1.07,0.44-1.7,0.44C276.16,185.61,275.59,185.46,275.09,185.17z M277.94,184.37
					c0.34-0.21,0.61-0.5,0.8-0.88c0.2-0.38,0.29-0.81,0.29-1.3s-0.1-0.92-0.29-1.3c-0.2-0.38-0.46-0.67-0.81-0.88
					c-0.34-0.21-0.73-0.31-1.15-0.31c-0.43,0-0.81,0.1-1.16,0.31c-0.34,0.21-0.62,0.5-0.81,0.88c-0.2,0.38-0.3,0.81-0.3,1.3
					s0.1,0.92,0.3,1.3s0.47,0.67,0.82,0.88c0.35,0.21,0.73,0.31,1.16,0.31S277.6,184.57,277.94,184.37z"/>
				<path class="st0" d="M282.74,185.18c-0.47-0.29-0.85-0.69-1.11-1.21c-0.27-0.52-0.4-1.11-0.4-1.78s0.13-1.26,0.4-1.78
					c0.27-0.52,0.64-0.92,1.11-1.21s1.02-0.43,1.62-0.43c0.56,0,1.06,0.12,1.49,0.37c0.43,0.25,0.77,0.6,1.01,1.05
					s0.36,0.97,0.37,1.56h-0.42v0.88h0.42c-0.01,0.59-0.13,1.11-0.37,1.56c-0.24,0.45-0.58,0.8-1.01,1.05
					c-0.43,0.25-0.92,0.37-1.49,0.37C283.76,185.61,283.22,185.47,282.74,185.18z M285.69,184.37c0.34-0.21,0.6-0.5,0.79-0.88
					s0.29-0.81,0.29-1.3s-0.1-0.92-0.29-1.3s-0.45-0.67-0.79-0.88c-0.34-0.21-0.73-0.32-1.17-0.32c-0.43,0-0.82,0.11-1.15,0.32
					c-0.34,0.21-0.6,0.5-0.79,0.88s-0.28,0.81-0.28,1.3s0.09,0.92,0.28,1.3s0.45,0.67,0.79,0.88c0.34,0.21,0.72,0.32,1.15,0.32
					C284.96,184.68,285.35,184.58,285.69,184.37z M286.75,176.52h1.02v8.93h-1.02V176.52z"/>
				<path class="st0" d="M295.27,185.46h-0.98v-2.83h0.41c0,0.6-0.1,1.13-0.31,1.58s-0.51,0.79-0.89,1.04
					c-0.39,0.24-0.84,0.36-1.37,0.36c-0.47,0-0.88-0.1-1.24-0.3c-0.36-0.2-0.64-0.49-0.85-0.88c-0.21-0.39-0.31-0.86-0.31-1.4v-4.1
					h1.02v4c0,0.38,0.07,0.7,0.2,0.97c0.13,0.27,0.33,0.47,0.57,0.61c0.25,0.14,0.54,0.21,0.88,0.21c0.37,0,0.69-0.08,0.97-0.24
					s0.5-0.39,0.65-0.68c0.15-0.29,0.23-0.62,0.23-1v-3.87h1.02V185.46z"/>
				<path class="st0" d="M297.5,176.52h1.02v8.93h-1.02V176.52z"/>
				<path class="st0" d="M301.76,185.17c-0.49-0.29-0.87-0.7-1.15-1.22c-0.27-0.52-0.41-1.11-0.41-1.77c0-0.64,0.14-1.22,0.42-1.74
					c0.28-0.52,0.66-0.93,1.15-1.22c0.49-0.3,1.04-0.44,1.64-0.44c0.62,0,1.16,0.15,1.62,0.44c0.47,0.29,0.83,0.7,1.08,1.22
					c0.25,0.52,0.38,1.11,0.38,1.76v0.25h-5.28l0.01-0.28c0,0.49,0.1,0.93,0.3,1.32c0.19,0.39,0.46,0.69,0.8,0.91
					c0.34,0.22,0.72,0.33,1.15,0.33c0.28,0,0.55-0.03,0.79-0.1s0.46-0.17,0.64-0.31c0.18-0.13,0.32-0.29,0.42-0.47h1.02
					c-0.08,0.27-0.24,0.54-0.48,0.82s-0.58,0.5-1,0.68c-0.42,0.18-0.9,0.27-1.46,0.27C302.8,185.61,302.25,185.46,301.76,185.17z
					 M301.21,181.6h4.26v0.58c0-0.5-0.08-0.94-0.24-1.32c-0.16-0.38-0.39-0.67-0.7-0.88s-0.68-0.31-1.11-0.31
					c-0.43,0-0.82,0.1-1.15,0.3c-0.33,0.2-0.59,0.49-0.77,0.86c-0.18,0.37-0.27,0.8-0.27,1.3L301.21,181.6z"/>
			</g>
		</g>
		<g>
			<g>
				<g>
					
						<radialGradient id="SVGID_00000143588630815903265200000000118671994340706183_" cx="160.6622" cy="232.8478" r="192.6241" gradientTransform="matrix(1 0 0 0.2768 0 168.4032)" gradientUnits="userSpaceOnUse">
						<stop  offset="0" style="stop-color:#EB4857"/>
						<stop  offset="0.5" style="stop-color:#C611E0"/>
						<stop  offset="1" style="stop-color:#7F52FF"/>
					</radialGradient>
					<path style="fill:url(#SVGID_00000143588630815903265200000000118671994340706183_);" d="M341.08,207.99l-171.95,0
						c-6.78,0-12.28,5.5-12.28,12.28v0c0,6.78,5.5,12.28,12.28,12.28l171.95,0c6.78,0,12.28-5.5,12.28-12.28v0
						C353.36,213.49,347.86,207.99,341.08,207.99z"/>
				</g>
			</g>
			<g>
				<path class="st0" d="M202.19,224.42c-0.53-0.3-0.95-0.72-1.24-1.26s-0.44-1.16-0.44-1.85v-5.53h1.06v5.53
					c0,0.51,0.1,0.96,0.31,1.35c0.2,0.39,0.49,0.7,0.86,0.92c0.37,0.22,0.8,0.33,1.29,0.33c0.48,0,0.9-0.11,1.26-0.33
					c0.36-0.22,0.65-0.52,0.85-0.92c0.2-0.39,0.3-0.84,0.3-1.35v-5.53h1.06v5.53c0,0.69-0.15,1.31-0.44,1.85
					c-0.29,0.54-0.7,0.96-1.23,1.26s-1.13,0.45-1.8,0.45C203.34,224.87,202.73,224.72,202.19,224.42z"/>
				<path class="st0" d="M209.85,218.18h0.98v2.83h-0.34c0-0.61,0.09-1.14,0.28-1.59c0.19-0.45,0.46-0.79,0.82-1.03
					s0.78-0.36,1.28-0.36c0.46,0,0.87,0.1,1.22,0.32c0.35,0.21,0.62,0.51,0.81,0.9c0.19,0.39,0.29,0.84,0.29,1.35v4.12h-1.02v-4.08
					c0-0.36-0.06-0.67-0.18-0.93c-0.12-0.26-0.3-0.46-0.53-0.6c-0.23-0.14-0.51-0.21-0.83-0.21c-0.35,0-0.66,0.08-0.93,0.24
					s-0.47,0.38-0.61,0.68s-0.21,0.64-0.21,1.03v3.87h-1.02V218.18z M218.3,219.71c-0.12-0.26-0.3-0.46-0.53-0.6
					c-0.23-0.14-0.51-0.21-0.84-0.21c-0.35,0-0.65,0.08-0.92,0.24c-0.26,0.16-0.47,0.39-0.61,0.68c-0.14,0.29-0.22,0.63-0.22,1.03
					l-0.57,0.17c0-0.59,0.1-1.11,0.31-1.56c0.2-0.45,0.5-0.8,0.88-1.05s0.82-0.37,1.33-0.37c0.46,0,0.88,0.1,1.23,0.32
					c0.36,0.21,0.64,0.51,0.84,0.9c0.2,0.39,0.3,0.84,0.3,1.35v4.12h-1.02v-4.08C218.48,220.28,218.42,219.97,218.3,219.71z"/>
				<path class="st0" d="M221.54,215.79h1.02v8.93h-1.02V215.79z M223.46,224.5c-0.43-0.25-0.76-0.6-1-1.05
					c-0.24-0.45-0.36-0.97-0.37-1.56h0.42v-0.88h-0.42c0.01-0.59,0.13-1.11,0.37-1.56c0.24-0.45,0.58-0.8,1-1.05
					s0.92-0.37,1.49-0.37c0.61,0,1.15,0.14,1.62,0.43c0.47,0.29,0.84,0.69,1.11,1.21c0.27,0.52,0.4,1.11,0.4,1.78
					c0,0.67-0.13,1.26-0.4,1.78s-0.64,0.92-1.11,1.21c-0.47,0.29-1.02,0.43-1.62,0.43C224.38,224.87,223.89,224.75,223.46,224.5z
					 M225.94,223.63c0.34-0.21,0.6-0.5,0.78-0.88c0.19-0.38,0.28-0.81,0.28-1.3c0-0.49-0.09-0.92-0.28-1.3
					c-0.19-0.38-0.45-0.67-0.78-0.88c-0.34-0.21-0.72-0.32-1.16-0.32c-0.44,0-0.83,0.11-1.17,0.32s-0.6,0.5-0.79,0.88
					s-0.28,0.81-0.28,1.3c0,0.49,0.09,0.92,0.28,1.3s0.45,0.67,0.79,0.88c0.34,0.21,0.73,0.32,1.17,0.32
					C225.22,223.95,225.61,223.84,225.94,223.63z"/>
				<path class="st0" d="M229.76,218.18h1.02v2.19l-0.43,0.64c0.02-0.59,0.12-1.1,0.32-1.53s0.47-0.77,0.83-1s0.76-0.35,1.23-0.35
					h0.23v1.07h-0.27c-0.39,0-0.73,0.07-1.01,0.22c-0.29,0.15-0.51,0.36-0.67,0.63s-0.23,0.6-0.23,0.97v3.71h-1.02V218.18z"/>
				<path class="st0" d="M235.32,224.43c-0.49-0.29-0.87-0.7-1.15-1.22s-0.41-1.11-0.41-1.77c0-0.64,0.14-1.22,0.42-1.74
					c0.28-0.52,0.66-0.93,1.15-1.22c0.49-0.3,1.04-0.44,1.64-0.44c0.62,0,1.16,0.15,1.62,0.44c0.47,0.29,0.83,0.7,1.08,1.22
					c0.25,0.52,0.38,1.11,0.38,1.76v0.25h-5.28l0.01-0.28c0,0.49,0.1,0.93,0.3,1.32s0.46,0.69,0.8,0.91
					c0.34,0.22,0.72,0.33,1.15,0.33c0.29,0,0.55-0.04,0.79-0.11c0.25-0.07,0.46-0.17,0.64-0.31c0.18-0.13,0.32-0.29,0.42-0.47h1.02
					c-0.08,0.27-0.24,0.54-0.48,0.82s-0.58,0.5-1,0.68c-0.42,0.18-0.9,0.27-1.46,0.27C236.36,224.87,235.81,224.72,235.32,224.43z
					 M234.78,220.86h4.26v0.58c0-0.5-0.08-0.94-0.24-1.32c-0.16-0.38-0.39-0.67-0.7-0.88c-0.31-0.21-0.68-0.31-1.11-0.31
					c-0.43,0-0.82,0.1-1.15,0.3c-0.33,0.2-0.59,0.49-0.77,0.86c-0.18,0.37-0.27,0.81-0.27,1.3L234.78,220.86z"/>
				<path class="st0" d="M241.73,215.79h1.02v8.93h-1.02V215.79z"/>
				<path class="st0" d="M244.99,215.79h1.02v8.93h-1.02V215.79z"/>
				<path class="st0" d="M251.84,218.3c0.38,0.18,0.67,0.44,0.87,0.79c0.21,0.35,0.31,0.76,0.31,1.23v4.39h-1v-2.44h0.27
					c0,0.54-0.09,1.01-0.28,1.4s-0.46,0.69-0.8,0.89c-0.35,0.2-0.76,0.31-1.24,0.31c-0.42,0-0.79-0.08-1.13-0.24
					s-0.6-0.38-0.79-0.67c-0.19-0.28-0.29-0.61-0.29-0.97c0-0.34,0.09-0.65,0.26-0.94c0.18-0.29,0.42-0.52,0.73-0.71
					s0.66-0.3,1.06-0.34l1.74-0.19c0.14-0.02,0.26-0.08,0.34-0.18c0.08-0.1,0.12-0.25,0.12-0.45l0.08,1.34l-2.14,0.24
					c-0.22,0.03-0.42,0.09-0.59,0.2c-0.17,0.11-0.31,0.24-0.4,0.41c-0.1,0.17-0.14,0.36-0.14,0.56c0,0.22,0.06,0.42,0.18,0.59
					c0.12,0.17,0.28,0.3,0.49,0.4c0.21,0.1,0.45,0.14,0.71,0.14c0.37,0,0.69-0.07,0.96-0.22c0.28-0.15,0.49-0.36,0.63-0.63
					c0.15-0.27,0.22-0.58,0.22-0.93v-2.08c0-0.26-0.06-0.49-0.18-0.69c-0.12-0.2-0.3-0.35-0.52-0.46s-0.48-0.16-0.77-0.16
					c-0.29,0-0.56,0.05-0.79,0.15c-0.23,0.1-0.42,0.23-0.56,0.4c-0.14,0.17-0.23,0.35-0.26,0.55h-1.02c0.05-0.37,0.2-0.7,0.44-1
					s0.55-0.53,0.94-0.7s0.81-0.25,1.27-0.25C251.04,218.03,251.47,218.12,251.84,218.3z"/>
				<path class="st0" d="M258.23,218.18h0.98v2.83h-0.34c0-0.61,0.09-1.14,0.28-1.59c0.19-0.45,0.46-0.79,0.82-1.03
					s0.78-0.36,1.28-0.36c0.46,0,0.87,0.1,1.22,0.32c0.35,0.21,0.62,0.51,0.81,0.9c0.19,0.39,0.29,0.84,0.29,1.35v4.12h-1.02v-4.08
					c0-0.36-0.06-0.67-0.18-0.93c-0.12-0.26-0.3-0.46-0.53-0.6c-0.23-0.14-0.51-0.21-0.83-0.21c-0.35,0-0.66,0.08-0.93,0.24
					s-0.47,0.38-0.61,0.68s-0.21,0.64-0.21,1.03v3.87h-1.02V218.18z M266.67,219.71c-0.12-0.26-0.3-0.46-0.53-0.6
					c-0.23-0.14-0.51-0.21-0.84-0.21c-0.35,0-0.65,0.08-0.92,0.24c-0.27,0.16-0.47,0.39-0.61,0.68c-0.14,0.29-0.22,0.63-0.22,1.03
					l-0.57,0.17c0-0.59,0.1-1.11,0.31-1.56c0.2-0.45,0.5-0.8,0.88-1.05s0.82-0.37,1.33-0.37c0.46,0,0.88,0.1,1.23,0.32
					c0.36,0.21,0.64,0.51,0.84,0.9c0.2,0.39,0.3,0.84,0.3,1.35v4.12h-1.02v-4.08C266.85,220.28,266.79,219.97,266.67,219.71z"/>
				<path class="st0" d="M271,224.43c-0.51-0.3-0.91-0.7-1.2-1.23s-0.44-1.1-0.44-1.75s0.15-1.23,0.44-1.75
					c0.29-0.52,0.69-0.93,1.2-1.22c0.51-0.3,1.08-0.44,1.7-0.44s1.18,0.15,1.69,0.44c0.51,0.3,0.91,0.7,1.2,1.22s0.44,1.1,0.44,1.75
					s-0.15,1.24-0.44,1.75c-0.29,0.52-0.69,0.93-1.2,1.22c-0.51,0.3-1.07,0.44-1.7,0.44C272.07,224.87,271.5,224.72,271,224.43z
					 M273.85,223.63c0.34-0.21,0.61-0.5,0.8-0.88c0.2-0.38,0.29-0.81,0.29-1.3c0-0.49-0.1-0.92-0.29-1.3
					c-0.2-0.38-0.46-0.67-0.81-0.88c-0.34-0.21-0.73-0.31-1.15-0.31c-0.43,0-0.81,0.1-1.16,0.31c-0.34,0.21-0.62,0.5-0.81,0.88
					c-0.2,0.38-0.3,0.81-0.3,1.3c0,0.49,0.1,0.92,0.3,1.3s0.47,0.67,0.82,0.88c0.35,0.21,0.73,0.31,1.16,0.31
					S273.51,223.84,273.85,223.63z"/>
				<path class="st0" d="M278.65,224.44c-0.47-0.29-0.85-0.69-1.11-1.21s-0.4-1.11-0.4-1.78c0-0.67,0.13-1.26,0.4-1.78
					c0.27-0.52,0.64-0.92,1.11-1.21s1.02-0.43,1.62-0.43c0.56,0,1.06,0.12,1.49,0.37s0.77,0.6,1.01,1.05s0.36,0.97,0.37,1.56h-0.42
					v0.88h0.42c-0.01,0.59-0.13,1.11-0.37,1.56c-0.24,0.45-0.58,0.8-1.01,1.05c-0.43,0.25-0.92,0.37-1.49,0.37
					C279.67,224.87,279.13,224.73,278.65,224.44z M281.6,223.63c0.34-0.21,0.6-0.5,0.79-0.88s0.29-0.81,0.29-1.3
					c0-0.49-0.1-0.92-0.29-1.3s-0.45-0.67-0.79-0.88c-0.34-0.21-0.73-0.32-1.17-0.32c-0.43,0-0.82,0.11-1.15,0.32
					c-0.34,0.21-0.6,0.5-0.79,0.88s-0.28,0.81-0.28,1.3c0,0.49,0.09,0.92,0.28,1.3s0.45,0.67,0.79,0.88
					c0.34,0.21,0.72,0.32,1.15,0.32C280.87,223.95,281.26,223.84,281.6,223.63z M282.66,215.79h1.02v8.93h-1.02V215.79z"/>
				<path class="st0" d="M291.18,224.72h-0.98v-2.83h0.41c0,0.6-0.1,1.13-0.31,1.58s-0.51,0.79-0.89,1.04
					c-0.39,0.24-0.84,0.36-1.37,0.36c-0.47,0-0.88-0.1-1.24-0.3c-0.36-0.2-0.64-0.49-0.85-0.88c-0.21-0.39-0.31-0.86-0.31-1.4v-4.1
					h1.02v4c0,0.38,0.07,0.7,0.2,0.97c0.13,0.27,0.33,0.47,0.57,0.61c0.25,0.14,0.54,0.21,0.88,0.21c0.37,0,0.69-0.08,0.97-0.24
					s0.5-0.39,0.65-0.68c0.15-0.29,0.23-0.62,0.23-1v-3.87h1.02V224.72z"/>
				<path class="st0" d="M293.41,215.79h1.02v8.93h-1.02V215.79z"/>
				<path class="st0" d="M297.67,224.43c-0.49-0.29-0.87-0.7-1.15-1.22c-0.27-0.52-0.41-1.11-0.41-1.77c0-0.64,0.14-1.22,0.42-1.74
					c0.28-0.52,0.66-0.93,1.15-1.22c0.49-0.3,1.04-0.44,1.64-0.44c0.62,0,1.16,0.15,1.62,0.44c0.47,0.29,0.83,0.7,1.08,1.22
					c0.25,0.52,0.38,1.11,0.38,1.76v0.25h-5.28l0.01-0.28c0,0.49,0.1,0.93,0.3,1.32c0.19,0.39,0.46,0.69,0.8,0.91
					c0.34,0.22,0.72,0.33,1.15,0.33c0.28,0,0.55-0.04,0.79-0.11s0.46-0.17,0.64-0.31c0.18-0.13,0.32-0.29,0.42-0.47h1.02
					c-0.08,0.27-0.24,0.54-0.48,0.82s-0.58,0.5-1,0.68c-0.42,0.18-0.9,0.27-1.46,0.27C298.71,224.87,298.16,224.72,297.67,224.43z
					 M297.12,220.86h4.26v0.58c0-0.5-0.08-0.94-0.24-1.32c-0.16-0.38-0.39-0.67-0.7-0.88s-0.68-0.31-1.11-0.31
					c-0.43,0-0.82,0.1-1.15,0.3c-0.33,0.2-0.59,0.49-0.77,0.86c-0.18,0.37-0.27,0.81-0.27,1.3L297.12,220.86z"/>
				<path class="st0" d="M308.25,218.05h-2.16v-0.86h1.13c0.27,0,0.51-0.06,0.71-0.17c0.2-0.12,0.36-0.28,0.46-0.49
					c0.11-0.21,0.16-0.46,0.16-0.74h0.01h0.74v8.93h-1.06V218.05z"/>
			</g>
		</g>
		<g>
			<g>
				<g>
					
						<radialGradient id="SVGID_00000078754566782614895210000014041867233158793394_" cx="160.6622" cy="311.3702" r="192.6241" gradientTransform="matrix(1 0 0 0.2768 0 225.1932)" gradientUnits="userSpaceOnUse">
						<stop  offset="0" style="stop-color:#EB4857"/>
						<stop  offset="0.5" style="stop-color:#C611E0"/>
						<stop  offset="1" style="stop-color:#7F52FF"/>
					</radialGradient>
					<path style="fill:url(#SVGID_00000078754566782614895210000014041867233158793394_);" d="M341.08,286.51l-171.95,0
						c-6.78,0-12.28,5.5-12.28,12.28v0c0,6.78,5.5,12.28,12.28,12.28l171.95,0c6.78,0,12.28-5.5,12.28-12.28v0
						C353.36,292.01,347.86,286.51,341.08,286.51z"/>
				</g>
			</g>
			<g>
				<path class="st0" d="M199.84,302.94c-0.53-0.3-0.95-0.72-1.24-1.26c-0.3-0.54-0.44-1.16-0.44-1.85v-5.53h1.06v5.53
					c0,0.51,0.1,0.96,0.31,1.35c0.2,0.39,0.49,0.7,0.86,0.92s0.8,0.33,1.29,0.33c0.48,0,0.9-0.11,1.26-0.33
					c0.36-0.22,0.65-0.52,0.85-0.92c0.2-0.39,0.3-0.84,0.3-1.35v-5.53h1.06v5.53c0,0.69-0.15,1.31-0.44,1.85s-0.7,0.96-1.23,1.26
					s-1.13,0.45-1.8,0.45C200.99,303.39,200.37,303.24,199.84,302.94z"/>
				<path class="st0" d="M207.5,296.71h0.98v2.83h-0.34c0-0.61,0.09-1.14,0.28-1.59c0.19-0.45,0.46-0.79,0.82-1.03
					s0.78-0.36,1.28-0.36c0.46,0,0.87,0.1,1.22,0.32c0.35,0.21,0.62,0.51,0.81,0.9c0.19,0.39,0.29,0.84,0.29,1.35v4.12h-1.02v-4.08
					c0-0.36-0.06-0.67-0.18-0.93c-0.12-0.26-0.3-0.46-0.53-0.6c-0.23-0.14-0.51-0.21-0.83-0.21c-0.35,0-0.66,0.08-0.92,0.24
					s-0.47,0.38-0.61,0.68s-0.21,0.64-0.21,1.03v3.87h-1.02V296.71z M215.94,298.23c-0.12-0.26-0.3-0.46-0.53-0.6
					c-0.23-0.14-0.51-0.21-0.83-0.21c-0.35,0-0.66,0.08-0.92,0.24c-0.26,0.16-0.47,0.39-0.61,0.68c-0.15,0.29-0.22,0.63-0.22,1.03
					l-0.57,0.17c0-0.59,0.1-1.11,0.31-1.56c0.21-0.45,0.5-0.8,0.88-1.05c0.38-0.25,0.82-0.37,1.33-0.37c0.46,0,0.88,0.1,1.23,0.32
					c0.36,0.21,0.64,0.51,0.84,0.9c0.2,0.39,0.3,0.84,0.3,1.35v4.12h-1.02v-4.08C216.13,298.81,216.07,298.5,215.94,298.23z"/>
				<path class="st0" d="M219.19,294.31h1.02v8.93h-1.02V294.31z M221.11,303.02c-0.43-0.25-0.76-0.6-1-1.05
					c-0.24-0.45-0.37-0.97-0.37-1.56h0.42v-0.88h-0.42c0.01-0.59,0.13-1.11,0.37-1.56c0.24-0.45,0.57-0.8,1-1.05
					s0.93-0.37,1.49-0.37c0.61,0,1.15,0.14,1.62,0.43c0.47,0.29,0.84,0.69,1.11,1.21c0.27,0.52,0.4,1.11,0.4,1.78
					c0,0.67-0.13,1.26-0.4,1.78s-0.64,0.92-1.11,1.21c-0.47,0.29-1.02,0.43-1.62,0.43C222.03,303.39,221.54,303.27,221.11,303.02z
					 M223.59,302.15c0.34-0.21,0.6-0.5,0.79-0.88c0.19-0.38,0.28-0.81,0.28-1.3c0-0.49-0.09-0.92-0.28-1.3
					c-0.19-0.38-0.45-0.67-0.79-0.88s-0.72-0.32-1.15-0.32c-0.44,0-0.83,0.11-1.17,0.32c-0.34,0.21-0.61,0.5-0.79,0.88
					s-0.28,0.81-0.28,1.3c0,0.49,0.09,0.92,0.28,1.3s0.45,0.67,0.79,0.88c0.34,0.21,0.73,0.32,1.17,0.32
					C222.87,302.47,223.26,302.36,223.59,302.15z"/>
				<path class="st0" d="M227.41,296.71h1.02v2.19l-0.43,0.64c0.02-0.59,0.12-1.1,0.32-1.53c0.2-0.44,0.47-0.77,0.83-1
					c0.35-0.23,0.76-0.35,1.23-0.35h0.23v1.07h-0.27c-0.39,0-0.72,0.07-1.01,0.22c-0.29,0.15-0.51,0.36-0.67,0.63
					c-0.15,0.27-0.23,0.6-0.23,0.97v3.71h-1.02V296.71z"/>
				<path class="st0" d="M232.97,302.95c-0.49-0.29-0.87-0.7-1.14-1.22c-0.28-0.52-0.41-1.11-0.41-1.77c0-0.64,0.14-1.22,0.42-1.74
					c0.28-0.52,0.66-0.93,1.15-1.22c0.49-0.3,1.04-0.44,1.64-0.44c0.62,0,1.16,0.15,1.62,0.44s0.83,0.7,1.08,1.22
					s0.38,1.11,0.38,1.76v0.25h-5.28l0.01-0.28c0,0.49,0.1,0.93,0.3,1.32s0.46,0.69,0.8,0.91c0.34,0.22,0.72,0.33,1.15,0.33
					c0.29,0,0.55-0.04,0.79-0.11s0.46-0.17,0.64-0.31c0.18-0.13,0.32-0.29,0.42-0.47h1.02c-0.08,0.27-0.24,0.54-0.48,0.82
					s-0.58,0.5-1,0.68s-0.91,0.27-1.46,0.27C234.01,303.39,233.46,303.25,232.97,302.95z M232.43,299.38h4.26v0.58
					c0-0.5-0.08-0.94-0.24-1.32c-0.16-0.38-0.39-0.67-0.7-0.88c-0.31-0.21-0.68-0.31-1.11-0.31c-0.43,0-0.82,0.1-1.15,0.3
					c-0.33,0.2-0.59,0.49-0.77,0.86c-0.18,0.37-0.27,0.81-0.27,1.3L232.43,299.38z"/>
				<path class="st0" d="M239.38,294.31h1.02v8.93h-1.02V294.31z"/>
				<path class="st0" d="M242.64,294.31h1.02v8.93h-1.02V294.31z"/>
				<path class="st0" d="M249.49,296.82c0.37,0.18,0.67,0.44,0.87,0.79s0.31,0.76,0.31,1.23v4.39h-1v-2.44h0.27
					c0,0.54-0.09,1.01-0.28,1.4c-0.19,0.39-0.46,0.69-0.8,0.89c-0.35,0.2-0.76,0.31-1.24,0.31c-0.42,0-0.79-0.08-1.13-0.24
					s-0.6-0.38-0.79-0.67c-0.19-0.28-0.29-0.61-0.29-0.97c0-0.34,0.09-0.65,0.26-0.94s0.42-0.52,0.73-0.71s0.67-0.3,1.06-0.34
					l1.74-0.19c0.14-0.02,0.26-0.08,0.34-0.18c0.08-0.1,0.12-0.25,0.12-0.45l0.08,1.34l-2.14,0.24c-0.22,0.03-0.42,0.09-0.59,0.2
					c-0.17,0.11-0.31,0.24-0.4,0.41c-0.1,0.17-0.14,0.36-0.14,0.56c0,0.22,0.06,0.42,0.18,0.59c0.12,0.17,0.28,0.3,0.49,0.4
					c0.21,0.1,0.45,0.14,0.71,0.14c0.37,0,0.69-0.07,0.96-0.22s0.49-0.36,0.63-0.63s0.22-0.58,0.22-0.93v-2.08
					c0-0.26-0.06-0.49-0.19-0.69c-0.12-0.2-0.3-0.35-0.52-0.46c-0.22-0.11-0.48-0.16-0.78-0.16s-0.56,0.05-0.79,0.15
					c-0.23,0.1-0.42,0.23-0.56,0.4c-0.14,0.17-0.23,0.35-0.26,0.55h-1.02c0.05-0.37,0.2-0.7,0.44-1s0.55-0.53,0.93-0.7
					s0.81-0.25,1.27-0.25C248.69,296.55,249.12,296.64,249.49,296.82z"/>
				<path class="st0" d="M255.87,296.71h0.98v2.83h-0.34c0-0.61,0.09-1.14,0.28-1.59c0.19-0.45,0.46-0.79,0.82-1.03
					s0.78-0.36,1.28-0.36c0.46,0,0.87,0.1,1.22,0.32c0.35,0.21,0.62,0.51,0.81,0.9c0.19,0.39,0.29,0.84,0.29,1.35v4.12h-1.02v-4.08
					c0-0.36-0.06-0.67-0.18-0.93c-0.12-0.26-0.3-0.46-0.53-0.6c-0.23-0.14-0.51-0.21-0.83-0.21c-0.35,0-0.66,0.08-0.93,0.24
					s-0.47,0.38-0.61,0.68s-0.21,0.64-0.21,1.03v3.87h-1.02V296.71z M264.32,298.23c-0.12-0.26-0.3-0.46-0.53-0.6
					c-0.23-0.14-0.51-0.21-0.84-0.21c-0.35,0-0.65,0.08-0.92,0.24c-0.27,0.16-0.47,0.39-0.61,0.68c-0.14,0.29-0.22,0.63-0.22,1.03
					l-0.57,0.17c0-0.59,0.1-1.11,0.31-1.56c0.2-0.45,0.5-0.8,0.88-1.05s0.82-0.37,1.33-0.37c0.46,0,0.88,0.1,1.23,0.32
					c0.36,0.21,0.64,0.51,0.84,0.9c0.2,0.39,0.3,0.84,0.3,1.35v4.12h-1.02v-4.08C264.5,298.81,264.44,298.5,264.32,298.23z"/>
				<path class="st0" d="M268.64,302.95c-0.51-0.3-0.91-0.7-1.2-1.23s-0.44-1.1-0.44-1.75s0.15-1.23,0.44-1.75
					c0.29-0.52,0.69-0.93,1.2-1.22c0.51-0.3,1.08-0.44,1.7-0.44s1.18,0.15,1.69,0.44c0.51,0.3,0.91,0.7,1.2,1.22s0.44,1.1,0.44,1.75
					s-0.15,1.24-0.44,1.75c-0.29,0.52-0.69,0.93-1.2,1.22c-0.51,0.3-1.07,0.44-1.7,0.44C269.72,303.39,269.15,303.25,268.64,302.95z
					 M271.5,302.15c0.34-0.21,0.61-0.5,0.8-0.88c0.2-0.38,0.29-0.81,0.29-1.3c0-0.49-0.1-0.92-0.29-1.3
					c-0.2-0.38-0.46-0.67-0.81-0.88c-0.34-0.21-0.73-0.31-1.15-0.31c-0.43,0-0.81,0.1-1.16,0.31c-0.34,0.21-0.62,0.5-0.81,0.88
					c-0.2,0.38-0.3,0.81-0.3,1.3c0,0.49,0.1,0.92,0.3,1.3s0.47,0.67,0.82,0.88c0.35,0.21,0.73,0.31,1.16,0.31
					S271.16,302.36,271.5,302.15z"/>
				<path class="st0" d="M276.3,302.96c-0.47-0.29-0.85-0.69-1.11-1.21s-0.4-1.11-0.4-1.78c0-0.67,0.13-1.26,0.4-1.78
					c0.27-0.52,0.64-0.92,1.11-1.21s1.02-0.43,1.62-0.43c0.56,0,1.06,0.12,1.49,0.37s0.77,0.6,1.01,1.05s0.36,0.97,0.37,1.56h-0.42
					v0.88h0.42c-0.01,0.59-0.13,1.11-0.37,1.56c-0.24,0.45-0.58,0.8-1.01,1.05c-0.43,0.25-0.92,0.37-1.49,0.37
					C277.32,303.39,276.77,303.25,276.3,302.96z M279.25,302.15c0.34-0.21,0.6-0.5,0.79-0.88s0.29-0.81,0.29-1.3
					c0-0.49-0.1-0.92-0.29-1.3s-0.45-0.67-0.79-0.88c-0.34-0.21-0.73-0.32-1.17-0.32c-0.43,0-0.82,0.11-1.15,0.32
					c-0.34,0.21-0.6,0.5-0.79,0.88s-0.28,0.81-0.28,1.3c0,0.49,0.09,0.92,0.28,1.3s0.45,0.67,0.79,0.88
					c0.34,0.21,0.72,0.32,1.15,0.32C278.52,302.47,278.91,302.36,279.25,302.15z M280.31,294.31h1.02v8.93h-1.02V294.31z"/>
				<path class="st0" d="M288.83,303.24h-0.98v-2.83h0.41c0,0.6-0.1,1.13-0.31,1.58s-0.51,0.79-0.89,1.04
					c-0.39,0.24-0.84,0.36-1.37,0.36c-0.47,0-0.88-0.1-1.24-0.3c-0.36-0.2-0.64-0.49-0.85-0.88c-0.21-0.39-0.31-0.86-0.31-1.4v-4.1
					h1.02v4c0,0.38,0.07,0.7,0.2,0.97c0.13,0.27,0.33,0.47,0.57,0.61c0.25,0.14,0.54,0.21,0.88,0.21c0.37,0,0.69-0.08,0.97-0.24
					s0.5-0.39,0.65-0.68c0.15-0.29,0.23-0.62,0.23-1v-3.87h1.02V303.24z"/>
				<path class="st0" d="M291.06,294.31h1.02v8.93h-1.02V294.31z"/>
				<path class="st0" d="M295.32,302.95c-0.49-0.29-0.87-0.7-1.15-1.22c-0.27-0.52-0.41-1.11-0.41-1.77c0-0.64,0.14-1.22,0.42-1.74
					c0.28-0.52,0.66-0.93,1.15-1.22c0.49-0.3,1.04-0.44,1.64-0.44c0.62,0,1.16,0.15,1.62,0.44c0.47,0.29,0.83,0.7,1.08,1.22
					c0.25,0.52,0.38,1.11,0.38,1.76v0.25h-5.28l0.01-0.28c0,0.49,0.1,0.93,0.3,1.32c0.19,0.39,0.46,0.69,0.8,0.91
					c0.34,0.22,0.72,0.33,1.15,0.33c0.28,0,0.55-0.04,0.79-0.11s0.46-0.17,0.64-0.31c0.18-0.13,0.32-0.29,0.42-0.47h1.02
					c-0.08,0.27-0.24,0.54-0.48,0.82s-0.58,0.5-1,0.68c-0.42,0.18-0.9,0.27-1.46,0.27C296.35,303.39,295.8,303.25,295.32,302.95z
					 M294.77,299.38h4.26v0.58c0-0.5-0.08-0.94-0.24-1.32c-0.16-0.38-0.39-0.67-0.7-0.88s-0.68-0.31-1.11-0.31
					c-0.43,0-0.82,0.1-1.15,0.3c-0.33,0.2-0.59,0.49-0.77,0.86c-0.18,0.37-0.27,0.81-0.27,1.3L294.77,299.38z"/>
				<path class="st0" d="M304.95,294.31h1.12l4.8,7.25v-7.25h1.06v8.93h-1.13l-4.79-7.25v7.25h-1.06V294.31z"/>
			</g>
		</g>
		<g>
			<g>
				<g>
					
						<radialGradient id="SVGID_00000041974622010131279730000002382911192458525826_" cx="160.6622" cy="272.109" r="192.6241" gradientTransform="matrix(1 0 0 0.2768 0 196.7982)" gradientUnits="userSpaceOnUse">
						<stop  offset="0" style="stop-color:#EB4857"/>
						<stop  offset="0.5" style="stop-color:#C611E0"/>
						<stop  offset="1" style="stop-color:#7F52FF"/>
					</radialGradient>
					<path style="fill:url(#SVGID_00000041974622010131279730000002382911192458525826_);" d="M341.08,247.25l-171.95,0
						c-6.78,0-12.28,5.5-12.28,12.28l0,0c0,6.78,5.5,12.28,12.28,12.28l171.95,0c6.78,0,12.28-5.5,12.28-12.28v0
						C353.36,252.75,347.86,247.25,341.08,247.25z"/>
				</g>
			</g>
			<g>
				<path class="st0" d="M200.92,263.68c-0.53-0.3-0.95-0.72-1.24-1.26s-0.44-1.16-0.44-1.85v-5.53h1.06v5.53
					c0,0.51,0.1,0.96,0.31,1.35s0.49,0.7,0.86,0.92c0.37,0.22,0.8,0.33,1.29,0.33c0.48,0,0.9-0.11,1.26-0.33s0.65-0.52,0.85-0.92
					c0.2-0.39,0.3-0.84,0.3-1.35v-5.53h1.06v5.53c0,0.69-0.15,1.31-0.44,1.85c-0.29,0.54-0.7,0.96-1.23,1.26
					c-0.53,0.3-1.13,0.45-1.8,0.45C202.07,264.13,201.46,263.98,200.92,263.68z"/>
				<path class="st0" d="M208.58,257.45h0.98v2.83h-0.34c0-0.61,0.09-1.14,0.28-1.59s0.46-0.79,0.82-1.03
					c0.36-0.24,0.78-0.36,1.28-0.36c0.46,0,0.87,0.11,1.22,0.32c0.35,0.21,0.62,0.51,0.81,0.9s0.29,0.84,0.29,1.35v4.12h-1.02v-4.08
					c0-0.36-0.06-0.67-0.18-0.93c-0.12-0.26-0.3-0.46-0.53-0.6c-0.23-0.14-0.51-0.21-0.83-0.21c-0.35,0-0.66,0.08-0.93,0.24
					s-0.47,0.38-0.61,0.68s-0.21,0.64-0.21,1.03v3.87h-1.02V257.45z M217.03,258.97c-0.12-0.26-0.3-0.46-0.53-0.6
					c-0.23-0.14-0.51-0.21-0.84-0.21c-0.35,0-0.65,0.08-0.92,0.24c-0.26,0.16-0.47,0.38-0.61,0.68c-0.14,0.29-0.22,0.64-0.22,1.03
					l-0.57,0.17c0-0.59,0.1-1.11,0.31-1.56c0.2-0.45,0.5-0.8,0.88-1.05c0.38-0.25,0.82-0.37,1.33-0.37c0.46,0,0.88,0.11,1.23,0.32
					s0.64,0.51,0.84,0.9c0.2,0.39,0.3,0.84,0.3,1.35v4.12h-1.02v-4.08C217.21,259.54,217.15,259.24,217.03,258.97z"/>
				<path class="st0" d="M220.27,255.05h1.02v8.93h-1.02V255.05z M222.19,263.76c-0.43-0.25-0.76-0.6-1-1.05
					c-0.24-0.45-0.36-0.97-0.37-1.56h0.42v-0.88h-0.42c0.01-0.59,0.13-1.11,0.37-1.56c0.24-0.45,0.58-0.8,1-1.05
					c0.43-0.25,0.92-0.37,1.49-0.37c0.61,0,1.15,0.14,1.62,0.43c0.47,0.29,0.84,0.69,1.11,1.21c0.27,0.52,0.4,1.11,0.4,1.78
					s-0.13,1.26-0.4,1.78c-0.27,0.52-0.64,0.92-1.11,1.21c-0.47,0.29-1.02,0.43-1.62,0.43
					C223.12,264.13,222.62,264.01,222.19,263.76z M224.67,262.89c0.34-0.21,0.6-0.5,0.78-0.88c0.19-0.38,0.28-0.81,0.28-1.3
					s-0.09-0.92-0.28-1.3c-0.19-0.38-0.45-0.67-0.78-0.88c-0.34-0.21-0.72-0.32-1.16-0.32c-0.44,0-0.83,0.11-1.17,0.32
					s-0.6,0.5-0.79,0.88s-0.28,0.81-0.28,1.3s0.09,0.92,0.28,1.3s0.45,0.67,0.79,0.88c0.34,0.21,0.73,0.32,1.17,0.32
					C223.95,263.21,224.34,263.1,224.67,262.89z"/>
				<path class="st0" d="M228.49,257.45h1.02v2.19l-0.43,0.64c0.02-0.59,0.12-1.1,0.32-1.53s0.47-0.77,0.83-1s0.76-0.35,1.23-0.35
					h0.23v1.07h-0.27c-0.39,0-0.73,0.07-1.01,0.22c-0.29,0.15-0.51,0.36-0.67,0.63s-0.23,0.6-0.23,0.97v3.71h-1.02V257.45z"/>
				<path class="st0" d="M234.05,263.69c-0.49-0.29-0.87-0.7-1.15-1.22s-0.41-1.11-0.41-1.77c0-0.64,0.14-1.22,0.42-1.74
					c0.28-0.52,0.66-0.93,1.15-1.22c0.49-0.3,1.04-0.44,1.64-0.44c0.62,0,1.16,0.15,1.62,0.44c0.47,0.29,0.83,0.7,1.08,1.22
					c0.25,0.52,0.38,1.11,0.38,1.76v0.25h-5.28l0.01-0.28c0,0.49,0.1,0.93,0.3,1.32s0.46,0.69,0.8,0.91s0.72,0.33,1.15,0.33
					c0.29,0,0.55-0.03,0.79-0.1c0.25-0.07,0.46-0.17,0.64-0.31c0.18-0.13,0.32-0.29,0.42-0.47h1.02c-0.08,0.27-0.24,0.54-0.48,0.82
					s-0.58,0.5-1,0.68c-0.42,0.18-0.9,0.27-1.46,0.27C235.09,264.13,234.54,263.99,234.05,263.69z M233.51,260.12h4.26v0.58
					c0-0.5-0.08-0.94-0.24-1.32c-0.16-0.38-0.39-0.67-0.7-0.88c-0.31-0.21-0.68-0.31-1.11-0.31c-0.43,0-0.82,0.1-1.15,0.3
					c-0.33,0.2-0.59,0.49-0.77,0.86c-0.18,0.37-0.27,0.8-0.27,1.3L233.51,260.12z"/>
				<path class="st0" d="M240.46,255.05h1.02v8.93h-1.02V255.05z"/>
				<path class="st0" d="M243.72,255.05h1.02v8.93h-1.02V255.05z"/>
				<path class="st0" d="M250.58,257.56c0.38,0.18,0.67,0.44,0.87,0.79c0.21,0.35,0.31,0.76,0.31,1.23v4.39h-1v-2.44h0.27
					c0,0.54-0.09,1.01-0.28,1.4s-0.46,0.69-0.8,0.89c-0.35,0.2-0.76,0.31-1.24,0.31c-0.42,0-0.79-0.08-1.13-0.24
					s-0.6-0.38-0.79-0.67c-0.19-0.28-0.29-0.61-0.29-0.97c0-0.34,0.09-0.65,0.26-0.94c0.18-0.29,0.42-0.52,0.73-0.71
					c0.31-0.18,0.66-0.3,1.06-0.34l1.74-0.19c0.14-0.02,0.26-0.08,0.34-0.18c0.08-0.1,0.12-0.25,0.12-0.45l0.08,1.34l-2.14,0.24
					c-0.22,0.03-0.42,0.09-0.59,0.2c-0.17,0.11-0.31,0.25-0.4,0.42s-0.14,0.36-0.14,0.56c0,0.22,0.06,0.42,0.18,0.59
					s0.28,0.3,0.49,0.4c0.21,0.1,0.45,0.14,0.71,0.14c0.37,0,0.69-0.07,0.96-0.22c0.28-0.15,0.49-0.36,0.63-0.63
					c0.15-0.27,0.22-0.58,0.22-0.93v-2.08c0-0.26-0.06-0.49-0.18-0.69c-0.12-0.2-0.3-0.35-0.52-0.46c-0.22-0.11-0.48-0.16-0.77-0.16
					c-0.29,0-0.56,0.05-0.79,0.15c-0.23,0.1-0.42,0.23-0.56,0.4s-0.23,0.35-0.26,0.55h-1.02c0.05-0.37,0.2-0.7,0.44-1
					s0.55-0.53,0.94-0.7c0.38-0.17,0.81-0.26,1.27-0.26C249.77,257.29,250.2,257.38,250.58,257.56z"/>
				<path class="st0" d="M256.96,257.45h0.98v2.83h-0.34c0-0.61,0.09-1.14,0.28-1.59s0.46-0.79,0.82-1.03
					c0.36-0.24,0.78-0.36,1.28-0.36c0.46,0,0.87,0.11,1.22,0.32s0.62,0.51,0.81,0.9s0.29,0.84,0.29,1.35v4.12h-1.02v-4.08
					c0-0.36-0.06-0.67-0.18-0.93c-0.12-0.26-0.3-0.46-0.53-0.6c-0.23-0.14-0.51-0.21-0.83-0.21c-0.35,0-0.66,0.08-0.93,0.24
					s-0.47,0.38-0.61,0.68s-0.21,0.64-0.21,1.03v3.87h-1.02V257.45z M265.4,258.97c-0.12-0.26-0.3-0.46-0.53-0.6
					c-0.23-0.14-0.51-0.21-0.84-0.21c-0.35,0-0.65,0.08-0.92,0.24c-0.27,0.16-0.47,0.38-0.61,0.68c-0.14,0.29-0.22,0.64-0.22,1.03
					l-0.57,0.17c0-0.59,0.1-1.11,0.31-1.56c0.2-0.45,0.5-0.8,0.88-1.05c0.38-0.25,0.82-0.37,1.33-0.37c0.46,0,0.88,0.11,1.23,0.32
					s0.64,0.51,0.84,0.9c0.2,0.39,0.3,0.84,0.3,1.35v4.12h-1.02v-4.08C265.58,259.54,265.52,259.24,265.4,258.97z"/>
				<path class="st0" d="M269.73,263.69c-0.51-0.3-0.91-0.7-1.2-1.23s-0.44-1.1-0.44-1.75s0.15-1.23,0.44-1.75s0.69-0.93,1.2-1.23
					c0.51-0.3,1.08-0.44,1.7-0.44s1.18,0.15,1.69,0.44c0.51,0.3,0.91,0.7,1.2,1.22s0.44,1.1,0.44,1.75s-0.15,1.24-0.44,1.75
					c-0.29,0.52-0.69,0.93-1.2,1.22c-0.51,0.3-1.07,0.44-1.7,0.44C270.8,264.13,270.23,263.98,269.73,263.69z M272.58,262.89
					c0.34-0.21,0.61-0.5,0.8-0.88c0.2-0.38,0.29-0.81,0.29-1.3s-0.1-0.92-0.29-1.3c-0.2-0.38-0.46-0.67-0.81-0.88
					c-0.34-0.21-0.73-0.31-1.15-0.31c-0.43,0-0.81,0.1-1.16,0.31c-0.34,0.21-0.62,0.5-0.81,0.88c-0.2,0.38-0.3,0.81-0.3,1.3
					s0.1,0.92,0.3,1.3s0.47,0.67,0.82,0.88c0.35,0.21,0.73,0.31,1.16,0.31S272.24,263.1,272.58,262.89z"/>
				<path class="st0" d="M277.38,263.7c-0.47-0.29-0.85-0.69-1.11-1.21c-0.27-0.52-0.4-1.11-0.4-1.78s0.13-1.26,0.4-1.78
					c0.27-0.52,0.64-0.92,1.11-1.21s1.02-0.43,1.62-0.43c0.56,0,1.06,0.12,1.49,0.37c0.43,0.25,0.77,0.6,1.01,1.05
					s0.36,0.97,0.37,1.56h-0.42v0.88h0.42c-0.01,0.59-0.13,1.11-0.37,1.56c-0.24,0.45-0.58,0.8-1.01,1.05
					c-0.43,0.25-0.92,0.37-1.49,0.37C278.4,264.13,277.86,263.99,277.38,263.7z M280.33,262.89c0.34-0.21,0.6-0.5,0.79-0.88
					s0.29-0.81,0.29-1.3s-0.1-0.92-0.29-1.3s-0.45-0.67-0.79-0.88c-0.34-0.21-0.73-0.32-1.17-0.32c-0.43,0-0.82,0.11-1.15,0.32
					c-0.34,0.21-0.6,0.5-0.79,0.88s-0.28,0.81-0.28,1.3s0.09,0.92,0.28,1.3s0.45,0.67,0.79,0.88c0.34,0.21,0.72,0.32,1.15,0.32
					C279.6,263.21,279.99,263.1,280.33,262.89z M281.39,255.05h1.02v8.93h-1.02V255.05z"/>
				<path class="st0" d="M289.91,263.98h-0.98v-2.83h0.41c0,0.6-0.1,1.13-0.31,1.58s-0.51,0.79-0.89,1.04
					c-0.39,0.24-0.84,0.36-1.37,0.36c-0.47,0-0.88-0.1-1.24-0.3c-0.36-0.2-0.64-0.49-0.85-0.88c-0.21-0.39-0.31-0.86-0.31-1.4v-4.1
					h1.02v4c0,0.38,0.07,0.7,0.2,0.97c0.13,0.27,0.33,0.47,0.57,0.61c0.25,0.14,0.54,0.21,0.88,0.21c0.37,0,0.69-0.08,0.97-0.24
					s0.5-0.39,0.65-0.68c0.15-0.29,0.23-0.62,0.23-1v-3.87h1.02V263.98z"/>
				<path class="st0" d="M292.14,255.05h1.02v8.93h-1.02V255.05z"/>
				<path class="st0" d="M296.4,263.69c-0.49-0.29-0.87-0.7-1.15-1.22c-0.27-0.52-0.41-1.11-0.41-1.77c0-0.64,0.14-1.22,0.42-1.74
					c0.28-0.52,0.66-0.93,1.15-1.22c0.49-0.3,1.04-0.44,1.64-0.44c0.62,0,1.16,0.15,1.62,0.44c0.47,0.29,0.83,0.7,1.08,1.22
					c0.25,0.52,0.38,1.11,0.38,1.76v0.25h-5.28l0.01-0.28c0,0.49,0.1,0.93,0.3,1.32c0.19,0.39,0.46,0.69,0.8,0.91
					c0.34,0.22,0.72,0.33,1.15,0.33c0.28,0,0.55-0.03,0.79-0.1s0.46-0.17,0.64-0.31c0.18-0.13,0.32-0.29,0.42-0.47h1.02
					c-0.08,0.27-0.24,0.54-0.48,0.82s-0.58,0.5-1,0.68c-0.42,0.18-0.9,0.27-1.46,0.27C297.44,264.13,296.89,263.99,296.4,263.69z
					 M295.85,260.12h4.26v0.58c0-0.5-0.08-0.94-0.24-1.32c-0.16-0.38-0.39-0.67-0.7-0.88s-0.68-0.31-1.11-0.31
					c-0.43,0-0.82,0.1-1.15,0.3c-0.33,0.2-0.59,0.49-0.77,0.86c-0.18,0.37-0.27,0.8-0.27,1.3L295.85,260.12z"/>
				<path class="st0" d="M305.44,263.06l3.67-3.43c0.38-0.35,0.65-0.68,0.81-1c0.17-0.32,0.25-0.66,0.25-1.02
					c0-0.34-0.08-0.65-0.24-0.91c-0.16-0.26-0.38-0.47-0.66-0.62c-0.28-0.15-0.61-0.22-0.97-0.22c-0.39,0-0.74,0.08-1.05,0.25
					c-0.31,0.17-0.55,0.4-0.72,0.7c-0.17,0.3-0.26,0.64-0.26,1.02h-1.07c0-0.55,0.14-1.05,0.41-1.5c0.27-0.45,0.65-0.8,1.12-1.05
					c0.48-0.25,1.01-0.38,1.59-0.38c0.55,0,1.05,0.11,1.5,0.34c0.45,0.23,0.8,0.55,1.06,0.95c0.26,0.4,0.39,0.85,0.39,1.35
					c0,0.48-0.13,0.95-0.38,1.4c-0.25,0.45-0.65,0.94-1.21,1.46l-2.76,2.6h4.61v0.99h-6.09V263.06z"/>
			</g>
		</g>
	</g>
</g>
</svg>
