<svg width="696" height="449" viewBox="0 0 696 449" fill="none" xmlns="http://www.w3.org/2000/svg">
<g clip-path="url(#clip0_2002_16)">
<rect width="696" height="449" fill="white"/>
<g clip-path="url(#clip1_2002_16)">
<path d="M696 -9H-22V453H696V-9Z" fill="white"/>
<path d="M382.765 125.326H285.133C278.393 125.326 272.929 130.793 272.929 137.537V153.819C272.929 160.564 278.393 166.031 285.133 166.031H382.765C389.505 166.031 394.969 160.564 394.969 153.819V137.537C394.969 130.793 389.505 125.326 382.765 125.326Z" fill="url(#paint0_radial_2002_16)"/>
<path d="M197.671 224.035H100.04C93.2996 224.035 87.8357 229.503 87.8357 236.247V252.529C87.8357 259.273 93.2996 264.74 100.04 264.74H197.671C204.411 264.74 209.875 259.273 209.875 252.529V236.247C209.875 229.503 204.411 224.035 197.671 224.035Z" fill="#F2F2F2"/>
<path d="M307.507 320.709H209.875C203.135 320.709 197.671 326.176 197.671 332.921V349.203C197.671 355.947 203.135 361.414 209.875 361.414H307.507C314.247 361.414 319.711 355.947 319.711 349.203V332.921C319.711 326.176 314.247 320.709 307.507 320.709Z" fill="#F2F2F2"/>
<path d="M529.212 223.018H431.581C424.841 223.018 419.377 228.485 419.377 235.229V251.511C419.377 258.255 424.841 263.722 431.581 263.722H529.212C535.953 263.722 541.416 258.255 541.416 251.511V235.229C541.416 228.485 535.953 223.018 529.212 223.018Z" fill="#F2F2F2"/>
<path d="M475.312 320.709H377.68C370.94 320.709 365.476 326.176 365.476 332.921V349.203C365.476 355.947 370.94 361.414 377.68 361.414H475.312C482.052 361.414 487.516 355.947 487.516 349.203V332.921C487.516 326.176 482.052 320.709 475.312 320.709Z" fill="#F2F2F2"/>
<path d="M674.643 223.018H577.011C570.271 223.018 564.807 228.485 564.807 235.229V251.511C564.807 258.255 570.271 263.722 577.011 263.722H674.643C681.383 263.722 686.847 258.255 686.847 251.511V235.229C686.847 228.485 681.383 223.018 674.643 223.018Z" fill="#F2F2F2"/>
<path d="M642.099 320.709H544.467C537.727 320.709 532.263 326.176 532.263 332.921V349.203C532.263 355.947 537.727 361.414 544.467 361.414H642.099C648.839 361.414 654.303 355.947 654.303 349.203V332.921C654.303 326.176 648.839 320.709 642.099 320.709Z" fill="#F2F2F2"/>
<path d="M320.575 143.35C321.043 143.35 321.452 143.452 321.802 143.655C322.152 143.855 322.42 144.14 322.607 144.51C322.799 144.881 322.894 145.312 322.894 145.805V149.749H321.918V145.878C321.918 145.345 321.78 144.929 321.503 144.632C321.23 144.331 320.85 144.18 320.362 144.18C320.012 144.18 319.705 144.256 319.441 144.406C319.176 144.553 318.971 144.765 318.824 145.041C318.682 145.318 318.611 145.644 318.611 146.018V149.749H317.634V143.497H318.574V144.455C318.773 144.089 319.042 143.814 319.38 143.631C319.717 143.444 320.116 143.35 320.575 143.35ZM327.212 143.35C327.684 143.35 328.097 143.438 328.451 143.613C328.809 143.784 329.086 144.034 329.281 144.364C329.476 144.693 329.574 145.09 329.574 145.554V149.749H328.622V148.821C328.431 149.171 328.156 149.437 327.798 149.621C327.444 149.804 327.019 149.895 326.523 149.895C326.112 149.895 325.746 149.82 325.425 149.67C325.107 149.515 324.859 149.301 324.68 149.028C324.505 148.756 324.418 148.444 324.418 148.094C324.418 147.769 324.499 147.469 324.662 147.197C324.829 146.92 325.058 146.694 325.351 146.519C325.644 146.344 325.976 146.238 326.346 146.201L328.17 146.018C328.305 146.006 328.41 145.949 328.488 145.847C328.569 145.746 328.61 145.599 328.61 145.408C328.61 145.159 328.549 144.942 328.427 144.754C328.309 144.567 328.142 144.423 327.926 144.321C327.715 144.219 327.469 144.168 327.188 144.168C326.911 144.168 326.659 144.215 326.431 144.309C326.204 144.402 326.018 144.531 325.876 144.693C325.734 144.856 325.65 145.035 325.626 145.231H324.674C324.711 144.885 324.845 144.569 325.077 144.284C325.309 143.995 325.612 143.767 325.986 143.6C326.36 143.434 326.769 143.35 327.212 143.35ZM326.706 149.132C327.076 149.132 327.406 149.061 327.694 148.919C327.983 148.772 328.207 148.568 328.366 148.308C328.528 148.043 328.61 147.744 328.61 147.41V146.702L326.48 146.922C326.155 146.954 325.892 147.075 325.693 147.282C325.494 147.49 325.394 147.742 325.394 148.039C325.394 148.251 325.449 148.44 325.559 148.607C325.669 148.77 325.823 148.898 326.023 148.992C326.222 149.085 326.45 149.132 326.706 149.132ZM333.209 149.749C332.757 149.749 332.399 149.629 332.135 149.389C331.874 149.148 331.744 148.817 331.744 148.393L331.738 144.364H330.64L330.646 143.497H331.323C331.478 143.497 331.602 143.448 331.695 143.35C331.793 143.252 331.842 143.128 331.842 142.978V141.934H332.72V143.497H334.228L334.222 144.364H332.714L332.72 148.332C332.72 148.503 332.769 148.638 332.867 148.735C332.969 148.833 333.103 148.882 333.27 148.882H334.222V149.749H333.209ZM336.844 149.749H335.868V143.497H336.844V149.749ZM335.801 142.361V141.201H336.912V142.361H335.801ZM341.628 149.749H340.591L338.156 143.497H339.218L341.146 148.607L343.038 143.497H344.063L341.628 149.749ZM350.769 146.861H345.814C345.851 147.288 345.963 147.667 346.15 147.997C346.337 148.326 346.583 148.583 346.888 148.766C347.193 148.949 347.539 149.041 347.926 149.041C348.186 149.041 348.436 149 348.676 148.919C348.916 148.837 349.126 148.723 349.305 148.577C349.484 148.43 349.612 148.263 349.689 148.076H350.629C350.56 148.418 350.391 148.727 350.122 149.004C349.858 149.281 349.526 149.499 349.128 149.657C348.733 149.816 348.312 149.895 347.865 149.895C347.275 149.895 346.746 149.755 346.278 149.474C345.814 149.193 345.452 148.805 345.192 148.308C344.932 147.807 344.801 147.241 344.801 146.611C344.801 145.996 344.934 145.44 345.198 144.944C345.462 144.447 345.827 144.058 346.29 143.777C346.758 143.493 347.283 143.35 347.865 143.35C348.418 143.35 348.914 143.493 349.353 143.777C349.797 144.058 350.143 144.449 350.391 144.95C350.643 145.446 350.769 146.004 350.769 146.623V146.861ZM347.877 144.211C347.328 144.211 346.872 144.376 346.51 144.706C346.148 145.035 345.924 145.485 345.839 146.055H349.75C349.665 145.489 349.455 145.041 349.122 144.712C348.792 144.378 348.377 144.211 347.877 144.211Z" fill="white"/>
<path d="M385.816 223.018H288.184C281.444 223.018 275.98 228.485 275.98 235.229V251.511C275.98 258.255 281.444 263.722 288.184 263.722H385.816C392.556 263.722 398.02 258.255 398.02 251.511V235.229C398.02 228.485 392.556 223.018 385.816 223.018Z" fill="url(#paint1_radial_2002_16)"/>
<path d="M140.72 323.762H43.0878C36.3478 323.762 30.8839 329.229 30.8839 335.974V352.255C30.8839 359 36.3478 364.467 43.0878 364.467H140.72C147.46 364.467 152.924 359 152.924 352.255V335.974C152.924 329.229 147.46 323.762 140.72 323.762Z" fill="url(#paint2_radial_2002_16)"/>
<path d="M324.251 240.024C324.723 240.024 325.136 240.112 325.49 240.287C325.848 240.458 326.124 240.708 326.32 241.038C326.515 241.367 326.612 241.764 326.612 242.228V246.423H325.661V245.495C325.469 245.845 325.195 246.111 324.837 246.295C324.483 246.478 324.058 246.569 323.561 246.569C323.151 246.569 322.784 246.494 322.463 246.344C322.146 246.189 321.898 245.975 321.719 245.702C321.544 245.43 321.456 245.118 321.456 244.768C321.456 244.443 321.538 244.143 321.7 243.871C321.867 243.594 322.097 243.368 322.39 243.193C322.683 243.018 323.014 242.912 323.384 242.875L325.209 242.692C325.343 242.68 325.449 242.623 325.526 242.521C325.608 242.42 325.648 242.273 325.648 242.082C325.648 241.833 325.587 241.616 325.465 241.428C325.347 241.241 325.18 241.097 324.965 240.995C324.753 240.893 324.507 240.842 324.227 240.842C323.95 240.842 323.698 240.889 323.47 240.983C323.242 241.076 323.057 241.205 322.915 241.367C322.772 241.53 322.689 241.709 322.664 241.905H321.713C321.749 241.559 321.883 241.243 322.115 240.958C322.347 240.669 322.65 240.441 323.024 240.274C323.399 240.108 323.808 240.024 324.251 240.024ZM323.744 245.806C324.115 245.806 324.444 245.735 324.733 245.593C325.022 245.446 325.246 245.242 325.404 244.982C325.567 244.717 325.648 244.418 325.648 244.084V243.376L323.519 243.596C323.193 243.629 322.931 243.749 322.732 243.956C322.532 244.164 322.433 244.416 322.433 244.713C322.433 244.925 322.487 245.114 322.597 245.281C322.707 245.444 322.862 245.572 323.061 245.666C323.26 245.759 323.488 245.806 323.744 245.806ZM331.73 240.024C332.295 240.024 332.808 240.167 333.268 240.451C333.727 240.736 334.087 241.129 334.348 241.63C334.608 242.126 334.738 242.682 334.738 243.297C334.738 243.911 334.608 244.469 334.348 244.97C334.087 245.466 333.727 245.857 333.268 246.142C332.808 246.427 332.295 246.569 331.73 246.569C331.254 246.569 330.825 246.466 330.442 246.258C330.06 246.05 329.749 245.755 329.509 245.373V245.77L329.533 248.389H328.569V240.171H329.509V241.227C329.749 240.84 330.06 240.543 330.442 240.335C330.825 240.128 331.254 240.024 331.73 240.024ZM331.638 245.69C332.033 245.69 332.387 245.586 332.7 245.379C333.017 245.171 333.266 244.886 333.445 244.524C333.624 244.158 333.713 243.749 333.713 243.297C333.713 242.845 333.624 242.438 333.445 242.076C333.266 241.709 333.017 241.422 332.7 241.215C332.387 241.007 332.033 240.903 331.638 240.903C331.24 240.903 330.88 241.007 330.558 241.215C330.241 241.422 329.993 241.709 329.814 242.076C329.635 242.438 329.545 242.845 329.545 243.297C329.545 243.749 329.635 244.158 329.814 244.524C329.993 244.886 330.241 245.171 330.558 245.379C330.88 245.586 331.24 245.69 331.638 245.69ZM339.489 240.024C340.054 240.024 340.567 240.167 341.026 240.451C341.486 240.736 341.846 241.129 342.106 241.63C342.367 242.126 342.497 242.682 342.497 243.297C342.497 243.911 342.367 244.469 342.106 244.97C341.846 245.466 341.486 245.857 341.026 246.142C340.567 246.427 340.054 246.569 339.489 246.569C339.013 246.569 338.583 246.466 338.201 246.258C337.819 246.05 337.508 245.755 337.267 245.373V245.77L337.292 248.389H336.328V240.171H337.267V241.227C337.508 240.84 337.819 240.543 338.201 240.335C338.583 240.128 339.013 240.024 339.489 240.024ZM339.397 245.69C339.792 245.69 340.146 245.586 340.459 245.379C340.776 245.171 341.024 244.886 341.203 244.524C341.382 244.158 341.472 243.749 341.472 243.297C341.472 242.845 341.382 242.438 341.203 242.076C341.024 241.709 340.776 241.422 340.459 241.215C340.146 241.007 339.792 240.903 339.397 240.903C338.998 240.903 338.638 241.007 338.317 241.215C338 241.422 337.752 241.709 337.573 242.076C337.394 242.438 337.304 242.845 337.304 243.297C337.304 243.749 337.394 244.158 337.573 244.524C337.752 244.886 338 245.171 338.317 245.379C338.638 245.586 338.998 245.69 339.397 245.69ZM345.063 246.423H344.086V237.875H345.063V246.423ZM352.622 243.535H347.667C347.704 243.962 347.816 244.341 348.003 244.671C348.19 245 348.436 245.257 348.741 245.44C349.046 245.623 349.392 245.715 349.779 245.715C350.039 245.715 350.289 245.674 350.529 245.593C350.769 245.511 350.979 245.397 351.158 245.251C351.337 245.104 351.465 244.937 351.542 244.75H352.482C352.413 245.092 352.244 245.401 351.975 245.678C351.711 245.955 351.379 246.173 350.981 246.331C350.586 246.49 350.165 246.569 349.718 246.569C349.128 246.569 348.599 246.429 348.131 246.148C347.667 245.867 347.305 245.479 347.045 244.982C346.785 244.481 346.654 243.915 346.654 243.285C346.654 242.67 346.787 242.114 347.051 241.618C347.315 241.121 347.68 240.732 348.143 240.451C348.611 240.167 349.136 240.024 349.718 240.024C350.271 240.024 350.767 240.167 351.206 240.451C351.65 240.732 351.996 241.123 352.244 241.624C352.496 242.12 352.622 242.678 352.622 243.297V243.535ZM349.73 240.885C349.181 240.885 348.725 241.05 348.363 241.38C348.001 241.709 347.777 242.159 347.692 242.729H351.603C351.518 242.163 351.308 241.715 350.975 241.386C350.645 241.052 350.23 240.885 349.73 240.885Z" fill="white"/>
<path d="M85.6522 349.203H84.6759V342.95H85.6522V349.203ZM84.6088 341.815V340.655H85.7193V341.815H84.6088ZM90.3812 349.349C89.7873 349.349 89.2524 349.209 88.7764 348.928C88.3005 348.643 87.9262 348.252 87.6536 347.756C87.3811 347.259 87.2448 346.699 87.2448 346.077C87.2448 345.454 87.3811 344.894 87.6536 344.397C87.9262 343.901 88.3025 343.512 88.7825 343.231C89.2625 342.946 89.7995 342.804 90.3934 342.804C90.9874 342.804 91.5243 342.946 92.0044 343.231C92.4844 343.512 92.8607 343.901 93.1332 344.397C93.4058 344.894 93.5421 345.454 93.5421 346.077C93.5421 346.699 93.4038 347.259 93.1271 347.756C92.8546 348.252 92.4783 348.643 91.9983 348.928C91.5182 349.209 90.9792 349.349 90.3812 349.349ZM90.3934 348.446C90.8002 348.446 91.1643 348.348 91.4857 348.152C91.8071 347.953 92.0593 347.674 92.2423 347.316C92.4254 346.958 92.5169 346.545 92.5169 346.077C92.5169 345.608 92.4254 345.195 92.2423 344.837C92.0593 344.475 91.8071 344.196 91.4857 344.001C91.1643 343.801 90.8002 343.701 90.3934 343.701C89.9866 343.701 89.6226 343.801 89.3012 344.001C88.9798 344.196 88.7276 344.475 88.5445 344.837C88.3615 345.195 88.27 345.608 88.27 346.077C88.27 346.545 88.3615 346.958 88.5445 347.316C88.7276 347.674 88.9798 347.953 89.3012 348.152C89.6226 348.348 89.9866 348.446 90.3934 348.446ZM97.2083 349.349C96.6998 349.349 96.2503 349.27 95.8598 349.111C95.4733 348.948 95.1723 348.724 94.9567 348.439C94.7452 348.155 94.6374 347.831 94.6333 347.469H95.6096C95.6178 347.68 95.6889 347.868 95.8232 348.03C95.9574 348.193 96.1405 348.321 96.3724 348.415C96.6083 348.505 96.8768 348.549 97.1778 348.549C97.6416 348.549 98.0016 348.452 98.2579 348.256C98.5142 348.061 98.6423 347.794 98.6423 347.456C98.6423 347.196 98.563 346.984 98.4043 346.821C98.2497 346.655 98.0199 346.547 97.7148 346.498L96.5798 346.321C96.0347 346.235 95.6096 346.038 95.3045 345.729C94.9994 345.415 94.8469 345.026 94.8469 344.562C94.8469 344.22 94.9425 343.917 95.1337 343.653C95.3289 343.384 95.5974 343.176 95.9391 343.03C96.2849 342.879 96.6754 342.804 97.1107 342.804C97.5582 342.804 97.9589 342.879 98.3128 343.03C98.6708 343.18 98.9515 343.39 99.1549 343.659C99.3623 343.923 99.4701 344.224 99.4783 344.562H98.502C98.4979 344.383 98.4328 344.22 98.3067 344.074C98.1847 343.927 98.0179 343.813 97.8063 343.732C97.5948 343.646 97.3589 343.604 97.0985 343.604C96.8463 343.604 96.6185 343.644 96.4151 343.726C96.2157 343.803 96.0591 343.913 95.9452 344.056C95.8354 344.194 95.7805 344.355 95.7805 344.538C95.7805 344.782 95.8537 344.98 96.0001 345.13C96.1466 345.277 96.3622 345.372 96.647 345.417L97.8185 345.606C98.3881 345.696 98.8233 345.899 99.1244 346.217C99.4295 346.534 99.582 346.939 99.582 347.432C99.582 347.815 99.4844 348.15 99.2891 348.439C99.0939 348.728 98.8172 348.952 98.4592 349.111C98.1013 349.27 97.6843 349.349 97.2083 349.349Z" fill="white"/>
<path d="M20.7139 137.537C20.7139 130.794 26.1778 125.326 32.9178 125.326H69.5297C76.2698 125.326 81.7337 130.794 81.7337 137.537V153.819C81.7337 160.563 76.2698 166.031 69.5297 166.031H32.9178C26.1778 166.031 20.7139 160.563 20.7139 153.819V137.537Z" fill="#F2F2F2"/>
<path d="M195.637 125.326H159.025C152.285 125.326 146.822 130.793 146.822 137.537V153.819C146.822 160.564 152.285 166.031 159.025 166.031H195.637C202.377 166.031 207.841 160.564 207.841 153.819V137.537C207.841 130.793 202.377 125.326 195.637 125.326Z" fill="#F2F2F2"/>
<path d="M569.892 125.326H472.261C465.521 125.326 460.057 130.793 460.057 137.537V153.819C460.057 160.564 465.521 166.031 472.261 166.031H569.892C576.632 166.031 582.096 160.564 582.096 153.819V137.537C582.096 130.793 576.632 125.326 569.892 125.326Z" fill="url(#paint3_radial_2002_16)"/>
<path d="M166.639 150.685V149.757H167.542C167.709 149.757 167.841 149.706 167.938 149.604C168.04 149.503 168.091 149.368 168.091 149.201V142.479H169.067V149.281C169.067 149.562 169.006 149.808 168.884 150.02C168.766 150.231 168.595 150.394 168.372 150.508C168.152 150.626 167.896 150.685 167.603 150.685H166.639ZM168.024 141.343V140.183H169.134V141.343H168.024ZM173.778 148.731H172.741L170.306 142.479H171.368L173.296 147.59L175.188 142.479H176.213L173.778 148.731ZM184.485 142.333C184.941 142.333 185.339 142.436 185.681 142.644C186.027 142.847 186.291 143.134 186.474 143.505C186.661 143.875 186.755 144.303 186.755 144.787V148.731H185.779V144.83C185.779 144.301 185.653 143.892 185.4 143.602C185.152 143.309 184.798 143.163 184.339 143.163C183.989 143.163 183.686 143.246 183.429 143.413C183.173 143.576 182.976 143.81 182.837 144.115C182.699 144.421 182.63 144.777 182.63 145.184V148.731H181.654V144.83C181.654 144.305 181.524 143.896 181.263 143.602C181.003 143.309 180.641 143.163 180.177 143.163C179.827 143.163 179.526 143.246 179.274 143.413C179.026 143.576 178.835 143.81 178.7 144.115C178.57 144.421 178.505 144.777 178.505 145.184V148.731H177.529V142.479H178.468V143.401C178.664 143.059 178.92 142.797 179.237 142.613C179.559 142.426 179.931 142.333 180.354 142.333C180.81 142.333 181.214 142.442 181.568 142.662C181.922 142.882 182.191 143.185 182.374 143.572C182.585 143.181 182.872 142.878 183.234 142.662C183.6 142.442 184.017 142.333 184.485 142.333Z" fill="black"/>
<path d="M484.408 143.35C484.88 143.35 485.292 143.438 485.646 143.613C486.004 143.784 486.281 144.034 486.476 144.364C486.671 144.693 486.769 145.09 486.769 145.554V149.749H485.817V148.821C485.626 149.171 485.351 149.437 484.993 149.621C484.64 149.804 484.214 149.895 483.718 149.895C483.307 149.895 482.941 149.82 482.62 149.67C482.302 149.515 482.054 149.301 481.875 149.028C481.7 148.756 481.613 148.444 481.613 148.094C481.613 147.769 481.694 147.469 481.857 147.197C482.024 146.92 482.254 146.694 482.547 146.519C482.839 146.344 483.171 146.238 483.541 146.201L485.366 146.018C485.5 146.006 485.606 145.949 485.683 145.847C485.764 145.746 485.805 145.599 485.805 145.408C485.805 145.159 485.744 144.942 485.622 144.754C485.504 144.567 485.337 144.423 485.122 144.321C484.91 144.219 484.664 144.168 484.383 144.168C484.107 144.168 483.854 144.215 483.627 144.309C483.399 144.402 483.214 144.531 483.071 144.693C482.929 144.856 482.846 145.035 482.821 145.231H481.869C481.906 144.885 482.04 144.569 482.272 144.284C482.504 143.995 482.807 143.767 483.181 143.6C483.555 143.434 483.964 143.35 484.408 143.35ZM483.901 149.132C484.271 149.132 484.601 149.061 484.89 148.919C485.179 148.772 485.402 148.568 485.561 148.308C485.724 148.043 485.805 147.744 485.805 147.41V146.702L483.675 146.922C483.35 146.954 483.088 147.075 482.888 147.282C482.689 147.49 482.589 147.742 482.589 148.039C482.589 148.251 482.644 148.44 482.754 148.607C482.864 148.77 483.018 148.898 483.218 148.992C483.417 149.085 483.645 149.132 483.901 149.132ZM491.667 143.35C492.135 143.35 492.544 143.452 492.893 143.655C493.243 143.855 493.512 144.14 493.699 144.51C493.89 144.881 493.986 145.312 493.986 145.805V149.749H493.009V145.878C493.009 145.345 492.871 144.929 492.594 144.632C492.322 144.331 491.942 144.18 491.453 144.18C491.104 144.18 490.796 144.256 490.532 144.406C490.268 144.553 490.062 144.765 489.916 145.041C489.773 145.318 489.702 145.644 489.702 146.018V149.749H488.726V143.497H489.666V144.455C489.865 144.089 490.133 143.814 490.471 143.631C490.809 143.444 491.207 143.35 491.667 143.35ZM501.593 143.497H501.599V149.749H500.659V148.699C500.419 149.081 500.108 149.376 499.726 149.584C499.343 149.792 498.914 149.895 498.438 149.895C497.873 149.895 497.36 149.753 496.9 149.468C496.441 149.183 496.081 148.792 495.82 148.296C495.56 147.795 495.43 147.237 495.43 146.623C495.43 146.008 495.56 145.452 495.82 144.956C496.081 144.455 496.441 144.062 496.9 143.777C497.36 143.493 497.873 143.35 498.438 143.35C498.914 143.35 499.341 143.454 499.72 143.661C500.102 143.869 500.413 144.164 500.653 144.547L500.617 141.201H501.593V143.497ZM498.53 149.016C498.928 149.016 499.286 148.912 499.604 148.705C499.925 148.497 500.175 148.212 500.354 147.85C500.533 147.484 500.623 147.075 500.623 146.623C500.623 146.171 500.533 145.764 500.354 145.402C500.175 145.035 499.925 144.748 499.604 144.541C499.286 144.333 498.928 144.229 498.53 144.229C498.135 144.229 497.779 144.333 497.462 144.541C497.149 144.748 496.902 145.035 496.723 145.402C496.544 145.764 496.455 146.171 496.455 146.623C496.455 147.075 496.544 147.484 496.723 147.85C496.902 148.212 497.149 148.497 497.462 148.705C497.779 148.912 498.135 149.016 498.53 149.016ZM506.68 143.436V144.455H506.454C505.885 144.455 505.437 144.626 505.112 144.968C504.786 145.31 504.624 145.79 504.624 146.409V149.749H503.647V143.497H504.624V144.754C504.798 144.331 505.043 144.005 505.356 143.777C505.673 143.55 506.051 143.436 506.491 143.436H506.68ZM510.603 149.895C510.01 149.895 509.475 149.755 508.999 149.474C508.523 149.189 508.148 148.798 507.876 148.302C507.603 147.805 507.467 147.246 507.467 146.623C507.467 146 507.603 145.44 507.876 144.944C508.148 144.447 508.525 144.058 509.005 143.777C509.485 143.493 510.022 143.35 510.616 143.35C511.21 143.35 511.747 143.493 512.227 143.777C512.707 144.058 513.083 144.447 513.355 144.944C513.628 145.44 513.764 146 513.764 146.623C513.764 147.246 513.626 147.805 513.349 148.302C513.077 148.798 512.7 149.189 512.22 149.474C511.74 149.755 511.201 149.895 510.603 149.895ZM510.616 148.992C511.022 148.992 511.387 148.894 511.708 148.699C512.029 148.499 512.281 148.22 512.465 147.862C512.648 147.504 512.739 147.091 512.739 146.623C512.739 146.155 512.648 145.741 512.465 145.383C512.281 145.021 512.029 144.742 511.708 144.547C511.387 144.347 511.022 144.248 510.616 144.248C510.209 144.248 509.845 144.347 509.523 144.547C509.202 144.742 508.95 145.021 508.767 145.383C508.584 145.741 508.492 146.155 508.492 146.623C508.492 147.091 508.584 147.504 508.767 147.862C508.95 148.22 509.202 148.499 509.523 148.699C509.845 148.894 510.209 148.992 510.616 148.992ZM516.339 149.749H515.363V143.497H516.339V149.749ZM515.296 142.361V141.201H516.406V142.361H515.296ZM524.094 143.497H524.1V149.749H523.16V148.699C522.92 149.081 522.609 149.376 522.227 149.584C521.844 149.792 521.415 149.895 520.939 149.895C520.374 149.895 519.861 149.753 519.402 149.468C518.942 149.183 518.582 148.792 518.321 148.296C518.061 147.795 517.931 147.237 517.931 146.623C517.931 146.008 518.061 145.452 518.321 144.956C518.582 144.455 518.942 144.062 519.402 143.777C519.861 143.493 520.374 143.35 520.939 143.35C521.415 143.35 521.842 143.454 522.221 143.661C522.603 143.869 522.914 144.164 523.154 144.547L523.118 141.201H524.094V143.497ZM521.031 149.016C521.429 149.016 521.787 148.912 522.105 148.705C522.426 148.497 522.676 148.212 522.855 147.85C523.034 147.484 523.124 147.075 523.124 146.623C523.124 146.171 523.034 145.764 522.855 145.402C522.676 145.035 522.426 144.748 522.105 144.541C521.787 144.333 521.429 144.229 521.031 144.229C520.636 144.229 520.28 144.333 519.963 144.541C519.65 144.748 519.404 145.035 519.225 145.402C519.046 145.764 518.956 146.171 518.956 146.623C518.956 147.075 519.046 147.484 519.225 147.85C519.404 148.212 519.65 148.497 519.963 148.705C520.28 148.912 520.636 149.016 521.031 149.016ZM528.284 142.147H525.489V141.201H532.079V142.147H529.297V149.773H528.284V142.147ZM534.749 143.35C535.221 143.35 535.634 143.438 535.988 143.613C536.346 143.784 536.622 144.034 536.818 144.364C537.013 144.693 537.11 145.09 537.11 145.554V149.749H536.159V148.821C535.967 149.171 535.693 149.437 535.335 149.621C534.981 149.804 534.556 149.895 534.059 149.895C533.649 149.895 533.282 149.82 532.961 149.67C532.644 149.515 532.396 149.301 532.217 149.028C532.042 148.756 531.954 148.444 531.954 148.094C531.954 147.769 532.036 147.469 532.198 147.197C532.365 146.92 532.595 146.694 532.888 146.519C533.181 146.344 533.512 146.238 533.882 146.201L535.707 146.018C535.841 146.006 535.947 145.949 536.024 145.847C536.106 145.746 536.146 145.599 536.146 145.408C536.146 145.159 536.085 144.942 535.963 144.754C535.845 144.567 535.679 144.423 535.463 144.321C535.251 144.219 535.005 144.168 534.725 144.168C534.448 144.168 534.196 144.215 533.968 144.309C533.74 144.402 533.555 144.531 533.413 144.693C533.27 144.856 533.187 145.035 533.162 145.231H532.211C532.247 144.885 532.381 144.569 532.613 144.284C532.845 143.995 533.148 143.767 533.522 143.6C533.897 143.434 534.306 143.35 534.749 143.35ZM534.243 149.132C534.613 149.132 534.942 149.061 535.231 148.919C535.52 148.772 535.744 148.568 535.902 148.308C536.065 148.043 536.146 147.744 536.146 147.41V146.702L534.017 146.922C533.691 146.954 533.429 147.075 533.23 147.282C533.03 147.49 532.931 147.742 532.931 148.039C532.931 148.251 532.986 148.44 533.095 148.607C533.205 148.77 533.36 148.898 533.559 148.992C533.758 149.085 533.986 149.132 534.243 149.132ZM542.1 143.436V144.455H541.874C541.305 144.455 540.857 144.626 540.532 144.968C540.206 145.31 540.044 145.79 540.044 146.409V149.749H539.067V143.497H540.044V144.754C540.218 144.331 540.462 144.005 540.776 143.777C541.093 143.55 541.471 143.436 541.911 143.436H542.1ZM547.831 143.497H548.776L548.764 149.254C548.764 149.796 548.648 150.26 548.416 150.646C548.189 151.037 547.859 151.334 547.428 151.538C547.001 151.745 546.496 151.849 545.915 151.849C545.382 151.849 544.906 151.76 544.487 151.581C544.072 151.406 543.74 151.159 543.492 150.842C543.244 150.524 543.098 150.158 543.053 149.743H544.029C544.082 149.987 544.194 150.205 544.365 150.396C544.536 150.591 544.753 150.742 545.018 150.848C545.286 150.958 545.585 151.013 545.915 151.013C546.496 151.013 546.952 150.858 547.281 150.549C547.615 150.243 547.782 149.812 547.782 149.254V148.821L547.8 148.18C547.564 148.513 547.263 148.772 546.897 148.955C546.535 149.134 546.13 149.224 545.683 149.224C545.154 149.224 544.68 149.1 544.261 148.851C543.846 148.603 543.521 148.257 543.285 147.813C543.053 147.37 542.937 146.865 542.937 146.299C542.937 145.733 543.053 145.229 543.285 144.785C543.521 144.341 543.846 143.995 544.261 143.747C544.68 143.499 545.154 143.374 545.683 143.374C546.138 143.374 546.551 143.47 546.921 143.661C547.292 143.849 547.595 144.115 547.831 144.461V143.497ZM545.86 148.369C546.234 148.369 546.568 148.284 546.86 148.113C547.153 147.942 547.381 147.699 547.544 147.386C547.711 147.073 547.794 146.71 547.794 146.299C547.794 145.888 547.711 145.526 547.544 145.212C547.381 144.899 547.153 144.657 546.86 144.486C546.568 144.315 546.234 144.229 545.86 144.229C545.49 144.229 545.16 144.317 544.871 144.492C544.582 144.663 544.359 144.905 544.2 145.218C544.041 145.528 543.962 145.888 543.962 146.299C543.962 146.71 544.041 147.073 544.2 147.386C544.359 147.695 544.582 147.938 544.871 148.113C545.16 148.284 545.49 148.369 545.86 148.369ZM556.28 146.861H551.325C551.362 147.288 551.474 147.667 551.661 147.997C551.848 148.326 552.094 148.583 552.399 148.766C552.704 148.949 553.05 149.041 553.436 149.041C553.697 149.041 553.947 149 554.187 148.919C554.427 148.837 554.636 148.723 554.815 148.577C554.994 148.43 555.122 148.263 555.2 148.076H556.139C556.07 148.418 555.902 148.727 555.633 149.004C555.369 149.281 555.037 149.499 554.638 149.657C554.244 149.816 553.823 149.895 553.375 149.895C552.785 149.895 552.257 149.755 551.789 149.474C551.325 149.193 550.963 148.805 550.703 148.308C550.442 147.807 550.312 147.241 550.312 146.611C550.312 145.996 550.444 145.44 550.709 144.944C550.973 144.447 551.337 144.058 551.801 143.777C552.269 143.493 552.794 143.35 553.375 143.35C553.929 143.35 554.425 143.493 554.864 143.777C555.308 144.058 555.653 144.449 555.902 144.95C556.154 145.446 556.28 146.004 556.28 146.623V146.861ZM553.388 144.211C552.838 144.211 552.383 144.376 552.021 144.706C551.659 145.035 551.435 145.485 551.349 146.055H555.261C555.175 145.489 554.966 145.041 554.632 144.712C554.303 144.378 553.888 144.211 553.388 144.211ZM559.551 149.749C559.1 149.749 558.742 149.629 558.478 149.389C558.217 149.148 558.087 148.817 558.087 148.393L558.081 144.364H556.983L556.989 143.497H557.666C557.821 143.497 557.945 143.448 558.038 143.35C558.136 143.252 558.185 143.128 558.185 142.978V141.934H559.063V143.497H560.571L560.564 144.364H559.057L559.063 148.332C559.063 148.503 559.112 148.638 559.21 148.735C559.311 148.833 559.446 148.882 559.613 148.882H560.564V149.749H559.551Z" fill="white"/>
<path d="M425.479 15.4229H249.538C242.798 15.4229 237.334 20.8902 237.334 27.6344V57.1454C237.334 63.8896 242.798 69.3568 249.538 69.3568H425.479C432.219 69.3568 437.683 63.8896 437.683 57.1454V27.6344C437.683 20.8902 432.219 15.4229 425.479 15.4229Z" fill="url(#paint4_radial_2002_16)"/>
<path d="M315.463 45.0805C314.873 45.0805 314.34 44.938 313.864 44.6531C313.388 44.3681 313.014 43.9774 312.742 43.4808C312.473 42.9801 312.339 42.4224 312.339 41.8078C312.339 41.1932 312.473 40.6375 312.742 40.1409C313.014 39.6403 313.388 39.2475 313.864 38.9625C314.34 38.6776 314.873 38.5351 315.463 38.5351C315.967 38.5351 316.431 38.6349 316.854 38.8343C317.277 39.0297 317.619 39.3024 317.879 39.6525C318.144 39.9985 318.296 40.3872 318.337 40.8187H317.361C317.312 40.55 317.196 40.3078 317.013 40.0921C316.834 39.8763 316.608 39.7074 316.336 39.5853C316.067 39.4632 315.776 39.4021 315.463 39.4021C315.064 39.4021 314.704 39.508 314.383 39.7196C314.066 39.9272 313.816 40.2142 313.632 40.5805C313.453 40.9469 313.364 41.356 313.364 41.8078C313.364 42.2596 313.453 42.6687 313.632 43.035C313.816 43.4014 314.066 43.6884 314.383 43.896C314.704 44.1035 315.064 44.2073 315.463 44.2073C315.776 44.2073 316.067 44.1483 316.336 44.0303C316.608 43.9122 316.834 43.7515 317.013 43.5479C317.196 43.3403 317.312 43.1103 317.361 42.858H318.337C318.3 43.2772 318.15 43.6558 317.886 43.9936C317.625 44.3315 317.283 44.5981 316.86 44.7935C316.437 44.9848 315.972 45.0805 315.463 45.0805ZM322.555 45.0805C321.961 45.0805 321.426 44.94 320.95 44.6592C320.474 44.3742 320.1 43.9835 319.827 43.4869C319.554 42.9903 319.418 42.4306 319.418 41.8078C319.418 41.185 319.554 40.6253 319.827 40.1287C320.1 39.6321 320.476 39.2434 320.956 38.9625C321.436 38.6776 321.973 38.5351 322.567 38.5351C323.161 38.5351 323.698 38.6776 324.178 38.9625C324.658 39.2434 325.034 39.6321 325.307 40.1287C325.579 40.6253 325.715 41.185 325.715 41.8078C325.715 42.4306 325.577 42.9903 325.3 43.4869C325.028 43.9835 324.652 44.3742 324.172 44.6592C323.692 44.94 323.153 45.0805 322.555 45.0805ZM322.567 44.1768C322.974 44.1768 323.338 44.0791 323.659 43.8837C323.98 43.6843 324.233 43.4055 324.416 43.0473C324.599 42.6891 324.69 42.2759 324.69 41.8078C324.69 41.3397 324.599 40.9265 324.416 40.5683C324.233 40.2061 323.98 39.9272 323.659 39.7318C323.338 39.5324 322.974 39.4327 322.567 39.4327C322.16 39.4327 321.796 39.5324 321.475 39.7318C321.153 39.9272 320.901 40.2061 320.718 40.5683C320.535 40.9265 320.443 41.3397 320.443 41.8078C320.443 42.2759 320.535 42.6891 320.718 43.0473C320.901 43.4055 321.153 43.6843 321.475 43.8837C321.796 44.0791 322.16 44.1768 322.567 44.1768ZM334.269 38.5351C334.725 38.5351 335.124 38.6389 335.465 38.8465C335.811 39.05 336.076 39.337 336.259 39.7074C336.446 40.0778 336.539 40.5052 336.539 40.9896V44.9339H335.563V41.0324C335.563 40.5032 335.437 40.0941 335.185 39.8051C334.937 39.512 334.583 39.3655 334.123 39.3655C333.773 39.3655 333.47 39.4489 333.214 39.6158C332.957 39.7787 332.76 40.0127 332.622 40.318C332.484 40.6233 332.414 40.9794 332.414 41.3865V44.9339H331.438V41.0324C331.438 40.5073 331.308 40.0982 331.048 39.8051C330.787 39.512 330.425 39.3655 329.961 39.3655C329.612 39.3655 329.31 39.4489 329.058 39.6158C328.81 39.7787 328.619 40.0127 328.485 40.318C328.355 40.6233 328.289 40.9794 328.289 41.3865V44.9339H327.313V38.6817H328.253V39.6036C328.448 39.2617 328.704 38.9992 329.022 38.816C329.343 38.6287 329.715 38.5351 330.138 38.5351C330.594 38.5351 330.999 38.645 331.353 38.8648C331.707 39.0846 331.975 39.3879 332.158 39.7746C332.37 39.3838 332.656 39.0806 333.018 38.8648C333.385 38.645 333.802 38.5351 334.269 38.5351ZM345.449 38.5351C345.905 38.5351 346.303 38.6389 346.645 38.8465C346.991 39.05 347.255 39.337 347.438 39.7074C347.626 40.0778 347.719 40.5052 347.719 40.9896V44.9339H346.743V41.0324C346.743 40.5032 346.617 40.0941 346.365 39.8051C346.116 39.512 345.762 39.3655 345.303 39.3655C344.953 39.3655 344.65 39.4489 344.394 39.6158C344.137 39.7787 343.94 40.0127 343.802 40.318C343.663 40.6233 343.594 40.9794 343.594 41.3865V44.9339H342.618V41.0324C342.618 40.5073 342.488 40.0982 342.227 39.8051C341.967 39.512 341.605 39.3655 341.141 39.3655C340.791 39.3655 340.49 39.4489 340.238 39.6158C339.99 39.7787 339.799 40.0127 339.665 40.318C339.534 40.6233 339.469 40.9794 339.469 41.3865V44.9339H338.493V38.6817H339.433V39.6036C339.628 39.2617 339.884 38.9992 340.202 38.816C340.523 38.6287 340.895 38.5351 341.318 38.5351C341.774 38.5351 342.179 38.645 342.532 38.8648C342.886 39.0846 343.155 39.3879 343.338 39.7746C343.549 39.3838 343.836 39.0806 344.198 38.8648C344.564 38.645 344.981 38.5351 345.449 38.5351ZM352.302 45.0805C351.708 45.0805 351.173 44.94 350.697 44.6592C350.221 44.3742 349.847 43.9835 349.574 43.4869C349.302 42.9903 349.165 42.4306 349.165 41.8078C349.165 41.185 349.302 40.6253 349.574 40.1287C349.847 39.6321 350.223 39.2434 350.703 38.9625C351.183 38.6776 351.72 38.5351 352.314 38.5351C352.908 38.5351 353.445 38.6776 353.925 38.9625C354.405 39.2434 354.781 39.6321 355.054 40.1287C355.326 40.6253 355.463 41.185 355.463 41.8078C355.463 42.4306 355.324 42.9903 355.048 43.4869C354.775 43.9835 354.399 44.3742 353.919 44.6592C353.439 44.94 352.9 45.0805 352.302 45.0805ZM352.314 44.1768C352.721 44.1768 353.085 44.0791 353.406 43.8837C353.728 43.6843 353.98 43.4055 354.163 43.0473C354.346 42.6891 354.437 42.2759 354.437 41.8078C354.437 41.3397 354.346 40.9265 354.163 40.5683C353.98 40.2061 353.728 39.9272 353.406 39.7318C353.085 39.5324 352.721 39.4327 352.314 39.4327C351.907 39.4327 351.543 39.5324 351.222 39.7318C350.9 39.9272 350.648 40.2061 350.465 40.5683C350.282 40.9265 350.19 41.3397 350.19 41.8078C350.19 42.2759 350.282 42.6891 350.465 43.0473C350.648 43.4055 350.9 43.6843 351.222 43.8837C351.543 44.0791 351.907 44.1768 352.314 44.1768ZM360.001 38.5351C360.469 38.5351 360.878 38.6369 361.228 38.8404C361.578 39.0399 361.846 39.3248 362.033 39.6952C362.225 40.0656 362.32 40.4971 362.32 40.9896V44.9339H361.344V41.0629C361.344 40.5297 361.206 40.1145 360.929 39.8173C360.656 39.5161 360.276 39.3655 359.788 39.3655C359.438 39.3655 359.131 39.4408 358.866 39.5914C358.602 39.738 358.397 39.9496 358.25 40.2264C358.108 40.5032 358.037 40.8288 358.037 41.2033V44.9339H357.06V38.6817H358V39.6403C358.199 39.2739 358.468 38.9992 358.805 38.816C359.143 38.6287 359.542 38.5351 360.001 38.5351Z" fill="white"/>
<path d="M140.72 320.048H42.0708C33.8423 320.048 27.1718 326.722 27.1718 334.956V409.242C27.1718 417.476 33.8423 424.15 42.0708 424.15H140.72C148.948 424.15 155.619 417.476 155.619 409.242V334.956C155.619 326.722 148.948 320.048 140.72 320.048Z" stroke="#595959" stroke-width="0.7"/>
<path d="M111.859 242.059C112.331 242.059 112.744 242.147 113.098 242.322C113.456 242.493 113.733 242.743 113.928 243.073C114.123 243.403 114.221 243.8 114.221 244.264V248.458H113.269V247.53C113.078 247.88 112.803 248.147 112.445 248.33C112.091 248.513 111.666 248.605 111.17 248.605C110.759 248.605 110.393 248.529 110.071 248.379C109.754 248.224 109.506 248.01 109.327 247.738C109.152 247.465 109.064 247.154 109.064 246.804C109.064 246.478 109.146 246.179 109.309 245.906C109.475 245.629 109.705 245.403 109.998 245.228C110.291 245.053 110.623 244.947 110.993 244.911L112.817 244.728C112.951 244.715 113.057 244.658 113.135 244.557C113.216 244.455 113.257 244.308 113.257 244.117C113.257 243.869 113.196 243.651 113.073 243.464C112.956 243.276 112.789 243.132 112.573 243.03C112.362 242.928 112.115 242.878 111.835 242.878C111.558 242.878 111.306 242.924 111.078 243.018C110.85 243.112 110.665 243.24 110.523 243.403C110.38 243.565 110.297 243.745 110.273 243.94H109.321C109.357 243.594 109.492 243.278 109.724 242.994C109.955 242.705 110.258 242.477 110.633 242.31C111.007 242.143 111.416 242.059 111.859 242.059ZM111.353 247.841C111.723 247.841 112.052 247.77 112.341 247.628C112.63 247.481 112.854 247.278 113.012 247.017C113.175 246.753 113.257 246.453 113.257 246.12V245.411L111.127 245.631C110.802 245.664 110.539 245.784 110.34 245.991C110.14 246.199 110.041 246.451 110.041 246.749C110.041 246.96 110.096 247.15 110.206 247.316C110.315 247.479 110.47 247.607 110.669 247.701C110.869 247.795 111.096 247.841 111.353 247.841ZM119.119 242.059C119.586 242.059 119.995 242.161 120.345 242.365C120.695 242.564 120.963 242.849 121.15 243.219C121.342 243.59 121.437 244.021 121.437 244.514V248.458H120.461V244.587C120.461 244.054 120.323 243.639 120.046 243.342C119.773 243.04 119.393 242.89 118.905 242.89C118.555 242.89 118.248 242.965 117.984 243.116C117.719 243.262 117.514 243.474 117.367 243.751C117.225 244.027 117.154 244.353 117.154 244.728V248.458H116.177V242.206H117.117V243.165C117.316 242.798 117.585 242.523 117.923 242.34C118.26 242.153 118.659 242.059 119.119 242.059ZM129.044 242.206H129.051V248.458H128.111V247.408C127.871 247.791 127.56 248.086 127.177 248.293C126.795 248.501 126.366 248.605 125.89 248.605C125.324 248.605 124.812 248.462 124.352 248.177C123.892 247.892 123.532 247.502 123.272 247.005C123.012 246.504 122.881 245.947 122.881 245.332C122.881 244.717 123.012 244.162 123.272 243.665C123.532 243.164 123.892 242.772 124.352 242.487C124.812 242.202 125.324 242.059 125.89 242.059C126.366 242.059 126.793 242.163 127.171 242.371C127.553 242.578 127.865 242.873 128.105 243.256L128.068 239.91H129.044V242.206ZM125.981 247.725C126.38 247.725 126.738 247.622 127.055 247.414C127.377 247.206 127.627 246.922 127.806 246.559C127.985 246.193 128.074 245.784 128.074 245.332C128.074 244.88 127.985 244.473 127.806 244.111C127.627 243.745 127.377 243.458 127.055 243.25C126.738 243.042 126.38 242.939 125.981 242.939C125.587 242.939 125.231 243.042 124.913 243.25C124.6 243.458 124.354 243.745 124.175 244.111C123.996 244.473 123.907 244.88 123.907 245.332C123.907 245.784 123.996 246.193 124.175 246.559C124.354 246.922 124.6 247.206 124.913 247.414C125.231 247.622 125.587 247.725 125.981 247.725ZM134.131 242.145V243.165H133.906C133.336 243.165 132.889 243.335 132.563 243.677C132.238 244.019 132.075 244.5 132.075 245.118V248.458H131.099V242.206H132.075V243.464C132.25 243.04 132.494 242.715 132.807 242.487C133.125 242.259 133.503 242.145 133.942 242.145H134.131ZM138.055 248.605C137.461 248.605 136.926 248.464 136.45 248.183C135.974 247.898 135.6 247.508 135.327 247.011C135.055 246.515 134.919 245.955 134.919 245.332C134.919 244.709 135.055 244.15 135.327 243.653C135.6 243.156 135.976 242.768 136.456 242.487C136.936 242.202 137.473 242.059 138.067 242.059C138.661 242.059 139.198 242.202 139.678 242.487C140.158 242.768 140.534 243.156 140.807 243.653C141.08 244.15 141.216 244.709 141.216 245.332C141.216 245.955 141.078 246.515 140.801 247.011C140.528 247.508 140.152 247.898 139.672 248.183C139.192 248.464 138.653 248.605 138.055 248.605ZM138.067 247.701C138.474 247.701 138.838 247.603 139.159 247.408C139.481 247.209 139.733 246.93 139.916 246.571C140.099 246.213 140.191 245.8 140.191 245.332C140.191 244.864 140.099 244.451 139.916 244.093C139.733 243.73 139.481 243.451 139.159 243.256C138.838 243.057 138.474 242.957 138.067 242.957C137.66 242.957 137.296 243.057 136.975 243.256C136.654 243.451 136.401 243.73 136.218 244.093C136.035 244.451 135.944 244.864 135.944 245.332C135.944 245.8 136.035 246.213 136.218 246.571C136.401 246.93 136.654 247.209 136.975 247.408C137.296 247.603 137.66 247.701 138.067 247.701ZM143.79 248.458H142.814V242.206H143.79V248.458ZM142.746 241.07V239.91H143.857V241.07H142.746ZM151.545 242.206H151.552V248.458H150.612V247.408C150.372 247.791 150.061 248.086 149.678 248.293C149.296 248.501 148.867 248.605 148.391 248.605C147.825 248.605 147.313 248.462 146.853 248.177C146.393 247.892 146.033 247.502 145.773 247.005C145.513 246.504 145.382 245.947 145.382 245.332C145.382 244.717 145.513 244.162 145.773 243.665C146.033 243.164 146.393 242.772 146.853 242.487C147.313 242.202 147.825 242.059 148.391 242.059C148.867 242.059 149.294 242.163 149.672 242.371C150.055 242.578 150.366 242.873 150.606 243.256L150.569 239.91H151.545V242.206ZM148.482 247.725C148.881 247.725 149.239 247.622 149.556 247.414C149.878 247.206 150.128 246.922 150.307 246.559C150.486 246.193 150.575 245.784 150.575 245.332C150.575 244.88 150.486 244.473 150.307 244.111C150.128 243.745 149.878 243.458 149.556 243.25C149.239 243.042 148.881 242.939 148.482 242.939C148.088 242.939 147.732 243.042 147.414 243.25C147.101 243.458 146.855 243.745 146.676 244.111C146.497 244.473 146.408 244.88 146.408 245.332C146.408 245.784 146.497 246.193 146.676 246.559C146.855 246.922 147.101 247.206 147.414 247.414C147.732 247.622 148.088 247.725 148.482 247.725ZM153.844 239.91H154.918L159.446 246.846V239.91H160.458V248.458H159.372L154.857 241.522V248.458H153.844V239.91ZM165.168 242.059C165.64 242.059 166.053 242.147 166.407 242.322C166.765 242.493 167.041 242.743 167.237 243.073C167.432 243.403 167.53 243.8 167.53 244.264V248.458H166.578V247.53C166.387 247.88 166.112 248.147 165.754 248.33C165.4 248.513 164.975 248.605 164.479 248.605C164.068 248.605 163.702 248.529 163.38 248.379C163.063 248.224 162.815 248.01 162.636 247.738C162.461 247.465 162.373 247.154 162.373 246.804C162.373 246.478 162.455 246.179 162.618 245.906C162.784 245.629 163.014 245.403 163.307 245.228C163.6 245.053 163.931 244.947 164.302 244.911L166.126 244.728C166.26 244.715 166.366 244.658 166.443 244.557C166.525 244.455 166.566 244.308 166.566 244.117C166.566 243.869 166.504 243.651 166.382 243.464C166.264 243.276 166.098 243.132 165.882 243.03C165.671 242.928 165.424 242.878 165.144 242.878C164.867 242.878 164.615 242.924 164.387 243.018C164.159 243.112 163.974 243.24 163.832 243.403C163.689 243.565 163.606 243.745 163.582 243.94H162.63C162.666 243.594 162.801 243.278 163.032 242.994C163.264 242.705 163.567 242.477 163.942 242.31C164.316 242.143 164.725 242.059 165.168 242.059ZM164.662 247.841C165.032 247.841 165.361 247.77 165.65 247.628C165.939 247.481 166.163 247.278 166.321 247.017C166.484 246.753 166.566 246.453 166.566 246.12V245.411L164.436 245.631C164.11 245.664 163.848 245.784 163.649 245.991C163.449 246.199 163.35 246.451 163.35 246.749C163.35 246.96 163.405 247.15 163.515 247.316C163.624 247.479 163.779 247.607 163.978 247.701C164.178 247.795 164.405 247.841 164.662 247.841ZM171.164 248.458C170.713 248.458 170.355 248.338 170.09 248.098C169.83 247.858 169.7 247.526 169.7 247.103L169.694 243.073H168.595L168.602 242.206H169.279C169.433 242.206 169.558 242.157 169.651 242.059C169.749 241.962 169.798 241.838 169.798 241.687V240.643H170.676V242.206H172.183L172.177 243.073H170.67L170.676 247.042C170.676 247.213 170.725 247.347 170.823 247.445C170.924 247.542 171.059 247.591 171.225 247.591H172.177V248.458H171.164ZM174.801 248.458H173.825V242.206H174.801V248.458ZM173.758 241.07V239.91H174.868V241.07H173.758ZM179.584 248.458H178.547L176.112 242.206H177.174L179.102 247.316L180.994 242.206H182.019L179.584 248.458ZM188.725 245.57H183.77C183.807 245.998 183.919 246.376 184.106 246.706C184.293 247.036 184.539 247.292 184.844 247.475C185.149 247.658 185.495 247.75 185.881 247.75C186.142 247.75 186.392 247.709 186.632 247.628C186.872 247.546 187.081 247.432 187.26 247.286C187.439 247.139 187.568 246.972 187.645 246.785H188.585C188.515 247.127 188.347 247.436 188.078 247.713C187.814 247.99 187.482 248.208 187.083 248.367C186.689 248.525 186.268 248.605 185.82 248.605C185.23 248.605 184.702 248.464 184.234 248.183C183.77 247.903 183.408 247.514 183.148 247.017C182.887 246.517 182.757 245.951 182.757 245.32C182.757 244.705 182.889 244.15 183.154 243.653C183.418 243.156 183.782 242.768 184.246 242.487C184.714 242.202 185.239 242.059 185.82 242.059C186.374 242.059 186.87 242.202 187.309 242.487C187.753 242.768 188.098 243.158 188.347 243.659C188.599 244.156 188.725 244.713 188.725 245.332V245.57ZM185.833 242.92C185.283 242.92 184.828 243.085 184.466 243.415C184.104 243.745 183.88 244.194 183.794 244.764H187.706C187.62 244.198 187.411 243.751 187.077 243.421C186.748 243.087 186.333 242.92 185.833 242.92Z" fill="black"/>
<path d="M247.485 338.733C247.941 338.733 248.339 338.837 248.681 339.045C249.027 339.248 249.291 339.535 249.474 339.906C249.661 340.276 249.755 340.704 249.755 341.188V345.132H248.779V341.231C248.779 340.701 248.652 340.292 248.4 340.003C248.152 339.71 247.798 339.564 247.338 339.564C246.989 339.564 246.686 339.647 246.429 339.814C246.173 339.977 245.976 340.211 245.837 340.516C245.699 340.822 245.63 341.178 245.63 341.585V345.132H244.654V341.231C244.654 340.706 244.523 340.296 244.263 340.003C244.003 339.71 243.641 339.564 243.177 339.564C242.827 339.564 242.526 339.647 242.274 339.814C242.026 339.977 241.834 340.211 241.7 340.516C241.57 340.822 241.505 341.178 241.505 341.585V345.132H240.529V338.88H241.468V339.802C241.664 339.46 241.92 339.197 242.237 339.014C242.559 338.827 242.931 338.733 243.354 338.733C243.81 338.733 244.214 338.843 244.568 339.063C244.922 339.283 245.191 339.586 245.374 339.973C245.585 339.582 245.872 339.279 246.234 339.063C246.6 338.843 247.017 338.733 247.485 338.733ZM254.076 338.733C254.548 338.733 254.961 338.821 255.315 338.996C255.673 339.167 255.949 339.417 256.145 339.747C256.34 340.077 256.438 340.474 256.438 340.938V345.132H255.486V344.204C255.294 344.554 255.02 344.821 254.662 345.004C254.308 345.187 253.883 345.279 253.387 345.279C252.976 345.279 252.61 345.203 252.288 345.053C251.971 344.898 251.723 344.684 251.544 344.412C251.369 344.139 251.281 343.828 251.281 343.478C251.281 343.152 251.363 342.853 251.525 342.58C251.692 342.303 251.922 342.077 252.215 341.902C252.508 341.727 252.839 341.621 253.21 341.585L255.034 341.402C255.168 341.389 255.274 341.332 255.351 341.231C255.433 341.129 255.473 340.982 255.473 340.791C255.473 340.543 255.412 340.325 255.29 340.138C255.172 339.95 255.006 339.806 254.79 339.704C254.578 339.602 254.332 339.552 254.052 339.552C253.775 339.552 253.523 339.598 253.295 339.692C253.067 339.786 252.882 339.914 252.74 340.077C252.597 340.239 252.514 340.419 252.49 340.614H251.538C251.574 340.268 251.709 339.953 251.94 339.668C252.172 339.379 252.475 339.151 252.85 338.984C253.224 338.817 253.633 338.733 254.076 338.733ZM253.57 344.516C253.94 344.516 254.269 344.444 254.558 344.302C254.847 344.155 255.071 343.952 255.229 343.691C255.392 343.427 255.473 343.127 255.473 342.794V342.085L253.344 342.305C253.018 342.338 252.756 342.458 252.557 342.665C252.357 342.873 252.258 343.125 252.258 343.423C252.258 343.634 252.313 343.824 252.422 343.99C252.532 344.153 252.687 344.281 252.886 344.375C253.086 344.469 253.313 344.516 253.57 344.516ZM261.012 345.279C260.422 345.279 259.889 345.136 259.413 344.851C258.937 344.566 258.563 344.176 258.291 343.679C258.022 343.178 257.888 342.621 257.888 342.006C257.888 341.391 258.022 340.836 258.291 340.339C258.563 339.839 258.937 339.446 259.413 339.161C259.889 338.876 260.422 338.733 261.012 338.733C261.516 338.733 261.98 338.833 262.403 339.033C262.826 339.228 263.168 339.501 263.428 339.851C263.693 340.197 263.845 340.585 263.886 341.017H262.91C262.861 340.748 262.745 340.506 262.562 340.29C262.383 340.075 262.157 339.906 261.885 339.784C261.616 339.661 261.325 339.6 261.012 339.6C260.613 339.6 260.253 339.706 259.932 339.918C259.615 340.126 259.364 340.412 259.181 340.779C259.002 341.145 258.913 341.554 258.913 342.006C258.913 342.458 259.002 342.867 259.181 343.233C259.364 343.6 259.615 343.887 259.932 344.094C260.253 344.302 260.613 344.406 261.012 344.406C261.325 344.406 261.616 344.347 261.885 344.229C262.157 344.111 262.383 343.95 262.562 343.746C262.745 343.539 262.861 343.309 262.91 343.056H263.886C263.849 343.475 263.699 343.854 263.434 344.192C263.174 344.53 262.832 344.796 262.409 344.992C261.986 345.183 261.521 345.279 261.012 345.279ZM268.104 345.279C267.51 345.279 266.975 345.138 266.499 344.857C266.023 344.573 265.648 344.182 265.376 343.685C265.103 343.189 264.967 342.629 264.967 342.006C264.967 341.383 265.103 340.824 265.376 340.327C265.648 339.83 266.025 339.442 266.505 339.161C266.985 338.876 267.522 338.733 268.116 338.733C268.71 338.733 269.247 338.876 269.727 339.161C270.207 339.442 270.583 339.83 270.856 340.327C271.128 340.824 271.264 341.383 271.264 342.006C271.264 342.629 271.126 343.189 270.849 343.685C270.577 344.182 270.201 344.573 269.721 344.857C269.241 345.138 268.702 345.279 268.104 345.279ZM268.116 344.375C268.523 344.375 268.887 344.277 269.208 344.082C269.529 343.883 269.782 343.604 269.965 343.246C270.148 342.887 270.239 342.474 270.239 342.006C270.239 341.538 270.148 341.125 269.965 340.767C269.782 340.404 269.529 340.125 269.208 339.93C268.887 339.731 268.523 339.631 268.116 339.631C267.709 339.631 267.345 339.731 267.023 339.93C266.702 340.125 266.45 340.404 266.267 340.767C266.084 341.125 265.992 341.538 265.992 342.006C265.992 342.474 266.084 342.887 266.267 343.246C266.45 343.604 266.702 343.883 267.023 344.082C267.345 344.277 267.709 344.375 268.116 344.375ZM274.931 345.279C274.422 345.279 273.973 345.199 273.582 345.041C273.196 344.878 272.895 344.654 272.679 344.369C272.467 344.084 272.36 343.76 272.356 343.398H273.332C273.34 343.61 273.411 343.797 273.545 343.96C273.68 344.123 273.863 344.251 274.095 344.345C274.331 344.434 274.599 344.479 274.9 344.479C275.364 344.479 275.724 344.381 275.98 344.186C276.236 343.99 276.365 343.724 276.365 343.386C276.365 343.125 276.285 342.914 276.127 342.751C275.972 342.584 275.742 342.476 275.437 342.427L274.302 342.25C273.757 342.165 273.332 341.967 273.027 341.658C272.722 341.345 272.569 340.956 272.569 340.492C272.569 340.15 272.665 339.847 272.856 339.582C273.051 339.313 273.32 339.106 273.661 338.959C274.007 338.809 274.398 338.733 274.833 338.733C275.28 338.733 275.681 338.809 276.035 338.959C276.393 339.11 276.674 339.32 276.877 339.588C277.085 339.853 277.192 340.154 277.201 340.492H276.224C276.22 340.313 276.155 340.15 276.029 340.003C275.907 339.857 275.74 339.743 275.529 339.661C275.317 339.576 275.081 339.533 274.821 339.533C274.569 339.533 274.341 339.574 274.137 339.655C273.938 339.733 273.781 339.843 273.668 339.985C273.558 340.123 273.503 340.284 273.503 340.467C273.503 340.712 273.576 340.909 273.722 341.06C273.869 341.206 274.084 341.302 274.369 341.347L275.541 341.536C276.11 341.625 276.546 341.829 276.847 342.147C277.152 342.464 277.304 342.869 277.304 343.362C277.304 343.744 277.207 344.08 277.011 344.369C276.816 344.658 276.54 344.882 276.182 345.041C275.824 345.199 275.407 345.279 274.931 345.279Z" fill="black"/>
<path d="M613.372 240.024C613.828 240.024 614.226 240.128 614.568 240.335C614.914 240.539 615.178 240.826 615.361 241.196C615.548 241.567 615.642 241.994 615.642 242.479V246.423H614.666V242.521C614.666 241.992 614.54 241.583 614.287 241.294C614.039 241.001 613.685 240.854 613.226 240.854C612.876 240.854 612.573 240.938 612.316 241.105C612.06 241.268 611.863 241.502 611.724 241.807C611.586 242.112 611.517 242.468 611.517 242.875V246.423H610.541V242.521C610.541 241.996 610.411 241.587 610.15 241.294C609.89 241.001 609.528 240.854 609.064 240.854C608.714 240.854 608.413 240.938 608.161 241.105C607.913 241.268 607.722 241.502 607.587 241.807C607.457 242.112 607.392 242.468 607.392 242.875V246.423H606.416V240.171H607.355V241.093C607.551 240.751 607.807 240.488 608.124 240.305C608.446 240.118 608.818 240.024 609.241 240.024C609.697 240.024 610.101 240.134 610.455 240.354C610.809 240.574 611.078 240.877 611.261 241.264C611.472 240.873 611.759 240.57 612.121 240.354C612.487 240.134 612.904 240.024 613.372 240.024ZM618.571 246.423H617.595V240.171H618.571V246.423ZM617.527 239.035V237.875H618.638V239.035H617.527ZM623.61 240.024C624.078 240.024 624.487 240.126 624.837 240.329C625.186 240.529 625.455 240.814 625.642 241.184C625.833 241.555 625.929 241.986 625.929 242.479V246.423H624.953V242.552C624.953 242.019 624.814 241.603 624.538 241.306C624.265 241.005 623.885 240.854 623.397 240.854C623.047 240.854 622.74 240.93 622.475 241.08C622.211 241.227 622.005 241.439 621.859 241.715C621.716 241.992 621.645 242.318 621.645 242.692V246.423H620.669V240.171H621.609V241.129C621.808 240.763 622.076 240.488 622.414 240.305C622.752 240.118 623.15 240.024 623.61 240.024ZM632.34 240.171H633.286L633.274 245.928C633.274 246.47 633.158 246.934 632.926 247.32C632.698 247.711 632.368 248.008 631.937 248.212C631.51 248.419 631.006 248.523 630.424 248.523C629.891 248.523 629.415 248.434 628.996 248.255C628.581 248.08 628.25 247.833 628.002 247.516C627.753 247.198 627.607 246.832 627.562 246.417H628.539C628.591 246.661 628.703 246.879 628.874 247.07C629.045 247.265 629.263 247.416 629.527 247.522C629.795 247.632 630.095 247.687 630.424 247.687C631.006 247.687 631.461 247.532 631.791 247.223C632.124 246.917 632.291 246.486 632.291 245.928V245.495L632.31 244.854C632.074 245.187 631.773 245.446 631.406 245.629C631.044 245.808 630.64 245.898 630.192 245.898C629.663 245.898 629.189 245.774 628.77 245.525C628.355 245.277 628.03 244.931 627.794 244.487C627.562 244.044 627.446 243.539 627.446 242.973C627.446 242.407 627.562 241.903 627.794 241.459C628.03 241.015 628.355 240.669 628.77 240.421C629.189 240.173 629.663 240.049 630.192 240.049C630.648 240.049 631.061 240.144 631.431 240.335C631.801 240.523 632.104 240.789 632.34 241.135V240.171ZM630.369 245.043C630.743 245.043 631.077 244.958 631.37 244.787C631.663 244.616 631.891 244.373 632.053 244.06C632.22 243.747 632.303 243.384 632.303 242.973C632.303 242.562 632.22 242.2 632.053 241.886C631.891 241.573 631.663 241.331 631.37 241.16C631.077 240.989 630.743 240.903 630.369 240.903C629.999 240.903 629.669 240.991 629.381 241.166C629.092 241.337 628.868 241.579 628.709 241.892C628.551 242.202 628.471 242.562 628.471 242.973C628.471 243.384 628.551 243.747 628.709 244.06C628.868 244.369 629.092 244.612 629.381 244.787C629.669 244.958 629.999 245.043 630.369 245.043ZM637.648 246.423H636.635L634.578 240.171H635.616L637.044 244.768L637.184 245.269L637.306 244.768L638.789 240.171H639.796L641.284 244.768L641.419 245.269L641.547 244.768L642.938 240.171H643.951L641.895 246.423H640.87L639.405 241.618L639.289 241.215L639.185 241.605L637.648 246.423Z" fill="black"/>
<path d="M572.357 345.132H571.344L569.287 338.88H570.325L571.752 343.478L571.893 343.978L572.015 343.478L573.498 338.88H574.504L575.993 343.478L576.128 343.978L576.256 343.478L577.647 338.88H578.66L576.604 345.132H575.578L574.114 340.327L573.998 339.924L573.894 340.315L572.357 345.132ZM582.202 338.733C582.674 338.733 583.087 338.821 583.441 338.996C583.799 339.167 584.075 339.417 584.271 339.747C584.466 340.077 584.564 340.473 584.564 340.938V345.132H583.612V344.204C583.42 344.554 583.146 344.821 582.788 345.004C582.434 345.187 582.009 345.279 581.513 345.279C581.102 345.279 580.736 345.203 580.414 345.053C580.097 344.898 579.849 344.684 579.67 344.412C579.495 344.139 579.407 343.828 579.407 343.478C579.407 343.152 579.489 342.853 579.651 342.58C579.818 342.303 580.048 342.077 580.341 341.902C580.634 341.727 580.965 341.621 581.336 341.585L583.16 341.402C583.294 341.389 583.4 341.332 583.477 341.231C583.559 341.129 583.599 340.982 583.599 340.791C583.599 340.543 583.538 340.325 583.416 340.138C583.298 339.95 583.132 339.806 582.916 339.704C582.705 339.602 582.458 339.552 582.178 339.552C581.901 339.552 581.649 339.598 581.421 339.692C581.193 339.786 581.008 339.914 580.866 340.077C580.723 340.239 580.64 340.419 580.616 340.614H579.664C579.7 340.268 579.835 339.952 580.066 339.668C580.298 339.379 580.601 339.151 580.976 338.984C581.35 338.817 581.759 338.733 582.202 338.733ZM581.696 344.516C582.066 344.516 582.395 344.444 582.684 344.302C582.973 344.155 583.197 343.952 583.355 343.691C583.518 343.427 583.599 343.127 583.599 342.794V342.085L581.47 342.305C581.144 342.338 580.882 342.458 580.683 342.665C580.483 342.873 580.384 343.125 580.384 343.423C580.384 343.634 580.439 343.824 580.548 343.99C580.658 344.153 580.813 344.281 581.012 344.375C581.212 344.469 581.439 344.516 581.696 344.516ZM588.198 345.132C587.747 345.132 587.389 345.012 587.124 344.772C586.864 344.532 586.734 344.2 586.734 343.777L586.728 339.747H585.629L585.635 338.88H586.313C586.467 338.88 586.591 338.831 586.685 338.733C586.783 338.636 586.831 338.512 586.831 338.361V337.317H587.71V338.88H589.217L589.211 339.747H587.704L587.71 343.716C587.71 343.887 587.759 344.021 587.857 344.119C587.958 344.216 588.093 344.265 588.259 344.265H589.211V345.132H588.198ZM593.477 345.279C592.887 345.279 592.354 345.136 591.878 344.851C591.402 344.566 591.028 344.176 590.755 343.679C590.487 343.178 590.352 342.621 590.352 342.006C590.352 341.391 590.487 340.836 590.755 340.339C591.028 339.839 591.402 339.446 591.878 339.161C592.354 338.876 592.887 338.733 593.477 338.733C593.981 338.733 594.445 338.833 594.868 339.033C595.291 339.228 595.633 339.501 595.893 339.851C596.157 340.197 596.31 340.585 596.351 341.017H595.374C595.325 340.748 595.209 340.506 595.026 340.29C594.847 340.075 594.622 339.906 594.349 339.784C594.081 339.661 593.79 339.6 593.477 339.6C593.078 339.6 592.718 339.706 592.396 339.918C592.079 340.125 591.829 340.412 591.646 340.779C591.467 341.145 591.377 341.554 591.377 342.006C591.377 342.458 591.467 342.867 591.646 343.233C591.829 343.6 592.079 343.887 592.396 344.094C592.718 344.302 593.078 344.406 593.477 344.406C593.79 344.406 594.081 344.347 594.349 344.229C594.622 344.11 594.847 343.95 595.026 343.746C595.209 343.539 595.325 343.309 595.374 343.056H596.351C596.314 343.475 596.163 343.854 595.899 344.192C595.639 344.53 595.297 344.796 594.874 344.992C594.451 345.183 593.985 345.279 593.477 345.279ZM600.879 338.733C601.347 338.733 601.756 338.835 602.106 339.039C602.456 339.238 602.724 339.523 602.911 339.893C603.102 340.264 603.198 340.695 603.198 341.188V345.132H602.222V341.231C602.222 340.706 602.087 340.296 601.819 340.003C601.555 339.71 601.182 339.564 600.702 339.564C600.34 339.564 600.025 339.647 599.756 339.814C599.488 339.977 599.281 340.211 599.134 340.516C598.988 340.817 598.914 341.174 598.914 341.585V345.132H597.938V336.584H598.914V338.593L598.878 339.832C599.073 339.474 599.34 339.201 599.677 339.014C600.019 338.827 600.42 338.733 600.879 338.733ZM607.779 345.279C607.185 345.279 606.65 345.138 606.174 344.857C605.698 344.572 605.324 344.182 605.051 343.685C604.778 343.189 604.642 342.629 604.642 342.006C604.642 341.383 604.778 340.824 605.051 340.327C605.324 339.83 605.7 339.442 606.18 339.161C606.66 338.876 607.197 338.733 607.791 338.733C608.385 338.733 608.922 338.876 609.402 339.161C609.882 339.442 610.258 339.83 610.531 340.327C610.803 340.824 610.939 341.383 610.939 342.006C610.939 342.629 610.801 343.189 610.524 343.685C610.252 344.182 609.876 344.572 609.396 344.857C608.916 345.138 608.377 345.279 607.779 345.279ZM607.791 344.375C608.198 344.375 608.562 344.277 608.883 344.082C609.204 343.883 609.457 343.604 609.64 343.246C609.823 342.887 609.914 342.474 609.914 342.006C609.914 341.538 609.823 341.125 609.64 340.767C609.457 340.404 609.204 340.125 608.883 339.93C608.562 339.731 608.198 339.631 607.791 339.631C607.384 339.631 607.02 339.731 606.698 339.93C606.377 340.125 606.125 340.404 605.942 340.767C605.759 341.125 605.667 341.538 605.667 342.006C605.667 342.474 605.759 342.887 605.942 343.246C606.125 343.604 606.377 343.883 606.698 344.082C607.02 344.277 607.384 344.375 607.791 344.375ZM614.606 345.279C614.097 345.279 613.648 345.199 613.257 345.041C612.871 344.878 612.57 344.654 612.354 344.369C612.143 344.084 612.035 343.76 612.031 343.398H613.007C613.015 343.61 613.086 343.797 613.221 343.96C613.355 344.123 613.538 344.251 613.77 344.345C614.006 344.434 614.274 344.479 614.575 344.479C615.039 344.479 615.399 344.381 615.655 344.186C615.911 343.99 616.04 343.724 616.04 343.386C616.04 343.125 615.96 342.914 615.802 342.751C615.647 342.584 615.417 342.476 615.112 342.427L613.977 342.25C613.432 342.165 613.007 341.967 612.702 341.658C612.397 341.345 612.244 340.956 612.244 340.492C612.244 340.15 612.34 339.847 612.531 339.582C612.726 339.313 612.995 339.106 613.336 338.959C613.682 338.809 614.073 338.733 614.508 338.733C614.956 338.733 615.356 338.809 615.71 338.959C616.068 339.11 616.349 339.32 616.552 339.588C616.76 339.853 616.867 340.154 616.876 340.492H615.899C615.895 340.313 615.83 340.15 615.704 340.003C615.582 339.857 615.415 339.743 615.204 339.661C614.992 339.576 614.756 339.533 614.496 339.533C614.244 339.533 614.016 339.574 613.812 339.655C613.613 339.733 613.456 339.843 613.343 339.985C613.233 340.123 613.178 340.284 613.178 340.467C613.178 340.712 613.251 340.909 613.397 341.06C613.544 341.206 613.76 341.302 614.044 341.347L615.216 341.536C615.785 341.625 616.221 341.829 616.522 342.146C616.827 342.464 616.979 342.869 616.979 343.362C616.979 343.744 616.882 344.08 616.686 344.369C616.491 344.658 616.215 344.882 615.857 345.041C615.499 345.199 615.082 345.279 614.606 345.279Z" fill="black"/>
<path d="M469.02 247.441H468.044V238.893H469.02V247.441ZM472.096 247.441H471.12V241.188H472.096V247.441ZM471.052 240.053V238.893H472.163V240.053H471.052ZM477.135 241.042C477.603 241.042 478.012 241.143 478.362 241.347C478.711 241.546 478.98 241.831 479.167 242.202C479.358 242.572 479.454 243.004 479.454 243.496V247.441H478.478V243.569C478.478 243.036 478.339 242.621 478.063 242.324C477.79 242.023 477.41 241.872 476.922 241.872C476.572 241.872 476.265 241.947 476 242.098C475.736 242.245 475.53 242.456 475.384 242.733C475.241 243.01 475.17 243.335 475.17 243.71V247.441H474.194V241.188H475.134V242.147C475.333 241.781 475.601 241.506 475.939 241.323C476.277 241.135 476.675 241.042 477.135 241.042ZM485.542 241.188H486.518V247.441H485.578V246.482C485.379 246.848 485.11 247.125 484.773 247.312C484.435 247.495 484.036 247.587 483.577 247.587C483.109 247.587 482.7 247.487 482.35 247.288C482 247.084 481.73 246.797 481.539 246.427C481.352 246.057 481.258 245.625 481.258 245.133V241.188H482.234V245.059C482.234 245.593 482.371 246.01 482.643 246.311C482.92 246.608 483.302 246.757 483.79 246.757C484.14 246.757 484.447 246.683 484.712 246.537C484.976 246.386 485.18 246.173 485.322 245.896C485.468 245.619 485.542 245.293 485.542 244.919V241.188ZM491.214 244.235L493.484 247.441H492.374L490.653 244.98L488.951 247.441H487.883L490.159 244.217L488.005 241.188H489.115L490.714 243.472L492.294 241.188H493.362L491.214 244.235Z" fill="black"/>
<path d="M417.132 344.115C416.681 344.115 416.323 343.994 416.058 343.754C415.798 343.514 415.668 343.182 415.668 342.759L415.662 338.729H414.563L414.569 337.862H415.247C415.401 337.862 415.525 337.813 415.619 337.716C415.717 337.618 415.765 337.494 415.765 337.343V336.299H416.644V337.862H418.151L418.145 338.729H416.638L416.644 342.698C416.644 342.869 416.693 343.003 416.791 343.101C416.892 343.199 417.026 343.248 417.193 343.248H418.145V344.115H417.132ZM422.478 344.115H421.44L419.006 337.862H420.067L421.996 342.973L423.887 337.862H424.912L422.478 344.115ZM428.787 344.261C428.193 344.261 427.658 344.121 427.182 343.84C426.706 343.555 426.332 343.164 426.059 342.667C425.787 342.171 425.651 341.611 425.651 340.988C425.651 340.366 425.787 339.806 426.059 339.309C426.332 338.813 426.708 338.424 427.188 338.143C427.668 337.858 428.205 337.716 428.799 337.716C429.393 337.716 429.93 337.858 430.41 338.143C430.89 338.424 431.267 338.813 431.539 339.309C431.812 339.806 431.948 340.366 431.948 340.988C431.948 341.611 431.81 342.171 431.533 342.667C431.26 343.164 430.884 343.555 430.404 343.84C429.924 344.121 429.385 344.261 428.787 344.261ZM428.799 343.357C429.206 343.357 429.57 343.26 429.891 343.064C430.213 342.865 430.465 342.586 430.648 342.228C430.831 341.87 430.923 341.457 430.923 340.988C430.923 340.52 430.831 340.107 430.648 339.749C430.465 339.387 430.213 339.108 429.891 338.912C429.57 338.713 429.206 338.613 428.799 338.613C428.392 338.613 428.028 338.713 427.707 338.912C427.386 339.108 427.133 339.387 426.95 339.749C426.767 340.107 426.676 340.52 426.676 340.988C426.676 341.457 426.767 341.87 426.95 342.228C427.133 342.586 427.386 342.865 427.707 343.064C428.028 343.26 428.392 343.357 428.799 343.357ZM435.614 344.261C435.106 344.261 434.656 344.182 434.266 344.023C433.879 343.86 433.578 343.636 433.363 343.351C433.151 343.066 433.043 342.743 433.039 342.38H434.015C434.024 342.592 434.095 342.779 434.229 342.942C434.363 343.105 434.546 343.233 434.778 343.327C435.014 343.416 435.283 343.461 435.584 343.461C436.047 343.461 436.407 343.364 436.664 343.168C436.92 342.973 437.048 342.706 437.048 342.368C437.048 342.108 436.969 341.896 436.81 341.733C436.656 341.566 436.426 341.459 436.121 341.41L434.986 341.233C434.441 341.147 434.015 340.95 433.71 340.64C433.405 340.327 433.253 339.938 433.253 339.474C433.253 339.132 433.348 338.829 433.539 338.564C433.735 338.296 434.003 338.088 434.345 337.942C434.691 337.791 435.081 337.716 435.517 337.716C435.964 337.716 436.365 337.791 436.719 337.942C437.077 338.092 437.357 338.302 437.561 338.571C437.768 338.835 437.876 339.136 437.884 339.474H436.908C436.904 339.295 436.839 339.132 436.712 338.986C436.59 338.839 436.424 338.725 436.212 338.644C436.001 338.558 435.765 338.516 435.504 338.516C435.252 338.516 435.024 338.556 434.821 338.638C434.622 338.715 434.465 338.825 434.351 338.967C434.241 339.106 434.186 339.267 434.186 339.45C434.186 339.694 434.26 339.891 434.406 340.042C434.552 340.189 434.768 340.284 435.053 340.329L436.224 340.518C436.794 340.608 437.229 340.811 437.53 341.129C437.835 341.446 437.988 341.851 437.988 342.344C437.988 342.726 437.89 343.062 437.695 343.351C437.5 343.64 437.223 343.864 436.865 344.023C436.507 344.182 436.09 344.261 435.614 344.261Z" fill="black"/>
<path d="M140.72 367.52H43.0878C36.3478 367.52 30.8839 372.987 30.8839 379.731C30.8839 386.475 36.3478 391.943 43.0878 391.943H140.72C147.46 391.943 152.924 386.475 152.924 379.731C152.924 372.987 147.46 367.52 140.72 367.52Z" fill="url(#paint5_radial_2002_16)"/>
<path d="M140.72 396.013H43.0878C36.3478 396.013 30.8839 401.48 30.8839 408.225C30.8839 414.969 36.3478 420.436 43.0878 420.436H140.72C147.46 420.436 152.924 414.969 152.924 408.225C152.924 401.48 147.46 396.013 140.72 396.013Z" fill="url(#paint6_radial_2002_16)"/>
<path d="M66.268 384.819H65.2917V378.567H66.268V384.819ZM65.2246 377.431V376.271H66.3352V377.431H65.2246ZM70.9965 384.966C70.4025 384.966 69.8676 384.825 69.3917 384.545C68.9157 384.26 68.5414 383.869 68.2689 383.372C67.9963 382.876 67.8601 382.316 67.8601 381.693C67.8601 381.07 67.9963 380.511 68.2689 380.014C68.5414 379.518 68.9177 379.129 69.3978 378.848C69.8778 378.563 70.4148 378.421 71.0087 378.421C71.6026 378.421 72.1396 378.563 72.6196 378.848C73.0996 379.129 73.4759 379.518 73.7485 380.014C74.021 380.511 74.1573 381.07 74.1573 381.693C74.1573 382.316 74.019 382.876 73.7424 383.372C73.4698 383.869 73.0935 384.26 72.6135 384.545C72.1335 384.825 71.5945 384.966 70.9965 384.966ZM71.0087 384.062C71.4155 384.062 71.7796 383.965 72.1009 383.769C72.4223 383.57 72.6745 383.291 72.8576 382.933C73.0406 382.575 73.1322 382.161 73.1322 381.693C73.1322 381.225 73.0406 380.812 72.8576 380.454C72.6745 380.092 72.4223 379.813 72.1009 379.617C71.7796 379.418 71.4155 379.318 71.0087 379.318C70.6019 379.318 70.2378 379.418 69.9164 379.617C69.5951 379.813 69.3428 380.092 69.1598 380.454C68.9767 380.812 68.8852 381.225 68.8852 381.693C68.8852 382.161 68.9767 382.575 69.1598 382.933C69.3428 383.291 69.5951 383.57 69.9164 383.769C70.2378 383.965 70.6019 384.062 71.0087 384.062ZM77.8242 384.966C77.3157 384.966 76.8662 384.887 76.4757 384.728C76.0892 384.565 75.7882 384.341 75.5726 384.056C75.361 383.771 75.2532 383.448 75.2492 383.085H76.2255C76.2336 383.297 76.3048 383.484 76.439 383.647C76.5733 383.81 76.7563 383.938 76.9882 384.032C77.2242 384.121 77.4926 384.166 77.7937 384.166C78.2574 384.166 78.6174 384.068 78.8737 383.873C79.13 383.678 79.2582 383.411 79.2582 383.073C79.2582 382.813 79.1788 382.601 79.0202 382.438C78.8656 382.271 78.6358 382.163 78.3307 382.115L77.1957 381.937C76.6506 381.852 76.2255 381.655 75.9204 381.345C75.6153 381.032 75.4627 380.643 75.4627 380.179C75.4627 379.837 75.5583 379.534 75.7495 379.269C75.9448 379.001 76.2133 378.793 76.555 378.646C76.9008 378.496 77.2913 378.421 77.7266 378.421C78.174 378.421 78.5747 378.496 78.9286 378.646C79.2866 378.797 79.5673 379.007 79.7709 379.275C79.9784 379.54 80.0862 379.841 80.0943 380.179H79.1178C79.1137 380 79.0487 379.837 78.9225 379.691C78.8005 379.544 78.6337 379.43 78.4222 379.349C78.2106 379.263 77.9747 379.22 77.7144 379.22C77.4621 379.22 77.2343 379.261 77.0309 379.343C76.8316 379.42 76.675 379.53 76.5611 379.672C76.4512 379.811 76.3963 379.971 76.3963 380.155C76.3963 380.399 76.4695 380.596 76.616 380.747C76.7624 380.893 76.978 380.989 77.2628 381.034L78.4344 381.223C79.0039 381.313 79.4392 381.516 79.7404 381.834C80.0455 382.151 80.1981 382.556 80.1981 383.049C80.1981 383.431 80.1004 383.767 79.9052 384.056C79.7099 384.345 79.4331 384.569 79.0751 384.728C78.7171 384.887 78.3001 384.966 77.8242 384.966ZM82.1629 384.819H81.0523L84.1338 376.271H85.3909L88.5944 384.819H87.5204L86.6967 382.548H82.9195L82.1629 384.819ZM84.6098 377.609L83.2307 381.669H86.3672L84.9027 377.609L84.7562 377.108L84.6098 377.609ZM92.9349 378.506V379.526H92.7092C92.1396 379.526 91.6922 379.697 91.3667 380.039C91.0413 380.381 90.8786 380.861 90.8786 381.48V384.819H89.9022V378.567H90.8786V379.825C91.0535 379.402 91.2976 379.076 91.6108 378.848C91.9281 378.62 92.3064 378.506 92.7458 378.506H92.9349ZM101.22 378.421C101.676 378.421 102.075 378.524 102.416 378.732C102.762 378.935 103.027 379.222 103.21 379.593C103.397 379.963 103.49 380.391 103.49 380.875V384.819H102.514V380.918C102.514 380.389 102.388 379.98 102.136 379.691C101.888 379.397 101.534 379.251 101.074 379.251C100.724 379.251 100.421 379.334 100.165 379.501C99.9085 379.664 99.7112 379.898 99.5729 380.203C99.4346 380.509 99.3654 380.865 99.3654 381.272V384.819H98.3891V380.918C98.3891 380.393 98.2589 379.984 97.9986 379.691C97.7382 379.397 97.3762 379.251 96.9124 379.251C96.5626 379.251 96.2615 379.334 96.0093 379.501C95.7612 379.664 95.57 379.898 95.4357 380.203C95.3056 380.509 95.2405 380.865 95.2405 381.272V384.819H94.2642V378.567H95.2039V379.489C95.3991 379.147 95.6554 378.885 95.9727 378.701C96.2941 378.514 96.6663 378.421 97.0894 378.421C97.545 378.421 97.9497 378.53 98.3037 378.75C98.6576 378.97 98.9261 379.273 99.1091 379.66C99.3207 379.269 99.6075 378.966 99.9695 378.75C100.336 378.53 100.753 378.421 101.22 378.421ZM108.396 384.966C107.969 384.966 107.552 384.88 107.145 384.709C106.743 384.534 106.405 384.298 106.133 384.001C105.811 383.651 105.565 383.203 105.394 382.658C105.227 382.108 105.144 381.478 105.144 380.765C105.144 379.853 105.286 379.047 105.571 378.347C105.856 377.643 106.253 377.098 106.761 376.711C107.274 376.32 107.857 376.125 108.512 376.125C108.943 376.125 109.358 376.208 109.757 376.375C110.156 376.542 110.491 376.776 110.764 377.077C111.041 377.379 111.217 377.72 111.295 378.103H110.27C110.229 377.891 110.121 377.704 109.946 377.541C109.771 377.374 109.556 377.246 109.299 377.157C109.043 377.063 108.781 377.016 108.512 377.016C108.036 377.016 107.617 377.169 107.255 377.474C106.897 377.779 106.617 378.219 106.413 378.793C106.21 379.367 106.102 380.047 106.09 380.832C106.212 380.523 106.401 380.244 106.657 379.996C106.914 379.743 107.213 379.546 107.554 379.404C107.896 379.261 108.252 379.19 108.622 379.19C109.175 379.19 109.668 379.314 110.099 379.562C110.53 379.807 110.864 380.149 111.1 380.588C111.34 381.024 111.46 381.52 111.46 382.078C111.46 382.64 111.329 383.14 111.069 383.58C110.813 384.015 110.453 384.355 109.989 384.6C109.525 384.844 108.994 384.966 108.396 384.966ZM108.439 384.074C108.826 384.074 109.167 383.991 109.464 383.824C109.765 383.653 109.997 383.417 110.16 383.116C110.327 382.815 110.41 382.471 110.41 382.084C110.41 381.697 110.327 381.353 110.16 381.052C109.993 380.747 109.757 380.509 109.452 380.338C109.147 380.167 108.795 380.081 108.396 380.081C107.998 380.081 107.642 380.169 107.328 380.344C107.019 380.519 106.777 380.759 106.602 381.064C106.432 381.366 106.346 381.701 106.346 382.072C106.346 382.446 106.436 382.786 106.615 383.091C106.794 383.397 107.042 383.637 107.359 383.812C107.68 383.987 108.04 384.074 108.439 384.074ZM117.681 376.271V381.797H119.011V382.713H117.681V384.819H116.68V382.713H112.347V381.76L116.674 376.271H117.681ZM116.68 377.602L113.415 381.797H116.68V377.602Z" fill="white"/>
<path d="M38.9104 412.295H37.9341V406.043H38.9104V412.295ZM37.8669 404.907V403.747H38.9775V404.907H37.8669ZM43.6388 412.442C43.0449 412.442 42.5099 412.301 42.034 412.02C41.558 411.735 41.1838 411.345 40.9112 410.848C40.6387 410.351 40.5024 409.792 40.5024 409.169C40.5024 408.546 40.6387 407.987 40.9112 407.49C41.1838 406.993 41.5601 406.605 42.0401 406.324C42.5201 406.039 43.0571 405.896 43.651 405.896C44.2449 405.896 44.7819 406.039 45.2619 406.324C45.742 406.605 46.1182 406.993 46.3908 407.49C46.6634 407.987 46.7996 408.546 46.7996 409.169C46.7996 409.792 46.6613 410.351 46.3847 410.848C46.1121 411.345 45.7359 411.735 45.2558 412.02C44.7758 412.301 44.2368 412.442 43.6388 412.442ZM43.651 411.538C44.0578 411.538 44.4219 411.44 44.7433 411.245C45.0646 411.045 45.3169 410.767 45.4999 410.408C45.683 410.05 45.7745 409.637 45.7745 409.169C45.7745 408.701 45.683 408.288 45.4999 407.93C45.3169 407.567 45.0646 407.288 44.7433 407.093C44.4219 406.894 44.0578 406.794 43.651 406.794C43.2442 406.794 42.8801 406.894 42.5588 407.093C42.2374 407.288 41.9852 407.567 41.8021 407.93C41.6191 408.288 41.5275 408.701 41.5275 409.169C41.5275 409.637 41.6191 410.05 41.8021 410.408C41.9852 410.767 42.2374 411.045 42.5588 411.245C42.8801 411.44 43.2442 411.538 43.651 411.538ZM50.4666 412.442C49.9581 412.442 49.5086 412.362 49.1181 412.204C48.7316 412.041 48.4306 411.817 48.215 411.532C48.0034 411.247 47.8957 410.923 47.8916 410.561H48.8679C48.876 410.773 48.9472 410.96 49.0815 411.123C49.2157 411.286 49.3988 411.414 49.6307 411.508C49.8666 411.597 50.1351 411.642 50.4361 411.642C50.8999 411.642 51.2599 411.544 51.5162 411.349C51.7724 411.153 51.9006 410.887 51.9006 410.549C51.9006 410.288 51.8213 410.077 51.6626 409.914C51.508 409.747 51.2782 409.639 50.9731 409.59L49.8381 409.413C49.293 409.328 48.8679 409.13 48.5628 408.821C48.2577 408.508 48.1052 408.119 48.1052 407.655C48.1052 407.313 48.2008 407.01 48.3919 406.745C48.5872 406.476 48.8557 406.269 49.1974 406.122C49.5432 405.972 49.9337 405.896 50.369 405.896C50.8165 405.896 51.2172 405.972 51.5711 406.122C51.9291 406.273 52.2098 406.482 52.4132 406.751C52.6206 407.016 52.7284 407.317 52.7366 407.655H51.7602C51.7562 407.476 51.6911 407.313 51.565 407.166C51.4429 407.02 51.2761 406.906 51.0646 406.824C50.8531 406.739 50.6171 406.696 50.3568 406.696C50.1046 406.696 49.8768 406.737 49.6734 406.818C49.474 406.896 49.3174 407.006 49.2035 407.148C49.0937 407.286 49.0388 407.447 49.0388 407.63C49.0388 407.875 49.112 408.072 49.2584 408.223C49.4049 408.369 49.6205 408.465 49.9052 408.51L51.0768 408.699C51.6463 408.788 52.0816 408.992 52.3826 409.309C52.6877 409.627 52.8403 410.032 52.8403 410.524C52.8403 410.907 52.7427 411.243 52.5474 411.532C52.3521 411.821 52.0755 412.045 51.7175 412.204C51.3595 412.362 50.9426 412.442 50.4666 412.442ZM57.1119 412.442C56.5261 412.442 56.0054 412.334 55.5498 412.118C55.0982 411.902 54.7463 411.601 54.4941 411.214C54.2419 410.828 54.1158 410.384 54.1158 409.883H55.1531C55.1531 410.205 55.2365 410.49 55.4033 410.738C55.5701 410.986 55.802 411.18 56.099 411.318C56.4 411.457 56.7417 411.526 57.1241 411.526C57.5024 411.526 57.838 411.461 58.1309 411.33C58.4279 411.2 58.6577 411.017 58.8204 410.781C58.9832 410.545 59.0645 410.274 59.0645 409.969C59.0645 409.611 58.9526 409.303 58.7289 409.047C58.5052 408.786 58.196 408.617 57.8014 408.54L56.3003 408.247C55.8976 408.17 55.5477 408.023 55.2508 407.807C54.9579 407.588 54.7321 407.317 54.5735 406.995C54.4148 406.674 54.3355 406.324 54.3355 405.945C54.3355 405.489 54.4535 405.084 54.6894 404.73C54.9253 404.376 55.2528 404.099 55.6718 403.9C56.0908 403.7 56.5668 403.601 57.0997 403.601C57.6407 403.601 58.1228 403.702 58.5458 403.906C58.973 404.105 59.3045 404.384 59.5405 404.742C59.7805 405.101 59.9005 405.51 59.9005 405.97H58.8632C58.8632 405.689 58.7879 405.438 58.6374 405.219C58.4909 404.999 58.2835 404.828 58.015 404.706C57.7506 404.58 57.4495 404.516 57.1119 404.516C56.7742 404.516 56.4712 404.578 56.2027 404.7C55.9383 404.822 55.7308 404.993 55.5803 405.213C55.4338 405.432 55.3606 405.685 55.3606 405.97C55.3606 406.312 55.4623 406.601 55.6657 406.837C55.8691 407.069 56.1579 407.223 56.5322 407.301L58.1004 407.612C58.4909 407.689 58.8367 407.842 59.1377 408.07C59.4388 408.294 59.6727 408.571 59.8395 408.9C60.0103 409.23 60.0958 409.586 60.0958 409.969C60.0958 410.453 59.9676 410.883 59.7113 411.257C59.4591 411.632 59.1052 411.923 58.6496 412.13C58.198 412.338 57.6855 412.442 57.1119 412.442ZM62.8654 412.295H61.8891V406.043H62.8654V412.295ZM61.822 404.907V403.747H62.9326V404.907H61.822ZM71.9202 405.896C72.3758 405.896 72.7744 406 73.1162 406.208C73.4619 406.411 73.7264 406.698 73.9094 407.069C74.0966 407.439 74.1901 407.866 74.1901 408.351V412.295H73.2138V408.394C73.2138 407.864 73.0877 407.455 72.8355 407.166C72.5873 406.873 72.2334 406.727 71.7737 406.727C71.4239 406.727 71.1208 406.81 70.8645 406.977C70.6082 407.14 70.4109 407.374 70.2726 407.679C70.1343 407.984 70.0652 408.341 70.0652 408.748V412.295H69.0889V408.394C69.0889 407.868 68.9587 407.459 68.6983 407.166C68.438 406.873 68.0759 406.727 67.6122 406.727C67.2623 406.727 66.9613 406.81 66.7091 406.977C66.4609 407.14 66.2697 407.374 66.1355 407.679C66.0053 407.984 65.9402 408.341 65.9402 408.748V412.295H64.9639V406.043H65.9036V406.965C66.0989 406.623 66.3552 406.36 66.6725 406.177C66.9938 405.99 67.3661 405.896 67.7891 405.896C68.2447 405.896 68.6495 406.006 69.0034 406.226C69.3573 406.446 69.6258 406.749 69.8089 407.136C70.0204 406.745 70.3072 406.442 70.6693 406.226C71.0354 406.006 71.4524 405.896 71.9202 405.896ZM80.2804 406.043H81.2567V412.295H80.317V411.337C80.1177 411.703 79.8492 411.98 79.5112 412.167C79.1736 412.35 78.7749 412.442 78.3153 412.442C77.8474 412.442 77.4386 412.342 77.0888 412.143C76.7389 411.939 76.4684 411.652 76.2772 411.282C76.0901 410.911 75.9965 410.48 75.9965 409.987V406.043H76.9728V409.914C76.9728 410.447 77.1091 410.864 77.3817 411.166C77.6583 411.463 78.0407 411.611 78.5288 411.611C78.8787 411.611 79.1858 411.538 79.4502 411.391C79.7149 411.241 79.9184 411.027 80.0607 410.75C80.2072 410.474 80.2804 410.148 80.2804 409.773V406.043ZM84.3301 412.295H83.3538V403.747H84.3301V412.295ZM88.7957 405.896C89.2676 405.896 89.6805 405.984 90.0344 406.159C90.3924 406.33 90.669 406.58 90.8643 406.91C91.0595 407.24 91.1572 407.636 91.1572 408.101V412.295H90.2053V411.367C90.0141 411.717 89.7395 411.984 89.3815 412.167C89.0276 412.35 88.6025 412.442 88.1062 412.442C87.6953 412.442 87.3292 412.366 87.0078 412.216C86.6905 412.061 86.4424 411.847 86.2634 411.575C86.0885 411.302 86.001 410.991 86.001 410.64C86.001 410.315 86.0824 410.016 86.2451 409.743C86.4119 409.466 86.6417 409.24 86.9346 409.065C87.2275 408.89 87.5591 408.784 87.9292 408.748L89.7537 408.565C89.888 408.552 89.9937 408.495 90.071 408.394C90.1524 408.292 90.1931 408.145 90.1931 407.954C90.1931 407.706 90.1321 407.488 90.01 407.301C89.892 407.113 89.7253 406.969 89.5097 406.867C89.2981 406.765 89.052 406.715 88.7713 406.715C88.4947 406.715 88.2425 406.761 88.0147 406.855C87.7869 406.949 87.6018 407.077 87.4594 407.24C87.317 407.402 87.2336 407.582 87.2092 407.777H86.2573C86.2939 407.431 86.4281 407.115 86.66 406.831C86.8919 406.542 87.195 406.314 87.5692 406.147C87.9435 405.98 88.3523 405.896 88.7957 405.896ZM88.2893 411.678C88.6594 411.678 88.9889 411.607 89.2778 411.465C89.5666 411.318 89.7903 411.115 89.949 410.854C90.1117 410.59 90.1931 410.29 90.1931 409.957V409.248L88.0635 409.468C87.738 409.501 87.4757 409.621 87.2763 409.828C87.077 410.036 86.9773 410.288 86.9773 410.586C86.9773 410.797 87.0322 410.986 87.1421 411.153C87.2519 411.316 87.4065 411.444 87.6058 411.538C87.8052 411.632 88.033 411.678 88.2893 411.678ZM94.7919 412.295C94.3404 412.295 93.9824 412.175 93.718 411.935C93.4576 411.695 93.3275 411.363 93.3275 410.94L93.3213 406.91H92.223L92.2291 406.043H92.9064C93.061 406.043 93.1851 405.994 93.2786 405.896C93.3763 405.799 93.4251 405.675 93.4251 405.524V404.48H94.3038V406.043H95.811L95.8049 406.91H94.2977L94.3038 410.879C94.3038 411.05 94.3526 411.184 94.4502 411.282C94.5519 411.379 94.6862 411.428 94.853 411.428H95.8049V412.295H94.7919ZM100.082 412.442C99.4884 412.442 98.9535 412.301 98.4775 412.02C98.0016 411.735 97.6273 411.345 97.3548 410.848C97.0822 410.351 96.9459 409.792 96.9459 409.169C96.9459 408.546 97.0822 407.987 97.3548 407.49C97.6273 406.993 98.0036 406.605 98.4836 406.324C98.9637 406.039 99.5006 405.896 100.095 405.896C100.688 405.896 101.225 406.039 101.705 406.324C102.185 406.605 102.562 406.993 102.834 407.49C103.107 407.987 103.243 408.546 103.243 409.169C103.243 409.792 103.105 410.351 102.828 410.848C102.556 411.345 102.179 411.735 101.699 412.02C101.219 412.301 100.68 412.442 100.082 412.442ZM100.095 411.538C100.501 411.538 100.865 411.44 101.187 411.245C101.508 411.045 101.76 410.767 101.943 410.408C102.127 410.05 102.218 409.637 102.218 409.169C102.218 408.701 102.127 408.288 101.943 407.93C101.76 407.567 101.508 407.288 101.187 407.093C100.865 406.894 100.501 406.794 100.095 406.794C99.6878 406.794 99.3237 406.894 99.0023 407.093C98.6809 407.288 98.4287 407.567 98.2457 407.93C98.0626 408.288 97.9711 408.701 97.9711 409.169C97.9711 409.637 98.0626 410.05 98.2457 410.408C98.4287 410.767 98.6809 411.045 99.0023 411.245C99.3237 411.44 99.6878 411.538 100.095 411.538ZM107.874 405.982V407.001H107.648C107.078 407.001 106.631 407.172 106.305 407.514C105.98 407.856 105.817 408.337 105.817 408.955V412.295H104.841V406.043H105.817V407.301C105.992 406.877 106.236 406.552 106.549 406.324C106.867 406.096 107.245 405.982 107.684 405.982H107.874ZM109.521 412.295H108.411L111.492 403.747H112.749L115.953 412.295H114.879L114.055 410.024H110.278L109.521 412.295ZM111.968 405.084L110.589 409.145H113.725L112.261 405.084L112.114 404.584L111.968 405.084ZM120.292 405.982V407.001H120.066C119.497 407.001 119.049 407.172 118.724 407.514C118.398 407.856 118.236 408.337 118.236 408.955V412.295H117.259V406.043H118.236V407.301C118.411 406.877 118.655 406.552 118.968 406.324C119.285 406.096 119.664 405.982 120.103 405.982H120.292ZM128.578 405.896C129.033 405.896 129.432 406 129.774 406.208C130.119 406.411 130.384 406.698 130.567 407.069C130.754 407.439 130.848 407.866 130.848 408.351V412.295H129.871V408.394C129.871 407.864 129.745 407.455 129.493 407.166C129.245 406.873 128.891 406.727 128.431 406.727C128.081 406.727 127.778 406.81 127.522 406.977C127.266 407.14 127.068 407.374 126.93 407.679C126.792 407.984 126.723 408.341 126.723 408.748V412.295H125.746V408.394C125.746 407.868 125.616 407.459 125.356 407.166C125.095 406.873 124.733 406.727 124.27 406.727C123.92 406.727 123.619 406.81 123.366 406.977C123.118 407.14 122.927 407.374 122.793 407.679C122.663 407.984 122.598 408.341 122.598 408.748V412.295H121.621V406.043H122.561V406.965C122.756 406.623 123.013 406.36 123.33 406.177C123.651 405.99 124.023 405.896 124.447 405.896C124.902 405.896 125.307 406.006 125.661 406.226C126.015 406.446 126.283 406.749 126.466 407.136C126.678 406.745 126.965 406.442 127.327 406.226C127.693 406.006 128.11 405.896 128.578 405.896ZM135.755 412.442C135.327 412.442 134.91 412.356 134.504 412.185C134.101 412.01 133.763 411.774 133.491 411.477C133.169 411.127 132.923 410.679 132.752 410.134C132.586 409.584 132.502 408.953 132.502 408.241C132.502 407.329 132.645 406.523 132.929 405.823C133.214 405.119 133.611 404.573 134.119 404.187C134.632 403.796 135.216 403.601 135.87 403.601C136.302 403.601 136.717 403.684 137.115 403.851C137.514 404.018 137.85 404.252 138.122 404.553C138.399 404.854 138.576 405.196 138.653 405.579H137.628C137.587 405.367 137.479 405.18 137.304 405.017C137.13 404.85 136.914 404.722 136.658 404.632C136.401 404.539 136.139 404.492 135.87 404.492C135.395 404.492 134.976 404.645 134.613 404.95C134.255 405.255 133.975 405.695 133.771 406.269C133.568 406.843 133.46 407.523 133.448 408.308C133.57 407.999 133.759 407.72 134.015 407.472C134.272 407.219 134.571 407.022 134.912 406.879C135.254 406.737 135.61 406.666 135.98 406.666C136.534 406.666 137.026 406.79 137.457 407.038C137.888 407.282 138.222 407.624 138.458 408.064C138.698 408.499 138.818 408.996 138.818 409.554C138.818 410.115 138.688 410.616 138.427 411.056C138.171 411.491 137.811 411.831 137.347 412.075C136.883 412.32 136.353 412.442 135.755 412.442ZM135.797 411.55C136.184 411.55 136.525 411.467 136.822 411.3C137.123 411.129 137.355 410.893 137.518 410.592C137.685 410.29 137.768 409.946 137.768 409.56C137.768 409.173 137.685 408.829 137.518 408.528C137.351 408.223 137.115 407.985 136.81 407.814C136.505 407.643 136.153 407.557 135.755 407.557C135.356 407.557 135 407.645 134.687 407.82C134.378 407.995 134.135 408.235 133.961 408.54C133.79 408.841 133.704 409.177 133.704 409.548C133.704 409.922 133.794 410.262 133.973 410.567C134.152 410.873 134.4 411.113 134.717 411.288C135.039 411.463 135.399 411.55 135.797 411.55ZM145.038 403.747V409.273H146.368V410.189H145.038V412.295H144.037V410.189H139.705V409.236L144.031 403.747H145.038ZM144.037 405.078L140.772 409.273H144.037V405.078Z" fill="white"/>
<path d="M342.085 71.3921L344.14 74.9538H340.03L342.085 71.3921ZM520.721 125.326V110.608H521.432V125.326H520.721ZM506.839 96.7176H356.323V96.0053H506.839V96.7176ZM341.729 82.1148V74.5976H342.441V82.1148H341.729ZM356.323 96.7176C348.263 96.7176 341.729 90.1797 341.729 82.1148H342.441C342.441 89.7863 348.656 96.0053 356.323 96.0053V96.7176ZM520.721 110.608C520.721 102.936 514.506 96.7176 506.839 96.7176V96.0053C514.898 96.0053 521.432 102.544 521.432 110.608H520.721Z" fill="black"/>
<path d="M342.085 168.066L344.14 171.628H340.03L342.085 168.066ZM478.007 223.018V207.753H478.719V223.018H478.007ZM464.125 193.863H356.323V193.15H464.125V193.863ZM341.729 179.26V171.272H342.441V179.26H341.729ZM356.323 193.863C348.263 193.863 341.729 187.325 341.729 179.26H342.441C342.441 186.932 348.656 193.15 356.323 193.15V193.863ZM478.007 207.753C478.007 200.081 471.792 193.863 464.125 193.863V193.15C472.184 193.15 478.719 199.689 478.719 207.753H478.007Z" fill="black"/>
<path d="M343.102 265.758L345.157 269.319H341.047L343.102 265.758ZM429.191 320.709V305.445H429.903V320.709H429.191ZM415.309 291.554H357.34V290.842H415.309V291.554ZM342.746 276.952V268.963H343.458V276.952H342.746ZM357.34 291.554C349.28 291.554 342.746 285.016 342.746 276.952H343.458C343.458 284.623 349.673 290.842 357.34 290.842V291.554ZM429.191 305.445C429.191 297.773 422.976 291.554 415.309 291.554V290.842C423.368 290.842 429.903 297.38 429.903 305.445H429.191Z" fill="black"/>
<path d="M331.915 71.3921L329.86 74.9538H333.97L331.915 71.3921ZM51.5798 125.326V110.608H50.8679V125.326H51.5798ZM65.4618 96.7176H317.677V96.0053H65.4618V96.7176ZM332.271 82.1148V74.5976H331.559V82.1148H332.271ZM317.677 96.7176C325.737 96.7176 332.271 90.1797 332.271 82.1148H331.559C331.559 89.7863 325.344 96.0053 317.677 96.0053V96.7176ZM51.5798 110.608C51.5798 102.936 57.7949 96.7176 65.4618 96.7176V96.0053C57.4018 96.0053 50.8679 102.544 50.8679 110.608H51.5798Z" fill="black"/>
<path d="M342.085 168.066L344.14 171.628H340.03L342.085 168.066ZM625.471 223.018V207.753H626.183V223.018H625.471ZM611.589 193.863H356.323V193.15H611.589V193.863ZM341.729 179.26V171.272H342.441V179.26H341.729ZM356.323 193.863C348.263 193.863 341.729 187.325 341.729 179.26H342.441C342.441 186.932 348.656 193.15 356.323 193.15V193.863ZM625.471 207.753C625.471 200.081 619.256 193.863 611.589 193.863V193.15C619.649 193.15 626.183 199.689 626.183 207.753H625.471Z" fill="black"/>
<path d="M343.102 265.758L345.157 269.319H341.047L343.102 265.758ZM600.046 320.709V305.445H600.758V320.709H600.046ZM586.164 291.554H357.34V290.842H586.164V291.554ZM342.746 276.952V268.963H343.458V276.952H342.746ZM357.34 291.554C349.28 291.554 342.746 285.016 342.746 276.952H343.458C343.458 284.623 349.673 290.842 357.34 290.842V291.554ZM600.046 305.445C600.046 297.773 593.831 291.554 586.164 291.554V290.842C594.224 290.842 600.758 297.38 600.758 305.445H600.046Z" fill="black"/>
<path d="M331.915 71.3921L329.86 74.9538H333.97L331.915 71.3921ZM178.704 125.326V110.608H177.992V125.326H178.704ZM192.586 96.7176H317.677V96.0053H192.586V96.7176ZM332.271 82.1148V74.5976H331.559V82.1148H332.271ZM317.677 96.7176C325.737 96.7176 332.271 90.1797 332.271 82.1148H331.559C331.559 89.7863 325.344 96.0053 317.677 96.0053V96.7176ZM178.704 110.608C178.704 102.936 184.919 96.7176 192.586 96.7176V96.0053C184.527 96.0053 177.992 102.544 177.992 110.608H178.704Z" fill="black"/>
<path d="M331.915 168.066L329.86 171.628H333.97L331.915 168.066ZM149.211 222V207.282H148.5V222H149.211ZM163.093 193.392H317.677V192.679H163.093V193.392ZM332.271 178.789V171.272H331.559V178.789H332.271ZM317.677 193.392C325.737 193.392 332.271 186.853 332.271 178.789H331.559C331.559 186.461 325.344 192.679 317.677 192.679V193.392ZM149.211 207.282C149.211 199.61 155.426 193.392 163.093 193.392V192.679C155.034 192.679 148.5 199.217 148.5 207.282H149.211Z" fill="black"/>
<path d="M332.932 265.758L330.877 269.319H334.987L332.932 265.758ZM88.1916 319.692V304.974H87.4797V319.692H88.1916ZM102.074 291.083H318.694V290.371H102.074V291.083ZM333.288 276.48V268.963H332.576V276.48H333.288ZM318.694 291.083C326.754 291.083 333.288 284.545 333.288 276.48H332.576C332.576 284.152 326.361 290.371 318.694 290.371V291.083ZM88.1916 304.974C88.1916 297.302 94.4065 291.083 102.074 291.083V290.371C94.0139 290.371 87.4797 296.909 87.4797 304.974H88.1916Z" fill="black"/>
<path d="M332.932 265.758L330.877 269.319H334.987L332.932 265.758ZM259.047 320.709V305.445H258.335V320.709H259.047ZM272.929 291.554H318.694V290.842H272.929V291.554ZM333.288 276.952V268.963H332.576V276.952H333.288ZM318.694 291.554C326.754 291.554 333.288 285.016 333.288 276.952H332.576C332.576 284.623 326.361 290.842 318.694 290.842V291.554ZM259.047 305.445C259.047 297.773 265.262 291.554 272.929 291.554V290.842C264.869 290.842 258.335 297.38 258.335 305.445H259.047Z" fill="black"/>
<path d="M337 71.3921L334.945 74.9538H339.055L337 71.3921ZM337.356 125.326V74.5976H336.644V125.326H337.356Z" fill="black"/>
<path d="M337 168.066L334.945 171.628H339.055L337 168.066ZM337.356 223.018V171.272H336.644V223.018H337.356Z" fill="black"/>
<path d="M40.6065 149.52L38.446 142.429H39.5909L41.1235 147.858H41.1974L42.7116 142.429H43.875L45.3707 147.839H45.4446L46.9772 142.429H48.1221L45.9616 149.52H44.8906L43.3395 144.072H43.2287L41.6775 149.52H40.6065ZM52.2943 149.668C51.611 149.668 51.0217 149.517 50.5262 149.215C50.0337 148.91 49.6536 148.486 49.3859 147.941C49.1212 147.393 48.9889 146.756 48.9889 146.03C48.9889 145.303 49.1212 144.663 49.3859 144.109C49.6536 143.552 50.026 143.118 50.5031 142.807C50.9832 142.494 51.5433 142.337 52.1835 142.337C52.5528 142.337 52.9175 142.398 53.2776 142.521C53.6377 142.644 53.9654 142.844 54.2609 143.121C54.5563 143.395 54.7918 143.758 54.9672 144.211C55.1426 144.663 55.2303 145.22 55.2303 145.882V146.344H49.7644V145.402H54.1224C54.1224 145.002 54.0424 144.645 53.8823 144.331C53.7254 144.017 53.5007 143.769 53.2083 143.588C52.919 143.406 52.5774 143.315 52.1835 143.315C51.7495 143.315 51.374 143.423 51.0571 143.638C50.7431 143.851 50.5015 144.128 50.3323 144.469C50.163 144.811 50.0784 145.177 50.0784 145.568V146.196C50.0784 146.731 50.1707 147.185 50.3553 147.558C50.5431 147.927 50.8031 148.209 51.1355 148.403C51.4679 148.593 51.8542 148.689 52.2943 148.689C52.5805 148.689 52.839 148.649 53.0698 148.569C53.3037 148.486 53.5053 148.363 53.6746 148.2C53.8439 148.033 53.9747 147.827 54.067 147.581L55.1196 147.876C55.0088 148.233 54.8226 148.547 54.561 148.818C54.2994 149.086 53.9762 149.295 53.5915 149.446C53.2068 149.594 52.7744 149.668 52.2943 149.668ZM57.0354 149.52V140.065H58.1249V143.555H58.2172C58.2972 143.432 58.408 143.275 58.5496 143.084C58.6942 142.891 58.9004 142.718 59.1682 142.567C59.439 142.414 59.8053 142.337 60.2669 142.337C60.864 142.337 61.3903 142.486 61.8458 142.784C62.3013 143.083 62.6567 143.506 62.9122 144.054C63.1676 144.602 63.2953 145.248 63.2953 145.993C63.2953 146.744 63.1676 147.395 62.9122 147.946C62.6567 148.493 62.3028 148.918 61.8504 149.22C61.398 149.518 60.8763 149.668 60.2854 149.668C59.8299 149.668 59.4652 149.592 59.1913 149.441C58.9174 149.287 58.7066 149.114 58.5588 148.92C58.4111 148.723 58.2972 148.56 58.2172 148.43H58.0879V149.52H57.0354ZM58.1064 145.974C58.1064 146.51 58.1849 146.982 58.3419 147.392C58.4988 147.798 58.7281 148.116 59.0297 148.347C59.3313 148.575 59.7006 148.689 60.1377 148.689C60.5932 148.689 60.9732 148.569 61.2779 148.329C61.5857 148.086 61.8165 147.759 61.9704 147.35C62.1274 146.938 62.2058 146.479 62.2058 145.974C62.2058 145.476 62.1289 145.026 61.975 144.626C61.8242 144.223 61.5949 143.905 61.2872 143.671C60.9825 143.434 60.5993 143.315 60.1377 143.315C59.6945 143.315 59.3221 143.428 59.0205 143.652C58.7189 143.874 58.4911 144.185 58.3372 144.585C58.1834 144.982 58.1064 145.445 58.1064 145.974Z" fill="black"/>
</g>
</g>
<defs>
<radialGradient id="paint0_radial_2002_16" cx="0" cy="0" r="1" gradientUnits="userSpaceOnUse" gradientTransform="translate(272.587 166.644) scale(118.965 150.654)">
<stop stop-color="#EB4857"/>
<stop offset="0.5" stop-color="#C611E0"/>
<stop offset="1" stop-color="#7F52FF"/>
</radialGradient>
<radialGradient id="paint1_radial_2002_16" cx="0" cy="0" r="1" gradientUnits="userSpaceOnUse" gradientTransform="translate(275.638 264.336) scale(118.965 150.654)">
<stop stop-color="#EB4857"/>
<stop offset="0.5" stop-color="#C611E0"/>
<stop offset="1" stop-color="#7F52FF"/>
</radialGradient>
<radialGradient id="paint2_radial_2002_16" cx="0" cy="0" r="1" gradientUnits="userSpaceOnUse" gradientTransform="translate(30.5423 365.081) scale(118.965 150.654)">
<stop stop-color="#EB4857"/>
<stop offset="0.5" stop-color="#C611E0"/>
<stop offset="1" stop-color="#7F52FF"/>
</radialGradient>
<radialGradient id="paint3_radial_2002_16" cx="0" cy="0" r="1" gradientUnits="userSpaceOnUse" gradientTransform="translate(459.715 166.644) scale(118.965 150.654)">
<stop stop-color="#EB4857"/>
<stop offset="0.5" stop-color="#C611E0"/>
<stop offset="1" stop-color="#7F52FF"/>
</radialGradient>
<radialGradient id="paint4_radial_2002_16" cx="0" cy="0" r="1" gradientUnits="userSpaceOnUse" gradientTransform="translate(236.774 70.1696) scale(195.302 199.616)">
<stop stop-color="#EB4857"/>
<stop offset="0.5" stop-color="#C611E0"/>
<stop offset="1" stop-color="#7F52FF"/>
</radialGradient>
<radialGradient id="paint5_radial_2002_16" cx="0" cy="0" r="1" gradientUnits="userSpaceOnUse" gradientTransform="translate(30.5423 392.311) scale(118.965 90.3921)">
<stop stop-color="#EB4857"/>
<stop offset="0.5" stop-color="#C611E0"/>
<stop offset="1" stop-color="#7F52FF"/>
</radialGradient>
<radialGradient id="paint6_radial_2002_16" cx="0" cy="0" r="1" gradientUnits="userSpaceOnUse" gradientTransform="translate(30.5423 420.804) scale(118.965 90.3921)">
<stop stop-color="#EB4857"/>
<stop offset="0.5" stop-color="#C611E0"/>
<stop offset="1" stop-color="#7F52FF"/>
</radialGradient>
<clipPath id="clip0_2002_16">
<rect width="696" height="449" fill="white"/>
</clipPath>
<clipPath id="clip1_2002_16">
<rect width="718" height="462" fill="white" transform="translate(-22 -9)"/>
</clipPath>
</defs>
</svg>
