<svg width="706" height="349" viewBox="0 0 706 349" fill="none" xmlns="http://www.w3.org/2000/svg">
<rect width="706" height="349" fill="white"/>
<rect x="253" y="24" width="197" height="53" rx="12" fill="#585858"/>
<path d="M315.813 53.144C315.233 53.144 314.709 53.004 314.241 52.724C313.773 52.444 313.405 52.06 313.137 51.572C312.873 51.08 312.741 50.532 312.741 49.928C312.741 49.324 312.873 48.778 313.137 48.29C313.405 47.798 313.773 47.412 314.241 47.132C314.709 46.852 315.233 46.712 315.813 46.712C316.309 46.712 316.765 46.81 317.181 47.006C317.597 47.198 317.933 47.466 318.189 47.81C318.449 48.15 318.599 48.532 318.639 48.956H317.679C317.631 48.692 317.517 48.454 317.337 48.242C317.161 48.03 316.939 47.864 316.671 47.744C316.407 47.624 316.121 47.564 315.813 47.564C315.421 47.564 315.067 47.668 314.751 47.876C314.439 48.08 314.193 48.362 314.013 48.722C313.837 49.082 313.749 49.484 313.749 49.928C313.749 50.372 313.837 50.774 314.013 51.134C314.193 51.494 314.439 51.776 314.751 51.98C315.067 52.184 315.421 52.286 315.813 52.286C316.121 52.286 316.407 52.228 316.671 52.112C316.939 51.996 317.161 51.838 317.337 51.638C317.517 51.434 317.631 51.208 317.679 50.96H318.639C318.603 51.372 318.455 51.744 318.195 52.076C317.939 52.408 317.603 52.67 317.187 52.862C316.771 53.05 316.313 53.144 315.813 53.144ZM322.786 53.144C322.202 53.144 321.676 53.006 321.208 52.73C320.74 52.45 320.372 52.066 320.104 51.578C319.836 51.09 319.702 50.54 319.702 49.928C319.702 49.316 319.836 48.766 320.104 48.278C320.372 47.79 320.742 47.408 321.214 47.132C321.686 46.852 322.214 46.712 322.798 46.712C323.382 46.712 323.91 46.852 324.382 47.132C324.854 47.408 325.224 47.79 325.492 48.278C325.76 48.766 325.894 49.316 325.894 49.928C325.894 50.54 325.758 51.09 325.486 51.578C325.218 52.066 324.848 52.45 324.376 52.73C323.904 53.006 323.374 53.144 322.786 53.144ZM322.798 52.256C323.198 52.256 323.556 52.16 323.872 51.968C324.188 51.772 324.436 51.498 324.616 51.146C324.796 50.794 324.886 50.388 324.886 49.928C324.886 49.468 324.796 49.062 324.616 48.71C324.436 48.354 324.188 48.08 323.872 47.888C323.556 47.692 323.198 47.594 322.798 47.594C322.398 47.594 322.04 47.692 321.724 47.888C321.408 48.08 321.16 48.354 320.98 48.71C320.8 49.062 320.71 49.468 320.71 49.928C320.71 50.388 320.8 50.794 320.98 51.146C321.16 51.498 321.408 51.772 321.724 51.968C322.04 52.16 322.398 52.256 322.798 52.256ZM334.306 46.712C334.754 46.712 335.146 46.814 335.482 47.018C335.822 47.218 336.082 47.5 336.262 47.864C336.446 48.228 336.538 48.648 336.538 49.124V53H335.578V49.166C335.578 48.646 335.454 48.244 335.206 47.96C334.962 47.672 334.614 47.528 334.162 47.528C333.818 47.528 333.52 47.61 333.268 47.774C333.016 47.934 332.822 48.164 332.686 48.464C332.55 48.764 332.482 49.114 332.482 49.514V53H331.522V49.166C331.522 48.65 331.394 48.248 331.138 47.96C330.882 47.672 330.526 47.528 330.07 47.528C329.726 47.528 329.43 47.61 329.182 47.774C328.938 47.934 328.75 48.164 328.618 48.464C328.49 48.764 328.426 49.114 328.426 49.514V53H327.466V46.856H328.39V47.762C328.582 47.426 328.834 47.168 329.146 46.988C329.462 46.804 329.828 46.712 330.244 46.712C330.692 46.712 331.09 46.82 331.438 47.036C331.786 47.252 332.05 47.55 332.23 47.93C332.438 47.546 332.72 47.248 333.076 47.036C333.436 46.82 333.846 46.712 334.306 46.712ZM345.298 46.712C345.746 46.712 346.138 46.814 346.474 47.018C346.814 47.218 347.074 47.5 347.254 47.864C347.438 48.228 347.53 48.648 347.53 49.124V53H346.57V49.166C346.57 48.646 346.446 48.244 346.198 47.96C345.954 47.672 345.606 47.528 345.154 47.528C344.81 47.528 344.512 47.61 344.26 47.774C344.008 47.934 343.814 48.164 343.678 48.464C343.542 48.764 343.474 49.114 343.474 49.514V53H342.514V49.166C342.514 48.65 342.386 48.248 342.13 47.96C341.874 47.672 341.518 47.528 341.062 47.528C340.718 47.528 340.422 47.61 340.174 47.774C339.93 47.934 339.742 48.164 339.61 48.464C339.482 48.764 339.418 49.114 339.418 49.514V53H338.458V46.856H339.382V47.762C339.574 47.426 339.826 47.168 340.138 46.988C340.454 46.804 340.82 46.712 341.236 46.712C341.684 46.712 342.082 46.82 342.43 47.036C342.778 47.252 343.042 47.55 343.222 47.93C343.43 47.546 343.712 47.248 344.068 47.036C344.428 46.82 344.838 46.712 345.298 46.712ZM352.036 53.144C351.452 53.144 350.926 53.006 350.458 52.73C349.99 52.45 349.622 52.066 349.354 51.578C349.086 51.09 348.952 50.54 348.952 49.928C348.952 49.316 349.086 48.766 349.354 48.278C349.622 47.79 349.992 47.408 350.464 47.132C350.936 46.852 351.464 46.712 352.048 46.712C352.632 46.712 353.16 46.852 353.632 47.132C354.104 47.408 354.474 47.79 354.742 48.278C355.01 48.766 355.144 49.316 355.144 49.928C355.144 50.54 355.008 51.09 354.736 51.578C354.468 52.066 354.098 52.45 353.626 52.73C353.154 53.006 352.624 53.144 352.036 53.144ZM352.048 52.256C352.448 52.256 352.806 52.16 353.122 51.968C353.438 51.772 353.686 51.498 353.866 51.146C354.046 50.794 354.136 50.388 354.136 49.928C354.136 49.468 354.046 49.062 353.866 48.71C353.686 48.354 353.438 48.08 353.122 47.888C352.806 47.692 352.448 47.594 352.048 47.594C351.648 47.594 351.29 47.692 350.974 47.888C350.658 48.08 350.41 48.354 350.23 48.71C350.05 49.062 349.96 49.468 349.96 49.928C349.96 50.388 350.05 50.794 350.23 51.146C350.41 51.498 350.658 51.772 350.974 51.968C351.29 52.16 351.648 52.256 352.048 52.256ZM359.608 46.712C360.068 46.712 360.47 46.812 360.814 47.012C361.158 47.208 361.422 47.488 361.606 47.852C361.794 48.216 361.888 48.64 361.888 49.124V53H360.928V49.196C360.928 48.672 360.792 48.264 360.52 47.972C360.252 47.676 359.878 47.528 359.398 47.528C359.054 47.528 358.752 47.602 358.492 47.75C358.232 47.894 358.03 48.102 357.886 48.374C357.746 48.646 357.676 48.966 357.676 49.334V53H356.716V46.856H357.64V47.798C357.836 47.438 358.1 47.168 358.432 46.988C358.764 46.804 359.156 46.712 359.608 46.712ZM365.035 53H364.045V44.6H365.317L368.299 51.47L368.461 51.914L368.617 51.47L371.521 44.6H372.829V53H371.833V46.028L368.875 53H368.005L365.035 46.064V53ZM377.465 46.712C377.929 46.712 378.335 46.798 378.683 46.97C379.035 47.138 379.307 47.384 379.499 47.708C379.691 48.032 379.787 48.422 379.787 48.878V53H378.851V52.088C378.663 52.432 378.393 52.694 378.041 52.874C377.693 53.054 377.275 53.144 376.787 53.144C376.383 53.144 376.023 53.07 375.707 52.922C375.395 52.77 375.151 52.56 374.975 52.292C374.803 52.024 374.717 51.718 374.717 51.374C374.717 51.054 374.797 50.76 374.957 50.492C375.121 50.22 375.347 49.998 375.635 49.826C375.923 49.654 376.249 49.55 376.613 49.514L378.407 49.334C378.539 49.322 378.643 49.266 378.719 49.166C378.799 49.066 378.839 48.922 378.839 48.734C378.839 48.49 378.779 48.276 378.659 48.092C378.543 47.908 378.379 47.766 378.167 47.666C377.959 47.566 377.717 47.516 377.441 47.516C377.169 47.516 376.921 47.562 376.697 47.654C376.473 47.746 376.291 47.872 376.151 48.032C376.011 48.192 375.929 48.368 375.905 48.56H374.969C375.005 48.22 375.137 47.91 375.365 47.63C375.593 47.346 375.891 47.122 376.259 46.958C376.627 46.794 377.029 46.712 377.465 46.712ZM376.967 52.394C377.331 52.394 377.655 52.324 377.939 52.184C378.223 52.04 378.443 51.84 378.599 51.584C378.759 51.324 378.839 51.03 378.839 50.702V50.006L376.745 50.222C376.425 50.254 376.167 50.372 375.971 50.576C375.775 50.78 375.677 51.028 375.677 51.32C375.677 51.528 375.731 51.714 375.839 51.878C375.947 52.038 376.099 52.164 376.295 52.256C376.491 52.348 376.715 52.394 376.967 52.394ZM382.672 53H381.712V46.856H382.672V53ZM381.646 45.74V44.6H382.738V45.74H381.646ZM387.627 46.712C388.087 46.712 388.489 46.812 388.833 47.012C389.177 47.208 389.441 47.488 389.625 47.852C389.813 48.216 389.907 48.64 389.907 49.124V53H388.947V49.196C388.947 48.672 388.811 48.264 388.539 47.972C388.271 47.676 387.897 47.528 387.417 47.528C387.073 47.528 386.771 47.602 386.511 47.75C386.251 47.894 386.049 48.102 385.905 48.374C385.765 48.646 385.695 48.966 385.695 49.334V53H384.735V46.856H385.659V47.798C385.855 47.438 386.119 47.168 386.451 46.988C386.783 46.804 387.175 46.712 387.627 46.712Z" fill="white"/>
<path d="M36 300C36 293.373 41.3726 288 48 288H134C140.627 288 146 293.373 146 300V312C146 318.627 140.627 324 134 324H48C41.3726 324 36 318.627 36 312V300Z" fill="url(#paint0_radial_1_4)"/>
<rect x="297" y="288" width="110" height="36" rx="12" fill="url(#paint1_radial_1_4)"/>
<rect x="562" y="288" width="110" height="36" rx="12" fill="url(#paint2_radial_1_4)"/>
<rect x="514" y="165" width="110" height="36" rx="12" fill="url(#paint3_radial_1_4)"/>
<path d="M544.476 188.92V188.008H545.364C545.528 188.008 545.658 187.958 545.754 187.858C545.854 187.758 545.904 187.626 545.904 187.462V180.856H546.864V187.54C546.864 187.816 546.804 188.058 546.684 188.266C546.568 188.474 546.4 188.634 546.18 188.746C545.964 188.862 545.712 188.92 545.424 188.92H544.476ZM545.838 179.74V178.6H546.93V179.74H545.838ZM551.496 187H550.476L548.082 180.856H549.126L551.022 185.878L552.882 180.856H553.89L551.496 187ZM562.024 180.712C562.472 180.712 562.864 180.814 563.2 181.018C563.54 181.218 563.8 181.5 563.98 181.864C564.164 182.228 564.256 182.648 564.256 183.124V187H563.296V183.166C563.296 182.646 563.172 182.244 562.924 181.96C562.68 181.672 562.332 181.528 561.88 181.528C561.536 181.528 561.238 181.61 560.986 181.774C560.734 181.934 560.54 182.164 560.404 182.464C560.268 182.764 560.2 183.114 560.2 183.514V187H559.24V183.166C559.24 182.65 559.112 182.248 558.856 181.96C558.6 181.672 558.244 181.528 557.788 181.528C557.444 181.528 557.148 181.61 556.9 181.774C556.656 181.934 556.468 182.164 556.336 182.464C556.208 182.764 556.144 183.114 556.144 183.514V187H555.184V180.856H556.108V181.762C556.3 181.426 556.552 181.168 556.864 180.988C557.18 180.804 557.546 180.712 557.962 180.712C558.41 180.712 558.808 180.82 559.156 181.036C559.504 181.252 559.768 181.55 559.948 181.93C560.156 181.546 560.438 181.248 560.794 181.036C561.154 180.82 561.564 180.712 562.024 180.712ZM567.407 187H566.417V178.6H567.689L570.671 185.47L570.833 185.914L570.989 185.47L573.893 178.6H575.201V187H574.205V180.028L571.247 187H570.377L567.407 180.064V187ZM579.837 180.712C580.301 180.712 580.707 180.798 581.055 180.97C581.407 181.138 581.679 181.384 581.871 181.708C582.063 182.032 582.159 182.422 582.159 182.878V187H581.223V186.088C581.035 186.432 580.765 186.694 580.413 186.874C580.065 187.054 579.647 187.144 579.159 187.144C578.755 187.144 578.395 187.07 578.079 186.922C577.767 186.77 577.523 186.56 577.347 186.292C577.175 186.024 577.089 185.718 577.089 185.374C577.089 185.054 577.169 184.76 577.329 184.492C577.493 184.22 577.719 183.998 578.007 183.826C578.295 183.654 578.621 183.55 578.985 183.514L580.779 183.334C580.911 183.322 581.015 183.266 581.091 183.166C581.171 183.066 581.211 182.922 581.211 182.734C581.211 182.49 581.151 182.276 581.031 182.092C580.915 181.908 580.751 181.766 580.539 181.666C580.331 181.566 580.089 181.516 579.813 181.516C579.541 181.516 579.293 181.562 579.069 181.654C578.845 181.746 578.663 181.872 578.523 182.032C578.383 182.192 578.301 182.368 578.277 182.56H577.341C577.377 182.22 577.509 181.91 577.737 181.63C577.965 181.346 578.263 181.122 578.631 180.958C578.999 180.794 579.401 180.712 579.837 180.712ZM579.339 186.394C579.703 186.394 580.027 186.324 580.311 186.184C580.595 186.04 580.815 185.84 580.971 185.584C581.131 185.324 581.211 185.03 581.211 184.702V184.006L579.117 184.222C578.797 184.254 578.539 184.372 578.343 184.576C578.147 184.78 578.049 185.028 578.049 185.32C578.049 185.528 578.103 185.714 578.211 185.878C578.319 186.038 578.471 186.164 578.667 186.256C578.863 186.348 579.087 186.394 579.339 186.394ZM585.043 187H584.083V180.856H585.043V187ZM584.017 179.74V178.6H585.109V179.74H584.017ZM589.998 180.712C590.458 180.712 590.86 180.812 591.204 181.012C591.548 181.208 591.812 181.488 591.996 181.852C592.184 182.216 592.278 182.64 592.278 183.124V187H591.318V183.196C591.318 182.672 591.182 182.264 590.91 181.972C590.642 181.676 590.268 181.528 589.788 181.528C589.444 181.528 589.142 181.602 588.882 181.75C588.622 181.894 588.42 182.102 588.276 182.374C588.136 182.646 588.066 182.966 588.066 183.334V187H587.106V180.856H588.03V181.798C588.226 181.438 588.49 181.168 588.822 180.988C589.154 180.804 589.546 180.712 589.998 180.712Z" fill="white"/>
<rect x="298" y="165" width="110" height="36" rx="12" fill="url(#paint4_radial_1_4)"/>
<path d="M327.189 180.856H328.221L329.679 185.272L329.817 185.794L329.943 185.272L331.449 180.856H332.367L333.897 185.272L334.035 185.794L334.161 185.272L335.589 180.856H336.597L334.473 187H333.525L332.025 182.38L331.911 181.954L331.809 182.368L330.243 187H329.307L327.189 180.856ZM340.387 187.144C339.807 187.144 339.283 187.006 338.815 186.73C338.347 186.454 337.979 186.07 337.711 185.578C337.443 185.086 337.309 184.532 337.309 183.916C337.309 183.316 337.445 182.772 337.717 182.284C337.989 181.792 338.359 181.408 338.827 181.132C339.299 180.852 339.819 180.712 340.387 180.712C340.971 180.712 341.489 180.848 341.941 181.12C342.393 181.388 342.745 181.766 342.997 182.254C343.249 182.742 343.375 183.3 343.375 183.928V184.144H338.287C338.319 184.572 338.427 184.948 338.611 185.272C338.795 185.592 339.039 185.84 339.343 186.016C339.647 186.188 339.995 186.274 340.387 186.274C340.759 186.274 341.089 186.202 341.377 186.058C341.665 185.914 341.901 185.708 342.085 185.44H343.153C342.925 185.972 342.569 186.39 342.085 186.694C341.601 186.994 341.035 187.144 340.387 187.144ZM342.373 183.382C342.313 183.018 342.191 182.7 342.007 182.428C341.827 182.156 341.597 181.946 341.317 181.798C341.041 181.65 340.731 181.576 340.387 181.576C340.027 181.576 339.701 181.65 339.409 181.798C339.117 181.946 338.877 182.156 338.689 182.428C338.501 182.7 338.377 183.018 338.317 183.382H342.373ZM344.908 178.6H345.868V181.894C346.1 181.522 346.41 181.232 346.798 181.024C347.186 180.816 347.628 180.712 348.124 180.712C348.696 180.712 349.204 180.848 349.648 181.12C350.096 181.388 350.444 181.766 350.692 182.254C350.944 182.742 351.07 183.3 351.07 183.928C351.07 184.556 350.944 185.114 350.692 185.602C350.444 186.09 350.096 186.47 349.648 186.742C349.204 187.01 348.696 187.144 348.124 187.144C347.628 187.144 347.186 187.04 346.798 186.832C346.41 186.624 346.1 186.334 345.868 185.962V187H344.908V178.6ZM347.974 186.274C348.382 186.274 348.744 186.176 349.06 185.98C349.376 185.78 349.622 185.504 349.798 185.152C349.974 184.796 350.062 184.388 350.062 183.928C350.062 183.468 349.974 183.062 349.798 182.71C349.622 182.354 349.376 182.078 349.06 181.882C348.744 181.682 348.382 181.582 347.974 181.582C347.582 181.582 347.23 181.672 346.918 181.852C346.61 182.032 346.364 182.284 346.18 182.608C345.996 182.932 345.892 183.306 345.868 183.73V184.126C345.892 184.55 345.996 184.924 346.18 185.248C346.364 185.572 346.61 185.824 346.918 186.004C347.23 186.184 347.582 186.274 347.974 186.274ZM352.746 178.6H353.988L357 185.332L357.156 185.758L357.306 185.332L360.264 178.6H361.53V187H360.534V180.208L357.564 187H356.73L353.736 180.244V187H352.746V178.6ZM365.86 180.712C366.336 180.712 366.746 180.8 367.09 180.976C367.438 181.148 367.704 181.396 367.888 181.72C368.076 182.044 368.17 182.428 368.17 182.872V187H367.222V186.118C367.026 186.446 366.76 186.7 366.424 186.88C366.092 187.056 365.71 187.144 365.278 187.144C364.886 187.144 364.532 187.068 364.216 186.916C363.904 186.76 363.66 186.548 363.484 186.28C363.308 186.008 363.22 185.704 363.22 185.368C363.22 185.044 363.304 184.744 363.472 184.468C363.64 184.188 363.872 183.96 364.168 183.784C364.464 183.604 364.798 183.494 365.17 183.454L366.778 183.274C367.002 183.246 367.146 183.124 367.21 182.908V182.752C367.21 182.384 367.088 182.092 366.844 181.876C366.6 181.66 366.272 181.552 365.86 181.552C365.584 181.552 365.34 181.596 365.128 181.684C364.92 181.768 364.754 181.882 364.63 182.026C364.506 182.17 364.428 182.324 364.396 182.488H363.436C363.488 182.156 363.62 181.856 363.832 181.588C364.048 181.316 364.33 181.102 364.678 180.946C365.026 180.79 365.42 180.712 365.86 180.712ZM364.216 185.32C364.216 185.52 364.27 185.698 364.378 185.854C364.486 186.01 364.636 186.132 364.828 186.22C365.024 186.304 365.248 186.346 365.5 186.346C365.832 186.346 366.128 186.278 366.388 186.142C366.648 186.002 366.85 185.808 366.994 185.56C367.138 185.312 367.21 185.026 367.21 184.702V183.952L365.308 184.162C365.096 184.186 364.906 184.252 364.738 184.36C364.574 184.468 364.446 184.606 364.354 184.774C364.262 184.942 364.216 185.124 364.216 185.32ZM370.01 180.856H370.97V187H370.01V180.856ZM369.962 178.6H371.018V179.692H369.962V178.6ZM372.987 180.856H373.911V181.852C374.115 181.488 374.391 181.208 374.739 181.012C375.087 180.812 375.489 180.712 375.945 180.712C376.385 180.712 376.775 180.806 377.115 180.994C377.455 181.182 377.721 181.46 377.913 181.828C378.109 182.192 378.207 182.63 378.207 183.142V187H377.247V183.238C377.247 182.706 377.109 182.292 376.833 181.996C376.557 181.7 376.177 181.552 375.693 181.552C375.349 181.552 375.045 181.628 374.781 181.78C374.517 181.932 374.311 182.146 374.163 182.422C374.019 182.694 373.947 183.006 373.947 183.358V187H372.987V180.856Z" fill="white"/>
<path d="M54.449 310H53.489V301.6H54.449V310ZM57.4725 310H56.5125V303.856H57.4725V310ZM56.4465 302.74V301.6H57.5385V302.74H56.4465ZM62.4279 303.712C62.8879 303.712 63.2899 303.812 63.6339 304.012C63.9779 304.208 64.2419 304.488 64.4259 304.852C64.6139 305.216 64.7079 305.64 64.7079 306.124V310H63.7479V306.196C63.7479 305.672 63.6119 305.264 63.3399 304.972C63.0719 304.676 62.6979 304.528 62.2179 304.528C61.8739 304.528 61.5719 304.602 61.3119 304.75C61.0519 304.894 60.8499 305.102 60.7059 305.374C60.5659 305.646 60.4959 305.966 60.4959 306.334V310H59.5359V303.856H60.4599V304.798C60.6559 304.438 60.9199 304.168 61.2519 303.988C61.5839 303.804 61.9759 303.712 62.4279 303.712ZM70.6938 303.856H71.6537V310H70.7298V309.058C70.5338 309.418 70.2698 309.69 69.9378 309.874C69.6058 310.054 69.2138 310.144 68.7617 310.144C68.3018 310.144 67.8998 310.046 67.5558 309.85C67.2118 309.65 66.9458 309.368 66.7578 309.004C66.5738 308.64 66.4818 308.216 66.4818 307.732V303.856H67.4418V307.66C67.4418 308.184 67.5758 308.594 67.8438 308.89C68.1158 309.182 68.4918 309.328 68.9718 309.328C69.3158 309.328 69.6178 309.256 69.8778 309.112C70.1378 308.964 70.3378 308.754 70.4778 308.482C70.6218 308.21 70.6938 307.89 70.6938 307.522V303.856ZM76.2716 306.85L78.5036 310H77.4116L75.7196 307.582L74.0456 310H72.9956L75.2336 306.832L73.1156 303.856H74.2076L75.7796 306.1L77.3336 303.856H78.3836L76.2716 306.85ZM80.3365 310H79.1965L82.1125 305.734L79.3165 301.6H80.4805L82.4545 304.612L82.7125 304.978L83.1265 304.36L84.9565 301.6H86.0965L83.2765 305.71L86.2165 310H85.0525L82.9345 306.856L82.6645 306.466L82.2145 307.144L80.3365 310ZM90.5415 310.144C90.1215 310.144 89.7115 310.06 89.3115 309.892C88.9155 309.72 88.5835 309.488 88.3155 309.196C87.9995 308.852 87.7575 308.412 87.5895 307.876C87.4255 307.336 87.3435 306.716 87.3435 306.016C87.3435 305.12 87.4835 304.328 87.7635 303.64C88.0435 302.948 88.4335 302.412 88.9335 302.032C89.4375 301.648 90.0115 301.456 90.6555 301.456C91.0795 301.456 91.4875 301.538 91.8795 301.702C92.2715 301.866 92.6015 302.096 92.8695 302.392C93.1415 302.688 93.3155 303.024 93.3915 303.4H92.3835C92.3435 303.192 92.2375 303.008 92.0655 302.848C91.8935 302.684 91.6815 302.558 91.4295 302.47C91.1775 302.378 90.9195 302.332 90.6555 302.332C90.1875 302.332 89.7755 302.482 89.4195 302.782C89.0675 303.082 88.7915 303.514 88.5915 304.078C88.3915 304.642 88.2855 305.31 88.2735 306.082C88.3935 305.778 88.5795 305.504 88.8315 305.26C89.0835 305.012 89.3775 304.818 89.7135 304.678C90.0495 304.538 90.3995 304.468 90.7635 304.468C91.3075 304.468 91.7915 304.59 92.2155 304.834C92.6395 305.074 92.9675 305.41 93.1995 305.842C93.4355 306.27 93.5535 306.758 93.5535 307.306C93.5535 307.858 93.4255 308.35 93.1695 308.782C92.9175 309.21 92.5635 309.544 92.1075 309.784C91.6515 310.024 91.1295 310.144 90.5415 310.144ZM90.5835 309.268C90.9635 309.268 91.2995 309.186 91.5915 309.022C91.8875 308.854 92.1155 308.622 92.2755 308.326C92.4395 308.03 92.5215 307.692 92.5215 307.312C92.5215 306.932 92.4395 306.594 92.2755 306.298C92.1115 305.998 91.8795 305.764 91.5795 305.596C91.2795 305.428 90.9335 305.344 90.5415 305.344C90.1495 305.344 89.7995 305.43 89.4915 305.602C89.1875 305.774 88.9495 306.01 88.7775 306.31C88.6095 306.606 88.5255 306.936 88.5255 307.3C88.5255 307.668 88.6135 308.002 88.7895 308.302C88.9655 308.602 89.2095 308.838 89.5215 309.01C89.8375 309.182 90.1915 309.268 90.5835 309.268ZM99.6698 301.6V307.03H100.978V307.93H99.6698V310H98.6858V307.93H94.4258V306.994L98.6798 301.6H99.6698ZM98.6858 302.908L95.4758 307.03H98.6858V302.908ZM103.785 310H102.795V301.6H104.067L107.049 308.47L107.211 308.914L107.367 308.47L110.271 301.6H111.579V310H110.583V303.028L107.625 310H106.755L103.785 303.064V310ZM116.215 303.712C116.679 303.712 117.085 303.798 117.433 303.97C117.785 304.138 118.057 304.384 118.249 304.708C118.441 305.032 118.537 305.422 118.537 305.878V310H117.601V309.088C117.413 309.432 117.143 309.694 116.791 309.874C116.443 310.054 116.025 310.144 115.537 310.144C115.133 310.144 114.773 310.07 114.457 309.922C114.145 309.77 113.901 309.56 113.725 309.292C113.553 309.024 113.467 308.718 113.467 308.374C113.467 308.054 113.547 307.76 113.707 307.492C113.871 307.22 114.097 306.998 114.385 306.826C114.673 306.654 114.999 306.55 115.363 306.514L117.157 306.334C117.289 306.322 117.393 306.266 117.469 306.166C117.549 306.066 117.589 305.922 117.589 305.734C117.589 305.49 117.529 305.276 117.409 305.092C117.293 304.908 117.129 304.766 116.917 304.666C116.709 304.566 116.467 304.516 116.191 304.516C115.919 304.516 115.671 304.562 115.447 304.654C115.223 304.746 115.041 304.872 114.901 305.032C114.761 305.192 114.679 305.368 114.655 305.56H113.719C113.755 305.22 113.887 304.91 114.115 304.63C114.343 304.346 114.641 304.122 115.009 303.958C115.377 303.794 115.779 303.712 116.215 303.712ZM115.717 309.394C116.081 309.394 116.405 309.324 116.689 309.184C116.973 309.04 117.193 308.84 117.349 308.584C117.509 308.324 117.589 308.03 117.589 307.702V307.006L115.495 307.222C115.175 307.254 114.917 307.372 114.721 307.576C114.525 307.78 114.427 308.028 114.427 308.32C114.427 308.528 114.481 308.714 114.589 308.878C114.697 309.038 114.849 309.164 115.045 309.256C115.241 309.348 115.465 309.394 115.717 309.394ZM121.422 310H120.462V303.856H121.422V310ZM120.396 302.74V301.6H121.488V302.74H120.396ZM126.377 303.712C126.837 303.712 127.239 303.812 127.583 304.012C127.927 304.208 128.191 304.488 128.375 304.852C128.563 305.216 128.657 305.64 128.657 306.124V310H127.697V306.196C127.697 305.672 127.561 305.264 127.289 304.972C127.021 304.676 126.647 304.528 126.167 304.528C125.823 304.528 125.521 304.602 125.261 304.75C125.001 304.894 124.799 305.102 124.655 305.374C124.515 305.646 124.445 305.966 124.445 306.334V310H123.485V303.856H124.409V304.798C124.605 304.438 124.869 304.168 125.201 303.988C125.533 303.804 125.925 303.712 126.377 303.712Z" fill="white"/>
<path d="M315.388 303.712C315.836 303.712 316.228 303.814 316.564 304.018C316.904 304.218 317.164 304.5 317.344 304.864C317.528 305.228 317.62 305.648 317.62 306.124V310H316.66V306.166C316.66 305.646 316.536 305.244 316.288 304.96C316.044 304.672 315.696 304.528 315.244 304.528C314.9 304.528 314.602 304.61 314.35 304.774C314.098 304.934 313.904 305.164 313.768 305.464C313.632 305.764 313.564 306.114 313.564 306.514V310H312.604V306.166C312.604 305.65 312.476 305.248 312.22 304.96C311.964 304.672 311.608 304.528 311.152 304.528C310.808 304.528 310.512 304.61 310.264 304.774C310.02 304.934 309.832 305.164 309.7 305.464C309.572 305.764 309.508 306.114 309.508 306.514V310H308.548V303.856H309.472V304.762C309.664 304.426 309.916 304.168 310.228 303.988C310.544 303.804 310.91 303.712 311.326 303.712C311.774 303.712 312.172 303.82 312.52 304.036C312.868 304.252 313.132 304.55 313.312 304.93C313.52 304.546 313.802 304.248 314.158 304.036C314.518 303.82 314.928 303.712 315.388 303.712ZM320.5 310H319.54V303.856H320.5V310ZM319.474 302.74V301.6H320.566V302.74H319.474ZM325.455 303.712C325.915 303.712 326.317 303.812 326.661 304.012C327.005 304.208 327.269 304.488 327.453 304.852C327.641 305.216 327.735 305.64 327.735 306.124V310H326.775V306.196C326.775 305.672 326.639 305.264 326.367 304.972C326.099 304.676 325.725 304.528 325.245 304.528C324.901 304.528 324.599 304.602 324.339 304.75C324.079 304.894 323.877 305.102 323.733 305.374C323.593 305.646 323.523 305.966 323.523 306.334V310H322.563V303.856H323.487V304.798C323.683 304.438 323.947 304.168 324.279 303.988C324.611 303.804 325.003 303.712 325.455 303.712ZM334.039 303.856H334.969L334.957 309.514C334.957 310.046 334.843 310.502 334.615 310.882C334.391 311.266 334.067 311.558 333.643 311.758C333.223 311.962 332.727 312.064 332.155 312.064C331.631 312.064 331.163 311.976 330.751 311.8C330.343 311.628 330.017 311.386 329.773 311.074C329.529 310.762 329.385 310.402 329.341 309.994H330.301C330.353 310.234 330.463 310.448 330.631 310.636C330.799 310.828 331.013 310.976 331.273 311.08C331.537 311.188 331.831 311.242 332.155 311.242C332.727 311.242 333.175 311.09 333.499 310.786C333.827 310.486 333.991 310.062 333.991 309.514V309.088L334.009 308.458C333.777 308.786 333.481 309.04 333.121 309.22C332.765 309.396 332.367 309.484 331.927 309.484C331.407 309.484 330.941 309.362 330.529 309.118C330.121 308.874 329.801 308.534 329.569 308.098C329.341 307.662 329.227 307.166 329.227 306.61C329.227 306.054 329.341 305.558 329.569 305.122C329.801 304.686 330.121 304.346 330.529 304.102C330.941 303.858 331.407 303.736 331.927 303.736C332.375 303.736 332.781 303.83 333.145 304.018C333.509 304.202 333.807 304.464 334.039 304.804V303.856ZM332.101 308.644C332.469 308.644 332.797 308.56 333.085 308.392C333.373 308.224 333.597 307.986 333.757 307.678C333.921 307.37 334.003 307.014 334.003 306.61C334.003 306.206 333.921 305.85 333.757 305.542C333.597 305.234 333.373 304.996 333.085 304.828C332.797 304.66 332.469 304.576 332.101 304.576C331.737 304.576 331.413 304.662 331.129 304.834C330.845 305.002 330.625 305.24 330.469 305.548C330.313 305.852 330.235 306.206 330.235 306.61C330.235 307.014 330.313 307.37 330.469 307.678C330.625 307.982 330.845 308.22 331.129 308.392C331.413 308.56 331.737 308.644 332.101 308.644ZM339.257 310H338.261L336.239 303.856H337.259L338.663 308.374L338.801 308.866L338.921 308.374L340.379 303.856H341.369L342.833 308.374L342.965 308.866L343.091 308.374L344.459 303.856H345.455L343.433 310H342.425L340.985 305.278L340.871 304.882L340.769 305.266L339.257 310ZM347.278 310H346.138L349.054 305.734L346.258 301.6H347.422L349.396 304.612L349.654 304.978L350.068 304.36L351.898 301.6H353.038L350.218 305.71L353.158 310H351.994L349.876 306.856L349.606 306.466L349.156 307.144L347.278 310ZM357.483 310.144C357.063 310.144 356.653 310.06 356.253 309.892C355.857 309.72 355.525 309.488 355.257 309.196C354.941 308.852 354.699 308.412 354.531 307.876C354.367 307.336 354.285 306.716 354.285 306.016C354.285 305.12 354.425 304.328 354.705 303.64C354.985 302.948 355.375 302.412 355.875 302.032C356.379 301.648 356.953 301.456 357.597 301.456C358.021 301.456 358.429 301.538 358.821 301.702C359.213 301.866 359.543 302.096 359.811 302.392C360.083 302.688 360.257 303.024 360.333 303.4H359.325C359.285 303.192 359.179 303.008 359.007 302.848C358.835 302.684 358.623 302.558 358.371 302.47C358.119 302.378 357.861 302.332 357.597 302.332C357.129 302.332 356.717 302.482 356.361 302.782C356.009 303.082 355.733 303.514 355.533 304.078C355.333 304.642 355.227 305.31 355.215 306.082C355.335 305.778 355.521 305.504 355.773 305.26C356.025 305.012 356.319 304.818 356.655 304.678C356.991 304.538 357.341 304.468 357.705 304.468C358.249 304.468 358.733 304.59 359.157 304.834C359.581 305.074 359.909 305.41 360.141 305.842C360.377 306.27 360.495 306.758 360.495 307.306C360.495 307.858 360.367 308.35 360.111 308.782C359.859 309.21 359.505 309.544 359.049 309.784C358.593 310.024 358.071 310.144 357.483 310.144ZM357.525 309.268C357.905 309.268 358.241 309.186 358.533 309.022C358.829 308.854 359.057 308.622 359.217 308.326C359.381 308.03 359.463 307.692 359.463 307.312C359.463 306.932 359.381 306.594 359.217 306.298C359.053 305.998 358.821 305.764 358.521 305.596C358.221 305.428 357.875 305.344 357.483 305.344C357.091 305.344 356.741 305.43 356.433 305.602C356.129 305.774 355.891 306.01 355.719 306.31C355.551 306.606 355.467 306.936 355.467 307.3C355.467 307.668 355.555 308.002 355.731 308.302C355.907 308.602 356.151 308.838 356.463 309.01C356.779 309.182 357.133 309.268 357.525 309.268ZM366.611 301.6V307.03H367.919V307.93H366.611V310H365.627V307.93H361.367V306.994L365.621 301.6H366.611ZM365.627 302.908L362.417 307.03H365.627V302.908ZM370.727 310H369.737V301.6H371.009L373.991 308.47L374.153 308.914L374.309 308.47L377.213 301.6H378.521V310H377.525V303.028L374.567 310H373.697L370.727 303.064V310ZM383.157 303.712C383.621 303.712 384.027 303.798 384.375 303.97C384.727 304.138 384.999 304.384 385.191 304.708C385.383 305.032 385.479 305.422 385.479 305.878V310H384.543V309.088C384.355 309.432 384.085 309.694 383.733 309.874C383.385 310.054 382.967 310.144 382.479 310.144C382.075 310.144 381.715 310.07 381.399 309.922C381.087 309.77 380.843 309.56 380.667 309.292C380.495 309.024 380.409 308.718 380.409 308.374C380.409 308.054 380.489 307.76 380.649 307.492C380.813 307.22 381.039 306.998 381.327 306.826C381.615 306.654 381.941 306.55 382.305 306.514L384.099 306.334C384.231 306.322 384.335 306.266 384.411 306.166C384.491 306.066 384.531 305.922 384.531 305.734C384.531 305.49 384.471 305.276 384.351 305.092C384.235 304.908 384.071 304.766 383.859 304.666C383.651 304.566 383.409 304.516 383.133 304.516C382.861 304.516 382.613 304.562 382.389 304.654C382.165 304.746 381.983 304.872 381.843 305.032C381.703 305.192 381.621 305.368 381.597 305.56H380.661C380.697 305.22 380.829 304.91 381.057 304.63C381.285 304.346 381.583 304.122 381.951 303.958C382.319 303.794 382.721 303.712 383.157 303.712ZM382.659 309.394C383.023 309.394 383.347 309.324 383.631 309.184C383.915 309.04 384.135 308.84 384.291 308.584C384.451 308.324 384.531 308.03 384.531 307.702V307.006L382.437 307.222C382.117 307.254 381.859 307.372 381.663 307.576C381.467 307.78 381.369 308.028 381.369 308.32C381.369 308.528 381.423 308.714 381.531 308.878C381.639 309.038 381.791 309.164 381.987 309.256C382.183 309.348 382.407 309.394 382.659 309.394ZM388.363 310H387.403V303.856H388.363V310ZM387.337 302.74V301.6H388.429V302.74H387.337ZM393.319 303.712C393.779 303.712 394.181 303.812 394.525 304.012C394.869 304.208 395.133 304.488 395.317 304.852C395.505 305.216 395.599 305.64 395.599 306.124V310H394.639V306.196C394.639 305.672 394.503 305.264 394.231 304.972C393.963 304.676 393.589 304.528 393.109 304.528C392.765 304.528 392.463 304.602 392.203 304.75C391.943 304.894 391.741 305.102 391.597 305.374C391.457 305.646 391.387 305.966 391.387 306.334V310H390.427V303.856H391.351V304.798C391.547 304.438 391.811 304.168 392.143 303.988C392.475 303.804 392.867 303.712 393.319 303.712Z" fill="white"/>
<path d="M580.616 303.712C581.064 303.712 581.456 303.814 581.792 304.018C582.132 304.218 582.392 304.5 582.572 304.864C582.756 305.228 582.848 305.648 582.848 306.124V310H581.888V306.166C581.888 305.646 581.764 305.244 581.516 304.96C581.272 304.672 580.924 304.528 580.472 304.528C580.128 304.528 579.83 304.61 579.578 304.774C579.326 304.934 579.132 305.164 578.996 305.464C578.86 305.764 578.792 306.114 578.792 306.514V310H577.832V306.166C577.832 305.65 577.704 305.248 577.448 304.96C577.192 304.672 576.836 304.528 576.38 304.528C576.036 304.528 575.74 304.61 575.492 304.774C575.248 304.934 575.06 305.164 574.928 305.464C574.8 305.764 574.736 306.114 574.736 306.514V310H573.776V303.856H574.7V304.762C574.892 304.426 575.144 304.168 575.456 303.988C575.772 303.804 576.138 303.712 576.554 303.712C577.002 303.712 577.4 303.82 577.748 304.036C578.096 304.252 578.36 304.55 578.54 304.93C578.748 304.546 579.03 304.248 579.386 304.036C579.746 303.82 580.156 303.712 580.616 303.712ZM587.096 303.712C587.56 303.712 587.966 303.798 588.314 303.97C588.666 304.138 588.938 304.384 589.13 304.708C589.322 305.032 589.418 305.422 589.418 305.878V310H588.482V309.088C588.294 309.432 588.024 309.694 587.672 309.874C587.324 310.054 586.906 310.144 586.418 310.144C586.014 310.144 585.654 310.07 585.338 309.922C585.026 309.77 584.782 309.56 584.606 309.292C584.434 309.024 584.348 308.718 584.348 308.374C584.348 308.054 584.428 307.76 584.588 307.492C584.752 307.22 584.978 306.998 585.266 306.826C585.554 306.654 585.88 306.55 586.244 306.514L588.038 306.334C588.17 306.322 588.274 306.266 588.35 306.166C588.43 306.066 588.47 305.922 588.47 305.734C588.47 305.49 588.41 305.276 588.29 305.092C588.174 304.908 588.01 304.766 587.798 304.666C587.59 304.566 587.348 304.516 587.072 304.516C586.8 304.516 586.552 304.562 586.328 304.654C586.104 304.746 585.922 304.872 585.782 305.032C585.642 305.192 585.56 305.368 585.536 305.56H584.6C584.636 305.22 584.768 304.91 584.996 304.63C585.224 304.346 585.522 304.122 585.89 303.958C586.258 303.794 586.66 303.712 587.096 303.712ZM586.598 309.394C586.962 309.394 587.286 309.324 587.57 309.184C587.854 309.04 588.074 308.84 588.23 308.584C588.39 308.324 588.47 308.03 588.47 307.702V307.006L586.376 307.222C586.056 307.254 585.798 307.372 585.602 307.576C585.406 307.78 585.308 308.028 585.308 308.32C585.308 308.528 585.362 308.714 585.47 308.878C585.578 309.038 585.73 309.164 585.926 309.256C586.122 309.348 586.346 309.394 586.598 309.394ZM593.917 310.144C593.337 310.144 592.813 310.004 592.345 309.724C591.877 309.444 591.509 309.06 591.241 308.572C590.977 308.08 590.845 307.532 590.845 306.928C590.845 306.324 590.977 305.778 591.241 305.29C591.509 304.798 591.877 304.412 592.345 304.132C592.813 303.852 593.337 303.712 593.917 303.712C594.413 303.712 594.869 303.81 595.285 304.006C595.701 304.198 596.037 304.466 596.293 304.81C596.553 305.15 596.703 305.532 596.743 305.956H595.783C595.735 305.692 595.621 305.454 595.441 305.242C595.265 305.03 595.043 304.864 594.775 304.744C594.511 304.624 594.225 304.564 593.917 304.564C593.525 304.564 593.171 304.668 592.855 304.876C592.543 305.08 592.297 305.362 592.117 305.722C591.941 306.082 591.853 306.484 591.853 306.928C591.853 307.372 591.941 307.774 592.117 308.134C592.297 308.494 592.543 308.776 592.855 308.98C593.171 309.184 593.525 309.286 593.917 309.286C594.225 309.286 594.511 309.228 594.775 309.112C595.043 308.996 595.265 308.838 595.441 308.638C595.621 308.434 595.735 308.208 595.783 307.96H596.743C596.707 308.372 596.559 308.744 596.299 309.076C596.043 309.408 595.707 309.67 595.291 309.862C594.875 310.05 594.417 310.144 593.917 310.144ZM600.889 310.144C600.305 310.144 599.779 310.006 599.311 309.73C598.843 309.45 598.475 309.066 598.207 308.578C597.939 308.09 597.805 307.54 597.805 306.928C597.805 306.316 597.939 305.766 598.207 305.278C598.475 304.79 598.845 304.408 599.317 304.132C599.789 303.852 600.317 303.712 600.901 303.712C601.485 303.712 602.013 303.852 602.485 304.132C602.957 304.408 603.327 304.79 603.595 305.278C603.863 305.766 603.997 306.316 603.997 306.928C603.997 307.54 603.861 308.09 603.589 308.578C603.321 309.066 602.951 309.45 602.479 309.73C602.007 310.006 601.477 310.144 600.889 310.144ZM600.901 309.256C601.301 309.256 601.659 309.16 601.975 308.968C602.291 308.772 602.539 308.498 602.719 308.146C602.899 307.794 602.989 307.388 602.989 306.928C602.989 306.468 602.899 306.062 602.719 305.71C602.539 305.354 602.291 305.08 601.975 304.888C601.659 304.692 601.301 304.594 600.901 304.594C600.501 304.594 600.143 304.692 599.827 304.888C599.511 305.08 599.263 305.354 599.083 305.71C598.903 306.062 598.813 306.468 598.813 306.928C598.813 307.388 598.903 307.794 599.083 308.146C599.263 308.498 599.511 308.772 599.827 308.968C600.143 309.16 600.501 309.256 600.901 309.256ZM607.603 310.144C607.103 310.144 606.661 310.066 606.277 309.91C605.897 309.75 605.601 309.53 605.389 309.25C605.181 308.97 605.075 308.652 605.071 308.296H606.031C606.039 308.504 606.109 308.688 606.241 308.848C606.373 309.008 606.553 309.134 606.781 309.226C607.013 309.314 607.277 309.358 607.573 309.358C608.029 309.358 608.383 309.262 608.635 309.07C608.887 308.878 609.013 308.616 609.013 308.284C609.013 308.028 608.935 307.82 608.779 307.66C608.627 307.496 608.401 307.39 608.101 307.342L606.985 307.168C606.449 307.084 606.031 306.89 605.731 306.586C605.431 306.278 605.281 305.896 605.281 305.44C605.281 305.104 605.375 304.806 605.563 304.546C605.755 304.282 606.019 304.078 606.355 303.934C606.695 303.786 607.079 303.712 607.507 303.712C607.947 303.712 608.341 303.786 608.689 303.934C609.041 304.082 609.317 304.288 609.517 304.552C609.721 304.812 609.827 305.108 609.835 305.44H608.875C608.871 305.264 608.807 305.104 608.683 304.96C608.563 304.816 608.399 304.704 608.191 304.624C607.983 304.54 607.751 304.498 607.495 304.498C607.247 304.498 607.023 304.538 606.823 304.618C606.627 304.694 606.473 304.802 606.361 304.942C606.253 305.078 606.199 305.236 606.199 305.416C606.199 305.656 606.271 305.85 606.415 305.998C606.559 306.142 606.771 306.236 607.051 306.28L608.203 306.466C608.763 306.554 609.191 306.754 609.487 307.066C609.787 307.378 609.937 307.776 609.937 308.26C609.937 308.636 609.841 308.966 609.649 309.25C609.457 309.534 609.185 309.754 608.833 309.91C608.481 310.066 608.071 310.144 607.603 310.144ZM612.049 310H610.909L613.825 305.734L611.029 301.6H612.193L614.167 304.612L614.425 304.978L614.839 304.36L616.669 301.6H617.809L614.989 305.71L617.929 310H616.765L614.647 306.856L614.377 306.466L613.927 307.144L612.049 310ZM622.254 310.144C621.834 310.144 621.424 310.06 621.024 309.892C620.628 309.72 620.296 309.488 620.028 309.196C619.712 308.852 619.47 308.412 619.302 307.876C619.138 307.336 619.056 306.716 619.056 306.016C619.056 305.12 619.196 304.328 619.476 303.64C619.756 302.948 620.146 302.412 620.646 302.032C621.15 301.648 621.724 301.456 622.368 301.456C622.792 301.456 623.2 301.538 623.592 301.702C623.984 301.866 624.314 302.096 624.582 302.392C624.854 302.688 625.028 303.024 625.104 303.4H624.096C624.056 303.192 623.95 303.008 623.778 302.848C623.606 302.684 623.394 302.558 623.142 302.47C622.89 302.378 622.632 302.332 622.368 302.332C621.9 302.332 621.488 302.482 621.132 302.782C620.78 303.082 620.504 303.514 620.304 304.078C620.104 304.642 619.998 305.31 619.986 306.082C620.106 305.778 620.292 305.504 620.544 305.26C620.796 305.012 621.09 304.818 621.426 304.678C621.762 304.538 622.112 304.468 622.476 304.468C623.02 304.468 623.504 304.59 623.928 304.834C624.352 305.074 624.68 305.41 624.912 305.842C625.148 306.27 625.266 306.758 625.266 307.306C625.266 307.858 625.138 308.35 624.882 308.782C624.63 309.21 624.276 309.544 623.82 309.784C623.364 310.024 622.842 310.144 622.254 310.144ZM622.296 309.268C622.676 309.268 623.012 309.186 623.304 309.022C623.6 308.854 623.828 308.622 623.988 308.326C624.152 308.03 624.234 307.692 624.234 307.312C624.234 306.932 624.152 306.594 623.988 306.298C623.824 305.998 623.592 305.764 623.292 305.596C622.992 305.428 622.646 305.344 622.254 305.344C621.862 305.344 621.512 305.43 621.204 305.602C620.9 305.774 620.662 306.01 620.49 306.31C620.322 306.606 620.238 306.936 620.238 307.3C620.238 307.668 620.326 308.002 620.502 308.302C620.678 308.602 620.922 308.838 621.234 309.01C621.55 309.182 621.904 309.268 622.296 309.268ZM631.383 301.6V307.03H632.691V307.93H631.383V310H630.399V307.93H626.139V306.994L630.393 301.6H631.383ZM630.399 302.908L627.189 307.03H630.399V302.908ZM635.498 310H634.508V301.6H635.78L638.762 308.47L638.924 308.914L639.08 308.47L641.984 301.6H643.292V310H642.296V303.028L639.338 310H638.468L635.498 303.064V310ZM647.928 303.712C648.392 303.712 648.798 303.798 649.146 303.97C649.498 304.138 649.77 304.384 649.962 304.708C650.154 305.032 650.25 305.422 650.25 305.878V310H649.314V309.088C649.126 309.432 648.856 309.694 648.504 309.874C648.156 310.054 647.738 310.144 647.25 310.144C646.846 310.144 646.486 310.07 646.17 309.922C645.858 309.77 645.614 309.56 645.438 309.292C645.266 309.024 645.18 308.718 645.18 308.374C645.18 308.054 645.26 307.76 645.42 307.492C645.584 307.22 645.81 306.998 646.098 306.826C646.386 306.654 646.712 306.55 647.076 306.514L648.87 306.334C649.002 306.322 649.106 306.266 649.182 306.166C649.262 306.066 649.302 305.922 649.302 305.734C649.302 305.49 649.242 305.276 649.122 305.092C649.006 304.908 648.842 304.766 648.63 304.666C648.422 304.566 648.18 304.516 647.904 304.516C647.632 304.516 647.384 304.562 647.16 304.654C646.936 304.746 646.754 304.872 646.614 305.032C646.474 305.192 646.392 305.368 646.368 305.56H645.432C645.468 305.22 645.6 304.91 645.828 304.63C646.056 304.346 646.354 304.122 646.722 303.958C647.09 303.794 647.492 303.712 647.928 303.712ZM647.43 309.394C647.794 309.394 648.118 309.324 648.402 309.184C648.686 309.04 648.906 308.84 649.062 308.584C649.222 308.324 649.302 308.03 649.302 307.702V307.006L647.208 307.222C646.888 307.254 646.63 307.372 646.434 307.576C646.238 307.78 646.14 308.028 646.14 308.32C646.14 308.528 646.194 308.714 646.302 308.878C646.41 309.038 646.562 309.164 646.758 309.256C646.954 309.348 647.178 309.394 647.43 309.394ZM653.135 310H652.175V303.856H653.135V310ZM652.109 302.74V301.6H653.201V302.74H652.109ZM658.09 303.712C658.55 303.712 658.952 303.812 659.296 304.012C659.64 304.208 659.904 304.488 660.088 304.852C660.276 305.216 660.37 305.64 660.37 306.124V310H659.41V306.196C659.41 305.672 659.274 305.264 659.002 304.972C658.734 304.676 658.36 304.528 657.88 304.528C657.536 304.528 657.234 304.602 656.974 304.75C656.714 304.894 656.512 305.102 656.368 305.374C656.228 305.646 656.158 305.966 656.158 306.334V310H655.198V303.856H656.122V304.798C656.318 304.438 656.582 304.168 656.914 303.988C657.246 303.804 657.638 303.712 658.09 303.712Z" fill="white"/>
<rect x="72" y="165" width="120" height="40" rx="12" fill="#FF688D"/>
<path d="M87.1174 182.856H88.0414V183.894C88.2254 183.514 88.4794 183.222 88.8034 183.018C89.1314 182.814 89.5154 182.712 89.9554 182.712C90.4194 182.712 90.8194 182.822 91.1554 183.042C91.4954 183.262 91.7494 183.572 91.9174 183.972C92.1134 183.576 92.3874 183.268 92.7394 183.048C93.0914 182.824 93.4974 182.712 93.9574 182.712C94.3934 182.712 94.7794 182.812 95.1154 183.012C95.4554 183.208 95.7194 183.488 95.9074 183.852C96.0954 184.216 96.1894 184.64 96.1894 185.124V189H95.2294V185.166C95.2294 184.658 95.1014 184.258 94.8454 183.966C94.5934 183.674 94.2374 183.528 93.7774 183.528C93.4494 183.528 93.1614 183.604 92.9134 183.756C92.6654 183.904 92.4734 184.116 92.3374 184.392C92.2014 184.664 92.1334 184.986 92.1334 185.358V189H91.1734V185.166C91.1734 184.658 91.0454 184.258 90.7894 183.966C90.5374 183.674 90.1814 183.528 89.7214 183.528C89.3894 183.528 89.0994 183.602 88.8514 183.75C88.6034 183.898 88.4114 184.11 88.2754 184.386C88.1434 184.662 88.0774 184.986 88.0774 185.358V189H87.1174V182.856ZM97.6975 190.068H98.6095C98.7375 190.068 98.8595 190.026 98.9755 189.942C99.0915 189.862 99.1815 189.754 99.2455 189.618L99.5935 188.862L97.2235 182.856H98.2375L100.068 187.638L101.85 182.856H102.888L100.098 189.918C99.9775 190.226 99.7855 190.47 99.5215 190.65C99.2615 190.83 98.9675 190.92 98.6395 190.92H97.6975V190.068ZM104.131 180.6H107.107C107.895 180.6 108.593 180.778 109.201 181.134C109.813 181.486 110.289 181.98 110.629 182.616C110.969 183.252 111.139 183.98 111.139 184.8C111.139 185.62 110.969 186.348 110.629 186.984C110.289 187.62 109.813 188.116 109.201 188.472C108.593 188.824 107.895 189 107.107 189H104.131V180.6ZM107.107 188.07C107.691 188.07 108.211 187.932 108.667 187.656C109.123 187.38 109.477 186.996 109.729 186.504C109.981 186.008 110.107 185.44 110.107 184.8C110.107 184.16 109.981 183.594 109.729 183.102C109.477 182.606 109.123 182.22 108.667 181.944C108.211 181.668 107.691 181.53 107.107 181.53H105.127V188.07H107.107ZM115.338 189.144C114.758 189.144 114.234 189.006 113.766 188.73C113.298 188.454 112.93 188.07 112.662 187.578C112.394 187.086 112.26 186.532 112.26 185.916C112.26 185.316 112.396 184.772 112.668 184.284C112.94 183.792 113.31 183.408 113.778 183.132C114.25 182.852 114.77 182.712 115.338 182.712C115.922 182.712 116.44 182.848 116.892 183.12C117.344 183.388 117.696 183.766 117.948 184.254C118.2 184.742 118.326 185.3 118.326 185.928V186.144H113.238C113.27 186.572 113.378 186.948 113.562 187.272C113.746 187.592 113.99 187.84 114.294 188.016C114.598 188.188 114.946 188.274 115.338 188.274C115.71 188.274 116.04 188.202 116.328 188.058C116.616 187.914 116.852 187.708 117.036 187.44H118.104C117.876 187.972 117.52 188.39 117.036 188.694C116.552 188.994 115.986 189.144 115.338 189.144ZM117.324 185.382C117.264 185.018 117.142 184.7 116.958 184.428C116.778 184.156 116.548 183.946 116.268 183.798C115.992 183.65 115.682 183.576 115.338 183.576C114.978 183.576 114.652 183.65 114.36 183.798C114.068 183.946 113.828 184.156 113.64 184.428C113.452 184.7 113.328 185.018 113.268 185.382H117.324ZM121.894 189.144C121.422 189.144 121.002 189.07 120.634 188.922C120.266 188.77 119.974 188.556 119.758 188.28C119.542 188.004 119.422 187.682 119.398 187.314H120.358C120.398 187.622 120.556 187.868 120.832 188.052C121.108 188.236 121.458 188.328 121.882 188.328C122.162 188.328 122.41 188.284 122.626 188.196C122.846 188.108 123.016 187.986 123.136 187.83C123.256 187.67 123.316 187.488 123.316 187.284C123.316 187.064 123.246 186.874 123.106 186.714C122.97 186.55 122.784 186.446 122.548 186.402L121.222 186.156C120.722 186.064 120.328 185.872 120.04 185.58C119.756 185.284 119.614 184.922 119.614 184.494C119.614 184.158 119.706 183.856 119.89 183.588C120.074 183.316 120.332 183.102 120.664 182.946C121 182.79 121.384 182.712 121.816 182.712C122.26 182.712 122.65 182.784 122.986 182.928C123.322 183.068 123.586 183.272 123.778 183.54C123.974 183.804 124.086 184.118 124.114 184.482H123.154C123.114 184.186 122.972 183.95 122.728 183.774C122.484 183.598 122.18 183.51 121.816 183.51C121.568 183.51 121.348 183.552 121.156 183.636C120.964 183.716 120.816 183.832 120.712 183.984C120.608 184.132 120.556 184.302 120.556 184.494C120.556 184.706 120.626 184.876 120.766 185.004C120.906 185.128 121.132 185.22 121.444 185.28L122.758 185.526C123.07 185.586 123.338 185.7 123.562 185.868C123.79 186.032 123.962 186.238 124.078 186.486C124.198 186.73 124.258 186.996 124.258 187.284C124.258 187.64 124.154 187.96 123.946 188.244C123.742 188.528 123.46 188.75 123.1 188.91C122.74 189.066 122.338 189.144 121.894 189.144ZM125.813 180.6H126.773V185.73L129.557 182.856H130.751L127.967 185.73L130.859 189H129.611L126.773 185.79V189H125.813V180.6ZM133.935 189C133.643 189 133.377 188.938 133.137 188.814C132.901 188.686 132.715 188.512 132.579 188.292C132.443 188.068 132.375 187.82 132.375 187.548L132.369 183.708H131.289L131.295 182.856H131.961C132.113 182.856 132.235 182.808 132.327 182.712C132.423 182.616 132.471 182.494 132.471 182.346V181.356H133.335V182.856H134.997L134.991 183.708H133.329L133.335 187.488C133.335 187.676 133.397 187.834 133.521 187.962C133.649 188.086 133.807 188.148 133.995 188.148H134.991V189H133.935ZM139.076 189.144C138.488 189.144 137.954 189.004 137.474 188.724C136.998 188.444 136.624 188.06 136.352 187.572C136.08 187.08 135.944 186.532 135.944 185.928C135.944 185.324 136.08 184.778 136.352 184.29C136.624 183.798 136.998 183.412 137.474 183.132C137.954 182.852 138.488 182.712 139.076 182.712C139.664 182.712 140.196 182.852 140.672 183.132C141.152 183.412 141.528 183.798 141.8 184.29C142.072 184.778 142.208 185.324 142.208 185.928C142.208 186.532 142.072 187.08 141.8 187.572C141.528 188.06 141.152 188.444 140.672 188.724C140.196 189.004 139.664 189.144 139.076 189.144ZM139.076 188.268C139.492 188.268 139.86 188.17 140.18 187.974C140.504 187.774 140.754 187.498 140.93 187.146C141.11 186.79 141.2 186.384 141.2 185.928C141.2 185.468 141.11 185.062 140.93 184.71C140.754 184.354 140.504 184.078 140.18 183.882C139.86 183.682 139.492 183.582 139.076 183.582C138.66 183.582 138.29 183.682 137.966 183.882C137.646 184.078 137.396 184.354 137.216 184.71C137.04 185.062 136.952 185.468 136.952 185.928C136.952 186.384 137.04 186.79 137.216 187.146C137.396 187.498 137.646 187.774 137.966 187.974C138.29 188.17 138.66 188.268 139.076 188.268ZM144.678 182.856V183.942C144.91 183.55 145.222 183.248 145.614 183.036C146.006 182.82 146.456 182.712 146.964 182.712C147.536 182.712 148.044 182.848 148.488 183.12C148.936 183.388 149.284 183.766 149.532 184.254C149.784 184.742 149.91 185.3 149.91 185.928C149.91 186.556 149.784 187.114 149.532 187.602C149.284 188.09 148.936 188.47 148.488 188.742C148.044 189.01 147.536 189.144 146.964 189.144C146.464 189.144 146.02 189.04 145.632 188.832C145.244 188.624 144.934 188.332 144.702 187.956V190.92H143.742V182.856H144.678ZM146.814 188.274C147.222 188.274 147.584 188.176 147.9 187.98C148.216 187.78 148.462 187.504 148.638 187.152C148.814 186.796 148.902 186.388 148.902 185.928C148.902 185.468 148.814 185.062 148.638 184.71C148.462 184.354 148.216 184.078 147.9 183.882C147.584 183.682 147.222 183.582 146.814 183.582C146.402 183.582 146.036 183.682 145.716 183.882C145.396 184.078 145.146 184.354 144.966 184.71C144.79 185.062 144.702 185.468 144.702 185.928C144.702 186.388 144.79 186.796 144.966 187.152C145.146 187.504 145.396 187.78 145.716 187.98C146.036 188.176 146.402 188.274 146.814 188.274ZM151.592 180.6H152.834L155.846 187.332L156.002 187.758L156.152 187.332L159.11 180.6H160.376V189H159.38V182.208L156.41 189H155.576L152.582 182.244V189H151.592V180.6ZM164.705 182.712C165.181 182.712 165.591 182.8 165.935 182.976C166.283 183.148 166.549 183.396 166.733 183.72C166.921 184.044 167.015 184.428 167.015 184.872V189H166.067V188.118C165.871 188.446 165.605 188.7 165.269 188.88C164.937 189.056 164.555 189.144 164.123 189.144C163.731 189.144 163.377 189.068 163.061 188.916C162.749 188.76 162.505 188.548 162.329 188.28C162.153 188.008 162.065 187.704 162.065 187.368C162.065 187.044 162.149 186.744 162.317 186.468C162.485 186.188 162.717 185.96 163.013 185.784C163.309 185.604 163.643 185.494 164.015 185.454L165.623 185.274C165.847 185.246 165.991 185.124 166.055 184.908V184.752C166.055 184.384 165.933 184.092 165.689 183.876C165.445 183.66 165.117 183.552 164.705 183.552C164.429 183.552 164.185 183.596 163.973 183.684C163.765 183.768 163.599 183.882 163.475 184.026C163.351 184.17 163.273 184.324 163.241 184.488H162.281C162.333 184.156 162.465 183.856 162.677 183.588C162.893 183.316 163.175 183.102 163.523 182.946C163.871 182.79 164.265 182.712 164.705 182.712ZM163.061 187.32C163.061 187.52 163.115 187.698 163.223 187.854C163.331 188.01 163.481 188.132 163.673 188.22C163.869 188.304 164.093 188.346 164.345 188.346C164.677 188.346 164.973 188.278 165.233 188.142C165.493 188.002 165.695 187.808 165.839 187.56C165.983 187.312 166.055 187.026 166.055 186.702V185.952L164.153 186.162C163.941 186.186 163.751 186.252 163.583 186.36C163.419 186.468 163.291 186.606 163.199 186.774C163.107 186.942 163.061 187.124 163.061 187.32ZM168.856 182.856H169.816V189H168.856V182.856ZM168.808 180.6H169.864V181.692H168.808V180.6ZM171.832 182.856H172.756V183.852C172.96 183.488 173.236 183.208 173.584 183.012C173.932 182.812 174.334 182.712 174.79 182.712C175.23 182.712 175.62 182.806 175.96 182.994C176.3 183.182 176.566 183.46 176.758 183.828C176.954 184.192 177.052 184.63 177.052 185.142V189H176.092V185.238C176.092 184.706 175.954 184.292 175.678 183.996C175.402 183.7 175.022 183.552 174.538 183.552C174.194 183.552 173.89 183.628 173.626 183.78C173.362 183.932 173.156 184.146 173.008 184.422C172.864 184.694 172.792 185.006 172.792 185.358V189H171.832V182.856Z" fill="white"/>
<path d="M132 134.963L132.35 134.963L132 134.963ZM347 83L344.979 86.5L349.021 86.5L347 83ZM132 165L132.35 165L132.35 134.963L132 134.963L131.65 134.963L131.65 165L132 165ZM146 120.963L146 121.313L333 121.313L333 120.963L333 120.613L146 120.613L146 120.963ZM347 106.963L347.35 106.963L347.35 86.15L347 86.15L346.65 86.15L346.65 106.963L347 106.963ZM333 120.963L333 121.313C340.925 121.313 347.35 114.888 347.35 106.963L347 106.963L346.65 106.963C346.65 114.502 340.539 120.613 333 120.613L333 120.963ZM132 134.963L132.35 134.963C132.35 127.424 138.461 121.313 146 121.313L146 120.963L146 120.613C138.075 120.613 131.65 127.038 131.65 134.963L132 134.963Z" fill="black"/>
<path d="M570 134.963L570.35 134.963L570 134.963ZM357 83L359.021 86.5L354.979 86.5L357 83ZM570 165L569.65 165L569.65 134.963L570 134.963L570.35 134.963L570.35 165L570 165ZM556 120.963L556 121.313L371 121.313L371 120.963L371 120.613L556 120.613L556 120.963ZM357 106.963L356.65 106.963L356.65 86.15L357 86.15L357.35 86.15L357.35 106.963L357 106.963ZM371 120.963L371 121.313C363.075 121.313 356.65 114.888 356.65 106.963L357 106.963L357.35 106.963C357.35 114.502 363.461 120.613 371 120.613L371 120.963ZM570 134.963L569.65 134.963C569.65 127.424 563.539 121.313 556 121.313L556 120.963L556 120.613C563.925 120.613 570.35 127.038 570.35 134.963L570 134.963Z" fill="black"/>
<path d="M129 208L126.979 211.5L131.021 211.5L129 208ZM91 288L91.35 288L91.35 259.037L91 259.037L90.65 259.037L90.65 288L91 288ZM105 245.037L105 245.387L115 245.387L115 245.037L115 244.687L105 244.687L105 245.037ZM129 231.037L129.35 231.037L129.35 211.15L129 211.15L128.65 211.15L128.65 231.037L129 231.037ZM115 245.037L115 245.387C122.925 245.387 129.35 238.962 129.35 231.037L129 231.037L128.65 231.037C128.65 238.576 122.539 244.687 115 244.687L115 245.037ZM91 259.037L91.35 259.037C91.35 251.498 97.4613 245.387 105 245.387L105 245.037L105 244.687C97.0747 244.687 90.65 251.112 90.65 259.037L91 259.037Z" fill="black"/>
<path d="M618 259.037L617.65 259.037L618 259.037ZM604 245.037L604 245.387L604 245.037ZM149 245.037L149 244.687L149 245.037ZM135 208L137.021 211.5L132.979 211.5L135 208ZM618 288L617.65 288L617.65 259.037L618 259.037L618.35 259.037L618.35 288L618 288ZM604 245.037L604 245.387L149 245.387L149 245.037L149 244.687L604 244.687L604 245.037ZM135 231.037L134.65 231.037L134.65 211.15L135 211.15L135.35 211.15L135.35 231.037L135 231.037ZM149 245.037L149 245.387C141.075 245.387 134.65 238.962 134.65 231.037L135 231.037L135.35 231.037C135.35 238.576 141.461 244.687 149 244.687L149 245.037ZM618 259.037L617.65 259.037C617.65 251.498 611.539 245.387 604 245.387L604 245.037L604 244.687C611.925 244.687 618.35 251.112 618.35 259.037L618 259.037Z" fill="black"/>
<path d="M357 259.037L357.35 259.037L357 259.037ZM343 245.037L343 245.387H343L343 245.037ZM149 245.037L149 244.687H149L149 245.037ZM135 208L137.021 211.5L132.979 211.5L135 208ZM357 288L356.65 288L356.65 259.037L357 259.037L357.35 259.037L357.35 288L357 288ZM343 245.037L343 245.387L149 245.387L149 245.037L149 244.687L343 244.687L343 245.037ZM135 231.037L134.65 231.037L134.65 211.15L135 211.15L135.35 211.15L135.35 231.037L135 231.037ZM149 245.037L149 245.387C141.075 245.387 134.65 238.962 134.65 231.037L135 231.037L135.35 231.037C135.35 238.576 141.461 244.687 149 244.687L149 245.037ZM357 259.037L356.65 259.037C356.65 251.498 350.539 245.387 343 245.387L343 245.037L343 244.687C350.925 244.687 357.35 251.112 357.35 259.037L357 259.037Z" fill="black"/>
<path d="M352 83L349.979 86.5L354.021 86.5L352 83ZM352 165L352.35 165L352.35 86.15L352 86.15L351.65 86.15L351.65 165L352 165Z" fill="black"/>
<defs>
<radialGradient id="paint0_radial_1_4" cx="0" cy="0" r="1" gradientUnits="userSpaceOnUse" gradientTransform="translate(35.6921 324.543) scale(107.229 133.24)">
<stop stop-color="#EB4857"/>
<stop offset="0.5" stop-color="#C611E0"/>
<stop offset="1" stop-color="#7F52FF"/>
</radialGradient>
<radialGradient id="paint1_radial_1_4" cx="0" cy="0" r="1" gradientUnits="userSpaceOnUse" gradientTransform="translate(296.692 324.543) scale(107.229 133.24)">
<stop stop-color="#EB4857"/>
<stop offset="0.5" stop-color="#C611E0"/>
<stop offset="1" stop-color="#7F52FF"/>
</radialGradient>
<radialGradient id="paint2_radial_1_4" cx="0" cy="0" r="1" gradientUnits="userSpaceOnUse" gradientTransform="translate(561.692 324.543) scale(107.229 133.24)">
<stop stop-color="#EB4857"/>
<stop offset="0.5" stop-color="#C611E0"/>
<stop offset="1" stop-color="#7F52FF"/>
</radialGradient>
<radialGradient id="paint3_radial_1_4" cx="0" cy="0" r="1" gradientUnits="userSpaceOnUse" gradientTransform="translate(513.692 201.543) scale(107.229 133.24)">
<stop stop-color="#EB4857"/>
<stop offset="0.5" stop-color="#C611E0"/>
<stop offset="1" stop-color="#7F52FF"/>
</radialGradient>
<radialGradient id="paint4_radial_1_4" cx="0" cy="0" r="1" gradientUnits="userSpaceOnUse" gradientTransform="translate(297.692 201.543) scale(107.229 133.24)">
<stop stop-color="#EB4857"/>
<stop offset="0.5" stop-color="#C611E0"/>
<stop offset="1" stop-color="#7F52FF"/>
</radialGradient>
</defs>
</svg>
